<?xml version="1.0" encoding="utf-8" standalone="no"?>
<!DOCTYPE svg PUBLIC "-//W3C//DTD SVG 1.1//EN"
  "http://www.w3.org/Graphics/SVG/1.1/DTD/svg11.dtd">
<!-- Created with matplotlib (http://matplotlib.org/) -->
<svg height="635pt" version="1.1" viewBox="0 0 1214 635" width="1214pt" xmlns="http://www.w3.org/2000/svg" xmlns:xlink="http://www.w3.org/1999/xlink">
 <defs>
  <style type="text/css">
*{stroke-linecap:butt;stroke-linejoin:round;}
  </style>
 </defs>
 <g id="figure_1">
  <g id="patch_1">
   <path d="
M-1.42109e-14 635.838
L1214.6 635.838
L1214.6 0
L-1.42109e-14 0
z
" style="fill:#ffffff;"/>
  </g>
  <g id="axes_1">
   <g id="patch_2">
    <path d="
M79.8934 565.2
L1195.89 565.2
L1195.89 7.2
L79.8934 7.2
z
" style="fill:#ffffff;"/>
   </g>
   <g id="PolyCollection_1">
    <defs>
     <path d="
M117.588 -97.6709
L117.588 -96.3107
L127.012 -101.352
L136.436 -109.465
L145.86 -121.352
L155.284 -137.642
L164.708 -157.87
L174.132 -180.995
L183.555 -204.485
L192.979 -226.752
L202.403 -247.541
L211.827 -268.759
L221.251 -291.601
L230.675 -314.913
L240.099 -335.103
L249.522 -349.157
L258.946 -356.636
L268.37 -360.282
L277.794 -362.617
L287.218 -365.539
L296.642 -368.929
L306.066 -372.242
L315.489 -375.164
L324.913 -377.743
L334.337 -380.686
L343.761 -383.644
L353.185 -386.556
L362.609 -389.107
L372.033 -391.517
L381.456 -393.978
L390.88 -396.429
L400.304 -398.901
L409.728 -400.987
L419.152 -402.807
L428.576 -404.124
L438 -405.223
L447.423 -406.256
L456.847 -407.749
L466.271 -410.314
L475.695 -414.103
L485.119 -419.131
L494.543 -424.655
L503.967 -430.27
L513.39 -435.74
L522.814 -441.262
L532.238 -446.913
L541.662 -452.426
L551.086 -457.504
L560.51 -462.114
L569.934 -466.309
L579.358 -470.332
L588.781 -473.802
L598.205 -476.774
L607.629 -479.198
L617.053 -481.344
L626.477 -483.089
L635.901 -484.098
L645.324 -484.264
L654.748 -484.068
L664.172 -484.195
L673.596 -485.115
L683.02 -486.359
L692.444 -487.556
L701.868 -488.315
L711.291 -488.747
L720.715 -488.899
L730.139 -488.866
L739.563 -488.921
L748.987 -488.789
L758.411 -488.757
L767.835 -488.472
L777.259 -488.252
L786.682 -487.791
L796.106 -487.463
L805.53 -487.537
L814.954 -488.138
L824.378 -489.302
L833.802 -490.472
L843.225 -491.475
L852.649 -491.829
L862.073 -492.009
L871.497 -492.185
L880.921 -492.6
L890.345 -493.115
L899.769 -493.588
L909.192 -494.105
L918.616 -494.448
L928.04 -494.849
L937.464 -495.225
L946.888 -495.754
L956.312 -496.316
L965.736 -497.003
L975.159 -497.811
L984.583 -498.774
L994.007 -499.69
L1003.43 -500.523
L1012.85 -501.243
L1022.28 -502.227
L1022.28 -528.676
L1022.28 -528.676
L1012.85 -528.122
L1003.43 -527.817
L994.007 -527.304
L984.583 -526.604
L975.159 -525.764
L965.736 -525.074
L956.312 -524.534
L946.888 -524.114
L937.464 -523.668
L928.04 -523.259
L918.616 -522.766
L909.192 -522.264
L899.769 -521.551
L890.345 -520.795
L880.921 -519.944
L871.497 -519.156
L862.073 -518.582
L852.649 -518.01
L843.225 -517.251
L833.802 -515.812
L824.378 -514.098
L814.954 -512.302
L805.53 -511.082
L796.106 -510.492
L786.682 -510.407
L777.259 -510.475
L767.835 -510.28
L758.411 -510.11
L748.987 -509.686
L739.563 -509.371
L730.139 -508.874
L720.715 -508.445
L711.291 -507.83
L701.868 -506.94
L692.444 -505.716
L683.02 -504.055
L673.596 -502.374
L664.172 -501.036
L654.748 -500.44
L645.324 -500.162
L635.901 -499.597
L626.477 -498.405
L617.053 -496.697
L607.629 -494.775
L598.205 -492.703
L588.781 -490.289
L579.358 -487.608
L569.934 -484.685
L560.51 -481.773
L551.086 -478.603
L541.662 -475.062
L532.238 -471.186
L522.814 -467.292
L513.39 -463.649
L503.967 -460.177
L494.543 -456.563
L485.119 -452.651
L475.695 -448.508
L466.271 -444.879
L456.847 -442.157
L447.423 -440.56
L438 -439.423
L428.576 -438.107
L419.152 -436.256
L409.728 -433.927
L400.304 -431.501
L390.88 -428.826
L381.456 -426.101
L372.033 -423.262
L362.609 -420.536
L353.185 -417.56
L343.761 -413.983
L334.337 -410.152
L324.913 -406.408
L315.489 -403.191
L306.066 -399.722
L296.642 -395.783
L287.218 -391.601
L277.794 -387.685
L268.37 -383.979
L258.946 -378.662
L249.522 -369.569
L240.099 -354.684
L230.675 -334.41
L221.251 -311.043
L211.827 -287.666
L202.403 -265.228
L192.979 -242.813
L183.555 -218.807
L174.132 -193.563
L164.708 -168.629
L155.284 -146.225
L145.86 -127.77
L136.436 -113.857
L127.012 -104.137
L117.588 -97.6709
z
" id="m39fd8159f1" style="stroke:#c7b1d3;stroke-opacity:0.5;"/>
    </defs>
    <g clip-path="url(#p39f61a35d8)">
     <use style="fill:#c7b1d3;fill-opacity:0.5;stroke:#c7b1d3;stroke-opacity:0.5;" x="0.0" xlink:href="#m39fd8159f1" y="635.8375"/>
    </g>
   </g>
   <g id="PolyCollection_2">
    <defs>
     <path d="
M117.588 -92.7879
L117.588 -92.6725
L127.012 -92.4074
L136.436 -92.1122
L145.86 -92.0147
L155.284 -91.9077
L164.708 -91.8497
L174.132 -91.6704
L183.555 -91.5242
L192.979 -91.3739
L202.403 -91.3154
L211.827 -91.2148
L221.251 -91.1707
L230.675 -91.1259
L240.099 -91.1427
L249.522 -91.1146
L258.946 -91.0507
L268.37 -90.9365
L277.794 -90.7921
L287.218 -90.6309
L296.642 -90.5314
L306.066 -90.5147
L315.489 -90.5986
L324.913 -90.6343
L334.337 -90.5674
L343.761 -90.4243
L353.185 -90.2617
L362.609 -90.2437
L372.033 -90.1853
L381.456 -90.1462
L390.88 -90.0108
L400.304 -89.9519
L409.728 -89.8866
L419.152 -89.7703
L428.576 -89.6636
L438 -89.6226
L447.423 -89.6958
L456.847 -89.6937
L466.271 -89.6492
L475.695 -89.5345
L485.119 -89.4776
L494.543 -89.4519
L503.967 -89.4684
L513.39 -89.4776
L522.814 -89.4642
L532.238 -89.412
L541.662 -89.3461
L551.086 -89.2652
L560.51 -89.2379
L569.934 -89.2414
L579.358 -89.3211
L588.781 -89.3583
L598.205 -89.3848
L607.629 -89.3347
L617.053 -89.3369
L626.477 -89.3539
L635.901 -89.3718
L645.324 -89.3412
L654.748 -89.2738
L664.172 -89.2542
L673.596 -89.2481
L683.02 -89.2316
L692.444 -89.1836
L701.868 -89.1773
L711.291 -89.2213
L720.715 -89.237
L730.139 -89.1683
L739.563 -89.0629
L748.987 -88.9895
L758.411 -88.9741
L767.835 -88.9797
L777.259 -88.9936
L786.682 -88.9676
L796.106 -88.9399
L805.53 -88.896
L814.954 -88.933
L824.378 -88.963
L833.802 -89.0478
L843.225 -89.065
L852.649 -89.0822
L862.073 -89.0125
L871.497 -88.964
L880.921 -88.9626
L890.345 -89.0129
L899.769 -89.0516
L909.192 -89.0221
L918.616 -88.9838
L928.04 -88.9457
L937.464 -88.9232
L946.888 -88.8936
L956.312 -88.9065
L965.736 -88.9558
L975.159 -89.0094
L984.583 -89.0492
L994.007 -89.0597
L1003.43 -89.0454
L1012.85 -88.9985
L1022.28 -88.9858
L1022.28 -92.7744
L1022.28 -92.7744
L1012.85 -92.8129
L1003.43 -92.8719
L994.007 -92.8873
L984.583 -92.8516
L975.159 -92.8036
L965.736 -92.7151
L956.312 -92.6636
L946.888 -92.6301
L937.464 -92.6799
L928.04 -92.6988
L918.616 -92.735
L909.192 -92.7546
L899.769 -92.7962
L890.345 -92.7588
L880.921 -92.7083
L871.497 -92.6854
L862.073 -92.7311
L852.649 -92.8135
L843.225 -92.8043
L833.802 -92.7604
L824.378 -92.612
L814.954 -92.5411
L805.53 -92.5103
L796.106 -92.5888
L786.682 -92.6702
L777.259 -92.7071
L767.835 -92.6928
L758.411 -92.6588
L748.987 -92.6913
L739.563 -92.7767
L730.139 -92.8977
L720.715 -92.9398
L711.291 -92.9191
L701.868 -92.8556
L692.444 -92.8692
L683.02 -92.9022
L673.596 -92.9271
L664.172 -92.9143
L654.748 -92.9278
L645.324 -92.9695
L635.901 -92.9439
L626.477 -92.8461
L617.053 -92.696
L607.629 -92.6453
L598.205 -92.7027
L588.781 -92.8003
L579.358 -92.8442
L569.934 -92.7751
L560.51 -92.6975
L551.086 -92.6438
L541.662 -92.6984
L532.238 -92.7896
L522.814 -92.8697
L513.39 -92.8464
L503.967 -92.7812
L494.543 -92.7018
L485.119 -92.6976
L475.695 -92.7068
L466.271 -92.8037
L456.847 -92.87
L447.423 -92.9241
L438 -92.8535
L428.576 -92.8753
L419.152 -92.9207
L409.728 -93.0524
L400.304 -92.9887
L390.88 -92.9415
L381.456 -92.8837
L372.033 -92.9537
L362.609 -92.9863
L353.185 -92.9451
L343.761 -92.8569
L334.337 -92.7486
L324.913 -92.6916
L315.489 -92.6843
L306.066 -92.6922
L296.642 -92.692
L287.218 -92.6487
L277.794 -92.6297
L268.37 -92.6902
L258.946 -92.8009
L249.522 -92.9156
L240.099 -92.9321
L230.675 -92.8564
L221.251 -92.7751
L211.827 -92.698
L202.403 -92.6867
L192.979 -92.6579
L183.555 -92.668
L174.132 -92.6657
L164.708 -92.665
L155.284 -92.6714
L145.86 -92.6554
L136.436 -92.6653
L127.012 -92.6727
L117.588 -92.7879
z
" id="me9a45978fc" style="stroke:#f2800e;stroke-opacity:0.5;"/>
    </defs>
    <g clip-path="url(#p39f61a35d8)">
     <use style="fill:#f2800e;fill-opacity:0.5;stroke:#f2800e;stroke-opacity:0.5;" x="0.0" xlink:href="#me9a45978fc" y="635.8375"/>
    </g>
   </g>
   <g id="PolyCollection_3">
    <defs>
     <path d="
M117.588 -96.1638
L117.588 -95.6751
L127.012 -100.024
L136.436 -107.383
L145.86 -117.997
L155.284 -131.926
L164.708 -147.746
L174.132 -164.853
L183.555 -181.04
L192.979 -195.956
L202.403 -208.992
L211.827 -223.174
L221.251 -239.128
L230.675 -256.405
L240.099 -272.881
L249.522 -287.472
L258.946 -299.337
L268.37 -308.694
L277.794 -316.312
L287.218 -322.929
L296.642 -329.248
L306.066 -335.136
L315.489 -340.634
L324.913 -345.616
L334.337 -350.225
L343.761 -354.434
L353.185 -358.335
L362.609 -361.936
L372.033 -365.254
L381.456 -368.414
L390.88 -371.469
L400.304 -374.39
L409.728 -377.114
L419.152 -379.659
L428.576 -382.228
L438 -384.808
L447.423 -387.704
L456.847 -390.856
L466.271 -394.771
L475.695 -398.982
L485.119 -403.571
L494.543 -407.864
L503.967 -412.333
L513.39 -417.102
L522.814 -422.577
L532.238 -428.369
L541.662 -433.675
L551.086 -438.147
L560.51 -442.191
L569.934 -446.103
L579.358 -450.207
L588.781 -453.745
L598.205 -456.921
L607.629 -459.72
L617.053 -462.158
L626.477 -464.014
L635.901 -464.14
L645.324 -462.753
L654.748 -460.774
L664.172 -460.148
L673.596 -461.331
L683.02 -463.206
L692.444 -464.593
L701.868 -464.944
L711.291 -464.438
L720.715 -463.419
L730.139 -462.224
L739.563 -461.613
L748.987 -460.75
L758.411 -460.129
L767.835 -458.894
L777.259 -457.736
L786.682 -456.056
L796.106 -454.668
L805.53 -454.312
L814.954 -455.028
L824.378 -456.687
L833.802 -457.886
L843.225 -458.265
L852.649 -457.049
L862.073 -455.179
L871.497 -453.164
L880.921 -451.468
L890.345 -450.078
L899.769 -448.722
L909.192 -447.592
L918.616 -446.215
L928.04 -444.87
L937.464 -443.257
L946.888 -441.579
L956.312 -439.838
L965.736 -438.414
L975.159 -437.588
L984.583 -437.316
L994.007 -436.884
L1003.43 -435.827
L1012.85 -433.956
L1022.28 -432.259
L1022.28 -463.183
L1022.28 -463.183
L1012.85 -464.463
L1003.43 -465.945
L994.007 -466.564
L984.583 -466.518
L975.159 -466.254
L965.736 -466.569
L956.312 -467.546
L946.888 -468.949
L937.464 -470.305
L928.04 -471.582
L918.616 -472.521
L909.192 -473.548
L899.769 -474.355
L890.345 -475.484
L880.921 -476.603
L871.497 -478.041
L862.073 -479.762
L852.649 -481.371
L843.225 -482.299
L833.802 -481.621
L824.378 -480.101
L814.954 -478.099
L805.53 -476.967
L796.106 -476.894
L786.682 -477.819
L777.259 -479.103
L767.835 -479.813
L758.411 -480.703
L748.987 -480.869
L739.563 -481.217
L730.139 -481.129
L720.715 -481.695
L711.291 -482.179
L701.868 -482.231
L692.444 -481.41
L683.02 -479.478
L673.596 -477.056
L664.172 -475.275
L654.748 -475.4
L645.324 -476.876
L635.901 -477.739
L626.477 -476.987
L617.053 -474.547
L607.629 -471.782
L598.205 -468.889
L588.781 -465.696
L579.358 -462.019
L569.934 -457.635
L560.51 -453.242
L551.086 -448.518
L541.662 -443.227
L532.238 -437.15
L522.814 -430.769
L513.39 -424.873
L503.967 -419.837
L494.543 -415.027
L485.119 -410.311
L475.695 -404.955
L466.271 -399.873
L456.847 -395.016
L447.423 -391.174
L438 -387.813
L428.576 -384.983
L419.152 -382.261
L409.728 -379.652
L400.304 -376.937
L390.88 -374.091
L381.456 -371.128
L372.033 -368.035
L362.609 -364.775
L353.185 -361.221
L343.761 -357.446
L334.337 -353.414
L324.913 -349.086
L315.489 -344.39
L306.066 -339.274
L296.642 -333.831
L287.218 -328.139
L277.794 -322.281
L268.37 -315.774
L258.946 -307.581
L249.522 -296.684
L240.099 -282.139
L230.675 -264.72
L221.251 -246.488
L211.827 -230.664
L202.403 -216.651
L192.979 -202.679
L183.555 -187.108
L174.132 -170.239
L164.708 -152.858
L155.284 -136.085
L145.86 -121.008
L136.436 -109.156
L127.012 -101.069
L117.588 -96.1638
z
" id="m8e4fb14283" style="stroke:#6c4595;stroke-opacity:0.5;"/>
    </defs>
    <g clip-path="url(#p39f61a35d8)">
     <use style="fill:#6c4595;fill-opacity:0.5;stroke:#6c4595;stroke-opacity:0.5;" x="0.0" xlink:href="#m8e4fb14283" y="635.8375"/>
    </g>
   </g>
   <g id="PolyCollection_4">
    <defs>
     <path d="
M117.588 -93.4914
L117.588 -92.9791
L127.012 -93.3242
L136.436 -94.0491
L145.86 -94.9789
L155.284 -95.9101
L164.708 -96.8515
L174.132 -97.8939
L183.555 -99.0646
L192.979 -100.361
L202.403 -101.862
L211.827 -103.537
L221.251 -105.409
L230.675 -107.36
L240.099 -109.405
L249.522 -111.671
L258.946 -114.422
L268.37 -117.89
L277.794 -122.144
L287.218 -127.056
L296.642 -132.462
L306.066 -138.234
L315.489 -144.328
L324.913 -150.714
L334.337 -157.576
L343.761 -165.308
L353.185 -174.002
L362.609 -183.585
L372.033 -193.576
L381.456 -203.777
L390.88 -213.701
L400.304 -222.681
L409.728 -230.013
L419.152 -235.721
L428.576 -240.739
L438 -245.818
L447.423 -251.411
L456.847 -257.139
L466.271 -263.047
L475.695 -268.905
L485.119 -274.891
L494.543 -280.832
L503.967 -286.848
L513.39 -293.057
L522.814 -299.665
L532.238 -306.771
L541.662 -314.161
L551.086 -321.669
L560.51 -328.908
L569.934 -335.81
L579.358 -342.436
L588.781 -349.009
L598.205 -355.5
L607.629 -361.754
L617.053 -367.582
L626.477 -372.853
L635.901 -377.377
L645.324 -381.191
L654.748 -384.718
L664.172 -388.386
L673.596 -392.348
L683.02 -396.258
L692.444 -400
L701.868 -403.416
L711.291 -406.532
L720.715 -409.208
L730.139 -411.3
L739.563 -412.915
L748.987 -413.623
L758.411 -413.995
L767.835 -413.822
L777.259 -413.773
L786.682 -413.334
L796.106 -412.936
L805.53 -412.58
L814.954 -412.537
L824.378 -412.582
L833.802 -412.394
L843.225 -411.763
L852.649 -410.701
L862.073 -409.513
L871.497 -408.392
L880.921 -407.218
L890.345 -405.934
L899.769 -404.562
L909.192 -403.316
L918.616 -402.13
L928.04 -401.038
L937.464 -399.826
L946.888 -398.62
L956.312 -397.62
L965.736 -397.25
L975.159 -397.463
L984.583 -397.686
L994.007 -397.346
L1003.43 -396.266
L1012.85 -394.855
L1022.28 -393.813
L1022.28 -456.642
L1022.28 -456.642
L1012.85 -456.954
L1003.43 -457.862
L994.007 -458.44
L984.583 -458.001
L975.159 -456.788
L965.736 -455.599
L956.312 -455.032
L946.888 -455.156
L937.464 -455.421
L928.04 -455.71
L918.616 -455.779
L909.192 -455.87
L899.769 -455.941
L890.345 -456.195
L880.921 -456.271
L871.497 -456.178
L862.073 -455.97
L852.649 -455.949
L843.225 -455.851
L833.802 -455.316
L824.378 -454.24
L814.954 -452.865
L805.53 -451.551
L796.106 -450.599
L786.682 -449.676
L777.259 -448.793
L767.835 -447.508
L758.411 -446.457
L748.987 -444.905
L739.563 -443.086
L730.139 -440.421
L720.715 -437.344
L711.291 -433.703
L701.868 -429.631
L692.444 -425.266
L683.02 -420.588
L673.596 -415.753
L664.172 -410.932
L654.748 -406.461
L645.324 -402.057
L635.901 -397.262
L626.477 -391.686
L617.053 -385.45
L607.629 -378.856
L598.205 -372.054
L588.781 -365.26
L579.358 -358.587
L569.934 -352.204
L560.51 -345.968
L551.086 -339.744
L541.662 -333.314
L532.238 -326.715
L522.814 -320.064
L513.39 -313.551
L503.967 -307.209
L494.543 -300.868
L485.119 -294.366
L475.695 -287.583
L466.271 -280.773
L456.847 -274.017
L447.423 -267.474
L438 -261.083
L428.576 -254.976
L419.152 -248.819
L409.728 -242.007
L400.304 -233.756
L390.88 -224.042
L381.456 -213.325
L372.033 -202.446
L362.609 -191.891
L353.185 -181.952
L343.761 -172.809
L334.337 -164.541
L324.913 -157.089
L315.489 -150.134
L306.066 -143.417
L296.642 -136.916
L287.218 -130.742
L277.794 -125.093
L268.37 -120.252
L258.946 -116.444
L249.522 -113.719
L240.099 -111.499
L230.675 -109.45
L221.251 -107.348
L211.827 -105.283
L202.403 -103.314
L192.979 -101.532
L183.555 -99.9895
L174.132 -98.7082
L164.708 -97.6724
L155.284 -96.7885
L145.86 -95.9324
L136.436 -95.0635
L127.012 -94.1913
L117.588 -93.4914
z
" id="m7ff5d5c1f5" style="stroke:#2777ad;stroke-opacity:0.5;"/>
    </defs>
    <g clip-path="url(#p39f61a35d8)">
     <use style="fill:#2777ad;fill-opacity:0.5;stroke:#2777ad;stroke-opacity:0.5;" x="0.0" xlink:href="#m7ff5d5c1f5" y="635.8375"/>
    </g>
   </g>
   <g id="line2d_1">
    <path clip-path="url(#p39f61a35d8)" d="
M117.588 538.847
L127.012 533.093
L136.436 524.177
L145.86 511.277
L155.284 493.904
L164.708 472.588
L174.132 448.558
L183.555 424.191
L192.979 401.055
L202.403 379.453
L211.827 357.625
L221.251 334.515
L230.675 311.176
L240.099 290.944
L249.522 276.474
L258.946 268.189
L268.37 263.707
L277.794 260.687
L287.218 257.267
L296.642 253.481
L306.066 249.856
L315.489 246.66
L324.913 243.762
L334.337 240.418
L343.761 237.024
L353.185 233.779
L362.609 231.016
L372.033 228.448
L381.456 225.798
L390.88 223.21
L400.304 220.636
L409.728 218.38
L419.152 216.306
L428.576 214.722
L438 213.515
L447.423 212.429
L456.847 210.885
L466.271 208.241
L475.695 204.532
L485.119 199.946
L494.543 195.229
L503.967 190.614
L513.39 186.143
L522.814 181.561
L532.238 176.788
L541.662 172.094
L551.086 167.784
L560.51 163.894
L569.934 160.341
L579.358 156.867
L588.781 153.792
L598.205 151.099
L607.629 148.851
L617.053 146.817
L626.477 145.09
L635.901 143.99
L645.324 143.625
L654.748 143.583
L664.172 143.222
L673.596 142.093
L683.02 140.631
L692.444 139.201
L701.868 138.21
L711.291 137.549
L720.715 137.165
L730.139 136.968
L739.563 136.692
L748.987 136.6
L758.411 136.404
L767.835 136.462
L777.259 136.474
L786.682 136.739
L796.106 136.86
L805.53 136.528
L814.954 135.618
L824.378 134.137
L833.802 132.695
L843.225 131.474
L852.649 130.918
L862.073 130.542
L871.497 130.167
L880.921 129.566
L890.345 128.883
L899.769 128.268
L909.192 127.653
L918.616 127.23
L928.04 126.783
L937.464 126.391
L946.888 125.904
L956.312 125.413
L965.736 124.799
L975.159 124.05
L984.583 123.148
L994.007 122.341
L1003.43 121.668
L1012.85 121.155
L1022.28 120.386" style="fill:none;stroke:#c7b1d3;stroke-linecap:square;stroke-width:3;"/>
   </g>
   <g id="line2d_2">
    <path clip-path="url(#p39f61a35d8)" d="
M117.588 543.107
L127.012 543.297
L136.436 543.449
L145.86 543.502
L155.284 543.548
L164.708 543.58
L174.132 543.669
L183.555 543.741
L192.979 543.822
L202.403 543.836
L211.827 543.881
L221.251 543.865
L230.675 543.846
L240.099 543.8
L249.522 543.822
L258.946 543.912
L268.37 544.024
L277.794 544.127
L287.218 544.198
L296.642 544.226
L306.066 544.234
L315.489 544.196
L324.913 544.175
L334.337 544.18
L343.761 544.197
L353.185 544.234
L362.609 544.223
L372.033 544.268
L381.456 544.323
L390.88 544.361
L400.304 544.367
L409.728 544.368
L419.152 544.492
L428.576 544.568
L438 544.599
L447.423 544.528
L456.847 544.556
L466.271 544.611
L475.695 544.717
L485.119 544.75
L494.543 544.761
L503.967 544.713
L513.39 544.676
L522.814 544.671
L532.238 544.737
L541.662 544.815
L551.086 544.883
L560.51 544.87
L569.934 544.829
L579.358 544.755
L588.781 544.758
L598.205 544.794
L607.629 544.847
L617.053 544.821
L626.477 544.738
L635.901 544.68
L645.324 544.682
L654.748 544.737
L664.172 544.753
L673.596 544.75
L683.02 544.771
L692.444 544.811
L701.868 544.821
L711.291 544.767
L720.715 544.749
L730.139 544.804
L739.563 544.918
L748.987 544.997
L758.411 545.021
L767.835 545.001
L777.259 544.987
L786.682 545.019
L796.106 545.073
L805.53 545.134
L814.954 545.1
L824.378 545.05
L833.802 544.933
L843.225 544.903
L852.649 544.89
L862.073 544.966
L871.497 545.013
L880.921 545.002
L890.345 544.952
L899.769 544.914
L909.192 544.949
L918.616 544.978
L928.04 545.015
L937.464 545.036
L946.888 545.076
L956.312 545.052
L965.736 545.002
L975.159 544.931
L984.583 544.887
L994.007 544.864
L1003.43 544.879
L1012.85 544.932
L1022.28 544.957" style="fill:none;stroke:#f2800e;stroke-linecap:square;stroke-width:3;"/>
   </g>
   <g id="line2d_3">
    <path clip-path="url(#p39f61a35d8)" d="
M117.588 539.918
L127.012 535.291
L136.436 527.568
L145.86 516.335
L155.284 501.832
L164.708 485.536
L174.132 468.292
L183.555 451.763
L192.979 436.52
L202.403 423.016
L211.827 408.919
L221.251 393.029
L230.675 375.275
L240.099 358.327
L249.522 343.759
L258.946 332.378
L268.37 323.603
L277.794 316.541
L287.218 310.303
L296.642 304.298
L306.066 298.632
L315.489 293.325
L324.913 288.487
L334.337 284.018
L343.761 279.897
L353.185 276.059
L362.609 272.482
L372.033 269.193
L381.456 266.067
L390.88 263.057
L400.304 260.174
L409.728 257.454
L419.152 254.878
L428.576 252.232
L438 249.527
L447.423 246.398
L456.847 242.902
L466.271 238.515
L475.695 233.869
L485.119 228.896
L494.543 224.392
L503.967 219.753
L513.39 214.85
L522.814 209.165
L532.238 203.078
L541.662 197.386
L551.086 192.505
L560.51 188.121
L569.934 183.969
L579.358 179.725
L588.781 176.117
L598.205 172.933
L607.629 170.086
L617.053 167.485
L626.477 165.337
L635.901 164.898
L645.324 166.023
L654.748 167.75
L664.172 168.126
L673.596 166.644
L683.02 164.496
L692.444 162.836
L701.868 162.25
L711.291 162.529
L720.715 163.28
L730.139 164.161
L739.563 164.422
L748.987 165.028
L758.411 165.422
L767.835 166.484
L777.259 167.418
L786.682 168.9
L796.106 170.057
L805.53 170.198
L814.954 169.274
L824.378 167.444
L833.802 166.084
L843.225 165.555
L852.649 166.628
L862.073 168.367
L871.497 170.235
L880.921 171.802
L890.345 173.057
L899.769 174.299
L909.192 175.267
L918.616 176.47
L928.04 177.612
L937.464 179.057
L946.888 180.573
L956.312 182.146
L965.736 183.346
L975.159 183.917
L984.583 183.921
L994.007 184.113
L1003.43 184.952
L1012.85 186.628
L1022.28 188.117" style="fill:none;stroke:#6c4595;stroke-linecap:square;stroke-width:3;"/>
   </g>
   <g id="line2d_4">
    <path clip-path="url(#p39f61a35d8)" d="
M117.588 542.602
L127.012 542.08
L136.436 541.281
L145.86 540.382
L155.284 539.488
L164.708 538.576
L174.132 537.536
L183.555 536.31
L192.979 534.891
L202.403 533.249
L211.827 531.427
L221.251 529.459
L230.675 527.433
L240.099 525.385
L249.522 523.143
L258.946 520.405
L268.37 516.766
L277.794 512.219
L287.218 506.938
L296.642 501.148
L306.066 495.012
L315.489 488.606
L324.913 481.936
L334.337 474.779
L343.761 466.779
L353.185 457.861
L362.609 448.099
L372.033 437.826
L381.456 427.286
L390.88 416.966
L400.304 407.619
L409.728 399.828
L419.152 393.567
L428.576 387.98
L438 382.387
L447.423 376.395
L456.847 370.26
L466.271 363.927
L475.695 357.593
L485.119 351.209
L494.543 344.988
L503.967 338.809
L513.39 332.534
L522.814 325.973
L532.238 319.095
L541.662 312.1
L551.086 305.131
L560.51 298.399
L569.934 291.83
L579.358 285.326
L588.781 278.703
L598.205 272.061
L607.629 265.533
L617.053 259.322
L626.477 253.568
L635.901 248.518
L645.324 244.214
L654.748 240.248
L664.172 236.178
L673.596 231.787
L683.02 227.415
L692.444 223.205
L701.868 219.314
L711.291 215.72
L720.715 212.561
L730.139 209.977
L739.563 207.837
L748.987 206.574
L758.411 205.612
L767.835 205.173
L777.259 204.554
L786.682 204.333
L796.106 204.07
L805.53 203.772
L814.954 203.137
L824.378 202.426
L833.802 201.983
L843.225 202.03
L852.649 202.512
L862.073 203.096
L871.497 203.552
L880.921 204.093
L890.345 204.773
L899.769 205.586
L909.192 206.245
L918.616 206.883
L928.04 207.463
L937.464 208.214
L946.888 208.95
L956.312 209.512
L965.736 209.413
L975.159 208.712
L984.583 207.994
L994.007 207.944
L1003.43 208.774
L1012.85 209.933
L1022.28 210.61" style="fill:none;stroke:#2777ad;stroke-linecap:square;stroke-width:3;"/>
   </g>
   <g id="patch_3">
    <path d="
M79.8934 565.2
L79.8934 7.2" style="fill:none;stroke:#000000;stroke-linecap:square;stroke-linejoin:miter;stroke-width:3;"/>
   </g>
   <g id="patch_4">
    <path d="
M79.8934 565.2
L1195.89 565.2" style="fill:none;stroke:#000000;stroke-linecap:square;stroke-linejoin:miter;stroke-width:3;"/>
   </g>
   <g id="matplotlib.axis_1">
    <g id="xtick_1">
     <g id="line2d_5">
      <defs>
       <path d="
M0 0
L0 10" id="m56dafdbc3a" style="stroke:#000000;stroke-width:4;"/>
      </defs>
      <g>
       <use style="stroke:#000000;stroke-width:4;" x="79.8934375" xlink:href="#m56dafdbc3a" y="565.2"/>
      </g>
     </g>
     <g id="text_1">
      <!-- 0 -->
      <defs>
       <path d="
M27.0469 69.9219
Q40.625 69.9219 46.6875 58.7344
Q51.375 50.0938 51.375 35.0625
Q51.375 20.7969 47.125 11.4688
Q40.9688 -1.90625 27 -1.90625
Q14.4062 -1.90625 8.25 9.03125
Q3.125 18.1719 3.125 33.5469
Q3.125 45.4531 6.20312 54
Q11.9688 69.9219 27.0469 69.9219
z

M26.9531 6.10938
Q33.7969 6.10938 37.8438 12.1562
Q41.8906 18.2188 41.8906 34.7188
Q41.8906 46.625 38.9531 54.3125
Q36.0312 62.0156 27.5938 62.0156
Q19.8281 62.0156 16.2344 54.7031
Q12.6406 47.4062 12.6406 33.2031
Q12.6406 22.5156 14.9375 16.0156
Q18.4531 6.10938 26.9531 6.10938
z
" id="Helvetica-30"/>
      </defs>
      <g transform="translate(74.5859375 594.9815625)scale(0.22 -0.22)">
       <use xlink:href="#Helvetica-30"/>
      </g>
     </g>
    </g>
    <g id="xtick_2">
     <g id="line2d_6">
      <g>
       <use style="stroke:#000000;stroke-width:4;" x="265.8934375" xlink:href="#m56dafdbc3a" y="565.2"/>
      </g>
     </g>
     <g id="text_2">
      <!-- 5 -->
      <defs>
       <path d="
M12.3594 17.8281
Q13.2344 10.2969 19.3438 7.42188
Q22.4688 5.95312 26.5625 5.95312
Q34.375 5.95312 38.125 10.9375
Q41.8906 15.9219 41.8906 21.9688
Q41.8906 29.2969 37.4219 33.2969
Q32.9531 37.3125 26.7031 37.3125
Q22.1719 37.3125 18.9219 35.5469
Q15.6719 33.7969 13.375 30.6719
L5.76562 31.1094
L11.0781 68.75
L47.4062 68.75
L47.4062 60.25
L17.6719 60.25
L14.7031 40.8281
Q17.1406 42.6719 19.3438 43.6094
Q23.25 45.2188 28.375 45.2188
Q37.9844 45.2188 44.6719 39.0156
Q51.375 32.8125 51.375 23.2969
Q51.375 13.375 45.2344 5.79688
Q39.1094 -1.76562 25.6875 -1.76562
Q17.1406 -1.76562 10.5625 3.04688
Q4 7.85938 3.21875 17.8281
z
" id="Helvetica-35"/>
      </defs>
      <g transform="translate(260.59625 594.9815625)scale(0.22 -0.22)">
       <use xlink:href="#Helvetica-35"/>
      </g>
     </g>
    </g>
    <g id="xtick_3">
     <g id="line2d_7">
      <g>
       <use style="stroke:#000000;stroke-width:4;" x="451.8934375" xlink:href="#m56dafdbc3a" y="565.2"/>
      </g>
     </g>
     <g id="text_3">
      <!-- 10 -->
      <defs>
       <path d="
M9.57812 49.5156
L9.57812 56.25
Q19.0938 57.1719 22.8438 59.3438
Q26.6094 61.5312 28.4688 69.625
L35.4062 69.625
L35.4062 0
L26.0312 0
L26.0312 49.5156
z
" id="Helvetica-31"/>
      </defs>
      <g transform="translate(441.17875 594.9815625)scale(0.22 -0.22)">
       <use xlink:href="#Helvetica-31"/>
       <use x="55.615234375" xlink:href="#Helvetica-30"/>
      </g>
     </g>
    </g>
    <g id="xtick_4">
     <g id="line2d_8">
      <g>
       <use style="stroke:#000000;stroke-width:4;" x="637.8934375" xlink:href="#m56dafdbc3a" y="565.2"/>
      </g>
     </g>
     <g id="text_4">
      <!-- 15 -->
      <g transform="translate(627.17875 594.9815625)scale(0.22 -0.22)">
       <use xlink:href="#Helvetica-31"/>
       <use x="55.615234375" xlink:href="#Helvetica-35"/>
      </g>
     </g>
    </g>
    <g id="xtick_5">
     <g id="line2d_9">
      <g>
       <use style="stroke:#000000;stroke-width:4;" x="823.8934375" xlink:href="#m56dafdbc3a" y="565.2"/>
      </g>
     </g>
     <g id="text_5">
      <!-- 20 -->
      <defs>
       <path d="
M3.125 0
Q3.60938 9.03125 6.85938 15.7188
Q10.1094 22.4062 19.5312 27.875
L28.9062 33.2969
Q35.2031 36.9688 37.75 39.5469
Q41.75 43.6094 41.75 48.8281
Q41.75 54.9375 38.0781 58.5156
Q34.4219 62.1094 28.3281 62.1094
Q19.2812 62.1094 15.8281 55.2812
Q13.9688 51.6094 13.7656 45.125
L4.82812 45.125
Q4.98438 54.25 8.20312 60.0156
Q13.9219 70.1719 28.375 70.1719
Q40.375 70.1719 45.9219 63.6719
Q51.4688 57.1719 51.4688 49.2188
Q51.4688 40.8281 45.5625 34.8594
Q42.1406 31.3906 33.2969 26.4688
L26.6094 22.75
Q21.8281 20.125 19.0938 17.7188
Q14.2031 13.4844 12.9375 8.29688
L51.125 8.29688
L51.125 0
L3.125 0
z
" id="Helvetica-32"/>
      </defs>
      <g transform="translate(812.46890625 594.9815625)scale(0.22 -0.22)">
       <use xlink:href="#Helvetica-32"/>
       <use x="55.615234375" xlink:href="#Helvetica-30"/>
      </g>
     </g>
    </g>
    <g id="xtick_6">
     <g id="line2d_10">
      <g>
       <use style="stroke:#000000;stroke-width:4;" x="1009.8934375" xlink:href="#m56dafdbc3a" y="565.2"/>
      </g>
     </g>
     <g id="text_6">
      <!-- 25 -->
      <g transform="translate(998.46890625 594.9815625)scale(0.22 -0.22)">
       <use xlink:href="#Helvetica-32"/>
       <use x="55.615234375" xlink:href="#Helvetica-35"/>
      </g>
     </g>
    </g>
    <g id="xtick_7">
     <g id="line2d_11">
      <g>
       <use style="stroke:#000000;stroke-width:4;" x="1195.8934375" xlink:href="#m56dafdbc3a" y="565.2"/>
      </g>
     </g>
     <g id="text_7">
      <!-- 30 -->
      <defs>
       <path d="
M25.9844 -1.90625
Q13.5781 -1.90625 7.98438 4.90625
Q2.39062 11.7188 2.39062 21.4844
L11.5781 21.4844
Q12.1562 14.7031 14.1094 11.625
Q17.5312 6.10938 26.4688 6.10938
Q33.4062 6.10938 37.5938 9.8125
Q41.7969 13.5312 41.7969 19.3906
Q41.7969 26.6094 37.375 29.4844
Q32.9531 32.375 25.0938 32.375
Q24.2188 32.375 23.3125 32.3438
Q22.4062 32.3281 21.4844 32.2812
L21.4844 40.0469
Q22.8594 39.8906 23.7812 39.8438
Q24.7031 39.7969 25.7812 39.7969
Q30.7188 39.7969 33.8906 41.3594
Q39.4531 44.0938 39.4531 51.125
Q39.4531 56.3438 35.7344 59.1719
Q32.0312 62.0156 27.0938 62.0156
Q18.3125 62.0156 14.9375 56.1562
Q13.0938 52.9375 12.8438 46.9688
L4.15625 46.9688
Q4.15625 54.7812 7.28125 60.25
Q12.6406 70.0156 26.1719 70.0156
Q36.8594 70.0156 42.7188 65.25
Q48.5781 60.5 48.5781 51.4688
Q48.5781 45.0156 45.125 41.0156
Q42.9688 38.5312 39.5469 37.1094
Q45.0625 35.5938 48.1562 31.2656
Q51.2656 26.9531 51.2656 20.7031
Q51.2656 10.6875 44.6719 4.39062
Q38.0938 -1.90625 25.9844 -1.90625
z
" id="Helvetica-33"/>
      </defs>
      <g transform="translate(1184.388125 594.9815625)scale(0.22 -0.22)">
       <use xlink:href="#Helvetica-33"/>
       <use x="55.615234375" xlink:href="#Helvetica-30"/>
      </g>
     </g>
    </g>
    <g id="text_8">
     <!-- Hours -->
     <defs>
      <path d="
M6.6875 52.2969
L15.0469 52.2969
L15.0469 43.2656
Q16.0625 45.9062 20.0625 49.6875
Q24.0781 53.4688 29.2969 53.4688
Q29.5469 53.4688 30.125 53.4219
Q30.7188 53.375 32.125 53.2188
L32.125 43.9531
Q31.3438 44.0938 30.6875 44.1406
Q30.0312 44.1875 29.25 44.1875
Q22.6094 44.1875 19.0469 39.9062
Q15.4844 35.6406 15.4844 30.0781
L15.4844 0
L6.6875 0
z
" id="Helvetica-72"/>
      <path d="
M27.2031 5.67188
Q35.9375 5.67188 39.1875 12.2812
Q42.4375 18.8906 42.4375 27
Q42.4375 34.3281 40.0938 38.9219
Q36.375 46.1406 27.2969 46.1406
Q19.2344 46.1406 15.5781 39.9844
Q11.9219 33.8438 11.9219 25.1406
Q11.9219 16.7969 15.5781 11.2344
Q19.2344 5.67188 27.2031 5.67188
z

M27.5469 53.8125
Q37.6406 53.8125 44.625 47.0625
Q51.6094 40.3281 51.6094 27.25
Q51.6094 14.5938 45.4531 6.34375
Q39.3125 -1.90625 26.375 -1.90625
Q15.5781 -1.90625 9.21875 5.39062
Q2.875 12.7031 2.875 25
Q2.875 38.1875 9.5625 46
Q16.2656 53.8125 27.5469 53.8125
z

M27.25 53.5625
z
" id="Helvetica-6f"/>
      <path d="
M7.85938 71.7344
L17.6719 71.7344
L17.6719 42.0938
L54.9844 42.0938
L54.9844 71.7344
L64.7969 71.7344
L64.7969 0
L54.9844 0
L54.9844 33.5469
L17.6719 33.5469
L17.6719 0
L7.85938 0
z
" id="Helvetica-48"/>
      <path d="
M15.2344 52.2969
L15.2344 17.5781
Q15.2344 13.5781 16.5 11.0312
Q18.8438 6.34375 25.25 6.34375
Q34.4219 6.34375 37.75 14.5469
Q39.5469 18.9531 39.5469 26.6094
L39.5469 52.2969
L48.3438 52.2969
L48.3438 0
L40.0469 0
L40.1406 7.71875
Q38.4219 4.73438 35.8906 2.6875
Q30.8594 -1.42188 23.6875 -1.42188
Q12.5 -1.42188 8.45312 6.0625
Q6.25 10.0625 6.25 16.75
L6.25 52.2969
z

M27.2969 53.5625
z
" id="Helvetica-75"/>
      <path d="
M11.6719 16.4062
Q12.0625 12.0156 13.875 9.67188
Q17.1875 5.42188 25.3906 5.42188
Q30.2812 5.42188 33.9844 7.54688
Q37.7031 9.67188 37.7031 14.1094
Q37.7031 17.4844 34.7188 19.2344
Q32.8125 20.3125 27.2031 21.7344
L20.2188 23.4844
Q13.5312 25.1406 10.3594 27.2031
Q4.6875 30.7656 4.6875 37.0625
Q4.6875 44.4844 10.0312 49.0625
Q15.375 53.6562 24.4219 53.6562
Q36.2344 53.6562 41.4531 46.7344
Q44.7344 42.3281 44.625 37.25
L36.3281 37.25
Q36.0781 40.2344 34.2344 42.6719
Q31.2031 46.1406 23.7344 46.1406
Q18.75 46.1406 16.1875 44.2344
Q13.625 42.3281 13.625 39.2031
Q13.625 35.7969 17 33.7344
Q18.9531 32.5156 22.75 31.5938
L28.5625 30.1719
Q38.0312 27.875 41.2656 25.7344
Q46.3906 22.3594 46.3906 15.1406
Q46.3906 8.15625 41.0938 3.07812
Q35.7969 -2 24.9531 -2
Q13.2812 -2 8.42188 3.29688
Q3.5625 8.59375 3.21875 16.4062
z

M24.6562 53.5625
z
" id="Helvetica-73"/>
     </defs>
     <g transform="translate(604.70890625 623.218125)scale(0.26 -0.26)">
      <use xlink:href="#Helvetica-48"/>
      <use x="72.216796875" xlink:href="#Helvetica-6f"/>
      <use x="127.83203125" xlink:href="#Helvetica-75"/>
      <use x="183.447265625" xlink:href="#Helvetica-72"/>
      <use x="216.748046875" xlink:href="#Helvetica-73"/>
     </g>
    </g>
   </g>
   <g id="matplotlib.axis_2">
    <g id="ytick_1">
     <g id="line2d_12">
      <defs>
       <path d="
M0 0
L-10 0" id="me58d826c3c" style="stroke:#000000;stroke-width:4;"/>
      </defs>
      <g>
       <use style="stroke:#000000;stroke-width:4;" x="79.8934375" xlink:href="#me58d826c3c" y="542.88"/>
      </g>
     </g>
     <g id="text_9">
      <!-- 0.0 -->
      <defs>
       <path d="
M8.54688 10.6406
L18.75 10.6406
L18.75 0
L8.54688 0
z
" id="Helvetica-2e"/>
      </defs>
      <g transform="translate(36.9325 548.47796875)scale(0.22 -0.22)">
       <use xlink:href="#Helvetica-30"/>
       <use x="55.615234375" xlink:href="#Helvetica-2e"/>
       <use x="83.3984375" xlink:href="#Helvetica-30"/>
      </g>
     </g>
    </g>
    <g id="ytick_2">
     <g id="line2d_13">
      <g>
       <use style="stroke:#000000;stroke-width:4;" x="79.8934375" xlink:href="#me58d826c3c" y="319.68"/>
      </g>
     </g>
     <g id="text_10">
      <!-- 0.5 -->
      <g transform="translate(36.9325 325.27796875)scale(0.22 -0.22)">
       <use xlink:href="#Helvetica-30"/>
       <use x="55.615234375" xlink:href="#Helvetica-2e"/>
       <use x="83.3984375" xlink:href="#Helvetica-35"/>
      </g>
     </g>
    </g>
    <g id="ytick_3">
     <g id="line2d_14">
      <g>
       <use style="stroke:#000000;stroke-width:4;" x="79.8934375" xlink:href="#me58d826c3c" y="96.48"/>
      </g>
     </g>
     <g id="text_11">
      <!-- 1.0 -->
      <g transform="translate(38.3521875 102.07796875)scale(0.22 -0.22)">
       <use xlink:href="#Helvetica-31"/>
       <use x="55.615234375" xlink:href="#Helvetica-2e"/>
       <use x="83.3984375" xlink:href="#Helvetica-30"/>
      </g>
     </g>
    </g>
    <g id="text_12">
     <!-- Cell density (OD600) -->
     <defs>
      <path d="
M3.46875 -20.4062
Q11.2344 -5.28125 13.4844 1.65625
Q16.8906 12.1562 16.8906 26.2656
Q16.8906 40.375 12.9375 52.0938
Q10.5 59.3281 3.32812 72.9062
L9.23438 72.9062
Q16.75 60.8906 18.3281 58.0781
Q19.9219 55.2812 21.7812 50.3438
Q24.125 44.2344 25.125 38.2812
Q26.125 32.3281 26.125 26.8125
Q26.125 12.3594 21.5312 1.03125
Q18.6562 -6.25 9.57812 -20.4062
z
" id="Helvetica-29"/>
      <path d="
M29.5938 72.9062
Q21.9219 58.0156 19.625 50.9844
Q16.1562 40.2812 16.1562 26.2656
Q16.1562 12.1094 20.125 0.390625
Q22.5625 -6.84375 29.7344 -20.4062
L23.8281 -20.4062
Q16.7031 -9.28125 14.9844 -6.20312
Q13.2812 -3.125 11.2812 2.15625
Q8.54688 9.375 7.46875 17.5781
Q6.9375 21.8281 6.9375 25.6875
Q6.9375 40.1406 11.4688 51.4219
Q14.3594 58.5938 23.4844 72.9062
z
" id="Helvetica-28"/>
      <path d="
M6.6875 71.7344
L15.4844 71.7344
L15.4844 0
L6.6875 0
z
" id="Helvetica-6c"/>
      <path d="
M28.2188 53.4688
Q33.7969 53.4688 39.0156 50.8594
Q44.2344 48.25 46.9688 44.0938
Q49.6094 40.1406 50.4844 34.8594
Q51.2656 31.25 51.2656 23.3438
L12.9375 23.3438
Q13.1875 15.375 16.7031 10.5625
Q20.2188 5.76562 27.5938 5.76562
Q34.4688 5.76562 38.5781 10.2969
Q40.9219 12.9375 41.8906 16.4062
L50.5312 16.4062
Q50.2031 13.5312 48.2656 9.98438
Q46.3438 6.45312 43.9531 4.20312
Q39.9375 0.296875 34.0312 -1.07812
Q30.8594 -1.85938 26.8594 -1.85938
Q17.0938 -1.85938 10.2969 5.25
Q3.51562 12.3594 3.51562 25.1406
Q3.51562 37.75 10.3438 45.6094
Q17.1875 53.4688 28.2188 53.4688
z

M42.2344 30.3281
Q41.7031 36.0312 39.75 39.4531
Q36.1406 45.7969 27.6875 45.7969
Q21.625 45.7969 17.5156 41.4219
Q13.4219 37.0625 13.1875 30.3281
z

M27.3906 53.5625
z
" id="Helvetica-65"/>
      <path id="Helvetica-20"/>
      <path d="
M39.1094 52.2969
L48.8281 52.2969
Q46.9688 47.2656 40.5781 29.3438
Q35.7969 15.875 32.5625 7.375
Q24.9531 -12.6406 21.8281 -17.0312
Q18.7031 -21.4375 11.0781 -21.4375
Q9.23438 -21.4375 8.23438 -21.2812
Q7.23438 -21.1406 5.76562 -20.75
L5.76562 -12.75
Q8.0625 -13.375 9.07812 -13.5156
Q10.1094 -13.6719 10.8906 -13.6719
Q13.3281 -13.6719 14.4688 -12.8594
Q15.625 -12.0625 16.4062 -10.8906
Q16.6562 -10.5 18.1562 -6.875
Q19.6719 -3.26562 20.3594 -1.51562
L1.03125 52.2969
L10.9844 52.2969
L25 9.71875
z

M24.9531 53.5625
z
" id="Helvetica-79"/>
      <path d="
M35.1562 8.29688
Q40.0938 8.29688 43.2656 9.32812
Q48.9219 11.2344 52.5469 16.6562
Q55.4219 21 56.6875 27.7812
Q57.4219 31.8438 57.4219 35.2969
Q57.4219 48.6406 52.125 56
Q46.8281 63.375 35.0625 63.375
L17.8281 63.375
L17.8281 8.29688
z

M8.0625 71.7344
L37.1094 71.7344
Q51.9062 71.7344 60.0625 61.2344
Q67.3281 51.7656 67.3281 36.9688
Q67.3281 25.5312 63.0312 16.3125
Q55.4688 0 37.0156 0
L8.0625 0
z
" id="Helvetica-44"/>
      <path d="
M29.25 70.2188
Q40.9688 70.2188 45.5781 64.1406
Q50.2031 58.0625 50.2031 51.6094
L41.5 51.6094
Q40.7188 55.7656 39.0156 58.1094
Q35.8438 62.5 29.3906 62.5
Q22.0156 62.5 17.6719 55.6875
Q13.3281 48.875 12.8438 36.1875
Q15.875 40.625 20.4531 42.8281
Q24.6562 44.7812 29.8281 44.7812
Q38.625 44.7812 45.1562 39.1562
Q51.7031 33.5469 51.7031 22.4062
Q51.7031 12.8906 45.5 5.53125
Q39.3125 -1.8125 27.8281 -1.8125
Q18.0156 -1.8125 10.8906 5.64062
Q3.76562 13.0938 3.76562 30.7188
Q3.76562 43.75 6.9375 52.8281
Q13.0312 70.2188 29.25 70.2188
z

M28.6094 6
Q35.5469 6 38.9844 10.6562
Q42.4375 15.3281 42.4375 21.6875
Q42.4375 27.0469 39.3594 31.9062
Q36.2812 36.7656 28.1719 36.7656
Q22.5156 36.7656 18.2344 33
Q13.9688 29.25 13.9688 21.6875
Q13.9688 15.0469 17.8438 10.5156
Q21.7344 6 28.6094 6
z
" id="Helvetica-36"/>
      <path d="
M6.45312 52.2969
L14.7969 52.2969
L14.7969 44.875
Q18.5 49.4688 22.6562 51.4688
Q26.8125 53.4688 31.8906 53.4688
Q43.0156 53.4688 46.9219 45.7031
Q49.0781 41.4531 49.0781 33.5469
L49.0781 0
L40.1406 0
L40.1406 32.9531
Q40.1406 37.75 38.7188 40.6719
Q36.375 45.5625 30.2188 45.5625
Q27.0938 45.5625 25.0938 44.9219
Q21.4844 43.8438 18.75 40.625
Q16.5469 38.0312 15.8906 35.2656
Q15.2344 32.5156 15.2344 27.3906
L15.2344 0
L6.45312 0
z

M27.0938 53.5625
z
" id="Helvetica-6e"/>
      <path d="
M38.5781 73.6875
Q57.5625 73.6875 66.7031 61.4688
Q73.8281 51.9531 73.8281 37.1094
Q73.8281 21.0469 65.6719 10.4062
Q56.1094 -2.09375 38.375 -2.09375
Q21.8281 -2.09375 12.3594 8.84375
Q3.90625 19.3906 3.90625 35.5
Q3.90625 50.0469 11.1406 60.4062
Q20.4062 73.6875 38.5781 73.6875
z

M39.5469 6.59375
Q52.3906 6.59375 58.125 15.7969
Q63.875 25 63.875 36.9688
Q63.875 49.6094 57.25 57.3281
Q50.6406 65.0469 39.1562 65.0469
Q28.0312 65.0469 21 57.3906
Q13.9688 49.75 13.9688 34.8594
Q13.9688 22.9531 20 14.7656
Q26.0312 6.59375 39.5469 6.59375
z

M38.875 73.6875
z
" id="Helvetica-4f"/>
      <path d="
M6.45312 52.0469
L15.375 52.0469
L15.375 0
L6.45312 0
z

M6.45312 71.7344
L15.375 71.7344
L15.375 61.7656
L6.45312 61.7656
z
" id="Helvetica-69"/>
      <path d="
M37.8438 73.6875
Q51.4688 73.6875 58.9844 66.5
Q66.5 59.3281 67.3281 50.2031
L57.8594 50.2031
Q56.25 57.125 51.4375 61.1719
Q46.625 65.2344 37.9375 65.2344
Q27.3438 65.2344 20.8281 57.7812
Q14.3125 50.3438 14.3125 34.9688
Q14.3125 22.3594 20.1875 14.5156
Q26.0781 6.6875 37.75 6.6875
Q48.4844 6.6875 54.1094 14.9375
Q57.0781 19.2812 58.5469 26.375
L68.0156 26.375
Q66.75 15.0469 59.625 7.375
Q51.0781 -1.85938 36.5781 -1.85938
Q24.0781 -1.85938 15.5781 5.71875
Q4.39062 15.7188 4.39062 36.625
Q4.39062 52.4844 12.7969 62.6406
Q21.875 73.6875 37.8438 73.6875
z

M35.8906 73.6875
z
" id="Helvetica-43"/>
      <path d="
M12.0156 25.5312
Q12.0156 17.1406 15.5781 11.4688
Q19.1406 5.8125 27 5.8125
Q33.1094 5.8125 37.0312 11.0625
Q40.9688 16.3125 40.9688 26.125
Q40.9688 36.0312 36.9062 40.7969
Q32.8594 45.5625 26.9062 45.5625
Q20.2656 45.5625 16.1406 40.4844
Q12.0156 35.4062 12.0156 25.5312
z

M25.25 53.2188
Q31.25 53.2188 35.2969 50.6875
Q37.6406 49.2188 40.625 45.5625
L40.625 71.9688
L49.0781 71.9688
L49.0781 0
L41.1562 0
L41.1562 7.28125
Q38.0938 2.4375 33.8906 0.28125
Q29.6875 -1.85938 24.2656 -1.85938
Q15.5312 -1.85938 9.125 5.48438
Q2.73438 12.8438 2.73438 25.0469
Q2.73438 36.4688 8.5625 44.8438
Q14.4062 53.2188 25.25 53.2188
z
" id="Helvetica-64"/>
      <path d="
M8.20312 66.8906
L17.0938 66.8906
L17.0938 52.2969
L25.4375 52.2969
L25.4375 45.125
L17.0938 45.125
L17.0938 10.9844
Q17.0938 8.25 18.9531 7.32812
Q19.9688 6.78125 22.3594 6.78125
Q23 6.78125 23.7344 6.8125
Q24.4688 6.84375 25.4375 6.9375
L25.4375 0
Q23.9219 -0.4375 22.2812 -0.625
Q20.6562 -0.828125 18.75 -0.828125
Q12.5938 -0.828125 10.3906 2.3125
Q8.20312 5.46875 8.20312 10.5
L8.20312 45.125
L1.125 45.125
L1.125 52.2969
L8.20312 52.2969
z
" id="Helvetica-74"/>
     </defs>
     <g transform="translate(26.35875 405.9178125)rotate(-90.0)scale(0.26 -0.26)">
      <use xlink:href="#Helvetica-43"/>
      <use x="72.216796875" xlink:href="#Helvetica-65"/>
      <use x="127.83203125" xlink:href="#Helvetica-6c"/>
      <use x="150.048828125" xlink:href="#Helvetica-6c"/>
      <use x="172.265625" xlink:href="#Helvetica-20"/>
      <use x="200.048828125" xlink:href="#Helvetica-64"/>
      <use x="255.6640625" xlink:href="#Helvetica-65"/>
      <use x="311.279296875" xlink:href="#Helvetica-6e"/>
      <use x="366.89453125" xlink:href="#Helvetica-73"/>
      <use x="416.89453125" xlink:href="#Helvetica-69"/>
      <use x="439.111328125" xlink:href="#Helvetica-74"/>
      <use x="466.89453125" xlink:href="#Helvetica-79"/>
      <use x="516.89453125" xlink:href="#Helvetica-20"/>
      <use x="544.677734375" xlink:href="#Helvetica-28"/>
      <use x="577.978515625" xlink:href="#Helvetica-4f"/>
      <use x="655.76171875" xlink:href="#Helvetica-44"/>
      <use x="727.978515625" xlink:href="#Helvetica-36"/>
      <use x="783.59375" xlink:href="#Helvetica-30"/>
      <use x="839.208984375" xlink:href="#Helvetica-30"/>
      <use x="894.82421875" xlink:href="#Helvetica-29"/>
     </g>
    </g>
   </g>
   <g id="legend_1">
    <g id="patch_5">
     <path d="
M1044.1 137.869
L1185.89 137.869
L1185.89 17.2
L1044.1 17.2
z
" style="fill:#ffffff;stroke:#000000;stroke-linejoin:miter;"/>
    </g>
    <g id="line2d_15">
     <path d="
M1058.1 32.5469
L1086.1 32.5469" style="fill:none;stroke:#c7b1d3;stroke-linecap:square;stroke-width:3;"/>
    </g>
    <g id="line2d_16"/>
    <g id="text_13">
     <!-- WT -->
     <defs>
      <path d="
M12.3594 71.7344
L25.875 13.375
L42.0938 71.7344
L52.6406 71.7344
L68.8438 13.375
L82.375 71.7344
L93.0156 71.7344
L74.1719 0
L63.9688 0
L47.4062 59.4688
L30.7656 0
L20.5625 0
L1.8125 71.7344
z
" id="Helvetica-57"/>
      <path d="
M59.8125 71.7344
L59.8125 63.1875
L35.6406 63.1875
L35.6406 0
L25.7812 0
L25.7812 63.1875
L1.60938 63.1875
L1.60938 71.7344
z
" id="Helvetica-54"/>
     </defs>
     <g transform="translate(1108.0996875 39.546875)scale(0.2 -0.2)">
      <use xlink:href="#Helvetica-57"/>
      <use x="94.384765625" xlink:href="#Helvetica-54"/>
     </g>
    </g>
    <g id="line2d_17">
     <path d="
M1058.1 61.3656
L1086.1 61.3656" style="fill:none;stroke:#f2800e;stroke-linecap:square;stroke-width:3;"/>
    </g>
    <g id="line2d_18"/>
    <g id="text_14">
     <!-- GFP (-) -->
     <defs>
      <path d="
M8.54688 71.7344
L58.2969 71.7344
L58.2969 62.9375
L18.2656 62.9375
L18.2656 41.1562
L53.4688 41.1562
L53.4688 32.625
L18.2656 32.625
L18.2656 0
L8.54688 0
z
" id="Helvetica-46"/>
      <path d="
M38.625 73.5781
Q48.7344 73.5781 56.1094 69.6719
Q66.7969 64.0625 69.1875 50
L59.5781 50
Q57.8125 57.8594 52.2969 61.4531
Q46.7812 65.0469 38.375 65.0469
Q28.4219 65.0469 21.6094 57.5625
Q14.7969 50.0938 14.7969 35.2969
Q14.7969 22.5156 20.4062 14.4844
Q26.0312 6.45312 38.7188 6.45312
Q48.4375 6.45312 54.8125 12.0781
Q61.1875 17.7188 61.3281 30.3281
L38.875 30.3281
L38.875 38.375
L70.3594 38.375
L70.3594 0
L64.1094 0
L61.7656 9.23438
Q56.8438 3.8125 53.0312 1.70312
Q46.625 -1.90625 36.7656 -1.90625
Q24.0312 -1.90625 14.8438 6.34375
Q4.82812 16.7031 4.82812 34.7656
Q4.82812 52.7812 14.5938 63.4219
Q23.875 73.5781 38.625 73.5781
z

M37.0156 73.6875
z
" id="Helvetica-47"/>
      <path d="
M8.54688 71.7344
L40.8281 71.7344
Q50.3906 71.7344 56.25 66.3281
Q62.1094 60.9375 62.1094 51.1719
Q62.1094 42.7812 56.875 36.5469
Q51.6562 30.3281 40.8281 30.3281
L18.2656 30.3281
L18.2656 0
L8.54688 0
z

M52.2969 51.125
Q52.2969 59.0312 46.4375 61.8594
Q43.2188 63.375 37.5938 63.375
L18.2656 63.375
L18.2656 38.5312
L37.5938 38.5312
Q44.1406 38.5312 48.2188 41.3125
Q52.2969 44.0938 52.2969 51.125
z
" id="Helvetica-50"/>
      <path d="
M4.15625 32.375
L28.6562 32.375
L28.6562 23.3438
L4.15625 23.3438
z
" id="Helvetica-2d"/>
     </defs>
     <g transform="translate(1108.0996875 68.365625)scale(0.2 -0.2)">
      <use xlink:href="#Helvetica-47"/>
      <use x="77.783203125" xlink:href="#Helvetica-46"/>
      <use x="138.8671875" xlink:href="#Helvetica-50"/>
      <use x="205.56640625" xlink:href="#Helvetica-20"/>
      <use x="233.349609375" xlink:href="#Helvetica-28"/>
      <use x="266.650390625" xlink:href="#Helvetica-2d"/>
      <use x="299.951171875" xlink:href="#Helvetica-29"/>
     </g>
    </g>
    <g id="line2d_19">
     <path d="
M1058.1 90.1844
L1086.1 90.1844" style="fill:none;stroke:#6c4595;stroke-linecap:square;stroke-width:3;"/>
    </g>
    <g id="line2d_20"/>
    <g id="text_15">
     <!-- eCA (+) -->
     <defs>
      <path d="
M4.5 21.3906
L4.5 29.5938
L25.7812 29.5938
L25.7812 51.0312
L34.125 51.0312
L34.125 29.5938
L55.4219 29.5938
L55.4219 21.3906
L34.125 21.3906
L34.125 0
L25.7812 0
L25.7812 21.3906
z
" id="Helvetica-2b"/>
      <path d="
M44.4375 29.3906
L33.5469 61.0781
L21.9688 29.3906
z

M28.4688 71.7344
L39.4531 71.7344
L65.4844 0
L54.8281 0
L47.5625 21.4844
L19.1875 21.4844
L11.4219 0
L1.46875 0
z

M33.5 71.7344
z
" id="Helvetica-41"/>
     </defs>
     <g transform="translate(1108.0996875 97.184375)scale(0.2 -0.2)">
      <use xlink:href="#Helvetica-65"/>
      <use x="55.615234375" xlink:href="#Helvetica-43"/>
      <use x="127.83203125" xlink:href="#Helvetica-41"/>
      <use x="194.53125" xlink:href="#Helvetica-20"/>
      <use x="222.314453125" xlink:href="#Helvetica-28"/>
      <use x="255.615234375" xlink:href="#Helvetica-2b"/>
      <use x="314.013671875" xlink:href="#Helvetica-29"/>
     </g>
    </g>
    <g id="line2d_21">
     <path d="
M1058.1 118.7
L1086.1 118.7" style="fill:none;stroke:#2777ad;stroke-linecap:square;stroke-width:3;"/>
    </g>
    <g id="line2d_22"/>
    <g id="text_16">
     <!-- dabAB2 -->
     <defs>
      <path d="
M13.1875 13.9219
Q13.1875 10.1094 15.9688 7.90625
Q18.75 5.71875 22.5625 5.71875
Q27.2031 5.71875 31.5469 7.85938
Q38.875 11.4219 38.875 19.5312
L38.875 26.6094
Q37.25 25.5938 34.7031 24.9062
Q32.1719 24.2188 29.7344 23.9219
L24.4219 23.25
Q19.625 22.6094 17.2344 21.2344
Q13.1875 18.9531 13.1875 13.9219
z

M34.4688 31.6875
Q37.5 32.0781 38.5312 34.2344
Q39.1094 35.4062 39.1094 37.5938
Q39.1094 42.0938 35.9062 44.1094
Q32.7188 46.1406 26.7656 46.1406
Q19.875 46.1406 17 42.4375
Q15.375 40.375 14.8906 36.3281
L6.6875 36.3281
Q6.9375 46 12.9688 49.7812
Q19 53.5625 26.9531 53.5625
Q36.1875 53.5625 41.9375 50.0469
Q47.6562 46.5312 47.6562 39.1094
L47.6562 8.98438
Q47.6562 7.625 48.2188 6.78125
Q48.7812 5.95312 50.5938 5.95312
Q51.1719 5.95312 51.9062 6.03125
Q52.6406 6.10938 53.4688 6.25
L53.4688 -0.25
Q51.4219 -0.828125 50.3438 -0.96875
Q49.2656 -1.125 47.4062 -1.125
Q42.875 -1.125 40.8281 2.09375
Q39.75 3.8125 39.3125 6.9375
Q36.625 3.42188 31.5938 0.828125
Q26.5625 -1.76562 20.5156 -1.76562
Q13.2344 -1.76562 8.60938 2.65625
Q4 7.07812 4 13.7188
Q4 21 8.54688 25
Q13.0938 29 20.4531 29.9375
z

M27.2031 53.5625
z
" id="Helvetica-61"/>
      <path d="
M5.76562 71.9688
L14.3125 71.9688
L14.3125 45.9531
Q17.1875 49.7031 21.1875 51.6719
Q25.2031 53.6562 29.8906 53.6562
Q39.6562 53.6562 45.7344 46.9375
Q51.8125 40.2344 51.8125 27.1562
Q51.8125 14.75 45.7969 6.54688
Q39.7969 -1.65625 29.1562 -1.65625
Q23.1875 -1.65625 19.0938 1.21875
Q16.6562 2.9375 13.875 6.6875
L13.875 0
L5.76562 0
z

M28.6094 6.10938
Q35.75 6.10938 39.2812 11.7656
Q42.8281 17.4375 42.8281 26.7031
Q42.8281 34.9688 39.2812 40.375
Q35.75 45.7969 28.8594 45.7969
Q22.8594 45.7969 18.3281 41.3594
Q13.8125 36.9219 13.8125 26.7031
Q13.8125 19.3438 15.6719 14.75
Q19.1406 6.10938 28.6094 6.10938
z
" id="Helvetica-62"/>
      <path d="
M34.5781 41.4062
Q40.7188 41.4062 44.1406 43.1094
Q49.5156 45.7969 49.5156 52.7812
Q49.5156 59.8125 43.7969 62.25
Q40.5781 63.625 34.2344 63.625
L16.8906 63.625
L16.8906 41.4062
z

M37.8438 8.29688
Q46.7812 8.29688 50.5938 13.4844
Q52.9844 16.75 52.9844 21.3906
Q52.9844 29.2031 46 32.0312
Q42.2812 33.5469 36.1875 33.5469
L16.8906 33.5469
L16.8906 8.29688
z

M7.375 71.7344
L38.1875 71.7344
Q50.7812 71.7344 56.1094 64.2031
Q59.2344 59.7656 59.2344 53.9531
Q59.2344 47.1719 55.375 42.8281
Q53.375 40.5312 49.6094 38.625
Q55.125 36.5312 57.8594 33.8906
Q62.7031 29.2031 62.7031 20.9531
Q62.7031 14.0156 58.3438 8.40625
Q51.8594 0 37.7031 0
L7.375 0
z
" id="Helvetica-42"/>
     </defs>
     <g transform="translate(1108.0996875 125.7)scale(0.2 -0.2)">
      <use xlink:href="#Helvetica-64"/>
      <use x="55.615234375" xlink:href="#Helvetica-61"/>
      <use x="111.23046875" xlink:href="#Helvetica-62"/>
      <use x="166.845703125" xlink:href="#Helvetica-41"/>
      <use x="233.544921875" xlink:href="#Helvetica-42"/>
      <use x="300.244140625" xlink:href="#Helvetica-32"/>
     </g>
    </g>
   </g>
  </g>
 </g>
 <defs>
  <clipPath id="p39f61a35d8">
   <rect height="558.0" width="1116.0" x="79.8934375" y="7.2"/>
  </clipPath>
 </defs>
</svg>
