<?xml version="1.0" encoding="utf-8" standalone="no"?>
<!DOCTYPE svg PUBLIC "-//W3C//DTD SVG 1.1//EN"
  "http://www.w3.org/Graphics/SVG/1.1/DTD/svg11.dtd">
<!-- Created with matplotlib (http://matplotlib.org/) -->
<svg height="720pt" version="1.1" viewBox="0 0 1440 720" width="1440pt" xmlns="http://www.w3.org/2000/svg" xmlns:xlink="http://www.w3.org/1999/xlink">
 <defs>
  <style type="text/css">
*{stroke-linecap:butt;stroke-linejoin:round;}
  </style>
 </defs>
 <g id="figure_1">
  <g id="patch_1">
   <path d="M 0 720 
L 1440 720 
L 1440 0 
L 0 0 
z
" style="fill:#ffffff;"/>
  </g>
  <g id="axes_1">
   <g id="patch_2">
    <path d="M 180 630 
L 1296 630 
L 1296 86.4 
L 180 86.4 
z
" style="fill:#ffffff;"/>
   </g>
   <g id="matplotlib.axis_1">
    <g id="xtick_1">
     <g id="line2d_1"/>
     <g id="text_1">
      <!-- 0 -->
      <defs>
       <path d="M 4.15625 35.296875 
Q 4.15625 48 6.765625 55.734375 
Q 9.375 63.484375 14.515625 67.671875 
Q 19.671875 71.875 27.484375 71.875 
Q 33.25 71.875 37.59375 69.546875 
Q 41.9375 67.234375 44.765625 62.859375 
Q 47.609375 58.5 49.21875 52.21875 
Q 50.828125 45.953125 50.828125 35.296875 
Q 50.828125 22.703125 48.234375 14.96875 
Q 45.65625 7.234375 40.5 3 
Q 35.359375 -1.21875 27.484375 -1.21875 
Q 17.140625 -1.21875 11.234375 6.203125 
Q 4.15625 15.140625 4.15625 35.296875 
z
M 13.1875 35.296875 
Q 13.1875 17.671875 17.3125 11.828125 
Q 21.4375 6 27.484375 6 
Q 33.546875 6 37.671875 11.859375 
Q 41.796875 17.71875 41.796875 35.296875 
Q 41.796875 52.984375 37.671875 58.78125 
Q 33.546875 64.59375 27.390625 64.59375 
Q 21.34375 64.59375 17.71875 59.46875 
Q 13.1875 52.9375 13.1875 35.296875 
z
" id="ArialMT-30"/>
      </defs>
      <g style="fill:#262626;" transform="translate(176.107344 643.520937)scale(0.14 -0.14)">
       <use xlink:href="#ArialMT-30"/>
      </g>
     </g>
    </g>
    <g id="xtick_2">
     <g id="line2d_2"/>
     <g id="text_2">
      <!-- 5 -->
      <defs>
       <path d="M 4.15625 18.75 
L 13.375 19.53125 
Q 14.40625 12.796875 18.140625 9.390625 
Q 21.875 6 27.15625 6 
Q 33.5 6 37.890625 10.78125 
Q 42.28125 15.578125 42.28125 23.484375 
Q 42.28125 31 38.0625 35.34375 
Q 33.84375 39.703125 27 39.703125 
Q 22.75 39.703125 19.328125 37.765625 
Q 15.921875 35.84375 13.96875 32.765625 
L 5.71875 33.84375 
L 12.640625 70.609375 
L 48.25 70.609375 
L 48.25 62.203125 
L 19.671875 62.203125 
L 15.828125 42.96875 
Q 22.265625 47.46875 29.34375 47.46875 
Q 38.71875 47.46875 45.15625 40.96875 
Q 51.609375 34.46875 51.609375 24.265625 
Q 51.609375 14.546875 45.953125 7.46875 
Q 39.0625 -1.21875 27.15625 -1.21875 
Q 17.390625 -1.21875 11.203125 4.25 
Q 5.03125 9.71875 4.15625 18.75 
z
" id="ArialMT-35"/>
      </defs>
      <g style="fill:#262626;" transform="translate(356.083476 643.520937)scale(0.14 -0.14)">
       <use xlink:href="#ArialMT-35"/>
      </g>
     </g>
    </g>
    <g id="xtick_3">
     <g id="line2d_3"/>
     <g id="text_3">
      <!-- 10 -->
      <defs>
       <path d="M 37.25 0 
L 28.46875 0 
L 28.46875 56 
Q 25.296875 52.984375 20.140625 49.953125 
Q 14.984375 46.921875 10.890625 45.40625 
L 10.890625 53.90625 
Q 18.265625 57.375 23.78125 62.296875 
Q 29.296875 67.234375 31.59375 71.875 
L 37.25 71.875 
z
" id="ArialMT-31"/>
      </defs>
      <g style="fill:#262626;" transform="translate(532.166952 643.520937)scale(0.14 -0.14)">
       <use xlink:href="#ArialMT-31"/>
       <use x="55.615234" xlink:href="#ArialMT-30"/>
      </g>
     </g>
    </g>
    <g id="xtick_4">
     <g id="line2d_4"/>
     <g id="text_4">
      <!-- 15 -->
      <g style="fill:#262626;" transform="translate(712.143084 643.520937)scale(0.14 -0.14)">
       <use xlink:href="#ArialMT-31"/>
       <use x="55.615234" xlink:href="#ArialMT-35"/>
      </g>
     </g>
    </g>
    <g id="xtick_5">
     <g id="line2d_5"/>
     <g id="text_5">
      <!-- 20 -->
      <defs>
       <path d="M 50.34375 8.453125 
L 50.34375 0 
L 3.03125 0 
Q 2.9375 3.171875 4.046875 6.109375 
Q 5.859375 10.9375 9.828125 15.625 
Q 13.8125 20.3125 21.34375 26.46875 
Q 33.015625 36.03125 37.109375 41.625 
Q 41.21875 47.21875 41.21875 52.203125 
Q 41.21875 57.421875 37.46875 61 
Q 33.734375 64.59375 27.734375 64.59375 
Q 21.390625 64.59375 17.578125 60.78125 
Q 13.765625 56.984375 13.71875 50.25 
L 4.6875 51.171875 
Q 5.609375 61.28125 11.65625 66.578125 
Q 17.71875 71.875 27.9375 71.875 
Q 38.234375 71.875 44.234375 66.15625 
Q 50.25 60.453125 50.25 52 
Q 50.25 47.703125 48.484375 43.546875 
Q 46.734375 39.40625 42.65625 34.8125 
Q 38.578125 30.21875 29.109375 22.21875 
Q 21.1875 15.578125 18.9375 13.203125 
Q 16.703125 10.84375 15.234375 8.453125 
z
" id="ArialMT-32"/>
      </defs>
      <g style="fill:#262626;" transform="translate(892.119216 643.520937)scale(0.14 -0.14)">
       <use xlink:href="#ArialMT-32"/>
       <use x="55.615234" xlink:href="#ArialMT-30"/>
      </g>
     </g>
    </g>
    <g id="xtick_6">
     <g id="line2d_6"/>
     <g id="text_6">
      <!-- 25 -->
      <g style="fill:#262626;" transform="translate(1072.095348 643.520937)scale(0.14 -0.14)">
       <use xlink:href="#ArialMT-32"/>
       <use x="55.615234" xlink:href="#ArialMT-35"/>
      </g>
     </g>
    </g>
    <g id="xtick_7">
     <g id="line2d_7"/>
     <g id="text_7">
      <!-- 30 -->
      <defs>
       <path d="M 4.203125 18.890625 
L 12.984375 20.0625 
Q 14.5 12.59375 18.140625 9.296875 
Q 21.78125 6 27 6 
Q 33.203125 6 37.46875 10.296875 
Q 41.75 14.59375 41.75 20.953125 
Q 41.75 27 37.796875 30.921875 
Q 33.84375 34.859375 27.734375 34.859375 
Q 25.25 34.859375 21.53125 33.890625 
L 22.515625 41.609375 
Q 23.390625 41.5 23.921875 41.5 
Q 29.546875 41.5 34.03125 44.421875 
Q 38.53125 47.359375 38.53125 53.46875 
Q 38.53125 58.296875 35.25 61.46875 
Q 31.984375 64.65625 26.8125 64.65625 
Q 21.6875 64.65625 18.265625 61.421875 
Q 14.84375 58.203125 13.875 51.765625 
L 5.078125 53.328125 
Q 6.6875 62.15625 12.390625 67.015625 
Q 18.109375 71.875 26.609375 71.875 
Q 32.46875 71.875 37.390625 69.359375 
Q 42.328125 66.84375 44.9375 62.5 
Q 47.5625 58.15625 47.5625 53.265625 
Q 47.5625 48.640625 45.0625 44.828125 
Q 42.578125 41.015625 37.703125 38.765625 
Q 44.046875 37.3125 47.5625 32.6875 
Q 51.078125 28.078125 51.078125 21.140625 
Q 51.078125 11.765625 44.234375 5.25 
Q 37.40625 -1.265625 26.953125 -1.265625 
Q 17.53125 -1.265625 11.296875 4.34375 
Q 5.078125 9.96875 4.203125 18.890625 
z
" id="ArialMT-33"/>
      </defs>
      <g style="fill:#262626;" transform="translate(1252.071481 643.520937)scale(0.14 -0.14)">
       <use xlink:href="#ArialMT-33"/>
       <use x="55.615234" xlink:href="#ArialMT-30"/>
      </g>
     </g>
    </g>
    <g id="text_8">
     <!-- Time (Hours) -->
     <defs>
      <path d="M 25.921875 0 
L 25.921875 63.140625 
L 2.34375 63.140625 
L 2.34375 71.578125 
L 59.078125 71.578125 
L 59.078125 63.140625 
L 35.40625 63.140625 
L 35.40625 0 
z
" id="ArialMT-54"/>
      <path d="M 6.640625 61.46875 
L 6.640625 71.578125 
L 15.4375 71.578125 
L 15.4375 61.46875 
z
M 6.640625 0 
L 6.640625 51.859375 
L 15.4375 51.859375 
L 15.4375 0 
z
" id="ArialMT-69"/>
      <path d="M 6.59375 0 
L 6.59375 51.859375 
L 14.453125 51.859375 
L 14.453125 44.578125 
Q 16.890625 48.390625 20.9375 50.703125 
Q 25 53.03125 30.171875 53.03125 
Q 35.9375 53.03125 39.625 50.640625 
Q 43.3125 48.25 44.828125 43.953125 
Q 50.984375 53.03125 60.84375 53.03125 
Q 68.5625 53.03125 72.703125 48.75 
Q 76.859375 44.484375 76.859375 35.59375 
L 76.859375 0 
L 68.109375 0 
L 68.109375 32.671875 
Q 68.109375 37.9375 67.25 40.25 
Q 66.40625 42.578125 64.15625 43.984375 
Q 61.921875 45.40625 58.890625 45.40625 
Q 53.421875 45.40625 49.796875 41.765625 
Q 46.1875 38.140625 46.1875 30.125 
L 46.1875 0 
L 37.40625 0 
L 37.40625 33.6875 
Q 37.40625 39.546875 35.25 42.46875 
Q 33.109375 45.40625 28.21875 45.40625 
Q 24.515625 45.40625 21.359375 43.453125 
Q 18.21875 41.5 16.796875 37.734375 
Q 15.375 33.984375 15.375 26.90625 
L 15.375 0 
z
" id="ArialMT-6d"/>
      <path d="M 42.09375 16.703125 
L 51.171875 15.578125 
Q 49.03125 7.625 43.21875 3.21875 
Q 37.40625 -1.171875 28.375 -1.171875 
Q 17 -1.171875 10.328125 5.828125 
Q 3.65625 12.84375 3.65625 25.484375 
Q 3.65625 38.578125 10.390625 45.796875 
Q 17.140625 53.03125 27.875 53.03125 
Q 38.28125 53.03125 44.875 45.953125 
Q 51.46875 38.875 51.46875 26.03125 
Q 51.46875 25.25 51.421875 23.6875 
L 12.75 23.6875 
Q 13.234375 15.140625 17.578125 10.59375 
Q 21.921875 6.0625 28.421875 6.0625 
Q 33.25 6.0625 36.671875 8.59375 
Q 40.09375 11.140625 42.09375 16.703125 
z
M 13.234375 30.90625 
L 42.1875 30.90625 
Q 41.609375 37.453125 38.875 40.71875 
Q 34.671875 45.796875 27.984375 45.796875 
Q 21.921875 45.796875 17.796875 41.75 
Q 13.671875 37.703125 13.234375 30.90625 
z
" id="ArialMT-65"/>
      <path id="ArialMT-20"/>
      <path d="M 23.390625 -21.046875 
Q 16.109375 -11.859375 11.078125 0.4375 
Q 6.0625 12.75 6.0625 25.921875 
Q 6.0625 37.546875 9.8125 48.1875 
Q 14.203125 60.546875 23.390625 72.796875 
L 29.6875 72.796875 
Q 23.78125 62.640625 21.875 58.296875 
Q 18.890625 51.5625 17.1875 44.234375 
Q 15.09375 35.109375 15.09375 25.875 
Q 15.09375 2.390625 29.6875 -21.046875 
z
" id="ArialMT-28"/>
      <path d="M 8.015625 0 
L 8.015625 71.578125 
L 17.484375 71.578125 
L 17.484375 42.1875 
L 54.6875 42.1875 
L 54.6875 71.578125 
L 64.15625 71.578125 
L 64.15625 0 
L 54.6875 0 
L 54.6875 33.734375 
L 17.484375 33.734375 
L 17.484375 0 
z
" id="ArialMT-48"/>
      <path d="M 3.328125 25.921875 
Q 3.328125 40.328125 11.328125 47.265625 
Q 18.015625 53.03125 27.640625 53.03125 
Q 38.328125 53.03125 45.109375 46.015625 
Q 51.90625 39.015625 51.90625 26.65625 
Q 51.90625 16.65625 48.90625 10.90625 
Q 45.90625 5.171875 40.15625 2 
Q 34.421875 -1.171875 27.640625 -1.171875 
Q 16.75 -1.171875 10.03125 5.8125 
Q 3.328125 12.796875 3.328125 25.921875 
z
M 12.359375 25.921875 
Q 12.359375 15.96875 16.703125 11.015625 
Q 21.046875 6.0625 27.640625 6.0625 
Q 34.1875 6.0625 38.53125 11.03125 
Q 42.875 16.015625 42.875 26.21875 
Q 42.875 35.84375 38.5 40.796875 
Q 34.125 45.75 27.640625 45.75 
Q 21.046875 45.75 16.703125 40.8125 
Q 12.359375 35.890625 12.359375 25.921875 
z
" id="ArialMT-6f"/>
      <path d="M 40.578125 0 
L 40.578125 7.625 
Q 34.515625 -1.171875 24.125 -1.171875 
Q 19.53125 -1.171875 15.546875 0.578125 
Q 11.578125 2.34375 9.640625 5 
Q 7.71875 7.671875 6.9375 11.53125 
Q 6.390625 14.109375 6.390625 19.734375 
L 6.390625 51.859375 
L 15.1875 51.859375 
L 15.1875 23.09375 
Q 15.1875 16.21875 15.71875 13.8125 
Q 16.546875 10.359375 19.234375 8.375 
Q 21.921875 6.390625 25.875 6.390625 
Q 29.828125 6.390625 33.296875 8.421875 
Q 36.765625 10.453125 38.203125 13.9375 
Q 39.65625 17.4375 39.65625 24.078125 
L 39.65625 51.859375 
L 48.4375 51.859375 
L 48.4375 0 
z
" id="ArialMT-75"/>
      <path d="M 6.5 0 
L 6.5 51.859375 
L 14.40625 51.859375 
L 14.40625 44 
Q 17.4375 49.515625 20 51.265625 
Q 22.5625 53.03125 25.640625 53.03125 
Q 30.078125 53.03125 34.671875 50.203125 
L 31.640625 42.046875 
Q 28.421875 43.953125 25.203125 43.953125 
Q 22.3125 43.953125 20.015625 42.21875 
Q 17.71875 40.484375 16.75 37.40625 
Q 15.28125 32.71875 15.28125 27.15625 
L 15.28125 0 
z
" id="ArialMT-72"/>
      <path d="M 3.078125 15.484375 
L 11.765625 16.84375 
Q 12.5 11.625 15.84375 8.84375 
Q 19.1875 6.0625 25.203125 6.0625 
Q 31.25 6.0625 34.171875 8.515625 
Q 37.109375 10.984375 37.109375 14.3125 
Q 37.109375 17.28125 34.515625 19 
Q 32.71875 20.171875 25.53125 21.96875 
Q 15.875 24.421875 12.140625 26.203125 
Q 8.40625 27.984375 6.46875 31.125 
Q 4.546875 34.28125 4.546875 38.09375 
Q 4.546875 41.546875 6.125 44.5 
Q 7.71875 47.46875 10.453125 49.421875 
Q 12.5 50.921875 16.03125 51.96875 
Q 19.578125 53.03125 23.640625 53.03125 
Q 29.734375 53.03125 34.34375 51.265625 
Q 38.96875 49.515625 41.15625 46.5 
Q 43.359375 43.5 44.1875 38.484375 
L 35.59375 37.3125 
Q 35.015625 41.3125 32.203125 43.546875 
Q 29.390625 45.796875 24.265625 45.796875 
Q 18.21875 45.796875 15.625 43.796875 
Q 13.03125 41.796875 13.03125 39.109375 
Q 13.03125 37.40625 14.109375 36.03125 
Q 15.1875 34.625 17.484375 33.6875 
Q 18.796875 33.203125 25.25 31.453125 
Q 34.578125 28.953125 38.25 27.359375 
Q 41.9375 25.78125 44.03125 22.75 
Q 46.140625 19.734375 46.140625 15.234375 
Q 46.140625 10.84375 43.578125 6.953125 
Q 41.015625 3.078125 36.171875 0.953125 
Q 31.34375 -1.171875 25.25 -1.171875 
Q 15.140625 -1.171875 9.84375 3.03125 
Q 4.546875 7.234375 3.078125 15.484375 
z
" id="ArialMT-73"/>
      <path d="M 12.359375 -21.046875 
L 6.0625 -21.046875 
Q 20.65625 2.390625 20.65625 25.875 
Q 20.65625 35.0625 18.5625 44.09375 
Q 16.890625 51.421875 13.921875 58.15625 
Q 12.015625 62.546875 6.0625 72.796875 
L 12.359375 72.796875 
Q 21.53125 60.546875 25.921875 48.1875 
Q 29.6875 37.546875 29.6875 25.921875 
Q 29.6875 12.75 24.625 0.4375 
Q 19.578125 -11.859375 12.359375 -21.046875 
z
" id="ArialMT-29"/>
     </defs>
     <g style="fill:#262626;" transform="translate(679.673437 664.862813)scale(0.2 -0.2)">
      <use xlink:href="#ArialMT-54"/>
      <use x="61.037109" xlink:href="#ArialMT-69"/>
      <use x="83.253906" xlink:href="#ArialMT-6d"/>
      <use x="166.554688" xlink:href="#ArialMT-65"/>
      <use x="222.169922" xlink:href="#ArialMT-20"/>
      <use x="249.953125" xlink:href="#ArialMT-28"/>
      <use x="283.253906" xlink:href="#ArialMT-48"/>
      <use x="355.470703" xlink:href="#ArialMT-6f"/>
      <use x="411.085938" xlink:href="#ArialMT-75"/>
      <use x="466.701172" xlink:href="#ArialMT-72"/>
      <use x="500.001953" xlink:href="#ArialMT-73"/>
      <use x="550.001953" xlink:href="#ArialMT-29"/>
     </g>
    </g>
   </g>
   <g id="matplotlib.axis_2">
    <g id="ytick_1">
     <g id="line2d_8"/>
     <g id="text_9">
      <!-- 0.0 -->
      <defs>
       <path d="M 9.078125 0 
L 9.078125 10.015625 
L 19.09375 10.015625 
L 19.09375 0 
z
" id="ArialMT-2e"/>
      </defs>
      <g style="fill:#262626;" transform="translate(157.04 596.181897)scale(0.14 -0.14)">
       <use xlink:href="#ArialMT-30"/>
       <use x="55.615234" xlink:href="#ArialMT-2e"/>
       <use x="83.398438" xlink:href="#ArialMT-30"/>
      </g>
     </g>
    </g>
    <g id="ytick_2">
     <g id="line2d_9"/>
     <g id="text_10">
      <!-- 0.2 -->
      <g style="fill:#262626;" transform="translate(157.04 518.524754)scale(0.14 -0.14)">
       <use xlink:href="#ArialMT-30"/>
       <use x="55.615234" xlink:href="#ArialMT-2e"/>
       <use x="83.398438" xlink:href="#ArialMT-32"/>
      </g>
     </g>
    </g>
    <g id="ytick_3">
     <g id="line2d_10"/>
     <g id="text_11">
      <!-- 0.4 -->
      <defs>
       <path d="M 32.328125 0 
L 32.328125 17.140625 
L 1.265625 17.140625 
L 1.265625 25.203125 
L 33.9375 71.578125 
L 41.109375 71.578125 
L 41.109375 25.203125 
L 50.78125 25.203125 
L 50.78125 17.140625 
L 41.109375 17.140625 
L 41.109375 0 
z
M 32.328125 25.203125 
L 32.328125 57.46875 
L 9.90625 25.203125 
z
" id="ArialMT-34"/>
      </defs>
      <g style="fill:#262626;" transform="translate(157.04 440.867612)scale(0.14 -0.14)">
       <use xlink:href="#ArialMT-30"/>
       <use x="55.615234" xlink:href="#ArialMT-2e"/>
       <use x="83.398438" xlink:href="#ArialMT-34"/>
      </g>
     </g>
    </g>
    <g id="ytick_4">
     <g id="line2d_11"/>
     <g id="text_12">
      <!-- 0.6 -->
      <defs>
       <path d="M 49.75 54.046875 
L 41.015625 53.375 
Q 39.84375 58.546875 37.703125 60.890625 
Q 34.125 64.65625 28.90625 64.65625 
Q 24.703125 64.65625 21.53125 62.3125 
Q 17.390625 59.28125 14.984375 53.46875 
Q 12.59375 47.65625 12.5 36.921875 
Q 15.671875 41.75 20.265625 44.09375 
Q 24.859375 46.4375 29.890625 46.4375 
Q 38.671875 46.4375 44.84375 39.96875 
Q 51.03125 33.5 51.03125 23.25 
Q 51.03125 16.5 48.125 10.71875 
Q 45.21875 4.9375 40.140625 1.859375 
Q 35.0625 -1.21875 28.609375 -1.21875 
Q 17.625 -1.21875 10.6875 6.859375 
Q 3.765625 14.9375 3.765625 33.5 
Q 3.765625 54.25 11.421875 63.671875 
Q 18.109375 71.875 29.4375 71.875 
Q 37.890625 71.875 43.28125 67.140625 
Q 48.6875 62.40625 49.75 54.046875 
z
M 13.875 23.1875 
Q 13.875 18.65625 15.796875 14.5 
Q 17.71875 10.359375 21.1875 8.171875 
Q 24.65625 6 28.46875 6 
Q 34.03125 6 38.03125 10.484375 
Q 42.046875 14.984375 42.046875 22.703125 
Q 42.046875 30.125 38.078125 34.390625 
Q 34.125 38.671875 28.125 38.671875 
Q 22.171875 38.671875 18.015625 34.390625 
Q 13.875 30.125 13.875 23.1875 
z
" id="ArialMT-36"/>
      </defs>
      <g style="fill:#262626;" transform="translate(157.04 363.210469)scale(0.14 -0.14)">
       <use xlink:href="#ArialMT-30"/>
       <use x="55.615234" xlink:href="#ArialMT-2e"/>
       <use x="83.398438" xlink:href="#ArialMT-36"/>
      </g>
     </g>
    </g>
    <g id="ytick_5">
     <g id="line2d_12"/>
     <g id="text_13">
      <!-- 0.8 -->
      <defs>
       <path d="M 17.671875 38.8125 
Q 12.203125 40.828125 9.5625 44.53125 
Q 6.9375 48.25 6.9375 53.421875 
Q 6.9375 61.234375 12.546875 66.546875 
Q 18.171875 71.875 27.484375 71.875 
Q 36.859375 71.875 42.578125 66.421875 
Q 48.296875 60.984375 48.296875 53.171875 
Q 48.296875 48.1875 45.671875 44.5 
Q 43.0625 40.828125 37.75 38.8125 
Q 44.34375 36.671875 47.78125 31.875 
Q 51.21875 27.09375 51.21875 20.453125 
Q 51.21875 11.28125 44.71875 5.03125 
Q 38.234375 -1.21875 27.640625 -1.21875 
Q 17.046875 -1.21875 10.546875 5.046875 
Q 4.046875 11.328125 4.046875 20.703125 
Q 4.046875 27.6875 7.59375 32.390625 
Q 11.140625 37.109375 17.671875 38.8125 
z
M 15.921875 53.71875 
Q 15.921875 48.640625 19.1875 45.40625 
Q 22.46875 42.1875 27.6875 42.1875 
Q 32.765625 42.1875 36.015625 45.375 
Q 39.265625 48.578125 39.265625 53.21875 
Q 39.265625 58.0625 35.90625 61.359375 
Q 32.5625 64.65625 27.59375 64.65625 
Q 22.5625 64.65625 19.234375 61.421875 
Q 15.921875 58.203125 15.921875 53.71875 
z
M 13.09375 20.65625 
Q 13.09375 16.890625 14.875 13.375 
Q 16.65625 9.859375 20.171875 7.921875 
Q 23.6875 6 27.734375 6 
Q 34.03125 6 38.125 10.046875 
Q 42.234375 14.109375 42.234375 20.359375 
Q 42.234375 26.703125 38.015625 30.859375 
Q 33.796875 35.015625 27.4375 35.015625 
Q 21.234375 35.015625 17.15625 30.90625 
Q 13.09375 26.8125 13.09375 20.65625 
z
" id="ArialMT-38"/>
      </defs>
      <g style="fill:#262626;" transform="translate(157.04 285.553326)scale(0.14 -0.14)">
       <use xlink:href="#ArialMT-30"/>
       <use x="55.615234" xlink:href="#ArialMT-2e"/>
       <use x="83.398438" xlink:href="#ArialMT-38"/>
      </g>
     </g>
    </g>
    <g id="ytick_6">
     <g id="line2d_13"/>
     <g id="text_14">
      <!-- 1.0 -->
      <g style="fill:#262626;" transform="translate(157.04 207.896183)scale(0.14 -0.14)">
       <use xlink:href="#ArialMT-31"/>
       <use x="55.615234" xlink:href="#ArialMT-2e"/>
       <use x="83.398438" xlink:href="#ArialMT-30"/>
      </g>
     </g>
    </g>
    <g id="ytick_7">
     <g id="line2d_14"/>
     <g id="text_15">
      <!-- 1.2 -->
      <g style="fill:#262626;" transform="translate(157.04 130.23904)scale(0.14 -0.14)">
       <use xlink:href="#ArialMT-31"/>
       <use x="55.615234" xlink:href="#ArialMT-2e"/>
       <use x="83.398438" xlink:href="#ArialMT-32"/>
      </g>
     </g>
    </g>
    <g id="text_16">
     <!-- OD600 -->
     <defs>
      <path d="M 4.828125 34.859375 
Q 4.828125 52.6875 14.390625 62.765625 
Q 23.96875 72.859375 39.109375 72.859375 
Q 49.03125 72.859375 56.984375 68.109375 
Q 64.9375 63.375 69.109375 54.90625 
Q 73.296875 46.4375 73.296875 35.6875 
Q 73.296875 24.8125 68.890625 16.21875 
Q 64.5 7.625 56.4375 3.203125 
Q 48.390625 -1.21875 39.0625 -1.21875 
Q 28.953125 -1.21875 20.984375 3.65625 
Q 13.03125 8.546875 8.921875 16.984375 
Q 4.828125 25.4375 4.828125 34.859375 
z
M 14.59375 34.71875 
Q 14.59375 21.78125 21.546875 14.328125 
Q 28.515625 6.890625 39.015625 6.890625 
Q 49.703125 6.890625 56.609375 14.40625 
Q 63.53125 21.921875 63.53125 35.75 
Q 63.53125 44.484375 60.578125 51 
Q 57.625 57.515625 51.921875 61.109375 
Q 46.234375 64.703125 39.15625 64.703125 
Q 29.109375 64.703125 21.84375 57.78125 
Q 14.59375 50.875 14.59375 34.71875 
z
" id="ArialMT-4f"/>
      <path d="M 7.71875 0 
L 7.71875 71.578125 
L 32.375 71.578125 
Q 40.71875 71.578125 45.125 70.5625 
Q 51.265625 69.140625 55.609375 65.4375 
Q 61.28125 60.640625 64.078125 53.1875 
Q 66.890625 45.75 66.890625 36.1875 
Q 66.890625 28.03125 64.984375 21.734375 
Q 63.09375 15.4375 60.109375 11.296875 
Q 57.125 7.171875 53.578125 4.796875 
Q 50.046875 2.4375 45.046875 1.21875 
Q 40.046875 0 33.546875 0 
z
M 17.1875 8.453125 
L 32.46875 8.453125 
Q 39.546875 8.453125 43.578125 9.765625 
Q 47.609375 11.078125 50 13.484375 
Q 53.375 16.84375 55.25 22.53125 
Q 57.125 28.21875 57.125 36.328125 
Q 57.125 47.5625 53.4375 53.59375 
Q 49.75 59.625 44.484375 61.671875 
Q 40.671875 63.140625 32.234375 63.140625 
L 17.1875 63.140625 
z
" id="ArialMT-44"/>
     </defs>
     <g style="fill:#262626;" transform="translate(149.065 389.882812)rotate(-90)scale(0.2 -0.2)">
      <use xlink:href="#ArialMT-4f"/>
      <use x="77.783203" xlink:href="#ArialMT-44"/>
      <use x="150" xlink:href="#ArialMT-36"/>
      <use x="205.615234" xlink:href="#ArialMT-30"/>
      <use x="261.230469" xlink:href="#ArialMT-30"/>
     </g>
    </g>
   </g>
   <g id="PolyCollection_1">
    <defs>
     <path d="M 216.472163 -125.555013 
L 216.472163 -124.855856 
L 225.589954 -126.514504 
L 234.707745 -128.089875 
L 243.826536 -129.063483 
L 252.944326 -129.635374 
L 262.062117 -129.974366 
L 271.179908 -130.113142 
L 280.298699 -130.539361 
L 289.41649 -130.681653 
L 298.53428 -131.118658 
L 307.653071 -131.210845 
L 316.770862 -131.437362 
L 325.888653 -131.178433 
L 335.006444 -131.026018 
L 344.125234 -130.712024 
L 353.243025 -130.737745 
L 362.360816 -130.472852 
L 371.478607 -130.396268 
L 380.597397 -130.136179 
L 389.715188 -130.228087 
L 398.832979 -130.10922 
L 407.95077 -129.95554 
L 417.069561 -129.838697 
L 426.187351 -129.779704 
L 435.305142 -130.024122 
L 444.422933 -129.805547 
L 453.541724 -129.631477 
L 462.659515 -128.912579 
L 471.777306 -128.423021 
L 480.895096 -127.781416 
L 490.013887 -127.534311 
L 499.131678 -127.408397 
L 508.249469 -127.262173 
L 517.368259 -126.996894 
L 526.48605 -126.497306 
L 535.603841 -126.127168 
L 544.721632 -125.592007 
L 553.840423 -125.401985 
L 562.958213 -124.907251 
L 572.076004 -124.67357 
L 581.193795 -124.181833 
L 590.312586 -123.95478 
L 599.430377 -123.617147 
L 608.548167 -123.468278 
L 617.665958 -123.364033 
L 626.784749 -123.108594 
L 635.90254 -122.852456 
L 645.020331 -122.473695 
L 654.138121 -122.19843 
L 663.256912 -122.02172 
L 672.374703 -121.791881 
L 681.492494 -121.589395 
L 690.611285 -121.216748 
L 699.729075 -120.897603 
L 708.846866 -120.608881 
L 717.965657 -120.448057 
L 727.083448 -120.393001 
L 736.201239 -120.311086 
L 745.319029 -120.237147 
L 754.43782 -120.171027 
L 763.555611 -119.998467 
L 772.673402 -119.852216 
L 781.791193 -119.520544 
L 790.909983 -119.234295 
L 800.027774 -119.303113 
L 809.145565 -119.42996 
L 818.264356 -119.515184 
L 827.382146 -119.285013 
L 836.499937 -119.126894 
L 845.617728 -118.893569 
L 854.735519 -118.949997 
L 863.85431 -118.734868 
L 872.9721 -118.509201 
L 882.089891 -118.207068 
L 891.207682 -118.088851 
L 900.326473 -117.934572 
L 909.444264 -117.578588 
L 918.562054 -117.376376 
L 927.679845 -117.402406 
L 936.798636 -117.590233 
L 945.916427 -117.63424 
L 955.034218 -117.408983 
L 964.152009 -117.258972 
L 973.269799 -117.12409 
L 982.38859 -117.242015 
L 991.506381 -117.414365 
L 1000.624172 -117.31565 
L 1009.741963 -117.281492 
L 1018.860753 -117.181183 
L 1027.978544 -117.326352 
L 1037.096335 -117.397018 
L 1046.214126 -117.337739 
L 1055.332916 -117.335367 
L 1064.450707 -117.07533 
L 1073.568498 -117.027005 
L 1082.686289 -116.775845 
L 1091.80508 -116.989165 
L 1100.92287 -116.938655 
L 1110.040661 -117.101463 
L 1119.158452 -116.981411 
L 1128.276243 -117.015166 
L 1137.395034 -116.993297 
L 1146.512824 -117.153808 
L 1155.630615 -117.39496 
L 1164.748406 -117.449305 
L 1173.866197 -117.309489 
L 1182.984988 -117.039849 
L 1192.102778 -116.873204 
L 1201.220569 -116.848387 
L 1210.33836 -116.841048 
L 1219.456151 -116.845615 
L 1228.574942 -116.976375 
L 1237.692733 -116.992845 
L 1246.810523 -116.990525 
L 1255.928314 -116.938028 
L 1265.047105 -117.071715 
L 1274.164896 -117.328727 
L 1283.282687 -117.321374 
L 1292.400477 -117.177013 
L 1292.400477 -119.406571 
L 1292.400477 -119.406571 
L 1283.282687 -119.950338 
L 1274.164896 -120.193213 
L 1265.047105 -119.811711 
L 1255.928314 -119.285312 
L 1246.810523 -119.306158 
L 1237.692733 -119.103223 
L 1228.574942 -118.998894 
L 1219.456151 -118.514868 
L 1210.33836 -118.450407 
L 1201.220569 -118.415025 
L 1192.102778 -118.569251 
L 1182.984988 -118.77795 
L 1173.866197 -119.556681 
L 1164.748406 -119.792208 
L 1155.630615 -119.824982 
L 1146.512824 -119.23779 
L 1137.395034 -118.8849 
L 1128.276243 -118.800474 
L 1119.158452 -118.594787 
L 1110.040661 -118.699078 
L 1100.92287 -118.223372 
L 1091.80508 -118.058532 
L 1082.686289 -117.605295 
L 1073.568498 -117.874007 
L 1064.450707 -117.920596 
L 1055.332916 -118.262402 
L 1046.214126 -118.182374 
L 1037.096335 -118.220167 
L 1027.978544 -118.176504 
L 1018.860753 -117.933388 
L 1009.741963 -118.022906 
L 1000.624172 -117.913247 
L 991.506381 -117.984947 
L 982.38859 -117.784112 
L 973.269799 -117.722993 
L 964.152009 -117.846968 
L 955.034218 -117.968758 
L 945.916427 -118.146886 
L 936.798636 -118.078722 
L 927.679845 -117.953763 
L 918.562054 -117.949593 
L 909.444264 -118.077423 
L 900.326473 -118.329754 
L 891.207682 -118.438646 
L 882.089891 -118.521043 
L 872.9721 -118.863897 
L 863.85431 -119.09123 
L 854.735519 -119.294586 
L 845.617728 -119.1051 
L 836.499937 -119.44989 
L 827.382146 -119.7987 
L 818.264356 -120.219986 
L 809.145565 -119.834952 
L 800.027774 -119.4937 
L 790.909983 -119.487017 
L 781.791193 -119.662397 
L 772.673402 -120.260454 
L 763.555611 -120.610346 
L 754.43782 -120.916672 
L 745.319029 -120.766424 
L 736.201239 -120.632084 
L 727.083448 -120.569583 
L 717.965657 -120.592184 
L 708.846866 -120.791603 
L 699.729075 -121.165124 
L 690.611285 -121.631179 
L 681.492494 -122.278859 
L 672.374703 -122.499173 
L 663.256912 -122.787048 
L 654.138121 -122.871353 
L 645.020331 -123.154788 
L 635.90254 -123.636728 
L 626.784749 -123.868104 
L 617.665958 -124.082922 
L 608.548167 -124.093006 
L 599.430377 -124.250451 
L 590.312586 -124.71096 
L 581.193795 -125.046921 
L 572.076004 -125.819271 
L 562.958213 -126.349219 
L 553.840423 -127.435671 
L 544.721632 -128.179691 
L 535.603841 -129.031573 
L 526.48605 -129.530763 
L 517.368259 -130.174461 
L 508.249469 -130.385911 
L 499.131678 -130.276358 
L 490.013887 -130.154758 
L 480.895096 -130.196711 
L 471.777306 -131.011178 
L 462.659515 -131.738248 
L 453.541724 -132.896064 
L 444.422933 -133.090866 
L 435.305142 -133.269204 
L 426.187351 -132.611936 
L 417.069561 -132.47313 
L 407.95077 -132.440415 
L 398.832979 -132.582263 
L 389.715188 -132.748138 
L 380.597397 -132.497061 
L 371.478607 -132.7892 
L 362.360816 -132.714774 
L 353.243025 -133.170367 
L 344.125234 -133.133532 
L 335.006444 -133.749266 
L 325.888653 -133.838451 
L 316.770862 -134.129594 
L 307.653071 -133.519139 
L 298.53428 -133.138913 
L 289.41649 -132.124159 
L 280.298699 -131.442423 
L 271.179908 -130.526899 
L 262.062117 -130.156588 
L 252.944326 -129.734108 
L 243.826536 -129.190757 
L 234.707745 -128.194894 
L 225.589954 -126.845179 
L 216.472163 -125.555013 
z
" id="m4980c195c0" style="stroke:#1f77b4;stroke-opacity:0.5;"/>
    </defs>
    <g clip-path="url(#p90fd01a74d)">
     <use style="fill:#1f77b4;fill-opacity:0.5;stroke:#1f77b4;stroke-opacity:0.5;" x="0" xlink:href="#m4980c195c0" y="720"/>
    </g>
   </g>
   <g id="PolyCollection_2">
    <defs>
     <path d="M 216.472163 -116.673083 
L 216.472163 -115.540991 
L 225.589954 -118.267934 
L 234.707745 -122.401608 
L 243.826536 -128.380004 
L 252.944326 -135.605307 
L 262.062117 -144.965196 
L 271.179908 -156.737968 
L 280.298699 -171.61994 
L 289.41649 -188.619706 
L 298.53428 -207.281891 
L 307.653071 -224.655813 
L 316.770862 -242.448114 
L 325.888653 -259.084131 
L 335.006444 -276.319707 
L 344.125234 -290.64348 
L 353.243025 -303.368405 
L 362.360816 -313.209175 
L 371.478607 -322.272611 
L 380.597397 -329.72975 
L 389.715188 -337.210742 
L 398.832979 -344.07943 
L 407.95077 -351.192997 
L 417.069561 -358.424913 
L 426.187351 -365.27478 
L 435.305142 -371.659402 
L 444.422933 -375.979833 
L 453.541724 -379.482173 
L 462.659515 -381.459714 
L 471.777306 -383.457954 
L 480.895096 -384.788416 
L 490.013887 -386.241361 
L 499.131678 -388.06417 
L 508.249469 -389.911925 
L 517.368259 -392.006764 
L 526.48605 -393.119538 
L 535.603841 -394.570801 
L 544.721632 -395.38367 
L 553.840423 -396.956772 
L 562.958213 -397.746565 
L 572.076004 -399.2136 
L 581.193795 -399.874194 
L 590.312586 -400.911304 
L 599.430377 -401.407904 
L 608.548167 -402.22045 
L 617.665958 -403.332962 
L 626.784749 -404.041648 
L 635.90254 -404.734081 
L 645.020331 -404.728062 
L 654.138121 -405.078159 
L 663.256912 -405.509256 
L 672.374703 -406.029839 
L 681.492494 -406.63207 
L 690.611285 -406.880406 
L 699.729075 -407.236409 
L 708.846866 -407.662089 
L 717.965657 -408.267057 
L 727.083448 -408.81654 
L 736.201239 -408.945541 
L 745.319029 -409.02996 
L 754.43782 -409.392478 
L 763.555611 -409.849637 
L 772.673402 -410.251282 
L 781.791193 -410.133009 
L 790.909983 -410.006213 
L 800.027774 -410.366971 
L 809.145565 -410.801805 
L 818.264356 -411.291903 
L 827.382146 -410.739172 
L 836.499937 -410.667955 
L 845.617728 -410.541066 
L 854.735519 -411.199909 
L 863.85431 -411.107219 
L 872.9721 -410.998354 
L 882.089891 -410.629667 
L 891.207682 -410.614946 
L 900.326473 -410.651878 
L 909.444264 -410.321853 
L 918.562054 -410.446604 
L 927.679845 -410.768613 
L 936.798636 -411.469725 
L 945.916427 -411.800035 
L 955.034218 -411.643477 
L 964.152009 -411.466215 
L 973.269799 -411.099945 
L 982.38859 -410.987048 
L 991.506381 -411.230999 
L 1000.624172 -411.108825 
L 1009.741963 -411.515624 
L 1018.860753 -411.414785 
L 1027.978544 -411.840314 
L 1037.096335 -411.835866 
L 1046.214126 -411.809219 
L 1055.332916 -412.339253 
L 1064.450707 -412.3218 
L 1073.568498 -413.156112 
L 1082.686289 -412.933217 
L 1091.80508 -413.722327 
L 1100.92287 -413.388186 
L 1110.040661 -413.857612 
L 1119.158452 -413.515531 
L 1128.276243 -413.742051 
L 1137.395034 -414.099077 
L 1146.512824 -414.872997 
L 1155.630615 -415.879027 
L 1164.748406 -416.092067 
L 1173.866197 -416.340892 
L 1182.984988 -416.718575 
L 1192.102778 -417.608058 
L 1201.220569 -418.472067 
L 1210.33836 -419.28034 
L 1219.456151 -420.061172 
L 1228.574942 -421.151892 
L 1237.692733 -421.363785 
L 1246.810523 -421.587666 
L 1255.928314 -421.863975 
L 1265.047105 -422.775592 
L 1274.164896 -424.110342 
L 1283.282687 -424.579142 
L 1292.400477 -425.118529 
L 1292.400477 -432.828759 
L 1292.400477 -432.828759 
L 1283.282687 -432.190346 
L 1274.164896 -431.565474 
L 1265.047105 -430.270662 
L 1255.928314 -429.378906 
L 1246.810523 -429.012387 
L 1237.692733 -428.524414 
L 1228.574942 -428.005039 
L 1219.456151 -426.757417 
L 1210.33836 -425.859994 
L 1201.220569 -424.968439 
L 1192.102778 -424.087321 
L 1182.984988 -423.16912 
L 1173.866197 -422.683947 
L 1164.748406 -422.164825 
L 1155.630615 -421.674635 
L 1146.512824 -420.564504 
L 1137.395034 -419.731351 
L 1128.276243 -419.266504 
L 1119.158452 -418.794111 
L 1110.040661 -418.782073 
L 1100.92287 -418.086643 
L 1091.80508 -418.104115 
L 1082.686289 -417.230068 
L 1073.568498 -417.171118 
L 1064.450707 -416.318549 
L 1055.332916 -416.184612 
L 1046.214126 -415.625287 
L 1037.096335 -415.486466 
L 1027.978544 -415.300816 
L 1018.860753 -414.820343 
L 1009.741963 -414.805786 
L 1000.624172 -414.410128 
L 991.506381 -414.471312 
L 982.38859 -414.234222 
L 973.269799 -414.285266 
L 964.152009 -414.505739 
L 955.034218 -414.507523 
L 945.916427 -414.480398 
L 936.798636 -414.094541 
L 927.679845 -413.492741 
L 918.562054 -413.268994 
L 909.444264 -413.175871 
L 900.326473 -413.451998 
L 891.207682 -413.344397 
L 882.089891 -413.303787 
L 872.9721 -413.601659 
L 863.85431 -413.753811 
L 854.735519 -413.919979 
L 845.617728 -413.416121 
L 836.499937 -413.63653 
L 827.382146 -413.798284 
L 818.264356 -414.360796 
L 809.145565 -413.856455 
L 800.027774 -413.387449 
L 790.909983 -412.973796 
L 781.791193 -413.056242 
L 772.673402 -413.10191 
L 763.555611 -412.681679 
L 754.43782 -412.215579 
L 745.319029 -411.885654 
L 736.201239 -411.870845 
L 727.083448 -411.829434 
L 717.965657 -411.362906 
L 708.846866 -410.785764 
L 699.729075 -410.309762 
L 690.611285 -409.884879 
L 681.492494 -409.533526 
L 672.374703 -408.96011 
L 663.256912 -408.462517 
L 654.138121 -408.229212 
L 645.020331 -408.05728 
L 635.90254 -408.288548 
L 626.784749 -407.675909 
L 617.665958 -407.05364 
L 608.548167 -406.084511 
L 599.430377 -405.440987 
L 590.312586 -405.100617 
L 581.193795 -404.099226 
L 572.076004 -403.439645 
L 562.958213 -401.942761 
L 553.840423 -401.140582 
L 544.721632 -399.583673 
L 535.603841 -398.789474 
L 526.48605 -397.384682 
L 517.368259 -396.379143 
L 508.249469 -394.414238 
L 499.131678 -392.642307 
L 490.013887 -390.679328 
L 480.895096 -389.060501 
L 471.777306 -387.586676 
L 462.659515 -385.764617 
L 453.541724 -384.230331 
L 444.422933 -381.4295 
L 435.305142 -377.96696 
L 426.187351 -372.152941 
L 417.069561 -365.591852 
L 407.95077 -358.239323 
L 398.832979 -350.979844 
L 389.715188 -343.876717 
L 380.597397 -335.776668 
L 371.478607 -327.41548 
L 362.360816 -317.049529 
L 353.243025 -306.337042 
L 344.125234 -292.803064 
L 335.006444 -278.633138 
L 325.888653 -262.115899 
L 316.770862 -246.112188 
L 307.653071 -228.406545 
L 298.53428 -210.608253 
L 289.41649 -191.472981 
L 280.298699 -173.917476 
L 271.179908 -158.56062 
L 262.062117 -146.16692 
L 252.944326 -136.209596 
L 243.826536 -128.451385 
L 234.707745 -122.960252 
L 225.589954 -119.194469 
L 216.472163 -116.673083 
z
" id="mb6d9493943" style="stroke:#1f77b4;stroke-opacity:0.5;"/>
    </defs>
    <g clip-path="url(#p90fd01a74d)">
     <use style="fill:#1f77b4;fill-opacity:0.5;stroke:#1f77b4;stroke-opacity:0.5;" x="0" xlink:href="#mb6d9493943" y="720"/>
    </g>
   </g>
   <g id="PolyCollection_3">
    <defs>
     <path d="M 216.472163 -124.332641 
L 216.472163 -123.594924 
L 225.589954 -125.584415 
L 234.707745 -127.693054 
L 243.826536 -129.296231 
L 252.944326 -130.059385 
L 262.062117 -130.243596 
L 271.179908 -130.384437 
L 280.298699 -130.94984 
L 289.41649 -131.433274 
L 298.53428 -131.89451 
L 307.653071 -131.64919 
L 316.770862 -131.244199 
L 325.888653 -130.25972 
L 335.006444 -129.479477 
L 344.125234 -128.618479 
L 353.243025 -128.415744 
L 362.360816 -128.432484 
L 371.478607 -129.103893 
L 380.597397 -129.838358 
L 389.715188 -130.928713 
L 398.832979 -132.028327 
L 407.95077 -133.388319 
L 417.069561 -135.079987 
L 426.187351 -136.84153 
L 435.305142 -138.906736 
L 444.422933 -140.745837 
L 453.541724 -143.075696 
L 462.659515 -145.270049 
L 471.777306 -147.906692 
L 480.895096 -150.409596 
L 490.013887 -153.288759 
L 499.131678 -156.68121 
L 508.249469 -160.48715 
L 517.368259 -164.684176 
L 526.48605 -168.366789 
L 535.603841 -172.199195 
L 544.721632 -175.691431 
L 553.840423 -179.783023 
L 562.958213 -183.712123 
L 572.076004 -188.178256 
L 581.193795 -192.465155 
L 590.312586 -197.063439 
L 599.430377 -201.516064 
L 608.548167 -206.293313 
L 617.665958 -211.351294 
L 626.784749 -216.551368 
L 635.90254 -221.771416 
L 645.020331 -226.89497 
L 654.138121 -232.071712 
L 663.256912 -237.666232 
L 672.374703 -243.219519 
L 681.492494 -249.157999 
L 690.611285 -254.510834 
L 699.729075 -260.036176 
L 708.846866 -265.116517 
L 717.965657 -270.595389 
L 727.083448 -275.920127 
L 736.201239 -281.455452 
L 745.319029 -286.671238 
L 754.43782 -292.075063 
L 763.555611 -297.356747 
L 772.673402 -303.121167 
L 781.791193 -308.805812 
L 790.909983 -314.746362 
L 800.027774 -320.471182 
L 809.145565 -326.071171 
L 818.264356 -331.303507 
L 827.382146 -336.101334 
L 836.499937 -340.99111 
L 845.617728 -345.738144 
L 854.735519 -350.647859 
L 863.85431 -355.029928 
L 872.9721 -359.547747 
L 882.089891 -363.938903 
L 891.207682 -368.733037 
L 900.326473 -373.149602 
L 909.444264 -377.41131 
L 918.562054 -381.264666 
L 927.679845 -385.398627 
L 936.798636 -389.391468 
L 945.916427 -393.505086 
L 955.034218 -397.105199 
L 964.152009 -400.768647 
L 973.269799 -404.011406 
L 982.38859 -407.276707 
L 991.506381 -410.249935 
L 1000.624172 -413.457673 
L 1009.741963 -416.847316 
L 1018.860753 -420.460186 
L 1027.978544 -423.592745 
L 1037.096335 -426.480985 
L 1046.214126 -428.805035 
L 1055.332916 -431.396305 
L 1064.450707 -433.404278 
L 1073.568498 -435.717831 
L 1082.686289 -437.525083 
L 1091.80508 -439.849292 
L 1100.92287 -441.67192 
L 1110.040661 -443.713777 
L 1119.158452 -445.233772 
L 1128.276243 -447.031514 
L 1137.395034 -448.745503 
L 1146.512824 -450.825622 
L 1155.630615 -452.675592 
L 1164.748406 -454.450622 
L 1173.866197 -455.873463 
L 1182.984988 -457.488123 
L 1192.102778 -458.889521 
L 1201.220569 -460.212933 
L 1210.33836 -461.242837 
L 1219.456151 -462.244113 
L 1228.574942 -463.461163 
L 1237.692733 -464.346162 
L 1246.810523 -465.184408 
L 1255.928314 -465.621897 
L 1265.047105 -466.128058 
L 1274.164896 -466.62467 
L 1283.282687 -466.964021 
L 1292.400477 -467.317679 
L 1292.400477 -476.523577 
L 1292.400477 -476.523577 
L 1283.282687 -476.094193 
L 1274.164896 -475.70659 
L 1265.047105 -475.254064 
L 1255.928314 -474.770096 
L 1246.810523 -474.396499 
L 1237.692733 -473.582368 
L 1228.574942 -472.778324 
L 1219.456151 -471.661349 
L 1210.33836 -470.796701 
L 1201.220569 -469.908908 
L 1192.102778 -468.751602 
L 1182.984988 -467.443626 
L 1173.866197 -465.885129 
L 1164.748406 -464.488589 
L 1155.630615 -462.853177 
L 1146.512824 -461.152489 
L 1137.395034 -459.269932 
L 1128.276243 -457.638193 
L 1119.158452 -456.040596 
L 1110.040661 -454.644135 
L 1100.92287 -452.848432 
L 1091.80508 -451.133342 
L 1082.686289 -449.089335 
L 1073.568498 -447.479673 
L 1064.450707 -445.528556 
L 1055.332916 -443.724857 
L 1046.214126 -441.488442 
L 1037.096335 -439.442121 
L 1027.978544 -436.946131 
L 1018.860753 -434.15302 
L 1009.741963 -430.994618 
L 1000.624172 -428.070308 
L 991.506381 -425.412777 
L 982.38859 -422.848619 
L 973.269799 -420.07176 
L 964.152009 -417.1192 
L 955.034218 -413.853904 
L 945.916427 -410.473504 
L 936.798636 -406.76964 
L 927.679845 -403.059325 
L 918.562054 -399.315401 
L 909.444264 -395.70504 
L 900.326473 -391.808433 
L 891.207682 -387.620155 
L 882.089891 -383.170934 
L 872.9721 -378.965876 
L 863.85431 -374.803354 
L 854.735519 -370.520179 
L 845.617728 -365.77668 
L 836.499937 -360.889915 
L 827.382146 -356.016463 
L 818.264356 -351.288346 
L 809.145565 -346.29151 
L 800.027774 -340.782214 
L 790.909983 -334.75492 
L 781.791193 -328.311313 
L 772.673402 -321.911644 
L 763.555611 -315.598221 
L 754.43782 -309.777091 
L 745.319029 -303.976715 
L 736.201239 -298.249315 
L 727.083448 -292.12744 
L 717.965657 -286.107766 
L 708.846866 -279.951012 
L 699.729075 -274.247797 
L 690.611285 -268.383423 
L 681.492494 -262.80817 
L 672.374703 -256.604092 
L 663.256912 -250.277993 
L 654.138121 -243.492669 
L 645.020331 -236.919453 
L 635.90254 -230.513079 
L 626.784749 -224.259284 
L 617.665958 -218.196914 
L 608.548167 -212.410938 
L 599.430377 -207.023731 
L 590.312586 -202.025914 
L 581.193795 -197.13277 
L 572.076004 -192.512824 
L 562.958213 -187.921114 
L 553.840423 -183.683272 
L 544.721632 -179.454765 
L 535.603841 -175.642916 
L 526.48605 -171.770007 
L 517.368259 -168.094605 
L 508.249469 -164.161359 
L 499.131678 -160.4626 
L 490.013887 -156.952192 
L 480.895096 -153.746055 
L 471.777306 -150.77413 
L 462.659515 -147.856131 
L 453.541724 -145.293984 
L 444.422933 -142.787529 
L 435.305142 -140.657488 
L 426.187351 -138.507636 
L 417.069561 -136.597723 
L 407.95077 -134.768933 
L 398.832979 -133.214625 
L 389.715188 -131.91981 
L 380.597397 -130.781836 
L 371.478607 -129.963159 
L 362.360816 -129.292826 
L 353.243025 -129.182295 
L 344.125234 -129.242731 
L 335.006444 -129.876633 
L 325.888653 -130.487747 
L 316.770862 -131.369196 
L 307.653071 -131.857263 
L 298.53428 -132.144757 
L 289.41649 -131.790593 
L 280.298699 -131.322727 
L 271.179908 -130.805245 
L 262.062117 -130.562114 
L 252.944326 -130.235082 
L 243.826536 -129.352335 
L 234.707745 -127.926882 
L 225.589954 -126.036178 
L 216.472163 -124.332641 
z
" id="mcdab4e6fbf" style="stroke:#ff7f0e;stroke-opacity:0.5;"/>
    </defs>
    <g clip-path="url(#p90fd01a74d)">
     <use style="fill:#ff7f0e;fill-opacity:0.5;stroke:#ff7f0e;stroke-opacity:0.5;" x="0" xlink:href="#mcdab4e6fbf" y="720"/>
    </g>
   </g>
   <g id="PolyCollection_4">
    <defs>
     <path d="M 216.472163 -122.323606 
L 216.472163 -121.498485 
L 225.589954 -123.38973 
L 234.707745 -125.755477 
L 243.826536 -128.701179 
L 252.944326 -131.860496 
L 262.062117 -135.960458 
L 271.179908 -141.123311 
L 280.298699 -148.108584 
L 289.41649 -156.014594 
L 298.53428 -164.759023 
L 307.653071 -173.344118 
L 316.770862 -183.051363 
L 325.888653 -193.47112 
L 335.006444 -205.147889 
L 344.125234 -216.634638 
L 353.243025 -228.222904 
L 362.360816 -238.988048 
L 371.478607 -250.019635 
L 380.597397 -260.8555 
L 389.715188 -272.181144 
L 398.832979 -282.999016 
L 407.95077 -293.724732 
L 417.069561 -304.038177 
L 426.187351 -314.131547 
L 435.305142 -323.960144 
L 444.422933 -333.424039 
L 453.541724 -342.80811 
L 462.659515 -351.616819 
L 471.777306 -359.835156 
L 480.895096 -367.104826 
L 490.013887 -373.423107 
L 499.131678 -379.088382 
L 508.249469 -384.321431 
L 517.368259 -389.230258 
L 526.48605 -393.304679 
L 535.603841 -396.520619 
L 544.721632 -399.067417 
L 553.840423 -401.3016 
L 562.958213 -403.254881 
L 572.076004 -405.049389 
L 581.193795 -406.372844 
L 590.312586 -407.324825 
L 599.430377 -407.577141 
L 608.548167 -407.727133 
L 617.665958 -407.891508 
L 626.784749 -408.172827 
L 635.90254 -408.368576 
L 645.020331 -408.224431 
L 654.138121 -408.054292 
L 663.256912 -407.848703 
L 672.374703 -407.694193 
L 681.492494 -407.473325 
L 690.611285 -407.146168 
L 699.729075 -406.730927 
L 708.846866 -406.195981 
L 717.965657 -405.588798 
L 727.083448 -404.91682 
L 736.201239 -404.174323 
L 745.319029 -403.379774 
L 754.43782 -402.726678 
L 763.555611 -402.222676 
L 772.673402 -401.865699 
L 781.791193 -401.412148 
L 790.909983 -400.820798 
L 800.027774 -400.176915 
L 809.145565 -399.498439 
L 818.264356 -398.8272 
L 827.382146 -398.08364 
L 836.499937 -397.394376 
L 845.617728 -396.779877 
L 854.735519 -396.094769 
L 863.85431 -395.365677 
L 872.9721 -394.587748 
L 882.089891 -393.986508 
L 891.207682 -393.392057 
L 900.326473 -392.837775 
L 909.444264 -392.171582 
L 918.562054 -391.721999 
L 927.679845 -391.273477 
L 936.798636 -390.930136 
L 945.916427 -390.33963 
L 955.034218 -389.761159 
L 964.152009 -389.113016 
L 973.269799 -388.541615 
L 982.38859 -387.918355 
L 991.506381 -387.370943 
L 1000.624172 -386.77146 
L 1009.741963 -386.376388 
L 1018.860753 -385.989036 
L 1027.978544 -385.720747 
L 1037.096335 -385.284547 
L 1046.214126 -384.826177 
L 1055.332916 -384.417004 
L 1064.450707 -383.95733 
L 1073.568498 -383.603153 
L 1082.686289 -383.080571 
L 1091.80508 -382.71424 
L 1100.92287 -382.120829 
L 1110.040661 -381.668806 
L 1119.158452 -381.168446 
L 1128.276243 -380.843116 
L 1137.395034 -380.553299 
L 1146.512824 -380.256146 
L 1155.630615 -379.960114 
L 1164.748406 -379.53731 
L 1173.866197 -379.167662 
L 1182.984988 -378.839394 
L 1192.102778 -378.60847 
L 1201.220569 -378.362773 
L 1210.33836 -378.246969 
L 1219.456151 -378.112369 
L 1228.574942 -377.978127 
L 1237.692733 -377.473836 
L 1246.810523 -376.98475 
L 1255.928314 -376.618943 
L 1265.047105 -376.478829 
L 1274.164896 -376.410957 
L 1283.282687 -376.14098 
L 1292.400477 -375.836254 
L 1292.400477 -391.099455 
L 1292.400477 -391.099455 
L 1283.282687 -391.472072 
L 1274.164896 -391.849236 
L 1265.047105 -391.781362 
L 1255.928314 -391.800874 
L 1246.810523 -392.192224 
L 1237.692733 -392.779554 
L 1228.574942 -393.412079 
L 1219.456151 -393.459039 
L 1210.33836 -393.544468 
L 1201.220569 -393.609864 
L 1192.102778 -393.819323 
L 1182.984988 -394.024139 
L 1173.866197 -394.416353 
L 1164.748406 -394.879361 
L 1155.630615 -395.388444 
L 1146.512824 -395.579926 
L 1137.395034 -395.80696 
L 1128.276243 -396.106047 
L 1119.158452 -396.507681 
L 1110.040661 -397.206696 
L 1100.92287 -397.716758 
L 1091.80508 -398.55137 
L 1082.686289 -398.90768 
L 1073.568498 -399.595255 
L 1064.450707 -399.810564 
L 1055.332916 -400.278459 
L 1046.214126 -400.58114 
L 1037.096335 -401.102114 
L 1027.978544 -401.643102 
L 1018.860753 -401.918415 
L 1009.741963 -402.363722 
L 1000.624172 -402.658937 
L 991.506381 -403.260982 
L 982.38859 -403.815869 
L 973.269799 -404.540822 
L 964.152009 -405.263707 
L 955.034218 -405.972408 
L 945.916427 -406.634294 
L 936.798636 -407.208644 
L 927.679845 -407.445574 
L 918.562054 -407.786564 
L 909.444264 -408.171792 
L 900.326473 -408.881855 
L 891.207682 -409.475172 
L 882.089891 -410.12755 
L 872.9721 -410.827072 
L 863.85431 -411.619547 
L 854.735519 -412.370258 
L 845.617728 -412.983752 
L 836.499937 -413.708837 
L 827.382146 -414.469173 
L 818.264356 -415.330527 
L 809.145565 -415.893177 
L 800.027774 -416.47663 
L 790.909983 -417.047217 
L 781.791193 -417.674649 
L 772.673402 -418.187495 
L 763.555611 -418.55963 
L 754.43782 -419.011242 
L 745.319029 -419.61576 
L 736.201239 -420.37651 
L 727.083448 -421.165584 
L 717.965657 -421.787893 
L 708.846866 -422.330469 
L 699.729075 -422.764083 
L 690.611285 -423.1211 
L 681.492494 -423.387157 
L 672.374703 -423.541629 
L 663.256912 -423.61362 
L 654.138121 -423.873974 
L 645.020331 -424.137419 
L 635.90254 -424.545499 
L 626.784749 -424.402576 
L 617.665958 -424.138139 
L 608.548167 -423.847362 
L 599.430377 -423.637113 
L 590.312586 -423.399759 
L 581.193795 -422.343438 
L 572.076004 -421.022235 
L 562.958213 -419.08273 
L 553.840423 -417.284742 
L 544.721632 -414.943624 
L 535.603841 -412.425448 
L 526.48605 -409.049157 
L 517.368259 -405.310408 
L 508.249469 -400.952151 
L 499.131678 -396.432758 
L 490.013887 -391.290745 
L 480.895096 -385.166625 
L 471.777306 -378.043836 
L 462.659515 -369.749243 
L 453.541724 -361.130394 
L 444.422933 -351.732223 
L 435.305142 -342.131288 
L 426.187351 -331.646071 
L 417.069561 -320.713768 
L 407.95077 -309.488142 
L 398.832979 -297.749373 
L 389.715188 -285.874104 
L 380.597397 -273.097993 
L 371.478607 -260.833014 
L 362.360816 -248.159757 
L 353.243025 -236.1088 
L 344.125234 -223.023667 
L 335.006444 -210.281387 
L 325.888653 -197.271812 
L 316.770862 -186.122298 
L 307.653071 -175.837144 
L 298.53428 -166.910554 
L 289.41649 -157.877969 
L 280.298699 -149.618352 
L 271.179908 -142.295295 
L 262.062117 -136.670276 
L 252.944326 -132.208538 
L 243.826536 -128.732484 
L 234.707745 -126.028629 
L 225.589954 -123.946348 
L 216.472163 -122.323606 
z
" id="m181fd90737" style="stroke:#2ca02c;stroke-opacity:0.5;"/>
    </defs>
    <g clip-path="url(#p90fd01a74d)">
     <use style="fill:#2ca02c;fill-opacity:0.5;stroke:#2ca02c;stroke-opacity:0.5;" x="0" xlink:href="#m181fd90737" y="720"/>
    </g>
   </g>
   <g id="PolyCollection_5">
    <defs>
     <path d="M 216.472163 -125.034905 
L 216.472163 -124.570053 
L 225.589954 -126.174137 
L 234.707745 -127.772154 
L 243.826536 -129.03518 
L 252.944326 -129.856788 
L 262.062117 -130.415116 
L 271.179908 -130.864728 
L 280.298699 -131.268582 
L 289.41649 -131.476285 
L 298.53428 -131.565414 
L 307.653071 -131.521818 
L 316.770862 -131.485726 
L 325.888653 -131.334986 
L 335.006444 -131.167235 
L 344.125234 -130.949103 
L 353.243025 -130.805967 
L 362.360816 -130.537772 
L 371.478607 -130.16591 
L 380.597397 -129.672246 
L 389.715188 -129.239878 
L 398.832979 -128.863185 
L 407.95077 -128.55318 
L 417.069561 -128.242336 
L 426.187351 -127.956782 
L 435.305142 -127.676816 
L 444.422933 -127.338402 
L 453.541724 -126.919736 
L 462.659515 -126.446123 
L 471.777306 -126.084299 
L 480.895096 -125.768783 
L 490.013887 -125.441324 
L 499.131678 -125.006183 
L 508.249469 -124.617714 
L 517.368259 -124.306516 
L 526.48605 -124.028722 
L 535.603841 -123.718859 
L 544.721632 -123.378317 
L 553.840423 -123.071698 
L 562.958213 -122.754624 
L 572.076004 -122.448871 
L 581.193795 -122.116927 
L 590.312586 -121.807641 
L 599.430377 -121.500473 
L 608.548167 -121.239797 
L 617.665958 -120.977219 
L 626.784749 -120.721161 
L 635.90254 -120.445005 
L 645.020331 -120.223461 
L 654.138121 -120.037747 
L 663.256912 -119.886048 
L 672.374703 -119.697737 
L 681.492494 -119.506834 
L 690.611285 -119.319608 
L 699.729075 -119.161614 
L 708.846866 -119.023146 
L 717.965657 -118.875382 
L 727.083448 -118.708107 
L 736.201239 -118.524905 
L 745.319029 -118.364812 
L 754.43782 -118.245326 
L 763.555611 -118.120823 
L 772.673402 -117.981784 
L 781.791193 -117.844225 
L 790.909983 -117.745587 
L 800.027774 -117.665007 
L 809.145565 -117.573318 
L 818.264356 -117.460949 
L 827.382146 -117.349455 
L 836.499937 -117.233939 
L 845.617728 -117.107911 
L 854.735519 -116.970473 
L 863.85431 -116.831636 
L 872.9721 -116.714876 
L 882.089891 -116.626743 
L 891.207682 -116.565046 
L 900.326473 -116.518957 
L 909.444264 -116.461514 
L 918.562054 -116.381437 
L 927.679845 -116.27143 
L 936.798636 -116.150253 
L 945.916427 -116.037442 
L 955.034218 -115.935164 
L 964.152009 -115.86516 
L 973.269799 -115.801535 
L 982.38859 -115.768403 
L 991.506381 -115.708187 
L 1000.624172 -115.644915 
L 1009.741963 -115.562813 
L 1018.860753 -115.523519 
L 1027.978544 -115.512727 
L 1037.096335 -115.50388 
L 1046.214126 -115.477359 
L 1055.332916 -115.428218 
L 1064.450707 -115.400164 
L 1073.568498 -115.337943 
L 1082.686289 -115.28184 
L 1091.80508 -115.198732 
L 1100.92287 -115.145374 
L 1110.040661 -115.117734 
L 1119.158452 -115.102999 
L 1128.276243 -115.089542 
L 1137.395034 -115.046166 
L 1146.512824 -115.00091 
L 1155.630615 -114.951648 
L 1164.748406 -114.924231 
L 1173.866197 -114.912127 
L 1182.984988 -114.916065 
L 1192.102778 -114.913746 
L 1201.220569 -114.890163 
L 1210.33836 -114.867742 
L 1219.456151 -114.844318 
L 1228.574942 -114.83258 
L 1237.692733 -114.81852 
L 1246.810523 -114.791808 
L 1255.928314 -114.770148 
L 1265.047105 -114.721978 
L 1274.164896 -114.700535 
L 1283.282687 -114.684063 
L 1292.400477 -114.690116 
L 1292.400477 -116.335372 
L 1292.400477 -116.335372 
L 1283.282687 -116.326326 
L 1274.164896 -116.340054 
L 1265.047105 -116.374696 
L 1255.928314 -116.427911 
L 1246.810523 -116.468808 
L 1237.692733 -116.467983 
L 1228.574942 -116.458238 
L 1219.456151 -116.440028 
L 1210.33836 -116.461903 
L 1201.220569 -116.491253 
L 1192.102778 -116.525913 
L 1182.984988 -116.545166 
L 1173.866197 -116.555576 
L 1164.748406 -116.57583 
L 1155.630615 -116.608813 
L 1146.512824 -116.637208 
L 1137.395034 -116.682552 
L 1128.276243 -116.710361 
L 1119.158452 -116.748675 
L 1110.040661 -116.761983 
L 1100.92287 -116.801214 
L 1091.80508 -116.831984 
L 1082.686289 -116.886933 
L 1073.568498 -116.914959 
L 1064.450707 -116.949809 
L 1055.332916 -116.95627 
L 1046.214126 -116.980472 
L 1037.096335 -117.016508 
L 1027.978544 -117.046489 
L 1018.860753 -117.052955 
L 1009.741963 -117.050332 
L 1000.624172 -117.091189 
L 991.506381 -117.144402 
L 982.38859 -117.211458 
L 973.269799 -117.249511 
L 964.152009 -117.321786 
L 955.034218 -117.385524 
L 945.916427 -117.457974 
L 936.798636 -117.494006 
L 927.679845 -117.549714 
L 918.562054 -117.620907 
L 909.444264 -117.696145 
L 900.326473 -117.731459 
L 891.207682 -117.756557 
L 882.089891 -117.807032 
L 872.9721 -117.900098 
L 863.85431 -118.009839 
L 854.735519 -118.116916 
L 845.617728 -118.225391 
L 836.499937 -118.304293 
L 827.382146 -118.391547 
L 818.264356 -118.469881 
L 809.145565 -118.577541 
L 800.027774 -118.66921 
L 790.909983 -118.75473 
L 781.791193 -118.850235 
L 772.673402 -118.960748 
L 763.555611 -119.080566 
L 754.43782 -119.176091 
L 745.319029 -119.285262 
L 736.201239 -119.409911 
L 727.083448 -119.563223 
L 717.965657 -119.693634 
L 708.846866 -119.837085 
L 699.729075 -119.989832 
L 690.611285 -120.166195 
L 681.492494 -120.334897 
L 672.374703 -120.469723 
L 663.256912 -120.607141 
L 654.138121 -120.748813 
L 645.020331 -120.955699 
L 635.90254 -121.189313 
L 626.784749 -121.441657 
L 617.665958 -121.658014 
L 608.548167 -121.859222 
L 599.430377 -122.060173 
L 590.312586 -122.305233 
L 581.193795 -122.563275 
L 572.076004 -122.833173 
L 562.958213 -123.088278 
L 553.840423 -123.375205 
L 544.721632 -123.668272 
L 535.603841 -123.989973 
L 526.48605 -124.279795 
L 517.368259 -124.562857 
L 508.249469 -124.883701 
L 499.131678 -125.267489 
L 490.013887 -125.677949 
L 480.895096 -125.999791 
L 471.777306 -126.316319 
L 462.659515 -126.681451 
L 453.541724 -127.156981 
L 444.422933 -127.583914 
L 435.305142 -127.899114 
L 426.187351 -128.134705 
L 417.069561 -128.375495 
L 407.95077 -128.672965 
L 398.832979 -128.997161 
L 389.715188 -129.392725 
L 380.597397 -129.900872 
L 371.478607 -130.520294 
L 362.360816 -131.05443 
L 353.243025 -131.491621 
L 344.125234 -131.792857 
L 335.006444 -132.12264 
L 325.888653 -132.341017 
L 316.770862 -132.492278 
L 307.653071 -132.510114 
L 298.53428 -132.50319 
L 289.41649 -132.333462 
L 280.298699 -131.986779 
L 271.179908 -131.391877 
L 262.062117 -130.71546 
L 252.944326 -129.977345 
L 243.826536 -129.062451 
L 234.707745 -127.887905 
L 225.589954 -126.450821 
L 216.472163 -125.034905 
z
" id="m65f91ecf1b" style="stroke:#d62728;stroke-opacity:0.5;"/>
    </defs>
    <g clip-path="url(#p90fd01a74d)">
     <use style="fill:#d62728;fill-opacity:0.5;stroke:#d62728;stroke-opacity:0.5;" x="0" xlink:href="#m65f91ecf1b" y="720"/>
    </g>
   </g>
   <g id="line2d_15">
    <path clip-path="url(#p90fd01a74d)" d="M 216.472163 594.794566 
L 225.589954 593.320158 
L 234.707745 591.857616 
L 243.826536 590.87288 
L 252.944326 590.315259 
L 262.062117 589.934523 
L 271.179908 589.67998 
L 280.298699 589.009108 
L 289.41649 588.597094 
L 298.53428 587.871215 
L 307.653071 587.635008 
L 316.770862 587.216522 
L 325.888653 587.491558 
L 335.006444 587.612358 
L 344.125234 588.077222 
L 353.243025 588.045944 
L 362.360816 588.406187 
L 371.478607 588.407266 
L 380.597397 588.68338 
L 389.715188 588.511887 
L 398.832979 588.654258 
L 407.95077 588.802022 
L 417.069561 588.844087 
L 426.187351 588.80418 
L 435.305142 588.353337 
L 444.422933 588.551794 
L 453.541724 588.736229 
L 462.659515 589.674586 
L 471.777306 590.282901 
L 480.895096 591.010937 
L 490.013887 591.155465 
L 499.131678 591.157622 
L 508.249469 591.175958 
L 517.368259 591.414322 
L 526.48605 591.985965 
L 535.603841 592.420629 
L 544.721632 593.114151 
L 553.840423 593.581172 
L 562.958213 594.371765 
L 572.076004 594.75358 
L 581.193795 595.385623 
L 590.312586 595.66713 
L 599.430377 596.066201 
L 608.548167 596.219358 
L 617.665958 596.276523 
L 626.784749 596.511651 
L 635.90254 596.755408 
L 645.020331 597.185758 
L 654.138121 597.465109 
L 663.256912 597.595616 
L 672.374703 597.854473 
L 681.492494 598.065873 
L 690.611285 598.576037 
L 699.729075 598.968637 
L 708.846866 599.299758 
L 717.965657 599.479879 
L 727.083448 599.518708 
L 736.201239 599.528415 
L 745.319029 599.498215 
L 754.43782 599.45615 
L 763.555611 599.695593 
L 772.673402 599.943665 
L 781.791193 600.408529 
L 790.909983 600.639344 
L 800.027774 600.601594 
L 809.145565 600.367544 
L 818.264356 600.132415 
L 827.382146 600.458143 
L 836.499937 600.711608 
L 845.617728 601.000665 
L 854.735519 600.877708 
L 863.85431 601.086951 
L 872.9721 601.313451 
L 882.089891 601.635944 
L 891.207682 601.736251 
L 900.326473 601.867837 
L 909.444264 602.171994 
L 918.562054 602.337015 
L 927.679845 602.321915 
L 936.798636 602.165523 
L 945.916427 602.109437 
L 955.034218 602.31113 
L 964.152009 602.44703 
L 973.269799 602.576458 
L 982.38859 602.486937 
L 991.506381 602.300344 
L 1000.624172 602.385551 
L 1009.741963 602.347801 
L 1018.860753 602.442715 
L 1027.978544 602.248572 
L 1037.096335 602.191408 
L 1046.214126 602.239944 
L 1055.332916 602.201115 
L 1064.450707 602.502037 
L 1073.568498 602.549494 
L 1082.686289 602.80943 
L 1091.80508 602.476151 
L 1100.92287 602.418987 
L 1110.040661 602.099729 
L 1119.158452 602.211901 
L 1128.276243 602.09218 
L 1137.395034 602.060901 
L 1146.512824 601.804201 
L 1155.630615 601.390029 
L 1164.748406 601.379243 
L 1173.866197 601.566915 
L 1182.984988 602.091101 
L 1192.102778 602.278773 
L 1201.220569 602.368294 
L 1210.33836 602.354273 
L 1219.456151 602.319758 
L 1228.574942 602.012365 
L 1237.692733 601.951966 
L 1246.810523 601.851659 
L 1255.928314 601.88833 
L 1265.047105 601.558287 
L 1274.164896 601.23903 
L 1283.282687 601.364144 
L 1292.400477 601.708208 
" style="fill:none;stroke:#1f77b4;stroke-dasharray:5.55,2.4;stroke-dashoffset:0;stroke-width:1.5;"/>
   </g>
   <g id="line2d_16">
    <path clip-path="url(#p90fd01a74d)" d="M 216.472163 603.892963 
L 225.589954 601.268798 
L 234.707745 597.31907 
L 243.826536 591.584306 
L 252.944326 584.092549 
L 262.062117 574.433942 
L 271.179908 562.350706 
L 280.298699 547.231292 
L 289.41649 529.953656 
L 298.53428 511.054928 
L 307.653071 493.468821 
L 316.770862 475.719849 
L 325.888653 459.399985 
L 335.006444 442.523577 
L 344.125234 428.276728 
L 353.243025 415.147277 
L 362.360816 404.870648 
L 371.478607 395.155955 
L 380.597397 387.246791 
L 389.715188 379.456271 
L 398.832979 372.470363 
L 407.95077 365.28384 
L 417.069561 357.991618 
L 426.187351 351.28614 
L 435.305142 345.186819 
L 444.422933 341.295334 
L 453.541724 338.143748 
L 462.659515 336.387834 
L 471.777306 334.477685 
L 480.895096 333.075541 
L 490.013887 331.539655 
L 499.131678 329.646762 
L 508.249469 327.836919 
L 517.368259 325.807047 
L 526.48605 324.74789 
L 535.603841 323.319862 
L 544.721632 322.516329 
L 553.840423 320.951323 
L 562.958213 320.155337 
L 572.076004 318.673378 
L 581.193795 318.01329 
L 590.312586 316.99404 
L 599.430377 316.575555 
L 608.548167 315.847519 
L 617.665958 314.806699 
L 626.784749 314.141221 
L 635.90254 313.488686 
L 645.020331 313.607329 
L 654.138121 313.346315 
L 663.256912 313.014113 
L 672.374703 312.505026 
L 681.492494 311.917202 
L 690.611285 311.617357 
L 699.729075 311.226915 
L 708.846866 310.776073 
L 717.965657 310.185018 
L 727.083448 309.677013 
L 736.201239 309.591807 
L 745.319029 309.542193 
L 754.43782 309.195971 
L 763.555611 308.734342 
L 772.673402 308.323404 
L 781.791193 308.405374 
L 790.909983 308.509996 
L 800.027774 308.12279 
L 809.145565 307.67087 
L 818.264356 307.17365 
L 827.382146 307.731272 
L 836.499937 307.847757 
L 845.617728 308.021406 
L 854.735519 307.440056 
L 863.85431 307.569485 
L 872.9721 307.699993 
L 882.089891 308.033273 
L 891.207682 308.020328 
L 900.326473 307.948062 
L 909.444264 308.251138 
L 918.562054 308.142201 
L 927.679845 307.869323 
L 936.798636 307.217867 
L 945.916427 306.859783 
L 955.034218 306.9245 
L 964.152009 307.014023 
L 973.269799 307.307395 
L 982.38859 307.389365 
L 991.506381 307.148845 
L 1000.624172 307.240524 
L 1009.741963 306.839295 
L 1018.860753 306.882436 
L 1027.978544 306.429435 
L 1037.096335 306.338834 
L 1046.214126 306.282747 
L 1055.332916 305.738068 
L 1064.450707 305.679826 
L 1073.568498 304.836385 
L 1082.686289 304.918357 
L 1091.80508 304.086779 
L 1100.92287 304.262586 
L 1110.040661 303.680157 
L 1119.158452 303.845179 
L 1128.276243 303.495723 
L 1137.395034 303.084786 
L 1146.512824 302.28125 
L 1155.630615 301.223169 
L 1164.748406 300.871554 
L 1173.866197 300.487581 
L 1182.984988 300.056153 
L 1192.102778 299.15231 
L 1201.220569 298.279747 
L 1210.33836 297.429833 
L 1219.456151 296.590705 
L 1228.574942 295.421535 
L 1237.692733 295.055901 
L 1246.810523 294.699974 
L 1255.928314 294.37856 
L 1265.047105 293.476873 
L 1274.164896 292.162092 
L 1283.282687 291.615256 
L 1292.400477 291.026356 
" style="fill:none;stroke:#1f77b4;stroke-dasharray:9.6,2.4,1.5,2.4;stroke-dashoffset:0;stroke-width:1.5;"/>
   </g>
   <g id="line2d_17">
    <path clip-path="url(#p90fd01a74d)" d="M 216.472163 596.036218 
L 225.589954 594.189703 
L 234.707745 592.190032 
L 243.826536 590.675717 
L 252.944326 589.852767 
L 262.062117 589.597145 
L 271.179908 589.405159 
L 280.298699 588.863716 
L 289.41649 588.388067 
L 298.53428 587.980367 
L 307.653071 588.246774 
L 316.770862 588.693302 
L 325.888653 589.626267 
L 335.006444 590.321945 
L 344.125234 591.069395 
L 353.243025 591.200981 
L 362.360816 591.137345 
L 371.478607 590.466474 
L 380.597397 589.689903 
L 389.715188 588.575739 
L 398.832979 587.378524 
L 407.95077 585.921374 
L 417.069561 584.161145 
L 426.187351 582.325417 
L 435.305142 580.217888 
L 444.422933 578.233317 
L 453.541724 575.81516 
L 462.659515 573.43691 
L 471.777306 570.659589 
L 480.895096 567.922175 
L 490.013887 564.879524 
L 499.131678 561.428095 
L 508.249469 557.675745 
L 517.368259 553.61061 
L 526.48605 549.931602 
L 535.603841 546.078944 
L 544.721632 542.426902 
L 553.840423 538.266853 
L 562.958213 534.183382 
L 572.076004 529.65446 
L 581.193795 525.201038 
L 590.312586 520.455324 
L 599.430377 515.730103 
L 608.548167 510.647874 
L 617.665958 505.225896 
L 626.784749 499.594674 
L 635.90254 493.857753 
L 645.020331 488.092788 
L 654.138121 482.217809 
L 663.256912 476.027888 
L 672.374703 470.088194 
L 681.492494 464.016916 
L 690.611285 458.552871 
L 699.729075 452.858014 
L 708.846866 447.466236 
L 717.965657 441.648423 
L 727.083448 435.976217 
L 736.201239 430.147617 
L 745.319029 424.676024 
L 754.43782 419.073923 
L 763.555611 413.522516 
L 772.673402 407.483595 
L 781.791193 401.441438 
L 790.909983 395.249359 
L 800.027774 389.373302 
L 809.145565 383.818659 
L 818.264356 378.704073 
L 827.382146 373.941102 
L 836.499937 369.059487 
L 845.617728 364.242588 
L 854.735519 359.415981 
L 863.85431 355.083359 
L 872.9721 350.743188 
L 882.089891 346.445081 
L 891.207682 341.823404 
L 900.326473 337.520982 
L 909.444264 333.441825 
L 918.562054 329.709967 
L 927.679845 325.771024 
L 936.798636 321.919446 
L 945.916427 318.010705 
L 955.034218 314.520449 
L 964.152009 311.056076 
L 973.269799 307.958417 
L 982.38859 304.937337 
L 991.506381 302.168644 
L 1000.624172 299.23601 
L 1009.741963 296.079033 
L 1018.860753 292.693397 
L 1027.978544 289.730562 
L 1037.096335 287.038447 
L 1046.214126 284.853262 
L 1055.332916 282.439419 
L 1064.450707 280.533583 
L 1073.568498 278.401248 
L 1082.686289 276.692791 
L 1091.80508 274.508683 
L 1100.92287 272.739824 
L 1110.040661 270.821044 
L 1119.158452 269.362816 
L 1128.276243 267.665147 
L 1137.395034 265.992282 
L 1146.512824 264.010944 
L 1155.630615 262.235615 
L 1164.748406 260.530394 
L 1173.866197 259.120704 
L 1182.984988 257.534125 
L 1192.102778 256.179438 
L 1201.220569 254.93908 
L 1210.33836 253.980231 
L 1219.456151 253.047269 
L 1228.574942 251.880257 
L 1237.692733 251.035735 
L 1246.810523 250.209547 
L 1255.928314 249.804004 
L 1265.047105 249.308939 
L 1274.164896 248.83437 
L 1283.282687 248.470893 
L 1292.400477 248.079372 
" style="fill:none;stroke:#ff7f0e;stroke-dasharray:9.6,2.4,1.5,2.4;stroke-dashoffset:0;stroke-width:1.5;"/>
   </g>
   <g id="line2d_18">
    <path clip-path="url(#p90fd01a74d)" d="M 216.472163 598.088954 
L 225.589954 596.331961 
L 234.707745 594.107947 
L 243.826536 591.283169 
L 252.944326 587.965483 
L 262.062117 583.684633 
L 271.179908 578.290697 
L 280.298699 571.136532 
L 289.41649 563.053718 
L 298.53428 554.165212 
L 307.653071 545.409369 
L 316.770862 535.413169 
L 325.888653 524.628534 
L 335.006444 512.285362 
L 344.125234 500.170848 
L 353.243025 487.834148 
L 362.360816 476.426098 
L 371.478607 464.573675 
L 380.597397 453.023253 
L 389.715188 440.972376 
L 398.832979 429.625806 
L 407.95077 418.393563 
L 417.069561 407.624028 
L 426.187351 397.111191 
L 435.305142 386.954284 
L 444.422933 377.421869 
L 453.541724 368.030748 
L 462.659515 359.316969 
L 471.777306 351.060504 
L 480.895096 343.864275 
L 490.013887 337.643074 
L 499.131678 332.23943 
L 508.249469 327.363209 
L 517.368259 322.729667 
L 526.48605 318.823082 
L 535.603841 315.526967 
L 544.721632 312.994479 
L 553.840423 310.706829 
L 562.958213 308.831194 
L 572.076004 306.964188 
L 581.193795 305.641859 
L 590.312586 304.637708 
L 599.430377 304.392873 
L 608.548167 304.212753 
L 617.665958 303.985176 
L 626.784749 303.712299 
L 635.90254 303.542962 
L 645.020331 303.819075 
L 654.138121 304.035867 
L 663.256912 304.268839 
L 672.374703 304.382089 
L 681.492494 304.569759 
L 690.611285 304.866366 
L 699.729075 305.252495 
L 708.846866 305.736775 
L 717.965657 306.311654 
L 727.083448 306.958798 
L 736.201239 307.724583 
L 745.319029 308.502233 
L 754.43782 309.13104 
L 763.555611 309.608847 
L 772.673402 309.973403 
L 781.791193 310.456602 
L 790.909983 311.065992 
L 800.027774 311.673228 
L 809.145565 312.304192 
L 818.264356 312.921136 
L 827.382146 313.723594 
L 836.499937 314.448394 
L 845.617728 315.118186 
L 854.735519 315.767486 
L 863.85431 316.507388 
L 872.9721 317.29259 
L 882.089891 317.942971 
L 891.207682 318.566386 
L 900.326473 319.140185 
L 909.444264 319.828313 
L 918.562054 320.245718 
L 927.679845 320.640475 
L 936.798636 320.93061 
L 945.916427 321.513038 
L 955.034218 322.133217 
L 964.152009 322.811638 
L 973.269799 323.458782 
L 982.38859 324.132888 
L 991.506381 324.684038 
L 1000.624172 325.284801 
L 1009.741963 325.629945 
L 1018.860753 326.046274 
L 1027.978544 326.318076 
L 1037.096335 326.806669 
L 1046.214126 327.296341 
L 1055.332916 327.652268 
L 1064.450707 328.116053 
L 1073.568498 328.400796 
L 1082.686289 329.005874 
L 1091.80508 329.367195 
L 1100.92287 330.081207 
L 1110.040661 330.562249 
L 1119.158452 331.161936 
L 1128.276243 331.525419 
L 1137.395034 331.819871 
L 1146.512824 332.081964 
L 1155.630615 332.325721 
L 1164.748406 332.791664 
L 1173.866197 333.207992 
L 1182.984988 333.568233 
L 1192.102778 333.786104 
L 1201.220569 334.013681 
L 1210.33836 334.104282 
L 1219.456151 334.214296 
L 1228.574942 334.304897 
L 1237.692733 334.873305 
L 1246.810523 335.411513 
L 1255.928314 335.790091 
L 1265.047105 335.869905 
L 1274.164896 335.869903 
L 1283.282687 336.193474 
L 1292.400477 336.532146 
" style="fill:none;stroke:#2ca02c;stroke-dasharray:9.6,2.4,1.5,2.4;stroke-dashoffset:0;stroke-width:1.5;"/>
   </g>
   <g id="line2d_19">
    <path clip-path="url(#p90fd01a74d)" d="M 216.472163 595.197521 
L 225.589954 593.687521 
L 234.707745 592.16997 
L 243.826536 590.951184 
L 252.944326 590.082934 
L 262.062117 589.434712 
L 271.179908 588.871698 
L 280.298699 588.372319 
L 289.41649 588.095127 
L 298.53428 587.965698 
L 307.653071 587.984034 
L 316.770862 588.010998 
L 325.888653 588.161998 
L 335.006444 588.355063 
L 344.125234 588.62902 
L 353.243025 588.851206 
L 362.360816 589.203899 
L 371.478607 589.656898 
L 380.597397 590.213441 
L 389.715188 590.683698 
L 398.832979 591.069827 
L 407.95077 591.386927 
L 417.069561 591.691085 
L 426.187351 591.954256 
L 435.305142 592.212035 
L 444.422933 592.538842 
L 453.541724 592.961642 
L 462.659515 593.436213 
L 471.777306 593.799691 
L 480.895096 594.115713 
L 490.013887 594.440364 
L 499.131678 594.863164 
L 508.249469 595.249292 
L 517.368259 595.565313 
L 526.48605 595.845741 
L 535.603841 596.145584 
L 544.721632 596.476705 
L 553.840423 596.776549 
L 562.958213 597.078549 
L 572.076004 597.358978 
L 581.193795 597.659899 
L 590.312586 597.943563 
L 599.430377 598.219677 
L 608.548167 598.450491 
L 617.665958 598.682384 
L 626.784749 598.918591 
L 635.90254 599.182841 
L 645.020331 599.41042 
L 654.138121 599.60672 
L 663.256912 599.753406 
L 672.374703 599.91627 
L 681.492494 600.079134 
L 690.611285 600.257099 
L 699.729075 600.424277 
L 708.846866 600.569884 
L 717.965657 600.715492 
L 727.083448 600.864335 
L 736.201239 601.032592 
L 745.319029 601.174963 
L 754.43782 601.289292 
L 763.555611 601.399306 
L 772.673402 601.528734 
L 781.791193 601.65277 
L 790.909983 601.749841 
L 800.027774 601.832892 
L 809.145565 601.92457 
L 818.264356 602.034585 
L 827.382146 602.129499 
L 836.499937 602.230884 
L 845.617728 602.333349 
L 854.735519 602.456306 
L 863.85431 602.579263 
L 872.9721 602.692513 
L 882.089891 602.783113 
L 891.207682 602.839199 
L 900.326473 602.874792 
L 909.444264 602.921171 
L 918.562054 602.998828 
L 927.679845 603.089428 
L 936.798636 603.17787 
L 945.916427 603.252292 
L 955.034218 603.339656 
L 964.152009 603.406527 
L 973.269799 603.474477 
L 982.38859 603.51007 
L 991.506381 603.573705 
L 1000.624172 603.631948 
L 1009.741963 603.693427 
L 1018.860753 603.711763 
L 1027.978544 603.720392 
L 1037.096335 603.739806 
L 1046.214126 603.771085 
L 1055.332916 603.807756 
L 1064.450707 603.825013 
L 1073.568498 603.873549 
L 1082.686289 603.915613 
L 1091.80508 603.984642 
L 1100.92287 604.026706 
L 1110.040661 604.060141 
L 1119.158452 604.074163 
L 1128.276243 604.100048 
L 1137.395034 604.135641 
L 1146.512824 604.180941 
L 1155.630615 604.21977 
L 1164.748406 604.24997 
L 1173.866197 604.266149 
L 1182.984988 604.269384 
L 1192.102778 604.28017 
L 1201.220569 604.309292 
L 1210.33836 604.335177 
L 1219.456151 604.357827 
L 1228.574942 604.354591 
L 1237.692733 604.356749 
L 1246.810523 604.369692 
L 1255.928314 604.40097 
L 1265.047105 604.451663 
L 1274.164896 604.479706 
L 1283.282687 604.494806 
L 1292.400477 604.487256 
" style="fill:none;stroke:#d62728;stroke-dasharray:9.6,2.4,1.5,2.4;stroke-dashoffset:0;stroke-width:1.5;"/>
   </g>
   <g id="patch_3">
    <path d="M 180 630 
L 180 86.4 
" style="fill:none;stroke:#262626;stroke-linecap:square;stroke-linejoin:miter;stroke-width:1.25;"/>
   </g>
   <g id="patch_4">
    <path d="M 1296 630 
L 1296 86.4 
" style="fill:none;stroke:#262626;stroke-linecap:square;stroke-linejoin:miter;stroke-width:1.25;"/>
   </g>
   <g id="patch_5">
    <path d="M 180 630 
L 1296 630 
" style="fill:none;stroke:#262626;stroke-linecap:square;stroke-linejoin:miter;stroke-width:1.25;"/>
   </g>
   <g id="patch_6">
    <path d="M 180 86.4 
L 1296 86.4 
" style="fill:none;stroke:#262626;stroke-linecap:square;stroke-linejoin:miter;stroke-width:1.25;"/>
   </g>
   <g id="legend_1">
    <g id="line2d_20">
     <path d="M 806.58 483.685312 
L 842.58 483.685312 
" style="fill:none;stroke:#1f77b4;stroke-dasharray:5.55,2.4;stroke-dashoffset:0;stroke-width:1.5;"/>
    </g>
    <g id="line2d_21"/>
    <g id="text_17">
     <!-- CAF vector (-) -->
     <defs>
      <path d="M 58.796875 25.09375 
L 68.265625 22.703125 
Q 65.28125 11.03125 57.546875 4.90625 
Q 49.8125 -1.21875 38.625 -1.21875 
Q 27.046875 -1.21875 19.796875 3.484375 
Q 12.546875 8.203125 8.765625 17.140625 
Q 4.984375 26.078125 4.984375 36.328125 
Q 4.984375 47.515625 9.25 55.828125 
Q 13.53125 64.15625 21.40625 68.46875 
Q 29.296875 72.796875 38.765625 72.796875 
Q 49.515625 72.796875 56.828125 67.328125 
Q 64.15625 61.859375 67.046875 51.953125 
L 57.71875 49.75 
Q 55.21875 57.5625 50.484375 61.125 
Q 45.75 64.703125 38.578125 64.703125 
Q 30.328125 64.703125 24.78125 60.734375 
Q 19.234375 56.78125 16.984375 50.109375 
Q 14.75 43.453125 14.75 36.375 
Q 14.75 27.25 17.40625 20.4375 
Q 20.0625 13.625 25.671875 10.25 
Q 31.296875 6.890625 37.84375 6.890625 
Q 45.796875 6.890625 51.3125 11.46875 
Q 56.84375 16.0625 58.796875 25.09375 
z
" id="ArialMT-43"/>
      <path d="M -0.140625 0 
L 27.34375 71.578125 
L 37.546875 71.578125 
L 66.84375 0 
L 56.0625 0 
L 47.703125 21.6875 
L 17.78125 21.6875 
L 9.90625 0 
z
M 20.515625 29.390625 
L 44.78125 29.390625 
L 37.3125 49.21875 
Q 33.890625 58.25 32.234375 64.0625 
Q 30.859375 57.171875 28.375 50.390625 
z
" id="ArialMT-41"/>
      <path d="M 8.203125 0 
L 8.203125 71.578125 
L 56.5 71.578125 
L 56.5 63.140625 
L 17.671875 63.140625 
L 17.671875 40.96875 
L 51.265625 40.96875 
L 51.265625 32.515625 
L 17.671875 32.515625 
L 17.671875 0 
z
" id="ArialMT-46"/>
      <path d="M 21 0 
L 1.265625 51.859375 
L 10.546875 51.859375 
L 21.6875 20.796875 
Q 23.484375 15.765625 25 10.359375 
Q 26.171875 14.453125 28.265625 20.21875 
L 39.796875 51.859375 
L 48.828125 51.859375 
L 29.203125 0 
z
" id="ArialMT-76"/>
      <path d="M 40.4375 19 
L 49.078125 17.875 
Q 47.65625 8.9375 41.8125 3.875 
Q 35.984375 -1.171875 27.484375 -1.171875 
Q 16.84375 -1.171875 10.375 5.78125 
Q 3.90625 12.75 3.90625 25.734375 
Q 3.90625 34.125 6.6875 40.421875 
Q 9.46875 46.734375 15.15625 49.875 
Q 20.84375 53.03125 27.546875 53.03125 
Q 35.984375 53.03125 41.359375 48.75 
Q 46.734375 44.484375 48.25 36.625 
L 39.703125 35.296875 
Q 38.484375 40.53125 35.375 43.15625 
Q 32.28125 45.796875 27.875 45.796875 
Q 21.234375 45.796875 17.078125 41.03125 
Q 12.9375 36.28125 12.9375 25.984375 
Q 12.9375 15.53125 16.9375 10.796875 
Q 20.953125 6.0625 27.390625 6.0625 
Q 32.5625 6.0625 36.03125 9.234375 
Q 39.5 12.40625 40.4375 19 
z
" id="ArialMT-63"/>
      <path d="M 25.78125 7.859375 
L 27.046875 0.09375 
Q 23.34375 -0.6875 20.40625 -0.6875 
Q 15.625 -0.6875 12.984375 0.828125 
Q 10.359375 2.34375 9.28125 4.8125 
Q 8.203125 7.28125 8.203125 15.1875 
L 8.203125 45.015625 
L 1.765625 45.015625 
L 1.765625 51.859375 
L 8.203125 51.859375 
L 8.203125 64.703125 
L 16.9375 69.96875 
L 16.9375 51.859375 
L 25.78125 51.859375 
L 25.78125 45.015625 
L 16.9375 45.015625 
L 16.9375 14.703125 
Q 16.9375 10.9375 17.40625 9.859375 
Q 17.875 8.796875 18.921875 8.15625 
Q 19.96875 7.515625 21.921875 7.515625 
Q 23.390625 7.515625 25.78125 7.859375 
z
" id="ArialMT-74"/>
      <path d="M 3.171875 21.484375 
L 3.171875 30.328125 
L 30.171875 30.328125 
L 30.171875 21.484375 
z
" id="ArialMT-2d"/>
     </defs>
     <g style="fill:#262626;" transform="translate(856.98 489.985312)scale(0.18 -0.18)">
      <use xlink:href="#ArialMT-43"/>
      <use x="72.216797" xlink:href="#ArialMT-41"/>
      <use x="138.916016" xlink:href="#ArialMT-46"/>
      <use x="200" xlink:href="#ArialMT-20"/>
      <use x="227.783203" xlink:href="#ArialMT-76"/>
      <use x="277.783203" xlink:href="#ArialMT-65"/>
      <use x="333.398438" xlink:href="#ArialMT-63"/>
      <use x="383.398438" xlink:href="#ArialMT-74"/>
      <use x="411.181641" xlink:href="#ArialMT-6f"/>
      <use x="466.796875" xlink:href="#ArialMT-72"/>
      <use x="500.097656" xlink:href="#ArialMT-20"/>
      <use x="527.880859" xlink:href="#ArialMT-28"/>
      <use x="561.181641" xlink:href="#ArialMT-2d"/>
      <use x="594.482422" xlink:href="#ArialMT-29"/>
     </g>
    </g>
    <g id="line2d_22">
     <path d="M 806.58 509.357812 
L 842.58 509.357812 
" style="fill:none;stroke:#1f77b4;stroke-dasharray:9.6,2.4,1.5,2.4;stroke-dashoffset:0;stroke-width:1.5;"/>
    </g>
    <g id="line2d_23"/>
    <g id="text_18">
     <!-- DAB2 induced -->
     <defs>
      <path d="M 7.328125 0 
L 7.328125 71.578125 
L 34.1875 71.578125 
Q 42.390625 71.578125 47.34375 69.40625 
Q 52.296875 67.234375 55.09375 62.71875 
Q 57.90625 58.203125 57.90625 53.265625 
Q 57.90625 48.6875 55.421875 44.625 
Q 52.9375 40.578125 47.90625 38.09375 
Q 54.390625 36.1875 57.875 31.59375 
Q 61.375 27 61.375 20.75 
Q 61.375 15.71875 59.25 11.390625 
Q 57.125 7.078125 54 4.734375 
Q 50.875 2.390625 46.15625 1.1875 
Q 41.453125 0 34.625 0 
z
M 16.796875 41.5 
L 32.28125 41.5 
Q 38.578125 41.5 41.3125 42.328125 
Q 44.921875 43.40625 46.75 45.890625 
Q 48.578125 48.390625 48.578125 52.15625 
Q 48.578125 55.71875 46.875 58.421875 
Q 45.171875 61.140625 41.984375 62.140625 
Q 38.8125 63.140625 31.109375 63.140625 
L 16.796875 63.140625 
z
M 16.796875 8.453125 
L 34.625 8.453125 
Q 39.203125 8.453125 41.0625 8.796875 
Q 44.34375 9.375 46.53125 10.734375 
Q 48.734375 12.109375 50.140625 14.71875 
Q 51.5625 17.328125 51.5625 20.75 
Q 51.5625 24.75 49.515625 27.703125 
Q 47.46875 30.671875 43.828125 31.859375 
Q 40.1875 33.0625 33.34375 33.0625 
L 16.796875 33.0625 
z
" id="ArialMT-42"/>
      <path d="M 6.59375 0 
L 6.59375 51.859375 
L 14.5 51.859375 
L 14.5 44.484375 
Q 20.21875 53.03125 31 53.03125 
Q 35.6875 53.03125 39.625 51.34375 
Q 43.5625 49.65625 45.515625 46.921875 
Q 47.46875 44.1875 48.25 40.4375 
Q 48.734375 37.984375 48.734375 31.890625 
L 48.734375 0 
L 39.9375 0 
L 39.9375 31.546875 
Q 39.9375 36.921875 38.90625 39.578125 
Q 37.890625 42.234375 35.28125 43.8125 
Q 32.671875 45.40625 29.15625 45.40625 
Q 23.53125 45.40625 19.453125 41.84375 
Q 15.375 38.28125 15.375 28.328125 
L 15.375 0 
z
" id="ArialMT-6e"/>
      <path d="M 40.234375 0 
L 40.234375 6.546875 
Q 35.296875 -1.171875 25.734375 -1.171875 
Q 19.53125 -1.171875 14.328125 2.25 
Q 9.125 5.671875 6.265625 11.796875 
Q 3.421875 17.921875 3.421875 25.875 
Q 3.421875 33.640625 6 39.96875 
Q 8.59375 46.296875 13.765625 49.65625 
Q 18.953125 53.03125 25.34375 53.03125 
Q 30.03125 53.03125 33.6875 51.046875 
Q 37.359375 49.078125 39.65625 45.90625 
L 39.65625 71.578125 
L 48.390625 71.578125 
L 48.390625 0 
z
M 12.453125 25.875 
Q 12.453125 15.921875 16.640625 10.984375 
Q 20.84375 6.0625 26.5625 6.0625 
Q 32.328125 6.0625 36.34375 10.765625 
Q 40.375 15.484375 40.375 25.140625 
Q 40.375 35.796875 36.265625 40.765625 
Q 32.171875 45.75 26.171875 45.75 
Q 20.3125 45.75 16.375 40.96875 
Q 12.453125 36.1875 12.453125 25.875 
z
" id="ArialMT-64"/>
     </defs>
     <g style="fill:#262626;" transform="translate(856.98 515.657812)scale(0.18 -0.18)">
      <use xlink:href="#ArialMT-44"/>
      <use x="72.216797" xlink:href="#ArialMT-41"/>
      <use x="138.916016" xlink:href="#ArialMT-42"/>
      <use x="205.615234" xlink:href="#ArialMT-32"/>
      <use x="261.230469" xlink:href="#ArialMT-20"/>
      <use x="289.013672" xlink:href="#ArialMT-69"/>
      <use x="311.230469" xlink:href="#ArialMT-6e"/>
      <use x="366.845703" xlink:href="#ArialMT-64"/>
      <use x="422.460938" xlink:href="#ArialMT-75"/>
      <use x="478.076172" xlink:href="#ArialMT-63"/>
      <use x="528.076172" xlink:href="#ArialMT-65"/>
      <use x="583.691406" xlink:href="#ArialMT-64"/>
     </g>
    </g>
    <g id="line2d_24">
     <path d="M 806.58 534.819375 
L 842.58 534.819375 
" style="fill:none;stroke:#ff7f0e;stroke-dasharray:9.6,2.4,1.5,2.4;stroke-dashoffset:0;stroke-width:1.5;"/>
    </g>
    <g id="line2d_25"/>
    <g id="text_19">
     <!-- DAB2 uninduced -->
     <g style="fill:#262626;" transform="translate(856.98 541.119375)scale(0.18 -0.18)">
      <use xlink:href="#ArialMT-44"/>
      <use x="72.216797" xlink:href="#ArialMT-41"/>
      <use x="138.916016" xlink:href="#ArialMT-42"/>
      <use x="205.615234" xlink:href="#ArialMT-32"/>
      <use x="261.230469" xlink:href="#ArialMT-20"/>
      <use x="289.013672" xlink:href="#ArialMT-75"/>
      <use x="344.628906" xlink:href="#ArialMT-6e"/>
      <use x="400.244141" xlink:href="#ArialMT-69"/>
      <use x="422.460938" xlink:href="#ArialMT-6e"/>
      <use x="478.076172" xlink:href="#ArialMT-64"/>
      <use x="533.691406" xlink:href="#ArialMT-75"/>
      <use x="589.306641" xlink:href="#ArialMT-63"/>
      <use x="639.306641" xlink:href="#ArialMT-65"/>
      <use x="694.921875" xlink:href="#ArialMT-64"/>
     </g>
    </g>
    <g id="line2d_26">
     <path d="M 806.58 560.280938 
L 842.58 560.280938 
" style="fill:none;stroke:#2ca02c;stroke-dasharray:9.6,2.4,1.5,2.4;stroke-dashoffset:0;stroke-width:1.5;"/>
    </g>
    <g id="line2d_27"/>
    <g id="text_20">
     <!-- DAB2 H524A induced -->
     <g style="fill:#262626;" transform="translate(856.98 566.580938)scale(0.18 -0.18)">
      <use xlink:href="#ArialMT-44"/>
      <use x="72.216797" xlink:href="#ArialMT-41"/>
      <use x="138.916016" xlink:href="#ArialMT-42"/>
      <use x="205.615234" xlink:href="#ArialMT-32"/>
      <use x="261.230469" xlink:href="#ArialMT-20"/>
      <use x="289.013672" xlink:href="#ArialMT-48"/>
      <use x="361.230469" xlink:href="#ArialMT-35"/>
      <use x="416.845703" xlink:href="#ArialMT-32"/>
      <use x="472.460938" xlink:href="#ArialMT-34"/>
      <use x="528.076172" xlink:href="#ArialMT-41"/>
      <use x="594.697266" xlink:href="#ArialMT-20"/>
      <use x="622.480469" xlink:href="#ArialMT-69"/>
      <use x="644.697266" xlink:href="#ArialMT-6e"/>
      <use x="700.3125" xlink:href="#ArialMT-64"/>
      <use x="755.927734" xlink:href="#ArialMT-75"/>
      <use x="811.542969" xlink:href="#ArialMT-63"/>
      <use x="861.542969" xlink:href="#ArialMT-65"/>
      <use x="917.158203" xlink:href="#ArialMT-64"/>
     </g>
    </g>
    <g id="line2d_28">
     <path d="M 806.58 585.7425 
L 842.58 585.7425 
" style="fill:none;stroke:#d62728;stroke-dasharray:9.6,2.4,1.5,2.4;stroke-dashoffset:0;stroke-width:1.5;"/>
    </g>
    <g id="line2d_29"/>
    <g id="text_21">
     <!-- DAB2 H524A uninduced -->
     <g style="fill:#262626;" transform="translate(856.98 592.0425)scale(0.18 -0.18)">
      <use xlink:href="#ArialMT-44"/>
      <use x="72.216797" xlink:href="#ArialMT-41"/>
      <use x="138.916016" xlink:href="#ArialMT-42"/>
      <use x="205.615234" xlink:href="#ArialMT-32"/>
      <use x="261.230469" xlink:href="#ArialMT-20"/>
      <use x="289.013672" xlink:href="#ArialMT-48"/>
      <use x="361.230469" xlink:href="#ArialMT-35"/>
      <use x="416.845703" xlink:href="#ArialMT-32"/>
      <use x="472.460938" xlink:href="#ArialMT-34"/>
      <use x="528.076172" xlink:href="#ArialMT-41"/>
      <use x="594.697266" xlink:href="#ArialMT-20"/>
      <use x="622.480469" xlink:href="#ArialMT-75"/>
      <use x="678.095703" xlink:href="#ArialMT-6e"/>
      <use x="733.710938" xlink:href="#ArialMT-69"/>
      <use x="755.927734" xlink:href="#ArialMT-6e"/>
      <use x="811.542969" xlink:href="#ArialMT-64"/>
      <use x="867.158203" xlink:href="#ArialMT-75"/>
      <use x="922.773438" xlink:href="#ArialMT-63"/>
      <use x="972.773438" xlink:href="#ArialMT-65"/>
      <use x="1028.388672" xlink:href="#ArialMT-64"/>
     </g>
    </g>
   </g>
  </g>
 </g>
 <defs>
  <clipPath id="p90fd01a74d">
   <rect height="543.6" width="1116" x="180" y="86.4"/>
  </clipPath>
 </defs>
</svg>
