<?xml version="1.0" encoding="utf-8" standalone="no"?>
<!DOCTYPE svg PUBLIC "-//W3C//DTD SVG 1.1//EN"
  "http://www.w3.org/Graphics/SVG/1.1/DTD/svg11.dtd">
<!-- Created with matplotlib (http://matplotlib.org/) -->
<svg height="813.72875pt" version="1.1" viewBox="0 0 717.013781 813.72875" width="717.013781pt" xmlns="http://www.w3.org/2000/svg" xmlns:xlink="http://www.w3.org/1999/xlink">
 <defs>
  <style type="text/css">
*{stroke-linecap:butt;stroke-linejoin:round;}
  </style>
 </defs>
 <g id="figure_1">
  <g id="patch_1">
   <path d="M 0 813.72875 
L 717.013781 813.72875 
L 717.013781 0 
L 0 0 
z
" style="fill:#ffffff;"/>
  </g>
  <g id="axes_1">
   <g id="patch_2">
    <path clip-path="url(#p29f989ccf1)" d="M 314.726684 126.597656 
L 263.444104 138.837656 
L 263.444104 133.797656 
L 58.313781 133.797656 
L 58.313781 119.397656 
L 263.444104 119.397656 
L 263.444104 114.357656 
z
" style="fill:#f77189;stroke:#000000;stroke-linejoin:miter;stroke-width:0.39;"/>
   </g>
   <g id="patch_3">
    <path clip-path="url(#p29f989ccf1)" d="M 693.926684 126.597656 
L 619.480233 138.837656 
L 619.480233 133.797656 
L 321.694426 133.797656 
L 321.694426 119.397656 
L 619.480233 119.397656 
L 619.480233 114.357656 
z
" style="fill:#39a7d0;stroke:#000000;stroke-linejoin:miter;stroke-width:0.39;"/>
   </g>
   <g id="patch_4">
    <path clip-path="url(#p29f989ccf1)" d="M 253.655608 270.597656 
L 214.587243 282.837656 
L 214.587243 277.797656 
L 58.313781 277.797656 
L 58.313781 263.397656 
L 214.587243 263.397656 
L 214.587243 258.357656 
z
" style="fill:#f77189;stroke:#000000;stroke-linejoin:miter;stroke-width:0.39;"/>
   </g>
   <g id="patch_5">
    <path clip-path="url(#p29f989ccf1)" d="M 340.629231 270.597656 
L 323.257761 282.837656 
L 323.257761 277.797656 
L 253.771883 277.797656 
L 253.771883 263.397656 
L 323.257761 263.397656 
L 323.257761 258.357656 
z
" style="fill:#f77189;stroke:#000000;stroke-linejoin:miter;stroke-width:0.39;"/>
   </g>
   <g id="patch_6">
    <path clip-path="url(#p29f989ccf1)" d="M 706.313781 270.597656 
L 633.269891 282.837656 
L 633.269891 277.797656 
L 341.09433 277.797656 
L 341.09433 263.397656 
L 633.269891 263.397656 
L 633.269891 258.357656 
z
" style="fill:#39a7d0;stroke:#000000;stroke-linejoin:miter;stroke-width:0.39;"/>
   </g>
   <g id="text_1">
    <!-- DAB2A -->
    <defs>
     <path d="M 19.671875 64.796875 
L 19.671875 8.109375 
L 31.59375 8.109375 
Q 46.6875 8.109375 53.6875 14.9375 
Q 60.6875 21.78125 60.6875 36.53125 
Q 60.6875 51.171875 53.6875 57.984375 
Q 46.6875 64.796875 31.59375 64.796875 
z
M 9.8125 72.90625 
L 30.078125 72.90625 
Q 51.265625 72.90625 61.171875 64.09375 
Q 71.09375 55.28125 71.09375 36.53125 
Q 71.09375 17.671875 61.125 8.828125 
Q 51.171875 0 30.078125 0 
L 9.8125 0 
z
" id="DejaVuSans-44"/>
     <path d="M 34.1875 63.1875 
L 20.796875 26.90625 
L 47.609375 26.90625 
z
M 28.609375 72.90625 
L 39.796875 72.90625 
L 67.578125 0 
L 57.328125 0 
L 50.6875 18.703125 
L 17.828125 18.703125 
L 11.1875 0 
L 0.78125 0 
z
" id="DejaVuSans-41"/>
     <path d="M 19.671875 34.8125 
L 19.671875 8.109375 
L 35.5 8.109375 
Q 43.453125 8.109375 47.28125 11.40625 
Q 51.125 14.703125 51.125 21.484375 
Q 51.125 28.328125 47.28125 31.5625 
Q 43.453125 34.8125 35.5 34.8125 
z
M 19.671875 64.796875 
L 19.671875 42.828125 
L 34.28125 42.828125 
Q 41.5 42.828125 45.03125 45.53125 
Q 48.578125 48.25 48.578125 53.8125 
Q 48.578125 59.328125 45.03125 62.0625 
Q 41.5 64.796875 34.28125 64.796875 
z
M 9.8125 72.90625 
L 35.015625 72.90625 
Q 46.296875 72.90625 52.390625 68.21875 
Q 58.5 63.53125 58.5 54.890625 
Q 58.5 48.1875 55.375 44.234375 
Q 52.25 40.28125 46.1875 39.3125 
Q 53.46875 37.75 57.5 32.78125 
Q 61.53125 27.828125 61.53125 20.40625 
Q 61.53125 10.640625 54.890625 5.3125 
Q 48.25 0 35.984375 0 
L 9.8125 0 
z
" id="DejaVuSans-42"/>
     <path d="M 19.1875 8.296875 
L 53.609375 8.296875 
L 53.609375 0 
L 7.328125 0 
L 7.328125 8.296875 
Q 12.9375 14.109375 22.625 23.890625 
Q 32.328125 33.6875 34.8125 36.53125 
Q 39.546875 41.84375 41.421875 45.53125 
Q 43.3125 49.21875 43.3125 52.78125 
Q 43.3125 58.59375 39.234375 62.25 
Q 35.15625 65.921875 28.609375 65.921875 
Q 23.96875 65.921875 18.8125 64.3125 
Q 13.671875 62.703125 7.8125 59.421875 
L 7.8125 69.390625 
Q 13.765625 71.78125 18.9375 73 
Q 24.125 74.21875 28.421875 74.21875 
Q 39.75 74.21875 46.484375 68.546875 
Q 53.21875 62.890625 53.21875 53.421875 
Q 53.21875 48.921875 51.53125 44.890625 
Q 49.859375 40.875 45.40625 35.40625 
Q 44.1875 33.984375 37.640625 27.21875 
Q 31.109375 20.453125 19.1875 8.296875 
z
" id="DejaVuSans-32"/>
    </defs>
    <g transform="translate(155.37742 82.604531)scale(0.18 -0.18)">
     <use xlink:href="#DejaVuSans-44"/>
     <use x="76.986328" xlink:href="#DejaVuSans-41"/>
     <use x="145.394531" xlink:href="#DejaVuSans-42"/>
     <use x="213.998047" xlink:href="#DejaVuSans-32"/>
     <use x="277.621094" xlink:href="#DejaVuSans-41"/>
    </g>
   </g>
   <g id="text_2">
    <!-- DAB2B -->
    <g transform="translate(476.649462 82.604531)scale(0.18 -0.18)">
     <use xlink:href="#DejaVuSans-44"/>
     <use x="76.986328" xlink:href="#DejaVuSans-41"/>
     <use x="145.394531" xlink:href="#DejaVuSans-42"/>
     <use x="213.998047" xlink:href="#DejaVuSans-32"/>
     <use x="277.621094" xlink:href="#DejaVuSans-42"/>
    </g>
   </g>
   <g id="patch_7">
    <path d="M 564.791201 109.355992 
Q 564.791201 116.977094 564.791201 124.598196 
" style="fill:none;stroke:#000000;stroke-linecap:round;stroke-width:0.39;"/>
   </g>
   <g id="text_3">
    <!-- * -->
    <defs>
     <path d="M 47.015625 60.890625 
L 29.5 51.421875 
L 47.015625 41.890625 
L 44.1875 37.109375 
L 27.78125 47.015625 
L 27.78125 28.609375 
L 22.21875 28.609375 
L 22.21875 47.015625 
L 5.8125 37.109375 
L 2.984375 41.890625 
L 20.515625 51.421875 
L 2.984375 60.890625 
L 5.8125 65.71875 
L 22.21875 55.8125 
L 22.21875 74.21875 
L 27.78125 74.21875 
L 27.78125 55.8125 
L 44.1875 65.71875 
z
" id="DejaVuSans-2a"/>
    </defs>
    <g transform="translate(560.891201 102.117656)scale(0.156 -0.156)">
     <use xlink:href="#DejaVuSans-2a"/>
    </g>
   </g>
   <g id="patch_8">
    <path d="M 571.758943 109.355992 
Q 571.758943 116.977094 571.758943 124.598196 
" style="fill:none;stroke:#000000;stroke-linecap:round;stroke-width:0.39;"/>
   </g>
   <g id="text_4">
    <!-- * -->
    <g transform="translate(567.858943 102.117656)scale(0.156 -0.156)">
     <use xlink:href="#DejaVuSans-2a"/>
    </g>
   </g>
   <g id="patch_9">
    <path d="M 488.32193 109.309024 
Q 486.595892 116.976212 484.869853 124.643399 
" style="fill:none;stroke:#000000;stroke-linecap:round;stroke-width:0.39;"/>
   </g>
   <g id="text_5">
    <!-- * -->
    <g transform="translate(487.00991 102.117656)scale(0.156 -0.156)">
     <use xlink:href="#DejaVuSans-2a"/>
    </g>
   </g>
   <g id="patch_10">
    <path d="M 481.466923 109.309024 
Q 483.192961 116.976212 484.919 124.643399 
" style="fill:none;stroke:#000000;stroke-linecap:round;stroke-width:0.39;"/>
   </g>
   <g id="text_6">
    <!-- * -->
    <g transform="translate(474.978943 102.117656)scale(0.156 -0.156)">
     <use xlink:href="#DejaVuSans-2a"/>
    </g>
   </g>
   <g id="text_7">
    <!-- DAB1A -->
    <defs>
     <path d="M 12.40625 8.296875 
L 28.515625 8.296875 
L 28.515625 63.921875 
L 10.984375 60.40625 
L 10.984375 69.390625 
L 28.421875 72.90625 
L 38.28125 72.90625 
L 38.28125 8.296875 
L 54.390625 8.296875 
L 54.390625 0 
L 12.40625 0 
z
" id="DejaVuSans-31"/>
    </defs>
    <g transform="translate(124.841882 226.604531)scale(0.18 -0.18)">
     <use xlink:href="#DejaVuSans-44"/>
     <use x="76.986328" xlink:href="#DejaVuSans-41"/>
     <use x="145.394531" xlink:href="#DejaVuSans-42"/>
     <use x="213.998047" xlink:href="#DejaVuSans-31"/>
     <use x="277.621094" xlink:href="#DejaVuSans-41"/>
    </g>
   </g>
   <g id="text_8">
    <!-- DAB1A2 -->
    <g transform="translate(260.331494 226.604531)scale(0.18 -0.18)">
     <use xlink:href="#DejaVuSans-44"/>
     <use x="76.986328" xlink:href="#DejaVuSans-41"/>
     <use x="145.394531" xlink:href="#DejaVuSans-42"/>
     <use x="213.998047" xlink:href="#DejaVuSans-31"/>
     <use x="277.621094" xlink:href="#DejaVuSans-41"/>
     <use x="346.029297" xlink:href="#DejaVuSans-32"/>
    </g>
   </g>
   <g id="text_9">
    <!-- DAB1C -->
    <defs>
     <path d="M 64.40625 67.28125 
L 64.40625 56.890625 
Q 59.421875 61.53125 53.78125 63.8125 
Q 48.140625 66.109375 41.796875 66.109375 
Q 29.296875 66.109375 22.65625 58.46875 
Q 16.015625 50.828125 16.015625 36.375 
Q 16.015625 21.96875 22.65625 14.328125 
Q 29.296875 6.6875 41.796875 6.6875 
Q 48.140625 6.6875 53.78125 8.984375 
Q 59.421875 11.28125 64.40625 15.921875 
L 64.40625 5.609375 
Q 59.234375 2.09375 53.4375 0.328125 
Q 47.65625 -1.421875 41.21875 -1.421875 
Q 24.65625 -1.421875 15.125 8.703125 
Q 5.609375 18.84375 5.609375 36.375 
Q 5.609375 53.953125 15.125 64.078125 
Q 24.65625 74.21875 41.21875 74.21875 
Q 47.75 74.21875 53.53125 72.484375 
Q 59.328125 70.75 64.40625 67.28125 
z
" id="DejaVuSans-43"/>
    </defs>
    <g transform="translate(492.433275 226.604531)scale(0.18 -0.18)">
     <use xlink:href="#DejaVuSans-44"/>
     <use x="76.986328" xlink:href="#DejaVuSans-41"/>
     <use x="145.394531" xlink:href="#DejaVuSans-42"/>
     <use x="213.998047" xlink:href="#DejaVuSans-31"/>
     <use x="277.621094" xlink:href="#DejaVuSans-43"/>
    </g>
   </g>
   <g id="patch_11">
    <path d="M 506.608457 253.309024 
Q 504.882418 260.976212 503.15638 268.643399 
" style="fill:none;stroke:#000000;stroke-linecap:round;stroke-width:0.39;"/>
   </g>
   <g id="text_10">
    <!-- * -->
    <g transform="translate(505.296437 246.117656)scale(0.156 -0.156)">
     <use xlink:href="#DejaVuSans-2a"/>
    </g>
   </g>
   <g id="patch_12">
    <path d="M 498.126768 253.309024 
Q 499.852806 260.976212 501.578845 268.643399 
" style="fill:none;stroke:#000000;stroke-linecap:round;stroke-width:0.39;"/>
   </g>
   <g id="text_11">
    <!-- * -->
    <g transform="translate(491.638788 246.117656)scale(0.156 -0.156)">
     <use xlink:href="#DejaVuSans-2a"/>
    </g>
   </g>
   <g id="patch_13">
    <path d="M 597.596753 253.355992 
Q 597.596753 260.977094 597.596753 268.598196 
" style="fill:none;stroke:#000000;stroke-linecap:round;stroke-width:0.39;"/>
   </g>
   <g id="text_12">
    <!-- * -->
    <g transform="translate(593.696753 246.117656)scale(0.156 -0.156)">
     <use xlink:href="#DejaVuSans-2a"/>
    </g>
   </g>
   <g id="patch_14">
    <path d="M 592.364382 253.355992 
Q 592.364382 260.977094 592.364382 268.598196 
" style="fill:none;stroke:#000000;stroke-linecap:round;stroke-width:0.39;"/>
   </g>
   <g id="text_13">
    <!-- * -->
    <g transform="translate(588.464382 246.117656)scale(0.156 -0.156)">
     <use xlink:href="#DejaVuSans-2a"/>
    </g>
   </g>
   <g id="text_14">
    <!-- A -->
    <g transform="translate(0 40.686438)scale(0.15 -0.15)">
     <use xlink:href="#DejaVuSans-41"/>
    </g>
   </g>
  </g>
  <g id="axes_2">
   <g id="patch_15">
    <path d="M 58.313781 702.597656 
L 346.313781 702.597656 
L 346.313781 414.597656 
L 58.313781 414.597656 
z
" style="fill:#ffffff;"/>
   </g>
   <g id="patch_16">
    <path clip-path="url(#pd245af496d)" d="M 71.40469 702.597656 
L 115.041054 702.597656 
L 115.041054 430.174262 
L 71.40469 430.174262 
z
" style="fill:#36ada4;"/>
   </g>
   <g id="patch_17">
    <path clip-path="url(#pd245af496d)" d="M 125.950145 702.597656 
L 169.586509 702.597656 
L 169.586509 700.233937 
L 125.950145 700.233937 
z
" style="fill:#f561dd;"/>
   </g>
   <g id="patch_18">
    <path clip-path="url(#pd245af496d)" d="M 180.495599 702.597656 
L 224.131963 702.597656 
L 224.131963 453.967478 
L 180.495599 453.967478 
z
" style="fill:#36ada4;"/>
   </g>
   <g id="patch_19">
    <path clip-path="url(#pd245af496d)" d="M 235.041054 702.597656 
L 278.677418 702.597656 
L 278.677418 509.791879 
L 235.041054 509.791879 
z
" style="fill:#a48cf4;"/>
   </g>
   <g id="patch_20">
    <path clip-path="url(#pd245af496d)" d="M 289.586509 702.597656 
L 333.222872 702.597656 
L 333.222872 700.031487 
L 289.586509 700.031487 
z
" style="fill:#a48cf4;"/>
   </g>
   <g id="matplotlib.axis_1">
    <g id="xtick_1">
     <g id="line2d_1">
      <defs>
       <path d="M 0 0 
L 0 3.5 
" id="m0b08201023" style="stroke:#000000;stroke-width:1.3;"/>
      </defs>
      <g>
       <use style="stroke:#000000;stroke-width:1.3;" x="93.222872" xlink:href="#m0b08201023" y="702.597656"/>
      </g>
     </g>
     <g id="text_15">
      <!-- WT vector (+) -->
      <defs>
       <path d="M 3.328125 72.90625 
L 13.28125 72.90625 
L 28.609375 11.28125 
L 43.890625 72.90625 
L 54.984375 72.90625 
L 70.3125 11.28125 
L 85.59375 72.90625 
L 95.609375 72.90625 
L 77.296875 0 
L 64.890625 0 
L 49.515625 63.28125 
L 33.984375 0 
L 21.578125 0 
z
" id="DejaVuSans-57"/>
       <path d="M -0.296875 72.90625 
L 61.375 72.90625 
L 61.375 64.59375 
L 35.5 64.59375 
L 35.5 0 
L 25.59375 0 
L 25.59375 64.59375 
L -0.296875 64.59375 
z
" id="DejaVuSans-54"/>
       <path id="DejaVuSans-20"/>
       <path d="M 2.984375 54.6875 
L 12.5 54.6875 
L 29.59375 8.796875 
L 46.6875 54.6875 
L 56.203125 54.6875 
L 35.6875 0 
L 23.484375 0 
z
" id="DejaVuSans-76"/>
       <path d="M 56.203125 29.59375 
L 56.203125 25.203125 
L 14.890625 25.203125 
Q 15.484375 15.921875 20.484375 11.0625 
Q 25.484375 6.203125 34.421875 6.203125 
Q 39.59375 6.203125 44.453125 7.46875 
Q 49.3125 8.734375 54.109375 11.28125 
L 54.109375 2.78125 
Q 49.265625 0.734375 44.1875 -0.34375 
Q 39.109375 -1.421875 33.890625 -1.421875 
Q 20.796875 -1.421875 13.15625 6.1875 
Q 5.515625 13.8125 5.515625 26.8125 
Q 5.515625 40.234375 12.765625 48.109375 
Q 20.015625 56 32.328125 56 
Q 43.359375 56 49.78125 48.890625 
Q 56.203125 41.796875 56.203125 29.59375 
z
M 47.21875 32.234375 
Q 47.125 39.59375 43.09375 43.984375 
Q 39.0625 48.390625 32.421875 48.390625 
Q 24.90625 48.390625 20.390625 44.140625 
Q 15.875 39.890625 15.1875 32.171875 
z
" id="DejaVuSans-65"/>
       <path d="M 48.78125 52.59375 
L 48.78125 44.1875 
Q 44.96875 46.296875 41.140625 47.34375 
Q 37.3125 48.390625 33.40625 48.390625 
Q 24.65625 48.390625 19.8125 42.84375 
Q 14.984375 37.3125 14.984375 27.296875 
Q 14.984375 17.28125 19.8125 11.734375 
Q 24.65625 6.203125 33.40625 6.203125 
Q 37.3125 6.203125 41.140625 7.25 
Q 44.96875 8.296875 48.78125 10.40625 
L 48.78125 2.09375 
Q 45.015625 0.34375 40.984375 -0.53125 
Q 36.96875 -1.421875 32.421875 -1.421875 
Q 20.0625 -1.421875 12.78125 6.34375 
Q 5.515625 14.109375 5.515625 27.296875 
Q 5.515625 40.671875 12.859375 48.328125 
Q 20.21875 56 33.015625 56 
Q 37.15625 56 41.109375 55.140625 
Q 45.0625 54.296875 48.78125 52.59375 
z
" id="DejaVuSans-63"/>
       <path d="M 18.3125 70.21875 
L 18.3125 54.6875 
L 36.8125 54.6875 
L 36.8125 47.703125 
L 18.3125 47.703125 
L 18.3125 18.015625 
Q 18.3125 11.328125 20.140625 9.421875 
Q 21.96875 7.515625 27.59375 7.515625 
L 36.8125 7.515625 
L 36.8125 0 
L 27.59375 0 
Q 17.1875 0 13.234375 3.875 
Q 9.28125 7.765625 9.28125 18.015625 
L 9.28125 47.703125 
L 2.6875 47.703125 
L 2.6875 54.6875 
L 9.28125 54.6875 
L 9.28125 70.21875 
z
" id="DejaVuSans-74"/>
       <path d="M 30.609375 48.390625 
Q 23.390625 48.390625 19.1875 42.75 
Q 14.984375 37.109375 14.984375 27.296875 
Q 14.984375 17.484375 19.15625 11.84375 
Q 23.34375 6.203125 30.609375 6.203125 
Q 37.796875 6.203125 41.984375 11.859375 
Q 46.1875 17.53125 46.1875 27.296875 
Q 46.1875 37.015625 41.984375 42.703125 
Q 37.796875 48.390625 30.609375 48.390625 
z
M 30.609375 56 
Q 42.328125 56 49.015625 48.375 
Q 55.71875 40.765625 55.71875 27.296875 
Q 55.71875 13.875 49.015625 6.21875 
Q 42.328125 -1.421875 30.609375 -1.421875 
Q 18.84375 -1.421875 12.171875 6.21875 
Q 5.515625 13.875 5.515625 27.296875 
Q 5.515625 40.765625 12.171875 48.375 
Q 18.84375 56 30.609375 56 
z
" id="DejaVuSans-6f"/>
       <path d="M 41.109375 46.296875 
Q 39.59375 47.171875 37.8125 47.578125 
Q 36.03125 48 33.890625 48 
Q 26.265625 48 22.1875 43.046875 
Q 18.109375 38.09375 18.109375 28.8125 
L 18.109375 0 
L 9.078125 0 
L 9.078125 54.6875 
L 18.109375 54.6875 
L 18.109375 46.1875 
Q 20.953125 51.171875 25.484375 53.578125 
Q 30.03125 56 36.53125 56 
Q 37.453125 56 38.578125 55.875 
Q 39.703125 55.765625 41.0625 55.515625 
z
" id="DejaVuSans-72"/>
       <path d="M 31 75.875 
Q 24.46875 64.65625 21.28125 53.65625 
Q 18.109375 42.671875 18.109375 31.390625 
Q 18.109375 20.125 21.3125 9.0625 
Q 24.515625 -2 31 -13.1875 
L 23.1875 -13.1875 
Q 15.875 -1.703125 12.234375 9.375 
Q 8.59375 20.453125 8.59375 31.390625 
Q 8.59375 42.28125 12.203125 53.3125 
Q 15.828125 64.359375 23.1875 75.875 
z
" id="DejaVuSans-28"/>
       <path d="M 46 62.703125 
L 46 35.5 
L 73.1875 35.5 
L 73.1875 27.203125 
L 46 27.203125 
L 46 0 
L 37.796875 0 
L 37.796875 27.203125 
L 10.59375 27.203125 
L 10.59375 35.5 
L 37.796875 35.5 
L 37.796875 62.703125 
z
" id="DejaVuSans-2b"/>
       <path d="M 8.015625 75.875 
L 15.828125 75.875 
Q 23.140625 64.359375 26.78125 53.3125 
Q 30.421875 42.28125 30.421875 31.390625 
Q 30.421875 20.453125 26.78125 9.375 
Q 23.140625 -1.703125 15.828125 -13.1875 
L 8.015625 -13.1875 
Q 14.5 -2 17.703125 9.0625 
Q 20.90625 20.125 20.90625 31.390625 
Q 20.90625 42.671875 17.703125 53.65625 
Q 14.5 64.65625 8.015625 75.875 
z
" id="DejaVuSans-29"/>
      </defs>
      <g transform="translate(96.81006 806.52875)rotate(-90)scale(0.13 -0.13)">
       <use xlink:href="#DejaVuSans-57"/>
       <use x="98.876953" xlink:href="#DejaVuSans-54"/>
       <use x="159.960938" xlink:href="#DejaVuSans-20"/>
       <use x="191.748047" xlink:href="#DejaVuSans-76"/>
       <use x="250.927734" xlink:href="#DejaVuSans-65"/>
       <use x="312.451172" xlink:href="#DejaVuSans-63"/>
       <use x="367.431641" xlink:href="#DejaVuSans-74"/>
       <use x="406.640625" xlink:href="#DejaVuSans-6f"/>
       <use x="467.822266" xlink:href="#DejaVuSans-72"/>
       <use x="508.935547" xlink:href="#DejaVuSans-20"/>
       <use x="540.722656" xlink:href="#DejaVuSans-28"/>
       <use x="579.736328" xlink:href="#DejaVuSans-2b"/>
       <use x="663.525391" xlink:href="#DejaVuSans-29"/>
      </g>
     </g>
    </g>
    <g id="xtick_2">
     <g id="line2d_2">
      <g>
       <use style="stroke:#000000;stroke-width:1.3;" x="147.768327" xlink:href="#m0b08201023" y="702.597656"/>
      </g>
     </g>
     <g id="text_16">
      <!-- vector (-) -->
      <defs>
       <path d="M 4.890625 31.390625 
L 31.203125 31.390625 
L 31.203125 23.390625 
L 4.890625 23.390625 
z
" id="DejaVuSans-2d"/>
      </defs>
      <g transform="translate(151.355514 775.399844)rotate(-90)scale(0.13 -0.13)">
       <use xlink:href="#DejaVuSans-76"/>
       <use x="59.179688" xlink:href="#DejaVuSans-65"/>
       <use x="120.703125" xlink:href="#DejaVuSans-63"/>
       <use x="175.683594" xlink:href="#DejaVuSans-74"/>
       <use x="214.892578" xlink:href="#DejaVuSans-6f"/>
       <use x="276.074219" xlink:href="#DejaVuSans-72"/>
       <use x="317.1875" xlink:href="#DejaVuSans-20"/>
       <use x="348.974609" xlink:href="#DejaVuSans-28"/>
       <use x="387.988281" xlink:href="#DejaVuSans-2d"/>
       <use x="424.072266" xlink:href="#DejaVuSans-29"/>
      </g>
     </g>
    </g>
    <g id="xtick_3">
     <g id="line2d_3">
      <g>
       <use style="stroke:#000000;stroke-width:1.3;" x="202.313781" xlink:href="#m0b08201023" y="702.597656"/>
      </g>
     </g>
     <g id="text_17">
      <!-- HCAII (+) -->
      <defs>
       <path d="M 9.8125 72.90625 
L 19.671875 72.90625 
L 19.671875 43.015625 
L 55.515625 43.015625 
L 55.515625 72.90625 
L 65.375 72.90625 
L 65.375 0 
L 55.515625 0 
L 55.515625 34.71875 
L 19.671875 34.71875 
L 19.671875 0 
L 9.8125 0 
z
" id="DejaVuSans-48"/>
       <path d="M 9.8125 72.90625 
L 19.671875 72.90625 
L 19.671875 0 
L 9.8125 0 
z
" id="DejaVuSans-49"/>
      </defs>
      <g transform="translate(205.900969 775.78375)rotate(-90)scale(0.13 -0.13)">
       <use xlink:href="#DejaVuSans-48"/>
       <use x="75.195312" xlink:href="#DejaVuSans-43"/>
       <use x="145.019531" xlink:href="#DejaVuSans-41"/>
       <use x="213.427734" xlink:href="#DejaVuSans-49"/>
       <use x="242.919922" xlink:href="#DejaVuSans-49"/>
       <use x="272.412109" xlink:href="#DejaVuSans-20"/>
       <use x="304.199219" xlink:href="#DejaVuSans-28"/>
       <use x="343.212891" xlink:href="#DejaVuSans-2b"/>
       <use x="427.001953" xlink:href="#DejaVuSans-29"/>
      </g>
     </g>
    </g>
    <g id="xtick_4">
     <g id="line2d_4">
      <g>
       <use style="stroke:#000000;stroke-width:1.3;" x="256.859236" xlink:href="#m0b08201023" y="702.597656"/>
      </g>
     </g>
     <g id="text_18">
      <!-- DAB2 -->
      <g transform="translate(260.446423 751.288906)rotate(-90)scale(0.13 -0.13)">
       <use xlink:href="#DejaVuSans-44"/>
       <use x="76.986328" xlink:href="#DejaVuSans-41"/>
       <use x="145.394531" xlink:href="#DejaVuSans-42"/>
       <use x="213.998047" xlink:href="#DejaVuSans-32"/>
      </g>
     </g>
    </g>
    <g id="xtick_5">
     <g id="line2d_5">
      <g>
       <use style="stroke:#000000;stroke-width:1.3;" x="311.40469" xlink:href="#m0b08201023" y="702.597656"/>
      </g>
     </g>
     <g id="text_19">
      <!-- DAB2 C539A -->
      <defs>
       <path d="M 10.796875 72.90625 
L 49.515625 72.90625 
L 49.515625 64.59375 
L 19.828125 64.59375 
L 19.828125 46.734375 
Q 21.96875 47.46875 24.109375 47.828125 
Q 26.265625 48.1875 28.421875 48.1875 
Q 40.625 48.1875 47.75 41.5 
Q 54.890625 34.8125 54.890625 23.390625 
Q 54.890625 11.625 47.5625 5.09375 
Q 40.234375 -1.421875 26.90625 -1.421875 
Q 22.3125 -1.421875 17.546875 -0.640625 
Q 12.796875 0.140625 7.71875 1.703125 
L 7.71875 11.625 
Q 12.109375 9.234375 16.796875 8.0625 
Q 21.484375 6.890625 26.703125 6.890625 
Q 35.15625 6.890625 40.078125 11.328125 
Q 45.015625 15.765625 45.015625 23.390625 
Q 45.015625 31 40.078125 35.4375 
Q 35.15625 39.890625 26.703125 39.890625 
Q 22.75 39.890625 18.8125 39.015625 
Q 14.890625 38.140625 10.796875 36.28125 
z
" id="DejaVuSans-35"/>
       <path d="M 40.578125 39.3125 
Q 47.65625 37.796875 51.625 33 
Q 55.609375 28.21875 55.609375 21.1875 
Q 55.609375 10.40625 48.1875 4.484375 
Q 40.765625 -1.421875 27.09375 -1.421875 
Q 22.515625 -1.421875 17.65625 -0.515625 
Q 12.796875 0.390625 7.625 2.203125 
L 7.625 11.71875 
Q 11.71875 9.328125 16.59375 8.109375 
Q 21.484375 6.890625 26.8125 6.890625 
Q 36.078125 6.890625 40.9375 10.546875 
Q 45.796875 14.203125 45.796875 21.1875 
Q 45.796875 27.640625 41.28125 31.265625 
Q 36.765625 34.90625 28.71875 34.90625 
L 20.21875 34.90625 
L 20.21875 43.015625 
L 29.109375 43.015625 
Q 36.375 43.015625 40.234375 45.921875 
Q 44.09375 48.828125 44.09375 54.296875 
Q 44.09375 59.90625 40.109375 62.90625 
Q 36.140625 65.921875 28.71875 65.921875 
Q 24.65625 65.921875 20.015625 65.03125 
Q 15.375 64.15625 9.8125 62.3125 
L 9.8125 71.09375 
Q 15.4375 72.65625 20.34375 73.4375 
Q 25.25 74.21875 29.59375 74.21875 
Q 40.828125 74.21875 47.359375 69.109375 
Q 53.90625 64.015625 53.90625 55.328125 
Q 53.90625 49.265625 50.4375 45.09375 
Q 46.96875 40.921875 40.578125 39.3125 
z
" id="DejaVuSans-33"/>
       <path d="M 10.984375 1.515625 
L 10.984375 10.5 
Q 14.703125 8.734375 18.5 7.8125 
Q 22.3125 6.890625 25.984375 6.890625 
Q 35.75 6.890625 40.890625 13.453125 
Q 46.046875 20.015625 46.78125 33.40625 
Q 43.953125 29.203125 39.59375 26.953125 
Q 35.25 24.703125 29.984375 24.703125 
Q 19.046875 24.703125 12.671875 31.3125 
Q 6.296875 37.9375 6.296875 49.421875 
Q 6.296875 60.640625 12.9375 67.421875 
Q 19.578125 74.21875 30.609375 74.21875 
Q 43.265625 74.21875 49.921875 64.515625 
Q 56.59375 54.828125 56.59375 36.375 
Q 56.59375 19.140625 48.40625 8.859375 
Q 40.234375 -1.421875 26.421875 -1.421875 
Q 22.703125 -1.421875 18.890625 -0.6875 
Q 15.09375 0.046875 10.984375 1.515625 
z
M 30.609375 32.421875 
Q 37.25 32.421875 41.125 36.953125 
Q 45.015625 41.5 45.015625 49.421875 
Q 45.015625 57.28125 41.125 61.84375 
Q 37.25 66.40625 30.609375 66.40625 
Q 23.96875 66.40625 20.09375 61.84375 
Q 16.21875 57.28125 16.21875 49.421875 
Q 16.21875 41.5 20.09375 36.953125 
Q 23.96875 32.421875 30.609375 32.421875 
z
" id="DejaVuSans-39"/>
      </defs>
      <g transform="translate(314.991878 798.204687)rotate(-90)scale(0.13 -0.13)">
       <use xlink:href="#DejaVuSans-44"/>
       <use x="76.986328" xlink:href="#DejaVuSans-41"/>
       <use x="145.394531" xlink:href="#DejaVuSans-42"/>
       <use x="213.998047" xlink:href="#DejaVuSans-32"/>
       <use x="277.621094" xlink:href="#DejaVuSans-20"/>
       <use x="309.408203" xlink:href="#DejaVuSans-43"/>
       <use x="379.232422" xlink:href="#DejaVuSans-35"/>
       <use x="442.855469" xlink:href="#DejaVuSans-33"/>
       <use x="506.478516" xlink:href="#DejaVuSans-39"/>
       <use x="570.101562" xlink:href="#DejaVuSans-41"/>
      </g>
     </g>
    </g>
   </g>
   <g id="matplotlib.axis_2">
    <g id="ytick_1">
     <g id="line2d_6">
      <defs>
       <path d="M 0 0 
L -3.5 0 
" id="m3fdf5fc1f5" style="stroke:#000000;stroke-width:1.3;"/>
      </defs>
      <g>
       <use style="stroke:#000000;stroke-width:1.3;" x="58.313781" xlink:href="#m3fdf5fc1f5" y="702.597656"/>
      </g>
     </g>
     <g id="text_20">
      <!-- 0.0 -->
      <defs>
       <path d="M 31.78125 66.40625 
Q 24.171875 66.40625 20.328125 58.90625 
Q 16.5 51.421875 16.5 36.375 
Q 16.5 21.390625 20.328125 13.890625 
Q 24.171875 6.390625 31.78125 6.390625 
Q 39.453125 6.390625 43.28125 13.890625 
Q 47.125 21.390625 47.125 36.375 
Q 47.125 51.421875 43.28125 58.90625 
Q 39.453125 66.40625 31.78125 66.40625 
z
M 31.78125 74.21875 
Q 44.046875 74.21875 50.515625 64.515625 
Q 56.984375 54.828125 56.984375 36.375 
Q 56.984375 17.96875 50.515625 8.265625 
Q 44.046875 -1.421875 31.78125 -1.421875 
Q 19.53125 -1.421875 13.0625 8.265625 
Q 6.59375 17.96875 6.59375 36.375 
Q 6.59375 54.828125 13.0625 64.515625 
Q 19.53125 74.21875 31.78125 74.21875 
z
" id="DejaVuSans-30"/>
       <path d="M 10.6875 12.40625 
L 21 12.40625 
L 21 0 
L 10.6875 0 
z
" id="DejaVuSans-2e"/>
      </defs>
      <g transform="translate(25.039719 707.536641)scale(0.13 -0.13)">
       <use xlink:href="#DejaVuSans-30"/>
       <use x="63.623047" xlink:href="#DejaVuSans-2e"/>
       <use x="95.410156" xlink:href="#DejaVuSans-30"/>
      </g>
     </g>
    </g>
    <g id="ytick_2">
     <g id="line2d_7">
      <g>
       <use style="stroke:#000000;stroke-width:1.3;" x="58.313781" xlink:href="#m3fdf5fc1f5" y="652.712627"/>
      </g>
     </g>
     <g id="text_21">
      <!-- 0.2 -->
      <g transform="translate(25.039719 657.651611)scale(0.13 -0.13)">
       <use xlink:href="#DejaVuSans-30"/>
       <use x="63.623047" xlink:href="#DejaVuSans-2e"/>
       <use x="95.410156" xlink:href="#DejaVuSans-32"/>
      </g>
     </g>
    </g>
    <g id="ytick_3">
     <g id="line2d_8">
      <g>
       <use style="stroke:#000000;stroke-width:1.3;" x="58.313781" xlink:href="#m3fdf5fc1f5" y="602.827597"/>
      </g>
     </g>
     <g id="text_22">
      <!-- 0.4 -->
      <defs>
       <path d="M 37.796875 64.3125 
L 12.890625 25.390625 
L 37.796875 25.390625 
z
M 35.203125 72.90625 
L 47.609375 72.90625 
L 47.609375 25.390625 
L 58.015625 25.390625 
L 58.015625 17.1875 
L 47.609375 17.1875 
L 47.609375 0 
L 37.796875 0 
L 37.796875 17.1875 
L 4.890625 17.1875 
L 4.890625 26.703125 
z
" id="DejaVuSans-34"/>
      </defs>
      <g transform="translate(25.039719 607.766582)scale(0.13 -0.13)">
       <use xlink:href="#DejaVuSans-30"/>
       <use x="63.623047" xlink:href="#DejaVuSans-2e"/>
       <use x="95.410156" xlink:href="#DejaVuSans-34"/>
      </g>
     </g>
    </g>
    <g id="ytick_4">
     <g id="line2d_9">
      <g>
       <use style="stroke:#000000;stroke-width:1.3;" x="58.313781" xlink:href="#m3fdf5fc1f5" y="552.942568"/>
      </g>
     </g>
     <g id="text_23">
      <!-- 0.6 -->
      <defs>
       <path d="M 33.015625 40.375 
Q 26.375 40.375 22.484375 35.828125 
Q 18.609375 31.296875 18.609375 23.390625 
Q 18.609375 15.53125 22.484375 10.953125 
Q 26.375 6.390625 33.015625 6.390625 
Q 39.65625 6.390625 43.53125 10.953125 
Q 47.40625 15.53125 47.40625 23.390625 
Q 47.40625 31.296875 43.53125 35.828125 
Q 39.65625 40.375 33.015625 40.375 
z
M 52.59375 71.296875 
L 52.59375 62.3125 
Q 48.875 64.0625 45.09375 64.984375 
Q 41.3125 65.921875 37.59375 65.921875 
Q 27.828125 65.921875 22.671875 59.328125 
Q 17.53125 52.734375 16.796875 39.40625 
Q 19.671875 43.65625 24.015625 45.921875 
Q 28.375 48.1875 33.59375 48.1875 
Q 44.578125 48.1875 50.953125 41.515625 
Q 57.328125 34.859375 57.328125 23.390625 
Q 57.328125 12.15625 50.6875 5.359375 
Q 44.046875 -1.421875 33.015625 -1.421875 
Q 20.359375 -1.421875 13.671875 8.265625 
Q 6.984375 17.96875 6.984375 36.375 
Q 6.984375 53.65625 15.1875 63.9375 
Q 23.390625 74.21875 37.203125 74.21875 
Q 40.921875 74.21875 44.703125 73.484375 
Q 48.484375 72.75 52.59375 71.296875 
z
" id="DejaVuSans-36"/>
      </defs>
      <g transform="translate(25.039719 557.881552)scale(0.13 -0.13)">
       <use xlink:href="#DejaVuSans-30"/>
       <use x="63.623047" xlink:href="#DejaVuSans-2e"/>
       <use x="95.410156" xlink:href="#DejaVuSans-36"/>
      </g>
     </g>
    </g>
    <g id="ytick_5">
     <g id="line2d_10">
      <g>
       <use style="stroke:#000000;stroke-width:1.3;" x="58.313781" xlink:href="#m3fdf5fc1f5" y="503.057538"/>
      </g>
     </g>
     <g id="text_24">
      <!-- 0.8 -->
      <defs>
       <path d="M 31.78125 34.625 
Q 24.75 34.625 20.71875 30.859375 
Q 16.703125 27.09375 16.703125 20.515625 
Q 16.703125 13.921875 20.71875 10.15625 
Q 24.75 6.390625 31.78125 6.390625 
Q 38.8125 6.390625 42.859375 10.171875 
Q 46.921875 13.96875 46.921875 20.515625 
Q 46.921875 27.09375 42.890625 30.859375 
Q 38.875 34.625 31.78125 34.625 
z
M 21.921875 38.8125 
Q 15.578125 40.375 12.03125 44.71875 
Q 8.5 49.078125 8.5 55.328125 
Q 8.5 64.0625 14.71875 69.140625 
Q 20.953125 74.21875 31.78125 74.21875 
Q 42.671875 74.21875 48.875 69.140625 
Q 55.078125 64.0625 55.078125 55.328125 
Q 55.078125 49.078125 51.53125 44.71875 
Q 48 40.375 41.703125 38.8125 
Q 48.828125 37.15625 52.796875 32.3125 
Q 56.78125 27.484375 56.78125 20.515625 
Q 56.78125 9.90625 50.3125 4.234375 
Q 43.84375 -1.421875 31.78125 -1.421875 
Q 19.734375 -1.421875 13.25 4.234375 
Q 6.78125 9.90625 6.78125 20.515625 
Q 6.78125 27.484375 10.78125 32.3125 
Q 14.796875 37.15625 21.921875 38.8125 
z
M 18.3125 54.390625 
Q 18.3125 48.734375 21.84375 45.5625 
Q 25.390625 42.390625 31.78125 42.390625 
Q 38.140625 42.390625 41.71875 45.5625 
Q 45.3125 48.734375 45.3125 54.390625 
Q 45.3125 60.0625 41.71875 63.234375 
Q 38.140625 66.40625 31.78125 66.40625 
Q 25.390625 66.40625 21.84375 63.234375 
Q 18.3125 60.0625 18.3125 54.390625 
z
" id="DejaVuSans-38"/>
      </defs>
      <g transform="translate(25.039719 507.996523)scale(0.13 -0.13)">
       <use xlink:href="#DejaVuSans-30"/>
       <use x="63.623047" xlink:href="#DejaVuSans-2e"/>
       <use x="95.410156" xlink:href="#DejaVuSans-38"/>
      </g>
     </g>
    </g>
    <g id="ytick_6">
     <g id="line2d_11">
      <g>
       <use style="stroke:#000000;stroke-width:1.3;" x="58.313781" xlink:href="#m3fdf5fc1f5" y="453.172509"/>
      </g>
     </g>
     <g id="text_25">
      <!-- 1.0 -->
      <g transform="translate(25.039719 458.111493)scale(0.13 -0.13)">
       <use xlink:href="#DejaVuSans-31"/>
       <use x="63.623047" xlink:href="#DejaVuSans-2e"/>
       <use x="95.410156" xlink:href="#DejaVuSans-30"/>
      </g>
     </g>
    </g>
    <g id="text_26">
     <!-- Growth yield (OD600) -->
     <defs>
      <path d="M 59.515625 10.40625 
L 59.515625 29.984375 
L 43.40625 29.984375 
L 43.40625 38.09375 
L 69.28125 38.09375 
L 69.28125 6.78125 
Q 63.578125 2.734375 56.6875 0.65625 
Q 49.8125 -1.421875 42 -1.421875 
Q 24.90625 -1.421875 15.25 8.5625 
Q 5.609375 18.5625 5.609375 36.375 
Q 5.609375 54.25 15.25 64.234375 
Q 24.90625 74.21875 42 74.21875 
Q 49.125 74.21875 55.546875 72.453125 
Q 61.96875 70.703125 67.390625 67.28125 
L 67.390625 56.78125 
Q 61.921875 61.421875 55.765625 63.765625 
Q 49.609375 66.109375 42.828125 66.109375 
Q 29.4375 66.109375 22.71875 58.640625 
Q 16.015625 51.171875 16.015625 36.375 
Q 16.015625 21.625 22.71875 14.15625 
Q 29.4375 6.6875 42.828125 6.6875 
Q 48.046875 6.6875 52.140625 7.59375 
Q 56.25 8.5 59.515625 10.40625 
z
" id="DejaVuSans-47"/>
      <path d="M 4.203125 54.6875 
L 13.1875 54.6875 
L 24.421875 12.015625 
L 35.59375 54.6875 
L 46.1875 54.6875 
L 57.421875 12.015625 
L 68.609375 54.6875 
L 77.59375 54.6875 
L 63.28125 0 
L 52.6875 0 
L 40.921875 44.828125 
L 29.109375 0 
L 18.5 0 
z
" id="DejaVuSans-77"/>
      <path d="M 54.890625 33.015625 
L 54.890625 0 
L 45.90625 0 
L 45.90625 32.71875 
Q 45.90625 40.484375 42.875 44.328125 
Q 39.84375 48.1875 33.796875 48.1875 
Q 26.515625 48.1875 22.3125 43.546875 
Q 18.109375 38.921875 18.109375 30.90625 
L 18.109375 0 
L 9.078125 0 
L 9.078125 75.984375 
L 18.109375 75.984375 
L 18.109375 46.1875 
Q 21.34375 51.125 25.703125 53.5625 
Q 30.078125 56 35.796875 56 
Q 45.21875 56 50.046875 50.171875 
Q 54.890625 44.34375 54.890625 33.015625 
z
" id="DejaVuSans-68"/>
      <path d="M 32.171875 -5.078125 
Q 28.375 -14.84375 24.75 -17.8125 
Q 21.140625 -20.796875 15.09375 -20.796875 
L 7.90625 -20.796875 
L 7.90625 -13.28125 
L 13.1875 -13.28125 
Q 16.890625 -13.28125 18.9375 -11.515625 
Q 21 -9.765625 23.484375 -3.21875 
L 25.09375 0.875 
L 2.984375 54.6875 
L 12.5 54.6875 
L 29.59375 11.921875 
L 46.6875 54.6875 
L 56.203125 54.6875 
z
" id="DejaVuSans-79"/>
      <path d="M 9.421875 54.6875 
L 18.40625 54.6875 
L 18.40625 0 
L 9.421875 0 
z
M 9.421875 75.984375 
L 18.40625 75.984375 
L 18.40625 64.59375 
L 9.421875 64.59375 
z
" id="DejaVuSans-69"/>
      <path d="M 9.421875 75.984375 
L 18.40625 75.984375 
L 18.40625 0 
L 9.421875 0 
z
" id="DejaVuSans-6c"/>
      <path d="M 45.40625 46.390625 
L 45.40625 75.984375 
L 54.390625 75.984375 
L 54.390625 0 
L 45.40625 0 
L 45.40625 8.203125 
Q 42.578125 3.328125 38.25 0.953125 
Q 33.9375 -1.421875 27.875 -1.421875 
Q 17.96875 -1.421875 11.734375 6.484375 
Q 5.515625 14.40625 5.515625 27.296875 
Q 5.515625 40.1875 11.734375 48.09375 
Q 17.96875 56 27.875 56 
Q 33.9375 56 38.25 53.625 
Q 42.578125 51.265625 45.40625 46.390625 
z
M 14.796875 27.296875 
Q 14.796875 17.390625 18.875 11.75 
Q 22.953125 6.109375 30.078125 6.109375 
Q 37.203125 6.109375 41.296875 11.75 
Q 45.40625 17.390625 45.40625 27.296875 
Q 45.40625 37.203125 41.296875 42.84375 
Q 37.203125 48.484375 30.078125 48.484375 
Q 22.953125 48.484375 18.875 42.84375 
Q 14.796875 37.203125 14.796875 27.296875 
z
" id="DejaVuSans-64"/>
      <path d="M 39.40625 66.21875 
Q 28.65625 66.21875 22.328125 58.203125 
Q 16.015625 50.203125 16.015625 36.375 
Q 16.015625 22.609375 22.328125 14.59375 
Q 28.65625 6.59375 39.40625 6.59375 
Q 50.140625 6.59375 56.421875 14.59375 
Q 62.703125 22.609375 62.703125 36.375 
Q 62.703125 50.203125 56.421875 58.203125 
Q 50.140625 66.21875 39.40625 66.21875 
z
M 39.40625 74.21875 
Q 54.734375 74.21875 63.90625 63.9375 
Q 73.09375 53.65625 73.09375 36.375 
Q 73.09375 19.140625 63.90625 8.859375 
Q 54.734375 -1.421875 39.40625 -1.421875 
Q 24.03125 -1.421875 14.8125 8.828125 
Q 5.609375 19.09375 5.609375 36.375 
Q 5.609375 53.65625 14.8125 63.9375 
Q 24.03125 74.21875 39.40625 74.21875 
z
" id="DejaVuSans-4f"/>
     </defs>
     <g transform="translate(18.065766 636.680125)rotate(-90)scale(0.143 -0.143)">
      <use xlink:href="#DejaVuSans-47"/>
      <use x="77.490234" xlink:href="#DejaVuSans-72"/>
      <use x="118.572266" xlink:href="#DejaVuSans-6f"/>
      <use x="179.753906" xlink:href="#DejaVuSans-77"/>
      <use x="261.541016" xlink:href="#DejaVuSans-74"/>
      <use x="300.75" xlink:href="#DejaVuSans-68"/>
      <use x="364.128906" xlink:href="#DejaVuSans-20"/>
      <use x="395.916016" xlink:href="#DejaVuSans-79"/>
      <use x="455.095703" xlink:href="#DejaVuSans-69"/>
      <use x="482.878906" xlink:href="#DejaVuSans-65"/>
      <use x="544.402344" xlink:href="#DejaVuSans-6c"/>
      <use x="572.185547" xlink:href="#DejaVuSans-64"/>
      <use x="635.662109" xlink:href="#DejaVuSans-20"/>
      <use x="667.449219" xlink:href="#DejaVuSans-28"/>
      <use x="706.462891" xlink:href="#DejaVuSans-4f"/>
      <use x="785.173828" xlink:href="#DejaVuSans-44"/>
      <use x="862.175781" xlink:href="#DejaVuSans-36"/>
      <use x="925.798828" xlink:href="#DejaVuSans-30"/>
      <use x="989.421875" xlink:href="#DejaVuSans-30"/>
      <use x="1053.044922" xlink:href="#DejaVuSans-29"/>
     </g>
    </g>
   </g>
   <g id="LineCollection_1">
    <path clip-path="url(#pd245af496d)" d="M 93.222872 432.036582 
L 93.222872 428.311942 
" style="fill:none;stroke:#000000;stroke-width:2.275;"/>
    <path clip-path="url(#pd245af496d)" d="M 147.768327 700.620065 
L 147.768327 699.84781 
" style="fill:none;stroke:#000000;stroke-width:2.275;"/>
    <path clip-path="url(#pd245af496d)" d="M 202.313781 459.765108 
L 202.313781 448.169847 
" style="fill:none;stroke:#000000;stroke-width:2.275;"/>
    <path clip-path="url(#pd245af496d)" d="M 256.859236 514.74474 
L 256.859236 504.839018 
" style="fill:none;stroke:#000000;stroke-width:2.275;"/>
    <path clip-path="url(#pd245af496d)" d="M 311.40469 700.604819 
L 311.40469 699.458154 
" style="fill:none;stroke:#000000;stroke-width:2.275;"/>
   </g>
   <g id="patch_21">
    <path d="M 58.313781 702.597656 
L 58.313781 414.597656 
" style="fill:none;stroke:#000000;stroke-linecap:square;stroke-linejoin:miter;stroke-width:0.8;"/>
   </g>
   <g id="patch_22">
    <path d="M 346.313781 702.597656 
L 346.313781 414.597656 
" style="fill:none;stroke:#000000;stroke-linecap:square;stroke-linejoin:miter;stroke-width:0.8;"/>
   </g>
   <g id="patch_23">
    <path d="M 58.313781 702.597656 
L 346.313781 702.597656 
" style="fill:none;stroke:#000000;stroke-linecap:square;stroke-linejoin:miter;stroke-width:0.8;"/>
   </g>
   <g id="patch_24">
    <path d="M 58.313781 414.597656 
L 346.313781 414.597656 
" style="fill:none;stroke:#000000;stroke-linecap:square;stroke-linejoin:miter;stroke-width:0.8;"/>
   </g>
   <g id="text_27">
    <!-- B -->
    <g transform="translate(0 366.177937)scale(0.15 -0.15)">
     <use xlink:href="#DejaVuSans-42"/>
    </g>
   </g>
  </g>
  <g id="axes_3">
   <g id="patch_25">
    <path d="M 418.313781 702.597656 
L 706.313781 702.597656 
L 706.313781 414.597656 
L 418.313781 414.597656 
z
" style="fill:#ffffff;"/>
   </g>
   <g id="patch_26">
    <path clip-path="url(#p9724eb4e8c)" d="M 442.999496 673.728718 
L 475.913781 673.728718 
L 475.913781 673.728718 
L 442.999496 673.728718 
z
" style="fill:#f561dd;"/>
   </g>
   <g id="patch_27">
    <path clip-path="url(#p9724eb4e8c)" d="M 484.142353 673.728718 
L 517.056638 673.728718 
L 517.056638 669.166934 
L 484.142353 669.166934 
z
" style="fill:#f561dd;"/>
   </g>
   <g id="patch_28">
    <path clip-path="url(#p9724eb4e8c)" d="M 525.28521 673.728718 
L 558.199496 673.728718 
L 558.199496 607.012627 
L 525.28521 607.012627 
z
" style="fill:#36ada4;"/>
   </g>
   <g id="patch_29">
    <path clip-path="url(#p9724eb4e8c)" d="M 566.428067 673.728718 
L 599.342353 673.728718 
L 599.342353 635.808888 
L 566.428067 635.808888 
z
" style="fill:#36ada4;"/>
   </g>
   <g id="patch_30">
    <path clip-path="url(#p9724eb4e8c)" d="M 607.570924 673.728718 
L 640.48521 673.728718 
L 640.48521 650.492131 
L 607.570924 650.492131 
z
" style="fill:#a48cf4;"/>
   </g>
   <g id="patch_31">
    <path clip-path="url(#p9724eb4e8c)" d="M 648.713781 673.728718 
L 681.628067 673.728718 
L 681.628067 453.836473 
L 648.713781 453.836473 
z
" style="fill:#a48cf4;"/>
   </g>
   <g id="matplotlib.axis_3">
    <g id="xtick_6">
     <g id="line2d_12">
      <g>
       <use style="stroke:#000000;stroke-width:1.3;" x="418.313781" xlink:href="#m0b08201023" y="702.597656"/>
      </g>
     </g>
    </g>
    <g id="xtick_7">
     <g id="line2d_13">
      <g>
       <use style="stroke:#000000;stroke-width:1.3;" x="459.456638" xlink:href="#m0b08201023" y="702.597656"/>
      </g>
     </g>
     <g id="text_28">
      <!-- Blank -->
      <defs>
       <path d="M 34.28125 27.484375 
Q 23.390625 27.484375 19.1875 25 
Q 14.984375 22.515625 14.984375 16.5 
Q 14.984375 11.71875 18.140625 8.90625 
Q 21.296875 6.109375 26.703125 6.109375 
Q 34.1875 6.109375 38.703125 11.40625 
Q 43.21875 16.703125 43.21875 25.484375 
L 43.21875 27.484375 
z
M 52.203125 31.203125 
L 52.203125 0 
L 43.21875 0 
L 43.21875 8.296875 
Q 40.140625 3.328125 35.546875 0.953125 
Q 30.953125 -1.421875 24.3125 -1.421875 
Q 15.921875 -1.421875 10.953125 3.296875 
Q 6 8.015625 6 15.921875 
Q 6 25.140625 12.171875 29.828125 
Q 18.359375 34.515625 30.609375 34.515625 
L 43.21875 34.515625 
L 43.21875 35.40625 
Q 43.21875 41.609375 39.140625 45 
Q 35.0625 48.390625 27.6875 48.390625 
Q 23 48.390625 18.546875 47.265625 
Q 14.109375 46.140625 10.015625 43.890625 
L 10.015625 52.203125 
Q 14.9375 54.109375 19.578125 55.046875 
Q 24.21875 56 28.609375 56 
Q 40.484375 56 46.34375 49.84375 
Q 52.203125 43.703125 52.203125 31.203125 
z
" id="DejaVuSans-61"/>
       <path d="M 54.890625 33.015625 
L 54.890625 0 
L 45.90625 0 
L 45.90625 32.71875 
Q 45.90625 40.484375 42.875 44.328125 
Q 39.84375 48.1875 33.796875 48.1875 
Q 26.515625 48.1875 22.3125 43.546875 
Q 18.109375 38.921875 18.109375 30.90625 
L 18.109375 0 
L 9.078125 0 
L 9.078125 54.6875 
L 18.109375 54.6875 
L 18.109375 46.1875 
Q 21.34375 51.125 25.703125 53.5625 
Q 30.078125 56 35.796875 56 
Q 45.21875 56 50.046875 50.171875 
Q 54.890625 44.34375 54.890625 33.015625 
z
" id="DejaVuSans-6e"/>
       <path d="M 9.078125 75.984375 
L 18.109375 75.984375 
L 18.109375 31.109375 
L 44.921875 54.6875 
L 56.390625 54.6875 
L 27.390625 29.109375 
L 57.625 0 
L 45.90625 0 
L 18.109375 26.703125 
L 18.109375 0 
L 9.078125 0 
z
" id="DejaVuSans-6b"/>
      </defs>
      <g transform="translate(463.043826 751.461562)rotate(-90)scale(0.13 -0.13)">
       <use xlink:href="#DejaVuSans-42"/>
       <use x="68.603516" xlink:href="#DejaVuSans-6c"/>
       <use x="96.386719" xlink:href="#DejaVuSans-61"/>
       <use x="157.666016" xlink:href="#DejaVuSans-6e"/>
       <use x="221.044922" xlink:href="#DejaVuSans-6b"/>
      </g>
     </g>
    </g>
    <g id="xtick_8">
     <g id="line2d_14">
      <g>
       <use style="stroke:#000000;stroke-width:1.3;" x="500.599496" xlink:href="#m0b08201023" y="702.597656"/>
      </g>
     </g>
     <g id="text_29">
      <!-- Vector (-) -->
      <defs>
       <path d="M 28.609375 0 
L 0.78125 72.90625 
L 11.078125 72.90625 
L 34.1875 11.53125 
L 57.328125 72.90625 
L 67.578125 72.90625 
L 39.796875 0 
z
" id="DejaVuSans-56"/>
      </defs>
      <g transform="translate(504.186683 776.584062)rotate(-90)scale(0.13 -0.13)">
       <use xlink:href="#DejaVuSans-56"/>
       <use x="68.298828" xlink:href="#DejaVuSans-65"/>
       <use x="129.822266" xlink:href="#DejaVuSans-63"/>
       <use x="184.802734" xlink:href="#DejaVuSans-74"/>
       <use x="224.011719" xlink:href="#DejaVuSans-6f"/>
       <use x="285.193359" xlink:href="#DejaVuSans-72"/>
       <use x="326.306641" xlink:href="#DejaVuSans-20"/>
       <use x="358.09375" xlink:href="#DejaVuSans-28"/>
       <use x="397.107422" xlink:href="#DejaVuSans-2d"/>
       <use x="433.191406" xlink:href="#DejaVuSans-29"/>
      </g>
     </g>
    </g>
    <g id="xtick_9">
     <g id="line2d_15">
      <g>
       <use style="stroke:#000000;stroke-width:1.3;" x="541.742353" xlink:href="#m0b08201023" y="702.597656"/>
      </g>
     </g>
     <g id="text_30">
      <!-- CAN (+) -->
      <defs>
       <path d="M 9.8125 72.90625 
L 23.09375 72.90625 
L 55.421875 11.921875 
L 55.421875 72.90625 
L 64.984375 72.90625 
L 64.984375 0 
L 51.703125 0 
L 19.390625 60.984375 
L 19.390625 0 
L 9.8125 0 
z
" id="DejaVuSans-4e"/>
      </defs>
      <g transform="translate(545.32954 768.062969)rotate(-90)scale(0.13 -0.13)">
       <use xlink:href="#DejaVuSans-43"/>
       <use x="69.824219" xlink:href="#DejaVuSans-41"/>
       <use x="138.232422" xlink:href="#DejaVuSans-4e"/>
       <use x="213.037109" xlink:href="#DejaVuSans-20"/>
       <use x="244.824219" xlink:href="#DejaVuSans-28"/>
       <use x="283.837891" xlink:href="#DejaVuSans-2b"/>
       <use x="367.626953" xlink:href="#DejaVuSans-29"/>
      </g>
     </g>
    </g>
    <g id="xtick_10">
     <g id="line2d_16">
      <g>
       <use style="stroke:#000000;stroke-width:1.3;" x="582.88521" xlink:href="#m0b08201023" y="702.597656"/>
      </g>
     </g>
     <g id="text_31">
      <!-- SbtA (+) -->
      <defs>
       <path d="M 53.515625 70.515625 
L 53.515625 60.890625 
Q 47.90625 63.578125 42.921875 64.890625 
Q 37.9375 66.21875 33.296875 66.21875 
Q 25.25 66.21875 20.875 63.09375 
Q 16.5 59.96875 16.5 54.203125 
Q 16.5 49.359375 19.40625 46.890625 
Q 22.3125 44.4375 30.421875 42.921875 
L 36.375 41.703125 
Q 47.40625 39.59375 52.65625 34.296875 
Q 57.90625 29 57.90625 20.125 
Q 57.90625 9.515625 50.796875 4.046875 
Q 43.703125 -1.421875 29.984375 -1.421875 
Q 24.8125 -1.421875 18.96875 -0.25 
Q 13.140625 0.921875 6.890625 3.21875 
L 6.890625 13.375 
Q 12.890625 10.015625 18.65625 8.296875 
Q 24.421875 6.59375 29.984375 6.59375 
Q 38.421875 6.59375 43.015625 9.90625 
Q 47.609375 13.234375 47.609375 19.390625 
Q 47.609375 24.75 44.3125 27.78125 
Q 41.015625 30.8125 33.5 32.328125 
L 27.484375 33.5 
Q 16.453125 35.6875 11.515625 40.375 
Q 6.59375 45.0625 6.59375 53.421875 
Q 6.59375 63.09375 13.40625 68.65625 
Q 20.21875 74.21875 32.171875 74.21875 
Q 37.3125 74.21875 42.625 73.28125 
Q 47.953125 72.359375 53.515625 70.515625 
z
" id="DejaVuSans-53"/>
       <path d="M 48.6875 27.296875 
Q 48.6875 37.203125 44.609375 42.84375 
Q 40.53125 48.484375 33.40625 48.484375 
Q 26.265625 48.484375 22.1875 42.84375 
Q 18.109375 37.203125 18.109375 27.296875 
Q 18.109375 17.390625 22.1875 11.75 
Q 26.265625 6.109375 33.40625 6.109375 
Q 40.53125 6.109375 44.609375 11.75 
Q 48.6875 17.390625 48.6875 27.296875 
z
M 18.109375 46.390625 
Q 20.953125 51.265625 25.265625 53.625 
Q 29.59375 56 35.59375 56 
Q 45.5625 56 51.78125 48.09375 
Q 58.015625 40.1875 58.015625 27.296875 
Q 58.015625 14.40625 51.78125 6.484375 
Q 45.5625 -1.421875 35.59375 -1.421875 
Q 29.59375 -1.421875 25.265625 0.953125 
Q 20.953125 3.328125 18.109375 8.203125 
L 18.109375 0 
L 9.078125 0 
L 9.078125 75.984375 
L 18.109375 75.984375 
z
" id="DejaVuSans-62"/>
      </defs>
      <g transform="translate(586.472397 770.862031)rotate(-90)scale(0.13 -0.13)">
       <use xlink:href="#DejaVuSans-53"/>
       <use x="63.476562" xlink:href="#DejaVuSans-62"/>
       <use x="126.953125" xlink:href="#DejaVuSans-74"/>
       <use x="166.162109" xlink:href="#DejaVuSans-41"/>
       <use x="234.570312" xlink:href="#DejaVuSans-20"/>
       <use x="266.357422" xlink:href="#DejaVuSans-28"/>
       <use x="305.371094" xlink:href="#DejaVuSans-2b"/>
       <use x="389.160156" xlink:href="#DejaVuSans-29"/>
      </g>
     </g>
    </g>
    <g id="xtick_11">
     <g id="line2d_17">
      <g>
       <use style="stroke:#000000;stroke-width:1.3;" x="624.028067" xlink:href="#m0b08201023" y="702.597656"/>
      </g>
     </g>
     <g id="text_32">
      <!-- DAB1 -->
      <g transform="translate(627.615254 751.288906)rotate(-90)scale(0.13 -0.13)">
       <use xlink:href="#DejaVuSans-44"/>
       <use x="76.986328" xlink:href="#DejaVuSans-41"/>
       <use x="145.394531" xlink:href="#DejaVuSans-42"/>
       <use x="213.998047" xlink:href="#DejaVuSans-31"/>
      </g>
     </g>
    </g>
    <g id="xtick_12">
     <g id="line2d_18">
      <g>
       <use style="stroke:#000000;stroke-width:1.3;" x="665.170924" xlink:href="#m0b08201023" y="702.597656"/>
      </g>
     </g>
     <g id="text_33">
      <!-- DAB2 -->
      <g transform="translate(668.758112 751.288906)rotate(-90)scale(0.13 -0.13)">
       <use xlink:href="#DejaVuSans-44"/>
       <use x="76.986328" xlink:href="#DejaVuSans-41"/>
       <use x="145.394531" xlink:href="#DejaVuSans-42"/>
       <use x="213.998047" xlink:href="#DejaVuSans-32"/>
      </g>
     </g>
    </g>
    <g id="xtick_13">
     <g id="line2d_19">
      <g>
       <use style="stroke:#000000;stroke-width:1.3;" x="706.313781" xlink:href="#m0b08201023" y="702.597656"/>
      </g>
     </g>
    </g>
   </g>
   <g id="matplotlib.axis_4">
    <g id="ytick_7">
     <g id="line2d_20">
      <g>
       <use style="stroke:#000000;stroke-width:1.3;" x="418.313781" xlink:href="#m3fdf5fc1f5" y="673.728718"/>
      </g>
     </g>
     <g id="text_34">
      <!-- 0 -->
      <g transform="translate(397.442531 678.667702)scale(0.13 -0.13)">
       <use xlink:href="#DejaVuSans-30"/>
      </g>
     </g>
    </g>
    <g id="ytick_8">
     <g id="line2d_21">
      <g>
       <use style="stroke:#000000;stroke-width:1.3;" x="418.313781" xlink:href="#m3fdf5fc1f5" y="638.08978"/>
      </g>
     </g>
     <g id="text_35">
      <!-- 100 -->
      <g transform="translate(380.900031 643.028765)scale(0.13 -0.13)">
       <use xlink:href="#DejaVuSans-31"/>
       <use x="63.623047" xlink:href="#DejaVuSans-30"/>
       <use x="127.246094" xlink:href="#DejaVuSans-30"/>
      </g>
     </g>
    </g>
    <g id="ytick_9">
     <g id="line2d_22">
      <g>
       <use style="stroke:#000000;stroke-width:1.3;" x="418.313781" xlink:href="#m3fdf5fc1f5" y="602.450843"/>
      </g>
     </g>
     <g id="text_36">
      <!-- 200 -->
      <g transform="translate(380.900031 607.389827)scale(0.13 -0.13)">
       <use xlink:href="#DejaVuSans-32"/>
       <use x="63.623047" xlink:href="#DejaVuSans-30"/>
       <use x="127.246094" xlink:href="#DejaVuSans-30"/>
      </g>
     </g>
    </g>
    <g id="ytick_10">
     <g id="line2d_23">
      <g>
       <use style="stroke:#000000;stroke-width:1.3;" x="418.313781" xlink:href="#m3fdf5fc1f5" y="566.811905"/>
      </g>
     </g>
     <g id="text_37">
      <!-- 300 -->
      <g transform="translate(380.900031 571.750889)scale(0.13 -0.13)">
       <use xlink:href="#DejaVuSans-33"/>
       <use x="63.623047" xlink:href="#DejaVuSans-30"/>
       <use x="127.246094" xlink:href="#DejaVuSans-30"/>
      </g>
     </g>
    </g>
    <g id="ytick_11">
     <g id="line2d_24">
      <g>
       <use style="stroke:#000000;stroke-width:1.3;" x="418.313781" xlink:href="#m3fdf5fc1f5" y="531.172967"/>
      </g>
     </g>
     <g id="text_38">
      <!-- 400 -->
      <g transform="translate(380.900031 536.111952)scale(0.13 -0.13)">
       <use xlink:href="#DejaVuSans-34"/>
       <use x="63.623047" xlink:href="#DejaVuSans-30"/>
       <use x="127.246094" xlink:href="#DejaVuSans-30"/>
      </g>
     </g>
    </g>
    <g id="ytick_12">
     <g id="line2d_25">
      <g>
       <use style="stroke:#000000;stroke-width:1.3;" x="418.313781" xlink:href="#m3fdf5fc1f5" y="495.53403"/>
      </g>
     </g>
     <g id="text_39">
      <!-- 500 -->
      <g transform="translate(380.900031 500.473014)scale(0.13 -0.13)">
       <use xlink:href="#DejaVuSans-35"/>
       <use x="63.623047" xlink:href="#DejaVuSans-30"/>
       <use x="127.246094" xlink:href="#DejaVuSans-30"/>
      </g>
     </g>
    </g>
    <g id="ytick_13">
     <g id="line2d_26">
      <g>
       <use style="stroke:#000000;stroke-width:1.3;" x="418.313781" xlink:href="#m3fdf5fc1f5" y="459.895092"/>
      </g>
     </g>
     <g id="text_40">
      <!-- 600 -->
      <g transform="translate(380.900031 464.834077)scale(0.13 -0.13)">
       <use xlink:href="#DejaVuSans-36"/>
       <use x="63.623047" xlink:href="#DejaVuSans-30"/>
       <use x="127.246094" xlink:href="#DejaVuSans-30"/>
      </g>
     </g>
    </g>
    <g id="ytick_14">
     <g id="line2d_27">
      <g>
       <use style="stroke:#000000;stroke-width:1.3;" x="418.313781" xlink:href="#m3fdf5fc1f5" y="424.256155"/>
      </g>
     </g>
     <g id="text_41">
      <!-- 700 -->
      <defs>
       <path d="M 8.203125 72.90625 
L 55.078125 72.90625 
L 55.078125 68.703125 
L 28.609375 0 
L 18.3125 0 
L 43.21875 64.59375 
L 8.203125 64.59375 
z
" id="DejaVuSans-37"/>
      </defs>
      <g transform="translate(380.900031 429.195139)scale(0.13 -0.13)">
       <use xlink:href="#DejaVuSans-37"/>
       <use x="63.623047" xlink:href="#DejaVuSans-30"/>
       <use x="127.246094" xlink:href="#DejaVuSans-30"/>
      </g>
     </g>
    </g>
    <g id="text_42">
     <!-- CPM -->
     <defs>
      <path d="M 19.671875 64.796875 
L 19.671875 37.40625 
L 32.078125 37.40625 
Q 38.96875 37.40625 42.71875 40.96875 
Q 46.484375 44.53125 46.484375 51.125 
Q 46.484375 57.671875 42.71875 61.234375 
Q 38.96875 64.796875 32.078125 64.796875 
z
M 9.8125 72.90625 
L 32.078125 72.90625 
Q 44.34375 72.90625 50.609375 67.359375 
Q 56.890625 61.8125 56.890625 51.125 
Q 56.890625 40.328125 50.609375 34.8125 
Q 44.34375 29.296875 32.078125 29.296875 
L 19.671875 29.296875 
L 19.671875 0 
L 9.8125 0 
z
" id="DejaVuSans-50"/>
      <path d="M 9.8125 72.90625 
L 24.515625 72.90625 
L 43.109375 23.296875 
L 61.8125 72.90625 
L 76.515625 72.90625 
L 76.515625 0 
L 66.890625 0 
L 66.890625 64.015625 
L 48.09375 14.015625 
L 38.1875 14.015625 
L 19.390625 64.015625 
L 19.390625 0 
L 9.8125 0 
z
" id="DejaVuSans-4d"/>
     </defs>
     <g transform="translate(373.926078 574.070703)rotate(-90)scale(0.143 -0.143)">
      <use xlink:href="#DejaVuSans-43"/>
      <use x="69.824219" xlink:href="#DejaVuSans-50"/>
      <use x="130.126953" xlink:href="#DejaVuSans-4d"/>
     </g>
    </g>
   </g>
   <g id="LineCollection_2">
    <path clip-path="url(#p9724eb4e8c)" d="M 459.456638 687.001531 
L 459.456638 660.455905 
" style="fill:none;stroke:#000000;stroke-width:2.275;"/>
    <path clip-path="url(#p9724eb4e8c)" d="M 500.599496 689.506747 
L 500.599496 648.827121 
" style="fill:none;stroke:#000000;stroke-width:2.275;"/>
    <path clip-path="url(#p9724eb4e8c)" d="M 541.742353 621.375605 
L 541.742353 592.649648 
" style="fill:none;stroke:#000000;stroke-width:2.275;"/>
    <path clip-path="url(#p9724eb4e8c)" d="M 582.88521 648.729171 
L 582.88521 622.888606 
" style="fill:none;stroke:#000000;stroke-width:2.275;"/>
    <path clip-path="url(#p9724eb4e8c)" d="M 624.028067 673.935943 
L 624.028067 627.048318 
" style="fill:none;stroke:#000000;stroke-width:2.275;"/>
    <path clip-path="url(#p9724eb4e8c)" d="M 665.170924 479.98438 
L 665.170924 427.688565 
" style="fill:none;stroke:#000000;stroke-width:2.275;"/>
   </g>
   <g id="patch_32">
    <path d="M 418.313781 702.597656 
L 418.313781 414.597656 
" style="fill:none;stroke:#000000;stroke-linecap:square;stroke-linejoin:miter;stroke-width:0.8;"/>
   </g>
   <g id="patch_33">
    <path d="M 706.313781 702.597656 
L 706.313781 414.597656 
" style="fill:none;stroke:#000000;stroke-linecap:square;stroke-linejoin:miter;stroke-width:0.8;"/>
   </g>
   <g id="patch_34">
    <path d="M 418.313781 702.597656 
L 706.313781 702.597656 
" style="fill:none;stroke:#000000;stroke-linecap:square;stroke-linejoin:miter;stroke-width:0.8;"/>
   </g>
   <g id="patch_35">
    <path d="M 418.313781 414.597656 
L 706.313781 414.597656 
" style="fill:none;stroke:#000000;stroke-linecap:square;stroke-linejoin:miter;stroke-width:0.8;"/>
   </g>
   <g id="text_43">
    <!-- C -->
    <g transform="translate(358.506891 366.177937)scale(0.15 -0.15)">
     <use xlink:href="#DejaVuSans-43"/>
    </g>
   </g>
  </g>
 </g>
 <defs>
  <clipPath id="p29f989ccf1">
   <rect height="288" width="648" x="58.313781" y="54.597656"/>
  </clipPath>
  <clipPath id="pd245af496d">
   <rect height="288" width="288" x="58.313781" y="414.597656"/>
  </clipPath>
  <clipPath id="p9724eb4e8c">
   <rect height="288" width="288" x="418.313781" y="414.597656"/>
  </clipPath>
 </defs>
</svg>
