<?xml version="1.0" encoding="utf-8" standalone="no"?>
<!DOCTYPE svg PUBLIC "-//W3C//DTD SVG 1.1//EN"
  "http://www.w3.org/Graphics/SVG/1.1/DTD/svg11.dtd">
<!-- Created with matplotlib (http://matplotlib.org/) -->
<svg height="1410.475781pt" version="1.1" viewBox="0 0 1350.23125 1410.475781" width="1350.23125pt" xmlns="http://www.w3.org/2000/svg" xmlns:xlink="http://www.w3.org/1999/xlink">
 <defs>
  <style type="text/css">
*{stroke-linecap:butt;stroke-linejoin:round;}
  </style>
 </defs>
 <g id="figure_1">
  <g id="patch_1">
   <path d="M 0 1410.475781 
L 1350.23125 1410.475781 
L 1350.23125 0 
L 0 0 
z
" style="fill:#ffffff;"/>
  </g>
  <g id="axes_1">
   <g id="patch_2">
    <path d="M 39.079688 666.597656 
L 615.079687 666.597656 
L 615.079687 90.597656 
L 39.079688 90.597656 
z
" style="fill:#ffffff;"/>
   </g>
   <g id="LineCollection_1">
    <path clip-path="url(#p0d4c13bb90)" d="M 74.929352 666.597656 
L 74.929352 90.597656 
" style="fill:none;stroke:#000000;stroke-dasharray:5.55,2.4;stroke-dashoffset:0;stroke-opacity:0.2;stroke-width:1.5;"/>
    <path clip-path="url(#p0d4c13bb90)" d="M 354.621128 666.597656 
L 354.621128 90.597656 
" style="fill:none;stroke:#000000;stroke-dasharray:5.55,2.4;stroke-dashoffset:0;stroke-opacity:0.2;stroke-width:1.5;"/>
    <path clip-path="url(#p0d4c13bb90)" d="M 421.478024 666.597656 
L 421.478024 90.597656 
" style="fill:none;stroke:#000000;stroke-dasharray:5.55,2.4;stroke-dashoffset:0;stroke-opacity:0.2;stroke-width:1.5;"/>
    <path clip-path="url(#p0d4c13bb90)" d="M 475.226888 666.597656 
L 475.226888 90.597656 
" style="fill:none;stroke:#000000;stroke-dasharray:5.55,2.4;stroke-dashoffset:0;stroke-opacity:0.2;stroke-width:1.5;"/>
   </g>
   <g id="matplotlib.axis_1">
    <g id="xtick_1">
     <g id="line2d_1">
      <defs>
       <path d="M 0 0 
L 0 3.5 
" id="m37377f958e" style="stroke:#000000;stroke-width:0.8;"/>
      </defs>
      <g>
       <use style="stroke:#000000;stroke-width:0.8;" x="39.079688" xlink:href="#m37377f958e" y="666.597656"/>
      </g>
     </g>
     <g id="text_1">
      <!-- 2000 -->
      <defs>
       <path d="M 19.1875 8.296875 
L 53.609375 8.296875 
L 53.609375 0 
L 7.328125 0 
L 7.328125 8.296875 
Q 12.9375 14.109375 22.625 23.890625 
Q 32.328125 33.6875 34.8125 36.53125 
Q 39.546875 41.84375 41.421875 45.53125 
Q 43.3125 49.21875 43.3125 52.78125 
Q 43.3125 58.59375 39.234375 62.25 
Q 35.15625 65.921875 28.609375 65.921875 
Q 23.96875 65.921875 18.8125 64.3125 
Q 13.671875 62.703125 7.8125 59.421875 
L 7.8125 69.390625 
Q 13.765625 71.78125 18.9375 73 
Q 24.125 74.21875 28.421875 74.21875 
Q 39.75 74.21875 46.484375 68.546875 
Q 53.21875 62.890625 53.21875 53.421875 
Q 53.21875 48.921875 51.53125 44.890625 
Q 49.859375 40.875 45.40625 35.40625 
Q 44.1875 33.984375 37.640625 27.21875 
Q 31.109375 20.453125 19.1875 8.296875 
z
" id="DejaVuSans-32"/>
       <path d="M 31.78125 66.40625 
Q 24.171875 66.40625 20.328125 58.90625 
Q 16.5 51.421875 16.5 36.375 
Q 16.5 21.390625 20.328125 13.890625 
Q 24.171875 6.390625 31.78125 6.390625 
Q 39.453125 6.390625 43.28125 13.890625 
Q 47.125 21.390625 47.125 36.375 
Q 47.125 51.421875 43.28125 58.90625 
Q 39.453125 66.40625 31.78125 66.40625 
z
M 31.78125 74.21875 
Q 44.046875 74.21875 50.515625 64.515625 
Q 56.984375 54.828125 56.984375 36.375 
Q 56.984375 17.96875 50.515625 8.265625 
Q 44.046875 -1.421875 31.78125 -1.421875 
Q 19.53125 -1.421875 13.0625 8.265625 
Q 6.59375 17.96875 6.59375 36.375 
Q 6.59375 54.828125 13.0625 64.515625 
Q 19.53125 74.21875 31.78125 74.21875 
z
" id="DejaVuSans-30"/>
      </defs>
      <g transform="translate(26.354688 681.196094)scale(0.1 -0.1)">
       <use xlink:href="#DejaVuSans-32"/>
       <use x="63.623047" xlink:href="#DejaVuSans-30"/>
       <use x="127.246094" xlink:href="#DejaVuSans-30"/>
       <use x="190.869141" xlink:href="#DejaVuSans-30"/>
      </g>
     </g>
    </g>
    <g id="xtick_2">
     <g id="line2d_2">
      <g>
       <use style="stroke:#000000;stroke-width:0.8;" x="154.279688" xlink:href="#m37377f958e" y="666.597656"/>
      </g>
     </g>
     <g id="text_2">
      <!-- 4000 -->
      <defs>
       <path d="M 37.796875 64.3125 
L 12.890625 25.390625 
L 37.796875 25.390625 
z
M 35.203125 72.90625 
L 47.609375 72.90625 
L 47.609375 25.390625 
L 58.015625 25.390625 
L 58.015625 17.1875 
L 47.609375 17.1875 
L 47.609375 0 
L 37.796875 0 
L 37.796875 17.1875 
L 4.890625 17.1875 
L 4.890625 26.703125 
z
" id="DejaVuSans-34"/>
      </defs>
      <g transform="translate(141.554688 681.196094)scale(0.1 -0.1)">
       <use xlink:href="#DejaVuSans-34"/>
       <use x="63.623047" xlink:href="#DejaVuSans-30"/>
       <use x="127.246094" xlink:href="#DejaVuSans-30"/>
       <use x="190.869141" xlink:href="#DejaVuSans-30"/>
      </g>
     </g>
    </g>
    <g id="xtick_3">
     <g id="line2d_3">
      <g>
       <use style="stroke:#000000;stroke-width:0.8;" x="269.479688" xlink:href="#m37377f958e" y="666.597656"/>
      </g>
     </g>
     <g id="text_3">
      <!-- 6000 -->
      <defs>
       <path d="M 33.015625 40.375 
Q 26.375 40.375 22.484375 35.828125 
Q 18.609375 31.296875 18.609375 23.390625 
Q 18.609375 15.53125 22.484375 10.953125 
Q 26.375 6.390625 33.015625 6.390625 
Q 39.65625 6.390625 43.53125 10.953125 
Q 47.40625 15.53125 47.40625 23.390625 
Q 47.40625 31.296875 43.53125 35.828125 
Q 39.65625 40.375 33.015625 40.375 
z
M 52.59375 71.296875 
L 52.59375 62.3125 
Q 48.875 64.0625 45.09375 64.984375 
Q 41.3125 65.921875 37.59375 65.921875 
Q 27.828125 65.921875 22.671875 59.328125 
Q 17.53125 52.734375 16.796875 39.40625 
Q 19.671875 43.65625 24.015625 45.921875 
Q 28.375 48.1875 33.59375 48.1875 
Q 44.578125 48.1875 50.953125 41.515625 
Q 57.328125 34.859375 57.328125 23.390625 
Q 57.328125 12.15625 50.6875 5.359375 
Q 44.046875 -1.421875 33.015625 -1.421875 
Q 20.359375 -1.421875 13.671875 8.265625 
Q 6.984375 17.96875 6.984375 36.375 
Q 6.984375 53.65625 15.1875 63.9375 
Q 23.390625 74.21875 37.203125 74.21875 
Q 40.921875 74.21875 44.703125 73.484375 
Q 48.484375 72.75 52.59375 71.296875 
z
" id="DejaVuSans-36"/>
      </defs>
      <g transform="translate(256.754687 681.196094)scale(0.1 -0.1)">
       <use xlink:href="#DejaVuSans-36"/>
       <use x="63.623047" xlink:href="#DejaVuSans-30"/>
       <use x="127.246094" xlink:href="#DejaVuSans-30"/>
       <use x="190.869141" xlink:href="#DejaVuSans-30"/>
      </g>
     </g>
    </g>
    <g id="xtick_4">
     <g id="line2d_4">
      <g>
       <use style="stroke:#000000;stroke-width:0.8;" x="384.679688" xlink:href="#m37377f958e" y="666.597656"/>
      </g>
     </g>
     <g id="text_4">
      <!-- 8000 -->
      <defs>
       <path d="M 31.78125 34.625 
Q 24.75 34.625 20.71875 30.859375 
Q 16.703125 27.09375 16.703125 20.515625 
Q 16.703125 13.921875 20.71875 10.15625 
Q 24.75 6.390625 31.78125 6.390625 
Q 38.8125 6.390625 42.859375 10.171875 
Q 46.921875 13.96875 46.921875 20.515625 
Q 46.921875 27.09375 42.890625 30.859375 
Q 38.875 34.625 31.78125 34.625 
z
M 21.921875 38.8125 
Q 15.578125 40.375 12.03125 44.71875 
Q 8.5 49.078125 8.5 55.328125 
Q 8.5 64.0625 14.71875 69.140625 
Q 20.953125 74.21875 31.78125 74.21875 
Q 42.671875 74.21875 48.875 69.140625 
Q 55.078125 64.0625 55.078125 55.328125 
Q 55.078125 49.078125 51.53125 44.71875 
Q 48 40.375 41.703125 38.8125 
Q 48.828125 37.15625 52.796875 32.3125 
Q 56.78125 27.484375 56.78125 20.515625 
Q 56.78125 9.90625 50.3125 4.234375 
Q 43.84375 -1.421875 31.78125 -1.421875 
Q 19.734375 -1.421875 13.25 4.234375 
Q 6.78125 9.90625 6.78125 20.515625 
Q 6.78125 27.484375 10.78125 32.3125 
Q 14.796875 37.15625 21.921875 38.8125 
z
M 18.3125 54.390625 
Q 18.3125 48.734375 21.84375 45.5625 
Q 25.390625 42.390625 31.78125 42.390625 
Q 38.140625 42.390625 41.71875 45.5625 
Q 45.3125 48.734375 45.3125 54.390625 
Q 45.3125 60.0625 41.71875 63.234375 
Q 38.140625 66.40625 31.78125 66.40625 
Q 25.390625 66.40625 21.84375 63.234375 
Q 18.3125 60.0625 18.3125 54.390625 
z
" id="DejaVuSans-38"/>
      </defs>
      <g transform="translate(371.954688 681.196094)scale(0.1 -0.1)">
       <use xlink:href="#DejaVuSans-38"/>
       <use x="63.623047" xlink:href="#DejaVuSans-30"/>
       <use x="127.246094" xlink:href="#DejaVuSans-30"/>
       <use x="190.869141" xlink:href="#DejaVuSans-30"/>
      </g>
     </g>
    </g>
    <g id="xtick_5">
     <g id="line2d_5">
      <g>
       <use style="stroke:#000000;stroke-width:0.8;" x="499.879687" xlink:href="#m37377f958e" y="666.597656"/>
      </g>
     </g>
     <g id="text_5">
      <!-- 10000 -->
      <defs>
       <path d="M 12.40625 8.296875 
L 28.515625 8.296875 
L 28.515625 63.921875 
L 10.984375 60.40625 
L 10.984375 69.390625 
L 28.421875 72.90625 
L 38.28125 72.90625 
L 38.28125 8.296875 
L 54.390625 8.296875 
L 54.390625 0 
L 12.40625 0 
z
" id="DejaVuSans-31"/>
      </defs>
      <g transform="translate(483.973437 681.196094)scale(0.1 -0.1)">
       <use xlink:href="#DejaVuSans-31"/>
       <use x="63.623047" xlink:href="#DejaVuSans-30"/>
       <use x="127.246094" xlink:href="#DejaVuSans-30"/>
       <use x="190.869141" xlink:href="#DejaVuSans-30"/>
       <use x="254.492188" xlink:href="#DejaVuSans-30"/>
      </g>
     </g>
    </g>
    <g id="xtick_6">
     <g id="line2d_6">
      <g>
       <use style="stroke:#000000;stroke-width:0.8;" x="615.079688" xlink:href="#m37377f958e" y="666.597656"/>
      </g>
     </g>
     <g id="text_6">
      <!-- 12000 -->
      <g transform="translate(599.173438 681.196094)scale(0.1 -0.1)">
       <use xlink:href="#DejaVuSans-31"/>
       <use x="63.623047" xlink:href="#DejaVuSans-32"/>
       <use x="127.246094" xlink:href="#DejaVuSans-30"/>
       <use x="190.869141" xlink:href="#DejaVuSans-30"/>
       <use x="254.492188" xlink:href="#DejaVuSans-30"/>
      </g>
     </g>
    </g>
    <g id="text_7">
     <!-- Energy (KeV) -->
     <defs>
      <path d="M 9.8125 72.90625 
L 55.90625 72.90625 
L 55.90625 64.59375 
L 19.671875 64.59375 
L 19.671875 43.015625 
L 54.390625 43.015625 
L 54.390625 34.71875 
L 19.671875 34.71875 
L 19.671875 8.296875 
L 56.78125 8.296875 
L 56.78125 0 
L 9.8125 0 
z
" id="DejaVuSans-45"/>
      <path d="M 54.890625 33.015625 
L 54.890625 0 
L 45.90625 0 
L 45.90625 32.71875 
Q 45.90625 40.484375 42.875 44.328125 
Q 39.84375 48.1875 33.796875 48.1875 
Q 26.515625 48.1875 22.3125 43.546875 
Q 18.109375 38.921875 18.109375 30.90625 
L 18.109375 0 
L 9.078125 0 
L 9.078125 54.6875 
L 18.109375 54.6875 
L 18.109375 46.1875 
Q 21.34375 51.125 25.703125 53.5625 
Q 30.078125 56 35.796875 56 
Q 45.21875 56 50.046875 50.171875 
Q 54.890625 44.34375 54.890625 33.015625 
z
" id="DejaVuSans-6e"/>
      <path d="M 56.203125 29.59375 
L 56.203125 25.203125 
L 14.890625 25.203125 
Q 15.484375 15.921875 20.484375 11.0625 
Q 25.484375 6.203125 34.421875 6.203125 
Q 39.59375 6.203125 44.453125 7.46875 
Q 49.3125 8.734375 54.109375 11.28125 
L 54.109375 2.78125 
Q 49.265625 0.734375 44.1875 -0.34375 
Q 39.109375 -1.421875 33.890625 -1.421875 
Q 20.796875 -1.421875 13.15625 6.1875 
Q 5.515625 13.8125 5.515625 26.8125 
Q 5.515625 40.234375 12.765625 48.109375 
Q 20.015625 56 32.328125 56 
Q 43.359375 56 49.78125 48.890625 
Q 56.203125 41.796875 56.203125 29.59375 
z
M 47.21875 32.234375 
Q 47.125 39.59375 43.09375 43.984375 
Q 39.0625 48.390625 32.421875 48.390625 
Q 24.90625 48.390625 20.390625 44.140625 
Q 15.875 39.890625 15.1875 32.171875 
z
" id="DejaVuSans-65"/>
      <path d="M 41.109375 46.296875 
Q 39.59375 47.171875 37.8125 47.578125 
Q 36.03125 48 33.890625 48 
Q 26.265625 48 22.1875 43.046875 
Q 18.109375 38.09375 18.109375 28.8125 
L 18.109375 0 
L 9.078125 0 
L 9.078125 54.6875 
L 18.109375 54.6875 
L 18.109375 46.1875 
Q 20.953125 51.171875 25.484375 53.578125 
Q 30.03125 56 36.53125 56 
Q 37.453125 56 38.578125 55.875 
Q 39.703125 55.765625 41.0625 55.515625 
z
" id="DejaVuSans-72"/>
      <path d="M 45.40625 27.984375 
Q 45.40625 37.75 41.375 43.109375 
Q 37.359375 48.484375 30.078125 48.484375 
Q 22.859375 48.484375 18.828125 43.109375 
Q 14.796875 37.75 14.796875 27.984375 
Q 14.796875 18.265625 18.828125 12.890625 
Q 22.859375 7.515625 30.078125 7.515625 
Q 37.359375 7.515625 41.375 12.890625 
Q 45.40625 18.265625 45.40625 27.984375 
z
M 54.390625 6.78125 
Q 54.390625 -7.171875 48.1875 -13.984375 
Q 42 -20.796875 29.203125 -20.796875 
Q 24.46875 -20.796875 20.265625 -20.09375 
Q 16.0625 -19.390625 12.109375 -17.921875 
L 12.109375 -9.1875 
Q 16.0625 -11.328125 19.921875 -12.34375 
Q 23.78125 -13.375 27.78125 -13.375 
Q 36.625 -13.375 41.015625 -8.765625 
Q 45.40625 -4.15625 45.40625 5.171875 
L 45.40625 9.625 
Q 42.625 4.78125 38.28125 2.390625 
Q 33.9375 0 27.875 0 
Q 17.828125 0 11.671875 7.65625 
Q 5.515625 15.328125 5.515625 27.984375 
Q 5.515625 40.671875 11.671875 48.328125 
Q 17.828125 56 27.875 56 
Q 33.9375 56 38.28125 53.609375 
Q 42.625 51.21875 45.40625 46.390625 
L 45.40625 54.6875 
L 54.390625 54.6875 
z
" id="DejaVuSans-67"/>
      <path d="M 32.171875 -5.078125 
Q 28.375 -14.84375 24.75 -17.8125 
Q 21.140625 -20.796875 15.09375 -20.796875 
L 7.90625 -20.796875 
L 7.90625 -13.28125 
L 13.1875 -13.28125 
Q 16.890625 -13.28125 18.9375 -11.515625 
Q 21 -9.765625 23.484375 -3.21875 
L 25.09375 0.875 
L 2.984375 54.6875 
L 12.5 54.6875 
L 29.59375 11.921875 
L 46.6875 54.6875 
L 56.203125 54.6875 
z
" id="DejaVuSans-79"/>
      <path id="DejaVuSans-20"/>
      <path d="M 31 75.875 
Q 24.46875 64.65625 21.28125 53.65625 
Q 18.109375 42.671875 18.109375 31.390625 
Q 18.109375 20.125 21.3125 9.0625 
Q 24.515625 -2 31 -13.1875 
L 23.1875 -13.1875 
Q 15.875 -1.703125 12.234375 9.375 
Q 8.59375 20.453125 8.59375 31.390625 
Q 8.59375 42.28125 12.203125 53.3125 
Q 15.828125 64.359375 23.1875 75.875 
z
" id="DejaVuSans-28"/>
      <path d="M 9.8125 72.90625 
L 19.671875 72.90625 
L 19.671875 42.09375 
L 52.390625 72.90625 
L 65.09375 72.90625 
L 28.90625 38.921875 
L 67.671875 0 
L 54.6875 0 
L 19.671875 35.109375 
L 19.671875 0 
L 9.8125 0 
z
" id="DejaVuSans-4b"/>
      <path d="M 28.609375 0 
L 0.78125 72.90625 
L 11.078125 72.90625 
L 34.1875 11.53125 
L 57.328125 72.90625 
L 67.578125 72.90625 
L 39.796875 0 
z
" id="DejaVuSans-56"/>
      <path d="M 8.015625 75.875 
L 15.828125 75.875 
Q 23.140625 64.359375 26.78125 53.3125 
Q 30.421875 42.28125 30.421875 31.390625 
Q 30.421875 20.453125 26.78125 9.375 
Q 23.140625 -1.703125 15.828125 -13.1875 
L 8.015625 -13.1875 
Q 14.5 -2 17.703125 9.0625 
Q 20.90625 20.125 20.90625 31.390625 
Q 20.90625 42.671875 17.703125 53.65625 
Q 14.5 64.65625 8.015625 75.875 
z
" id="DejaVuSans-29"/>
     </defs>
     <g transform="translate(277.796484 698.673437)scale(0.15 -0.15)">
      <use xlink:href="#DejaVuSans-45"/>
      <use x="63.183594" xlink:href="#DejaVuSans-6e"/>
      <use x="126.5625" xlink:href="#DejaVuSans-65"/>
      <use x="188.085938" xlink:href="#DejaVuSans-72"/>
      <use x="229.183594" xlink:href="#DejaVuSans-67"/>
      <use x="292.660156" xlink:href="#DejaVuSans-79"/>
      <use x="351.839844" xlink:href="#DejaVuSans-20"/>
      <use x="383.626953" xlink:href="#DejaVuSans-28"/>
      <use x="422.640625" xlink:href="#DejaVuSans-4b"/>
      <use x="488.138672" xlink:href="#DejaVuSans-65"/>
      <use x="549.662109" xlink:href="#DejaVuSans-56"/>
      <use x="618.070312" xlink:href="#DejaVuSans-29"/>
     </g>
    </g>
   </g>
   <g id="matplotlib.axis_2">
    <g id="ytick_1">
     <g id="line2d_7">
      <defs>
       <path d="M 0 0 
L -3.5 0 
" id="m12b7cf8977" style="stroke:#000000;stroke-width:0.8;"/>
      </defs>
      <g>
       <use style="stroke:#000000;stroke-width:0.8;" x="39.079688" xlink:href="#m12b7cf8977" y="666.597656"/>
      </g>
     </g>
     <g id="text_8">
      <!-- 0 -->
      <g transform="translate(25.717188 670.396875)scale(0.1 -0.1)">
       <use xlink:href="#DejaVuSans-30"/>
      </g>
     </g>
    </g>
    <g id="ytick_2">
     <g id="line2d_8">
      <g>
       <use style="stroke:#000000;stroke-width:0.8;" x="39.079688" xlink:href="#m12b7cf8977" y="570.597656"/>
      </g>
     </g>
     <g id="text_9">
      <!-- 1 -->
      <g transform="translate(25.717188 574.396875)scale(0.1 -0.1)">
       <use xlink:href="#DejaVuSans-31"/>
      </g>
     </g>
    </g>
    <g id="ytick_3">
     <g id="line2d_9">
      <g>
       <use style="stroke:#000000;stroke-width:0.8;" x="39.079688" xlink:href="#m12b7cf8977" y="474.597656"/>
      </g>
     </g>
     <g id="text_10">
      <!-- 2 -->
      <g transform="translate(25.717188 478.396875)scale(0.1 -0.1)">
       <use xlink:href="#DejaVuSans-32"/>
      </g>
     </g>
    </g>
    <g id="ytick_4">
     <g id="line2d_10">
      <g>
       <use style="stroke:#000000;stroke-width:0.8;" x="39.079688" xlink:href="#m12b7cf8977" y="378.597656"/>
      </g>
     </g>
     <g id="text_11">
      <!-- 3 -->
      <defs>
       <path d="M 40.578125 39.3125 
Q 47.65625 37.796875 51.625 33 
Q 55.609375 28.21875 55.609375 21.1875 
Q 55.609375 10.40625 48.1875 4.484375 
Q 40.765625 -1.421875 27.09375 -1.421875 
Q 22.515625 -1.421875 17.65625 -0.515625 
Q 12.796875 0.390625 7.625 2.203125 
L 7.625 11.71875 
Q 11.71875 9.328125 16.59375 8.109375 
Q 21.484375 6.890625 26.8125 6.890625 
Q 36.078125 6.890625 40.9375 10.546875 
Q 45.796875 14.203125 45.796875 21.1875 
Q 45.796875 27.640625 41.28125 31.265625 
Q 36.765625 34.90625 28.71875 34.90625 
L 20.21875 34.90625 
L 20.21875 43.015625 
L 29.109375 43.015625 
Q 36.375 43.015625 40.234375 45.921875 
Q 44.09375 48.828125 44.09375 54.296875 
Q 44.09375 59.90625 40.109375 62.90625 
Q 36.140625 65.921875 28.71875 65.921875 
Q 24.65625 65.921875 20.015625 65.03125 
Q 15.375 64.15625 9.8125 62.3125 
L 9.8125 71.09375 
Q 15.4375 72.65625 20.34375 73.4375 
Q 25.25 74.21875 29.59375 74.21875 
Q 40.828125 74.21875 47.359375 69.109375 
Q 53.90625 64.015625 53.90625 55.328125 
Q 53.90625 49.265625 50.4375 45.09375 
Q 46.96875 40.921875 40.578125 39.3125 
z
" id="DejaVuSans-33"/>
      </defs>
      <g transform="translate(25.717188 382.396875)scale(0.1 -0.1)">
       <use xlink:href="#DejaVuSans-33"/>
      </g>
     </g>
    </g>
    <g id="ytick_5">
     <g id="line2d_11">
      <g>
       <use style="stroke:#000000;stroke-width:0.8;" x="39.079688" xlink:href="#m12b7cf8977" y="282.597656"/>
      </g>
     </g>
     <g id="text_12">
      <!-- 4 -->
      <g transform="translate(25.717188 286.396875)scale(0.1 -0.1)">
       <use xlink:href="#DejaVuSans-34"/>
      </g>
     </g>
    </g>
    <g id="ytick_6">
     <g id="line2d_12">
      <g>
       <use style="stroke:#000000;stroke-width:0.8;" x="39.079688" xlink:href="#m12b7cf8977" y="186.597656"/>
      </g>
     </g>
     <g id="text_13">
      <!-- 5 -->
      <defs>
       <path d="M 10.796875 72.90625 
L 49.515625 72.90625 
L 49.515625 64.59375 
L 19.828125 64.59375 
L 19.828125 46.734375 
Q 21.96875 47.46875 24.109375 47.828125 
Q 26.265625 48.1875 28.421875 48.1875 
Q 40.625 48.1875 47.75 41.5 
Q 54.890625 34.8125 54.890625 23.390625 
Q 54.890625 11.625 47.5625 5.09375 
Q 40.234375 -1.421875 26.90625 -1.421875 
Q 22.3125 -1.421875 17.546875 -0.640625 
Q 12.796875 0.140625 7.71875 1.703125 
L 7.71875 11.625 
Q 12.109375 9.234375 16.796875 8.0625 
Q 21.484375 6.890625 26.703125 6.890625 
Q 35.15625 6.890625 40.078125 11.328125 
Q 45.015625 15.765625 45.015625 23.390625 
Q 45.015625 31 40.078125 35.4375 
Q 35.15625 39.890625 26.703125 39.890625 
Q 22.75 39.890625 18.8125 39.015625 
Q 14.890625 38.140625 10.796875 36.28125 
z
" id="DejaVuSans-35"/>
      </defs>
      <g transform="translate(25.717188 190.396875)scale(0.1 -0.1)">
       <use xlink:href="#DejaVuSans-35"/>
      </g>
     </g>
    </g>
    <g id="ytick_7">
     <g id="line2d_13">
      <g>
       <use style="stroke:#000000;stroke-width:0.8;" x="39.079688" xlink:href="#m12b7cf8977" y="90.597656"/>
      </g>
     </g>
     <g id="text_14">
      <!-- 6 -->
      <g transform="translate(25.717188 94.396875)scale(0.1 -0.1)">
       <use xlink:href="#DejaVuSans-36"/>
      </g>
     </g>
    </g>
    <g id="text_15">
     <!-- Normalized counts -->
     <defs>
      <path d="M 9.8125 72.90625 
L 23.09375 72.90625 
L 55.421875 11.921875 
L 55.421875 72.90625 
L 64.984375 72.90625 
L 64.984375 0 
L 51.703125 0 
L 19.390625 60.984375 
L 19.390625 0 
L 9.8125 0 
z
" id="DejaVuSans-4e"/>
      <path d="M 30.609375 48.390625 
Q 23.390625 48.390625 19.1875 42.75 
Q 14.984375 37.109375 14.984375 27.296875 
Q 14.984375 17.484375 19.15625 11.84375 
Q 23.34375 6.203125 30.609375 6.203125 
Q 37.796875 6.203125 41.984375 11.859375 
Q 46.1875 17.53125 46.1875 27.296875 
Q 46.1875 37.015625 41.984375 42.703125 
Q 37.796875 48.390625 30.609375 48.390625 
z
M 30.609375 56 
Q 42.328125 56 49.015625 48.375 
Q 55.71875 40.765625 55.71875 27.296875 
Q 55.71875 13.875 49.015625 6.21875 
Q 42.328125 -1.421875 30.609375 -1.421875 
Q 18.84375 -1.421875 12.171875 6.21875 
Q 5.515625 13.875 5.515625 27.296875 
Q 5.515625 40.765625 12.171875 48.375 
Q 18.84375 56 30.609375 56 
z
" id="DejaVuSans-6f"/>
      <path d="M 52 44.1875 
Q 55.375 50.25 60.0625 53.125 
Q 64.75 56 71.09375 56 
Q 79.640625 56 84.28125 50.015625 
Q 88.921875 44.046875 88.921875 33.015625 
L 88.921875 0 
L 79.890625 0 
L 79.890625 32.71875 
Q 79.890625 40.578125 77.09375 44.375 
Q 74.3125 48.1875 68.609375 48.1875 
Q 61.625 48.1875 57.5625 43.546875 
Q 53.515625 38.921875 53.515625 30.90625 
L 53.515625 0 
L 44.484375 0 
L 44.484375 32.71875 
Q 44.484375 40.625 41.703125 44.40625 
Q 38.921875 48.1875 33.109375 48.1875 
Q 26.21875 48.1875 22.15625 43.53125 
Q 18.109375 38.875 18.109375 30.90625 
L 18.109375 0 
L 9.078125 0 
L 9.078125 54.6875 
L 18.109375 54.6875 
L 18.109375 46.1875 
Q 21.1875 51.21875 25.484375 53.609375 
Q 29.78125 56 35.6875 56 
Q 41.65625 56 45.828125 52.96875 
Q 50 49.953125 52 44.1875 
z
" id="DejaVuSans-6d"/>
      <path d="M 34.28125 27.484375 
Q 23.390625 27.484375 19.1875 25 
Q 14.984375 22.515625 14.984375 16.5 
Q 14.984375 11.71875 18.140625 8.90625 
Q 21.296875 6.109375 26.703125 6.109375 
Q 34.1875 6.109375 38.703125 11.40625 
Q 43.21875 16.703125 43.21875 25.484375 
L 43.21875 27.484375 
z
M 52.203125 31.203125 
L 52.203125 0 
L 43.21875 0 
L 43.21875 8.296875 
Q 40.140625 3.328125 35.546875 0.953125 
Q 30.953125 -1.421875 24.3125 -1.421875 
Q 15.921875 -1.421875 10.953125 3.296875 
Q 6 8.015625 6 15.921875 
Q 6 25.140625 12.171875 29.828125 
Q 18.359375 34.515625 30.609375 34.515625 
L 43.21875 34.515625 
L 43.21875 35.40625 
Q 43.21875 41.609375 39.140625 45 
Q 35.0625 48.390625 27.6875 48.390625 
Q 23 48.390625 18.546875 47.265625 
Q 14.109375 46.140625 10.015625 43.890625 
L 10.015625 52.203125 
Q 14.9375 54.109375 19.578125 55.046875 
Q 24.21875 56 28.609375 56 
Q 40.484375 56 46.34375 49.84375 
Q 52.203125 43.703125 52.203125 31.203125 
z
" id="DejaVuSans-61"/>
      <path d="M 9.421875 75.984375 
L 18.40625 75.984375 
L 18.40625 0 
L 9.421875 0 
z
" id="DejaVuSans-6c"/>
      <path d="M 9.421875 54.6875 
L 18.40625 54.6875 
L 18.40625 0 
L 9.421875 0 
z
M 9.421875 75.984375 
L 18.40625 75.984375 
L 18.40625 64.59375 
L 9.421875 64.59375 
z
" id="DejaVuSans-69"/>
      <path d="M 5.515625 54.6875 
L 48.1875 54.6875 
L 48.1875 46.484375 
L 14.40625 7.171875 
L 48.1875 7.171875 
L 48.1875 0 
L 4.296875 0 
L 4.296875 8.203125 
L 38.09375 47.515625 
L 5.515625 47.515625 
z
" id="DejaVuSans-7a"/>
      <path d="M 45.40625 46.390625 
L 45.40625 75.984375 
L 54.390625 75.984375 
L 54.390625 0 
L 45.40625 0 
L 45.40625 8.203125 
Q 42.578125 3.328125 38.25 0.953125 
Q 33.9375 -1.421875 27.875 -1.421875 
Q 17.96875 -1.421875 11.734375 6.484375 
Q 5.515625 14.40625 5.515625 27.296875 
Q 5.515625 40.1875 11.734375 48.09375 
Q 17.96875 56 27.875 56 
Q 33.9375 56 38.25 53.625 
Q 42.578125 51.265625 45.40625 46.390625 
z
M 14.796875 27.296875 
Q 14.796875 17.390625 18.875 11.75 
Q 22.953125 6.109375 30.078125 6.109375 
Q 37.203125 6.109375 41.296875 11.75 
Q 45.40625 17.390625 45.40625 27.296875 
Q 45.40625 37.203125 41.296875 42.84375 
Q 37.203125 48.484375 30.078125 48.484375 
Q 22.953125 48.484375 18.875 42.84375 
Q 14.796875 37.203125 14.796875 27.296875 
z
" id="DejaVuSans-64"/>
      <path d="M 48.78125 52.59375 
L 48.78125 44.1875 
Q 44.96875 46.296875 41.140625 47.34375 
Q 37.3125 48.390625 33.40625 48.390625 
Q 24.65625 48.390625 19.8125 42.84375 
Q 14.984375 37.3125 14.984375 27.296875 
Q 14.984375 17.28125 19.8125 11.734375 
Q 24.65625 6.203125 33.40625 6.203125 
Q 37.3125 6.203125 41.140625 7.25 
Q 44.96875 8.296875 48.78125 10.40625 
L 48.78125 2.09375 
Q 45.015625 0.34375 40.984375 -0.53125 
Q 36.96875 -1.421875 32.421875 -1.421875 
Q 20.0625 -1.421875 12.78125 6.34375 
Q 5.515625 14.109375 5.515625 27.296875 
Q 5.515625 40.671875 12.859375 48.328125 
Q 20.21875 56 33.015625 56 
Q 37.15625 56 41.109375 55.140625 
Q 45.0625 54.296875 48.78125 52.59375 
z
" id="DejaVuSans-63"/>
      <path d="M 8.5 21.578125 
L 8.5 54.6875 
L 17.484375 54.6875 
L 17.484375 21.921875 
Q 17.484375 14.15625 20.5 10.265625 
Q 23.53125 6.390625 29.59375 6.390625 
Q 36.859375 6.390625 41.078125 11.03125 
Q 45.3125 15.671875 45.3125 23.6875 
L 45.3125 54.6875 
L 54.296875 54.6875 
L 54.296875 0 
L 45.3125 0 
L 45.3125 8.40625 
Q 42.046875 3.421875 37.71875 1 
Q 33.40625 -1.421875 27.6875 -1.421875 
Q 18.265625 -1.421875 13.375 4.4375 
Q 8.5 10.296875 8.5 21.578125 
z
M 31.109375 56 
z
" id="DejaVuSans-75"/>
      <path d="M 18.3125 70.21875 
L 18.3125 54.6875 
L 36.8125 54.6875 
L 36.8125 47.703125 
L 18.3125 47.703125 
L 18.3125 18.015625 
Q 18.3125 11.328125 20.140625 9.421875 
Q 21.96875 7.515625 27.59375 7.515625 
L 36.8125 7.515625 
L 36.8125 0 
L 27.59375 0 
Q 17.1875 0 13.234375 3.875 
Q 9.28125 7.765625 9.28125 18.015625 
L 9.28125 47.703125 
L 2.6875 47.703125 
L 2.6875 54.6875 
L 9.28125 54.6875 
L 9.28125 70.21875 
z
" id="DejaVuSans-74"/>
      <path d="M 44.28125 53.078125 
L 44.28125 44.578125 
Q 40.484375 46.53125 36.375 47.5 
Q 32.28125 48.484375 27.875 48.484375 
Q 21.1875 48.484375 17.84375 46.4375 
Q 14.5 44.390625 14.5 40.28125 
Q 14.5 37.15625 16.890625 35.375 
Q 19.28125 33.59375 26.515625 31.984375 
L 29.59375 31.296875 
Q 39.15625 29.25 43.1875 25.515625 
Q 47.21875 21.78125 47.21875 15.09375 
Q 47.21875 7.46875 41.1875 3.015625 
Q 35.15625 -1.421875 24.609375 -1.421875 
Q 20.21875 -1.421875 15.453125 -0.5625 
Q 10.6875 0.296875 5.421875 2 
L 5.421875 11.28125 
Q 10.40625 8.6875 15.234375 7.390625 
Q 20.0625 6.109375 24.8125 6.109375 
Q 31.15625 6.109375 34.5625 8.28125 
Q 37.984375 10.453125 37.984375 14.40625 
Q 37.984375 18.0625 35.515625 20.015625 
Q 33.0625 21.96875 24.703125 23.78125 
L 21.578125 24.515625 
Q 13.234375 26.265625 9.515625 29.90625 
Q 5.8125 33.546875 5.8125 39.890625 
Q 5.8125 47.609375 11.28125 51.796875 
Q 16.75 56 26.8125 56 
Q 31.78125 56 36.171875 55.265625 
Q 40.578125 54.546875 44.28125 53.078125 
z
" id="DejaVuSans-73"/>
     </defs>
     <g transform="translate(18.597656 448.710938)rotate(-90)scale(0.15 -0.15)">
      <use xlink:href="#DejaVuSans-4e"/>
      <use x="74.804688" xlink:href="#DejaVuSans-6f"/>
      <use x="135.986328" xlink:href="#DejaVuSans-72"/>
      <use x="177.083984" xlink:href="#DejaVuSans-6d"/>
      <use x="274.496094" xlink:href="#DejaVuSans-61"/>
      <use x="335.775391" xlink:href="#DejaVuSans-6c"/>
      <use x="363.558594" xlink:href="#DejaVuSans-69"/>
      <use x="391.341797" xlink:href="#DejaVuSans-7a"/>
      <use x="443.832031" xlink:href="#DejaVuSans-65"/>
      <use x="505.355469" xlink:href="#DejaVuSans-64"/>
      <use x="568.832031" xlink:href="#DejaVuSans-20"/>
      <use x="600.619141" xlink:href="#DejaVuSans-63"/>
      <use x="655.599609" xlink:href="#DejaVuSans-6f"/>
      <use x="716.78125" xlink:href="#DejaVuSans-75"/>
      <use x="780.160156" xlink:href="#DejaVuSans-6e"/>
      <use x="843.539062" xlink:href="#DejaVuSans-74"/>
      <use x="882.748047" xlink:href="#DejaVuSans-73"/>
     </g>
    </g>
   </g>
   <g id="patch_3">
    <path d="M 39.079688 666.597656 
L 39.079688 90.597656 
" style="fill:none;stroke:#000000;stroke-linecap:square;stroke-linejoin:miter;stroke-width:0.8;"/>
   </g>
   <g id="patch_4">
    <path d="M 615.079687 666.597656 
L 615.079687 90.597656 
" style="fill:none;stroke:#000000;stroke-linecap:square;stroke-linejoin:miter;stroke-width:0.8;"/>
   </g>
   <g id="patch_5">
    <path d="M 39.079688 666.597656 
L 615.079688 666.597656 
" style="fill:none;stroke:#000000;stroke-linecap:square;stroke-linejoin:miter;stroke-width:0.8;"/>
   </g>
   <g id="patch_6">
    <path d="M 39.079688 90.597656 
L 615.079688 90.597656 
" style="fill:none;stroke:#000000;stroke-linecap:square;stroke-linejoin:miter;stroke-width:0.8;"/>
   </g>
   <g id="patch_7">
    <path d="M 102.904864 115.160765 
Q 89.68377 126.236927 77.319704 136.595104 
" style="fill:none;stroke:#000000;stroke-linecap:round;"/>
    <path d="M 81.67027 135.559453 
L 77.319704 136.595104 
L 79.101523 132.49326 
" style="fill:none;stroke:#000000;stroke-linecap:round;"/>
   </g>
   <g id="text_16">
    <!-- Chlorine Ka1 -->
    <defs>
     <path d="M 64.40625 67.28125 
L 64.40625 56.890625 
Q 59.421875 61.53125 53.78125 63.8125 
Q 48.140625 66.109375 41.796875 66.109375 
Q 29.296875 66.109375 22.65625 58.46875 
Q 16.015625 50.828125 16.015625 36.375 
Q 16.015625 21.96875 22.65625 14.328125 
Q 29.296875 6.6875 41.796875 6.6875 
Q 48.140625 6.6875 53.78125 8.984375 
Q 59.421875 11.28125 64.40625 15.921875 
L 64.40625 5.609375 
Q 59.234375 2.09375 53.4375 0.328125 
Q 47.65625 -1.421875 41.21875 -1.421875 
Q 24.65625 -1.421875 15.125 8.703125 
Q 5.609375 18.84375 5.609375 36.375 
Q 5.609375 53.953125 15.125 64.078125 
Q 24.65625 74.21875 41.21875 74.21875 
Q 47.75 74.21875 53.53125 72.484375 
Q 59.328125 70.75 64.40625 67.28125 
z
" id="DejaVuSans-43"/>
     <path d="M 54.890625 33.015625 
L 54.890625 0 
L 45.90625 0 
L 45.90625 32.71875 
Q 45.90625 40.484375 42.875 44.328125 
Q 39.84375 48.1875 33.796875 48.1875 
Q 26.515625 48.1875 22.3125 43.546875 
Q 18.109375 38.921875 18.109375 30.90625 
L 18.109375 0 
L 9.078125 0 
L 9.078125 75.984375 
L 18.109375 75.984375 
L 18.109375 46.1875 
Q 21.34375 51.125 25.703125 53.5625 
Q 30.078125 56 35.796875 56 
Q 45.21875 56 50.046875 50.171875 
Q 54.890625 44.34375 54.890625 33.015625 
z
" id="DejaVuSans-68"/>
    </defs>
    <g transform="translate(80.689352 109.797656)scale(0.1 -0.1)">
     <use xlink:href="#DejaVuSans-43"/>
     <use x="69.824219" xlink:href="#DejaVuSans-68"/>
     <use x="133.203125" xlink:href="#DejaVuSans-6c"/>
     <use x="160.986328" xlink:href="#DejaVuSans-6f"/>
     <use x="222.167969" xlink:href="#DejaVuSans-72"/>
     <use x="263.28125" xlink:href="#DejaVuSans-69"/>
     <use x="291.064453" xlink:href="#DejaVuSans-6e"/>
     <use x="354.443359" xlink:href="#DejaVuSans-65"/>
     <use x="415.966797" xlink:href="#DejaVuSans-20"/>
     <use x="447.753906" xlink:href="#DejaVuSans-4b"/>
     <use x="513.314453" xlink:href="#DejaVuSans-61"/>
     <use x="574.59375" xlink:href="#DejaVuSans-31"/>
    </g>
   </g>
   <g id="patch_8">
    <path d="M 331.551431 115.29957 
Q 342.383656 126.239034 352.429215 136.384044 
" style="fill:none;stroke:#000000;stroke-linecap:round;"/>
    <path d="M 351.035916 132.134489 
L 352.429215 136.384044 
L 348.193592 134.94895 
" style="fill:none;stroke:#000000;stroke-linecap:round;"/>
   </g>
   <g id="text_17">
    <!-- Nickel Ka1 -->
    <defs>
     <path d="M 9.078125 75.984375 
L 18.109375 75.984375 
L 18.109375 31.109375 
L 44.921875 54.6875 
L 56.390625 54.6875 
L 27.390625 29.109375 
L 57.625 0 
L 45.90625 0 
L 18.109375 26.703125 
L 18.109375 0 
L 9.078125 0 
z
" id="DejaVuSans-6b"/>
    </defs>
    <g transform="translate(297.021127 109.797656)scale(0.1 -0.1)">
     <use xlink:href="#DejaVuSans-4e"/>
     <use x="74.804688" xlink:href="#DejaVuSans-69"/>
     <use x="102.587891" xlink:href="#DejaVuSans-63"/>
     <use x="157.568359" xlink:href="#DejaVuSans-6b"/>
     <use x="215.431641" xlink:href="#DejaVuSans-65"/>
     <use x="276.955078" xlink:href="#DejaVuSans-6c"/>
     <use x="304.738281" xlink:href="#DejaVuSans-20"/>
     <use x="336.525391" xlink:href="#DejaVuSans-4b"/>
     <use x="402.085938" xlink:href="#DejaVuSans-61"/>
     <use x="463.365234" xlink:href="#DejaVuSans-31"/>
    </g>
   </g>
   <g id="patch_9">
    <path d="M 399.363139 115.329744 
Q 409.730841 126.237998 419.328308 136.335858 
" style="fill:none;stroke:#000000;stroke-linecap:round;"/>
    <path d="M 418.022307 132.058667 
L 419.328308 136.335858 
L 415.122955 134.814344 
" style="fill:none;stroke:#000000;stroke-linecap:round;"/>
   </g>
   <g id="text_18">
    <!-- Zinc Ka1 -->
    <defs>
     <path d="M 5.609375 72.90625 
L 62.890625 72.90625 
L 62.890625 65.375 
L 16.796875 8.296875 
L 64.015625 8.296875 
L 64.015625 0 
L 4.5 0 
L 4.5 7.515625 
L 50.59375 64.59375 
L 5.609375 64.59375 
z
" id="DejaVuSans-5a"/>
    </defs>
    <g transform="translate(369.638024 109.797656)scale(0.1 -0.1)">
     <use xlink:href="#DejaVuSans-5a"/>
     <use x="68.505859" xlink:href="#DejaVuSans-69"/>
     <use x="96.289062" xlink:href="#DejaVuSans-6e"/>
     <use x="159.667969" xlink:href="#DejaVuSans-63"/>
     <use x="214.648438" xlink:href="#DejaVuSans-20"/>
     <use x="246.435547" xlink:href="#DejaVuSans-4b"/>
     <use x="311.996094" xlink:href="#DejaVuSans-61"/>
     <use x="373.275391" xlink:href="#DejaVuSans-31"/>
    </g>
   </g>
   <g id="patch_10">
    <path d="M 453.193795 115.329744 
Q 463.523152 126.237998 473.083774 136.334435 
" style="fill:none;stroke:#000000;stroke-linecap:round;"/>
    <path d="M 471.785689 132.054835 
L 473.083774 136.334435 
L 468.881243 134.805143 
" style="fill:none;stroke:#000000;stroke-linecap:round;"/>
   </g>
   <g id="text_19">
    <!-- Zinc Kb1 -->
    <defs>
     <path d="M 48.6875 27.296875 
Q 48.6875 37.203125 44.609375 42.84375 
Q 40.53125 48.484375 33.40625 48.484375 
Q 26.265625 48.484375 22.1875 42.84375 
Q 18.109375 37.203125 18.109375 27.296875 
Q 18.109375 17.390625 22.1875 11.75 
Q 26.265625 6.109375 33.40625 6.109375 
Q 40.53125 6.109375 44.609375 11.75 
Q 48.6875 17.390625 48.6875 27.296875 
z
M 18.109375 46.390625 
Q 20.953125 51.265625 25.265625 53.625 
Q 29.59375 56 35.59375 56 
Q 45.5625 56 51.78125 48.09375 
Q 58.015625 40.1875 58.015625 27.296875 
Q 58.015625 14.40625 51.78125 6.484375 
Q 45.5625 -1.421875 35.59375 -1.421875 
Q 29.59375 -1.421875 25.265625 0.953125 
Q 20.953125 3.328125 18.109375 8.203125 
L 18.109375 0 
L 9.078125 0 
L 9.078125 75.984375 
L 18.109375 75.984375 
z
" id="DejaVuSans-62"/>
    </defs>
    <g transform="translate(423.386888 109.797656)scale(0.1 -0.1)">
     <use xlink:href="#DejaVuSans-5a"/>
     <use x="68.505859" xlink:href="#DejaVuSans-69"/>
     <use x="96.289062" xlink:href="#DejaVuSans-6e"/>
     <use x="159.667969" xlink:href="#DejaVuSans-63"/>
     <use x="214.648438" xlink:href="#DejaVuSans-20"/>
     <use x="246.435547" xlink:href="#DejaVuSans-4b"/>
     <use x="312.011719" xlink:href="#DejaVuSans-62"/>
     <use x="375.488281" xlink:href="#DejaVuSans-31"/>
    </g>
   </g>
   <g id="text_20">
    <!-- A -->
    <defs>
     <path d="M 34.1875 63.1875 
L 20.796875 26.90625 
L 47.609375 26.90625 
z
M 28.609375 72.90625 
L 39.796875 72.90625 
L 67.578125 0 
L 57.328125 0 
L 50.6875 18.703125 
L 17.828125 18.703125 
L 11.1875 0 
L 0.78125 0 
z
" id="DejaVuSans-41"/>
    </defs>
    <g transform="translate(0 70.523789)scale(0.15 -0.15)">
     <use xlink:href="#DejaVuSans-41"/>
    </g>
   </g>
   <g id="line2d_14">
    <path clip-path="url(#p0d4c13bb90)" d="M 38.359688 666.597656 
L 44.119688 666.597656 
L 45.559688 666.131637 
L 46.999688 666.597656 
L 49.879688 665.665617 
L 51.319688 664.733579 
L 52.759688 665.199598 
L 54.199688 665.432608 
L 55.639688 663.102511 
L 57.079688 662.636491 
L 59.959688 662.170472 
L 61.399688 658.675326 
L 62.839688 657.976297 
L 64.279688 652.151054 
L 65.719688 647.49086 
L 67.159688 641.432608 
L 70.039688 610.209307 
L 71.479688 603.452025 
L 72.919688 589.471443 
L 74.359688 577.121928 
L 75.799688 573.626782 
L 77.239688 570.597656 
L 80.119688 594.597656 
L 81.559688 607.87921 
L 82.999688 624.655909 
L 84.439688 630.248142 
L 87.319688 638.403481 
L 88.759688 647.72387 
L 90.199688 644.927753 
L 93.079688 655.41319 
L 94.519688 658.209307 
L 95.959688 658.908336 
L 97.399688 662.869501 
L 98.839688 661.937462 
L 100.279688 664.733579 
L 101.719688 663.56853 
L 103.159688 663.56853 
L 104.599688 665.432608 
L 106.039688 665.199598 
L 107.479688 664.267559 
L 108.919688 665.665617 
L 110.359688 665.665617 
L 111.799688 665.432608 
L 113.239688 666.131637 
L 114.679688 665.665617 
L 116.119688 664.966588 
L 117.559688 665.665617 
L 118.999688 666.131637 
L 120.439688 665.665617 
L 121.879688 666.597656 
L 123.319688 664.733579 
L 124.759688 665.199598 
L 126.199688 665.898627 
L 127.639688 664.034549 
L 129.079688 664.267559 
L 130.519688 664.034549 
L 131.959688 661.238433 
L 133.399688 661.704452 
L 134.839688 661.937462 
L 136.279688 659.840375 
L 137.719688 660.073384 
L 139.159688 660.073384 
L 140.599688 659.374355 
L 142.039688 661.471443 
L 143.479688 662.403481 
L 144.919688 664.733579 
L 146.359688 664.034549 
L 147.799688 665.432608 
L 149.239688 664.966588 
L 150.679688 665.199598 
L 152.119687 664.733579 
L 153.559688 664.966588 
L 154.999688 666.131637 
L 156.439688 664.966588 
L 157.879688 664.500569 
L 159.319688 665.199598 
L 160.759688 665.665617 
L 162.199688 665.665617 
L 163.639688 665.898627 
L 165.079688 665.898627 
L 166.519688 665.432608 
L 167.959688 666.364647 
L 169.399688 665.898627 
L 172.279688 665.898627 
L 173.719688 666.364647 
L 175.159688 665.898627 
L 176.599688 665.898627 
L 178.039688 666.364647 
L 179.479688 665.432608 
L 180.919688 665.898627 
L 182.359688 665.199598 
L 183.799688 664.733579 
L 185.239688 664.733579 
L 186.679688 665.432608 
L 188.119687 666.364647 
L 189.559687 665.898627 
L 190.999687 665.665617 
L 192.439687 666.364647 
L 193.879687 666.597656 
L 195.319687 665.432608 
L 196.759688 666.131637 
L 198.199688 666.364647 
L 201.079688 665.898627 
L 202.519688 666.131637 
L 203.959688 666.597656 
L 205.399688 666.364647 
L 206.839688 666.597656 
L 208.279688 666.131637 
L 209.719688 666.131637 
L 211.159688 665.665617 
L 212.599688 665.665617 
L 214.039688 666.131637 
L 215.479688 665.665617 
L 216.919688 665.898627 
L 218.359688 666.597656 
L 219.799688 666.597656 
L 221.239688 666.131637 
L 222.679688 665.898627 
L 224.119687 666.131637 
L 225.559687 665.898627 
L 226.999687 665.898627 
L 228.439687 665.199598 
L 229.879688 665.665617 
L 231.319688 665.432608 
L 232.759688 666.364647 
L 234.199688 665.898627 
L 235.639688 665.665617 
L 241.399688 665.665617 
L 242.839688 666.364647 
L 245.719688 666.364647 
L 247.159688 666.131637 
L 248.599688 666.597656 
L 250.039688 666.131637 
L 251.479688 666.364647 
L 252.919688 666.131637 
L 254.359688 666.364647 
L 258.679688 666.364647 
L 260.119687 664.966588 
L 261.559687 666.131637 
L 262.999687 666.597656 
L 264.439688 666.131637 
L 265.879688 666.131637 
L 267.319688 666.597656 
L 268.759688 666.597656 
L 270.199688 666.131637 
L 271.639688 666.597656 
L 273.079688 665.665617 
L 274.519688 666.597656 
L 275.959688 666.131637 
L 277.399688 666.364647 
L 278.839688 665.432608 
L 280.279688 666.131637 
L 281.719688 665.199598 
L 283.159688 664.966588 
L 284.599688 664.500569 
L 286.039688 664.966588 
L 287.479688 664.500569 
L 288.919688 663.102511 
L 290.359688 664.267559 
L 291.799688 660.539404 
L 293.239688 661.937462 
L 294.679688 661.704452 
L 296.119687 663.33552 
L 297.559687 663.33552 
L 298.999688 663.102511 
L 301.879688 665.432608 
L 303.319688 664.733579 
L 304.759688 664.500569 
L 306.199688 665.665617 
L 307.639688 666.364647 
L 309.079688 666.131637 
L 310.519688 665.432608 
L 313.399688 666.364647 
L 314.839688 666.364647 
L 316.279688 666.597656 
L 317.719688 666.131637 
L 319.159688 666.364647 
L 320.599688 665.898627 
L 322.039688 665.665617 
L 323.479688 665.199598 
L 324.919688 665.665617 
L 326.359688 665.432608 
L 327.799688 664.733579 
L 329.239688 664.733579 
L 330.679688 665.665617 
L 332.119688 665.432608 
L 333.559688 665.432608 
L 334.999688 666.131637 
L 336.439688 666.364647 
L 339.319688 666.364647 
L 340.759688 666.597656 
L 342.199688 666.364647 
L 343.639688 665.665617 
L 345.079688 666.131637 
L 346.519688 666.131637 
L 347.959688 665.898627 
L 349.399688 665.432608 
L 350.839688 666.131637 
L 352.279688 664.733579 
L 353.719688 665.898627 
L 355.159688 664.966588 
L 356.599688 666.131637 
L 358.039688 665.665617 
L 359.479688 666.131637 
L 360.919688 664.733579 
L 362.359688 666.597656 
L 363.799688 666.131637 
L 365.239688 666.131637 
L 366.679688 665.432608 
L 368.119688 666.131637 
L 369.559688 666.364647 
L 370.999688 665.898627 
L 373.879688 665.898627 
L 375.319688 666.364647 
L 376.759688 666.131637 
L 378.199688 666.364647 
L 379.639688 666.364647 
L 381.079688 666.597656 
L 382.519688 665.898627 
L 383.959688 664.966588 
L 385.399688 666.131637 
L 386.839688 664.733579 
L 388.279688 665.199598 
L 391.159688 664.733579 
L 392.599688 665.898627 
L 394.039688 666.131637 
L 395.479688 665.432608 
L 396.919688 665.665617 
L 398.359688 663.33552 
L 399.799688 664.500569 
L 401.239688 664.500569 
L 402.679688 662.403481 
L 404.119688 661.471443 
L 405.559688 659.840375 
L 406.999688 654.714161 
L 409.879688 646.092802 
L 412.759688 626.752996 
L 414.199688 618.597656 
L 415.639688 602.519986 
L 417.079688 593.199598 
L 418.519688 580.850083 
L 419.959688 573.160763 
L 421.399688 575.49086 
L 422.839688 564.772414 
L 424.279688 577.121928 
L 425.719688 595.296685 
L 427.159688 611.607365 
L 428.599688 624.888918 
L 430.039688 629.549113 
L 431.479688 636.306394 
L 432.919688 641.199598 
L 434.359688 647.024841 
L 435.799688 656.112219 
L 437.239688 654.248142 
L 440.119687 661.238433 
L 441.559688 662.170472 
L 442.999687 661.238433 
L 445.879687 664.500569 
L 447.319688 664.267559 
L 448.759687 663.80154 
L 450.199688 665.665617 
L 451.639688 665.665617 
L 453.079688 664.500569 
L 454.519688 665.898627 
L 455.959688 665.665617 
L 457.399688 664.966588 
L 458.839688 664.500569 
L 460.279688 664.267559 
L 463.159688 664.733579 
L 464.599688 662.636491 
L 466.039688 661.005423 
L 467.479688 660.772414 
L 468.919688 656.578239 
L 470.359688 653.782122 
L 471.799688 656.112219 
L 473.239688 653.782122 
L 474.679688 656.345229 
L 476.119687 654.248142 
L 477.559688 654.248142 
L 478.999687 657.044258 
L 480.439688 657.044258 
L 481.879687 657.277268 
L 483.319688 661.238433 
L 484.759687 661.471443 
L 486.199688 662.636491 
L 487.639688 661.937462 
L 489.079688 663.56853 
L 490.519688 664.733579 
L 491.959688 664.267559 
L 493.399688 666.131637 
L 494.839688 665.898627 
L 496.279688 665.898627 
L 497.719688 665.199598 
L 499.159688 665.665617 
L 500.599688 665.898627 
L 502.039688 665.665617 
L 503.479688 665.665617 
L 504.919688 666.364647 
L 506.359688 666.131637 
L 513.559688 666.131637 
L 514.999688 665.665617 
L 516.439688 666.131637 
L 517.879688 665.665617 
L 519.319688 665.898627 
L 520.759688 664.966588 
L 522.199688 666.364647 
L 523.639688 665.665617 
L 525.079688 663.80154 
L 526.519688 665.898627 
L 529.399688 664.034549 
L 532.279688 665.432608 
L 533.719688 664.966588 
L 535.159688 664.034549 
L 536.599688 663.56853 
L 538.039688 664.966588 
L 539.479688 665.199598 
L 540.919688 664.966588 
L 542.359688 664.966588 
L 543.799688 665.665617 
L 545.239688 665.199598 
L 546.679688 666.364647 
L 548.119688 665.898627 
L 549.559688 666.131637 
L 550.999688 665.898627 
L 552.439688 666.364647 
L 555.319688 664.966588 
L 556.759688 666.131637 
L 559.639688 666.131637 
L 561.079688 665.665617 
L 562.519688 665.898627 
L 563.959688 665.199598 
L 565.399688 665.432608 
L 566.839688 666.364647 
L 568.279688 665.432608 
L 569.719688 665.898627 
L 572.599688 665.432608 
L 574.039688 665.665617 
L 575.479688 665.432608 
L 576.919688 666.131637 
L 578.359688 666.364647 
L 579.799688 665.199598 
L 581.239688 664.733579 
L 582.679688 664.966588 
L 584.119688 665.432608 
L 585.559688 666.364647 
L 586.999688 664.733579 
L 588.439688 664.500569 
L 589.879688 665.199598 
L 591.319688 664.733579 
L 592.759688 665.898627 
L 594.199688 664.500569 
L 595.639688 664.733579 
L 597.079688 664.267559 
L 598.519688 664.966588 
L 599.959688 662.636491 
L 601.399688 664.034549 
L 602.839688 662.403481 
L 604.279688 662.636491 
L 605.719688 664.034549 
L 607.159688 664.500569 
L 608.599688 661.005423 
L 610.039688 662.403481 
L 612.919688 661.937462 
L 614.359688 665.199598 
L 615.799688 663.102511 
L 615.799688 663.102511 
" style="fill:none;stroke:#1f77b4;stroke-linecap:square;stroke-width:1.5;"/>
   </g>
   <g id="line2d_15">
    <path clip-path="url(#p0d4c13bb90)" d="M 38.359688 474.597656 
L 51.319688 474.597656 
L 52.759688 471.169085 
L 54.199688 460.883371 
L 55.639688 471.169085 
L 57.079688 464.311942 
L 58.519688 471.169085 
L 59.959688 460.883371 
L 61.399688 471.169085 
L 64.279688 457.454799 
L 65.719688 440.311942 
L 67.159688 440.311942 
L 68.599688 430.026228 
L 70.039688 433.454799 
L 71.479688 388.883371 
L 72.919688 388.883371 
L 74.359688 395.740513 
L 75.799688 378.597656 
L 77.239688 388.883371 
L 78.679688 385.454799 
L 80.119688 395.740513 
L 81.559688 423.169085 
L 82.999688 436.883371 
L 84.439688 423.169085 
L 85.879688 426.597656 
L 87.319688 440.311942 
L 88.759688 436.883371 
L 90.199688 447.169085 
L 91.639688 454.026228 
L 93.079688 457.454799 
L 94.519688 450.597656 
L 95.959688 471.169085 
L 97.399688 464.311942 
L 98.839688 460.883371 
L 100.279688 471.169085 
L 101.719688 471.169085 
L 104.599688 464.311942 
L 106.039688 474.597656 
L 107.479688 471.169085 
L 108.919688 474.597656 
L 110.359688 471.169085 
L 111.799688 474.597656 
L 113.239688 471.169085 
L 116.119688 471.169085 
L 117.559688 467.740513 
L 118.999688 471.169085 
L 120.439688 471.169085 
L 121.879688 474.597656 
L 129.079688 474.597656 
L 130.519688 471.169085 
L 131.959688 474.597656 
L 133.399688 471.169085 
L 134.839688 474.597656 
L 137.719688 467.740513 
L 139.159688 471.169085 
L 140.599688 467.740513 
L 142.039688 471.169085 
L 143.479688 471.169085 
L 144.919688 474.597656 
L 146.359688 474.597656 
L 149.239688 467.740513 
L 150.679688 474.597656 
L 152.119687 471.169085 
L 153.559688 474.597656 
L 154.999688 471.169085 
L 157.879688 471.169085 
L 159.319688 474.597656 
L 160.759688 471.169085 
L 162.199688 474.597656 
L 165.079688 467.740513 
L 166.519688 471.169085 
L 170.839688 471.169085 
L 172.279688 474.597656 
L 173.719688 471.169085 
L 175.159688 474.597656 
L 178.039688 467.740513 
L 180.919688 474.597656 
L 183.799688 474.597656 
L 185.239688 467.740513 
L 186.679688 471.169085 
L 188.119687 471.169085 
L 189.559687 467.740513 
L 190.999687 474.597656 
L 192.439687 471.169085 
L 193.879687 474.597656 
L 195.319687 471.169085 
L 196.759688 474.597656 
L 203.959688 474.597656 
L 205.399688 471.169085 
L 206.839688 471.169085 
L 208.279688 474.597656 
L 209.719688 474.597656 
L 211.159688 467.740513 
L 214.039688 474.597656 
L 221.239688 474.597656 
L 222.679688 471.169085 
L 224.119687 474.597656 
L 226.999687 474.597656 
L 228.439687 471.169085 
L 229.879688 474.597656 
L 237.079688 474.597656 
L 238.519688 471.169085 
L 239.959688 471.169085 
L 241.399688 474.597656 
L 245.719688 474.597656 
L 247.159688 471.169085 
L 248.599688 474.597656 
L 250.039688 467.740513 
L 251.479688 474.597656 
L 252.919688 471.169085 
L 254.359688 474.597656 
L 255.799688 471.169085 
L 257.239688 474.597656 
L 260.119687 474.597656 
L 261.559687 471.169085 
L 262.999687 471.169085 
L 264.439688 474.597656 
L 265.879688 474.597656 
L 267.319688 471.169085 
L 268.759688 471.169085 
L 270.199688 467.740513 
L 271.639688 474.597656 
L 275.959688 474.597656 
L 278.839688 467.740513 
L 280.279688 474.597656 
L 281.719688 474.597656 
L 284.599688 467.740513 
L 286.039688 474.597656 
L 287.479688 471.169085 
L 288.919688 464.311942 
L 290.359688 474.597656 
L 291.799688 464.311942 
L 294.679688 464.311942 
L 297.559687 471.169085 
L 298.999688 460.883371 
L 301.879688 474.597656 
L 303.319688 471.169085 
L 304.759688 474.597656 
L 306.199688 474.597656 
L 307.639688 471.169085 
L 309.079688 474.597656 
L 311.959688 474.597656 
L 313.399688 471.169085 
L 314.839688 471.169085 
L 316.279688 474.597656 
L 320.599688 474.597656 
L 322.039688 471.169085 
L 323.479688 471.169085 
L 324.919688 474.597656 
L 327.799688 467.740513 
L 329.239688 474.597656 
L 334.999688 474.597656 
L 336.439688 471.169085 
L 337.879688 474.597656 
L 339.319688 467.740513 
L 343.639688 467.740513 
L 345.079688 471.169085 
L 346.519688 467.740513 
L 347.959688 467.740513 
L 349.399688 450.597656 
L 350.839688 454.026228 
L 352.279688 467.740513 
L 353.719688 450.597656 
L 355.159688 440.311942 
L 356.599688 457.454799 
L 358.039688 454.026228 
L 359.479688 447.169085 
L 360.919688 450.597656 
L 362.359688 464.311942 
L 363.799688 474.597656 
L 365.239688 460.883371 
L 366.679688 474.597656 
L 368.119688 471.169085 
L 369.559688 471.169085 
L 370.999688 474.597656 
L 372.439688 474.597656 
L 373.879688 471.169085 
L 375.319688 474.597656 
L 376.759688 471.169085 
L 381.079688 471.169085 
L 382.519688 467.740513 
L 383.959688 467.740513 
L 385.399688 471.169085 
L 386.839688 471.169085 
L 388.279688 474.597656 
L 389.719688 471.169085 
L 391.159688 474.597656 
L 392.599688 474.597656 
L 394.039688 467.740513 
L 395.479688 471.169085 
L 396.919688 471.169085 
L 398.359688 467.740513 
L 399.799688 467.740513 
L 401.239688 471.169085 
L 402.679688 460.883371 
L 404.119688 464.311942 
L 405.559688 457.454799 
L 406.999688 464.311942 
L 408.439688 450.597656 
L 409.879688 457.454799 
L 411.319688 454.026228 
L 412.759688 433.454799 
L 414.199688 426.597656 
L 415.639688 423.169085 
L 417.079688 395.740513 
L 418.519688 395.740513 
L 419.959688 316.883371 
L 421.399688 399.169085 
L 422.839688 395.740513 
L 424.279688 406.026228 
L 425.719688 426.597656 
L 427.159688 460.883371 
L 428.599688 443.740513 
L 430.039688 436.883371 
L 431.479688 443.740513 
L 432.919688 443.740513 
L 434.359688 464.311942 
L 435.799688 467.740513 
L 437.239688 460.883371 
L 438.679688 467.740513 
L 440.119687 467.740513 
L 441.559688 464.311942 
L 442.999687 471.169085 
L 444.439688 464.311942 
L 445.879687 474.597656 
L 447.319688 471.169085 
L 448.759687 464.311942 
L 450.199688 471.169085 
L 451.639688 474.597656 
L 453.079688 474.597656 
L 454.519688 467.740513 
L 455.959688 467.740513 
L 457.399688 474.597656 
L 458.839688 467.740513 
L 461.719688 460.883371 
L 463.159688 471.169085 
L 464.599688 467.740513 
L 466.039688 467.740513 
L 468.919688 460.883371 
L 470.359688 464.311942 
L 473.239688 464.311942 
L 474.679688 460.883371 
L 476.119687 464.311942 
L 477.559688 454.026228 
L 478.999687 471.169085 
L 480.439688 460.883371 
L 481.879687 471.169085 
L 483.319688 454.026228 
L 484.759687 474.597656 
L 486.199688 474.597656 
L 487.639688 471.169085 
L 489.079688 474.597656 
L 491.959688 467.740513 
L 493.399688 474.597656 
L 494.839688 467.740513 
L 496.279688 471.169085 
L 497.719688 471.169085 
L 499.159688 474.597656 
L 500.599688 474.597656 
L 502.039688 471.169085 
L 506.359688 471.169085 
L 507.799688 467.740513 
L 509.239688 474.597656 
L 510.679688 471.169085 
L 512.119688 471.169085 
L 513.559688 474.597656 
L 514.999688 471.169085 
L 516.439688 471.169085 
L 517.879688 467.740513 
L 519.319688 471.169085 
L 520.759688 464.311942 
L 523.639688 471.169085 
L 526.519688 457.454799 
L 529.399688 464.311942 
L 530.839688 460.883371 
L 532.279688 467.740513 
L 533.719688 460.883371 
L 535.159688 471.169085 
L 538.039688 464.311942 
L 540.919688 471.169085 
L 543.799688 464.311942 
L 545.239688 467.740513 
L 546.679688 464.311942 
L 548.119688 467.740513 
L 550.999688 467.740513 
L 552.439688 460.883371 
L 553.879688 474.597656 
L 555.319688 467.740513 
L 556.759688 467.740513 
L 558.199688 474.597656 
L 562.519688 464.311942 
L 563.959688 471.169085 
L 565.399688 464.311942 
L 566.839688 467.740513 
L 569.719688 467.740513 
L 571.159688 474.597656 
L 572.599688 471.169085 
L 574.039688 457.454799 
L 575.479688 464.311942 
L 576.919688 464.311942 
L 578.359688 457.454799 
L 579.799688 471.169085 
L 581.239688 467.740513 
L 582.679688 460.883371 
L 584.119688 464.311942 
L 586.999688 450.597656 
L 588.439688 447.169085 
L 589.879688 457.454799 
L 591.319688 460.883371 
L 592.759688 467.740513 
L 595.639688 460.883371 
L 597.079688 460.883371 
L 598.519688 471.169085 
L 599.959688 464.311942 
L 601.399688 454.026228 
L 602.839688 447.169085 
L 604.279688 450.597656 
L 605.719688 447.169085 
L 607.159688 450.597656 
L 608.599688 447.169085 
L 610.039688 460.883371 
L 611.479688 450.597656 
L 612.919688 447.169085 
L 614.359688 447.169085 
L 615.799688 443.740513 
L 615.799688 443.740513 
" style="fill:none;stroke:#ff7f0e;stroke-linecap:square;stroke-width:1.5;"/>
   </g>
   <g id="line2d_16">
    <path clip-path="url(#p0d4c13bb90)" d="M 38.359688 282.597656 
L 46.999688 282.597656 
L 48.439688 280.769085 
L 49.879688 282.597656 
L 52.759688 280.769085 
L 54.199688 278.026228 
L 55.639688 280.769085 
L 57.079688 278.940513 
L 58.519688 280.769085 
L 61.399688 275.283371 
L 62.839688 276.197656 
L 64.279688 267.969085 
L 65.719688 256.083371 
L 67.159688 257.911942 
L 68.599688 247.854799 
L 70.039688 236.883371 
L 71.479688 230.483371 
L 72.919688 213.111942 
L 74.359688 212.197656 
L 75.799688 208.540513 
L 77.239688 186.597656 
L 78.679688 211.283371 
L 81.559688 233.226228 
L 82.999688 242.369085 
L 84.439688 238.711942 
L 85.879688 254.254799 
L 87.319688 262.483371 
L 88.759688 257.911942 
L 90.199688 264.311942 
L 91.639688 267.969085 
L 93.079688 266.140513 
L 94.519688 273.454799 
L 95.959688 272.540513 
L 98.839688 278.026228 
L 100.279688 274.369085 
L 101.719688 278.940513 
L 103.159688 282.597656 
L 104.599688 280.769085 
L 106.039688 279.854799 
L 107.479688 281.683371 
L 108.919688 279.854799 
L 110.359688 281.683371 
L 113.239688 281.683371 
L 114.679688 280.769085 
L 116.119688 282.597656 
L 118.999688 278.940513 
L 120.439688 281.683371 
L 121.879688 282.597656 
L 123.319688 280.769085 
L 124.759688 281.683371 
L 126.199688 278.940513 
L 129.079688 282.597656 
L 130.519688 279.854799 
L 131.959688 280.769085 
L 133.399688 282.597656 
L 134.839688 279.854799 
L 136.279688 279.854799 
L 137.719688 280.769085 
L 140.599688 280.769085 
L 142.039688 281.683371 
L 144.919688 279.854799 
L 146.359688 280.769085 
L 147.799688 280.769085 
L 149.239688 282.597656 
L 150.679688 281.683371 
L 152.119687 279.854799 
L 153.559688 281.683371 
L 154.999688 280.769085 
L 156.439688 280.769085 
L 157.879688 282.597656 
L 159.319688 282.597656 
L 160.759688 280.769085 
L 162.199688 281.683371 
L 163.639688 280.769085 
L 166.519688 282.597656 
L 167.959688 280.769085 
L 169.399688 281.683371 
L 170.839688 281.683371 
L 172.279688 278.940513 
L 173.719688 282.597656 
L 175.159688 280.769085 
L 176.599688 277.111942 
L 178.039688 277.111942 
L 179.479688 273.454799 
L 180.919688 270.711942 
L 183.799688 274.369085 
L 185.239688 269.797656 
L 186.679688 268.883371 
L 188.119687 269.797656 
L 189.559687 276.197656 
L 190.999687 277.111942 
L 192.439687 277.111942 
L 193.879687 279.854799 
L 195.319687 275.283371 
L 196.759688 279.854799 
L 198.199688 280.769085 
L 199.639688 280.769085 
L 201.079688 281.683371 
L 202.519688 281.683371 
L 203.959688 280.769085 
L 205.399688 280.769085 
L 206.839688 279.854799 
L 208.279688 278.026228 
L 211.159688 279.854799 
L 212.599688 282.597656 
L 214.039688 279.854799 
L 215.479688 281.683371 
L 216.919688 280.769085 
L 218.359688 280.769085 
L 219.799688 282.597656 
L 222.679688 280.769085 
L 224.119687 281.683371 
L 226.999687 281.683371 
L 228.439687 278.026228 
L 229.879688 278.940513 
L 231.319688 278.026228 
L 232.759688 281.683371 
L 234.199688 278.026228 
L 235.639688 278.026228 
L 237.079688 277.111942 
L 238.519688 278.026228 
L 239.959688 277.111942 
L 241.399688 278.026228 
L 242.839688 280.769085 
L 244.279688 278.026228 
L 245.719688 279.854799 
L 250.039688 279.854799 
L 251.479688 282.597656 
L 252.919688 279.854799 
L 254.359688 279.854799 
L 257.239688 281.683371 
L 258.679688 279.854799 
L 260.119687 281.683371 
L 261.559687 281.683371 
L 262.999687 280.769085 
L 264.439688 281.683371 
L 267.319688 281.683371 
L 268.759688 279.854799 
L 270.199688 282.597656 
L 271.639688 281.683371 
L 273.079688 281.683371 
L 274.519688 280.769085 
L 275.959688 281.683371 
L 277.399688 278.026228 
L 278.839688 282.597656 
L 280.279688 280.769085 
L 281.719688 280.769085 
L 283.159688 281.683371 
L 284.599688 269.797656 
L 286.039688 270.711942 
L 287.479688 273.454799 
L 288.919688 268.883371 
L 290.359688 271.626228 
L 291.799688 267.054799 
L 293.239688 263.397656 
L 294.679688 267.054799 
L 296.119687 263.397656 
L 297.559687 273.454799 
L 298.999688 275.283371 
L 300.439688 278.940513 
L 301.879688 276.197656 
L 303.319688 281.683371 
L 304.759688 281.683371 
L 306.199688 275.283371 
L 307.639688 281.683371 
L 309.079688 282.597656 
L 310.519688 281.683371 
L 311.959688 278.940513 
L 313.399688 278.940513 
L 314.839688 278.026228 
L 316.279688 282.597656 
L 317.719688 280.769085 
L 319.159688 280.769085 
L 320.599688 279.854799 
L 322.039688 279.854799 
L 323.479688 281.683371 
L 324.919688 278.940513 
L 326.359688 279.854799 
L 327.799688 279.854799 
L 329.239688 281.683371 
L 330.679688 276.197656 
L 332.119688 278.026228 
L 333.559688 281.683371 
L 334.999688 280.769085 
L 336.439688 278.940513 
L 337.879688 281.683371 
L 339.319688 280.769085 
L 340.759688 278.026228 
L 342.199688 280.769085 
L 345.079688 280.769085 
L 346.519688 281.683371 
L 347.959688 280.769085 
L 349.399688 281.683371 
L 350.839688 278.940513 
L 353.719688 277.111942 
L 355.159688 277.111942 
L 359.479688 279.854799 
L 360.919688 278.940513 
L 362.359688 278.940513 
L 363.799688 279.854799 
L 365.239688 281.683371 
L 369.559688 281.683371 
L 370.999688 282.597656 
L 375.319688 282.597656 
L 376.759688 281.683371 
L 378.199688 278.940513 
L 379.639688 281.683371 
L 383.959688 281.683371 
L 385.399688 280.769085 
L 386.839688 282.597656 
L 388.279688 281.683371 
L 389.719688 278.940513 
L 391.159688 280.769085 
L 394.039688 282.597656 
L 396.919688 280.769085 
L 399.799688 282.597656 
L 401.239688 279.854799 
L 404.119688 278.026228 
L 405.559688 282.597656 
L 406.999688 279.854799 
L 408.439688 279.854799 
L 409.879688 280.769085 
L 411.319688 277.111942 
L 412.759688 280.769085 
L 414.199688 278.026228 
L 415.639688 277.111942 
L 417.079688 280.769085 
L 418.519688 274.369085 
L 419.959688 270.711942 
L 421.399688 268.883371 
L 422.839688 271.626228 
L 424.279688 273.454799 
L 425.719688 276.197656 
L 427.159688 277.111942 
L 428.599688 278.940513 
L 430.039688 279.854799 
L 432.919688 279.854799 
L 434.359688 281.683371 
L 437.239688 281.683371 
L 438.679688 278.940513 
L 440.119687 279.854799 
L 441.559688 282.597656 
L 442.999687 280.769085 
L 444.439688 281.683371 
L 447.319688 281.683371 
L 448.759687 282.597656 
L 450.199688 282.597656 
L 451.639688 279.854799 
L 453.079688 278.026228 
L 454.519688 279.854799 
L 457.399688 281.683371 
L 458.839688 281.683371 
L 460.279688 277.111942 
L 461.719688 278.026228 
L 464.599688 281.683371 
L 466.039688 281.683371 
L 467.479688 282.597656 
L 468.919688 280.769085 
L 470.359688 279.854799 
L 471.799688 279.854799 
L 473.239688 281.683371 
L 474.679688 278.940513 
L 476.119687 280.769085 
L 477.559688 278.026228 
L 478.999687 282.597656 
L 480.439688 281.683371 
L 481.879687 278.940513 
L 483.319688 281.683371 
L 487.639688 281.683371 
L 489.079688 278.026228 
L 490.519688 280.769085 
L 493.399688 282.597656 
L 494.839688 279.854799 
L 496.279688 278.026228 
L 497.719688 281.683371 
L 499.159688 282.597656 
L 500.599688 279.854799 
L 502.039688 282.597656 
L 503.479688 282.597656 
L 504.919688 281.683371 
L 506.359688 282.597656 
L 507.799688 282.597656 
L 509.239688 278.940513 
L 510.679688 280.769085 
L 512.119688 278.940513 
L 513.559688 280.769085 
L 514.999688 280.769085 
L 516.439688 278.026228 
L 517.879688 281.683371 
L 520.759688 276.197656 
L 522.199688 278.940513 
L 523.639688 273.454799 
L 525.079688 270.711942 
L 526.519688 277.111942 
L 527.959688 267.969085 
L 529.399688 275.283371 
L 530.839688 271.626228 
L 532.279688 270.711942 
L 533.719688 275.283371 
L 535.159688 270.711942 
L 536.599688 271.626228 
L 538.039688 276.197656 
L 539.479688 276.197656 
L 540.919688 274.369085 
L 542.359688 278.940513 
L 543.799688 275.283371 
L 545.239688 279.854799 
L 546.679688 276.197656 
L 549.559688 279.854799 
L 550.999688 280.769085 
L 553.879688 278.940513 
L 555.319688 280.769085 
L 556.759688 281.683371 
L 558.199688 278.940513 
L 559.639688 281.683371 
L 561.079688 279.854799 
L 562.519688 280.769085 
L 565.399688 280.769085 
L 566.839688 279.854799 
L 568.279688 278.026228 
L 569.719688 281.683371 
L 571.159688 278.940513 
L 572.599688 280.769085 
L 575.479688 280.769085 
L 576.919688 278.026228 
L 578.359688 278.026228 
L 579.799688 279.854799 
L 581.239688 278.026228 
L 582.679688 277.111942 
L 584.119688 278.026228 
L 585.559688 279.854799 
L 586.999688 277.111942 
L 588.439688 278.940513 
L 589.879688 272.540513 
L 591.319688 278.026228 
L 594.199688 278.026228 
L 595.639688 277.111942 
L 597.079688 277.111942 
L 598.519688 268.883371 
L 599.959688 273.454799 
L 602.839688 273.454799 
L 604.279688 269.797656 
L 605.719688 272.540513 
L 607.159688 270.711942 
L 608.599688 275.283371 
L 610.039688 270.711942 
L 611.479688 274.369085 
L 612.919688 268.883371 
L 614.359688 269.797656 
L 615.799688 273.454799 
L 615.799688 273.454799 
" style="fill:none;stroke:#2ca02c;stroke-linecap:square;stroke-width:1.5;"/>
   </g>
   <g id="legend_1">
    <g id="patch_11">
     <path d="M 455.799688 205.797656 
L 600.47 205.797656 
Q 602.47 205.797656 602.47 203.797656 
L 602.47 160.763281 
Q 602.47 158.763281 600.47 158.763281 
L 455.799688 158.763281 
Q 453.799688 158.763281 453.799688 160.763281 
L 453.799688 203.797656 
Q 453.799688 205.797656 455.799688 205.797656 
z
" style="fill:#ffffff;opacity:0.8;stroke:#cccccc;stroke-linejoin:miter;"/>
    </g>
    <g id="line2d_17">
     <path d="M 457.799688 166.861719 
L 477.799688 166.861719 
" style="fill:none;stroke:#1f77b4;stroke-linecap:square;stroke-width:1.5;"/>
    </g>
    <g id="line2d_18"/>
    <g id="text_21">
     <!-- Bovine Erythrocyte CA -->
     <defs>
      <path d="M 19.671875 34.8125 
L 19.671875 8.109375 
L 35.5 8.109375 
Q 43.453125 8.109375 47.28125 11.40625 
Q 51.125 14.703125 51.125 21.484375 
Q 51.125 28.328125 47.28125 31.5625 
Q 43.453125 34.8125 35.5 34.8125 
z
M 19.671875 64.796875 
L 19.671875 42.828125 
L 34.28125 42.828125 
Q 41.5 42.828125 45.03125 45.53125 
Q 48.578125 48.25 48.578125 53.8125 
Q 48.578125 59.328125 45.03125 62.0625 
Q 41.5 64.796875 34.28125 64.796875 
z
M 9.8125 72.90625 
L 35.015625 72.90625 
Q 46.296875 72.90625 52.390625 68.21875 
Q 58.5 63.53125 58.5 54.890625 
Q 58.5 48.1875 55.375 44.234375 
Q 52.25 40.28125 46.1875 39.3125 
Q 53.46875 37.75 57.5 32.78125 
Q 61.53125 27.828125 61.53125 20.40625 
Q 61.53125 10.640625 54.890625 5.3125 
Q 48.25 0 35.984375 0 
L 9.8125 0 
z
" id="DejaVuSans-42"/>
      <path d="M 2.984375 54.6875 
L 12.5 54.6875 
L 29.59375 8.796875 
L 46.6875 54.6875 
L 56.203125 54.6875 
L 35.6875 0 
L 23.484375 0 
z
" id="DejaVuSans-76"/>
     </defs>
     <g transform="translate(485.799688 170.361719)scale(0.1 -0.1)">
      <use xlink:href="#DejaVuSans-42"/>
      <use x="68.603516" xlink:href="#DejaVuSans-6f"/>
      <use x="129.785156" xlink:href="#DejaVuSans-76"/>
      <use x="188.964844" xlink:href="#DejaVuSans-69"/>
      <use x="216.748047" xlink:href="#DejaVuSans-6e"/>
      <use x="280.126953" xlink:href="#DejaVuSans-65"/>
      <use x="341.650391" xlink:href="#DejaVuSans-20"/>
      <use x="373.4375" xlink:href="#DejaVuSans-45"/>
      <use x="436.621094" xlink:href="#DejaVuSans-72"/>
      <use x="477.734375" xlink:href="#DejaVuSans-79"/>
      <use x="536.914062" xlink:href="#DejaVuSans-74"/>
      <use x="576.123047" xlink:href="#DejaVuSans-68"/>
      <use x="639.501953" xlink:href="#DejaVuSans-72"/>
      <use x="680.583984" xlink:href="#DejaVuSans-6f"/>
      <use x="741.765625" xlink:href="#DejaVuSans-63"/>
      <use x="796.746094" xlink:href="#DejaVuSans-79"/>
      <use x="855.925781" xlink:href="#DejaVuSans-74"/>
      <use x="895.134766" xlink:href="#DejaVuSans-65"/>
      <use x="956.658203" xlink:href="#DejaVuSans-20"/>
      <use x="988.445312" xlink:href="#DejaVuSans-43"/>
      <use x="1058.269531" xlink:href="#DejaVuSans-41"/>
     </g>
    </g>
    <g id="line2d_19">
     <path d="M 457.799688 181.539844 
L 477.799688 181.539844 
" style="fill:none;stroke:#ff7f0e;stroke-linecap:square;stroke-width:1.5;"/>
    </g>
    <g id="line2d_20"/>
    <g id="text_22">
     <!-- DAB2 -->
     <defs>
      <path d="M 19.671875 64.796875 
L 19.671875 8.109375 
L 31.59375 8.109375 
Q 46.6875 8.109375 53.6875 14.9375 
Q 60.6875 21.78125 60.6875 36.53125 
Q 60.6875 51.171875 53.6875 57.984375 
Q 46.6875 64.796875 31.59375 64.796875 
z
M 9.8125 72.90625 
L 30.078125 72.90625 
Q 51.265625 72.90625 61.171875 64.09375 
Q 71.09375 55.28125 71.09375 36.53125 
Q 71.09375 17.671875 61.125 8.828125 
Q 51.171875 0 30.078125 0 
L 9.8125 0 
z
" id="DejaVuSans-44"/>
     </defs>
     <g transform="translate(485.799688 185.039844)scale(0.1 -0.1)">
      <use xlink:href="#DejaVuSans-44"/>
      <use x="76.986328" xlink:href="#DejaVuSans-41"/>
      <use x="145.394531" xlink:href="#DejaVuSans-42"/>
      <use x="213.998047" xlink:href="#DejaVuSans-32"/>
     </g>
    </g>
    <g id="line2d_21">
     <path d="M 457.799688 196.217969 
L 477.799688 196.217969 
" style="fill:none;stroke:#2ca02c;stroke-linecap:square;stroke-width:1.5;"/>
    </g>
    <g id="line2d_22"/>
    <g id="text_23">
     <!-- Buffer Blank -->
     <defs>
      <path d="M 37.109375 75.984375 
L 37.109375 68.5 
L 28.515625 68.5 
Q 23.6875 68.5 21.796875 66.546875 
Q 19.921875 64.59375 19.921875 59.515625 
L 19.921875 54.6875 
L 34.71875 54.6875 
L 34.71875 47.703125 
L 19.921875 47.703125 
L 19.921875 0 
L 10.890625 0 
L 10.890625 47.703125 
L 2.296875 47.703125 
L 2.296875 54.6875 
L 10.890625 54.6875 
L 10.890625 58.5 
Q 10.890625 67.625 15.140625 71.796875 
Q 19.390625 75.984375 28.609375 75.984375 
z
" id="DejaVuSans-66"/>
     </defs>
     <g transform="translate(485.799688 199.717969)scale(0.1 -0.1)">
      <use xlink:href="#DejaVuSans-42"/>
      <use x="68.603516" xlink:href="#DejaVuSans-75"/>
      <use x="131.982422" xlink:href="#DejaVuSans-66"/>
      <use x="167.1875" xlink:href="#DejaVuSans-66"/>
      <use x="202.392578" xlink:href="#DejaVuSans-65"/>
      <use x="263.916016" xlink:href="#DejaVuSans-72"/>
      <use x="305.029297" xlink:href="#DejaVuSans-20"/>
      <use x="336.816406" xlink:href="#DejaVuSans-42"/>
      <use x="405.419922" xlink:href="#DejaVuSans-6c"/>
      <use x="433.203125" xlink:href="#DejaVuSans-61"/>
      <use x="494.482422" xlink:href="#DejaVuSans-6e"/>
      <use x="557.861328" xlink:href="#DejaVuSans-6b"/>
     </g>
    </g>
   </g>
  </g>
  <g id="axes_2">
   <g id="patch_12">
    <path d="M 759.079687 666.597656 
L 1335.079688 666.597656 
L 1335.079688 90.597656 
L 759.079687 90.597656 
z
" style="fill:#ffffff;"/>
   </g>
   <g id="matplotlib.axis_3">
    <g id="xtick_7">
     <g id="line2d_23">
      <g>
       <use style="stroke:#000000;stroke-width:0.8;" x="759.079687" xlink:href="#m37377f958e" y="666.597656"/>
      </g>
     </g>
     <g id="text_24">
      <!-- 0.0 -->
      <defs>
       <path d="M 10.6875 12.40625 
L 21 12.40625 
L 21 0 
L 10.6875 0 
z
" id="DejaVuSans-2e"/>
      </defs>
      <g transform="translate(751.128125 681.196094)scale(0.1 -0.1)">
       <use xlink:href="#DejaVuSans-30"/>
       <use x="63.623047" xlink:href="#DejaVuSans-2e"/>
       <use x="95.410156" xlink:href="#DejaVuSans-30"/>
      </g>
     </g>
    </g>
    <g id="xtick_8">
     <g id="line2d_24">
      <g>
       <use style="stroke:#000000;stroke-width:0.8;" x="874.279688" xlink:href="#m37377f958e" y="666.597656"/>
      </g>
     </g>
     <g id="text_25">
      <!-- 0.2 -->
      <g transform="translate(866.328125 681.196094)scale(0.1 -0.1)">
       <use xlink:href="#DejaVuSans-30"/>
       <use x="63.623047" xlink:href="#DejaVuSans-2e"/>
       <use x="95.410156" xlink:href="#DejaVuSans-32"/>
      </g>
     </g>
    </g>
    <g id="xtick_9">
     <g id="line2d_25">
      <g>
       <use style="stroke:#000000;stroke-width:0.8;" x="989.479688" xlink:href="#m37377f958e" y="666.597656"/>
      </g>
     </g>
     <g id="text_26">
      <!-- 0.4 -->
      <g transform="translate(981.528125 681.196094)scale(0.1 -0.1)">
       <use xlink:href="#DejaVuSans-30"/>
       <use x="63.623047" xlink:href="#DejaVuSans-2e"/>
       <use x="95.410156" xlink:href="#DejaVuSans-34"/>
      </g>
     </g>
    </g>
    <g id="xtick_10">
     <g id="line2d_26">
      <g>
       <use style="stroke:#000000;stroke-width:0.8;" x="1104.679688" xlink:href="#m37377f958e" y="666.597656"/>
      </g>
     </g>
     <g id="text_27">
      <!-- 0.6 -->
      <g transform="translate(1096.728125 681.196094)scale(0.1 -0.1)">
       <use xlink:href="#DejaVuSans-30"/>
       <use x="63.623047" xlink:href="#DejaVuSans-2e"/>
       <use x="95.410156" xlink:href="#DejaVuSans-36"/>
      </g>
     </g>
    </g>
    <g id="xtick_11">
     <g id="line2d_27">
      <g>
       <use style="stroke:#000000;stroke-width:0.8;" x="1219.879688" xlink:href="#m37377f958e" y="666.597656"/>
      </g>
     </g>
     <g id="text_28">
      <!-- 0.8 -->
      <g transform="translate(1211.928125 681.196094)scale(0.1 -0.1)">
       <use xlink:href="#DejaVuSans-30"/>
       <use x="63.623047" xlink:href="#DejaVuSans-2e"/>
       <use x="95.410156" xlink:href="#DejaVuSans-38"/>
      </g>
     </g>
    </g>
    <g id="xtick_12">
     <g id="line2d_28">
      <g>
       <use style="stroke:#000000;stroke-width:0.8;" x="1335.079688" xlink:href="#m37377f958e" y="666.597656"/>
      </g>
     </g>
     <g id="text_29">
      <!-- 1.0 -->
      <g transform="translate(1327.128125 681.196094)scale(0.1 -0.1)">
       <use xlink:href="#DejaVuSans-31"/>
       <use x="63.623047" xlink:href="#DejaVuSans-2e"/>
       <use x="95.410156" xlink:href="#DejaVuSans-30"/>
      </g>
     </g>
    </g>
   </g>
   <g id="matplotlib.axis_4">
    <g id="ytick_8">
     <g id="line2d_29">
      <g>
       <use style="stroke:#000000;stroke-width:0.8;" x="759.079687" xlink:href="#m12b7cf8977" y="666.597656"/>
      </g>
     </g>
     <g id="text_30">
      <!-- 0.0 -->
      <g transform="translate(736.176562 670.396875)scale(0.1 -0.1)">
       <use xlink:href="#DejaVuSans-30"/>
       <use x="63.623047" xlink:href="#DejaVuSans-2e"/>
       <use x="95.410156" xlink:href="#DejaVuSans-30"/>
      </g>
     </g>
    </g>
    <g id="ytick_9">
     <g id="line2d_30">
      <g>
       <use style="stroke:#000000;stroke-width:0.8;" x="759.079687" xlink:href="#m12b7cf8977" y="551.397656"/>
      </g>
     </g>
     <g id="text_31">
      <!-- 0.2 -->
      <g transform="translate(736.176562 555.196875)scale(0.1 -0.1)">
       <use xlink:href="#DejaVuSans-30"/>
       <use x="63.623047" xlink:href="#DejaVuSans-2e"/>
       <use x="95.410156" xlink:href="#DejaVuSans-32"/>
      </g>
     </g>
    </g>
    <g id="ytick_10">
     <g id="line2d_31">
      <g>
       <use style="stroke:#000000;stroke-width:0.8;" x="759.079687" xlink:href="#m12b7cf8977" y="436.197656"/>
      </g>
     </g>
     <g id="text_32">
      <!-- 0.4 -->
      <g transform="translate(736.176562 439.996875)scale(0.1 -0.1)">
       <use xlink:href="#DejaVuSans-30"/>
       <use x="63.623047" xlink:href="#DejaVuSans-2e"/>
       <use x="95.410156" xlink:href="#DejaVuSans-34"/>
      </g>
     </g>
    </g>
    <g id="ytick_11">
     <g id="line2d_32">
      <g>
       <use style="stroke:#000000;stroke-width:0.8;" x="759.079687" xlink:href="#m12b7cf8977" y="320.997656"/>
      </g>
     </g>
     <g id="text_33">
      <!-- 0.6 -->
      <g transform="translate(736.176562 324.796875)scale(0.1 -0.1)">
       <use xlink:href="#DejaVuSans-30"/>
       <use x="63.623047" xlink:href="#DejaVuSans-2e"/>
       <use x="95.410156" xlink:href="#DejaVuSans-36"/>
      </g>
     </g>
    </g>
    <g id="ytick_12">
     <g id="line2d_33">
      <g>
       <use style="stroke:#000000;stroke-width:0.8;" x="759.079687" xlink:href="#m12b7cf8977" y="205.797656"/>
      </g>
     </g>
     <g id="text_34">
      <!-- 0.8 -->
      <g transform="translate(736.176562 209.596875)scale(0.1 -0.1)">
       <use xlink:href="#DejaVuSans-30"/>
       <use x="63.623047" xlink:href="#DejaVuSans-2e"/>
       <use x="95.410156" xlink:href="#DejaVuSans-38"/>
      </g>
     </g>
    </g>
    <g id="ytick_13">
     <g id="line2d_34">
      <g>
       <use style="stroke:#000000;stroke-width:0.8;" x="759.079687" xlink:href="#m12b7cf8977" y="90.597656"/>
      </g>
     </g>
     <g id="text_35">
      <!-- 1.0 -->
      <g transform="translate(736.176562 94.396875)scale(0.1 -0.1)">
       <use xlink:href="#DejaVuSans-31"/>
       <use x="63.623047" xlink:href="#DejaVuSans-2e"/>
       <use x="95.410156" xlink:href="#DejaVuSans-30"/>
      </g>
     </g>
    </g>
   </g>
   <g id="patch_13">
    <path d="M 759.079687 666.597656 
L 759.079687 90.597656 
" style="fill:none;stroke:#000000;stroke-linecap:square;stroke-linejoin:miter;stroke-width:0.8;"/>
   </g>
   <g id="patch_14">
    <path d="M 1335.079688 666.597656 
L 1335.079688 90.597656 
" style="fill:none;stroke:#000000;stroke-linecap:square;stroke-linejoin:miter;stroke-width:0.8;"/>
   </g>
   <g id="patch_15">
    <path d="M 759.079687 666.597656 
L 1335.079688 666.597656 
" style="fill:none;stroke:#000000;stroke-linecap:square;stroke-linejoin:miter;stroke-width:0.8;"/>
   </g>
   <g id="patch_16">
    <path d="M 759.079687 90.597656 
L 1335.079688 90.597656 
" style="fill:none;stroke:#000000;stroke-linecap:square;stroke-linejoin:miter;stroke-width:0.8;"/>
   </g>
   <g id="text_36">
    <!-- CryoEM structure showing total structure -->
    <defs>
     <path d="M 9.8125 72.90625 
L 24.515625 72.90625 
L 43.109375 23.296875 
L 61.8125 72.90625 
L 76.515625 72.90625 
L 76.515625 0 
L 66.890625 0 
L 66.890625 64.015625 
L 48.09375 14.015625 
L 38.1875 14.015625 
L 19.390625 64.015625 
L 19.390625 0 
L 9.8125 0 
z
" id="DejaVuSans-4d"/>
     <path d="M 4.203125 54.6875 
L 13.1875 54.6875 
L 24.421875 12.015625 
L 35.59375 54.6875 
L 46.1875 54.6875 
L 57.421875 12.015625 
L 68.609375 54.6875 
L 77.59375 54.6875 
L 63.28125 0 
L 52.6875 0 
L 40.921875 44.828125 
L 29.109375 0 
L 18.5 0 
z
" id="DejaVuSans-77"/>
    </defs>
    <g transform="translate(840.925 384.116406)scale(0.2 -0.2)">
     <use xlink:href="#DejaVuSans-43"/>
     <use x="69.824219" xlink:href="#DejaVuSans-72"/>
     <use x="110.9375" xlink:href="#DejaVuSans-79"/>
     <use x="170.117188" xlink:href="#DejaVuSans-6f"/>
     <use x="231.298828" xlink:href="#DejaVuSans-45"/>
     <use x="294.482422" xlink:href="#DejaVuSans-4d"/>
     <use x="380.761719" xlink:href="#DejaVuSans-20"/>
     <use x="412.548828" xlink:href="#DejaVuSans-73"/>
     <use x="464.648438" xlink:href="#DejaVuSans-74"/>
     <use x="503.857422" xlink:href="#DejaVuSans-72"/>
     <use x="544.970703" xlink:href="#DejaVuSans-75"/>
     <use x="608.349609" xlink:href="#DejaVuSans-63"/>
     <use x="663.330078" xlink:href="#DejaVuSans-74"/>
     <use x="702.539062" xlink:href="#DejaVuSans-75"/>
     <use x="765.917969" xlink:href="#DejaVuSans-72"/>
     <use x="807" xlink:href="#DejaVuSans-65"/>
     <use x="868.523438" xlink:href="#DejaVuSans-20"/>
     <use x="900.310547" xlink:href="#DejaVuSans-73"/>
     <use x="952.410156" xlink:href="#DejaVuSans-68"/>
     <use x="1015.789062" xlink:href="#DejaVuSans-6f"/>
     <use x="1076.970703" xlink:href="#DejaVuSans-77"/>
     <use x="1158.757812" xlink:href="#DejaVuSans-69"/>
     <use x="1186.541016" xlink:href="#DejaVuSans-6e"/>
     <use x="1249.919922" xlink:href="#DejaVuSans-67"/>
     <use x="1313.396484" xlink:href="#DejaVuSans-20"/>
     <use x="1345.183594" xlink:href="#DejaVuSans-74"/>
     <use x="1384.392578" xlink:href="#DejaVuSans-6f"/>
     <use x="1445.574219" xlink:href="#DejaVuSans-74"/>
     <use x="1484.783203" xlink:href="#DejaVuSans-61"/>
     <use x="1546.0625" xlink:href="#DejaVuSans-6c"/>
     <use x="1573.845703" xlink:href="#DejaVuSans-20"/>
     <use x="1605.632812" xlink:href="#DejaVuSans-73"/>
     <use x="1657.732422" xlink:href="#DejaVuSans-74"/>
     <use x="1696.941406" xlink:href="#DejaVuSans-72"/>
     <use x="1738.054688" xlink:href="#DejaVuSans-75"/>
     <use x="1801.433594" xlink:href="#DejaVuSans-63"/>
     <use x="1856.414062" xlink:href="#DejaVuSans-74"/>
     <use x="1895.623047" xlink:href="#DejaVuSans-75"/>
     <use x="1959.001953" xlink:href="#DejaVuSans-72"/>
     <use x="2000.083984" xlink:href="#DejaVuSans-65"/>
    </g>
   </g>
   <g id="text_37">
    <!-- B -->
    <g transform="translate(675.115625 70.523789)scale(0.15 -0.15)">
     <use xlink:href="#DejaVuSans-42"/>
    </g>
   </g>
  </g>
  <g id="axes_3">
   <g id="patch_17">
    <path d="M 39.079688 1386.597656 
L 615.079687 1386.597656 
L 615.079687 810.597656 
L 39.079688 810.597656 
z
" style="fill:#ffffff;"/>
   </g>
   <g id="matplotlib.axis_5">
    <g id="xtick_13">
     <g id="line2d_35">
      <g>
       <use style="stroke:#000000;stroke-width:0.8;" x="39.079688" xlink:href="#m37377f958e" y="1386.597656"/>
      </g>
     </g>
     <g id="text_38">
      <!-- 0.0 -->
      <g transform="translate(31.128125 1401.196094)scale(0.1 -0.1)">
       <use xlink:href="#DejaVuSans-30"/>
       <use x="63.623047" xlink:href="#DejaVuSans-2e"/>
       <use x="95.410156" xlink:href="#DejaVuSans-30"/>
      </g>
     </g>
    </g>
    <g id="xtick_14">
     <g id="line2d_36">
      <g>
       <use style="stroke:#000000;stroke-width:0.8;" x="154.279688" xlink:href="#m37377f958e" y="1386.597656"/>
      </g>
     </g>
     <g id="text_39">
      <!-- 0.2 -->
      <g transform="translate(146.328125 1401.196094)scale(0.1 -0.1)">
       <use xlink:href="#DejaVuSans-30"/>
       <use x="63.623047" xlink:href="#DejaVuSans-2e"/>
       <use x="95.410156" xlink:href="#DejaVuSans-32"/>
      </g>
     </g>
    </g>
    <g id="xtick_15">
     <g id="line2d_37">
      <g>
       <use style="stroke:#000000;stroke-width:0.8;" x="269.479688" xlink:href="#m37377f958e" y="1386.597656"/>
      </g>
     </g>
     <g id="text_40">
      <!-- 0.4 -->
      <g transform="translate(261.528125 1401.196094)scale(0.1 -0.1)">
       <use xlink:href="#DejaVuSans-30"/>
       <use x="63.623047" xlink:href="#DejaVuSans-2e"/>
       <use x="95.410156" xlink:href="#DejaVuSans-34"/>
      </g>
     </g>
    </g>
    <g id="xtick_16">
     <g id="line2d_38">
      <g>
       <use style="stroke:#000000;stroke-width:0.8;" x="384.679688" xlink:href="#m37377f958e" y="1386.597656"/>
      </g>
     </g>
     <g id="text_41">
      <!-- 0.6 -->
      <g transform="translate(376.728125 1401.196094)scale(0.1 -0.1)">
       <use xlink:href="#DejaVuSans-30"/>
       <use x="63.623047" xlink:href="#DejaVuSans-2e"/>
       <use x="95.410156" xlink:href="#DejaVuSans-36"/>
      </g>
     </g>
    </g>
    <g id="xtick_17">
     <g id="line2d_39">
      <g>
       <use style="stroke:#000000;stroke-width:0.8;" x="499.879688" xlink:href="#m37377f958e" y="1386.597656"/>
      </g>
     </g>
     <g id="text_42">
      <!-- 0.8 -->
      <g transform="translate(491.928125 1401.196094)scale(0.1 -0.1)">
       <use xlink:href="#DejaVuSans-30"/>
       <use x="63.623047" xlink:href="#DejaVuSans-2e"/>
       <use x="95.410156" xlink:href="#DejaVuSans-38"/>
      </g>
     </g>
    </g>
    <g id="xtick_18">
     <g id="line2d_40">
      <g>
       <use style="stroke:#000000;stroke-width:0.8;" x="615.079687" xlink:href="#m37377f958e" y="1386.597656"/>
      </g>
     </g>
     <g id="text_43">
      <!-- 1.0 -->
      <g transform="translate(607.128125 1401.196094)scale(0.1 -0.1)">
       <use xlink:href="#DejaVuSans-31"/>
       <use x="63.623047" xlink:href="#DejaVuSans-2e"/>
       <use x="95.410156" xlink:href="#DejaVuSans-30"/>
      </g>
     </g>
    </g>
   </g>
   <g id="matplotlib.axis_6">
    <g id="ytick_14">
     <g id="line2d_41">
      <g>
       <use style="stroke:#000000;stroke-width:0.8;" x="39.079688" xlink:href="#m12b7cf8977" y="1386.597656"/>
      </g>
     </g>
     <g id="text_44">
      <!-- 0.0 -->
      <g transform="translate(16.176563 1390.396875)scale(0.1 -0.1)">
       <use xlink:href="#DejaVuSans-30"/>
       <use x="63.623047" xlink:href="#DejaVuSans-2e"/>
       <use x="95.410156" xlink:href="#DejaVuSans-30"/>
      </g>
     </g>
    </g>
    <g id="ytick_15">
     <g id="line2d_42">
      <g>
       <use style="stroke:#000000;stroke-width:0.8;" x="39.079688" xlink:href="#m12b7cf8977" y="1271.397656"/>
      </g>
     </g>
     <g id="text_45">
      <!-- 0.2 -->
      <g transform="translate(16.176563 1275.196875)scale(0.1 -0.1)">
       <use xlink:href="#DejaVuSans-30"/>
       <use x="63.623047" xlink:href="#DejaVuSans-2e"/>
       <use x="95.410156" xlink:href="#DejaVuSans-32"/>
      </g>
     </g>
    </g>
    <g id="ytick_16">
     <g id="line2d_43">
      <g>
       <use style="stroke:#000000;stroke-width:0.8;" x="39.079688" xlink:href="#m12b7cf8977" y="1156.197656"/>
      </g>
     </g>
     <g id="text_46">
      <!-- 0.4 -->
      <g transform="translate(16.176563 1159.996875)scale(0.1 -0.1)">
       <use xlink:href="#DejaVuSans-30"/>
       <use x="63.623047" xlink:href="#DejaVuSans-2e"/>
       <use x="95.410156" xlink:href="#DejaVuSans-34"/>
      </g>
     </g>
    </g>
    <g id="ytick_17">
     <g id="line2d_44">
      <g>
       <use style="stroke:#000000;stroke-width:0.8;" x="39.079688" xlink:href="#m12b7cf8977" y="1040.997656"/>
      </g>
     </g>
     <g id="text_47">
      <!-- 0.6 -->
      <g transform="translate(16.176563 1044.796875)scale(0.1 -0.1)">
       <use xlink:href="#DejaVuSans-30"/>
       <use x="63.623047" xlink:href="#DejaVuSans-2e"/>
       <use x="95.410156" xlink:href="#DejaVuSans-36"/>
      </g>
     </g>
    </g>
    <g id="ytick_18">
     <g id="line2d_45">
      <g>
       <use style="stroke:#000000;stroke-width:0.8;" x="39.079688" xlink:href="#m12b7cf8977" y="925.797656"/>
      </g>
     </g>
     <g id="text_48">
      <!-- 0.8 -->
      <g transform="translate(16.176563 929.596875)scale(0.1 -0.1)">
       <use xlink:href="#DejaVuSans-30"/>
       <use x="63.623047" xlink:href="#DejaVuSans-2e"/>
       <use x="95.410156" xlink:href="#DejaVuSans-38"/>
      </g>
     </g>
    </g>
    <g id="ytick_19">
     <g id="line2d_46">
      <g>
       <use style="stroke:#000000;stroke-width:0.8;" x="39.079688" xlink:href="#m12b7cf8977" y="810.597656"/>
      </g>
     </g>
     <g id="text_49">
      <!-- 1.0 -->
      <g transform="translate(16.176563 814.396875)scale(0.1 -0.1)">
       <use xlink:href="#DejaVuSans-31"/>
       <use x="63.623047" xlink:href="#DejaVuSans-2e"/>
       <use x="95.410156" xlink:href="#DejaVuSans-30"/>
      </g>
     </g>
    </g>
   </g>
   <g id="patch_18">
    <path d="M 39.079688 1386.597656 
L 39.079688 810.597656 
" style="fill:none;stroke:#000000;stroke-linecap:square;stroke-linejoin:miter;stroke-width:0.8;"/>
   </g>
   <g id="patch_19">
    <path d="M 615.079687 1386.597656 
L 615.079687 810.597656 
" style="fill:none;stroke:#000000;stroke-linecap:square;stroke-linejoin:miter;stroke-width:0.8;"/>
   </g>
   <g id="patch_20">
    <path d="M 39.079688 1386.597656 
L 615.079687 1386.597656 
" style="fill:none;stroke:#000000;stroke-linecap:square;stroke-linejoin:miter;stroke-width:0.8;"/>
   </g>
   <g id="patch_21">
    <path d="M 39.079688 810.597656 
L 615.079687 810.597656 
" style="fill:none;stroke:#000000;stroke-linecap:square;stroke-linejoin:miter;stroke-width:0.8;"/>
   </g>
   <g id="text_50">
    <!-- Structure of active site -->
    <defs>
     <path d="M 53.515625 70.515625 
L 53.515625 60.890625 
Q 47.90625 63.578125 42.921875 64.890625 
Q 37.9375 66.21875 33.296875 66.21875 
Q 25.25 66.21875 20.875 63.09375 
Q 16.5 59.96875 16.5 54.203125 
Q 16.5 49.359375 19.40625 46.890625 
Q 22.3125 44.4375 30.421875 42.921875 
L 36.375 41.703125 
Q 47.40625 39.59375 52.65625 34.296875 
Q 57.90625 29 57.90625 20.125 
Q 57.90625 9.515625 50.796875 4.046875 
Q 43.703125 -1.421875 29.984375 -1.421875 
Q 24.8125 -1.421875 18.96875 -0.25 
Q 13.140625 0.921875 6.890625 3.21875 
L 6.890625 13.375 
Q 12.890625 10.015625 18.65625 8.296875 
Q 24.421875 6.59375 29.984375 6.59375 
Q 38.421875 6.59375 43.015625 9.90625 
Q 47.609375 13.234375 47.609375 19.390625 
Q 47.609375 24.75 44.3125 27.78125 
Q 41.015625 30.8125 33.5 32.328125 
L 27.484375 33.5 
Q 16.453125 35.6875 11.515625 40.375 
Q 6.59375 45.0625 6.59375 53.421875 
Q 6.59375 63.09375 13.40625 68.65625 
Q 20.21875 74.21875 32.171875 74.21875 
Q 37.3125 74.21875 42.625 73.28125 
Q 47.953125 72.359375 53.515625 70.515625 
z
" id="DejaVuSans-53"/>
    </defs>
    <g transform="translate(212.714062 1104.116406)scale(0.2 -0.2)">
     <use xlink:href="#DejaVuSans-53"/>
     <use x="63.476562" xlink:href="#DejaVuSans-74"/>
     <use x="102.685547" xlink:href="#DejaVuSans-72"/>
     <use x="143.798828" xlink:href="#DejaVuSans-75"/>
     <use x="207.177734" xlink:href="#DejaVuSans-63"/>
     <use x="262.158203" xlink:href="#DejaVuSans-74"/>
     <use x="301.367188" xlink:href="#DejaVuSans-75"/>
     <use x="364.746094" xlink:href="#DejaVuSans-72"/>
     <use x="405.828125" xlink:href="#DejaVuSans-65"/>
     <use x="467.351562" xlink:href="#DejaVuSans-20"/>
     <use x="499.138672" xlink:href="#DejaVuSans-6f"/>
     <use x="560.320312" xlink:href="#DejaVuSans-66"/>
     <use x="595.525391" xlink:href="#DejaVuSans-20"/>
     <use x="627.3125" xlink:href="#DejaVuSans-61"/>
     <use x="688.591797" xlink:href="#DejaVuSans-63"/>
     <use x="743.572266" xlink:href="#DejaVuSans-74"/>
     <use x="782.78125" xlink:href="#DejaVuSans-69"/>
     <use x="810.564453" xlink:href="#DejaVuSans-76"/>
     <use x="869.744141" xlink:href="#DejaVuSans-65"/>
     <use x="931.267578" xlink:href="#DejaVuSans-20"/>
     <use x="963.054688" xlink:href="#DejaVuSans-73"/>
     <use x="1015.154297" xlink:href="#DejaVuSans-69"/>
     <use x="1042.9375" xlink:href="#DejaVuSans-74"/>
     <use x="1082.146484" xlink:href="#DejaVuSans-65"/>
    </g>
   </g>
   <g id="text_51">
    <!-- C -->
    <g transform="translate(0 705.237891)scale(0.15 -0.15)">
     <use xlink:href="#DejaVuSans-43"/>
    </g>
   </g>
  </g>
  <g id="axes_4">
   <g id="patch_22">
    <path d="M 759.079687 1386.597656 
L 1335.079688 1386.597656 
L 1335.079688 810.597656 
L 759.079687 810.597656 
z
" style="fill:#ffffff;"/>
   </g>
   <g id="matplotlib.axis_7">
    <g id="xtick_19">
     <g id="line2d_47">
      <g>
       <use style="stroke:#000000;stroke-width:0.8;" x="759.079687" xlink:href="#m37377f958e" y="1386.597656"/>
      </g>
     </g>
     <g id="text_52">
      <!-- 0.0 -->
      <g transform="translate(751.128125 1401.196094)scale(0.1 -0.1)">
       <use xlink:href="#DejaVuSans-30"/>
       <use x="63.623047" xlink:href="#DejaVuSans-2e"/>
       <use x="95.410156" xlink:href="#DejaVuSans-30"/>
      </g>
     </g>
    </g>
    <g id="xtick_20">
     <g id="line2d_48">
      <g>
       <use style="stroke:#000000;stroke-width:0.8;" x="874.279688" xlink:href="#m37377f958e" y="1386.597656"/>
      </g>
     </g>
     <g id="text_53">
      <!-- 0.2 -->
      <g transform="translate(866.328125 1401.196094)scale(0.1 -0.1)">
       <use xlink:href="#DejaVuSans-30"/>
       <use x="63.623047" xlink:href="#DejaVuSans-2e"/>
       <use x="95.410156" xlink:href="#DejaVuSans-32"/>
      </g>
     </g>
    </g>
    <g id="xtick_21">
     <g id="line2d_49">
      <g>
       <use style="stroke:#000000;stroke-width:0.8;" x="989.479688" xlink:href="#m37377f958e" y="1386.597656"/>
      </g>
     </g>
     <g id="text_54">
      <!-- 0.4 -->
      <g transform="translate(981.528125 1401.196094)scale(0.1 -0.1)">
       <use xlink:href="#DejaVuSans-30"/>
       <use x="63.623047" xlink:href="#DejaVuSans-2e"/>
       <use x="95.410156" xlink:href="#DejaVuSans-34"/>
      </g>
     </g>
    </g>
    <g id="xtick_22">
     <g id="line2d_50">
      <g>
       <use style="stroke:#000000;stroke-width:0.8;" x="1104.679688" xlink:href="#m37377f958e" y="1386.597656"/>
      </g>
     </g>
     <g id="text_55">
      <!-- 0.6 -->
      <g transform="translate(1096.728125 1401.196094)scale(0.1 -0.1)">
       <use xlink:href="#DejaVuSans-30"/>
       <use x="63.623047" xlink:href="#DejaVuSans-2e"/>
       <use x="95.410156" xlink:href="#DejaVuSans-36"/>
      </g>
     </g>
    </g>
    <g id="xtick_23">
     <g id="line2d_51">
      <g>
       <use style="stroke:#000000;stroke-width:0.8;" x="1219.879688" xlink:href="#m37377f958e" y="1386.597656"/>
      </g>
     </g>
     <g id="text_56">
      <!-- 0.8 -->
      <g transform="translate(1211.928125 1401.196094)scale(0.1 -0.1)">
       <use xlink:href="#DejaVuSans-30"/>
       <use x="63.623047" xlink:href="#DejaVuSans-2e"/>
       <use x="95.410156" xlink:href="#DejaVuSans-38"/>
      </g>
     </g>
    </g>
    <g id="xtick_24">
     <g id="line2d_52">
      <g>
       <use style="stroke:#000000;stroke-width:0.8;" x="1335.079688" xlink:href="#m37377f958e" y="1386.597656"/>
      </g>
     </g>
     <g id="text_57">
      <!-- 1.0 -->
      <g transform="translate(1327.128125 1401.196094)scale(0.1 -0.1)">
       <use xlink:href="#DejaVuSans-31"/>
       <use x="63.623047" xlink:href="#DejaVuSans-2e"/>
       <use x="95.410156" xlink:href="#DejaVuSans-30"/>
      </g>
     </g>
    </g>
   </g>
   <g id="matplotlib.axis_8">
    <g id="ytick_20">
     <g id="line2d_53">
      <g>
       <use style="stroke:#000000;stroke-width:0.8;" x="759.079687" xlink:href="#m12b7cf8977" y="1386.597656"/>
      </g>
     </g>
     <g id="text_58">
      <!-- 0.0 -->
      <g transform="translate(736.176562 1390.396875)scale(0.1 -0.1)">
       <use xlink:href="#DejaVuSans-30"/>
       <use x="63.623047" xlink:href="#DejaVuSans-2e"/>
       <use x="95.410156" xlink:href="#DejaVuSans-30"/>
      </g>
     </g>
    </g>
    <g id="ytick_21">
     <g id="line2d_54">
      <g>
       <use style="stroke:#000000;stroke-width:0.8;" x="759.079687" xlink:href="#m12b7cf8977" y="1271.397656"/>
      </g>
     </g>
     <g id="text_59">
      <!-- 0.2 -->
      <g transform="translate(736.176562 1275.196875)scale(0.1 -0.1)">
       <use xlink:href="#DejaVuSans-30"/>
       <use x="63.623047" xlink:href="#DejaVuSans-2e"/>
       <use x="95.410156" xlink:href="#DejaVuSans-32"/>
      </g>
     </g>
    </g>
    <g id="ytick_22">
     <g id="line2d_55">
      <g>
       <use style="stroke:#000000;stroke-width:0.8;" x="759.079687" xlink:href="#m12b7cf8977" y="1156.197656"/>
      </g>
     </g>
     <g id="text_60">
      <!-- 0.4 -->
      <g transform="translate(736.176562 1159.996875)scale(0.1 -0.1)">
       <use xlink:href="#DejaVuSans-30"/>
       <use x="63.623047" xlink:href="#DejaVuSans-2e"/>
       <use x="95.410156" xlink:href="#DejaVuSans-34"/>
      </g>
     </g>
    </g>
    <g id="ytick_23">
     <g id="line2d_56">
      <g>
       <use style="stroke:#000000;stroke-width:0.8;" x="759.079687" xlink:href="#m12b7cf8977" y="1040.997656"/>
      </g>
     </g>
     <g id="text_61">
      <!-- 0.6 -->
      <g transform="translate(736.176562 1044.796875)scale(0.1 -0.1)">
       <use xlink:href="#DejaVuSans-30"/>
       <use x="63.623047" xlink:href="#DejaVuSans-2e"/>
       <use x="95.410156" xlink:href="#DejaVuSans-36"/>
      </g>
     </g>
    </g>
    <g id="ytick_24">
     <g id="line2d_57">
      <g>
       <use style="stroke:#000000;stroke-width:0.8;" x="759.079687" xlink:href="#m12b7cf8977" y="925.797656"/>
      </g>
     </g>
     <g id="text_62">
      <!-- 0.8 -->
      <g transform="translate(736.176562 929.596875)scale(0.1 -0.1)">
       <use xlink:href="#DejaVuSans-30"/>
       <use x="63.623047" xlink:href="#DejaVuSans-2e"/>
       <use x="95.410156" xlink:href="#DejaVuSans-38"/>
      </g>
     </g>
    </g>
    <g id="ytick_25">
     <g id="line2d_58">
      <g>
       <use style="stroke:#000000;stroke-width:0.8;" x="759.079687" xlink:href="#m12b7cf8977" y="810.597656"/>
      </g>
     </g>
     <g id="text_63">
      <!-- 1.0 -->
      <g transform="translate(736.176562 814.396875)scale(0.1 -0.1)">
       <use xlink:href="#DejaVuSans-31"/>
       <use x="63.623047" xlink:href="#DejaVuSans-2e"/>
       <use x="95.410156" xlink:href="#DejaVuSans-30"/>
      </g>
     </g>
    </g>
   </g>
   <g id="patch_23">
    <path d="M 759.079687 1386.597656 
L 759.079687 810.597656 
" style="fill:none;stroke:#000000;stroke-linecap:square;stroke-linejoin:miter;stroke-width:0.8;"/>
   </g>
   <g id="patch_24">
    <path d="M 1335.079688 1386.597656 
L 1335.079688 810.597656 
" style="fill:none;stroke:#000000;stroke-linecap:square;stroke-linejoin:miter;stroke-width:0.8;"/>
   </g>
   <g id="patch_25">
    <path d="M 759.079687 1386.597656 
L 1335.079688 1386.597656 
" style="fill:none;stroke:#000000;stroke-linecap:square;stroke-linejoin:miter;stroke-width:0.8;"/>
   </g>
   <g id="patch_26">
    <path d="M 759.079687 810.597656 
L 1335.079688 810.597656 
" style="fill:none;stroke:#000000;stroke-linecap:square;stroke-linejoin:miter;stroke-width:0.8;"/>
   </g>
   <g id="text_64">
    <!-- Structure of membrane portion -->
    <defs>
     <path d="M 18.109375 8.203125 
L 18.109375 -20.796875 
L 9.078125 -20.796875 
L 9.078125 54.6875 
L 18.109375 54.6875 
L 18.109375 46.390625 
Q 20.953125 51.265625 25.265625 53.625 
Q 29.59375 56 35.59375 56 
Q 45.5625 56 51.78125 48.09375 
Q 58.015625 40.1875 58.015625 27.296875 
Q 58.015625 14.40625 51.78125 6.484375 
Q 45.5625 -1.421875 35.59375 -1.421875 
Q 29.59375 -1.421875 25.265625 0.953125 
Q 20.953125 3.328125 18.109375 8.203125 
z
M 48.6875 27.296875 
Q 48.6875 37.203125 44.609375 42.84375 
Q 40.53125 48.484375 33.40625 48.484375 
Q 26.265625 48.484375 22.1875 42.84375 
Q 18.109375 37.203125 18.109375 27.296875 
Q 18.109375 17.390625 22.1875 11.75 
Q 26.265625 6.109375 33.40625 6.109375 
Q 40.53125 6.109375 44.609375 11.75 
Q 48.6875 17.390625 48.6875 27.296875 
z
" id="DejaVuSans-70"/>
    </defs>
    <g transform="translate(890.726563 1092.918594)scale(0.2 -0.2)">
     <use xlink:href="#DejaVuSans-53"/>
     <use x="63.476562" xlink:href="#DejaVuSans-74"/>
     <use x="102.685547" xlink:href="#DejaVuSans-72"/>
     <use x="143.798828" xlink:href="#DejaVuSans-75"/>
     <use x="207.177734" xlink:href="#DejaVuSans-63"/>
     <use x="262.158203" xlink:href="#DejaVuSans-74"/>
     <use x="301.367188" xlink:href="#DejaVuSans-75"/>
     <use x="364.746094" xlink:href="#DejaVuSans-72"/>
     <use x="405.828125" xlink:href="#DejaVuSans-65"/>
     <use x="467.351562" xlink:href="#DejaVuSans-20"/>
     <use x="499.138672" xlink:href="#DejaVuSans-6f"/>
     <use x="560.320312" xlink:href="#DejaVuSans-66"/>
     <use x="595.525391" xlink:href="#DejaVuSans-20"/>
     <use x="627.3125" xlink:href="#DejaVuSans-6d"/>
     <use x="724.724609" xlink:href="#DejaVuSans-65"/>
     <use x="786.248047" xlink:href="#DejaVuSans-6d"/>
     <use x="883.660156" xlink:href="#DejaVuSans-62"/>
     <use x="947.136719" xlink:href="#DejaVuSans-72"/>
     <use x="988.25" xlink:href="#DejaVuSans-61"/>
     <use x="1049.529297" xlink:href="#DejaVuSans-6e"/>
     <use x="1112.908203" xlink:href="#DejaVuSans-65"/>
     <use x="1174.431641" xlink:href="#DejaVuSans-20"/>
     <use x="1206.21875" xlink:href="#DejaVuSans-70"/>
     <use x="1269.695312" xlink:href="#DejaVuSans-6f"/>
     <use x="1330.876953" xlink:href="#DejaVuSans-72"/>
     <use x="1371.990234" xlink:href="#DejaVuSans-74"/>
     <use x="1411.199219" xlink:href="#DejaVuSans-69"/>
     <use x="1438.982422" xlink:href="#DejaVuSans-6f"/>
     <use x="1500.164062" xlink:href="#DejaVuSans-6e"/>
    </g>
    <!-- theorize about gradient connection -->
    <g transform="translate(870.648438 1115.314219)scale(0.2 -0.2)">
     <use xlink:href="#DejaVuSans-74"/>
     <use x="39.208984" xlink:href="#DejaVuSans-68"/>
     <use x="102.587891" xlink:href="#DejaVuSans-65"/>
     <use x="164.111328" xlink:href="#DejaVuSans-6f"/>
     <use x="225.292969" xlink:href="#DejaVuSans-72"/>
     <use x="266.40625" xlink:href="#DejaVuSans-69"/>
     <use x="294.189453" xlink:href="#DejaVuSans-7a"/>
     <use x="346.679688" xlink:href="#DejaVuSans-65"/>
     <use x="408.203125" xlink:href="#DejaVuSans-20"/>
     <use x="439.990234" xlink:href="#DejaVuSans-61"/>
     <use x="501.269531" xlink:href="#DejaVuSans-62"/>
     <use x="564.746094" xlink:href="#DejaVuSans-6f"/>
     <use x="625.927734" xlink:href="#DejaVuSans-75"/>
     <use x="689.306641" xlink:href="#DejaVuSans-74"/>
     <use x="728.515625" xlink:href="#DejaVuSans-20"/>
     <use x="760.302734" xlink:href="#DejaVuSans-67"/>
     <use x="823.779297" xlink:href="#DejaVuSans-72"/>
     <use x="864.892578" xlink:href="#DejaVuSans-61"/>
     <use x="926.171875" xlink:href="#DejaVuSans-64"/>
     <use x="989.648438" xlink:href="#DejaVuSans-69"/>
     <use x="1017.431641" xlink:href="#DejaVuSans-65"/>
     <use x="1078.955078" xlink:href="#DejaVuSans-6e"/>
     <use x="1142.333984" xlink:href="#DejaVuSans-74"/>
     <use x="1181.542969" xlink:href="#DejaVuSans-20"/>
     <use x="1213.330078" xlink:href="#DejaVuSans-63"/>
     <use x="1268.310547" xlink:href="#DejaVuSans-6f"/>
     <use x="1329.492188" xlink:href="#DejaVuSans-6e"/>
     <use x="1392.871094" xlink:href="#DejaVuSans-6e"/>
     <use x="1456.25" xlink:href="#DejaVuSans-65"/>
     <use x="1517.773438" xlink:href="#DejaVuSans-63"/>
     <use x="1572.753906" xlink:href="#DejaVuSans-74"/>
     <use x="1611.962891" xlink:href="#DejaVuSans-69"/>
     <use x="1639.746094" xlink:href="#DejaVuSans-6f"/>
     <use x="1700.927734" xlink:href="#DejaVuSans-6e"/>
    </g>
   </g>
   <g id="text_65">
    <!-- D -->
    <g transform="translate(675.115625 705.237891)scale(0.15 -0.15)">
     <use xlink:href="#DejaVuSans-44"/>
    </g>
   </g>
  </g>
 </g>
 <defs>
  <clipPath id="p0d4c13bb90">
   <rect height="576" width="576" x="39.079688" y="90.597656"/>
  </clipPath>
 </defs>
</svg>
