<?xml version="1.0" encoding="utf-8" standalone="no"?>
<!DOCTYPE svg PUBLIC "-//W3C//DTD SVG 1.1//EN"
  "http://www.w3.org/Graphics/SVG/1.1/DTD/svg11.dtd">
<!-- Created with matplotlib (https://matplotlib.org/) -->
<svg height="621.955pt" version="1.1" viewBox="0 0 615.560625 621.955" width="615.560625pt" xmlns="http://www.w3.org/2000/svg" xmlns:xlink="http://www.w3.org/1999/xlink">
 <defs>
  <style type="text/css">
*{stroke-linecap:butt;stroke-linejoin:round;white-space:pre;}
  </style>
 </defs>
 <g id="figure_1">
  <g id="patch_1">
   <path d="M 0 621.955 
L 615.560625 621.955 
L 615.560625 -0 
L 0 -0 
z
" style="fill:#ffffff;"/>
  </g>
  <g id="axes_1">
   <g id="patch_2">
    <path d="M 36.363125 550.8 
L 594.363125 550.8 
L 594.363125 7.2 
L 36.363125 7.2 
z
" style="fill:#ffffff;"/>
   </g>
   <g id="LineCollection_1">
    <path clip-path="url(#pf4b2e56485)" d="M 71.092487 547.076712 
L 71.092487 25.816438 
" style="fill:none;stroke:#000000;stroke-dasharray:11.1,4.8;stroke-dashoffset:0;stroke-opacity:0.5;stroke-width:3;"/>
    <path clip-path="url(#pf4b2e56485)" d="M 282.097397 547.076712 
L 282.097397 25.816438 
" style="fill:none;stroke:#000000;stroke-dasharray:11.1,4.8;stroke-dashoffset:0;stroke-opacity:0.5;stroke-width:3;"/>
    <path clip-path="url(#pf4b2e56485)" d="M 342.043895 547.076712 
L 342.043895 25.816438 
" style="fill:none;stroke:#000000;stroke-dasharray:11.1,4.8;stroke-dashoffset:0;stroke-opacity:0.5;stroke-width:3;"/>
    <path clip-path="url(#pf4b2e56485)" d="M 406.811513 547.076712 
L 406.811513 25.816438 
" style="fill:none;stroke:#000000;stroke-dasharray:11.1,4.8;stroke-dashoffset:0;stroke-opacity:0.5;stroke-width:3;"/>
    <path clip-path="url(#pf4b2e56485)" d="M 458.880725 547.076712 
L 458.880725 25.816438 
" style="fill:none;stroke:#000000;stroke-dasharray:11.1,4.8;stroke-dashoffset:0;stroke-opacity:0.5;stroke-width:3;"/>
   </g>
   <g id="matplotlib.axis_1">
    <g id="xtick_1">
     <g id="line2d_1">
      <defs>
       <path d="M 0 0 
L 0 10 
" id="m648c584cdd" style="stroke:#000000;stroke-width:4;"/>
      </defs>
      <g>
       <use style="stroke:#000000;stroke-width:4;" x="36.363125" xlink:href="#m648c584cdd" y="550.8"/>
      </g>
     </g>
     <g id="text_1">
      <!-- 2 -->
      <defs>
       <path d="M 19.1875 8.296875 
L 53.609375 8.296875 
L 53.609375 0 
L 7.328125 0 
L 7.328125 8.296875 
Q 12.9375 14.109375 22.625 23.890625 
Q 32.328125 33.6875 34.8125 36.53125 
Q 39.546875 41.84375 41.421875 45.53125 
Q 43.3125 49.21875 43.3125 52.78125 
Q 43.3125 58.59375 39.234375 62.25 
Q 35.15625 65.921875 28.609375 65.921875 
Q 23.96875 65.921875 18.8125 64.3125 
Q 13.671875 62.703125 7.8125 59.421875 
L 7.8125 69.390625 
Q 13.765625 71.78125 18.9375 73 
Q 24.125 74.21875 28.421875 74.21875 
Q 39.75 74.21875 46.484375 68.546875 
Q 53.21875 62.890625 53.21875 53.421875 
Q 53.21875 48.921875 51.53125 44.890625 
Q 49.859375 40.875 45.40625 35.40625 
Q 44.1875 33.984375 37.640625 27.21875 
Q 31.109375 20.453125 19.1875 8.296875 
z
" id="DejaVuSans-50"/>
      </defs>
      <g transform="translate(29.364375 581.016563)scale(0.22 -0.22)">
       <use xlink:href="#DejaVuSans-50"/>
      </g>
     </g>
    </g>
    <g id="xtick_2">
     <g id="line2d_2">
      <g>
       <use style="stroke:#000000;stroke-width:4;" x="147.963125" xlink:href="#m648c584cdd" y="550.8"/>
      </g>
     </g>
     <g id="text_2">
      <!-- 4 -->
      <defs>
       <path d="M 37.796875 64.3125 
L 12.890625 25.390625 
L 37.796875 25.390625 
z
M 35.203125 72.90625 
L 47.609375 72.90625 
L 47.609375 25.390625 
L 58.015625 25.390625 
L 58.015625 17.1875 
L 47.609375 17.1875 
L 47.609375 0 
L 37.796875 0 
L 37.796875 17.1875 
L 4.890625 17.1875 
L 4.890625 26.703125 
z
" id="DejaVuSans-52"/>
      </defs>
      <g transform="translate(140.964375 581.016563)scale(0.22 -0.22)">
       <use xlink:href="#DejaVuSans-52"/>
      </g>
     </g>
    </g>
    <g id="xtick_3">
     <g id="line2d_3">
      <g>
       <use style="stroke:#000000;stroke-width:4;" x="259.563125" xlink:href="#m648c584cdd" y="550.8"/>
      </g>
     </g>
     <g id="text_3">
      <!-- 6 -->
      <defs>
       <path d="M 33.015625 40.375 
Q 26.375 40.375 22.484375 35.828125 
Q 18.609375 31.296875 18.609375 23.390625 
Q 18.609375 15.53125 22.484375 10.953125 
Q 26.375 6.390625 33.015625 6.390625 
Q 39.65625 6.390625 43.53125 10.953125 
Q 47.40625 15.53125 47.40625 23.390625 
Q 47.40625 31.296875 43.53125 35.828125 
Q 39.65625 40.375 33.015625 40.375 
z
M 52.59375 71.296875 
L 52.59375 62.3125 
Q 48.875 64.0625 45.09375 64.984375 
Q 41.3125 65.921875 37.59375 65.921875 
Q 27.828125 65.921875 22.671875 59.328125 
Q 17.53125 52.734375 16.796875 39.40625 
Q 19.671875 43.65625 24.015625 45.921875 
Q 28.375 48.1875 33.59375 48.1875 
Q 44.578125 48.1875 50.953125 41.515625 
Q 57.328125 34.859375 57.328125 23.390625 
Q 57.328125 12.15625 50.6875 5.359375 
Q 44.046875 -1.421875 33.015625 -1.421875 
Q 20.359375 -1.421875 13.671875 8.265625 
Q 6.984375 17.96875 6.984375 36.375 
Q 6.984375 53.65625 15.1875 63.9375 
Q 23.390625 74.21875 37.203125 74.21875 
Q 40.921875 74.21875 44.703125 73.484375 
Q 48.484375 72.75 52.59375 71.296875 
z
" id="DejaVuSans-54"/>
      </defs>
      <g transform="translate(252.564375 581.016563)scale(0.22 -0.22)">
       <use xlink:href="#DejaVuSans-54"/>
      </g>
     </g>
    </g>
    <g id="xtick_4">
     <g id="line2d_4">
      <g>
       <use style="stroke:#000000;stroke-width:4;" x="371.163125" xlink:href="#m648c584cdd" y="550.8"/>
      </g>
     </g>
     <g id="text_4">
      <!-- 8 -->
      <defs>
       <path d="M 31.78125 34.625 
Q 24.75 34.625 20.71875 30.859375 
Q 16.703125 27.09375 16.703125 20.515625 
Q 16.703125 13.921875 20.71875 10.15625 
Q 24.75 6.390625 31.78125 6.390625 
Q 38.8125 6.390625 42.859375 10.171875 
Q 46.921875 13.96875 46.921875 20.515625 
Q 46.921875 27.09375 42.890625 30.859375 
Q 38.875 34.625 31.78125 34.625 
z
M 21.921875 38.8125 
Q 15.578125 40.375 12.03125 44.71875 
Q 8.5 49.078125 8.5 55.328125 
Q 8.5 64.0625 14.71875 69.140625 
Q 20.953125 74.21875 31.78125 74.21875 
Q 42.671875 74.21875 48.875 69.140625 
Q 55.078125 64.0625 55.078125 55.328125 
Q 55.078125 49.078125 51.53125 44.71875 
Q 48 40.375 41.703125 38.8125 
Q 48.828125 37.15625 52.796875 32.3125 
Q 56.78125 27.484375 56.78125 20.515625 
Q 56.78125 9.90625 50.3125 4.234375 
Q 43.84375 -1.421875 31.78125 -1.421875 
Q 19.734375 -1.421875 13.25 4.234375 
Q 6.78125 9.90625 6.78125 20.515625 
Q 6.78125 27.484375 10.78125 32.3125 
Q 14.796875 37.15625 21.921875 38.8125 
z
M 18.3125 54.390625 
Q 18.3125 48.734375 21.84375 45.5625 
Q 25.390625 42.390625 31.78125 42.390625 
Q 38.140625 42.390625 41.71875 45.5625 
Q 45.3125 48.734375 45.3125 54.390625 
Q 45.3125 60.0625 41.71875 63.234375 
Q 38.140625 66.40625 31.78125 66.40625 
Q 25.390625 66.40625 21.84375 63.234375 
Q 18.3125 60.0625 18.3125 54.390625 
z
" id="DejaVuSans-56"/>
      </defs>
      <g transform="translate(364.164375 581.016563)scale(0.22 -0.22)">
       <use xlink:href="#DejaVuSans-56"/>
      </g>
     </g>
    </g>
    <g id="xtick_5">
     <g id="line2d_5">
      <g>
       <use style="stroke:#000000;stroke-width:4;" x="482.763125" xlink:href="#m648c584cdd" y="550.8"/>
      </g>
     </g>
     <g id="text_5">
      <!-- 10 -->
      <defs>
       <path d="M 12.40625 8.296875 
L 28.515625 8.296875 
L 28.515625 63.921875 
L 10.984375 60.40625 
L 10.984375 69.390625 
L 28.421875 72.90625 
L 38.28125 72.90625 
L 38.28125 8.296875 
L 54.390625 8.296875 
L 54.390625 0 
L 12.40625 0 
z
" id="DejaVuSans-49"/>
       <path d="M 31.78125 66.40625 
Q 24.171875 66.40625 20.328125 58.90625 
Q 16.5 51.421875 16.5 36.375 
Q 16.5 21.390625 20.328125 13.890625 
Q 24.171875 6.390625 31.78125 6.390625 
Q 39.453125 6.390625 43.28125 13.890625 
Q 47.125 21.390625 47.125 36.375 
Q 47.125 51.421875 43.28125 58.90625 
Q 39.453125 66.40625 31.78125 66.40625 
z
M 31.78125 74.21875 
Q 44.046875 74.21875 50.515625 64.515625 
Q 56.984375 54.828125 56.984375 36.375 
Q 56.984375 17.96875 50.515625 8.265625 
Q 44.046875 -1.421875 31.78125 -1.421875 
Q 19.53125 -1.421875 13.0625 8.265625 
Q 6.59375 17.96875 6.59375 36.375 
Q 6.59375 54.828125 13.0625 64.515625 
Q 19.53125 74.21875 31.78125 74.21875 
z
" id="DejaVuSans-48"/>
      </defs>
      <g transform="translate(468.765625 581.016563)scale(0.22 -0.22)">
       <use xlink:href="#DejaVuSans-49"/>
       <use x="63.623047" xlink:href="#DejaVuSans-48"/>
      </g>
     </g>
    </g>
    <g id="xtick_6">
     <g id="line2d_6">
      <g>
       <use style="stroke:#000000;stroke-width:4;" x="594.363125" xlink:href="#m648c584cdd" y="550.8"/>
      </g>
     </g>
     <g id="text_6">
      <!-- 12 -->
      <g transform="translate(580.365625 581.016563)scale(0.22 -0.22)">
       <use xlink:href="#DejaVuSans-49"/>
       <use x="63.623047" xlink:href="#DejaVuSans-50"/>
      </g>
     </g>
    </g>
    <g id="text_7">
     <!-- Energy (keV) -->
     <defs>
      <path d="M 9.8125 72.90625 
L 55.90625 72.90625 
L 55.90625 64.59375 
L 19.671875 64.59375 
L 19.671875 43.015625 
L 54.390625 43.015625 
L 54.390625 34.71875 
L 19.671875 34.71875 
L 19.671875 8.296875 
L 56.78125 8.296875 
L 56.78125 0 
L 9.8125 0 
z
" id="DejaVuSans-69"/>
      <path d="M 54.890625 33.015625 
L 54.890625 0 
L 45.90625 0 
L 45.90625 32.71875 
Q 45.90625 40.484375 42.875 44.328125 
Q 39.84375 48.1875 33.796875 48.1875 
Q 26.515625 48.1875 22.3125 43.546875 
Q 18.109375 38.921875 18.109375 30.90625 
L 18.109375 0 
L 9.078125 0 
L 9.078125 54.6875 
L 18.109375 54.6875 
L 18.109375 46.1875 
Q 21.34375 51.125 25.703125 53.5625 
Q 30.078125 56 35.796875 56 
Q 45.21875 56 50.046875 50.171875 
Q 54.890625 44.34375 54.890625 33.015625 
z
" id="DejaVuSans-110"/>
      <path d="M 56.203125 29.59375 
L 56.203125 25.203125 
L 14.890625 25.203125 
Q 15.484375 15.921875 20.484375 11.0625 
Q 25.484375 6.203125 34.421875 6.203125 
Q 39.59375 6.203125 44.453125 7.46875 
Q 49.3125 8.734375 54.109375 11.28125 
L 54.109375 2.78125 
Q 49.265625 0.734375 44.1875 -0.34375 
Q 39.109375 -1.421875 33.890625 -1.421875 
Q 20.796875 -1.421875 13.15625 6.1875 
Q 5.515625 13.8125 5.515625 26.8125 
Q 5.515625 40.234375 12.765625 48.109375 
Q 20.015625 56 32.328125 56 
Q 43.359375 56 49.78125 48.890625 
Q 56.203125 41.796875 56.203125 29.59375 
z
M 47.21875 32.234375 
Q 47.125 39.59375 43.09375 43.984375 
Q 39.0625 48.390625 32.421875 48.390625 
Q 24.90625 48.390625 20.390625 44.140625 
Q 15.875 39.890625 15.1875 32.171875 
z
" id="DejaVuSans-101"/>
      <path d="M 41.109375 46.296875 
Q 39.59375 47.171875 37.8125 47.578125 
Q 36.03125 48 33.890625 48 
Q 26.265625 48 22.1875 43.046875 
Q 18.109375 38.09375 18.109375 28.8125 
L 18.109375 0 
L 9.078125 0 
L 9.078125 54.6875 
L 18.109375 54.6875 
L 18.109375 46.1875 
Q 20.953125 51.171875 25.484375 53.578125 
Q 30.03125 56 36.53125 56 
Q 37.453125 56 38.578125 55.875 
Q 39.703125 55.765625 41.0625 55.515625 
z
" id="DejaVuSans-114"/>
      <path d="M 45.40625 27.984375 
Q 45.40625 37.75 41.375 43.109375 
Q 37.359375 48.484375 30.078125 48.484375 
Q 22.859375 48.484375 18.828125 43.109375 
Q 14.796875 37.75 14.796875 27.984375 
Q 14.796875 18.265625 18.828125 12.890625 
Q 22.859375 7.515625 30.078125 7.515625 
Q 37.359375 7.515625 41.375 12.890625 
Q 45.40625 18.265625 45.40625 27.984375 
z
M 54.390625 6.78125 
Q 54.390625 -7.171875 48.1875 -13.984375 
Q 42 -20.796875 29.203125 -20.796875 
Q 24.46875 -20.796875 20.265625 -20.09375 
Q 16.0625 -19.390625 12.109375 -17.921875 
L 12.109375 -9.1875 
Q 16.0625 -11.328125 19.921875 -12.34375 
Q 23.78125 -13.375 27.78125 -13.375 
Q 36.625 -13.375 41.015625 -8.765625 
Q 45.40625 -4.15625 45.40625 5.171875 
L 45.40625 9.625 
Q 42.625 4.78125 38.28125 2.390625 
Q 33.9375 0 27.875 0 
Q 17.828125 0 11.671875 7.65625 
Q 5.515625 15.328125 5.515625 27.984375 
Q 5.515625 40.671875 11.671875 48.328125 
Q 17.828125 56 27.875 56 
Q 33.9375 56 38.28125 53.609375 
Q 42.625 51.21875 45.40625 46.390625 
L 45.40625 54.6875 
L 54.390625 54.6875 
z
" id="DejaVuSans-103"/>
      <path d="M 32.171875 -5.078125 
Q 28.375 -14.84375 24.75 -17.8125 
Q 21.140625 -20.796875 15.09375 -20.796875 
L 7.90625 -20.796875 
L 7.90625 -13.28125 
L 13.1875 -13.28125 
Q 16.890625 -13.28125 18.9375 -11.515625 
Q 21 -9.765625 23.484375 -3.21875 
L 25.09375 0.875 
L 2.984375 54.6875 
L 12.5 54.6875 
L 29.59375 11.921875 
L 46.6875 54.6875 
L 56.203125 54.6875 
z
" id="DejaVuSans-121"/>
      <path id="DejaVuSans-32"/>
      <path d="M 31 75.875 
Q 24.46875 64.65625 21.28125 53.65625 
Q 18.109375 42.671875 18.109375 31.390625 
Q 18.109375 20.125 21.3125 9.0625 
Q 24.515625 -2 31 -13.1875 
L 23.1875 -13.1875 
Q 15.875 -1.703125 12.234375 9.375 
Q 8.59375 20.453125 8.59375 31.390625 
Q 8.59375 42.28125 12.203125 53.3125 
Q 15.828125 64.359375 23.1875 75.875 
z
" id="DejaVuSans-40"/>
      <path d="M 9.078125 75.984375 
L 18.109375 75.984375 
L 18.109375 31.109375 
L 44.921875 54.6875 
L 56.390625 54.6875 
L 27.390625 29.109375 
L 57.625 0 
L 45.90625 0 
L 18.109375 26.703125 
L 18.109375 0 
L 9.078125 0 
z
" id="DejaVuSans-107"/>
      <path d="M 28.609375 0 
L 0.78125 72.90625 
L 11.078125 72.90625 
L 34.1875 11.53125 
L 57.328125 72.90625 
L 67.578125 72.90625 
L 39.796875 0 
z
" id="DejaVuSans-86"/>
      <path d="M 8.015625 75.875 
L 15.828125 75.875 
Q 23.140625 64.359375 26.78125 53.3125 
Q 30.421875 42.28125 30.421875 31.390625 
Q 30.421875 20.453125 26.78125 9.375 
Q 23.140625 -1.703125 15.828125 -13.1875 
L 8.015625 -13.1875 
Q 14.5 -2 17.703125 9.0625 
Q 20.90625 20.125 20.90625 31.390625 
Q 20.90625 42.671875 17.703125 53.65625 
Q 14.5 64.65625 8.015625 75.875 
z
" id="DejaVuSans-41"/>
     </defs>
     <g transform="translate(230.932188 609.347813)scale(0.26 -0.26)">
      <use xlink:href="#DejaVuSans-69"/>
      <use x="63.183594" xlink:href="#DejaVuSans-110"/>
      <use x="126.5625" xlink:href="#DejaVuSans-101"/>
      <use x="188.085938" xlink:href="#DejaVuSans-114"/>
      <use x="229.183594" xlink:href="#DejaVuSans-103"/>
      <use x="292.660156" xlink:href="#DejaVuSans-121"/>
      <use x="351.839844" xlink:href="#DejaVuSans-32"/>
      <use x="383.626953" xlink:href="#DejaVuSans-40"/>
      <use x="422.640625" xlink:href="#DejaVuSans-107"/>
      <use x="480.503906" xlink:href="#DejaVuSans-101"/>
      <use x="542.027344" xlink:href="#DejaVuSans-86"/>
      <use x="610.435547" xlink:href="#DejaVuSans-41"/>
     </g>
    </g>
   </g>
   <g id="matplotlib.axis_2">
    <g id="text_8">
     <!-- Normalized counts -->
     <defs>
      <path d="M 9.8125 72.90625 
L 23.09375 72.90625 
L 55.421875 11.921875 
L 55.421875 72.90625 
L 64.984375 72.90625 
L 64.984375 0 
L 51.703125 0 
L 19.390625 60.984375 
L 19.390625 0 
L 9.8125 0 
z
" id="DejaVuSans-78"/>
      <path d="M 30.609375 48.390625 
Q 23.390625 48.390625 19.1875 42.75 
Q 14.984375 37.109375 14.984375 27.296875 
Q 14.984375 17.484375 19.15625 11.84375 
Q 23.34375 6.203125 30.609375 6.203125 
Q 37.796875 6.203125 41.984375 11.859375 
Q 46.1875 17.53125 46.1875 27.296875 
Q 46.1875 37.015625 41.984375 42.703125 
Q 37.796875 48.390625 30.609375 48.390625 
z
M 30.609375 56 
Q 42.328125 56 49.015625 48.375 
Q 55.71875 40.765625 55.71875 27.296875 
Q 55.71875 13.875 49.015625 6.21875 
Q 42.328125 -1.421875 30.609375 -1.421875 
Q 18.84375 -1.421875 12.171875 6.21875 
Q 5.515625 13.875 5.515625 27.296875 
Q 5.515625 40.765625 12.171875 48.375 
Q 18.84375 56 30.609375 56 
z
" id="DejaVuSans-111"/>
      <path d="M 52 44.1875 
Q 55.375 50.25 60.0625 53.125 
Q 64.75 56 71.09375 56 
Q 79.640625 56 84.28125 50.015625 
Q 88.921875 44.046875 88.921875 33.015625 
L 88.921875 0 
L 79.890625 0 
L 79.890625 32.71875 
Q 79.890625 40.578125 77.09375 44.375 
Q 74.3125 48.1875 68.609375 48.1875 
Q 61.625 48.1875 57.5625 43.546875 
Q 53.515625 38.921875 53.515625 30.90625 
L 53.515625 0 
L 44.484375 0 
L 44.484375 32.71875 
Q 44.484375 40.625 41.703125 44.40625 
Q 38.921875 48.1875 33.109375 48.1875 
Q 26.21875 48.1875 22.15625 43.53125 
Q 18.109375 38.875 18.109375 30.90625 
L 18.109375 0 
L 9.078125 0 
L 9.078125 54.6875 
L 18.109375 54.6875 
L 18.109375 46.1875 
Q 21.1875 51.21875 25.484375 53.609375 
Q 29.78125 56 35.6875 56 
Q 41.65625 56 45.828125 52.96875 
Q 50 49.953125 52 44.1875 
z
" id="DejaVuSans-109"/>
      <path d="M 34.28125 27.484375 
Q 23.390625 27.484375 19.1875 25 
Q 14.984375 22.515625 14.984375 16.5 
Q 14.984375 11.71875 18.140625 8.90625 
Q 21.296875 6.109375 26.703125 6.109375 
Q 34.1875 6.109375 38.703125 11.40625 
Q 43.21875 16.703125 43.21875 25.484375 
L 43.21875 27.484375 
z
M 52.203125 31.203125 
L 52.203125 0 
L 43.21875 0 
L 43.21875 8.296875 
Q 40.140625 3.328125 35.546875 0.953125 
Q 30.953125 -1.421875 24.3125 -1.421875 
Q 15.921875 -1.421875 10.953125 3.296875 
Q 6 8.015625 6 15.921875 
Q 6 25.140625 12.171875 29.828125 
Q 18.359375 34.515625 30.609375 34.515625 
L 43.21875 34.515625 
L 43.21875 35.40625 
Q 43.21875 41.609375 39.140625 45 
Q 35.0625 48.390625 27.6875 48.390625 
Q 23 48.390625 18.546875 47.265625 
Q 14.109375 46.140625 10.015625 43.890625 
L 10.015625 52.203125 
Q 14.9375 54.109375 19.578125 55.046875 
Q 24.21875 56 28.609375 56 
Q 40.484375 56 46.34375 49.84375 
Q 52.203125 43.703125 52.203125 31.203125 
z
" id="DejaVuSans-97"/>
      <path d="M 9.421875 75.984375 
L 18.40625 75.984375 
L 18.40625 0 
L 9.421875 0 
z
" id="DejaVuSans-108"/>
      <path d="M 9.421875 54.6875 
L 18.40625 54.6875 
L 18.40625 0 
L 9.421875 0 
z
M 9.421875 75.984375 
L 18.40625 75.984375 
L 18.40625 64.59375 
L 9.421875 64.59375 
z
" id="DejaVuSans-105"/>
      <path d="M 5.515625 54.6875 
L 48.1875 54.6875 
L 48.1875 46.484375 
L 14.40625 7.171875 
L 48.1875 7.171875 
L 48.1875 0 
L 4.296875 0 
L 4.296875 8.203125 
L 38.09375 47.515625 
L 5.515625 47.515625 
z
" id="DejaVuSans-122"/>
      <path d="M 45.40625 46.390625 
L 45.40625 75.984375 
L 54.390625 75.984375 
L 54.390625 0 
L 45.40625 0 
L 45.40625 8.203125 
Q 42.578125 3.328125 38.25 0.953125 
Q 33.9375 -1.421875 27.875 -1.421875 
Q 17.96875 -1.421875 11.734375 6.484375 
Q 5.515625 14.40625 5.515625 27.296875 
Q 5.515625 40.1875 11.734375 48.09375 
Q 17.96875 56 27.875 56 
Q 33.9375 56 38.25 53.625 
Q 42.578125 51.265625 45.40625 46.390625 
z
M 14.796875 27.296875 
Q 14.796875 17.390625 18.875 11.75 
Q 22.953125 6.109375 30.078125 6.109375 
Q 37.203125 6.109375 41.296875 11.75 
Q 45.40625 17.390625 45.40625 27.296875 
Q 45.40625 37.203125 41.296875 42.84375 
Q 37.203125 48.484375 30.078125 48.484375 
Q 22.953125 48.484375 18.875 42.84375 
Q 14.796875 37.203125 14.796875 27.296875 
z
" id="DejaVuSans-100"/>
      <path d="M 48.78125 52.59375 
L 48.78125 44.1875 
Q 44.96875 46.296875 41.140625 47.34375 
Q 37.3125 48.390625 33.40625 48.390625 
Q 24.65625 48.390625 19.8125 42.84375 
Q 14.984375 37.3125 14.984375 27.296875 
Q 14.984375 17.28125 19.8125 11.734375 
Q 24.65625 6.203125 33.40625 6.203125 
Q 37.3125 6.203125 41.140625 7.25 
Q 44.96875 8.296875 48.78125 10.40625 
L 48.78125 2.09375 
Q 45.015625 0.34375 40.984375 -0.53125 
Q 36.96875 -1.421875 32.421875 -1.421875 
Q 20.0625 -1.421875 12.78125 6.34375 
Q 5.515625 14.109375 5.515625 27.296875 
Q 5.515625 40.671875 12.859375 48.328125 
Q 20.21875 56 33.015625 56 
Q 37.15625 56 41.109375 55.140625 
Q 45.0625 54.296875 48.78125 52.59375 
z
" id="DejaVuSans-99"/>
      <path d="M 8.5 21.578125 
L 8.5 54.6875 
L 17.484375 54.6875 
L 17.484375 21.921875 
Q 17.484375 14.15625 20.5 10.265625 
Q 23.53125 6.390625 29.59375 6.390625 
Q 36.859375 6.390625 41.078125 11.03125 
Q 45.3125 15.671875 45.3125 23.6875 
L 45.3125 54.6875 
L 54.296875 54.6875 
L 54.296875 0 
L 45.3125 0 
L 45.3125 8.40625 
Q 42.046875 3.421875 37.71875 1 
Q 33.40625 -1.421875 27.6875 -1.421875 
Q 18.265625 -1.421875 13.375 4.4375 
Q 8.5 10.296875 8.5 21.578125 
z
M 31.109375 56 
z
" id="DejaVuSans-117"/>
      <path d="M 18.3125 70.21875 
L 18.3125 54.6875 
L 36.8125 54.6875 
L 36.8125 47.703125 
L 18.3125 47.703125 
L 18.3125 18.015625 
Q 18.3125 11.328125 20.140625 9.421875 
Q 21.96875 7.515625 27.59375 7.515625 
L 36.8125 7.515625 
L 36.8125 0 
L 27.59375 0 
Q 17.1875 0 13.234375 3.875 
Q 9.28125 7.765625 9.28125 18.015625 
L 9.28125 47.703125 
L 2.6875 47.703125 
L 2.6875 54.6875 
L 9.28125 54.6875 
L 9.28125 70.21875 
z
" id="DejaVuSans-116"/>
      <path d="M 44.28125 53.078125 
L 44.28125 44.578125 
Q 40.484375 46.53125 36.375 47.5 
Q 32.28125 48.484375 27.875 48.484375 
Q 21.1875 48.484375 17.84375 46.4375 
Q 14.5 44.390625 14.5 40.28125 
Q 14.5 37.15625 16.890625 35.375 
Q 19.28125 33.59375 26.515625 31.984375 
L 29.59375 31.296875 
Q 39.15625 29.25 43.1875 25.515625 
Q 47.21875 21.78125 47.21875 15.09375 
Q 47.21875 7.46875 41.1875 3.015625 
Q 35.15625 -1.421875 24.609375 -1.421875 
Q 20.21875 -1.421875 15.453125 -0.5625 
Q 10.6875 0.296875 5.421875 2 
L 5.421875 11.28125 
Q 10.40625 8.6875 15.234375 7.390625 
Q 20.0625 6.109375 24.8125 6.109375 
Q 31.15625 6.109375 34.5625 8.28125 
Q 37.984375 10.453125 37.984375 14.40625 
Q 37.984375 18.0625 35.515625 20.015625 
Q 33.0625 21.96875 24.703125 23.78125 
L 21.578125 24.515625 
Q 13.234375 26.265625 9.515625 29.90625 
Q 5.8125 33.546875 5.8125 39.890625 
Q 5.8125 47.609375 11.28125 51.796875 
Q 16.75 56 26.8125 56 
Q 31.78125 56 36.171875 55.265625 
Q 40.578125 54.546875 44.28125 53.078125 
z
" id="DejaVuSans-115"/>
     </defs>
     <g transform="translate(26.955938 400.529688)rotate(-90)scale(0.26 -0.26)">
      <use xlink:href="#DejaVuSans-78"/>
      <use x="74.804688" xlink:href="#DejaVuSans-111"/>
      <use x="135.986328" xlink:href="#DejaVuSans-114"/>
      <use x="177.083984" xlink:href="#DejaVuSans-109"/>
      <use x="274.496094" xlink:href="#DejaVuSans-97"/>
      <use x="335.775391" xlink:href="#DejaVuSans-108"/>
      <use x="363.558594" xlink:href="#DejaVuSans-105"/>
      <use x="391.341797" xlink:href="#DejaVuSans-122"/>
      <use x="443.832031" xlink:href="#DejaVuSans-101"/>
      <use x="505.355469" xlink:href="#DejaVuSans-100"/>
      <use x="568.832031" xlink:href="#DejaVuSans-32"/>
      <use x="600.619141" xlink:href="#DejaVuSans-99"/>
      <use x="655.599609" xlink:href="#DejaVuSans-111"/>
      <use x="716.78125" xlink:href="#DejaVuSans-117"/>
      <use x="780.160156" xlink:href="#DejaVuSans-110"/>
      <use x="843.539062" xlink:href="#DejaVuSans-116"/>
      <use x="882.748047" xlink:href="#DejaVuSans-115"/>
     </g>
    </g>
   </g>
   <g id="patch_3">
    <path d="M 36.363125 550.8 
L 36.363125 7.2 
" style="fill:none;stroke:#000000;stroke-linecap:square;stroke-linejoin:miter;stroke-width:3;"/>
   </g>
   <g id="patch_4">
    <path d="M 36.363125 550.8 
L 594.363125 550.8 
" style="fill:none;stroke:#000000;stroke-linecap:square;stroke-linejoin:miter;stroke-width:3;"/>
   </g>
   <g id="text_9">
    <!-- Buffer (-) -->
    <defs>
     <path d="M 19.671875 34.8125 
L 19.671875 8.109375 
L 35.5 8.109375 
Q 43.453125 8.109375 47.28125 11.40625 
Q 51.125 14.703125 51.125 21.484375 
Q 51.125 28.328125 47.28125 31.5625 
Q 43.453125 34.8125 35.5 34.8125 
z
M 19.671875 64.796875 
L 19.671875 42.828125 
L 34.28125 42.828125 
Q 41.5 42.828125 45.03125 45.53125 
Q 48.578125 48.25 48.578125 53.8125 
Q 48.578125 59.328125 45.03125 62.0625 
Q 41.5 64.796875 34.28125 64.796875 
z
M 9.8125 72.90625 
L 35.015625 72.90625 
Q 46.296875 72.90625 52.390625 68.21875 
Q 58.5 63.53125 58.5 54.890625 
Q 58.5 48.1875 55.375 44.234375 
Q 52.25 40.28125 46.1875 39.3125 
Q 53.46875 37.75 57.5 32.78125 
Q 61.53125 27.828125 61.53125 20.40625 
Q 61.53125 10.640625 54.890625 5.3125 
Q 48.25 0 35.984375 0 
L 9.8125 0 
z
" id="DejaVuSans-66"/>
     <path d="M 37.109375 75.984375 
L 37.109375 68.5 
L 28.515625 68.5 
Q 23.6875 68.5 21.796875 66.546875 
Q 19.921875 64.59375 19.921875 59.515625 
L 19.921875 54.6875 
L 34.71875 54.6875 
L 34.71875 47.703125 
L 19.921875 47.703125 
L 19.921875 0 
L 10.890625 0 
L 10.890625 47.703125 
L 2.296875 47.703125 
L 2.296875 54.6875 
L 10.890625 54.6875 
L 10.890625 58.5 
Q 10.890625 67.625 15.140625 71.796875 
Q 19.390625 75.984375 28.609375 75.984375 
z
" id="DejaVuSans-102"/>
     <path d="M 4.890625 31.390625 
L 31.203125 31.390625 
L 31.203125 23.390625 
L 4.890625 23.390625 
z
" id="DejaVuSans-45"/>
    </defs>
    <g transform="translate(86.583125 531.747474)scale(0.2 -0.2)">
     <use xlink:href="#DejaVuSans-66"/>
     <use x="68.603516" xlink:href="#DejaVuSans-117"/>
     <use x="131.982422" xlink:href="#DejaVuSans-102"/>
     <use x="167.1875" xlink:href="#DejaVuSans-102"/>
     <use x="202.392578" xlink:href="#DejaVuSans-101"/>
     <use x="263.916016" xlink:href="#DejaVuSans-114"/>
     <use x="305.029297" xlink:href="#DejaVuSans-32"/>
     <use x="336.816406" xlink:href="#DejaVuSans-40"/>
     <use x="375.830078" xlink:href="#DejaVuSans-45"/>
     <use x="411.914062" xlink:href="#DejaVuSans-41"/>
    </g>
   </g>
   <g id="text_10">
    <!-- Rubisco (-) -->
    <defs>
     <path d="M 44.390625 34.1875 
Q 47.5625 33.109375 50.5625 29.59375 
Q 53.5625 26.078125 56.59375 19.921875 
L 66.609375 0 
L 56 0 
L 46.6875 18.703125 
Q 43.0625 26.03125 39.671875 28.421875 
Q 36.28125 30.8125 30.421875 30.8125 
L 19.671875 30.8125 
L 19.671875 0 
L 9.8125 0 
L 9.8125 72.90625 
L 32.078125 72.90625 
Q 44.578125 72.90625 50.734375 67.671875 
Q 56.890625 62.453125 56.890625 51.90625 
Q 56.890625 45.015625 53.6875 40.46875 
Q 50.484375 35.9375 44.390625 34.1875 
z
M 19.671875 64.796875 
L 19.671875 38.921875 
L 32.078125 38.921875 
Q 39.203125 38.921875 42.84375 42.21875 
Q 46.484375 45.515625 46.484375 51.90625 
Q 46.484375 58.296875 42.84375 61.546875 
Q 39.203125 64.796875 32.078125 64.796875 
z
" id="DejaVuSans-82"/>
     <path d="M 48.6875 27.296875 
Q 48.6875 37.203125 44.609375 42.84375 
Q 40.53125 48.484375 33.40625 48.484375 
Q 26.265625 48.484375 22.1875 42.84375 
Q 18.109375 37.203125 18.109375 27.296875 
Q 18.109375 17.390625 22.1875 11.75 
Q 26.265625 6.109375 33.40625 6.109375 
Q 40.53125 6.109375 44.609375 11.75 
Q 48.6875 17.390625 48.6875 27.296875 
z
M 18.109375 46.390625 
Q 20.953125 51.265625 25.265625 53.625 
Q 29.59375 56 35.59375 56 
Q 45.5625 56 51.78125 48.09375 
Q 58.015625 40.1875 58.015625 27.296875 
Q 58.015625 14.40625 51.78125 6.484375 
Q 45.5625 -1.421875 35.59375 -1.421875 
Q 29.59375 -1.421875 25.265625 0.953125 
Q 20.953125 3.328125 18.109375 8.203125 
L 18.109375 0 
L 9.078125 0 
L 9.078125 75.984375 
L 18.109375 75.984375 
z
" id="DejaVuSans-98"/>
    </defs>
    <g transform="translate(86.583125 457.281721)scale(0.2 -0.2)">
     <use xlink:href="#DejaVuSans-82"/>
     <use x="69.419922" xlink:href="#DejaVuSans-117"/>
     <use x="132.798828" xlink:href="#DejaVuSans-98"/>
     <use x="196.275391" xlink:href="#DejaVuSans-105"/>
     <use x="224.058594" xlink:href="#DejaVuSans-115"/>
     <use x="276.158203" xlink:href="#DejaVuSans-99"/>
     <use x="331.138672" xlink:href="#DejaVuSans-111"/>
     <use x="392.320312" xlink:href="#DejaVuSans-32"/>
     <use x="424.107422" xlink:href="#DejaVuSans-40"/>
     <use x="463.121094" xlink:href="#DejaVuSans-45"/>
     <use x="499.205078" xlink:href="#DejaVuSans-41"/>
    </g>
   </g>
   <g id="text_11">
    <!-- DAB2 H524A -->
    <defs>
     <path d="M 19.671875 64.796875 
L 19.671875 8.109375 
L 31.59375 8.109375 
Q 46.6875 8.109375 53.6875 14.9375 
Q 60.6875 21.78125 60.6875 36.53125 
Q 60.6875 51.171875 53.6875 57.984375 
Q 46.6875 64.796875 31.59375 64.796875 
z
M 9.8125 72.90625 
L 30.078125 72.90625 
Q 51.265625 72.90625 61.171875 64.09375 
Q 71.09375 55.28125 71.09375 36.53125 
Q 71.09375 17.671875 61.125 8.828125 
Q 51.171875 0 30.078125 0 
L 9.8125 0 
z
" id="DejaVuSans-68"/>
     <path d="M 34.1875 63.1875 
L 20.796875 26.90625 
L 47.609375 26.90625 
z
M 28.609375 72.90625 
L 39.796875 72.90625 
L 67.578125 0 
L 57.328125 0 
L 50.6875 18.703125 
L 17.828125 18.703125 
L 11.1875 0 
L 0.78125 0 
z
" id="DejaVuSans-65"/>
     <path d="M 9.8125 72.90625 
L 19.671875 72.90625 
L 19.671875 43.015625 
L 55.515625 43.015625 
L 55.515625 72.90625 
L 65.375 72.90625 
L 65.375 0 
L 55.515625 0 
L 55.515625 34.71875 
L 19.671875 34.71875 
L 19.671875 0 
L 9.8125 0 
z
" id="DejaVuSans-72"/>
     <path d="M 10.796875 72.90625 
L 49.515625 72.90625 
L 49.515625 64.59375 
L 19.828125 64.59375 
L 19.828125 46.734375 
Q 21.96875 47.46875 24.109375 47.828125 
Q 26.265625 48.1875 28.421875 48.1875 
Q 40.625 48.1875 47.75 41.5 
Q 54.890625 34.8125 54.890625 23.390625 
Q 54.890625 11.625 47.5625 5.09375 
Q 40.234375 -1.421875 26.90625 -1.421875 
Q 22.3125 -1.421875 17.546875 -0.640625 
Q 12.796875 0.140625 7.71875 1.703125 
L 7.71875 11.625 
Q 12.109375 9.234375 16.796875 8.0625 
Q 21.484375 6.890625 26.703125 6.890625 
Q 35.15625 6.890625 40.078125 11.328125 
Q 45.015625 15.765625 45.015625 23.390625 
Q 45.015625 31 40.078125 35.4375 
Q 35.15625 39.890625 26.703125 39.890625 
Q 22.75 39.890625 18.8125 39.015625 
Q 14.890625 38.140625 10.796875 36.28125 
z
" id="DejaVuSans-53"/>
    </defs>
    <g transform="translate(86.583125 382.815967)scale(0.2 -0.2)">
     <use xlink:href="#DejaVuSans-68"/>
     <use x="76.986328" xlink:href="#DejaVuSans-65"/>
     <use x="145.394531" xlink:href="#DejaVuSans-66"/>
     <use x="213.998047" xlink:href="#DejaVuSans-50"/>
     <use x="277.621094" xlink:href="#DejaVuSans-32"/>
     <use x="309.408203" xlink:href="#DejaVuSans-72"/>
     <use x="384.603516" xlink:href="#DejaVuSans-53"/>
     <use x="448.226562" xlink:href="#DejaVuSans-50"/>
     <use x="511.849609" xlink:href="#DejaVuSans-52"/>
     <use x="575.472656" xlink:href="#DejaVuSans-65"/>
    </g>
   </g>
   <g id="text_12">
    <!-- DAB2 C351A -->
    <defs>
     <path d="M 64.40625 67.28125 
L 64.40625 56.890625 
Q 59.421875 61.53125 53.78125 63.8125 
Q 48.140625 66.109375 41.796875 66.109375 
Q 29.296875 66.109375 22.65625 58.46875 
Q 16.015625 50.828125 16.015625 36.375 
Q 16.015625 21.96875 22.65625 14.328125 
Q 29.296875 6.6875 41.796875 6.6875 
Q 48.140625 6.6875 53.78125 8.984375 
Q 59.421875 11.28125 64.40625 15.921875 
L 64.40625 5.609375 
Q 59.234375 2.09375 53.4375 0.328125 
Q 47.65625 -1.421875 41.21875 -1.421875 
Q 24.65625 -1.421875 15.125 8.703125 
Q 5.609375 18.84375 5.609375 36.375 
Q 5.609375 53.953125 15.125 64.078125 
Q 24.65625 74.21875 41.21875 74.21875 
Q 47.75 74.21875 53.53125 72.484375 
Q 59.328125 70.75 64.40625 67.28125 
z
" id="DejaVuSans-67"/>
     <path d="M 40.578125 39.3125 
Q 47.65625 37.796875 51.625 33 
Q 55.609375 28.21875 55.609375 21.1875 
Q 55.609375 10.40625 48.1875 4.484375 
Q 40.765625 -1.421875 27.09375 -1.421875 
Q 22.515625 -1.421875 17.65625 -0.515625 
Q 12.796875 0.390625 7.625 2.203125 
L 7.625 11.71875 
Q 11.71875 9.328125 16.59375 8.109375 
Q 21.484375 6.890625 26.8125 6.890625 
Q 36.078125 6.890625 40.9375 10.546875 
Q 45.796875 14.203125 45.796875 21.1875 
Q 45.796875 27.640625 41.28125 31.265625 
Q 36.765625 34.90625 28.71875 34.90625 
L 20.21875 34.90625 
L 20.21875 43.015625 
L 29.109375 43.015625 
Q 36.375 43.015625 40.234375 45.921875 
Q 44.09375 48.828125 44.09375 54.296875 
Q 44.09375 59.90625 40.109375 62.90625 
Q 36.140625 65.921875 28.71875 65.921875 
Q 24.65625 65.921875 20.015625 65.03125 
Q 15.375 64.15625 9.8125 62.3125 
L 9.8125 71.09375 
Q 15.4375 72.65625 20.34375 73.4375 
Q 25.25 74.21875 29.59375 74.21875 
Q 40.828125 74.21875 47.359375 69.109375 
Q 53.90625 64.015625 53.90625 55.328125 
Q 53.90625 49.265625 50.4375 45.09375 
Q 46.96875 40.921875 40.578125 39.3125 
z
" id="DejaVuSans-51"/>
    </defs>
    <g transform="translate(86.583125 308.350214)scale(0.2 -0.2)">
     <use xlink:href="#DejaVuSans-68"/>
     <use x="76.986328" xlink:href="#DejaVuSans-65"/>
     <use x="145.394531" xlink:href="#DejaVuSans-66"/>
     <use x="213.998047" xlink:href="#DejaVuSans-50"/>
     <use x="277.621094" xlink:href="#DejaVuSans-32"/>
     <use x="309.408203" xlink:href="#DejaVuSans-67"/>
     <use x="379.232422" xlink:href="#DejaVuSans-51"/>
     <use x="442.855469" xlink:href="#DejaVuSans-53"/>
     <use x="506.478516" xlink:href="#DejaVuSans-49"/>
     <use x="570.101562" xlink:href="#DejaVuSans-65"/>
    </g>
   </g>
   <g id="text_13">
    <!-- DAB2 D353A -->
    <g transform="translate(86.583125 233.884461)scale(0.2 -0.2)">
     <use xlink:href="#DejaVuSans-68"/>
     <use x="76.986328" xlink:href="#DejaVuSans-65"/>
     <use x="145.394531" xlink:href="#DejaVuSans-66"/>
     <use x="213.998047" xlink:href="#DejaVuSans-50"/>
     <use x="277.621094" xlink:href="#DejaVuSans-32"/>
     <use x="309.408203" xlink:href="#DejaVuSans-68"/>
     <use x="386.410156" xlink:href="#DejaVuSans-51"/>
     <use x="450.033203" xlink:href="#DejaVuSans-53"/>
     <use x="513.65625" xlink:href="#DejaVuSans-51"/>
     <use x="577.279297" xlink:href="#DejaVuSans-65"/>
    </g>
   </g>
   <g id="text_14">
    <!-- DAB2 -->
    <g transform="translate(86.583125 159.418707)scale(0.2 -0.2)">
     <use xlink:href="#DejaVuSans-68"/>
     <use x="76.986328" xlink:href="#DejaVuSans-65"/>
     <use x="145.394531" xlink:href="#DejaVuSans-66"/>
     <use x="213.998047" xlink:href="#DejaVuSans-50"/>
    </g>
   </g>
   <g id="text_15">
    <!-- bCA (+) -->
    <defs>
     <path d="M 46 62.703125 
L 46 35.5 
L 73.1875 35.5 
L 73.1875 27.203125 
L 46 27.203125 
L 46 0 
L 37.796875 0 
L 37.796875 27.203125 
L 10.59375 27.203125 
L 10.59375 35.5 
L 37.796875 35.5 
L 37.796875 62.703125 
z
" id="DejaVuSans-43"/>
    </defs>
    <g transform="translate(86.583125 84.952954)scale(0.2 -0.2)">
     <use xlink:href="#DejaVuSans-98"/>
     <use x="63.476562" xlink:href="#DejaVuSans-67"/>
     <use x="133.300781" xlink:href="#DejaVuSans-65"/>
     <use x="201.708984" xlink:href="#DejaVuSans-32"/>
     <use x="233.496094" xlink:href="#DejaVuSans-40"/>
     <use x="272.509766" xlink:href="#DejaVuSans-43"/>
     <use x="356.298828" xlink:href="#DejaVuSans-41"/>
    </g>
   </g>
   <g id="text_16">
    <!-- Cl -->
    <g transform="translate(61.33155 25.380351)scale(0.2 -0.2)">
     <use xlink:href="#DejaVuSans-67"/>
     <use x="69.824219" xlink:href="#DejaVuSans-108"/>
    </g>
   </g>
   <g id="text_17">
    <!-- Ni -->
    <g transform="translate(331.78452 25.380351)scale(0.2 -0.2)">
     <use xlink:href="#DejaVuSans-78"/>
     <use x="74.804688" xlink:href="#DejaVuSans-105"/>
    </g>
   </g>
   <g id="text_18">
    <!-- Zn -->
    <defs>
     <path d="M 5.609375 72.90625 
L 62.890625 72.90625 
L 62.890625 65.375 
L 16.796875 8.296875 
L 64.015625 8.296875 
L 64.015625 0 
L 4.5 0 
L 4.5 7.515625 
L 50.59375 64.59375 
L 5.609375 64.59375 
z
" id="DejaVuSans-90"/>
    </defs>
    <g transform="translate(393.624013 25.380351)scale(0.2 -0.2)">
     <use xlink:href="#DejaVuSans-90"/>
     <use x="68.505859" xlink:href="#DejaVuSans-110"/>
    </g>
   </g>
   <g id="text_19">
    <!-- Zn -->
    <g transform="translate(445.693225 25.380351)scale(0.2 -0.2)">
     <use xlink:href="#DejaVuSans-90"/>
     <use x="68.505859" xlink:href="#DejaVuSans-110"/>
    </g>
   </g>
   <g id="text_20">
    <!-- Fe -->
    <defs>
     <path d="M 9.8125 72.90625 
L 51.703125 72.90625 
L 51.703125 64.59375 
L 19.671875 64.59375 
L 19.671875 43.109375 
L 48.578125 43.109375 
L 48.578125 34.8125 
L 19.671875 34.8125 
L 19.671875 0 
L 9.8125 0 
z
" id="DejaVuSans-70"/>
    </defs>
    <g transform="translate(270.200522 25.380351)scale(0.2 -0.2)">
     <use xlink:href="#DejaVuSans-70"/>
     <use x="57.441406" xlink:href="#DejaVuSans-101"/>
    </g>
   </g>
   <g id="line2d_7">
    <path clip-path="url(#pf4b2e56485)" d="M 35.665625 547.076712 
L 37.060625 545.606994 
L 38.455625 547.076712 
L 39.850625 546.0969 
L 44.035625 546.0969 
L 46.825625 547.076712 
L 48.220625 547.076712 
L 49.615625 545.606994 
L 51.010625 546.586806 
L 52.405625 544.627181 
L 53.800625 545.117087 
L 55.195625 544.137275 
L 56.590625 545.117087 
L 57.985625 544.137275 
L 59.380625 541.687743 
L 60.775625 541.197837 
L 62.170625 543.647368 
L 63.565625 539.238212 
L 64.960625 528.460274 
L 66.355625 528.95018 
L 67.750625 516.212617 
L 69.145625 520.131867 
L 70.540625 513.27318 
L 71.935625 509.843836 
L 73.330625 513.763086 
L 74.725625 509.843836 
L 76.120625 515.232805 
L 77.515625 526.010743 
L 78.910625 530.909805 
L 80.305625 533.359337 
L 81.700625 535.318962 
L 83.095625 536.788681 
L 84.490625 535.808868 
L 85.885625 538.748306 
L 87.280625 538.258399 
L 88.675625 540.218025 
L 90.070625 544.627181 
L 91.465625 541.197837 
L 92.860625 543.157462 
L 94.255625 543.647368 
L 95.650625 545.606994 
L 97.045625 544.137275 
L 98.440625 546.0969 
L 99.835625 546.586806 
L 101.230625 546.586806 
L 102.625625 546.0969 
L 104.020625 546.586806 
L 105.415625 546.0969 
L 106.810625 546.0969 
L 108.205625 546.586806 
L 109.600625 546.0969 
L 110.995625 546.586806 
L 112.390625 545.117087 
L 113.785625 545.117087 
L 115.180625 546.586806 
L 116.575625 546.0969 
L 119.365625 547.076712 
L 120.760625 546.0969 
L 122.155625 546.0969 
L 123.550625 545.606994 
L 124.945625 545.606994 
L 126.340625 546.0969 
L 127.735625 544.137275 
L 129.130625 545.117087 
L 130.525625 544.137275 
L 133.315625 546.0969 
L 134.710625 546.586806 
L 136.105625 546.586806 
L 137.500625 545.117087 
L 138.895625 546.0969 
L 141.685625 546.0969 
L 143.080625 545.117087 
L 144.475625 546.0969 
L 145.870625 545.606994 
L 147.265625 546.586806 
L 148.660625 545.606994 
L 151.450625 545.606994 
L 152.845625 546.0969 
L 155.635625 546.0969 
L 157.030625 545.117087 
L 158.425625 546.586806 
L 159.820625 547.076712 
L 161.215625 546.0969 
L 162.610625 546.586806 
L 164.005625 546.0969 
L 165.400625 546.0969 
L 166.795625 545.606994 
L 168.190625 545.606994 
L 169.585625 545.117087 
L 170.980625 545.117087 
L 172.375625 544.627181 
L 173.770625 543.647368 
L 175.165625 543.647368 
L 176.560625 541.197837 
L 177.955625 540.218025 
L 179.350625 543.157462 
L 180.745625 544.137275 
L 182.140625 543.647368 
L 183.535625 544.137275 
L 184.930625 546.586806 
L 186.325625 545.117087 
L 189.115625 546.0969 
L 190.510625 545.117087 
L 191.905625 545.117087 
L 193.300625 547.076712 
L 194.695625 545.606994 
L 196.090625 545.117087 
L 197.485625 545.117087 
L 198.880625 546.586806 
L 200.275625 546.586806 
L 201.670625 544.137275 
L 203.065625 546.586806 
L 204.460625 546.0969 
L 205.855625 545.117087 
L 207.250625 547.076712 
L 208.645625 544.627181 
L 210.040625 547.076712 
L 211.435625 545.606994 
L 215.620625 547.076712 
L 217.015625 545.117087 
L 218.410625 546.586806 
L 221.200625 546.586806 
L 222.595625 546.0969 
L 223.990625 545.117087 
L 228.175625 546.586806 
L 229.570625 544.627181 
L 230.965625 545.117087 
L 232.360625 545.117087 
L 233.755625 547.076712 
L 236.545625 545.117087 
L 237.940625 546.586806 
L 239.335625 547.076712 
L 240.730625 546.0969 
L 242.125625 546.0969 
L 243.520625 546.586806 
L 246.310625 546.586806 
L 247.705625 545.117087 
L 249.100625 546.586806 
L 250.495625 547.076712 
L 251.890625 546.0969 
L 254.680625 546.0969 
L 256.075625 546.586806 
L 257.470625 546.586806 
L 261.655625 545.117087 
L 263.050625 546.586806 
L 264.445625 547.076712 
L 265.840625 546.586806 
L 267.235625 547.076712 
L 268.630625 545.117087 
L 270.025625 545.606994 
L 271.420625 545.117087 
L 272.815625 545.606994 
L 274.210625 545.117087 
L 275.605625 545.117087 
L 277.000625 543.157462 
L 278.395625 543.157462 
L 279.790625 543.647368 
L 281.185625 540.707931 
L 282.580625 538.748306 
L 283.975625 541.687743 
L 285.370625 542.667556 
L 286.765625 544.627181 
L 288.160625 543.157462 
L 289.555625 543.157462 
L 290.950625 545.606994 
L 292.345625 546.0969 
L 293.740625 546.0969 
L 295.135625 546.586806 
L 296.530625 546.0969 
L 297.925625 547.076712 
L 300.715625 546.0969 
L 302.110625 547.076712 
L 303.505625 546.586806 
L 304.900625 547.076712 
L 306.295625 546.0969 
L 307.690625 545.606994 
L 309.085625 545.606994 
L 310.480625 547.076712 
L 311.875625 547.076712 
L 313.270625 546.0969 
L 314.665625 546.586806 
L 316.060625 546.0969 
L 320.245625 546.0969 
L 321.640625 547.076712 
L 323.035625 544.627181 
L 324.430625 544.627181 
L 325.825625 547.076712 
L 327.220625 546.586806 
L 328.615625 546.586806 
L 330.010625 547.076712 
L 331.405625 546.586806 
L 332.800625 545.606994 
L 334.195625 547.076712 
L 335.590625 546.586806 
L 336.985625 545.606994 
L 338.380625 546.586806 
L 339.775625 544.627181 
L 342.565625 545.606994 
L 343.960625 545.117087 
L 345.355625 545.606994 
L 348.145625 545.606994 
L 349.540625 545.117087 
L 350.935625 546.586806 
L 352.330625 546.586806 
L 353.725625 547.076712 
L 355.120625 545.606994 
L 356.515625 546.0969 
L 357.910625 547.076712 
L 359.305625 547.076712 
L 360.700625 546.586806 
L 362.095625 547.076712 
L 363.490625 545.606994 
L 364.885625 546.586806 
L 366.280625 545.606994 
L 370.465625 547.076712 
L 371.860625 545.117087 
L 373.255625 546.0969 
L 376.045625 546.0969 
L 378.835625 547.076712 
L 380.230625 546.586806 
L 381.625625 546.586806 
L 383.020625 545.606994 
L 384.415625 546.586806 
L 385.810625 546.586806 
L 387.205625 547.076712 
L 388.600625 546.586806 
L 391.390625 546.586806 
L 394.180625 545.606994 
L 395.575625 546.0969 
L 396.970625 545.117087 
L 398.365625 543.647368 
L 399.760625 543.647368 
L 401.155625 543.157462 
L 402.550625 543.157462 
L 403.945625 544.627181 
L 405.340625 542.667556 
L 409.525625 542.667556 
L 410.920625 543.157462 
L 412.315625 544.627181 
L 413.710625 546.586806 
L 415.105625 543.647368 
L 416.500625 545.606994 
L 419.290625 546.586806 
L 420.685625 546.0969 
L 422.080625 546.586806 
L 423.475625 546.586806 
L 424.870625 547.076712 
L 426.265625 545.606994 
L 427.660625 546.586806 
L 429.055625 546.0969 
L 431.845625 547.076712 
L 434.635625 545.117087 
L 436.030625 547.076712 
L 437.425625 545.606994 
L 438.820625 547.076712 
L 440.215625 547.076712 
L 441.610625 546.586806 
L 443.005625 547.076712 
L 444.400625 546.0969 
L 445.795625 546.586806 
L 447.190625 546.0969 
L 448.585625 547.076712 
L 449.980625 546.0969 
L 451.375625 546.0969 
L 452.770625 546.586806 
L 454.165625 545.117087 
L 456.955625 546.0969 
L 458.350625 545.606994 
L 459.745625 546.0969 
L 461.140625 546.0969 
L 462.535625 545.606994 
L 463.930625 546.0969 
L 465.325625 545.606994 
L 466.720625 544.627181 
L 468.115625 546.586806 
L 469.510625 547.076712 
L 470.905625 545.606994 
L 472.300625 546.586806 
L 473.695625 544.627181 
L 475.090625 545.606994 
L 477.880625 546.586806 
L 479.275625 546.0969 
L 480.670625 546.586806 
L 483.460625 546.586806 
L 484.855625 547.076712 
L 486.250625 547.076712 
L 487.645625 545.606994 
L 489.040625 545.117087 
L 490.435625 546.586806 
L 491.830625 545.117087 
L 493.225625 546.586806 
L 494.620625 545.117087 
L 496.015625 545.606994 
L 497.410625 547.076712 
L 498.805625 545.117087 
L 500.200625 543.647368 
L 501.595625 545.117087 
L 502.990625 543.647368 
L 504.385625 543.157462 
L 505.780625 544.627181 
L 507.175625 542.17765 
L 508.570625 542.667556 
L 509.965625 541.197837 
L 511.360625 540.707931 
L 512.755625 539.728118 
L 514.150625 537.278587 
L 515.545625 540.707931 
L 516.940625 540.707931 
L 518.335625 538.748306 
L 519.730625 541.687743 
L 521.125625 543.647368 
L 522.520625 542.667556 
L 523.915625 545.606994 
L 525.310625 543.157462 
L 526.705625 546.0969 
L 528.100625 545.606994 
L 529.495625 546.586806 
L 530.890625 546.0969 
L 532.285625 544.627181 
L 533.680625 545.117087 
L 535.075625 546.586806 
L 536.470625 545.606994 
L 537.865625 545.117087 
L 539.260625 546.0969 
L 540.655625 546.0969 
L 542.050625 547.076712 
L 543.445625 545.117087 
L 544.840625 545.606994 
L 546.235625 545.117087 
L 547.630625 546.0969 
L 549.025625 544.627181 
L 550.420625 545.606994 
L 551.815625 545.117087 
L 553.210625 545.606994 
L 556.000625 545.606994 
L 557.395625 544.627181 
L 558.790625 544.627181 
L 560.185625 545.117087 
L 561.580625 543.647368 
L 562.975625 545.606994 
L 564.370625 544.137275 
L 565.765625 543.157462 
L 567.160625 545.117087 
L 568.555625 542.17765 
L 569.950625 543.647368 
L 571.345625 541.197837 
L 572.740625 544.137275 
L 574.135625 541.687743 
L 575.530625 542.667556 
L 576.925625 544.137275 
L 578.320625 545.117087 
L 579.715625 542.667556 
L 581.110625 542.667556 
L 582.505625 539.238212 
L 583.900625 539.238212 
L 585.295625 542.667556 
L 586.690625 534.829056 
L 588.085625 539.238212 
L 589.480625 541.687743 
L 590.875625 538.748306 
L 592.270625 539.238212 
L 593.665625 540.707931 
L 595.060625 539.728118 
L 595.060625 539.728118 
" style="fill:none;stroke:#f27f0d;stroke-linecap:square;stroke-width:3;"/>
   </g>
   <g id="line2d_8">
    <path clip-path="url(#pf4b2e56485)" d="M 35.665625 472.610959 
L 37.060625 472.303249 
L 38.455625 471.841685 
L 39.850625 472.303249 
L 41.245625 472.457104 
L 44.035625 472.457104 
L 45.430625 472.149394 
L 46.825625 471.68783 
L 48.220625 471.68783 
L 49.615625 471.226265 
L 51.010625 470.918555 
L 52.405625 471.226265 
L 53.800625 470.764701 
L 55.195625 469.841571 
L 56.590625 470.764701 
L 57.985625 470.918555 
L 59.380625 471.841685 
L 60.775625 471.841685 
L 62.170625 472.149394 
L 63.565625 471.841685 
L 64.960625 471.68783 
L 66.355625 471.38012 
L 67.750625 471.68783 
L 69.145625 472.457104 
L 70.540625 472.149394 
L 71.935625 472.457104 
L 73.330625 472.610959 
L 76.120625 472.303249 
L 77.515625 472.303249 
L 78.910625 472.610959 
L 80.305625 472.457104 
L 81.700625 472.610959 
L 83.095625 472.303249 
L 84.490625 472.610959 
L 85.885625 472.303249 
L 87.280625 472.610959 
L 88.675625 472.303249 
L 91.465625 472.610959 
L 94.255625 472.610959 
L 95.650625 472.457104 
L 97.045625 472.610959 
L 98.440625 472.610959 
L 99.835625 472.457104 
L 101.230625 472.610959 
L 102.625625 472.303249 
L 104.020625 472.610959 
L 105.415625 472.303249 
L 106.810625 472.610959 
L 108.205625 472.303249 
L 109.600625 472.610959 
L 110.995625 472.303249 
L 112.390625 472.303249 
L 113.785625 472.610959 
L 115.180625 472.457104 
L 116.575625 472.457104 
L 117.970625 472.610959 
L 119.365625 472.303249 
L 120.760625 472.610959 
L 122.155625 472.303249 
L 123.550625 472.303249 
L 126.340625 472.610959 
L 127.735625 472.610959 
L 129.130625 472.457104 
L 130.525625 472.610959 
L 133.315625 472.303249 
L 134.710625 472.610959 
L 136.105625 472.457104 
L 137.500625 472.457104 
L 138.895625 472.610959 
L 140.290625 472.610959 
L 141.685625 472.457104 
L 144.475625 472.457104 
L 145.870625 472.610959 
L 148.660625 472.610959 
L 150.055625 472.149394 
L 154.240625 472.610959 
L 157.030625 472.610959 
L 158.425625 472.303249 
L 159.820625 472.303249 
L 161.215625 472.610959 
L 162.610625 472.610959 
L 164.005625 472.457104 
L 165.400625 472.610959 
L 166.795625 472.457104 
L 168.190625 472.457104 
L 169.585625 472.303249 
L 170.980625 472.610959 
L 172.375625 472.303249 
L 175.165625 472.610959 
L 176.560625 472.149394 
L 177.955625 472.610959 
L 179.350625 472.610959 
L 180.745625 472.303249 
L 183.535625 472.610959 
L 184.930625 472.457104 
L 186.325625 472.610959 
L 187.720625 472.457104 
L 189.115625 472.457104 
L 190.510625 472.149394 
L 191.905625 472.457104 
L 193.300625 472.610959 
L 194.695625 472.457104 
L 196.090625 472.457104 
L 197.485625 472.610959 
L 198.880625 472.610959 
L 200.275625 472.457104 
L 201.670625 472.457104 
L 203.065625 472.303249 
L 204.460625 472.457104 
L 207.250625 472.457104 
L 208.645625 472.149394 
L 211.435625 472.457104 
L 212.830625 472.303249 
L 214.225625 472.303249 
L 215.620625 472.457104 
L 217.015625 472.303249 
L 218.410625 472.610959 
L 219.805625 472.149394 
L 221.200625 471.841685 
L 222.595625 472.303249 
L 225.385625 472.610959 
L 228.175625 472.303249 
L 229.570625 472.610959 
L 230.965625 472.457104 
L 232.360625 472.457104 
L 233.755625 472.149394 
L 235.150625 472.610959 
L 236.545625 472.457104 
L 237.940625 472.457104 
L 239.335625 472.303249 
L 240.730625 472.610959 
L 242.125625 472.457104 
L 244.915625 472.457104 
L 246.310625 472.610959 
L 247.705625 472.303249 
L 249.100625 472.610959 
L 251.890625 472.303249 
L 253.285625 472.303249 
L 254.680625 472.610959 
L 256.075625 472.303249 
L 257.470625 472.457104 
L 258.865625 472.303249 
L 261.655625 472.610959 
L 265.840625 472.610959 
L 267.235625 472.303249 
L 268.630625 472.610959 
L 270.025625 471.995539 
L 271.420625 472.457104 
L 272.815625 472.457104 
L 275.605625 472.149394 
L 277.000625 472.303249 
L 278.395625 472.149394 
L 279.790625 472.303249 
L 281.185625 472.610959 
L 282.580625 472.303249 
L 283.975625 471.841685 
L 285.370625 472.303249 
L 286.765625 472.457104 
L 288.160625 471.841685 
L 290.950625 472.457104 
L 292.345625 471.68783 
L 293.740625 471.533975 
L 295.135625 471.07241 
L 296.530625 469.841571 
L 297.925625 470.610846 
L 299.320625 467.841458 
L 300.715625 466.918329 
L 302.110625 465.68749 
L 303.505625 458.148602 
L 304.900625 453.994521 
L 306.295625 452.609827 
L 307.690625 448.763455 
L 309.085625 441.993841 
L 310.480625 441.686132 
L 313.270625 435.378082 
L 314.665625 443.53239 
L 316.060625 445.378648 
L 317.455625 449.994294 
L 318.850625 455.840779 
L 320.245625 459.379441 
L 321.640625 462.610393 
L 323.035625 466.918329 
L 324.430625 467.841458 
L 325.825625 467.379894 
L 327.220625 470.764701 
L 328.615625 469.995426 
L 330.010625 471.533975 
L 331.405625 470.764701 
L 332.800625 471.841685 
L 334.195625 472.457104 
L 335.590625 472.149394 
L 338.380625 470.918555 
L 339.775625 470.918555 
L 341.170625 472.149394 
L 342.565625 470.456991 
L 343.960625 470.303136 
L 345.355625 469.533862 
L 346.750625 469.380007 
L 348.145625 468.764587 
L 349.540625 467.533748 
L 350.935625 467.379894 
L 352.330625 468.303023 
L 353.725625 467.072184 
L 356.515625 467.687603 
L 357.910625 469.841571 
L 359.305625 470.764701 
L 360.700625 471.07241 
L 362.095625 471.68783 
L 363.490625 471.995539 
L 364.885625 472.149394 
L 366.280625 472.457104 
L 367.675625 471.841685 
L 369.070625 472.303249 
L 370.465625 471.841685 
L 371.860625 472.149394 
L 373.255625 471.68783 
L 374.650625 472.149394 
L 376.045625 472.303249 
L 377.440625 472.303249 
L 378.835625 471.995539 
L 380.230625 472.303249 
L 381.625625 472.303249 
L 383.020625 471.995539 
L 385.810625 472.610959 
L 387.205625 472.457104 
L 388.600625 472.610959 
L 389.995625 472.303249 
L 391.390625 472.610959 
L 392.785625 472.610959 
L 394.180625 472.303249 
L 395.575625 472.303249 
L 398.365625 472.610959 
L 399.760625 472.303249 
L 401.155625 471.841685 
L 402.550625 472.303249 
L 403.945625 472.149394 
L 405.340625 471.68783 
L 406.735625 472.457104 
L 409.525625 472.457104 
L 412.315625 472.149394 
L 416.500625 472.149394 
L 417.895625 472.457104 
L 419.290625 472.303249 
L 422.080625 472.610959 
L 423.475625 472.303249 
L 424.870625 472.610959 
L 426.265625 472.457104 
L 427.660625 472.610959 
L 429.055625 472.457104 
L 430.450625 472.457104 
L 431.845625 472.610959 
L 433.240625 472.303249 
L 434.635625 472.149394 
L 438.820625 472.610959 
L 440.215625 472.303249 
L 441.610625 472.610959 
L 443.005625 472.303249 
L 444.400625 472.149394 
L 445.795625 472.610959 
L 447.190625 472.457104 
L 448.585625 472.457104 
L 449.980625 472.303249 
L 451.375625 472.457104 
L 452.770625 472.457104 
L 454.165625 472.303249 
L 455.560625 471.995539 
L 456.955625 472.457104 
L 458.350625 472.303249 
L 459.745625 472.610959 
L 461.140625 472.303249 
L 462.535625 472.457104 
L 465.325625 472.457104 
L 466.720625 472.610959 
L 468.115625 472.303249 
L 470.905625 472.610959 
L 472.300625 472.303249 
L 473.695625 472.457104 
L 477.880625 472.457104 
L 479.275625 472.610959 
L 480.670625 472.457104 
L 482.065625 472.610959 
L 483.460625 472.149394 
L 484.855625 472.457104 
L 487.645625 472.457104 
L 489.040625 472.149394 
L 490.435625 472.457104 
L 491.830625 472.610959 
L 493.225625 472.149394 
L 494.620625 472.457104 
L 496.015625 472.610959 
L 497.410625 472.610959 
L 500.200625 471.995539 
L 501.595625 472.303249 
L 504.385625 472.303249 
L 505.780625 471.995539 
L 507.175625 472.303249 
L 508.570625 472.149394 
L 509.965625 472.149394 
L 511.360625 471.38012 
L 512.755625 472.303249 
L 514.150625 471.995539 
L 515.545625 472.149394 
L 516.940625 471.68783 
L 518.335625 471.533975 
L 519.730625 472.149394 
L 521.125625 472.303249 
L 522.520625 471.841685 
L 525.310625 472.457104 
L 526.705625 471.995539 
L 528.100625 471.995539 
L 529.495625 472.457104 
L 530.890625 471.841685 
L 532.285625 472.610959 
L 535.075625 472.303249 
L 536.470625 472.610959 
L 537.865625 471.68783 
L 539.260625 472.457104 
L 540.655625 472.149394 
L 542.050625 471.995539 
L 543.445625 471.995539 
L 544.840625 472.303249 
L 546.235625 472.303249 
L 547.630625 472.149394 
L 549.025625 472.303249 
L 550.420625 472.303249 
L 551.815625 471.38012 
L 553.210625 471.841685 
L 556.000625 472.149394 
L 557.395625 471.68783 
L 558.790625 472.149394 
L 560.185625 472.149394 
L 561.580625 471.841685 
L 562.975625 471.68783 
L 564.370625 471.226265 
L 565.765625 471.841685 
L 567.160625 471.38012 
L 568.555625 471.226265 
L 569.950625 471.226265 
L 571.345625 471.533975 
L 572.740625 471.68783 
L 574.135625 471.68783 
L 575.530625 471.226265 
L 576.925625 471.38012 
L 578.320625 471.226265 
L 579.715625 471.533975 
L 581.110625 470.764701 
L 582.505625 471.226265 
L 583.900625 471.841685 
L 585.295625 470.610846 
L 586.690625 470.149281 
L 588.085625 470.918555 
L 589.480625 470.764701 
L 590.875625 472.149394 
L 592.270625 471.226265 
L 595.060625 471.533975 
L 595.060625 471.533975 
" style="fill:none;stroke:#f6be76;stroke-linecap:square;stroke-width:3;"/>
   </g>
   <g id="line2d_9">
    <path clip-path="url(#pf4b2e56485)" d="M 35.665625 396.981678 
L 37.060625 397.563442 
L 39.850625 396.399914 
L 41.245625 397.563442 
L 44.035625 397.563442 
L 45.430625 396.981678 
L 46.825625 398.145205 
L 48.220625 396.399914 
L 49.615625 396.399914 
L 51.010625 397.563442 
L 53.800625 396.399914 
L 55.195625 394.654623 
L 56.590625 395.818151 
L 59.380625 390.000514 
L 60.775625 392.327568 
L 62.170625 391.164041 
L 63.565625 386.509932 
L 64.960625 373.71113 
L 66.355625 372.547603 
L 67.750625 373.129366 
L 69.145625 364.984675 
L 70.540625 364.402911 
L 71.935625 361.494092 
L 73.330625 360.912329 
L 74.725625 370.220548 
L 77.515625 374.874658 
L 78.910625 384.182877 
L 80.305625 385.346404 
L 81.700625 390.000514 
L 83.095625 393.491096 
L 84.490625 391.164041 
L 85.885625 389.41875 
L 87.280625 395.236387 
L 88.675625 391.745805 
L 90.070625 395.236387 
L 91.465625 395.818151 
L 92.860625 394.654623 
L 94.255625 397.563442 
L 95.650625 394.654623 
L 97.045625 396.399914 
L 98.440625 396.981678 
L 99.835625 396.981678 
L 101.230625 395.818151 
L 102.625625 396.981678 
L 104.020625 397.563442 
L 105.415625 397.563442 
L 106.810625 395.818151 
L 108.205625 398.145205 
L 109.600625 398.145205 
L 110.995625 396.399914 
L 112.390625 397.563442 
L 113.785625 396.981678 
L 115.180625 397.563442 
L 116.575625 397.563442 
L 117.970625 398.145205 
L 119.365625 395.818151 
L 120.760625 398.145205 
L 122.155625 396.981678 
L 123.550625 396.399914 
L 126.340625 397.563442 
L 129.130625 396.399914 
L 130.525625 398.145205 
L 131.920625 395.818151 
L 134.710625 398.145205 
L 136.105625 396.399914 
L 137.500625 398.145205 
L 138.895625 397.563442 
L 144.475625 397.563442 
L 145.870625 396.981678 
L 147.265625 397.563442 
L 148.660625 397.563442 
L 150.055625 398.145205 
L 151.450625 395.818151 
L 152.845625 398.145205 
L 154.240625 397.563442 
L 155.635625 398.145205 
L 157.030625 396.399914 
L 158.425625 397.563442 
L 159.820625 396.399914 
L 161.215625 397.563442 
L 162.610625 398.145205 
L 164.005625 397.563442 
L 165.400625 396.399914 
L 166.795625 397.563442 
L 169.585625 397.563442 
L 170.980625 396.981678 
L 172.375625 396.981678 
L 173.770625 395.818151 
L 175.165625 396.399914 
L 176.560625 395.818151 
L 177.955625 395.818151 
L 179.350625 393.491096 
L 180.745625 396.981678 
L 182.140625 396.399914 
L 183.535625 398.145205 
L 184.930625 396.399914 
L 186.325625 397.563442 
L 187.720625 397.563442 
L 189.115625 396.981678 
L 190.510625 396.981678 
L 191.905625 397.563442 
L 193.300625 396.981678 
L 197.485625 396.981678 
L 198.880625 398.145205 
L 200.275625 396.981678 
L 201.670625 396.399914 
L 203.065625 396.981678 
L 204.460625 398.145205 
L 205.855625 398.145205 
L 207.250625 395.818151 
L 208.645625 397.563442 
L 210.040625 396.399914 
L 211.435625 398.145205 
L 214.225625 395.818151 
L 215.620625 397.563442 
L 217.015625 396.399914 
L 218.410625 397.563442 
L 219.805625 396.981678 
L 221.200625 397.563442 
L 222.595625 397.563442 
L 223.990625 396.399914 
L 225.385625 395.818151 
L 226.780625 396.399914 
L 228.175625 395.818151 
L 229.570625 396.981678 
L 230.965625 396.981678 
L 232.360625 397.563442 
L 236.545625 397.563442 
L 237.940625 398.145205 
L 239.335625 398.145205 
L 240.730625 396.981678 
L 242.125625 396.981678 
L 243.520625 397.563442 
L 244.915625 396.981678 
L 246.310625 395.818151 
L 247.705625 396.981678 
L 249.100625 397.563442 
L 250.495625 396.981678 
L 251.890625 398.145205 
L 253.285625 396.981678 
L 254.680625 397.563442 
L 256.075625 397.563442 
L 257.470625 396.981678 
L 258.865625 397.563442 
L 260.260625 396.981678 
L 261.655625 397.563442 
L 263.050625 397.563442 
L 264.445625 395.818151 
L 265.840625 397.563442 
L 267.235625 397.563442 
L 268.630625 396.981678 
L 270.025625 393.491096 
L 271.420625 396.399914 
L 272.815625 394.654623 
L 274.210625 395.818151 
L 275.605625 391.164041 
L 277.000625 394.654623 
L 278.395625 394.07286 
L 279.790625 389.41875 
L 281.185625 391.164041 
L 282.580625 392.327568 
L 283.975625 388.836986 
L 285.370625 388.836986 
L 286.765625 390.000514 
L 288.160625 388.836986 
L 289.555625 390.582277 
L 290.950625 395.818151 
L 292.345625 395.818151 
L 293.740625 394.654623 
L 295.135625 397.563442 
L 296.530625 396.399914 
L 300.715625 396.399914 
L 302.110625 396.981678 
L 303.505625 396.981678 
L 304.900625 397.563442 
L 306.295625 395.236387 
L 309.085625 396.399914 
L 310.480625 394.07286 
L 311.875625 396.399914 
L 313.270625 396.399914 
L 314.665625 394.07286 
L 316.060625 396.399914 
L 317.455625 395.818151 
L 318.850625 396.399914 
L 320.245625 397.563442 
L 321.640625 396.981678 
L 325.825625 396.981678 
L 327.220625 394.07286 
L 328.615625 396.399914 
L 330.010625 395.236387 
L 331.405625 395.818151 
L 332.800625 394.07286 
L 334.195625 390.000514 
L 335.590625 390.000514 
L 336.985625 388.255223 
L 338.380625 390.582277 
L 339.775625 385.928168 
L 341.170625 384.182877 
L 342.565625 385.346404 
L 343.960625 384.76464 
L 345.355625 388.836986 
L 346.750625 395.236387 
L 348.145625 389.41875 
L 349.540625 395.236387 
L 350.935625 394.654623 
L 352.330625 395.236387 
L 353.725625 396.399914 
L 355.120625 395.818151 
L 356.515625 396.399914 
L 357.910625 395.818151 
L 359.305625 394.654623 
L 360.700625 396.399914 
L 362.095625 396.981678 
L 363.490625 396.981678 
L 364.885625 391.745805 
L 366.280625 394.07286 
L 367.675625 394.654623 
L 370.465625 393.491096 
L 371.860625 394.07286 
L 373.255625 392.327568 
L 374.650625 394.654623 
L 376.045625 389.41875 
L 377.440625 394.654623 
L 378.835625 396.399914 
L 380.230625 394.07286 
L 381.625625 395.818151 
L 383.020625 395.236387 
L 384.415625 394.07286 
L 385.810625 396.399914 
L 387.205625 394.654623 
L 388.600625 395.236387 
L 389.995625 393.491096 
L 391.390625 395.818151 
L 392.785625 395.236387 
L 394.180625 395.818151 
L 395.575625 394.07286 
L 396.970625 385.928168 
L 398.365625 384.182877 
L 399.760625 381.274058 
L 401.155625 371.965839 
L 402.550625 373.71113 
L 403.945625 377.201712 
L 405.340625 369.057021 
L 406.735625 372.547603 
L 408.130625 373.129366 
L 409.525625 370.802312 
L 410.920625 377.201712 
L 412.315625 374.874658 
L 413.710625 381.855822 
L 415.105625 384.182877 
L 416.500625 392.909332 
L 417.895625 390.000514 
L 419.290625 391.745805 
L 420.685625 392.909332 
L 422.080625 396.981678 
L 423.475625 394.654623 
L 424.870625 395.236387 
L 427.660625 397.563442 
L 429.055625 396.981678 
L 430.450625 398.145205 
L 431.845625 397.563442 
L 433.240625 398.145205 
L 434.635625 396.399914 
L 436.030625 395.818151 
L 437.425625 397.563442 
L 438.820625 395.818151 
L 440.215625 396.399914 
L 441.610625 397.563442 
L 443.005625 395.818151 
L 444.400625 397.563442 
L 445.795625 395.236387 
L 447.190625 397.563442 
L 448.585625 395.818151 
L 449.980625 397.563442 
L 451.375625 392.327568 
L 452.770625 395.236387 
L 454.165625 392.909332 
L 455.560625 394.07286 
L 458.350625 394.07286 
L 459.745625 391.745805 
L 461.140625 393.491096 
L 462.535625 393.491096 
L 463.930625 394.07286 
L 465.325625 396.981678 
L 466.720625 396.399914 
L 468.115625 396.399914 
L 469.510625 395.236387 
L 470.905625 397.563442 
L 472.300625 397.563442 
L 473.695625 395.236387 
L 475.090625 395.818151 
L 476.485625 398.145205 
L 477.880625 395.818151 
L 479.275625 397.563442 
L 480.670625 396.399914 
L 482.065625 396.981678 
L 483.460625 396.981678 
L 484.855625 396.399914 
L 486.250625 396.981678 
L 487.645625 398.145205 
L 489.040625 396.981678 
L 490.435625 397.563442 
L 494.620625 397.563442 
L 496.015625 396.981678 
L 497.410625 395.818151 
L 498.805625 395.818151 
L 500.200625 396.981678 
L 501.595625 394.654623 
L 502.990625 394.654623 
L 504.385625 397.563442 
L 505.780625 395.818151 
L 507.175625 395.818151 
L 508.570625 396.399914 
L 509.965625 393.491096 
L 511.360625 394.07286 
L 512.755625 396.399914 
L 514.150625 391.745805 
L 516.940625 397.563442 
L 518.335625 395.236387 
L 519.730625 398.145205 
L 521.125625 395.236387 
L 522.520625 395.236387 
L 523.915625 396.399914 
L 525.310625 395.236387 
L 526.705625 395.818151 
L 528.100625 394.654623 
L 529.495625 394.654623 
L 530.890625 396.399914 
L 535.075625 396.399914 
L 536.470625 395.818151 
L 537.865625 397.563442 
L 539.260625 397.563442 
L 540.655625 391.164041 
L 542.050625 395.818151 
L 543.445625 395.818151 
L 544.840625 395.236387 
L 546.235625 395.236387 
L 547.630625 396.399914 
L 549.025625 394.654623 
L 550.420625 393.491096 
L 553.210625 393.491096 
L 554.605625 391.164041 
L 556.000625 395.818151 
L 557.395625 394.07286 
L 558.790625 393.491096 
L 560.185625 395.236387 
L 561.580625 392.327568 
L 562.975625 390.000514 
L 564.370625 393.491096 
L 565.765625 394.07286 
L 571.345625 391.745805 
L 572.740625 393.491096 
L 574.135625 389.41875 
L 575.530625 391.745805 
L 576.925625 391.745805 
L 578.320625 392.327568 
L 579.715625 389.41875 
L 581.110625 387.673459 
L 582.505625 384.182877 
L 583.900625 391.164041 
L 585.295625 387.673459 
L 586.690625 385.346404 
L 588.085625 387.673459 
L 589.480625 383.601113 
L 590.875625 388.255223 
L 592.270625 383.019349 
L 593.665625 386.509932 
L 595.060625 386.509932 
L 595.060625 386.509932 
" style="fill:none;stroke:#b2db8e;stroke-linecap:square;stroke-width:3;"/>
   </g>
   <g id="line2d_10">
    <path clip-path="url(#pf4b2e56485)" d="M 35.665625 322.317274 
L 37.060625 322.317274 
L 38.455625 323.225393 
L 41.245625 322.317274 
L 42.640625 322.771333 
L 44.035625 321.863214 
L 45.430625 322.771333 
L 46.825625 321.409155 
L 48.220625 322.771333 
L 49.615625 323.225393 
L 51.010625 322.317274 
L 52.405625 321.863214 
L 53.800625 322.317274 
L 55.195625 320.955095 
L 56.590625 321.863214 
L 57.985625 320.955095 
L 59.380625 319.592917 
L 60.775625 317.322619 
L 62.170625 315.960441 
L 63.565625 314.144203 
L 64.960625 307.787371 
L 66.355625 303.700835 
L 67.750625 295.527765 
L 69.145625 286.446575 
L 71.935625 288.262813 
L 73.330625 290.533111 
L 74.725625 293.711527 
L 76.120625 295.073705 
L 77.515625 298.706181 
L 78.910625 298.252122 
L 80.305625 309.603608 
L 81.700625 311.419846 
L 83.095625 308.695489 
L 84.490625 315.960441 
L 85.885625 314.144203 
L 87.280625 316.414501 
L 90.070625 320.046976 
L 91.465625 319.138857 
L 92.860625 321.863214 
L 95.650625 321.863214 
L 97.045625 322.317274 
L 98.440625 323.679452 
L 99.835625 323.679452 
L 101.230625 321.863214 
L 102.625625 323.225393 
L 104.020625 321.863214 
L 105.415625 323.225393 
L 108.205625 323.225393 
L 109.600625 322.317274 
L 110.995625 322.771333 
L 112.390625 322.317274 
L 115.180625 323.225393 
L 116.575625 323.225393 
L 117.970625 323.679452 
L 120.760625 323.679452 
L 122.155625 322.317274 
L 123.550625 320.501036 
L 124.945625 322.771333 
L 126.340625 321.863214 
L 127.735625 322.317274 
L 129.130625 321.409155 
L 130.525625 322.317274 
L 131.920625 321.863214 
L 133.315625 323.679452 
L 134.710625 320.501036 
L 136.105625 323.225393 
L 140.290625 321.863214 
L 141.685625 323.225393 
L 144.475625 322.317274 
L 145.870625 322.771333 
L 147.265625 322.317274 
L 150.055625 323.225393 
L 151.450625 321.863214 
L 152.845625 322.771333 
L 154.240625 323.225393 
L 155.635625 321.863214 
L 157.030625 321.863214 
L 158.425625 323.225393 
L 159.820625 323.225393 
L 161.215625 320.501036 
L 162.610625 321.409155 
L 164.005625 322.771333 
L 165.400625 323.225393 
L 166.795625 322.771333 
L 168.190625 323.225393 
L 172.375625 323.225393 
L 173.770625 323.679452 
L 175.165625 321.409155 
L 176.560625 322.317274 
L 177.955625 320.501036 
L 179.350625 321.863214 
L 180.745625 322.317274 
L 182.140625 323.225393 
L 183.535625 322.317274 
L 184.930625 323.225393 
L 186.325625 323.225393 
L 187.720625 322.771333 
L 190.510625 323.679452 
L 191.905625 323.225393 
L 196.090625 323.225393 
L 197.485625 323.679452 
L 198.880625 322.771333 
L 200.275625 323.679452 
L 201.670625 323.225393 
L 203.065625 323.225393 
L 204.460625 322.317274 
L 205.855625 323.225393 
L 207.250625 323.225393 
L 208.645625 321.863214 
L 211.435625 323.679452 
L 212.830625 321.409155 
L 214.225625 323.225393 
L 217.015625 323.225393 
L 218.410625 321.863214 
L 219.805625 323.225393 
L 221.200625 321.409155 
L 222.595625 323.225393 
L 223.990625 322.317274 
L 225.385625 322.317274 
L 226.780625 322.771333 
L 228.175625 321.409155 
L 229.570625 322.317274 
L 230.965625 321.863214 
L 232.360625 322.771333 
L 233.755625 322.317274 
L 236.545625 322.317274 
L 237.940625 323.225393 
L 239.335625 322.771333 
L 240.730625 323.679452 
L 242.125625 322.771333 
L 243.520625 322.317274 
L 244.915625 321.409155 
L 246.310625 322.771333 
L 247.705625 320.955095 
L 249.100625 322.317274 
L 250.495625 323.225393 
L 254.680625 323.225393 
L 256.075625 322.771333 
L 257.470625 322.771333 
L 258.865625 323.225393 
L 260.260625 321.863214 
L 261.655625 322.771333 
L 263.050625 323.225393 
L 264.445625 322.771333 
L 265.840625 323.225393 
L 267.235625 322.771333 
L 268.630625 323.679452 
L 270.025625 321.409155 
L 271.420625 322.771333 
L 272.815625 320.955095 
L 274.210625 321.863214 
L 275.605625 321.863214 
L 277.000625 321.409155 
L 278.395625 322.771333 
L 279.790625 320.955095 
L 281.185625 318.230738 
L 282.580625 320.955095 
L 283.975625 318.230738 
L 285.370625 320.501036 
L 286.765625 317.776679 
L 288.160625 321.409155 
L 289.555625 319.138857 
L 290.950625 321.863214 
L 292.345625 322.771333 
L 293.740625 323.225393 
L 295.135625 322.317274 
L 296.530625 322.771333 
L 297.925625 320.955095 
L 299.320625 322.317274 
L 300.715625 322.771333 
L 302.110625 322.317274 
L 303.505625 323.679452 
L 304.900625 321.409155 
L 306.295625 322.771333 
L 307.690625 321.863214 
L 309.085625 318.684798 
L 310.480625 321.409155 
L 311.875625 320.955095 
L 313.270625 321.863214 
L 314.665625 321.863214 
L 316.060625 320.955095 
L 317.455625 322.317274 
L 318.850625 321.863214 
L 320.245625 322.771333 
L 321.640625 321.863214 
L 323.035625 323.225393 
L 324.430625 322.317274 
L 325.825625 320.955095 
L 327.220625 321.863214 
L 328.615625 322.317274 
L 330.010625 320.501036 
L 331.405625 317.322619 
L 332.800625 316.86856 
L 334.195625 318.230738 
L 335.590625 313.236084 
L 336.985625 315.506382 
L 338.380625 312.782025 
L 342.565625 308.695489 
L 343.960625 309.603608 
L 345.355625 314.598263 
L 348.145625 313.690144 
L 349.540625 316.414501 
L 352.330625 317.322619 
L 353.725625 320.501036 
L 355.120625 320.955095 
L 356.515625 319.138857 
L 357.910625 320.955095 
L 359.305625 320.501036 
L 360.700625 323.225393 
L 362.095625 322.771333 
L 364.885625 320.046976 
L 366.280625 321.409155 
L 367.675625 320.955095 
L 369.070625 320.955095 
L 370.465625 319.138857 
L 371.860625 320.955095 
L 373.255625 316.86856 
L 374.650625 316.414501 
L 376.045625 319.592917 
L 377.440625 319.138857 
L 378.835625 319.138857 
L 380.230625 318.230738 
L 381.625625 320.501036 
L 383.020625 321.409155 
L 384.415625 319.592917 
L 385.810625 320.955095 
L 387.205625 320.501036 
L 388.600625 318.684798 
L 389.995625 319.592917 
L 391.390625 319.138857 
L 392.785625 318.230738 
L 394.180625 315.960441 
L 395.575625 315.960441 
L 396.970625 310.965787 
L 398.365625 311.873906 
L 399.760625 304.608954 
L 401.155625 296.435884 
L 402.550625 294.619646 
L 403.945625 289.624992 
L 405.340625 287.354694 
L 406.735625 293.257467 
L 409.525625 282.36004 
L 410.920625 293.257467 
L 412.315625 305.971133 
L 413.710625 305.517073 
L 415.105625 306.879252 
L 416.500625 313.236084 
L 417.895625 313.690144 
L 419.290625 316.414501 
L 420.685625 319.592917 
L 423.475625 319.592917 
L 424.870625 321.863214 
L 426.265625 321.863214 
L 427.660625 322.771333 
L 429.055625 323.225393 
L 430.450625 320.955095 
L 431.845625 322.771333 
L 433.240625 320.501036 
L 434.635625 322.771333 
L 436.030625 322.771333 
L 437.425625 321.863214 
L 438.820625 322.317274 
L 440.215625 321.409155 
L 441.610625 322.317274 
L 444.400625 322.317274 
L 445.795625 319.592917 
L 447.190625 321.863214 
L 451.375625 321.863214 
L 452.770625 319.592917 
L 454.165625 316.414501 
L 455.560625 319.592917 
L 456.955625 318.230738 
L 458.350625 319.592917 
L 459.745625 316.414501 
L 461.140625 316.86856 
L 462.535625 318.684798 
L 463.930625 320.955095 
L 465.325625 320.046976 
L 466.720625 320.955095 
L 468.115625 321.409155 
L 470.905625 321.409155 
L 472.300625 320.955095 
L 473.695625 322.317274 
L 475.090625 321.863214 
L 476.485625 322.317274 
L 477.880625 323.225393 
L 479.275625 323.225393 
L 480.670625 321.863214 
L 482.065625 322.317274 
L 483.460625 323.225393 
L 484.855625 323.225393 
L 486.250625 323.679452 
L 489.040625 322.771333 
L 490.435625 321.409155 
L 491.830625 320.955095 
L 493.225625 322.317274 
L 494.620625 322.317274 
L 496.015625 321.863214 
L 497.410625 322.771333 
L 498.805625 321.409155 
L 500.200625 320.501036 
L 502.990625 322.317274 
L 504.385625 321.409155 
L 505.780625 320.046976 
L 507.175625 319.138857 
L 508.570625 319.138857 
L 509.965625 319.592917 
L 511.360625 320.501036 
L 512.755625 319.592917 
L 514.150625 314.598263 
L 515.545625 316.86856 
L 516.940625 320.046976 
L 518.335625 318.684798 
L 519.730625 317.776679 
L 521.125625 320.501036 
L 522.520625 320.046976 
L 523.915625 321.863214 
L 525.310625 319.592917 
L 526.705625 322.771333 
L 528.100625 318.684798 
L 529.495625 320.955095 
L 530.890625 322.317274 
L 532.285625 321.409155 
L 533.680625 321.409155 
L 535.075625 320.955095 
L 536.470625 322.317274 
L 537.865625 321.863214 
L 539.260625 320.955095 
L 540.655625 322.317274 
L 542.050625 320.046976 
L 543.445625 320.501036 
L 544.840625 322.317274 
L 546.235625 320.501036 
L 547.630625 320.955095 
L 549.025625 319.592917 
L 550.420625 321.409155 
L 551.815625 319.592917 
L 553.210625 320.955095 
L 554.605625 318.230738 
L 556.000625 318.230738 
L 557.395625 320.046976 
L 558.790625 321.409155 
L 560.185625 319.592917 
L 561.580625 315.960441 
L 562.975625 319.592917 
L 564.370625 317.322619 
L 565.765625 320.501036 
L 567.160625 320.955095 
L 568.555625 318.230738 
L 569.950625 319.138857 
L 571.345625 320.955095 
L 572.740625 319.138857 
L 574.135625 318.684798 
L 575.530625 315.506382 
L 576.925625 314.144203 
L 578.320625 317.322619 
L 579.715625 315.960441 
L 581.110625 315.506382 
L 582.505625 318.230738 
L 583.900625 313.236084 
L 585.295625 315.506382 
L 586.690625 311.873906 
L 588.085625 314.598263 
L 589.480625 308.695489 
L 590.875625 309.149549 
L 592.270625 313.236084 
L 593.665625 312.327965 
L 595.060625 314.598263 
L 595.060625 314.598263 
" style="fill:none;stroke:#d92426;stroke-linecap:square;stroke-width:3;"/>
   </g>
   <g id="line2d_11">
    <path clip-path="url(#pf4b2e56485)" d="M 35.665625 249.213699 
L 37.060625 248.438014 
L 38.455625 249.213699 
L 39.850625 247.662329 
L 41.245625 248.438014 
L 44.035625 248.438014 
L 45.430625 246.886644 
L 46.825625 246.110959 
L 48.220625 249.213699 
L 49.615625 248.438014 
L 51.010625 249.213699 
L 52.405625 245.335274 
L 53.800625 246.110959 
L 55.195625 245.335274 
L 56.590625 245.335274 
L 57.985625 247.662329 
L 59.380625 244.559589 
L 60.775625 244.559589 
L 62.170625 241.456849 
L 63.565625 232.924315 
L 64.960625 226.718836 
L 66.355625 229.04589 
L 67.750625 221.289041 
L 69.145625 212.756507 
L 70.540625 226.718836 
L 71.935625 211.980822 
L 73.330625 217.410616 
L 74.725625 213.532192 
L 76.120625 225.943151 
L 77.515625 225.943151 
L 78.910625 230.59726 
L 80.305625 237.578425 
L 81.700625 239.129795 
L 83.095625 236.80274 
L 84.490625 241.456849 
L 85.885625 244.559589 
L 87.280625 242.232534 
L 88.675625 246.110959 
L 91.465625 247.662329 
L 92.860625 247.662329 
L 94.255625 248.438014 
L 95.650625 246.110959 
L 97.045625 248.438014 
L 98.440625 247.662329 
L 101.230625 249.213699 
L 102.625625 248.438014 
L 108.205625 248.438014 
L 109.600625 249.213699 
L 113.785625 249.213699 
L 115.180625 248.438014 
L 116.575625 249.213699 
L 119.365625 249.213699 
L 120.760625 247.662329 
L 122.155625 249.213699 
L 123.550625 247.662329 
L 124.945625 248.438014 
L 126.340625 247.662329 
L 127.735625 248.438014 
L 129.130625 248.438014 
L 130.525625 246.886644 
L 131.920625 247.662329 
L 133.315625 246.110959 
L 136.105625 244.559589 
L 138.895625 247.662329 
L 141.685625 249.213699 
L 143.080625 246.886644 
L 144.475625 247.662329 
L 145.870625 246.886644 
L 147.265625 247.662329 
L 148.660625 247.662329 
L 150.055625 249.213699 
L 151.450625 246.886644 
L 152.845625 248.438014 
L 154.240625 249.213699 
L 157.030625 247.662329 
L 158.425625 248.438014 
L 159.820625 248.438014 
L 161.215625 249.213699 
L 162.610625 248.438014 
L 164.005625 249.213699 
L 166.795625 249.213699 
L 170.980625 246.886644 
L 172.375625 249.213699 
L 173.770625 246.110959 
L 175.165625 248.438014 
L 176.560625 248.438014 
L 177.955625 245.335274 
L 179.350625 249.213699 
L 180.745625 249.213699 
L 182.140625 248.438014 
L 183.535625 248.438014 
L 184.930625 249.213699 
L 186.325625 247.662329 
L 187.720625 248.438014 
L 189.115625 247.662329 
L 191.905625 247.662329 
L 193.300625 249.213699 
L 194.695625 248.438014 
L 196.090625 248.438014 
L 197.485625 246.886644 
L 198.880625 248.438014 
L 200.275625 248.438014 
L 201.670625 249.213699 
L 203.065625 247.662329 
L 204.460625 246.886644 
L 205.855625 249.213699 
L 207.250625 249.213699 
L 208.645625 246.886644 
L 210.040625 249.213699 
L 211.435625 248.438014 
L 212.830625 249.213699 
L 214.225625 247.662329 
L 215.620625 249.213699 
L 217.015625 247.662329 
L 218.410625 247.662329 
L 219.805625 248.438014 
L 221.200625 247.662329 
L 222.595625 249.213699 
L 223.990625 249.213699 
L 225.385625 248.438014 
L 229.570625 248.438014 
L 230.965625 249.213699 
L 232.360625 247.662329 
L 233.755625 248.438014 
L 236.545625 248.438014 
L 237.940625 249.213699 
L 239.335625 248.438014 
L 240.730625 248.438014 
L 242.125625 249.213699 
L 247.705625 249.213699 
L 249.100625 248.438014 
L 251.890625 248.438014 
L 253.285625 249.213699 
L 254.680625 248.438014 
L 256.075625 249.213699 
L 257.470625 248.438014 
L 258.865625 249.213699 
L 260.260625 247.662329 
L 263.050625 249.213699 
L 264.445625 248.438014 
L 265.840625 249.213699 
L 267.235625 249.213699 
L 268.630625 246.886644 
L 270.025625 246.886644 
L 271.420625 248.438014 
L 272.815625 248.438014 
L 274.210625 247.662329 
L 275.605625 243.783904 
L 277.000625 247.662329 
L 278.395625 246.110959 
L 279.790625 246.110959 
L 281.185625 244.559589 
L 282.580625 242.232534 
L 283.975625 247.662329 
L 285.370625 244.559589 
L 286.765625 240.681164 
L 288.160625 243.783904 
L 289.555625 247.662329 
L 290.950625 246.110959 
L 293.740625 249.213699 
L 297.925625 246.886644 
L 299.320625 249.213699 
L 300.715625 248.438014 
L 302.110625 248.438014 
L 303.505625 246.886644 
L 304.900625 247.662329 
L 306.295625 246.886644 
L 307.690625 248.438014 
L 309.085625 249.213699 
L 311.875625 249.213699 
L 313.270625 248.438014 
L 314.665625 246.886644 
L 316.060625 248.438014 
L 317.455625 246.886644 
L 318.850625 249.213699 
L 320.245625 246.886644 
L 321.640625 248.438014 
L 323.035625 248.438014 
L 324.430625 249.213699 
L 325.825625 247.662329 
L 327.220625 249.213699 
L 328.615625 247.662329 
L 330.010625 249.213699 
L 331.405625 246.886644 
L 332.800625 245.335274 
L 334.195625 247.662329 
L 336.985625 241.456849 
L 338.380625 246.110959 
L 339.775625 243.008219 
L 341.170625 245.335274 
L 342.565625 243.783904 
L 343.960625 245.335274 
L 345.355625 241.456849 
L 346.750625 243.783904 
L 348.145625 243.783904 
L 350.935625 246.886644 
L 352.330625 244.559589 
L 353.725625 248.438014 
L 355.120625 249.213699 
L 356.515625 248.438014 
L 357.910625 249.213699 
L 359.305625 248.438014 
L 360.700625 249.213699 
L 362.095625 249.213699 
L 363.490625 248.438014 
L 364.885625 249.213699 
L 366.280625 249.213699 
L 367.675625 248.438014 
L 369.070625 245.335274 
L 370.465625 246.886644 
L 371.860625 245.335274 
L 373.255625 247.662329 
L 374.650625 248.438014 
L 377.440625 246.886644 
L 378.835625 247.662329 
L 380.230625 247.662329 
L 381.625625 248.438014 
L 383.020625 246.110959 
L 384.415625 245.335274 
L 385.810625 246.886644 
L 387.205625 247.662329 
L 388.600625 247.662329 
L 389.995625 245.335274 
L 391.390625 241.456849 
L 392.785625 242.232534 
L 395.575625 240.681164 
L 396.970625 244.559589 
L 398.365625 229.04589 
L 399.760625 220.513356 
L 401.155625 216.634932 
L 402.550625 213.532192 
L 403.945625 220.513356 
L 405.340625 200.345548 
L 406.735625 202.672603 
L 408.130625 207.326712 
L 409.525625 209.653767 
L 410.920625 218.961986 
L 412.315625 222.840411 
L 413.710625 222.840411 
L 415.105625 228.270205 
L 416.500625 235.25137 
L 417.895625 238.35411 
L 419.290625 243.783904 
L 420.685625 245.335274 
L 422.080625 247.662329 
L 423.475625 240.681164 
L 424.870625 246.110959 
L 426.265625 247.662329 
L 427.660625 246.110959 
L 429.055625 247.662329 
L 430.450625 248.438014 
L 431.845625 246.110959 
L 433.240625 248.438014 
L 434.635625 249.213699 
L 436.030625 248.438014 
L 437.425625 249.213699 
L 438.820625 249.213699 
L 440.215625 248.438014 
L 443.005625 248.438014 
L 444.400625 247.662329 
L 445.795625 248.438014 
L 447.190625 246.886644 
L 448.585625 247.662329 
L 449.980625 247.662329 
L 451.375625 243.008219 
L 452.770625 246.886644 
L 454.165625 242.232534 
L 455.560625 241.456849 
L 456.955625 243.783904 
L 458.350625 243.783904 
L 459.745625 243.008219 
L 461.140625 243.783904 
L 462.535625 240.681164 
L 463.930625 244.559589 
L 466.720625 246.110959 
L 468.115625 247.662329 
L 469.510625 247.662329 
L 470.905625 246.886644 
L 472.300625 247.662329 
L 473.695625 246.886644 
L 475.090625 248.438014 
L 476.485625 246.886644 
L 477.880625 247.662329 
L 479.275625 249.213699 
L 480.670625 249.213699 
L 482.065625 248.438014 
L 493.225625 248.438014 
L 494.620625 249.213699 
L 496.015625 249.213699 
L 497.410625 247.662329 
L 498.805625 248.438014 
L 500.200625 247.662329 
L 501.595625 249.213699 
L 502.990625 248.438014 
L 504.385625 246.110959 
L 505.780625 247.662329 
L 507.175625 246.886644 
L 508.570625 245.335274 
L 509.965625 247.662329 
L 512.755625 246.110959 
L 514.150625 246.110959 
L 515.545625 249.213699 
L 516.940625 246.110959 
L 518.335625 244.559589 
L 519.730625 246.886644 
L 521.125625 247.662329 
L 522.520625 246.110959 
L 525.310625 249.213699 
L 526.705625 247.662329 
L 528.100625 249.213699 
L 529.495625 248.438014 
L 530.890625 249.213699 
L 532.285625 248.438014 
L 533.680625 248.438014 
L 535.075625 249.213699 
L 536.470625 249.213699 
L 540.655625 246.886644 
L 542.050625 248.438014 
L 543.445625 247.662329 
L 546.235625 247.662329 
L 549.025625 249.213699 
L 550.420625 247.662329 
L 551.815625 244.559589 
L 553.210625 246.886644 
L 554.605625 247.662329 
L 556.000625 246.886644 
L 557.395625 245.335274 
L 558.790625 247.662329 
L 560.185625 248.438014 
L 561.580625 247.662329 
L 562.975625 248.438014 
L 564.370625 246.886644 
L 565.765625 246.886644 
L 567.160625 249.213699 
L 568.555625 244.559589 
L 569.950625 244.559589 
L 571.345625 246.110959 
L 574.135625 246.110959 
L 575.530625 246.886644 
L 576.925625 245.335274 
L 578.320625 246.110959 
L 579.715625 244.559589 
L 581.110625 243.783904 
L 582.505625 242.232534 
L 583.900625 245.335274 
L 585.295625 241.456849 
L 586.690625 245.335274 
L 588.085625 240.681164 
L 589.480625 241.456849 
L 590.875625 241.456849 
L 593.665625 244.559589 
L 595.060625 241.456849 
L 595.060625 241.456849 
" style="fill:none;stroke:#389a32;stroke-linecap:square;stroke-width:3;"/>
   </g>
   <g id="line2d_12">
    <path clip-path="url(#pf4b2e56485)" d="M 35.665625 170.20735 
L 37.060625 173.839826 
L 39.850625 173.839826 
L 41.245625 172.023588 
L 42.640625 172.931707 
L 45.430625 172.931707 
L 48.220625 174.747945 
L 49.615625 173.839826 
L 52.405625 173.839826 
L 53.800625 172.023588 
L 55.195625 174.747945 
L 56.590625 172.023588 
L 57.985625 172.931707 
L 59.380625 170.20735 
L 60.775625 169.299232 
L 62.170625 165.666756 
L 63.565625 162.942399 
L 64.960625 156.585566 
L 66.355625 151.136853 
L 70.540625 137.515068 
L 71.935625 142.963782 
L 73.330625 141.147544 
L 74.725625 140.239425 
L 76.120625 144.78002 
L 77.515625 150.228734 
L 78.910625 162.03428 
L 80.305625 156.585566 
L 81.700625 158.401804 
L 83.095625 161.126161 
L 84.490625 164.758637 
L 85.885625 167.482994 
L 87.280625 162.942399 
L 88.675625 169.299232 
L 91.465625 171.115469 
L 92.860625 173.839826 
L 94.255625 173.839826 
L 95.650625 172.931707 
L 97.045625 173.839826 
L 98.440625 172.931707 
L 99.835625 174.747945 
L 101.230625 173.839826 
L 102.625625 174.747945 
L 104.020625 173.839826 
L 105.415625 174.747945 
L 106.810625 173.839826 
L 108.205625 173.839826 
L 109.600625 172.023588 
L 112.390625 173.839826 
L 113.785625 173.839826 
L 115.180625 174.747945 
L 116.575625 172.931707 
L 119.365625 174.747945 
L 120.760625 174.747945 
L 122.155625 172.931707 
L 123.550625 173.839826 
L 124.945625 172.931707 
L 126.340625 172.931707 
L 127.735625 174.747945 
L 129.130625 171.115469 
L 130.525625 173.839826 
L 133.315625 173.839826 
L 134.710625 172.931707 
L 137.500625 172.931707 
L 138.895625 174.747945 
L 144.475625 174.747945 
L 145.870625 172.931707 
L 147.265625 174.747945 
L 148.660625 174.747945 
L 150.055625 173.839826 
L 151.450625 174.747945 
L 152.845625 172.931707 
L 154.240625 174.747945 
L 155.635625 172.023588 
L 157.030625 174.747945 
L 158.425625 170.20735 
L 159.820625 174.747945 
L 162.610625 174.747945 
L 164.005625 172.931707 
L 165.400625 174.747945 
L 166.795625 174.747945 
L 168.190625 173.839826 
L 169.585625 173.839826 
L 172.375625 172.023588 
L 173.770625 173.839826 
L 177.955625 171.115469 
L 179.350625 174.747945 
L 182.140625 174.747945 
L 183.535625 173.839826 
L 186.325625 173.839826 
L 187.720625 174.747945 
L 189.115625 174.747945 
L 190.510625 172.023588 
L 191.905625 171.115469 
L 193.300625 173.839826 
L 198.880625 173.839826 
L 200.275625 174.747945 
L 201.670625 174.747945 
L 203.065625 173.839826 
L 204.460625 174.747945 
L 205.855625 172.931707 
L 207.250625 174.747945 
L 208.645625 173.839826 
L 210.040625 174.747945 
L 211.435625 174.747945 
L 212.830625 173.839826 
L 214.225625 174.747945 
L 215.620625 174.747945 
L 217.015625 173.839826 
L 218.410625 174.747945 
L 219.805625 174.747945 
L 221.200625 173.839826 
L 222.595625 172.023588 
L 223.990625 172.931707 
L 226.780625 172.931707 
L 228.175625 174.747945 
L 229.570625 174.747945 
L 230.965625 170.20735 
L 232.360625 172.931707 
L 233.755625 173.839826 
L 235.150625 173.839826 
L 236.545625 172.931707 
L 237.940625 172.931707 
L 239.335625 174.747945 
L 242.125625 174.747945 
L 243.520625 173.839826 
L 244.915625 174.747945 
L 246.310625 174.747945 
L 247.705625 173.839826 
L 249.100625 174.747945 
L 250.495625 174.747945 
L 253.285625 172.931707 
L 254.680625 174.747945 
L 256.075625 173.839826 
L 257.470625 173.839826 
L 258.865625 172.931707 
L 260.260625 173.839826 
L 261.655625 173.839826 
L 263.050625 172.931707 
L 264.445625 172.931707 
L 267.235625 174.747945 
L 268.630625 173.839826 
L 270.025625 173.839826 
L 271.420625 174.747945 
L 272.815625 170.20735 
L 274.210625 172.931707 
L 275.605625 172.931707 
L 277.000625 170.20735 
L 278.395625 173.839826 
L 279.790625 173.839826 
L 281.185625 170.20735 
L 282.580625 170.20735 
L 283.975625 169.299232 
L 285.370625 172.023588 
L 286.765625 166.574875 
L 288.160625 171.115469 
L 289.555625 170.20735 
L 290.950625 172.931707 
L 292.345625 172.023588 
L 293.740625 174.747945 
L 295.135625 174.747945 
L 296.530625 173.839826 
L 297.925625 173.839826 
L 299.320625 172.931707 
L 300.715625 174.747945 
L 302.110625 174.747945 
L 303.505625 172.931707 
L 304.900625 173.839826 
L 306.295625 172.023588 
L 309.085625 172.023588 
L 310.480625 173.839826 
L 311.875625 172.931707 
L 314.665625 172.931707 
L 316.060625 172.023588 
L 317.455625 173.839826 
L 318.850625 174.747945 
L 320.245625 174.747945 
L 321.640625 173.839826 
L 323.035625 174.747945 
L 324.430625 174.747945 
L 325.825625 173.839826 
L 327.220625 173.839826 
L 328.615625 172.023588 
L 330.010625 174.747945 
L 332.800625 172.931707 
L 334.195625 169.299232 
L 335.590625 169.299232 
L 336.985625 172.023588 
L 338.380625 168.391113 
L 339.775625 172.023588 
L 342.565625 168.391113 
L 345.355625 168.391113 
L 346.750625 163.850518 
L 348.145625 169.299232 
L 349.540625 171.115469 
L 350.935625 174.747945 
L 352.330625 171.115469 
L 353.725625 172.023588 
L 355.120625 174.747945 
L 356.515625 172.931707 
L 357.910625 174.747945 
L 359.305625 172.931707 
L 360.700625 170.20735 
L 362.095625 172.931707 
L 363.490625 172.931707 
L 364.885625 170.20735 
L 366.280625 172.023588 
L 367.675625 171.115469 
L 369.070625 172.023588 
L 370.465625 169.299232 
L 371.860625 170.20735 
L 373.255625 170.20735 
L 374.650625 172.023588 
L 376.045625 172.023588 
L 377.440625 169.299232 
L 378.835625 172.931707 
L 380.230625 172.023588 
L 381.625625 174.747945 
L 383.020625 171.115469 
L 384.415625 173.839826 
L 385.810625 173.839826 
L 387.205625 172.023588 
L 388.600625 171.115469 
L 389.995625 171.115469 
L 391.390625 172.023588 
L 392.785625 169.299232 
L 394.180625 171.115469 
L 395.575625 173.839826 
L 396.970625 167.482994 
L 399.760625 158.401804 
L 401.155625 155.677447 
L 402.550625 145.688139 
L 403.945625 144.78002 
L 406.735625 150.228734 
L 408.130625 147.504377 
L 409.525625 155.677447 
L 410.920625 153.861209 
L 412.315625 158.401804 
L 413.710625 157.493685 
L 415.105625 166.574875 
L 416.500625 165.666756 
L 417.895625 167.482994 
L 419.290625 171.115469 
L 420.685625 171.115469 
L 422.080625 170.20735 
L 423.475625 172.023588 
L 426.265625 173.839826 
L 427.660625 172.931707 
L 429.055625 171.115469 
L 430.450625 172.931707 
L 431.845625 172.931707 
L 433.240625 174.747945 
L 436.030625 172.931707 
L 437.425625 174.747945 
L 440.215625 171.115469 
L 441.610625 172.023588 
L 443.005625 173.839826 
L 444.400625 173.839826 
L 445.795625 172.023588 
L 447.190625 174.747945 
L 448.585625 172.023588 
L 449.980625 170.20735 
L 451.375625 172.931707 
L 452.770625 171.115469 
L 454.165625 171.115469 
L 455.560625 166.574875 
L 456.955625 172.023588 
L 458.350625 170.20735 
L 459.745625 173.839826 
L 461.140625 168.391113 
L 462.535625 172.931707 
L 463.930625 172.931707 
L 465.325625 172.023588 
L 466.720625 172.931707 
L 468.115625 171.115469 
L 469.510625 174.747945 
L 470.905625 171.115469 
L 472.300625 174.747945 
L 473.695625 173.839826 
L 475.090625 171.115469 
L 476.485625 174.747945 
L 477.880625 174.747945 
L 479.275625 173.839826 
L 480.670625 173.839826 
L 482.065625 174.747945 
L 484.855625 174.747945 
L 486.250625 172.931707 
L 487.645625 173.839826 
L 490.435625 172.023588 
L 491.830625 173.839826 
L 493.225625 172.931707 
L 494.620625 174.747945 
L 496.015625 173.839826 
L 497.410625 173.839826 
L 501.595625 171.115469 
L 502.990625 173.839826 
L 504.385625 173.839826 
L 507.175625 168.391113 
L 508.570625 172.931707 
L 511.360625 169.299232 
L 512.755625 169.299232 
L 514.150625 172.023588 
L 515.545625 171.115469 
L 516.940625 169.299232 
L 519.730625 171.115469 
L 521.125625 171.115469 
L 522.520625 172.023588 
L 523.915625 173.839826 
L 525.310625 172.023588 
L 526.705625 171.115469 
L 528.100625 172.931707 
L 529.495625 173.839826 
L 530.890625 170.20735 
L 533.680625 172.023588 
L 536.470625 170.20735 
L 537.865625 172.931707 
L 540.655625 171.115469 
L 544.840625 173.839826 
L 546.235625 172.931707 
L 549.025625 169.299232 
L 550.420625 172.931707 
L 551.815625 170.20735 
L 553.210625 172.023588 
L 554.605625 167.482994 
L 556.000625 169.299232 
L 557.395625 172.023588 
L 558.790625 171.115469 
L 560.185625 169.299232 
L 561.580625 172.023588 
L 562.975625 172.931707 
L 564.370625 167.482994 
L 565.765625 169.299232 
L 567.160625 172.023588 
L 568.555625 171.115469 
L 569.950625 169.299232 
L 571.345625 168.391113 
L 572.740625 165.666756 
L 574.135625 169.299232 
L 575.530625 168.391113 
L 576.925625 163.850518 
L 578.320625 167.482994 
L 579.715625 166.574875 
L 581.110625 161.126161 
L 582.505625 167.482994 
L 583.900625 162.03428 
L 585.295625 166.574875 
L 586.690625 165.666756 
L 589.480625 158.401804 
L 590.875625 162.942399 
L 592.270625 165.666756 
L 593.665625 162.03428 
L 595.060625 161.126161 
L 595.060625 161.126161 
" style="fill:none;stroke:#2677ad;stroke-linecap:square;stroke-width:3;"/>
   </g>
   <g id="line2d_13">
    <path clip-path="url(#pf4b2e56485)" d="M 35.665625 100.282192 
L 37.060625 99.798648 
L 38.455625 99.959829 
L 39.850625 100.282192 
L 41.245625 99.959829 
L 42.640625 100.12101 
L 44.035625 100.12101 
L 45.430625 99.798648 
L 46.825625 99.959829 
L 49.615625 99.959829 
L 52.405625 99.315104 
L 53.800625 99.637467 
L 55.195625 97.864473 
L 56.590625 97.864473 
L 57.985625 96.897385 
L 59.380625 96.413841 
L 60.775625 95.769116 
L 62.170625 92.54549 
L 63.565625 88.515958 
L 64.960625 86.420601 
L 69.145625 66.756485 
L 70.540625 63.049315 
L 71.935625 64.177584 
L 73.330625 64.661128 
L 74.725625 70.624835 
L 76.120625 69.496566 
L 77.515625 81.101619 
L 78.910625 80.940438 
L 80.305625 88.999502 
L 81.700625 89.644227 
L 83.095625 89.644227 
L 84.490625 92.54549 
L 85.885625 90.933677 
L 87.280625 93.673759 
L 88.675625 95.607935 
L 90.070625 96.897385 
L 91.465625 97.864473 
L 92.860625 98.992742 
L 95.650625 98.670379 
L 97.045625 99.637467 
L 98.440625 99.637467 
L 101.230625 99.315104 
L 102.625625 100.12101 
L 104.020625 99.798648 
L 105.415625 100.12101 
L 108.205625 99.798648 
L 109.600625 99.315104 
L 110.995625 99.959829 
L 112.390625 100.282192 
L 113.785625 99.798648 
L 115.180625 99.959829 
L 116.575625 99.959829 
L 117.970625 100.282192 
L 119.365625 100.12101 
L 120.760625 99.637467 
L 122.155625 99.959829 
L 124.945625 99.959829 
L 126.340625 99.315104 
L 130.525625 99.798648 
L 131.920625 99.637467 
L 133.315625 100.282192 
L 134.710625 99.637467 
L 136.105625 99.959829 
L 137.500625 100.12101 
L 138.895625 99.476285 
L 140.290625 99.476285 
L 141.685625 100.12101 
L 144.475625 100.12101 
L 145.870625 99.476285 
L 147.265625 99.798648 
L 148.660625 100.282192 
L 150.055625 99.798648 
L 151.450625 99.476285 
L 152.845625 99.637467 
L 154.240625 99.959829 
L 155.635625 99.798648 
L 157.030625 99.798648 
L 158.425625 100.12101 
L 162.610625 100.12101 
L 164.005625 100.282192 
L 165.400625 100.12101 
L 166.795625 100.12101 
L 168.190625 100.282192 
L 169.585625 100.12101 
L 170.980625 99.637467 
L 172.375625 99.798648 
L 173.770625 99.637467 
L 175.165625 99.959829 
L 176.560625 99.798648 
L 177.955625 99.476285 
L 179.350625 99.476285 
L 180.745625 99.959829 
L 183.535625 100.282192 
L 184.930625 99.798648 
L 186.325625 99.798648 
L 187.720625 100.282192 
L 190.510625 99.637467 
L 191.905625 99.798648 
L 193.300625 100.12101 
L 194.695625 99.637467 
L 196.090625 99.637467 
L 198.880625 99.959829 
L 200.275625 99.959829 
L 203.065625 100.282192 
L 204.460625 100.282192 
L 207.250625 99.959829 
L 208.645625 99.959829 
L 211.435625 100.282192 
L 212.830625 99.637467 
L 214.225625 99.637467 
L 215.620625 99.959829 
L 217.015625 99.959829 
L 219.805625 99.637467 
L 222.595625 99.637467 
L 223.990625 99.798648 
L 225.385625 99.798648 
L 226.780625 99.476285 
L 228.175625 99.476285 
L 229.570625 99.798648 
L 230.965625 99.476285 
L 232.360625 99.798648 
L 233.755625 99.798648 
L 235.150625 99.959829 
L 236.545625 99.959829 
L 237.940625 100.12101 
L 239.335625 100.12101 
L 240.730625 99.637467 
L 242.125625 100.12101 
L 243.520625 99.798648 
L 244.915625 100.282192 
L 246.310625 99.959829 
L 251.890625 99.959829 
L 253.285625 100.12101 
L 254.680625 99.637467 
L 256.075625 100.12101 
L 257.470625 99.798648 
L 258.865625 99.959829 
L 261.655625 99.959829 
L 263.050625 99.637467 
L 264.445625 100.282192 
L 265.840625 99.476285 
L 267.235625 99.959829 
L 268.630625 99.315104 
L 270.025625 100.282192 
L 271.420625 99.153923 
L 272.815625 99.798648 
L 274.210625 98.992742 
L 275.605625 99.315104 
L 277.000625 98.025654 
L 278.395625 98.186835 
L 279.790625 97.058566 
L 281.185625 97.219747 
L 283.975625 96.575022 
L 285.370625 98.025654 
L 286.765625 98.186835 
L 288.160625 97.864473 
L 289.555625 99.153923 
L 290.950625 99.476285 
L 292.345625 99.153923 
L 293.740625 98.992742 
L 295.135625 99.153923 
L 296.530625 99.798648 
L 297.925625 100.282192 
L 299.320625 99.798648 
L 300.715625 100.282192 
L 302.110625 99.476285 
L 303.505625 99.959829 
L 304.900625 99.798648 
L 306.295625 100.282192 
L 307.690625 99.959829 
L 309.085625 99.798648 
L 310.480625 98.992742 
L 311.875625 99.637467 
L 313.270625 99.798648 
L 314.665625 99.153923 
L 316.060625 99.153923 
L 317.455625 99.637467 
L 318.850625 99.798648 
L 320.245625 99.315104 
L 321.640625 99.315104 
L 323.035625 100.282192 
L 324.430625 99.637467 
L 325.825625 99.637467 
L 327.220625 99.798648 
L 328.615625 99.798648 
L 330.010625 99.959829 
L 332.800625 99.637467 
L 334.195625 99.959829 
L 336.985625 99.637467 
L 338.380625 100.12101 
L 339.775625 99.798648 
L 341.170625 99.315104 
L 342.565625 98.992742 
L 345.355625 99.959829 
L 346.750625 99.315104 
L 348.145625 100.12101 
L 349.540625 99.959829 
L 350.935625 99.476285 
L 352.330625 99.798648 
L 353.725625 99.637467 
L 355.120625 99.798648 
L 356.515625 100.282192 
L 357.910625 100.12101 
L 362.095625 100.12101 
L 363.490625 100.282192 
L 364.885625 99.637467 
L 366.280625 99.959829 
L 367.675625 99.959829 
L 369.070625 99.637467 
L 371.860625 99.637467 
L 373.255625 99.153923 
L 374.650625 98.83156 
L 376.045625 99.315104 
L 377.440625 100.282192 
L 378.835625 99.637467 
L 380.230625 100.12101 
L 381.625625 99.637467 
L 383.020625 98.992742 
L 384.415625 99.476285 
L 385.810625 98.509198 
L 387.205625 98.186835 
L 388.600625 97.54211 
L 389.995625 97.703291 
L 391.390625 94.802028 
L 392.785625 92.867853 
L 394.180625 93.351397 
L 395.575625 87.710052 
L 396.970625 84.647607 
L 398.365625 75.782637 
L 399.760625 69.98011 
L 401.155625 59.825689 
L 402.550625 54.184344 
L 403.945625 43.062836 
L 405.340625 42.256929 
L 406.735625 34.197865 
L 408.130625 37.26031 
L 409.525625 41.934567 
L 410.920625 48.381818 
L 412.315625 60.148052 
L 413.710625 66.595303 
L 415.105625 74.009642 
L 416.500625 82.55225 
L 417.895625 86.581783 
L 420.685625 91.900765 
L 422.080625 95.285572 
L 423.475625 95.607935 
L 424.870625 96.25266 
L 426.265625 97.703291 
L 427.660625 97.54211 
L 429.055625 97.864473 
L 430.450625 98.992742 
L 431.845625 98.992742 
L 433.240625 98.83156 
L 434.635625 99.798648 
L 436.030625 99.637467 
L 438.820625 99.637467 
L 440.215625 99.798648 
L 441.610625 98.348016 
L 443.005625 99.637467 
L 444.400625 99.315104 
L 445.795625 98.509198 
L 447.190625 98.670379 
L 448.585625 98.025654 
L 449.980625 96.897385 
L 451.375625 96.091478 
L 452.770625 94.963209 
L 454.165625 95.124391 
L 455.560625 91.417221 
L 456.955625 92.706671 
L 458.350625 92.223128 
L 459.745625 90.127771 
L 461.140625 91.739584 
L 462.535625 92.384309 
L 465.325625 96.091478 
L 466.720625 96.413841 
L 468.115625 97.219747 
L 469.510625 97.380929 
L 470.905625 98.83156 
L 472.300625 98.83156 
L 473.695625 97.864473 
L 475.090625 99.476285 
L 476.485625 99.959829 
L 477.880625 99.637467 
L 479.275625 100.12101 
L 480.670625 99.315104 
L 482.065625 100.282192 
L 483.460625 100.12101 
L 486.250625 100.12101 
L 487.645625 100.282192 
L 489.040625 100.282192 
L 491.830625 99.959829 
L 493.225625 99.959829 
L 494.620625 100.12101 
L 496.015625 99.959829 
L 497.410625 99.476285 
L 498.805625 99.637467 
L 500.200625 99.476285 
L 501.595625 99.476285 
L 502.990625 99.798648 
L 504.385625 99.798648 
L 505.780625 98.670379 
L 508.570625 98.670379 
L 509.965625 99.476285 
L 511.360625 99.315104 
L 512.755625 98.992742 
L 514.150625 98.992742 
L 515.545625 99.153923 
L 516.940625 98.348016 
L 518.335625 99.476285 
L 519.730625 98.83156 
L 521.125625 99.153923 
L 522.520625 99.315104 
L 523.915625 98.992742 
L 525.310625 99.959829 
L 526.705625 99.637467 
L 529.495625 99.637467 
L 530.890625 99.959829 
L 532.285625 99.637467 
L 533.680625 99.637467 
L 536.470625 99.959829 
L 537.865625 99.637467 
L 539.260625 98.992742 
L 540.655625 99.798648 
L 542.050625 99.798648 
L 543.445625 99.153923 
L 544.840625 98.83156 
L 547.630625 99.798648 
L 549.025625 99.798648 
L 550.420625 99.637467 
L 551.815625 99.153923 
L 553.210625 99.476285 
L 554.605625 100.12101 
L 556.000625 99.476285 
L 557.395625 99.153923 
L 558.790625 98.992742 
L 561.580625 99.637467 
L 562.975625 98.83156 
L 564.370625 98.83156 
L 565.765625 99.637467 
L 567.160625 98.670379 
L 568.555625 98.348016 
L 569.950625 97.864473 
L 571.345625 98.348016 
L 572.740625 97.864473 
L 574.135625 98.509198 
L 575.530625 97.380929 
L 576.925625 98.025654 
L 578.320625 97.864473 
L 579.715625 96.575022 
L 581.110625 98.186835 
L 582.505625 97.219747 
L 583.900625 97.058566 
L 585.295625 97.703291 
L 586.690625 97.703291 
L 588.085625 97.380929 
L 589.480625 95.446753 
L 590.875625 97.058566 
L 593.665625 96.736204 
L 595.060625 97.703291 
L 595.060625 97.703291 
" style="fill:none;stroke:#6a4295;stroke-linecap:square;stroke-width:3;"/>
   </g>
  </g>
 </g>
 <defs>
  <clipPath id="pf4b2e56485">
   <rect height="543.6" width="558" x="36.363125" y="7.2"/>
  </clipPath>
 </defs>
</svg>
