<?xml version="1.0" encoding="utf-8" standalone="no"?>
<!DOCTYPE svg PUBLIC "-//W3C//DTD SVG 1.1//EN"
  "http://www.w3.org/Graphics/SVG/1.1/DTD/svg11.dtd">
<!-- Created with matplotlib (http://matplotlib.org/) -->
<svg height="631.955pt" version="1.1" viewBox="0 0 1218.05 631.955" width="1218.05pt" xmlns="http://www.w3.org/2000/svg" xmlns:xlink="http://www.w3.org/1999/xlink">
 <defs>
  <style type="text/css">
*{stroke-linecap:butt;stroke-linejoin:round;}
  </style>
 </defs>
 <g id="figure_1">
  <g id="patch_1">
   <path d="M 0 631.955 
L 1218.05 631.955 
L 1218.05 0 
L 0 0 
z
" style="fill:#ffffff;"/>
  </g>
  <g id="axes_1">
   <g id="patch_2">
    <path d="M 84.85 560.8 
L 1200.85 560.8 
L 1200.85 17.2 
L 84.85 17.2 
z
" style="fill:#ffffff;"/>
   </g>
   <g id="PolyCollection_1">
    <path clip-path="url(#p04250a08a0)" d="M 131.966125 535.192646 
L 131.966125 535.606122 
L 143.744833 530.830434 
L 155.523542 524.488709 
L 167.303542 514.822816 
L 179.08225 501.847338 
L 190.860958 483.301501 
L 202.639667 459.886522 
L 214.419667 432.332579 
L 226.198375 403.768109 
L 237.977083 376.825043 
L 249.757083 353.27773 
L 261.535792 333.47955 
L 273.3145 317.296839 
L 285.093208 303.637758 
L 296.873208 292.045905 
L 308.651917 280.50741 
L 320.430625 268.818474 
L 332.209333 256.410065 
L 343.989333 244.680977 
L 355.768042 233.724874 
L 367.54675 223.934761 
L 379.325458 214.453517 
L 391.105458 205.260141 
L 402.884167 195.756488 
L 414.662875 186.648474 
L 426.441583 177.94086 
L 438.221583 169.948967 
L 450.000292 162.38741 
L 461.779 155.401436 
L 473.557708 149.125305 
L 485.337708 143.480904 
L 497.116417 138.093468 
L 508.895125 132.874932 
L 520.675125 127.825217 
L 532.453833 123.326387 
L 544.232542 119.14299 
L 556.01125 115.273084 
L 567.79125 111.145046 
L 579.569958 107.137413 
L 591.348667 102.941769 
L 603.127375 99.160891 
L 614.907375 95.331112 
L 626.686083 92.03794 
L 638.464792 88.884822 
L 650.2435 86.057318 
L 662.0235 83.249939 
L 673.802208 80.573827 
L 685.580917 78.251948 
L 697.359625 76.097988 
L 709.139625 74.160976 
L 720.918333 72.174161 
L 732.697042 70.217083 
L 744.477042 68.264964 
L 756.25575 66.309921 
L 768.034458 64.450934 
L 779.814458 62.626385 
L 791.593167 60.994703 
L 803.371875 59.44078 
L 815.150583 57.969468 
L 826.930583 56.44977 
L 838.709292 55.07091 
L 850.488 53.899003 
L 862.266708 52.897134 
L 874.046708 51.982385 
L 885.825417 51.085839 
L 897.604125 50.292106 
L 909.384125 49.505098 
L 921.162833 48.767072 
L 932.941542 48.210885 
L 944.72025 47.896056 
L 956.498958 47.86336 
L 968.278958 48.002416 
L 980.057667 48.324023 
L 991.836375 48.795108 
L 1003.615083 49.222298 
L 1015.395083 49.715633 
L 1027.173792 50.130118 
L 1038.9525 50.709142 
L 1050.731208 51.245054 
L 1062.511208 51.887054 
L 1074.289917 52.43382 
L 1086.068625 53.047245 
L 1097.847333 53.615977 
L 1109.626042 54.301854 
L 1121.406042 55.009913 
L 1133.18475 55.794614 
L 1144.963458 56.468093 
L 1156.742167 57.001008 
L 1168.522167 57.360406 
L 1180.300875 57.736917 
L 1192.079583 58.111477 
L 1203.858292 58.62154 
L 1215.638292 59.172427 
L 1227.417 59.924042 
L 1239.195708 60.715038 
L 1250.974417 61.598279 
L 1262.754417 62.327529 
L 1274.533125 63.089818 
L 1286.311833 63.754218 
L 1298.090542 64.530242 
L 1309.86925 65.198343 
L 1321.64925 65.89803 
L 1333.427958 66.462102 
L 1345.206667 67.067387 
L 1356.985375 67.544227 
L 1368.764083 68.047965 
L 1380.544083 68.369508 
L 1392.322792 68.79127 
L 1404.1015 69.2232 
L 1415.880208 69.844095 
L 1427.658917 70.461073 
L 1439.438917 71.152975 
L 1451.217625 71.7637 
L 1462.996333 72.327087 
L 1474.775042 72.713617 
L 1486.555042 73.147242 
L 1498.33375 73.475017 
L 1510.112458 73.75929 
L 1521.891167 73.878763 
L 1521.891167 63.155337 
L 1521.891167 63.155337 
L 1510.112458 63.06462 
L 1498.33375 62.858447 
L 1486.555042 62.603965 
L 1474.775042 62.271718 
L 1462.996333 61.989014 
L 1451.217625 61.467618 
L 1439.438917 60.860679 
L 1427.658917 60.21895 
L 1415.880208 59.746306 
L 1404.1015 59.316235 
L 1392.322792 58.972626 
L 1380.544083 58.597114 
L 1368.764083 58.234937 
L 1356.985375 57.68047 
L 1345.206667 57.077357 
L 1333.427958 56.339345 
L 1321.64925 55.656759 
L 1309.86925 54.911673 
L 1298.090542 54.214733 
L 1286.311833 53.45901 
L 1274.533125 52.833265 
L 1262.754417 52.213602 
L 1250.974417 51.635801 
L 1239.195708 50.938984 
L 1227.417 50.29246 
L 1215.638292 49.705608 
L 1203.858292 49.282839 
L 1192.079583 48.911056 
L 1180.300875 48.669538 
L 1168.522167 48.478292 
L 1156.742167 48.260271 
L 1144.963458 47.821957 
L 1133.18475 47.1304 
L 1121.406042 46.330201 
L 1109.626042 45.598319 
L 1097.847333 44.945729 
L 1086.068625 44.449009 
L 1074.289917 43.982485 
L 1062.511208 43.673989 
L 1050.731208 43.296434 
L 1038.9525 42.972252 
L 1027.173792 42.493068 
L 1015.395083 42.148932 
L 1003.615083 41.758011 
L 991.836375 41.532877 
L 980.057667 41.235665 
L 968.278958 41.018498 
L 956.498958 40.853139 
L 944.72025 40.808367 
L 932.941542 40.988823 
L 921.162833 41.341053 
L 909.384125 41.801365 
L 897.604125 42.306919 
L 885.825417 42.728433 
L 874.046708 43.221088 
L 862.266708 43.613399 
L 850.488 44.121539 
L 838.709292 44.693987 
L 826.930583 45.441203 
L 815.150583 46.286758 
L 803.371875 47.175873 
L 791.593167 48.178081 
L 779.814458 49.307896 
L 768.034458 50.677302 
L 756.25575 52.133064 
L 744.477042 53.647391 
L 732.697042 55.051097 
L 720.918333 56.389443 
L 709.139625 57.806772 
L 697.359625 59.247322 
L 685.580917 61.072511 
L 673.802208 63.097015 
L 662.0235 65.537993 
L 650.2435 67.987832 
L 638.464792 70.441705 
L 626.686083 73.144973 
L 614.907375 76.03434 
L 603.127375 79.51779 
L 591.348667 83.093633 
L 579.569958 87.204204 
L 567.79125 91.251518 
L 556.01125 95.473179 
L 544.232542 99.448025 
L 532.453833 103.652983 
L 520.675125 108.069196 
L 508.895125 113.019302 
L 497.116417 118.129162 
L 485.337708 123.517078 
L 473.557708 129.213383 
L 461.779 135.855608 
L 450.000292 143.428461 
L 438.221583 151.959882 
L 426.441583 160.882401 
L 414.662875 170.637851 
L 402.884167 180.654891 
L 391.105458 191.155717 
L 379.325458 201.239604 
L 367.54675 211.66378 
L 355.768042 222.303361 
L 343.989333 234.023833 
L 332.209333 246.401596 
L 320.430625 259.60762 
L 308.651917 272.213983 
L 296.873208 284.746096 
L 285.093208 297.096803 
L 273.3145 311.204808 
L 261.535792 327.360258 
L 249.757083 346.723023 
L 237.977083 369.606398 
L 226.198375 396.042434 
L 214.419667 424.548715 
L 202.639667 452.917924 
L 190.860958 477.651409 
L 179.08225 497.812309 
L 167.303542 512.048239 
L 155.523542 522.828954 
L 143.744833 529.816302 
L 131.966125 535.192646 
z
" style="fill:#c9b4d4;fill-opacity:0.5;stroke:#c9b4d4;stroke-opacity:0.5;"/>
   </g>
   <g id="PolyCollection_2">
    <path clip-path="url(#p04250a08a0)" d="M 131.966125 537.137072 
L 131.966125 537.643264 
L 143.744833 536.200508 
L 155.523542 534.699545 
L 167.303542 533.669996 
L 179.08225 533.033277 
L 190.860958 532.636994 
L 202.639667 532.4365 
L 214.419667 531.931035 
L 226.198375 531.751107 
L 237.977083 531.272921 
L 249.757083 531.201395 
L 261.535792 530.967525 
L 273.3145 531.276049 
L 285.093208 531.44213 
L 296.873208 531.792307 
L 308.651917 531.749095 
L 320.430625 532.043616 
L 332.209333 532.127743 
L 343.989333 532.425954 
L 355.768042 532.333273 
L 367.54675 532.481986 
L 379.325458 532.660187 
L 391.105458 532.787507 
L 402.884167 532.85597 
L 414.662875 532.586495 
L 426.441583 532.839929 
L 438.221583 533.031198 
L 450.000292 533.84231 
L 461.779 534.39495 
L 473.557708 535.120288 
L 485.337708 535.393684 
L 497.116417 535.530405 
L 508.895125 535.690806 
L 520.675125 535.984769 
L 532.453833 536.550265 
L 544.232542 536.955105 
L 556.01125 537.543524 
L 567.79125 537.776771 
L 579.569958 538.344047 
L 591.348667 538.609385 
L 603.127375 539.155397 
L 614.907375 539.406627 
L 626.686083 539.766752 
L 638.464792 539.92878 
L 650.2435 540.03499 
L 662.0235 540.310714 
L 673.802208 540.593622 
L 685.580917 541.020814 
L 697.359625 541.326191 
L 709.139625 541.498546 
L 720.918333 541.747309 
L 732.697042 541.957538 
L 744.477042 542.394859 
L 756.25575 542.75825 
L 768.034458 543.078006 
L 779.814458 543.272521 
L 791.593167 543.347906 
L 803.371875 543.397261 
L 815.150583 543.429331 
L 826.930583 543.474127 
L 838.709292 543.684713 
L 850.488 543.879592 
L 862.266708 544.228431 
L 874.046708 544.424874 
L 885.825417 544.427542 
L 897.604125 544.322736 
L 909.384125 544.224052 
L 921.162833 544.486323 
L 932.941542 544.678935 
L 944.72025 544.918703 
L 956.498958 544.882831 
L 968.278958 545.103753 
L 980.057667 545.33911 
L 991.836375 545.610701 
L 1003.615083 545.707101 
L 1015.395083 545.800162 
L 1027.173792 546.037183 
L 1038.9525 546.178396 
L 1050.731208 546.176737 
L 1062.511208 546.063878 
L 1074.289917 546.025124 
L 1086.068625 546.184368 
L 1097.847333 546.311895 
L 1109.626042 546.454859 
L 1121.406042 546.422113 
L 1133.18475 546.326052 
L 1144.963458 546.413687 
L 1156.742167 546.454931 
L 1168.522167 546.544622 
L 1180.300875 546.453974 
L 1192.079583 546.427782 
L 1203.858292 546.518239 
L 1215.638292 546.526302 
L 1227.417 546.758795 
L 1239.195708 546.778345 
L 1250.974417 546.991301 
L 1262.754417 546.829071 
L 1274.533125 546.9044 
L 1286.311833 546.75065 
L 1298.090542 546.875942 
L 1309.86925 546.855059 
L 1321.64925 546.908405 
L 1333.427958 546.783202 
L 1345.206667 546.539579 
L 1356.985375 546.503432 
L 1368.764083 546.640496 
L 1380.544083 546.942824 
L 1392.322792 547.092859 
L 1404.1015 547.121238 
L 1415.880208 547.116903 
L 1427.658917 547.113767 
L 1439.438917 546.957219 
L 1451.217625 546.945844 
L 1462.996333 546.944171 
L 1474.775042 547.033558 
L 1486.555042 546.908785 
L 1498.33375 546.658305 
L 1510.112458 546.685876 
L 1521.891167 546.847894 
L 1521.891167 543.419001 
L 1521.891167 543.419001 
L 1510.112458 542.810316 
L 1498.33375 542.55763 
L 1486.555042 543.022287 
L 1474.775042 543.63681 
L 1462.996333 543.644054 
L 1451.217625 543.867068 
L 1439.438917 543.990988 
L 1427.658917 544.523001 
L 1415.880208 544.597177 
L 1404.1015 544.62425 
L 1392.322792 544.4521 
L 1380.544083 544.181751 
L 1368.764083 543.309902 
L 1356.985375 543.026582 
L 1345.206667 543.014596 
L 1333.427958 543.698717 
L 1321.64925 544.148523 
L 1309.86925 544.271933 
L 1298.090542 544.519225 
L 1286.311833 544.393253 
L 1274.533125 544.954639 
L 1262.754417 545.158016 
L 1250.974417 545.742331 
L 1239.195708 545.37303 
L 1227.417 545.286276 
L 1215.638292 544.844705 
L 1203.858292 544.939744 
L 1192.079583 544.921481 
L 1180.300875 545.023336 
L 1168.522167 545.367569 
L 1156.742167 545.244652 
L 1144.963458 545.370457 
L 1133.18475 545.267229 
L 1121.406042 545.589134 
L 1109.626042 545.756917 
L 1097.847333 545.609961 
L 1086.068625 545.433072 
L 1074.289917 545.140525 
L 1062.511208 545.227402 
L 1050.731208 545.464862 
L 1038.9525 545.497027 
L 1027.173792 545.268592 
L 1015.395083 544.824302 
L 1003.615083 544.622611 
L 991.836375 544.494323 
L 980.057667 544.04353 
L 968.278958 543.771526 
L 956.498958 543.523745 
L 944.72025 543.763296 
L 932.941542 543.355576 
L 921.162833 542.980427 
L 909.384125 542.513066 
L 897.604125 542.941071 
L 885.825417 543.360538 
L 874.046708 543.447765 
L 862.266708 543.127183 
L 850.488 542.434727 
L 838.709292 542.073925 
L 826.930583 541.748159 
L 815.150583 541.887179 
L 803.371875 541.986898 
L 791.593167 542.014509 
L 779.814458 542.002918 
L 768.034458 541.793961 
L 756.25575 541.372005 
L 744.477042 540.855972 
L 732.697042 540.150526 
L 720.918333 539.887219 
L 709.139625 539.556143 
L 697.359625 539.436162 
L 685.580917 539.115793 
L 673.802208 538.579001 
L 662.0235 538.315893 
L 650.2435 538.06493 
L 638.464792 538.043092 
L 626.686083 537.862048 
L 614.907375 537.328253 
L 603.127375 536.948907 
L 591.348667 536.079143 
L 579.569958 535.489217 
L 567.79125 534.285564 
L 556.01125 533.472683 
L 544.232542 532.507615 
L 532.453833 531.938806 
L 520.675125 531.223822 
L 508.895125 530.983849 
L 497.116417 531.103178 
L 485.337708 531.235067 
L 473.557708 531.184719 
L 461.779 530.279256 
L 450.000292 529.469272 
L 438.221583 528.178464 
L 426.441583 527.956599 
L 414.662875 527.765489 
L 402.884167 528.505902 
L 391.105458 528.663756 
L 379.325458 528.696852 
L 367.54675 528.544061 
L 355.768042 528.373864 
L 343.989333 528.665326 
L 332.209333 528.345042 
L 320.430625 528.426752 
L 308.651917 527.914328 
L 296.873208 527.94118 
L 285.093208 527.250061 
L 273.3145 527.14555 
L 261.535792 526.837993 
L 249.757083 527.541531 
L 237.977083 527.99911 
L 226.198375 529.146892 
L 214.419667 529.889876 
L 202.639667 530.887164 
L 190.860958 531.256847 
L 179.08225 531.713411 
L 167.303542 532.325764 
L 155.523542 533.502023 
L 143.744833 535.277156 
L 131.966125 537.137072 
z
" style="fill:#d92426;fill-opacity:0.5;stroke:#d92426;stroke-opacity:0.5;"/>
   </g>
   <g id="PolyCollection_3">
    <path clip-path="url(#p04250a08a0)" d="M 131.966125 537.576679 
L 131.966125 537.839065 
L 143.744833 536.649 
L 155.523542 535.26553 
L 167.303542 534.360931 
L 179.08225 533.524001 
L 190.860958 533.15657 
L 202.639667 532.738075 
L 214.419667 532.53902 
L 226.198375 532.431217 
L 237.977083 532.49413 
L 249.757083 532.493364 
L 261.535792 532.453919 
L 273.3145 532.439169 
L 285.093208 532.545905 
L 296.873208 532.473631 
L 308.651917 532.123964 
L 320.430625 531.366605 
L 332.209333 530.240971 
L 343.989333 528.560814 
L 355.768042 526.022198 
L 367.54675 522.080123 
L 379.325458 516.359283 
L 391.105458 508.173 
L 402.884167 497.215971 
L 414.662875 482.625337 
L 426.441583 464.93242 
L 438.221583 445.891334 
L 450.000292 428.605533 
L 461.779 415.170874 
L 473.557708 404.818746 
L 485.337708 396.014548 
L 497.116417 387.599811 
L 508.895125 379.055817 
L 520.675125 370.305769 
L 532.453833 361.804757 
L 544.232542 354.390993 
L 556.01125 348.220944 
L 567.79125 342.648534 
L 579.569958 337.299794 
L 591.348667 331.681703 
L 603.127375 326.108077 
L 614.907375 320.333112 
L 626.686083 314.71956 
L 638.464792 308.90646 
L 650.2435 303.054832 
L 662.0235 297.105706 
L 673.802208 291.512644 
L 685.580917 286.392133 
L 697.359625 281.56989 
L 709.139625 276.739899 
L 720.918333 271.848439 
L 732.697042 266.801567 
L 744.477042 261.75425 
L 756.25575 256.560045 
L 768.034458 251.431782 
L 779.814458 246.19373 
L 791.593167 240.986574 
L 803.371875 235.882012 
L 815.150583 230.909749 
L 826.930583 226.015804 
L 838.709292 221.007087 
L 850.488 216.031201 
L 862.266708 211.102256 
L 874.046708 206.325805 
L 885.825417 201.788434 
L 897.604125 197.498363 
L 909.384125 193.509418 
L 921.162833 189.429815 
L 932.941542 185.460201 
L 944.72025 181.398197 
L 956.498958 177.729696 
L 968.278958 174.132923 
L 980.057667 170.831765 
L 991.836375 167.60019 
L 1003.615083 164.563053 
L 1015.395083 161.684998 
L 1027.173792 158.938558 
L 1038.9525 156.347037 
L 1050.731208 153.889711 
L 1062.511208 151.482161 
L 1074.289917 149.195234 
L 1086.068625 146.972908 
L 1097.847333 145.059153 
L 1109.626042 143.207516 
L 1121.406042 141.719028 
L 1133.18475 140.521807 
L 1144.963458 139.891273 
L 1156.742167 139.482295 
L 1168.522167 139.399664 
L 1180.300875 139.650617 
L 1192.079583 140.348269 
L 1203.858292 141.175677 
L 1215.638292 142.010888 
L 1227.417 142.872223 
L 1239.195708 143.893812 
L 1250.974417 144.980014 
L 1262.754417 145.949374 
L 1274.533125 146.800994 
L 1286.311833 147.658294 
L 1298.090542 148.55989 
L 1309.86925 149.518849 
L 1321.64925 150.425241 
L 1333.427958 151.344693 
L 1345.206667 152.177828 
L 1356.985375 152.986593 
L 1368.764083 153.623601 
L 1380.544083 154.216676 
L 1392.322792 154.809116 
L 1404.1015 155.608874 
L 1415.880208 156.478795 
L 1427.658917 157.376354 
L 1439.438917 158.12875 
L 1451.217625 158.865422 
L 1462.996333 159.504003 
L 1474.775042 160.151155 
L 1486.555042 160.7416 
L 1498.33375 161.291713 
L 1510.112458 161.718396 
L 1521.891167 162.045956 
L 1521.891167 150.157798 
L 1521.891167 150.157798 
L 1510.112458 149.557611 
L 1498.33375 148.933336 
L 1486.555042 148.205387 
L 1474.775042 147.476699 
L 1462.996333 146.676666 
L 1451.217625 145.899471 
L 1439.438917 145.010171 
L 1427.658917 144.194581 
L 1415.880208 143.236649 
L 1404.1015 142.347723 
L 1392.322792 141.441789 
L 1380.544083 140.773079 
L 1368.764083 140.078428 
L 1356.985375 139.405962 
L 1345.206667 138.54527 
L 1333.427958 137.737938 
L 1321.64925 136.842975 
L 1309.86925 136.034012 
L 1298.090542 135.115747 
L 1286.311833 134.314068 
L 1274.533125 133.547817 
L 1262.754417 132.889434 
L 1250.974417 132.097529 
L 1239.195708 131.270261 
L 1227.417 130.566826 
L 1215.638292 130.227402 
L 1203.858292 129.994731 
L 1192.079583 129.896811 
L 1180.300875 130.004962 
L 1168.522167 130.765697 
L 1156.742167 131.922478 
L 1144.963458 133.378656 
L 1133.18475 134.794474 
L 1121.406042 136.498861 
L 1109.626042 138.235724 
L 1097.847333 140.249683 
L 1086.068625 142.257101 
L 1074.289917 144.552703 
L 1062.511208 146.868258 
L 1050.731208 149.312035 
L 1038.9525 151.80751 
L 1027.173792 154.461126 
L 1015.395083 157.271488 
L 1003.615083 160.208741 
L 991.836375 163.288913 
L 980.057667 166.566041 
L 968.278958 169.945123 
L 956.498958 173.671249 
L 944.72025 177.511677 
L 932.941542 181.760713 
L 921.162833 185.935433 
L 909.384125 190.191028 
L 897.604125 194.339168 
L 885.825417 198.674215 
L 874.046708 203.211339 
L 862.266708 207.90078 
L 850.488 212.734892 
L 838.709292 217.582465 
L 826.930583 222.479348 
L 815.150583 227.285645 
L 803.371875 232.122342 
L 791.593167 237.036931 
L 779.814458 242.025293 
L 768.034458 247.079402 
L 756.25575 252.069349 
L 744.477042 257.07308 
L 732.697042 261.899953 
L 720.918333 266.623385 
L 709.139625 271.171238 
L 697.359625 275.587282 
L 685.580917 279.99899 
L 673.802208 284.745423 
L 662.0235 290.121 
L 650.2435 296.053761 
L 638.464792 302.001876 
L 626.686083 307.850809 
L 614.907375 313.481322 
L 603.127375 319.194436 
L 591.348667 324.77065 
L 579.569958 330.292734 
L 567.79125 335.588892 
L 556.01125 341.060017 
L 544.232542 347.34928 
L 532.453833 355.115241 
L 520.675125 364.379076 
L 508.895125 374.084853 
L 497.116417 383.656028 
L 485.337708 392.769372 
L 473.557708 402.222886 
L 461.779 413.242694 
L 450.000292 426.896227 
L 438.221583 443.676027 
L 426.441583 462.252061 
L 414.662875 480.096089 
L 402.884167 494.939583 
L 391.105458 506.289482 
L 379.325458 514.72528 
L 367.54675 520.644727 
L 355.768042 524.571565 
L 343.989333 527.007492 
L 332.209333 528.605847 
L 320.430625 529.632868 
L 308.651917 530.358934 
L 296.873208 530.601186 
L 285.093208 530.678704 
L 273.3145 530.611487 
L 261.535792 530.821426 
L 249.757083 531.001836 
L 237.977083 531.104959 
L 226.198375 531.0664 
L 214.419667 531.287172 
L 202.639667 531.590645 
L 190.860958 532.143383 
L 179.08225 532.558736 
L 167.303542 533.51931 
L 155.523542 534.533015 
L 143.744833 536.157464 
L 131.966125 537.576679 
z
" style="fill:#6a4295;fill-opacity:0.5;stroke:#6a4295;stroke-opacity:0.5;"/>
   </g>
   <g id="PolyCollection_4">
    <path clip-path="url(#p04250a08a0)" d="M 131.966125 537.531907 
L 131.966125 537.690556 
L 143.744833 536.348496 
L 155.523542 534.972424 
L 167.303542 534.114179 
L 179.08225 533.466463 
L 190.860958 533.166742 
L 202.639667 532.83484 
L 214.419667 532.616409 
L 226.198375 532.593988 
L 237.977083 532.706891 
L 249.757083 532.92287 
L 261.535792 532.984251 
L 273.3145 533.09603 
L 285.093208 533.165344 
L 296.873208 533.231205 
L 308.651917 533.063267 
L 320.430625 532.88446 
L 332.209333 532.831664 
L 343.989333 532.953183 
L 355.768042 533.10166 
L 367.54675 533.239666 
L 379.325458 533.371624 
L 391.105458 533.563235 
L 402.884167 533.798288 
L 414.662875 534.187468 
L 426.441583 534.585809 
L 438.221583 534.981926 
L 450.000292 535.370312 
L 461.779 535.826249 
L 473.557708 536.261663 
L 485.337708 536.650422 
L 497.116417 536.949807 
L 508.895125 537.26017 
L 520.675125 537.519644 
L 532.453833 537.802904 
L 544.232542 538.078473 
L 556.01125 538.393116 
L 567.79125 538.649665 
L 579.569958 538.903743 
L 591.348667 539.097994 
L 603.127375 539.355357 
L 614.907375 539.615839 
L 626.686083 539.934755 
L 638.464792 540.18045 
L 650.2435 540.410666 
L 662.0235 540.647643 
L 673.802208 540.97619 
L 685.580917 541.297629 
L 697.359625 541.586868 
L 709.139625 541.812522 
L 720.918333 542.071843 
L 732.697042 542.327859 
L 744.477042 542.596603 
L 756.25575 542.806373 
L 768.034458 542.987049 
L 779.814458 543.103402 
L 791.593167 543.240697 
L 803.371875 543.426862 
L 815.150583 543.676239 
L 826.930583 543.931501 
L 838.709292 544.097577 
L 850.488 544.234076 
L 862.266708 544.318646 
L 874.046708 544.446096 
L 885.825417 544.536407 
L 897.604125 544.647916 
L 909.384125 544.723466 
L 921.162833 544.8183 
L 932.941542 544.913409 
L 944.72025 545.048575 
L 956.498958 545.199846 
L 968.278958 545.33743 
L 980.057667 545.46098 
L 991.836375 545.555596 
L 1003.615083 545.624272 
L 1015.395083 545.667616 
L 1027.173792 545.673246 
L 1038.9525 545.715442 
L 1050.731208 545.761999 
L 1062.511208 545.861902 
L 1074.289917 545.94553 
L 1086.068625 546.049021 
L 1097.847333 546.131863 
L 1109.626042 546.192113 
L 1121.406042 546.207009 
L 1133.18475 546.23963 
L 1144.963458 546.301973 
L 1156.742167 546.37319 
L 1168.522167 546.38765 
L 1180.300875 546.369946 
L 1192.079583 546.380672 
L 1203.858292 546.433099 
L 1215.638292 546.50213 
L 1227.417 546.557954 
L 1239.195708 546.636268 
L 1250.974417 546.702959 
L 1262.754417 546.756705 
L 1274.533125 546.742661 
L 1286.311833 546.73236 
L 1298.090542 546.738244 
L 1309.86925 546.774953 
L 1321.64925 546.82446 
L 1333.427958 546.850889 
L 1345.206667 546.899539 
L 1356.985375 546.943937 
L 1368.764083 546.990557 
L 1380.544083 547.001175 
L 1392.322792 546.972922 
L 1404.1015 546.974369 
L 1415.880208 546.971106 
L 1427.658917 546.984742 
L 1439.438917 546.953844 
L 1451.217625 546.91819 
L 1462.996333 546.909789 
L 1474.775042 546.92463 
L 1486.555042 546.984339 
L 1498.33375 547.015249 
L 1510.112458 547.059417 
L 1521.891167 547.090857 
L 1521.891167 545.389094 
L 1521.891167 545.389094 
L 1510.112458 545.389126 
L 1498.33375 545.387391 
L 1486.555042 545.394141 
L 1474.775042 545.366874 
L 1462.996333 545.352723 
L 1451.217625 545.356402 
L 1439.438917 545.354572 
L 1427.658917 545.359914 
L 1415.880208 545.320398 
L 1404.1015 545.30747 
L 1392.322792 545.299253 
L 1380.544083 545.326568 
L 1368.764083 545.332355 
L 1356.985375 545.30408 
L 1345.206667 545.261501 
L 1333.427958 545.218344 
L 1321.64925 545.181957 
L 1309.86925 545.156567 
L 1298.090542 545.13046 
L 1286.311833 545.146008 
L 1274.533125 545.147787 
L 1262.754417 545.153071 
L 1250.974417 545.100514 
L 1239.195708 545.051237 
L 1227.417 545.003919 
L 1215.638292 544.980015 
L 1203.858292 544.933078 
L 1192.079583 544.874369 
L 1180.300875 544.824695 
L 1168.522167 544.816655 
L 1156.742167 544.80937 
L 1144.963458 544.783947 
L 1133.18475 544.76173 
L 1121.406042 544.758112 
L 1109.626042 544.758512 
L 1097.847333 544.697961 
L 1086.068625 544.618932 
L 1074.289917 544.526726 
L 1062.511208 544.489554 
L 1050.731208 544.434834 
L 1038.9525 544.413743 
L 1027.173792 544.373795 
L 1015.395083 544.381841 
L 1003.615083 544.352704 
L 991.836375 544.2885 
L 980.057667 544.177756 
L 968.278958 544.054873 
L 956.498958 543.943609 
L 944.72025 543.817041 
L 932.941542 543.713022 
L 921.162833 543.6221 
L 909.384125 543.540566 
L 897.604125 543.44458 
L 885.825417 543.324153 
L 874.046708 543.221184 
L 862.266708 543.107034 
L 850.488 543.022484 
L 838.709292 542.885975 
L 826.930583 542.730723 
L 815.150583 542.517281 
L 803.371875 542.322115 
L 791.593167 542.165207 
L 779.814458 542.039158 
L 768.034458 541.918743 
L 756.25575 541.744268 
L 744.477042 541.548149 
L 732.697042 541.307117 
L 720.918333 541.096845 
L 709.139625 540.877797 
L 697.359625 540.685484 
L 685.580917 540.426292 
L 673.802208 540.150978 
L 662.0235 539.875525 
L 650.2435 539.665541 
L 638.464792 539.470542 
L 626.686083 539.254781 
L 614.907375 538.98661 
L 603.127375 538.739732 
L 591.348667 538.482487 
L 579.569958 538.278098 
L 567.79125 538.024816 
L 556.01125 537.776421 
L 544.232542 537.460488 
L 532.453833 537.177961 
L 520.675125 536.864469 
L 508.895125 536.573094 
L 497.116417 536.233552 
L 485.337708 535.926522 
L 473.557708 535.525248 
L 461.779 534.994262 
L 450.000292 534.379911 
L 438.221583 533.811562 
L 426.441583 533.270272 
L 414.662875 532.743285 
L 402.884167 532.20472 
L 391.105458 531.84302 
L 379.325458 531.585255 
L 367.54675 531.480445 
L 355.768042 531.425171 
L 343.989333 531.327216 
L 332.209333 531.226464 
L 320.430625 531.267892 
L 308.651917 531.449069 
L 296.873208 531.6387 
L 285.093208 531.588594 
L 273.3145 531.563684 
L 261.535792 531.48943 
L 249.757083 531.492826 
L 237.977083 531.358486 
L 226.198375 531.355421 
L 214.419667 531.506951 
L 202.639667 531.85628 
L 190.860958 532.32649 
L 179.08225 532.724992 
L 167.303542 533.471308 
L 155.523542 534.45647 
L 143.744833 536.013423 
L 131.966125 537.531907 
z
" style="fill:#f69f9e;fill-opacity:0.5;stroke:#f69f9e;stroke-opacity:0.5;"/>
   </g>
   <g id="PolyCollection_5">
    <path clip-path="url(#p04250a08a0)" d="M 131.966125 536.435332 
L 131.966125 537.134588 
L 143.744833 535.338552 
L 155.523542 533.779453 
L 167.303542 532.559093 
L 179.08225 531.829572 
L 190.860958 531.28863 
L 202.639667 531.094413 
L 214.419667 530.642623 
L 226.198375 530.525882 
L 237.977083 530.253872 
L 249.757083 530.344376 
L 261.535792 530.244886 
L 273.3145 530.418442 
L 285.093208 530.517553 
L 296.873208 530.724379 
L 308.651917 530.715111 
L 320.430625 530.793267 
L 332.209333 530.753873 
L 343.989333 530.827678 
L 355.768042 530.954324 
L 367.54675 531.375029 
L 379.325458 531.767813 
L 391.105458 532.310112 
L 402.884167 533.069265 
L 414.662875 534.263448 
L 426.441583 535.508146 
L 438.221583 536.551918 
L 450.000292 537.516596 
L 461.779 538.417353 
L 473.557708 539.334785 
L 485.337708 540.102745 
L 497.116417 540.637864 
L 508.895125 541.022689 
L 520.675125 541.330426 
L 532.453833 541.825132 
L 544.232542 542.291149 
L 556.01125 542.711536 
L 567.79125 542.925221 
L 579.569958 543.283089 
L 591.348667 543.640489 
L 603.127375 544.115653 
L 614.907375 544.344243 
L 626.686083 544.510102 
L 638.464792 544.586943 
L 650.2435 544.651234 
L 662.0235 544.813677 
L 673.802208 544.946402 
L 685.580917 545.187967 
L 697.359625 545.28286 
L 709.139625 545.385013 
L 720.918333 545.476574 
L 732.697042 545.619002 
L 744.477042 545.906539 
L 756.25575 546.220901 
L 768.034458 546.533411 
L 779.814458 546.668435 
L 791.593167 546.682033 
L 803.371875 546.698145 
L 815.150583 546.672071 
L 826.930583 546.706182 
L 838.709292 546.813936 
L 850.488 547.01595 
L 862.266708 547.319498 
L 874.046708 547.553769 
L 885.825417 547.580279 
L 897.604125 547.556097 
L 909.384125 547.566944 
L 921.162833 547.798536 
L 932.941542 547.999628 
L 944.72025 548.219352 
L 956.498958 548.200928 
L 968.278958 548.357355 
L 980.057667 548.537039 
L 991.836375 548.842086 
L 1003.615083 548.972939 
L 1015.395083 548.961423 
L 1027.173792 549.013377 
L 1038.9525 548.94725 
L 1050.731208 548.913101 
L 1062.511208 548.825631 
L 1074.289917 548.850464 
L 1086.068625 548.98948 
L 1097.847333 549.105633 
L 1109.626042 549.23294 
L 1121.406042 549.238281 
L 1133.18475 549.154226 
L 1144.963458 549.128365 
L 1156.742167 549.009988 
L 1168.522167 549.001343 
L 1180.300875 548.918696 
L 1192.079583 548.949468 
L 1203.858292 549.017574 
L 1215.638292 548.993607 
L 1227.417 549.074611 
L 1239.195708 549.012958 
L 1250.974417 549.122162 
L 1262.754417 549.081073 
L 1274.533125 549.172187 
L 1286.311833 549.115659 
L 1298.090542 549.089076 
L 1309.86925 549.014312 
L 1321.64925 548.956498 
L 1333.427958 548.892813 
L 1345.206667 548.791424 
L 1356.985375 548.806535 
L 1368.764083 548.874863 
L 1380.544083 548.918053 
L 1392.322792 548.831991 
L 1404.1015 548.712151 
L 1415.880208 548.613382 
L 1427.658917 548.579952 
L 1439.438917 548.424875 
L 1451.217625 548.366895 
L 1462.996333 548.313029 
L 1474.775042 548.36381 
L 1486.555042 548.313296 
L 1498.33375 548.152367 
L 1510.112458 548.040649 
L 1521.891167 547.961368 
L 1521.891167 539.916105 
L 1521.891167 539.916105 
L 1510.112458 540.034936 
L 1498.33375 540.353265 
L 1486.555042 540.81808 
L 1474.775042 541.021245 
L 1462.996333 540.943977 
L 1451.217625 541.056815 
L 1439.438917 541.264595 
L 1427.658917 541.578223 
L 1415.880208 541.646264 
L 1404.1015 541.856744 
L 1392.322792 542.297416 
L 1380.544083 542.597913 
L 1368.764083 542.57104 
L 1356.985375 542.470248 
L 1345.206667 542.700384 
L 1333.427958 543.195746 
L 1321.64925 543.598349 
L 1309.86925 543.840119 
L 1298.090542 544.147083 
L 1286.311833 544.386261 
L 1274.533125 544.643812 
L 1262.754417 544.602046 
L 1250.974417 544.773565 
L 1239.195708 544.643586 
L 1227.417 544.862188 
L 1215.638292 544.853801 
L 1203.858292 545.192234 
L 1192.079583 545.4053 
L 1180.300875 545.610024 
L 1168.522167 546.041984 
L 1156.742167 546.241115 
L 1144.963458 546.76781 
L 1133.18475 547.060862 
L 1121.406042 547.469671 
L 1109.626042 547.619972 
L 1097.847333 547.544335 
L 1086.068625 547.457544 
L 1074.289917 547.36704 
L 1062.511208 547.425696 
L 1050.731208 547.756193 
L 1038.9525 547.912909 
L 1027.173792 548.134286 
L 1015.395083 548.123424 
L 1003.615083 548.174724 
L 991.836375 548.090554 
L 980.057667 547.757777 
L 968.278958 547.594389 
L 956.498958 547.429487 
L 944.72025 547.565687 
L 932.941542 547.31429 
L 921.162833 547.087751 
L 909.384125 546.722591 
L 897.604125 546.85907 
L 885.825417 546.994344 
L 874.046708 546.98703 
L 862.266708 546.718773 
L 850.488 546.324097 
L 838.709292 546.098479 
L 826.930583 546.041945 
L 815.150583 546.054313 
L 803.371875 546.086223 
L 791.593167 546.034686 
L 779.814458 546.024124 
L 768.034458 545.92238 
L 756.25575 545.64297 
L 744.477042 545.2881 
L 732.697042 544.860501 
L 720.918333 544.664689 
L 709.139625 544.630618 
L 697.359625 544.563651 
L 685.580917 544.503921 
L 673.802208 544.083502 
L 662.0235 543.921475 
L 650.2435 543.723934 
L 638.464792 543.742321 
L 626.686083 543.698361 
L 614.907375 543.434172 
L 603.127375 543.215801 
L 591.348667 542.548197 
L 579.569958 542.168717 
L 567.79125 541.695481 
L 556.01125 541.674815 
L 544.232542 541.235106 
L 532.453833 540.853107 
L 520.675125 540.328262 
L 508.895125 540.251854 
L 497.116417 539.952952 
L 485.337708 539.405702 
L 473.557708 538.434143 
L 461.779 537.302807 
L 450.000292 536.364988 
L 438.221583 535.300225 
L 426.441583 534.210669 
L 414.662875 532.635895 
L 402.884167 531.247373 
L 391.105458 530.286334 
L 379.325458 529.618217 
L 367.54675 528.96729 
L 355.768042 528.165499 
L 343.989333 527.975648 
L 332.209333 527.83443 
L 320.430625 528.000396 
L 308.651917 527.694408 
L 296.873208 527.764868 
L 285.093208 527.420846 
L 273.3145 527.577942 
L 261.535792 527.248969 
L 249.757083 527.516712 
L 237.977083 527.310048 
L 226.198375 528.02135 
L 214.419667 528.286337 
L 202.639667 529.144019 
L 190.860958 529.389513 
L 179.08225 530.155628 
L 167.303542 530.866042 
L 155.523542 532.271874 
L 143.744833 534.058936 
L 131.966125 536.435332 
z
" style="fill:#389a32;fill-opacity:0.5;stroke:#389a32;stroke-opacity:0.5;"/>
   </g>
   <g id="PolyCollection_6">
    <path clip-path="url(#p04250a08a0)" d="M 131.966125 536.985977 
L 131.966125 537.38364 
L 143.744833 535.477441 
L 155.523542 533.359875 
L 167.303542 531.775938 
L 179.08225 530.962275 
L 190.860958 530.750334 
L 202.639667 530.574205 
L 214.419667 529.913413 
L 226.198375 529.343295 
L 237.977083 528.812455 
L 249.757083 529.143971 
L 261.535792 529.625798 
L 273.3145 530.714127 
L 285.093208 531.480794 
L 296.873208 532.407065 
L 308.651917 532.605239 
L 320.430625 532.652256 
L 332.209333 531.948584 
L 343.989333 531.178133 
L 355.768042 529.982565 
L 367.54675 528.758516 
L 379.325458 527.227165 
L 391.105458 525.316699 
L 402.884167 523.328462 
L 414.662875 521.00009 
L 426.441583 518.930957 
L 438.221583 516.311447 
L 450.000292 513.8457 
L 461.779 510.881989 
L 473.557708 508.070332 
L 485.337708 504.840238 
L 497.116417 501.03284 
L 508.895125 496.767339 
L 520.675125 492.061014 
L 532.453833 487.946022 
L 544.232542 483.657383 
L 556.01125 479.761222 
L 567.79125 475.188585 
L 579.569958 470.804935 
L 591.348667 465.814403 
L 603.127375 461.025072 
L 614.907375 455.886179 
L 626.686083 450.909151 
L 638.464792 445.56722 
L 650.2435 439.907452 
L 662.0235 434.085422 
L 673.802208 428.23733 
L 685.580917 422.495589 
L 697.359625 416.693653 
L 709.139625 410.420882 
L 720.918333 404.19197 
L 732.697042 397.529153 
L 744.477042 391.528177 
L 756.25575 385.337788 
L 768.034458 379.648794 
L 779.814458 373.510553 
L 791.593167 367.544397 
L 803.371875 361.34217 
L 815.150583 355.498988 
L 826.930583 349.445136 
L 838.709292 343.529335 
L 850.488 337.070511 
L 862.266708 330.699907 
L 874.046708 324.037788 
L 885.825417 317.617752 
L 897.604125 311.336391 
L 909.384125 305.469904 
L 921.162833 300.091502 
L 932.941542 294.611614 
L 944.72025 289.293146 
L 956.498958 283.791063 
L 968.278958 278.88055 
L 980.057667 273.814133 
L 991.836375 268.889912 
L 1003.615083 263.512445 
L 1015.395083 258.562417 
L 1027.173792 253.786538 
L 1038.9525 249.472146 
L 1050.731208 244.839142 
L 1062.511208 240.365668 
L 1074.289917 235.752623 
L 1086.068625 231.720583 
L 1097.847333 227.613605 
L 1109.626042 223.980592 
L 1121.406042 220.316699 
L 1133.18475 216.982173 
L 1144.963458 213.380079 
L 1156.742167 209.572207 
L 1168.522167 205.509279 
L 1180.300875 201.988614 
L 1192.079583 198.742164 
L 1203.858292 196.136456 
L 1215.638292 193.226607 
L 1227.417 190.977586 
L 1239.195708 188.374321 
L 1250.974417 186.342998 
L 1262.754417 183.722857 
L 1274.533125 181.675069 
L 1286.311833 179.37798 
L 1298.090542 177.67388 
L 1309.86925 175.65338 
L 1321.64925 173.725823 
L 1333.427958 171.380569 
L 1345.206667 169.292253 
L 1356.985375 167.293704 
L 1368.764083 165.697837 
L 1380.544083 163.88814 
L 1392.322792 162.311686 
L 1404.1015 160.815619 
L 1415.880208 159.644185 
L 1427.658917 158.505037 
L 1439.438917 157.112526 
L 1451.217625 156.104766 
L 1462.996333 155.14754 
L 1474.775042 154.651758 
L 1486.555042 154.066166 
L 1498.33375 153.487743 
L 1510.112458 153.094745 
L 1521.891167 152.686716 
L 1521.891167 142.259567 
L 1521.891167 142.259567 
L 1510.112458 142.728545 
L 1498.33375 143.149735 
L 1486.555042 143.634347 
L 1474.775042 144.157699 
L 1462.996333 144.570334 
L 1451.217625 145.463769 
L 1439.438917 146.347737 
L 1427.658917 147.569335 
L 1415.880208 148.520021 
L 1404.1015 149.496409 
L 1392.322792 150.778745 
L 1380.544083 152.236789 
L 1368.764083 153.981029 
L 1356.985375 155.542868 
L 1345.206667 157.364013 
L 1333.427958 159.252435 
L 1321.64925 161.345378 
L 1309.86925 163.165037 
L 1298.090542 164.947317 
L 1286.311833 166.509648 
L 1274.533125 168.510625 
L 1262.754417 170.425082 
L 1250.974417 172.697342 
L 1239.195708 174.492963 
L 1227.417 176.666129 
L 1215.638292 178.68618 
L 1203.858292 181.18334 
L 1192.079583 183.472446 
L 1180.300875 186.256333 
L 1168.522167 189.37242 
L 1156.742167 192.893316 
L 1144.963458 196.157071 
L 1133.18475 199.124078 
L 1121.406042 201.991424 
L 1109.626042 205.094751 
L 1097.847333 208.400495 
L 1086.068625 212.053711 
L 1074.289917 215.839845 
L 1062.511208 219.98238 
L 1050.731208 224.13644 
L 1038.9525 228.326668 
L 1027.173792 232.371639 
L 1015.395083 236.733072 
L 1003.615083 241.420469 
L 991.836375 246.395559 
L 980.057667 251.099098 
L 968.278958 255.754663 
L 956.498958 260.549223 
L 944.72025 265.85874 
L 932.941542 271.330127 
L 921.162833 276.785055 
L 909.384125 282.075709 
L 897.604125 287.665894 
L 885.825417 293.826934 
L 874.046708 300.569265 
L 862.266708 307.777402 
L 850.488 314.94123 
L 838.709292 322.009589 
L 826.930583 328.52894 
L 815.150583 335.023794 
L 803.371875 341.43698 
L 791.593167 348.290817 
L 779.814458 355.030402 
L 768.034458 361.924062 
L 756.25575 368.312651 
L 744.477042 374.878743 
L 732.697042 381.117226 
L 720.918333 388.054074 
L 709.139625 395.130075 
L 697.359625 402.722729 
L 685.580917 410.080745 
L 673.802208 417.252524 
L 662.0235 424.255136 
L 650.2435 431.047043 
L 638.464792 437.532507 
L 626.686083 443.574767 
L 614.907375 449.182235 
L 603.127375 454.673741 
L 591.348667 459.860075 
L 579.569958 465.014329 
L 567.79125 469.777654 
L 556.01125 474.523527 
L 544.232542 478.807941 
L 532.453833 483.149255 
L 520.675125 487.275241 
L 508.895125 491.674819 
L 497.116417 495.814583 
L 485.337708 499.738385 
L 473.557708 503.323828 
L 461.779 506.643979 
L 450.000292 509.901467 
L 438.221583 512.763001 
L 426.441583 515.560162 
L 414.662875 517.936469 
L 402.884167 520.32896 
L 391.105458 522.452755 
L 379.325458 524.485201 
L 367.54675 526.217867 
L 355.768042 527.675578 
L 343.989333 528.975739 
L 332.209333 529.944807 
L 320.430625 530.743886 
L 308.651917 530.933446 
L 296.873208 530.836868 
L 285.093208 530.088852 
L 273.3145 529.2972 
L 261.535792 528.295688 
L 249.757083 527.777291 
L 237.977083 527.512055 
L 226.198375 527.894463 
L 214.419667 528.3898 
L 202.639667 528.94184 
L 190.860958 529.195759 
L 179.08225 529.556412 
L 167.303542 530.586157 
L 155.523542 532.394285 
L 143.744833 534.755983 
L 131.966125 536.985977 
z
" style="fill:#2677ad;fill-opacity:0.5;stroke:#2677ad;stroke-opacity:0.5;"/>
   </g>
   <g id="matplotlib.axis_1">
    <g id="xtick_1">
     <g id="line2d_1">
      <defs>
       <path d="M 0 0 
L 0 10 
" id="mbfbde1409d" style="stroke:#000000;stroke-width:3;"/>
      </defs>
      <g>
       <use style="stroke:#000000;stroke-width:3;" x="84.85" xlink:href="#mbfbde1409d" y="560.8"/>
      </g>
     </g>
     <g id="text_1">
      <!-- 0 -->
      <defs>
       <path d="M 31.78125 66.40625 
Q 24.171875 66.40625 20.328125 58.90625 
Q 16.5 51.421875 16.5 36.375 
Q 16.5 21.390625 20.328125 13.890625 
Q 24.171875 6.390625 31.78125 6.390625 
Q 39.453125 6.390625 43.28125 13.890625 
Q 47.125 21.390625 47.125 36.375 
Q 47.125 51.421875 43.28125 58.90625 
Q 39.453125 66.40625 31.78125 66.40625 
z
M 31.78125 74.21875 
Q 44.046875 74.21875 50.515625 64.515625 
Q 56.984375 54.828125 56.984375 36.375 
Q 56.984375 17.96875 50.515625 8.265625 
Q 44.046875 -1.421875 31.78125 -1.421875 
Q 19.53125 -1.421875 13.0625 8.265625 
Q 6.59375 17.96875 6.59375 36.375 
Q 6.59375 54.828125 13.0625 64.515625 
Q 19.53125 74.21875 31.78125 74.21875 
z
" id="DejaVuSans-30"/>
      </defs>
      <g transform="translate(77.85125 591.016562)scale(0.22 -0.22)">
       <use xlink:href="#DejaVuSans-30"/>
      </g>
     </g>
    </g>
    <g id="xtick_2">
     <g id="line2d_2">
      <g>
       <use style="stroke:#000000;stroke-width:3;" x="317.35" xlink:href="#mbfbde1409d" y="560.8"/>
      </g>
     </g>
     <g id="text_2">
      <!-- 5 -->
      <defs>
       <path d="M 10.796875 72.90625 
L 49.515625 72.90625 
L 49.515625 64.59375 
L 19.828125 64.59375 
L 19.828125 46.734375 
Q 21.96875 47.46875 24.109375 47.828125 
Q 26.265625 48.1875 28.421875 48.1875 
Q 40.625 48.1875 47.75 41.5 
Q 54.890625 34.8125 54.890625 23.390625 
Q 54.890625 11.625 47.5625 5.09375 
Q 40.234375 -1.421875 26.90625 -1.421875 
Q 22.3125 -1.421875 17.546875 -0.640625 
Q 12.796875 0.140625 7.71875 1.703125 
L 7.71875 11.625 
Q 12.109375 9.234375 16.796875 8.0625 
Q 21.484375 6.890625 26.703125 6.890625 
Q 35.15625 6.890625 40.078125 11.328125 
Q 45.015625 15.765625 45.015625 23.390625 
Q 45.015625 31 40.078125 35.4375 
Q 35.15625 39.890625 26.703125 39.890625 
Q 22.75 39.890625 18.8125 39.015625 
Q 14.890625 38.140625 10.796875 36.28125 
z
" id="DejaVuSans-35"/>
      </defs>
      <g transform="translate(310.35125 591.016562)scale(0.22 -0.22)">
       <use xlink:href="#DejaVuSans-35"/>
      </g>
     </g>
    </g>
    <g id="xtick_3">
     <g id="line2d_3">
      <g>
       <use style="stroke:#000000;stroke-width:3;" x="549.85" xlink:href="#mbfbde1409d" y="560.8"/>
      </g>
     </g>
     <g id="text_3">
      <!-- 10 -->
      <defs>
       <path d="M 12.40625 8.296875 
L 28.515625 8.296875 
L 28.515625 63.921875 
L 10.984375 60.40625 
L 10.984375 69.390625 
L 28.421875 72.90625 
L 38.28125 72.90625 
L 38.28125 8.296875 
L 54.390625 8.296875 
L 54.390625 0 
L 12.40625 0 
z
" id="DejaVuSans-31"/>
      </defs>
      <g transform="translate(535.8525 591.016562)scale(0.22 -0.22)">
       <use xlink:href="#DejaVuSans-31"/>
       <use x="63.623047" xlink:href="#DejaVuSans-30"/>
      </g>
     </g>
    </g>
    <g id="xtick_4">
     <g id="line2d_4">
      <g>
       <use style="stroke:#000000;stroke-width:3;" x="782.35" xlink:href="#mbfbde1409d" y="560.8"/>
      </g>
     </g>
     <g id="text_4">
      <!-- 15 -->
      <g transform="translate(768.3525 591.016562)scale(0.22 -0.22)">
       <use xlink:href="#DejaVuSans-31"/>
       <use x="63.623047" xlink:href="#DejaVuSans-35"/>
      </g>
     </g>
    </g>
    <g id="xtick_5">
     <g id="line2d_5">
      <g>
       <use style="stroke:#000000;stroke-width:3;" x="1014.85" xlink:href="#mbfbde1409d" y="560.8"/>
      </g>
     </g>
     <g id="text_5">
      <!-- 20 -->
      <defs>
       <path d="M 19.1875 8.296875 
L 53.609375 8.296875 
L 53.609375 0 
L 7.328125 0 
L 7.328125 8.296875 
Q 12.9375 14.109375 22.625 23.890625 
Q 32.328125 33.6875 34.8125 36.53125 
Q 39.546875 41.84375 41.421875 45.53125 
Q 43.3125 49.21875 43.3125 52.78125 
Q 43.3125 58.59375 39.234375 62.25 
Q 35.15625 65.921875 28.609375 65.921875 
Q 23.96875 65.921875 18.8125 64.3125 
Q 13.671875 62.703125 7.8125 59.421875 
L 7.8125 69.390625 
Q 13.765625 71.78125 18.9375 73 
Q 24.125 74.21875 28.421875 74.21875 
Q 39.75 74.21875 46.484375 68.546875 
Q 53.21875 62.890625 53.21875 53.421875 
Q 53.21875 48.921875 51.53125 44.890625 
Q 49.859375 40.875 45.40625 35.40625 
Q 44.1875 33.984375 37.640625 27.21875 
Q 31.109375 20.453125 19.1875 8.296875 
z
" id="DejaVuSans-32"/>
      </defs>
      <g transform="translate(1000.8525 591.016562)scale(0.22 -0.22)">
       <use xlink:href="#DejaVuSans-32"/>
       <use x="63.623047" xlink:href="#DejaVuSans-30"/>
      </g>
     </g>
    </g>
    <g id="text_6">
     <!-- Hours -->
     <defs>
      <path d="M 9.8125 72.90625 
L 19.671875 72.90625 
L 19.671875 43.015625 
L 55.515625 43.015625 
L 55.515625 72.90625 
L 65.375 72.90625 
L 65.375 0 
L 55.515625 0 
L 55.515625 34.71875 
L 19.671875 34.71875 
L 19.671875 0 
L 9.8125 0 
z
" id="DejaVuSans-48"/>
      <path d="M 30.609375 48.390625 
Q 23.390625 48.390625 19.1875 42.75 
Q 14.984375 37.109375 14.984375 27.296875 
Q 14.984375 17.484375 19.15625 11.84375 
Q 23.34375 6.203125 30.609375 6.203125 
Q 37.796875 6.203125 41.984375 11.859375 
Q 46.1875 17.53125 46.1875 27.296875 
Q 46.1875 37.015625 41.984375 42.703125 
Q 37.796875 48.390625 30.609375 48.390625 
z
M 30.609375 56 
Q 42.328125 56 49.015625 48.375 
Q 55.71875 40.765625 55.71875 27.296875 
Q 55.71875 13.875 49.015625 6.21875 
Q 42.328125 -1.421875 30.609375 -1.421875 
Q 18.84375 -1.421875 12.171875 6.21875 
Q 5.515625 13.875 5.515625 27.296875 
Q 5.515625 40.765625 12.171875 48.375 
Q 18.84375 56 30.609375 56 
z
" id="DejaVuSans-6f"/>
      <path d="M 8.5 21.578125 
L 8.5 54.6875 
L 17.484375 54.6875 
L 17.484375 21.921875 
Q 17.484375 14.15625 20.5 10.265625 
Q 23.53125 6.390625 29.59375 6.390625 
Q 36.859375 6.390625 41.078125 11.03125 
Q 45.3125 15.671875 45.3125 23.6875 
L 45.3125 54.6875 
L 54.296875 54.6875 
L 54.296875 0 
L 45.3125 0 
L 45.3125 8.40625 
Q 42.046875 3.421875 37.71875 1 
Q 33.40625 -1.421875 27.6875 -1.421875 
Q 18.265625 -1.421875 13.375 4.4375 
Q 8.5 10.296875 8.5 21.578125 
z
M 31.109375 56 
z
" id="DejaVuSans-75"/>
      <path d="M 41.109375 46.296875 
Q 39.59375 47.171875 37.8125 47.578125 
Q 36.03125 48 33.890625 48 
Q 26.265625 48 22.1875 43.046875 
Q 18.109375 38.09375 18.109375 28.8125 
L 18.109375 0 
L 9.078125 0 
L 9.078125 54.6875 
L 18.109375 54.6875 
L 18.109375 46.1875 
Q 20.953125 51.171875 25.484375 53.578125 
Q 30.03125 56 36.53125 56 
Q 37.453125 56 38.578125 55.875 
Q 39.703125 55.765625 41.0625 55.515625 
z
" id="DejaVuSans-72"/>
      <path d="M 44.28125 53.078125 
L 44.28125 44.578125 
Q 40.484375 46.53125 36.375 47.5 
Q 32.28125 48.484375 27.875 48.484375 
Q 21.1875 48.484375 17.84375 46.4375 
Q 14.5 44.390625 14.5 40.28125 
Q 14.5 37.15625 16.890625 35.375 
Q 19.28125 33.59375 26.515625 31.984375 
L 29.59375 31.296875 
Q 39.15625 29.25 43.1875 25.515625 
Q 47.21875 21.78125 47.21875 15.09375 
Q 47.21875 7.46875 41.1875 3.015625 
Q 35.15625 -1.421875 24.609375 -1.421875 
Q 20.21875 -1.421875 15.453125 -0.5625 
Q 10.6875 0.296875 5.421875 2 
L 5.421875 11.28125 
Q 10.40625 8.6875 15.234375 7.390625 
Q 20.0625 6.109375 24.8125 6.109375 
Q 31.15625 6.109375 34.5625 8.28125 
Q 37.984375 10.453125 37.984375 14.40625 
Q 37.984375 18.0625 35.515625 20.015625 
Q 33.0625 21.96875 24.703125 23.78125 
L 21.578125 24.515625 
Q 13.234375 26.265625 9.515625 29.90625 
Q 5.8125 33.546875 5.8125 39.890625 
Q 5.8125 47.609375 11.28125 51.796875 
Q 16.75 56 26.8125 56 
Q 31.78125 56 36.171875 55.265625 
Q 40.578125 54.546875 44.28125 53.078125 
z
" id="DejaVuSans-73"/>
     </defs>
     <g transform="translate(604.764063 619.347812)scale(0.26 -0.26)">
      <use xlink:href="#DejaVuSans-48"/>
      <use x="75.195312" xlink:href="#DejaVuSans-6f"/>
      <use x="136.376953" xlink:href="#DejaVuSans-75"/>
      <use x="199.755859" xlink:href="#DejaVuSans-72"/>
      <use x="240.869141" xlink:href="#DejaVuSans-73"/>
     </g>
    </g>
   </g>
   <g id="matplotlib.axis_2">
    <g id="ytick_1">
     <g id="line2d_6">
      <defs>
       <path d="M 0 0 
L -10 0 
" id="me9d4b85762" style="stroke:#000000;stroke-width:3;"/>
      </defs>
      <g>
       <use style="stroke:#000000;stroke-width:3;" x="84.85" xlink:href="#me9d4b85762" y="539.056"/>
      </g>
     </g>
     <g id="text_7">
      <!-- 0.0 -->
      <defs>
       <path d="M 10.6875 12.40625 
L 21 12.40625 
L 21 0 
L 10.6875 0 
z
" id="DejaVuSans-2e"/>
      </defs>
      <g transform="translate(36.363125 547.414281)scale(0.22 -0.22)">
       <use xlink:href="#DejaVuSans-30"/>
       <use x="63.623047" xlink:href="#DejaVuSans-2e"/>
       <use x="95.410156" xlink:href="#DejaVuSans-30"/>
      </g>
     </g>
    </g>
    <g id="ytick_2">
     <g id="line2d_7">
      <g>
       <use style="stroke:#000000;stroke-width:3;" x="84.85" xlink:href="#me9d4b85762" y="321.616"/>
      </g>
     </g>
     <g id="text_8">
      <!-- 0.5 -->
      <g transform="translate(36.363125 329.974281)scale(0.22 -0.22)">
       <use xlink:href="#DejaVuSans-30"/>
       <use x="63.623047" xlink:href="#DejaVuSans-2e"/>
       <use x="95.410156" xlink:href="#DejaVuSans-35"/>
      </g>
     </g>
    </g>
    <g id="ytick_3">
     <g id="line2d_8">
      <g>
       <use style="stroke:#000000;stroke-width:3;" x="84.85" xlink:href="#me9d4b85762" y="104.176"/>
      </g>
     </g>
     <g id="text_9">
      <!-- 1.0 -->
      <g transform="translate(36.363125 112.534281)scale(0.22 -0.22)">
       <use xlink:href="#DejaVuSans-31"/>
       <use x="63.623047" xlink:href="#DejaVuSans-2e"/>
       <use x="95.410156" xlink:href="#DejaVuSans-30"/>
      </g>
     </g>
    </g>
    <g id="text_10">
     <!-- Cell density (OD600) -->
     <defs>
      <path d="M 64.40625 67.28125 
L 64.40625 56.890625 
Q 59.421875 61.53125 53.78125 63.8125 
Q 48.140625 66.109375 41.796875 66.109375 
Q 29.296875 66.109375 22.65625 58.46875 
Q 16.015625 50.828125 16.015625 36.375 
Q 16.015625 21.96875 22.65625 14.328125 
Q 29.296875 6.6875 41.796875 6.6875 
Q 48.140625 6.6875 53.78125 8.984375 
Q 59.421875 11.28125 64.40625 15.921875 
L 64.40625 5.609375 
Q 59.234375 2.09375 53.4375 0.328125 
Q 47.65625 -1.421875 41.21875 -1.421875 
Q 24.65625 -1.421875 15.125 8.703125 
Q 5.609375 18.84375 5.609375 36.375 
Q 5.609375 53.953125 15.125 64.078125 
Q 24.65625 74.21875 41.21875 74.21875 
Q 47.75 74.21875 53.53125 72.484375 
Q 59.328125 70.75 64.40625 67.28125 
z
" id="DejaVuSans-43"/>
      <path d="M 56.203125 29.59375 
L 56.203125 25.203125 
L 14.890625 25.203125 
Q 15.484375 15.921875 20.484375 11.0625 
Q 25.484375 6.203125 34.421875 6.203125 
Q 39.59375 6.203125 44.453125 7.46875 
Q 49.3125 8.734375 54.109375 11.28125 
L 54.109375 2.78125 
Q 49.265625 0.734375 44.1875 -0.34375 
Q 39.109375 -1.421875 33.890625 -1.421875 
Q 20.796875 -1.421875 13.15625 6.1875 
Q 5.515625 13.8125 5.515625 26.8125 
Q 5.515625 40.234375 12.765625 48.109375 
Q 20.015625 56 32.328125 56 
Q 43.359375 56 49.78125 48.890625 
Q 56.203125 41.796875 56.203125 29.59375 
z
M 47.21875 32.234375 
Q 47.125 39.59375 43.09375 43.984375 
Q 39.0625 48.390625 32.421875 48.390625 
Q 24.90625 48.390625 20.390625 44.140625 
Q 15.875 39.890625 15.1875 32.171875 
z
" id="DejaVuSans-65"/>
      <path d="M 9.421875 75.984375 
L 18.40625 75.984375 
L 18.40625 0 
L 9.421875 0 
z
" id="DejaVuSans-6c"/>
      <path id="DejaVuSans-20"/>
      <path d="M 45.40625 46.390625 
L 45.40625 75.984375 
L 54.390625 75.984375 
L 54.390625 0 
L 45.40625 0 
L 45.40625 8.203125 
Q 42.578125 3.328125 38.25 0.953125 
Q 33.9375 -1.421875 27.875 -1.421875 
Q 17.96875 -1.421875 11.734375 6.484375 
Q 5.515625 14.40625 5.515625 27.296875 
Q 5.515625 40.1875 11.734375 48.09375 
Q 17.96875 56 27.875 56 
Q 33.9375 56 38.25 53.625 
Q 42.578125 51.265625 45.40625 46.390625 
z
M 14.796875 27.296875 
Q 14.796875 17.390625 18.875 11.75 
Q 22.953125 6.109375 30.078125 6.109375 
Q 37.203125 6.109375 41.296875 11.75 
Q 45.40625 17.390625 45.40625 27.296875 
Q 45.40625 37.203125 41.296875 42.84375 
Q 37.203125 48.484375 30.078125 48.484375 
Q 22.953125 48.484375 18.875 42.84375 
Q 14.796875 37.203125 14.796875 27.296875 
z
" id="DejaVuSans-64"/>
      <path d="M 54.890625 33.015625 
L 54.890625 0 
L 45.90625 0 
L 45.90625 32.71875 
Q 45.90625 40.484375 42.875 44.328125 
Q 39.84375 48.1875 33.796875 48.1875 
Q 26.515625 48.1875 22.3125 43.546875 
Q 18.109375 38.921875 18.109375 30.90625 
L 18.109375 0 
L 9.078125 0 
L 9.078125 54.6875 
L 18.109375 54.6875 
L 18.109375 46.1875 
Q 21.34375 51.125 25.703125 53.5625 
Q 30.078125 56 35.796875 56 
Q 45.21875 56 50.046875 50.171875 
Q 54.890625 44.34375 54.890625 33.015625 
z
" id="DejaVuSans-6e"/>
      <path d="M 9.421875 54.6875 
L 18.40625 54.6875 
L 18.40625 0 
L 9.421875 0 
z
M 9.421875 75.984375 
L 18.40625 75.984375 
L 18.40625 64.59375 
L 9.421875 64.59375 
z
" id="DejaVuSans-69"/>
      <path d="M 18.3125 70.21875 
L 18.3125 54.6875 
L 36.8125 54.6875 
L 36.8125 47.703125 
L 18.3125 47.703125 
L 18.3125 18.015625 
Q 18.3125 11.328125 20.140625 9.421875 
Q 21.96875 7.515625 27.59375 7.515625 
L 36.8125 7.515625 
L 36.8125 0 
L 27.59375 0 
Q 17.1875 0 13.234375 3.875 
Q 9.28125 7.765625 9.28125 18.015625 
L 9.28125 47.703125 
L 2.6875 47.703125 
L 2.6875 54.6875 
L 9.28125 54.6875 
L 9.28125 70.21875 
z
" id="DejaVuSans-74"/>
      <path d="M 32.171875 -5.078125 
Q 28.375 -14.84375 24.75 -17.8125 
Q 21.140625 -20.796875 15.09375 -20.796875 
L 7.90625 -20.796875 
L 7.90625 -13.28125 
L 13.1875 -13.28125 
Q 16.890625 -13.28125 18.9375 -11.515625 
Q 21 -9.765625 23.484375 -3.21875 
L 25.09375 0.875 
L 2.984375 54.6875 
L 12.5 54.6875 
L 29.59375 11.921875 
L 46.6875 54.6875 
L 56.203125 54.6875 
z
" id="DejaVuSans-79"/>
      <path d="M 31 75.875 
Q 24.46875 64.65625 21.28125 53.65625 
Q 18.109375 42.671875 18.109375 31.390625 
Q 18.109375 20.125 21.3125 9.0625 
Q 24.515625 -2 31 -13.1875 
L 23.1875 -13.1875 
Q 15.875 -1.703125 12.234375 9.375 
Q 8.59375 20.453125 8.59375 31.390625 
Q 8.59375 42.28125 12.203125 53.3125 
Q 15.828125 64.359375 23.1875 75.875 
z
" id="DejaVuSans-28"/>
      <path d="M 39.40625 66.21875 
Q 28.65625 66.21875 22.328125 58.203125 
Q 16.015625 50.203125 16.015625 36.375 
Q 16.015625 22.609375 22.328125 14.59375 
Q 28.65625 6.59375 39.40625 6.59375 
Q 50.140625 6.59375 56.421875 14.59375 
Q 62.703125 22.609375 62.703125 36.375 
Q 62.703125 50.203125 56.421875 58.203125 
Q 50.140625 66.21875 39.40625 66.21875 
z
M 39.40625 74.21875 
Q 54.734375 74.21875 63.90625 63.9375 
Q 73.09375 53.65625 73.09375 36.375 
Q 73.09375 19.140625 63.90625 8.859375 
Q 54.734375 -1.421875 39.40625 -1.421875 
Q 24.03125 -1.421875 14.8125 8.828125 
Q 5.609375 19.09375 5.609375 36.375 
Q 5.609375 53.65625 14.8125 63.9375 
Q 24.03125 74.21875 39.40625 74.21875 
z
" id="DejaVuSans-4f"/>
      <path d="M 19.671875 64.796875 
L 19.671875 8.109375 
L 31.59375 8.109375 
Q 46.6875 8.109375 53.6875 14.9375 
Q 60.6875 21.78125 60.6875 36.53125 
Q 60.6875 51.171875 53.6875 57.984375 
Q 46.6875 64.796875 31.59375 64.796875 
z
M 9.8125 72.90625 
L 30.078125 72.90625 
Q 51.265625 72.90625 61.171875 64.09375 
Q 71.09375 55.28125 71.09375 36.53125 
Q 71.09375 17.671875 61.125 8.828125 
Q 51.171875 0 30.078125 0 
L 9.8125 0 
z
" id="DejaVuSans-44"/>
      <path d="M 33.015625 40.375 
Q 26.375 40.375 22.484375 35.828125 
Q 18.609375 31.296875 18.609375 23.390625 
Q 18.609375 15.53125 22.484375 10.953125 
Q 26.375 6.390625 33.015625 6.390625 
Q 39.65625 6.390625 43.53125 10.953125 
Q 47.40625 15.53125 47.40625 23.390625 
Q 47.40625 31.296875 43.53125 35.828125 
Q 39.65625 40.375 33.015625 40.375 
z
M 52.59375 71.296875 
L 52.59375 62.3125 
Q 48.875 64.0625 45.09375 64.984375 
Q 41.3125 65.921875 37.59375 65.921875 
Q 27.828125 65.921875 22.671875 59.328125 
Q 17.53125 52.734375 16.796875 39.40625 
Q 19.671875 43.65625 24.015625 45.921875 
Q 28.375 48.1875 33.59375 48.1875 
Q 44.578125 48.1875 50.953125 41.515625 
Q 57.328125 34.859375 57.328125 23.390625 
Q 57.328125 12.15625 50.6875 5.359375 
Q 44.046875 -1.421875 33.015625 -1.421875 
Q 20.359375 -1.421875 13.671875 8.265625 
Q 6.984375 17.96875 6.984375 36.375 
Q 6.984375 53.65625 15.1875 63.9375 
Q 23.390625 74.21875 37.203125 74.21875 
Q 40.921875 74.21875 44.703125 73.484375 
Q 48.484375 72.75 52.59375 71.296875 
z
" id="DejaVuSans-36"/>
      <path d="M 8.015625 75.875 
L 15.828125 75.875 
Q 23.140625 64.359375 26.78125 53.3125 
Q 30.421875 42.28125 30.421875 31.390625 
Q 30.421875 20.453125 26.78125 9.375 
Q 23.140625 -1.703125 15.828125 -13.1875 
L 8.015625 -13.1875 
Q 14.5 -2 17.703125 9.0625 
Q 20.90625 20.125 20.90625 31.390625 
Q 20.90625 42.671875 17.703125 53.65625 
Q 14.5 64.65625 8.015625 75.875 
z
" id="DejaVuSans-29"/>
     </defs>
     <g transform="translate(26.955938 424.429531)rotate(-90)scale(0.26 -0.26)">
      <use xlink:href="#DejaVuSans-43"/>
      <use x="69.824219" xlink:href="#DejaVuSans-65"/>
      <use x="131.347656" xlink:href="#DejaVuSans-6c"/>
      <use x="159.130859" xlink:href="#DejaVuSans-6c"/>
      <use x="186.914062" xlink:href="#DejaVuSans-20"/>
      <use x="218.701172" xlink:href="#DejaVuSans-64"/>
      <use x="282.177734" xlink:href="#DejaVuSans-65"/>
      <use x="343.701172" xlink:href="#DejaVuSans-6e"/>
      <use x="407.080078" xlink:href="#DejaVuSans-73"/>
      <use x="459.179688" xlink:href="#DejaVuSans-69"/>
      <use x="486.962891" xlink:href="#DejaVuSans-74"/>
      <use x="526.171875" xlink:href="#DejaVuSans-79"/>
      <use x="585.351562" xlink:href="#DejaVuSans-20"/>
      <use x="617.138672" xlink:href="#DejaVuSans-28"/>
      <use x="656.152344" xlink:href="#DejaVuSans-4f"/>
      <use x="734.863281" xlink:href="#DejaVuSans-44"/>
      <use x="811.865234" xlink:href="#DejaVuSans-36"/>
      <use x="875.488281" xlink:href="#DejaVuSans-30"/>
      <use x="939.111328" xlink:href="#DejaVuSans-30"/>
      <use x="1002.734375" xlink:href="#DejaVuSans-29"/>
     </g>
    </g>
   </g>
   <g id="line2d_9">
    <path clip-path="url(#p04250a08a0)" d="M 131.966125 535.399384 
L 143.744833 530.323368 
L 155.523542 523.658832 
L 167.303542 513.435527 
L 179.08225 499.829823 
L 190.860958 480.476455 
L 202.639667 456.402223 
L 214.419667 428.440647 
L 226.198375 399.905272 
L 237.977083 373.21572 
L 249.757083 350.000376 
L 261.535792 330.419904 
L 273.3145 314.250824 
L 285.093208 300.367281 
L 296.873208 288.396001 
L 308.651917 276.360697 
L 320.430625 264.213047 
L 332.209333 251.405831 
L 343.989333 239.352405 
L 355.768042 228.014118 
L 367.54675 217.79927 
L 379.325458 207.84656 
L 391.105458 198.207929 
L 402.884167 188.205689 
L 414.662875 178.643163 
L 426.441583 169.411631 
L 438.221583 160.954425 
L 450.000292 152.907936 
L 461.779 145.628522 
L 473.557708 139.169344 
L 485.337708 133.498991 
L 497.116417 128.111315 
L 508.895125 122.947117 
L 520.675125 117.947206 
L 532.453833 113.489685 
L 544.232542 109.295507 
L 556.01125 105.373131 
L 567.79125 101.198282 
L 579.569958 97.170808 
L 591.348667 93.017701 
L 603.127375 89.339341 
L 614.907375 85.682726 
L 626.686083 82.591456 
L 638.464792 79.663264 
L 650.2435 77.022575 
L 662.0235 74.393966 
L 673.802208 71.835421 
L 685.580917 69.66223 
L 697.359625 67.672655 
L 709.139625 65.983874 
L 720.918333 64.281802 
L 732.697042 62.63409 
L 744.477042 60.956178 
L 756.25575 59.221493 
L 768.034458 57.564118 
L 779.814458 55.967141 
L 791.593167 54.586392 
L 803.371875 53.308326 
L 815.150583 52.128113 
L 826.930583 50.945487 
L 838.709292 49.882449 
L 850.488 49.010271 
L 862.266708 48.255266 
L 874.046708 47.601736 
L 885.825417 46.907136 
L 897.604125 46.299512 
L 909.384125 45.653232 
L 921.162833 45.054062 
L 932.941542 44.599854 
L 944.72025 44.352211 
L 956.498958 44.35825 
L 968.278958 44.510457 
L 980.057667 44.779844 
L 991.836375 45.163993 
L 1003.615083 45.490155 
L 1015.395083 45.932283 
L 1027.173792 46.311593 
L 1038.9525 46.840697 
L 1050.731208 47.270744 
L 1062.511208 47.780521 
L 1074.289917 48.208152 
L 1086.068625 48.748127 
L 1097.847333 49.280853 
L 1109.626042 49.950086 
L 1121.406042 50.670057 
L 1133.18475 51.462507 
L 1144.963458 52.145025 
L 1156.742167 52.63064 
L 1168.522167 52.919349 
L 1180.300875 53.203227 
L 1192.079583 53.511267 
L 1203.858292 53.952189 
L 1215.638292 54.439018 
L 1219.05 54.632861 
" style="fill:none;stroke:#c9b4d4;stroke-linecap:square;stroke-width:2;"/>
   </g>
   <g id="line2d_10">
    <path clip-path="url(#p04250a08a0)" d="M 131.966125 537.390168 
L 143.744833 535.738832 
L 155.523542 534.100784 
L 167.303542 532.99788 
L 179.08225 532.373344 
L 190.860958 531.94692 
L 202.639667 531.661832 
L 214.419667 530.910455 
L 226.198375 530.448999 
L 237.977083 529.636015 
L 249.757083 529.371463 
L 261.535792 528.902759 
L 273.3145 529.210799 
L 285.093208 529.346095 
L 296.873208 529.866743 
L 308.651917 529.831712 
L 320.430625 530.235184 
L 332.209333 530.236392 
L 343.989333 530.54564 
L 355.768042 530.353568 
L 367.54675 530.513024 
L 379.325458 530.67852 
L 391.105458 530.725632 
L 402.884167 530.680936 
L 414.662875 530.175992 
L 426.441583 530.398264 
L 438.221583 530.604831 
L 450.000292 531.655791 
L 461.779 532.337103 
L 473.557708 533.152504 
L 485.337708 533.314376 
L 497.116417 533.316792 
L 508.895125 533.337327 
L 520.675125 533.604295 
L 532.453833 534.244535 
L 544.232542 534.73136 
L 556.01125 535.508104 
L 567.79125 536.031167 
L 579.569958 536.916632 
L 591.348667 537.344264 
L 603.127375 538.052152 
L 614.907375 538.36744 
L 626.686083 538.8144 
L 638.464792 538.985936 
L 650.2435 539.04996 
L 662.0235 539.313304 
L 673.802208 539.586312 
L 685.580917 540.068304 
L 697.359625 540.381176 
L 709.139625 540.527344 
L 720.918333 540.817264 
L 732.697042 541.054032 
L 744.477042 541.625416 
L 756.25575 542.065128 
L 768.034458 542.435983 
L 779.814458 542.637719 
L 791.593167 542.681207 
L 803.371875 542.692079 
L 815.150583 542.658255 
L 826.930583 542.611143 
L 838.709292 542.879319 
L 850.488 543.157159 
L 862.266708 543.677807 
L 874.046708 543.93632 
L 885.825417 543.89404 
L 897.604125 543.631904 
L 909.384125 543.368559 
L 921.162833 543.733375 
L 932.941542 544.017255 
L 944.72025 544.341 
L 956.498958 544.203288 
L 968.278958 544.43764 
L 980.057667 544.69132 
L 991.836375 545.052512 
L 1003.615083 545.164856 
L 1015.395083 545.312232 
L 1027.173792 545.652888 
L 1038.9525 545.837712 
L 1050.731208 545.8208 
L 1062.511208 545.64564 
L 1074.289917 545.582824 
L 1086.068625 545.80872 
L 1097.847333 545.960928 
L 1109.626042 546.105888 
L 1121.406042 546.005624 
L 1133.18475 545.79664 
L 1144.963458 545.892072 
L 1156.742167 545.849792 
L 1168.522167 545.956095 
L 1180.300875 545.738655 
L 1192.079583 545.674631 
L 1203.858292 545.728991 
L 1215.638292 545.685504 
L 1219.05 545.783125 
" style="fill:none;stroke:#d92426;stroke-linecap:square;stroke-width:2;"/>
   </g>
   <g id="line2d_11">
    <path clip-path="url(#p04250a08a0)" d="M 131.966125 537.707872 
L 143.744833 536.403232 
L 155.523542 534.899272 
L 167.303542 533.94012 
L 179.08225 533.041369 
L 190.860958 532.649977 
L 202.639667 532.16436 
L 214.419667 531.913096 
L 226.198375 531.748808 
L 237.977083 531.799544 
L 249.757083 531.7476 
L 261.535792 531.637672 
L 273.3145 531.525328 
L 285.093208 531.612304 
L 296.873208 531.537408 
L 308.651917 531.241449 
L 320.430625 530.499737 
L 332.209333 529.423409 
L 343.989333 527.784153 
L 355.768042 525.296881 
L 367.54675 521.362425 
L 379.325458 515.542281 
L 391.105458 507.231241 
L 402.884167 496.077777 
L 414.662875 481.360713 
L 426.441583 463.592241 
L 438.221583 444.78368 
L 450.000292 427.75088 
L 461.779 414.206784 
L 473.557708 403.520816 
L 485.337708 394.39196 
L 497.116417 385.627919 
L 508.895125 376.570335 
L 520.675125 367.342423 
L 532.453833 358.459999 
L 544.232542 350.870137 
L 556.01125 344.640481 
L 567.79125 339.118713 
L 579.569958 333.796264 
L 591.348667 328.226176 
L 603.127375 322.651256 
L 614.907375 316.907217 
L 626.686083 311.285185 
L 638.464792 305.454168 
L 650.2435 299.554296 
L 662.0235 293.613353 
L 673.802208 288.129034 
L 685.580917 283.195562 
L 697.359625 278.578586 
L 709.139625 273.955569 
L 720.918333 269.235912 
L 732.697042 264.35076 
L 744.477042 259.413665 
L 756.25575 254.314697 
L 768.034458 249.255592 
L 779.814458 244.109512 
L 791.593167 239.011752 
L 803.371875 234.002177 
L 815.150583 229.097697 
L 826.930583 224.247576 
L 838.709292 219.294776 
L 850.488 214.383046 
L 862.266708 209.501518 
L 874.046708 204.768572 
L 885.825417 200.231324 
L 897.604125 195.918765 
L 909.384125 191.850223 
L 921.162833 187.682624 
L 932.941542 183.610457 
L 944.72025 179.454937 
L 956.498958 175.700472 
L 968.278958 172.039023 
L 980.057667 168.698903 
L 991.836375 165.444551 
L 1003.615083 162.385897 
L 1015.395083 159.478243 
L 1027.173792 156.699842 
L 1038.9525 154.077274 
L 1050.731208 151.600873 
L 1062.511208 149.17521 
L 1074.289917 146.873968 
L 1086.068625 144.615005 
L 1097.847333 142.654418 
L 1109.626042 140.72162 
L 1121.406042 139.108944 
L 1133.18475 137.658141 
L 1144.963458 136.634965 
L 1156.742167 135.702387 
L 1168.522167 135.082681 
L 1180.300875 134.827789 
L 1192.079583 135.12254 
L 1203.858292 135.585204 
L 1215.638292 136.119145 
L 1219.05 136.293045 
" style="fill:none;stroke:#6a4295;stroke-linecap:square;stroke-width:2;"/>
   </g>
   <g id="line2d_12">
    <path clip-path="url(#p04250a08a0)" d="M 131.966125 537.611232 
L 143.744833 536.18096 
L 155.523542 534.714447 
L 167.303542 533.792744 
L 179.08225 533.095728 
L 190.860958 532.746616 
L 202.639667 532.34556 
L 214.419667 532.06168 
L 226.198375 531.974704 
L 237.977083 532.032688 
L 249.757083 532.207848 
L 261.535792 532.23684 
L 273.3145 532.329857 
L 285.093208 532.376969 
L 296.873208 532.434953 
L 308.651917 532.256168 
L 320.430625 532.076176 
L 332.209333 532.029064 
L 343.989333 532.1402 
L 355.768042 532.263415 
L 367.54675 532.360055 
L 379.325458 532.478439 
L 391.105458 532.703128 
L 402.884167 533.001504 
L 414.662875 533.465376 
L 426.441583 533.92804 
L 438.221583 534.396744 
L 450.000292 534.875112 
L 461.779 535.410256 
L 473.557708 535.893455 
L 485.337708 536.288472 
L 497.116417 536.59168 
L 508.895125 536.916632 
L 520.675125 537.192056 
L 532.453833 537.490433 
L 544.232542 537.769481 
L 556.01125 538.084768 
L 567.79125 538.33724 
L 579.569958 538.59092 
L 591.348667 538.79024 
L 603.127375 539.047544 
L 614.907375 539.301224 
L 626.686083 539.594768 
L 638.464792 539.825496 
L 650.2435 540.038104 
L 662.0235 540.261584 
L 673.802208 540.563584 
L 685.580917 540.86196 
L 697.359625 541.136176 
L 709.139625 541.34516 
L 720.918333 541.584344 
L 732.697042 541.817488 
L 744.477042 542.072376 
L 756.25575 542.27532 
L 768.034458 542.452896 
L 779.814458 542.57128 
L 791.593167 542.702952 
L 803.371875 542.874488 
L 815.150583 543.09676 
L 826.930583 543.331112 
L 838.709292 543.491776 
L 850.488 543.62828 
L 862.266708 543.71284 
L 874.046708 543.83364 
L 885.825417 543.93028 
L 897.604125 544.046248 
L 909.384125 544.132016 
L 921.162833 544.2202 
L 932.941542 544.313216 
L 944.72025 544.432808 
L 956.498958 544.571728 
L 968.278958 544.696152 
L 980.057667 544.819368 
L 991.836375 544.922048 
L 1003.615083 544.988488 
L 1015.395083 545.024729 
L 1027.173792 545.02352 
L 1038.9525 545.064592 
L 1050.731208 545.098416 
L 1062.511208 545.175728 
L 1074.289917 545.236128 
L 1086.068625 545.333976 
L 1097.847333 545.414912 
L 1109.626042 545.475312 
L 1121.406042 545.48256 
L 1133.18475 545.50068 
L 1144.963458 545.54296 
L 1156.742167 545.59128 
L 1168.522167 545.602152 
L 1180.300875 545.59732 
L 1192.079583 545.62752 
L 1203.858292 545.683088 
L 1215.638292 545.741072 
L 1219.05 545.752619 
" style="fill:none;stroke:#f69f9e;stroke-linecap:square;stroke-width:2;"/>
   </g>
   <g id="line2d_13">
    <path clip-path="url(#p04250a08a0)" d="M 131.966125 536.78496 
L 143.744833 534.698744 
L 155.523542 533.025664 
L 167.303542 531.712568 
L 179.08225 530.9926 
L 190.860958 530.339072 
L 202.639667 530.119216 
L 214.419667 529.46448 
L 226.198375 529.273616 
L 237.977083 528.78196 
L 249.757083 528.930544 
L 261.535792 528.746928 
L 273.3145 528.998192 
L 285.093208 528.9692 
L 296.873208 529.244624 
L 308.651917 529.204759 
L 320.430625 529.396831 
L 332.209333 529.294151 
L 343.989333 529.401663 
L 355.768042 529.559911 
L 367.54675 530.171159 
L 379.325458 530.693015 
L 391.105458 531.298223 
L 402.884167 532.158319 
L 414.662875 533.449671 
L 426.441583 534.859408 
L 438.221583 535.926072 
L 450.000292 536.940792 
L 461.779 537.86008 
L 473.557708 538.884464 
L 485.337708 539.754224 
L 497.116417 540.295408 
L 508.895125 540.637272 
L 520.675125 540.829344 
L 532.453833 541.33912 
L 544.232542 541.763127 
L 556.01125 542.193175 
L 567.79125 542.310351 
L 579.569958 542.725903 
L 591.348667 543.094343 
L 603.127375 543.665727 
L 614.907375 543.889207 
L 626.686083 544.104232 
L 638.464792 544.164632 
L 650.2435 544.187584 
L 662.0235 544.367576 
L 673.802208 544.514952 
L 685.580917 544.845944 
L 697.359625 544.923256 
L 709.139625 545.007816 
L 720.918333 545.070632 
L 732.697042 545.239752 
L 744.477042 545.59732 
L 756.25575 545.931936 
L 768.034458 546.227896 
L 779.814458 546.34628 
L 791.593167 546.35836 
L 803.371875 546.392184 
L 815.150583 546.363192 
L 826.930583 546.374064 
L 838.709292 546.456208 
L 850.488 546.670024 
L 862.266708 547.019136 
L 874.046708 547.2704 
L 885.825417 547.287312 
L 897.604125 547.207584 
L 909.384125 547.144768 
L 921.162833 547.443143 
L 932.941542 547.656959 
L 944.72025 547.892519 
L 956.498958 547.815208 
L 968.278958 547.975872 
L 980.057667 548.147408 
L 991.836375 548.46632 
L 1003.615083 548.573832 
L 1015.395083 548.542424 
L 1027.173792 548.573831 
L 1038.9525 548.430079 
L 1050.731208 548.334647 
L 1062.511208 548.125663 
L 1074.289917 548.108752 
L 1086.068625 548.223512 
L 1097.847333 548.324984 
L 1109.626042 548.426456 
L 1121.406042 548.353976 
L 1133.18475 548.107544 
L 1144.963458 547.948088 
L 1156.742167 547.625552 
L 1168.522167 547.521664 
L 1180.300875 547.26436 
L 1192.079583 547.177384 
L 1203.858292 547.104904 
L 1215.638292 546.923704 
L 1219.05 546.93665 
" style="fill:none;stroke:#389a32;stroke-linecap:square;stroke-width:2;"/>
   </g>
   <g id="line2d_14">
    <path clip-path="url(#p04250a08a0)" d="M 131.966125 537.184808 
L 143.744833 535.116712 
L 155.523542 532.87708 
L 167.303542 531.181048 
L 179.08225 530.259343 
L 190.860958 529.973047 
L 202.639667 529.758023 
L 214.419667 529.151607 
L 226.198375 528.618879 
L 237.977083 528.162255 
L 249.757083 528.460631 
L 261.535792 528.960743 
L 273.3145 530.005663 
L 285.093208 530.784823 
L 296.873208 531.621967 
L 308.651917 531.769343 
L 320.430625 531.698071 
L 332.209333 530.946695 
L 343.989333 530.076936 
L 355.768042 528.829072 
L 367.54675 527.488191 
L 379.325458 525.856183 
L 391.105458 523.884727 
L 402.884167 521.828711 
L 414.662875 519.468279 
L 426.441583 517.245559 
L 438.221583 514.537224 
L 450.000292 511.873584 
L 461.779 508.762984 
L 473.557708 505.69708 
L 485.337708 502.289311 
L 497.116417 498.423711 
L 508.895125 494.221079 
L 520.675125 489.668127 
L 532.453833 485.547639 
L 544.232542 481.232662 
L 556.01125 477.142374 
L 567.79125 472.483119 
L 579.569958 467.909632 
L 591.348667 462.837239 
L 603.127375 457.849407 
L 614.907375 452.534207 
L 626.686083 447.241959 
L 638.464792 441.549863 
L 650.2435 435.477247 
L 662.0235 429.170279 
L 673.802208 422.744927 
L 685.580917 416.288167 
L 697.359625 409.708191 
L 709.139625 402.775479 
L 720.918333 396.123022 
L 732.697042 389.32319 
L 744.477042 383.20346 
L 756.25575 376.82522 
L 768.034458 370.786428 
L 779.814458 364.270478 
L 791.593167 357.917607 
L 803.371875 351.389575 
L 815.150583 345.261391 
L 826.930583 338.987038 
L 838.709292 332.769462 
L 850.488 326.00587 
L 862.266708 319.238655 
L 874.046708 312.303526 
L 885.825417 305.722343 
L 897.604125 299.501143 
L 909.384125 293.772807 
L 921.162833 288.438278 
L 932.941542 282.97087 
L 944.72025 277.575943 
L 956.498958 272.170143 
L 968.278958 267.317607 
L 980.057667 262.456615 
L 991.836375 257.642736 
L 1003.615083 252.466457 
L 1015.395083 247.647745 
L 1027.173792 243.079089 
L 1038.9525 238.899407 
L 1050.731208 234.487791 
L 1062.511208 230.174024 
L 1074.289917 225.796234 
L 1086.068625 221.887147 
L 1097.847333 218.00705 
L 1109.626042 214.537671 
L 1121.406042 211.154061 
L 1133.18475 208.053126 
L 1144.963458 204.768575 
L 1156.742167 201.232761 
L 1168.522167 197.440849 
L 1180.300875 194.122474 
L 1192.079583 191.107305 
L 1203.858292 188.659898 
L 1215.638292 185.956394 
L 1219.05 185.338124 
" style="fill:none;stroke:#2677ad;stroke-linecap:square;stroke-width:2;"/>
   </g>
   <g id="patch_3">
    <path d="M 84.85 560.8 
L 84.85 17.2 
" style="fill:none;stroke:#000000;stroke-linecap:square;stroke-linejoin:miter;stroke-width:2;"/>
   </g>
   <g id="patch_4">
    <path d="M 84.85 560.8 
L 1200.85 560.8 
" style="fill:none;stroke:#000000;stroke-linecap:square;stroke-linejoin:miter;stroke-width:2;"/>
   </g>
   <g id="legend_1">
    <g id="patch_5">
     <path d="M 1037.45 468.388 
L 1180.49375 468.388 
Q 1184.49375 468.388 1184.49375 464.388 
L 1184.49375 290.2505 
Q 1184.49375 286.2505 1180.49375 286.2505 
L 1037.45 286.2505 
Q 1033.45 286.2505 1033.45 290.2505 
L 1033.45 464.388 
Q 1033.45 468.388 1037.45 468.388 
z
" style="fill:#ffffff;opacity:0.8;stroke:#cccccc;stroke-linejoin:miter;"/>
    </g>
    <g id="line2d_15">
     <path d="M 1041.45 302.447375 
L 1081.45 302.447375 
" style="fill:none;stroke:#c9b4d4;stroke-linecap:square;stroke-width:2;"/>
    </g>
    <g id="line2d_16"/>
    <g id="text_11">
     <!-- WT -->
     <defs>
      <path d="M 3.328125 72.90625 
L 13.28125 72.90625 
L 28.609375 11.28125 
L 43.890625 72.90625 
L 54.984375 72.90625 
L 70.3125 11.28125 
L 85.59375 72.90625 
L 95.609375 72.90625 
L 77.296875 0 
L 64.890625 0 
L 49.515625 63.28125 
L 33.984375 0 
L 21.578125 0 
z
" id="DejaVuSans-57"/>
      <path d="M -0.296875 72.90625 
L 61.375 72.90625 
L 61.375 64.59375 
L 35.5 64.59375 
L 35.5 0 
L 25.59375 0 
L 25.59375 64.59375 
L -0.296875 64.59375 
z
" id="DejaVuSans-54"/>
     </defs>
     <g transform="translate(1097.45 309.447375)scale(0.2 -0.2)">
      <use xlink:href="#DejaVuSans-57"/>
      <use x="98.876953" xlink:href="#DejaVuSans-54"/>
     </g>
    </g>
    <g id="line2d_17">
     <path d="M 1041.45 331.803625 
L 1081.45 331.803625 
" style="fill:none;stroke:#d92426;stroke-linecap:square;stroke-width:2;"/>
    </g>
    <g id="line2d_18"/>
    <g id="text_12">
     <!-- GFP (-) -->
     <defs>
      <path d="M 59.515625 10.40625 
L 59.515625 29.984375 
L 43.40625 29.984375 
L 43.40625 38.09375 
L 69.28125 38.09375 
L 69.28125 6.78125 
Q 63.578125 2.734375 56.6875 0.65625 
Q 49.8125 -1.421875 42 -1.421875 
Q 24.90625 -1.421875 15.25 8.5625 
Q 5.609375 18.5625 5.609375 36.375 
Q 5.609375 54.25 15.25 64.234375 
Q 24.90625 74.21875 42 74.21875 
Q 49.125 74.21875 55.546875 72.453125 
Q 61.96875 70.703125 67.390625 67.28125 
L 67.390625 56.78125 
Q 61.921875 61.421875 55.765625 63.765625 
Q 49.609375 66.109375 42.828125 66.109375 
Q 29.4375 66.109375 22.71875 58.640625 
Q 16.015625 51.171875 16.015625 36.375 
Q 16.015625 21.625 22.71875 14.15625 
Q 29.4375 6.6875 42.828125 6.6875 
Q 48.046875 6.6875 52.140625 7.59375 
Q 56.25 8.5 59.515625 10.40625 
z
" id="DejaVuSans-47"/>
      <path d="M 9.8125 72.90625 
L 51.703125 72.90625 
L 51.703125 64.59375 
L 19.671875 64.59375 
L 19.671875 43.109375 
L 48.578125 43.109375 
L 48.578125 34.8125 
L 19.671875 34.8125 
L 19.671875 0 
L 9.8125 0 
z
" id="DejaVuSans-46"/>
      <path d="M 19.671875 64.796875 
L 19.671875 37.40625 
L 32.078125 37.40625 
Q 38.96875 37.40625 42.71875 40.96875 
Q 46.484375 44.53125 46.484375 51.125 
Q 46.484375 57.671875 42.71875 61.234375 
Q 38.96875 64.796875 32.078125 64.796875 
z
M 9.8125 72.90625 
L 32.078125 72.90625 
Q 44.34375 72.90625 50.609375 67.359375 
Q 56.890625 61.8125 56.890625 51.125 
Q 56.890625 40.328125 50.609375 34.8125 
Q 44.34375 29.296875 32.078125 29.296875 
L 19.671875 29.296875 
L 19.671875 0 
L 9.8125 0 
z
" id="DejaVuSans-50"/>
      <path d="M 4.890625 31.390625 
L 31.203125 31.390625 
L 31.203125 23.390625 
L 4.890625 23.390625 
z
" id="DejaVuSans-2d"/>
     </defs>
     <g transform="translate(1097.45 338.803625)scale(0.2 -0.2)">
      <use xlink:href="#DejaVuSans-47"/>
      <use x="77.490234" xlink:href="#DejaVuSans-46"/>
      <use x="135.009766" xlink:href="#DejaVuSans-50"/>
      <use x="195.3125" xlink:href="#DejaVuSans-20"/>
      <use x="227.099609" xlink:href="#DejaVuSans-28"/>
      <use x="266.113281" xlink:href="#DejaVuSans-2d"/>
      <use x="302.197266" xlink:href="#DejaVuSans-29"/>
     </g>
    </g>
    <g id="line2d_19">
     <path d="M 1041.45 361.159875 
L 1081.45 361.159875 
" style="fill:none;stroke:#6a4295;stroke-linecap:square;stroke-width:2;"/>
    </g>
    <g id="line2d_20"/>
    <g id="text_13">
     <!-- hCA (+) -->
     <defs>
      <path d="M 54.890625 33.015625 
L 54.890625 0 
L 45.90625 0 
L 45.90625 32.71875 
Q 45.90625 40.484375 42.875 44.328125 
Q 39.84375 48.1875 33.796875 48.1875 
Q 26.515625 48.1875 22.3125 43.546875 
Q 18.109375 38.921875 18.109375 30.90625 
L 18.109375 0 
L 9.078125 0 
L 9.078125 75.984375 
L 18.109375 75.984375 
L 18.109375 46.1875 
Q 21.34375 51.125 25.703125 53.5625 
Q 30.078125 56 35.796875 56 
Q 45.21875 56 50.046875 50.171875 
Q 54.890625 44.34375 54.890625 33.015625 
z
" id="DejaVuSans-68"/>
      <path d="M 34.1875 63.1875 
L 20.796875 26.90625 
L 47.609375 26.90625 
z
M 28.609375 72.90625 
L 39.796875 72.90625 
L 67.578125 0 
L 57.328125 0 
L 50.6875 18.703125 
L 17.828125 18.703125 
L 11.1875 0 
L 0.78125 0 
z
" id="DejaVuSans-41"/>
      <path d="M 46 62.703125 
L 46 35.5 
L 73.1875 35.5 
L 73.1875 27.203125 
L 46 27.203125 
L 46 0 
L 37.796875 0 
L 37.796875 27.203125 
L 10.59375 27.203125 
L 10.59375 35.5 
L 37.796875 35.5 
L 37.796875 62.703125 
z
" id="DejaVuSans-2b"/>
     </defs>
     <g transform="translate(1097.45 368.159875)scale(0.2 -0.2)">
      <use xlink:href="#DejaVuSans-68"/>
      <use x="63.378906" xlink:href="#DejaVuSans-43"/>
      <use x="133.203125" xlink:href="#DejaVuSans-41"/>
      <use x="201.611328" xlink:href="#DejaVuSans-20"/>
      <use x="233.398438" xlink:href="#DejaVuSans-28"/>
      <use x="272.412109" xlink:href="#DejaVuSans-2b"/>
      <use x="356.201172" xlink:href="#DejaVuSans-29"/>
     </g>
    </g>
    <g id="line2d_21">
     <path d="M 1041.45 390.516125 
L 1081.45 390.516125 
" style="fill:none;stroke:#f69f9e;stroke-linecap:square;stroke-width:2;"/>
    </g>
    <g id="line2d_22"/>
    <g id="text_14">
     <!-- dabB2 -->
     <defs>
      <path d="M 34.28125 27.484375 
Q 23.390625 27.484375 19.1875 25 
Q 14.984375 22.515625 14.984375 16.5 
Q 14.984375 11.71875 18.140625 8.90625 
Q 21.296875 6.109375 26.703125 6.109375 
Q 34.1875 6.109375 38.703125 11.40625 
Q 43.21875 16.703125 43.21875 25.484375 
L 43.21875 27.484375 
z
M 52.203125 31.203125 
L 52.203125 0 
L 43.21875 0 
L 43.21875 8.296875 
Q 40.140625 3.328125 35.546875 0.953125 
Q 30.953125 -1.421875 24.3125 -1.421875 
Q 15.921875 -1.421875 10.953125 3.296875 
Q 6 8.015625 6 15.921875 
Q 6 25.140625 12.171875 29.828125 
Q 18.359375 34.515625 30.609375 34.515625 
L 43.21875 34.515625 
L 43.21875 35.40625 
Q 43.21875 41.609375 39.140625 45 
Q 35.0625 48.390625 27.6875 48.390625 
Q 23 48.390625 18.546875 47.265625 
Q 14.109375 46.140625 10.015625 43.890625 
L 10.015625 52.203125 
Q 14.9375 54.109375 19.578125 55.046875 
Q 24.21875 56 28.609375 56 
Q 40.484375 56 46.34375 49.84375 
Q 52.203125 43.703125 52.203125 31.203125 
z
" id="DejaVuSans-61"/>
      <path d="M 48.6875 27.296875 
Q 48.6875 37.203125 44.609375 42.84375 
Q 40.53125 48.484375 33.40625 48.484375 
Q 26.265625 48.484375 22.1875 42.84375 
Q 18.109375 37.203125 18.109375 27.296875 
Q 18.109375 17.390625 22.1875 11.75 
Q 26.265625 6.109375 33.40625 6.109375 
Q 40.53125 6.109375 44.609375 11.75 
Q 48.6875 17.390625 48.6875 27.296875 
z
M 18.109375 46.390625 
Q 20.953125 51.265625 25.265625 53.625 
Q 29.59375 56 35.59375 56 
Q 45.5625 56 51.78125 48.09375 
Q 58.015625 40.1875 58.015625 27.296875 
Q 58.015625 14.40625 51.78125 6.484375 
Q 45.5625 -1.421875 35.59375 -1.421875 
Q 29.59375 -1.421875 25.265625 0.953125 
Q 20.953125 3.328125 18.109375 8.203125 
L 18.109375 0 
L 9.078125 0 
L 9.078125 75.984375 
L 18.109375 75.984375 
z
" id="DejaVuSans-62"/>
      <path d="M 19.671875 34.8125 
L 19.671875 8.109375 
L 35.5 8.109375 
Q 43.453125 8.109375 47.28125 11.40625 
Q 51.125 14.703125 51.125 21.484375 
Q 51.125 28.328125 47.28125 31.5625 
Q 43.453125 34.8125 35.5 34.8125 
z
M 19.671875 64.796875 
L 19.671875 42.828125 
L 34.28125 42.828125 
Q 41.5 42.828125 45.03125 45.53125 
Q 48.578125 48.25 48.578125 53.8125 
Q 48.578125 59.328125 45.03125 62.0625 
Q 41.5 64.796875 34.28125 64.796875 
z
M 9.8125 72.90625 
L 35.015625 72.90625 
Q 46.296875 72.90625 52.390625 68.21875 
Q 58.5 63.53125 58.5 54.890625 
Q 58.5 48.1875 55.375 44.234375 
Q 52.25 40.28125 46.1875 39.3125 
Q 53.46875 37.75 57.5 32.78125 
Q 61.53125 27.828125 61.53125 20.40625 
Q 61.53125 10.640625 54.890625 5.3125 
Q 48.25 0 35.984375 0 
L 9.8125 0 
z
" id="DejaVuSans-42"/>
     </defs>
     <g transform="translate(1097.45 397.516125)scale(0.2 -0.2)">
      <use xlink:href="#DejaVuSans-64"/>
      <use x="63.476562" xlink:href="#DejaVuSans-61"/>
      <use x="124.755859" xlink:href="#DejaVuSans-62"/>
      <use x="188.232422" xlink:href="#DejaVuSans-42"/>
      <use x="256.835938" xlink:href="#DejaVuSans-32"/>
     </g>
    </g>
    <g id="line2d_23">
     <path d="M 1041.45 419.872375 
L 1081.45 419.872375 
" style="fill:none;stroke:#389a32;stroke-linecap:square;stroke-width:2;"/>
    </g>
    <g id="line2d_24"/>
    <g id="text_15">
     <!-- dabA2 -->
     <g transform="translate(1097.45 426.872375)scale(0.2 -0.2)">
      <use xlink:href="#DejaVuSans-64"/>
      <use x="63.476562" xlink:href="#DejaVuSans-61"/>
      <use x="124.755859" xlink:href="#DejaVuSans-62"/>
      <use x="188.232422" xlink:href="#DejaVuSans-41"/>
      <use x="256.640625" xlink:href="#DejaVuSans-32"/>
     </g>
    </g>
    <g id="line2d_25">
     <path d="M 1041.45 449.228625 
L 1081.45 449.228625 
" style="fill:none;stroke:#2677ad;stroke-linecap:square;stroke-width:2;"/>
    </g>
    <g id="line2d_26"/>
    <g id="text_16">
     <!-- dabAB2 -->
     <g transform="translate(1097.45 456.228625)scale(0.2 -0.2)">
      <use xlink:href="#DejaVuSans-64"/>
      <use x="63.476562" xlink:href="#DejaVuSans-61"/>
      <use x="124.755859" xlink:href="#DejaVuSans-62"/>
      <use x="188.232422" xlink:href="#DejaVuSans-41"/>
      <use x="256.640625" xlink:href="#DejaVuSans-42"/>
      <use x="325.244141" xlink:href="#DejaVuSans-32"/>
     </g>
    </g>
   </g>
  </g>
 </g>
 <defs>
  <clipPath id="p04250a08a0">
   <rect height="543.6" width="1116" x="84.85" y="17.2"/>
  </clipPath>
 </defs>
</svg>
