<?xml version="1.0" encoding="utf-8" standalone="no"?>
<!DOCTYPE svg PUBLIC "-//W3C//DTD SVG 1.1//EN"
  "http://www.w3.org/Graphics/SVG/1.1/DTD/svg11.dtd">
<!-- Created with matplotlib (http://matplotlib.org/) -->
<svg height="635pt" version="1.1" viewBox="0 0 1214 635" width="1214pt" xmlns="http://www.w3.org/2000/svg" xmlns:xlink="http://www.w3.org/1999/xlink">
 <defs>
  <style type="text/css">
*{stroke-linecap:butt;stroke-linejoin:round;}
  </style>
 </defs>
 <g id="figure_1">
  <g id="patch_1">
   <path d="
M-1.42109e-14 635.838
L1214.6 635.838
L1214.6 0
L-1.42109e-14 0
z
" style="fill:#ffffff;"/>
  </g>
  <g id="axes_1">
   <g id="patch_2">
    <path d="
M79.8934 565.2
L1195.89 565.2
L1195.89 7.2
L79.8934 7.2
z
" style="fill:#ffffff;"/>
   </g>
   <g id="PolyCollection_1">
    <defs>
     <path d="
M117.586 -96.9232
L117.586 -96.4988
L127.009 -101.401
L136.432 -107.911
L145.856 -117.833
L155.279 -131.152
L164.702 -150.189
L174.125 -174.224
L183.549 -202.508
L192.972 -231.829
L202.395 -259.486
L211.819 -283.657
L221.242 -303.98
L230.665 -320.591
L240.088 -334.612
L249.512 -346.511
L258.935 -358.355
L268.358 -370.354
L277.781 -383.091
L287.205 -395.131
L296.628 -406.377
L306.051 -416.426
L315.474 -426.159
L324.898 -435.596
L334.321 -445.351
L343.744 -454.7
L353.167 -463.639
L362.591 -471.842
L372.014 -479.604
L381.437 -486.775
L390.86 -493.217
L400.284 -499.011
L409.707 -504.542
L419.13 -509.898
L428.554 -515.082
L437.977 -519.7
L447.399 -523.994
L456.822 -527.966
L466.246 -532.204
L475.669 -536.318
L485.092 -540.624
L494.515 -544.505
L503.939 -548.437
L513.362 -551.817
L522.785 -555.054
L532.208 -557.956
L541.632 -560.838
L551.055 -563.585
L560.478 -565.968
L569.901 -568.179
L579.325 -570.168
L588.748 -572.207
L598.171 -574.216
L607.595 -576.22
L617.018 -578.227
L626.441 -580.135
L635.865 -582.008
L645.288 -583.683
L654.711 -585.278
L664.134 -586.788
L673.558 -588.348
L682.981 -589.763
L692.404 -590.966
L701.827 -591.995
L711.251 -592.934
L720.674 -593.854
L730.097 -594.669
L739.521 -595.477
L748.944 -596.234
L758.367 -596.805
L767.79 -597.128
L777.213 -597.162
L786.637 -597.019
L796.06 -596.689
L805.483 -596.205
L814.906 -595.767
L824.33 -595.261
L833.752 -594.835
L843.175 -594.241
L852.598 -593.691
L862.022 -593.032
L871.445 -592.47
L880.868 -591.841
L890.291 -591.257
L899.714 -590.553
L909.138 -589.826
L918.561 -589.021
L927.984 -588.329
L937.407 -587.782
L946.831 -587.413
L956.254 -587.027
L965.677 -586.642
L975.1 -586.119
L984.524 -585.553
L993.947 -584.782
L1003.37 -583.97
L1012.79 -583.063
L1022.22 -582.315
L1031.64 -581.532
L1041.06 -580.85
L1050.49 -580.053
L1059.91 -579.368
L1069.33 -578.649
L1078.76 -578.07
L1088.18 -577.449
L1097.6 -576.96
L1107.02 -576.443
L1116.45 -576.113
L1125.87 -575.68
L1135.29 -575.236
L1144.72 -574.599
L1154.14 -573.966
L1163.56 -573.255
L1172.99 -572.628
L1182.41 -572.05
L1191.83 -571.653
L1201.26 -571.208
L1210.68 -570.872
L1220.1 -570.58
L1229.53 -570.457
L1229.53 -581.465
L1229.53 -581.465
L1220.1 -581.558
L1210.68 -581.77
L1201.26 -582.031
L1191.83 -582.372
L1182.41 -582.662
L1172.99 -583.197
L1163.56 -583.82
L1154.14 -584.479
L1144.72 -584.964
L1135.29 -585.406
L1125.87 -585.758
L1116.45 -586.144
L1107.02 -586.516
L1097.6 -587.085
L1088.18 -587.704
L1078.76 -588.461
L1069.33 -589.162
L1059.91 -589.927
L1050.49 -590.642
L1041.06 -591.418
L1031.64 -592.06
L1022.22 -592.696
L1012.79 -593.289
L1003.37 -594.005
L993.947 -594.668
L984.524 -595.271
L975.1 -595.705
L965.677 -596.086
L956.254 -596.334
L946.831 -596.531
L937.407 -596.754
L927.984 -597.204
L918.561 -597.914
L909.138 -598.736
L899.714 -599.487
L890.291 -600.157
L880.868 -600.667
L871.445 -601.146
L862.022 -601.462
L852.598 -601.85
L843.175 -602.183
L833.752 -602.674
L824.33 -603.028
L814.906 -603.429
L805.483 -603.66
L796.06 -603.965
L786.637 -604.188
L777.213 -604.358
L767.79 -604.404
L758.367 -604.219
L748.944 -603.857
L739.521 -603.384
L730.097 -602.865
L720.674 -602.433
L711.251 -601.927
L701.827 -601.524
L692.404 -601.003
L682.981 -600.415
L673.558 -599.648
L664.134 -598.78
L654.711 -597.868
L645.288 -596.839
L635.865 -595.679
L626.441 -594.273
L617.018 -592.779
L607.595 -591.225
L598.171 -589.784
L588.748 -588.41
L579.325 -586.955
L569.901 -585.476
L560.478 -583.603
L551.055 -581.525
L541.632 -579.019
L532.208 -576.504
L522.785 -573.985
L513.362 -571.211
L503.939 -568.245
L494.515 -564.669
L485.092 -560.998
L475.669 -556.779
L466.246 -552.624
L456.822 -548.291
L447.399 -544.211
L437.977 -539.894
L428.554 -535.361
L419.13 -530.28
L409.707 -525.035
L400.284 -519.504
L390.86 -513.657
L381.437 -506.839
L372.014 -499.065
L362.591 -490.308
L353.167 -481.149
L343.744 -471.135
L334.321 -460.853
L324.898 -450.074
L315.474 -439.723
L306.051 -429.022
L296.628 -418.101
L287.205 -406.07
L277.781 -393.364
L268.358 -379.808
L258.935 -366.868
L249.512 -354.004
L240.088 -341.326
L230.665 -326.844
L221.242 -310.261
L211.819 -290.385
L202.395 -266.896
L192.972 -239.76
L183.549 -210.498
L174.125 -181.377
L164.702 -155.989
L155.279 -135.294
L145.856 -120.681
L136.432 -109.614
L127.009 -102.442
L117.586 -96.9232
z
" id="m1a1a38bee0" style="stroke:#c7b1d3;stroke-opacity:0.5;"/>
    </defs>
    <g clip-path="url(#p39f61a35d8)">
     <use style="fill:#c7b1d3;fill-opacity:0.5;stroke:#c7b1d3;stroke-opacity:0.5;" x="0.0" xlink:href="#m1a1a38bee0" y="635.8375"/>
    </g>
   </g>
   <g id="PolyCollection_2">
    <defs>
     <path d="
M117.586 -94.9273
L117.586 -94.4077
L127.009 -95.8886
L136.432 -97.4294
L145.856 -98.4862
L155.279 -99.1398
L164.702 -99.5465
L174.125 -99.7524
L183.549 -100.271
L192.972 -100.456
L202.395 -100.947
L211.819 -101.02
L221.242 -101.26
L230.665 -100.944
L240.088 -100.773
L249.512 -100.414
L258.935 -100.458
L268.358 -100.156
L277.781 -100.069
L287.205 -99.7632
L296.628 -99.8583
L306.051 -99.7057
L315.474 -99.5227
L324.898 -99.392
L334.321 -99.3218
L343.744 -99.5984
L353.167 -99.3382
L362.591 -99.1419
L372.014 -98.3093
L381.437 -97.742
L390.86 -96.9975
L400.284 -96.7168
L409.707 -96.5765
L419.13 -96.4118
L428.554 -96.1101
L437.977 -95.5296
L447.399 -95.114
L456.822 -94.51
L466.246 -94.2706
L475.669 -93.6883
L485.092 -93.4159
L494.515 -92.8555
L503.939 -92.5976
L513.362 -92.2279
L522.785 -92.0616
L532.208 -91.9526
L541.632 -91.6695
L551.055 -91.3791
L560.478 -90.9406
L569.901 -90.6272
L579.325 -90.4503
L588.748 -90.1949
L598.171 -89.9791
L607.595 -89.5302
L617.018 -89.1572
L626.441 -88.829
L635.865 -88.6293
L645.288 -88.5519
L654.711 -88.5012
L664.134 -88.4683
L673.558 -88.4223
L682.981 -88.2062
L692.404 -88.0061
L701.827 -87.6481
L711.251 -87.4464
L720.674 -87.4437
L730.097 -87.5512
L739.521 -87.6525
L748.944 -87.3833
L758.367 -87.1856
L767.79 -86.9395
L777.213 -86.9763
L786.637 -86.7495
L796.06 -86.508
L805.483 -86.2292
L814.906 -86.1302
L824.33 -86.0347
L833.752 -85.7914
L843.175 -85.6464
L852.598 -85.6481
L862.022 -85.764
L871.445 -85.8038
L880.868 -85.6403
L890.291 -85.5094
L899.714 -85.3626
L909.138 -85.3963
L918.561 -85.4949
L927.984 -85.4049
L937.407 -85.3626
L946.831 -85.2705
L956.254 -85.3636
L965.677 -85.3904
L975.1 -85.2976
L984.524 -85.2893
L993.947 -85.0507
L1003.37 -85.0306
L1012.79 -84.812
L1022.22 -84.9785
L1031.64 -84.9012
L1041.06 -85.059
L1050.49 -84.9304
L1059.91 -84.9518
L1069.33 -84.8971
L1078.76 -85.0256
L1088.18 -85.2757
L1097.6 -85.3128
L1107.02 -85.1721
L1116.45 -84.8618
L1125.87 -84.7077
L1135.29 -84.6786
L1144.72 -84.6831
L1154.14 -84.6863
L1163.56 -84.847
L1172.99 -84.8587
L1182.41 -84.8604
L1191.83 -84.7686
L1201.26 -84.8967
L1210.68 -85.1538
L1220.1 -85.1255
L1229.53 -84.9592
L1229.53 -88.4789
L1229.53 -88.4789
L1220.1 -89.1037
L1210.68 -89.3631
L1201.26 -88.8861
L1191.83 -88.2553
L1182.41 -88.2479
L1172.99 -88.019
L1163.56 -87.8918
L1154.14 -87.3457
L1144.72 -87.2695
L1135.29 -87.2417
L1125.87 -87.4185
L1116.45 -87.696
L1107.02 -88.5909
L1097.6 -88.8817
L1088.18 -88.894
L1078.76 -88.1918
L1069.33 -87.7301
L1059.91 -87.6034
L1050.49 -87.3496
L1041.06 -87.4789
L1031.64 -86.9026
L1022.22 -86.6938
L1012.79 -86.094
L1003.37 -86.4731
L993.947 -86.5622
L984.524 -87.0155
L975.1 -86.9179
L965.677 -86.9366
L956.254 -86.8321
L946.831 -86.4787
L937.407 -86.6049
L927.984 -86.4758
L918.561 -86.5817
L909.138 -86.2513
L899.714 -86.0791
L890.291 -86.2299
L880.868 -86.4115
L871.445 -86.7118
L862.022 -86.6226
L852.598 -86.3789
L843.175 -86.3458
L833.752 -86.5803
L824.33 -87.0364
L814.906 -87.2434
L805.483 -87.3751
L796.06 -87.8379
L786.637 -88.1171
L777.213 -88.3714
L767.79 -88.1255
L758.367 -88.544
L748.944 -88.9291
L739.521 -89.4089
L730.097 -88.9695
L720.674 -88.5389
L711.251 -88.4494
L701.827 -88.7785
L692.404 -89.4893
L682.981 -89.8596
L673.558 -90.194
L664.134 -90.0513
L654.711 -89.949
L645.288 -89.9206
L635.865 -89.9325
L626.441 -90.147
L617.018 -90.5801
L607.595 -91.1098
L598.171 -91.834
L588.748 -92.1043
L579.325 -92.4441
L569.901 -92.5673
L560.478 -92.8961
L551.055 -93.4471
L541.632 -93.7172
L532.208 -93.9748
L522.785 -93.9972
L513.362 -94.1831
L503.939 -94.731
L494.515 -95.1204
L485.092 -96.0132
L475.669 -96.6188
L466.246 -97.8543
L456.822 -98.6887
L447.399 -99.6794
L437.977 -100.263
L428.554 -100.997
L419.13 -101.243
L409.707 -101.121
L400.284 -100.986
L390.86 -101.037
L381.437 -101.967
L372.014 -102.798
L362.591 -104.123
L353.167 -104.351
L343.744 -104.547
L334.321 -103.787
L324.898 -103.625
L315.474 -103.591
L306.051 -103.748
L296.628 -103.923
L287.205 -103.623
L277.781 -103.952
L268.358 -103.868
L258.935 -104.394
L249.512 -104.367
L240.088 -105.076
L230.665 -105.183
L221.242 -105.499
L211.819 -104.777
L202.395 -104.307
L192.972 -103.129
L183.549 -102.366
L174.125 -101.343
L164.702 -100.963
L155.279 -100.495
L145.856 -99.866
L136.432 -98.6586
L127.009 -96.8364
L117.586 -94.9273
z
" id="mf0ec575fb7" style="stroke:#d92526;stroke-opacity:0.5;"/>
    </defs>
    <g clip-path="url(#p39f61a35d8)">
     <use style="fill:#d92526;fill-opacity:0.5;stroke:#d92526;stroke-opacity:0.5;" x="0.0" xlink:href="#mf0ec575fb7" y="635.8375"/>
    </g>
   </g>
   <g id="PolyCollection_3">
    <defs>
     <path d="
M117.586 -94.476
L117.586 -94.2067
L127.009 -95.4283
L136.432 -96.8484
L145.856 -97.7769
L155.279 -98.636
L164.702 -99.0132
L174.125 -99.4428
L183.549 -99.6471
L192.972 -99.7578
L202.395 -99.6932
L211.819 -99.694
L221.242 -99.7345
L230.665 -99.7496
L240.088 -99.64
L249.512 -99.7142
L258.935 -100.073
L268.358 -100.851
L277.781 -102.006
L287.205 -103.731
L296.628 -106.337
L306.051 -110.383
L315.474 -116.255
L324.898 -124.659
L334.321 -135.906
L343.744 -150.883
L353.167 -169.045
L362.591 -188.59
L372.014 -206.334
L381.437 -220.124
L390.86 -230.751
L400.284 -239.788
L409.707 -248.426
L419.13 -257.196
L428.554 -266.178
L437.977 -274.904
L447.399 -282.514
L456.822 -288.848
L466.246 -294.568
L475.669 -300.058
L485.092 -305.825
L494.515 -311.546
L503.939 -317.474
L513.362 -323.237
L522.785 -329.204
L532.208 -335.21
L541.632 -341.317
L551.055 -347.058
L560.478 -352.314
L569.901 -357.264
L579.325 -362.222
L588.748 -367.243
L598.171 -372.424
L607.595 -377.605
L617.018 -382.937
L626.441 -388.201
L635.865 -393.578
L645.288 -398.923
L654.711 -404.163
L664.134 -409.267
L673.558 -414.29
L682.981 -419.432
L692.404 -424.539
L701.827 -429.599
L711.251 -434.502
L720.674 -439.159
L730.097 -443.563
L739.521 -447.658
L748.944 -451.845
L758.367 -455.92
L767.79 -460.09
L777.213 -463.855
L786.637 -467.547
L796.06 -470.936
L805.483 -474.253
L814.906 -477.371
L824.33 -480.325
L833.752 -483.144
L843.175 -485.804
L852.598 -488.327
L862.022 -490.798
L871.445 -493.146
L880.868 -495.427
L890.291 -497.391
L899.714 -499.292
L909.138 -500.82
L918.561 -502.049
L927.984 -502.696
L937.407 -503.116
L946.831 -503.201
L956.254 -502.943
L965.677 -502.227
L975.1 -501.378
L984.524 -500.52
L993.947 -499.636
L1003.37 -498.588
L1012.79 -497.473
L1022.22 -496.478
L1031.64 -495.603
L1041.06 -494.723
L1050.49 -493.798
L1059.91 -492.814
L1069.33 -491.883
L1078.76 -490.939
L1088.18 -490.084
L1097.6 -489.254
L1107.02 -488.6
L1116.45 -487.991
L1125.87 -487.383
L1135.29 -486.562
L1144.72 -485.669
L1154.14 -484.748
L1163.56 -483.976
L1172.99 -483.219
L1182.41 -482.564
L1191.83 -481.9
L1201.26 -481.293
L1210.68 -480.729
L1220.1 -480.291
L1229.53 -479.955
L1229.53 -492.158
L1229.53 -492.158
L1220.1 -492.774
L1210.68 -493.415
L1201.26 -494.162
L1191.83 -494.91
L1182.41 -495.731
L1172.99 -496.529
L1163.56 -497.442
L1154.14 -498.279
L1144.72 -499.262
L1135.29 -500.175
L1125.87 -501.105
L1116.45 -501.791
L1107.02 -502.504
L1097.6 -503.194
L1088.18 -504.078
L1078.76 -504.907
L1069.33 -505.825
L1059.91 -506.656
L1050.49 -507.598
L1041.06 -508.421
L1031.64 -509.208
L1022.22 -509.883
L1012.79 -510.696
L1003.37 -511.546
L993.947 -512.268
L984.524 -512.616
L975.1 -512.855
L965.677 -512.955
L956.254 -512.844
L946.831 -512.063
L937.407 -510.876
L927.984 -509.381
L918.561 -507.928
L909.138 -506.178
L899.714 -504.396
L890.291 -502.328
L880.868 -500.268
L871.445 -497.911
L862.022 -495.534
L852.598 -493.026
L843.175 -490.464
L833.752 -487.74
L824.33 -484.856
L814.906 -481.84
L805.483 -478.679
L796.06 -475.315
L786.637 -471.846
L777.213 -468.021
L767.79 -464.079
L758.367 -459.718
L748.944 -455.432
L739.521 -451.064
L730.097 -446.806
L720.674 -442.356
L711.251 -437.699
L701.827 -432.885
L692.404 -427.923
L682.981 -422.947
L673.558 -417.92
L664.134 -412.987
L654.711 -408.022
L645.288 -402.977
L635.865 -397.857
L626.441 -392.669
L617.018 -387.546
L607.595 -382.41
L598.171 -377.455
L588.748 -372.607
L579.325 -367.939
L569.901 -363.406
L560.478 -358.877
L551.055 -354.005
L541.632 -348.487
L532.208 -342.397
L522.785 -336.291
L513.362 -330.287
L503.939 -324.508
L494.515 -318.643
L485.092 -312.919
L475.669 -307.251
L466.246 -301.814
L456.822 -296.198
L447.399 -289.743
L437.977 -281.771
L428.554 -272.262
L419.13 -262.299
L409.707 -252.474
L400.284 -243.119
L390.86 -233.415
L381.437 -222.104
L372.014 -208.088
L362.591 -190.864
L353.167 -171.796
L343.744 -153.479
L334.321 -138.243
L324.898 -126.592
L315.474 -117.933
L306.051 -111.856
L296.628 -107.826
L287.205 -105.325
L277.781 -103.684
L268.358 -102.63
L258.935 -101.885
L249.512 -101.636
L240.088 -101.557
L230.665 -101.626
L221.242 -101.41
L211.819 -101.225
L202.395 -101.119
L192.972 -101.159
L183.549 -100.932
L174.125 -100.621
L164.702 -100.053
L155.279 -99.6269
L145.856 -98.6409
L136.432 -97.6003
L127.009 -95.9328
L117.586 -94.476
z
" id="mb71f5e14f3" style="stroke:#6c4595;stroke-opacity:0.5;"/>
    </defs>
    <g clip-path="url(#p39f61a35d8)">
     <use style="fill:#6c4595;fill-opacity:0.5;stroke:#6c4595;stroke-opacity:0.5;" x="0.0" xlink:href="#mb71f5e14f3" y="635.8375"/>
    </g>
   </g>
   <g id="PolyCollection_4">
    <defs>
     <path d="
M117.586 -94.522
L117.586 -94.3591
L127.009 -95.7367
L136.432 -97.1493
L145.856 -98.0302
L155.279 -98.6951
L164.702 -99.0028
L174.125 -99.3435
L183.549 -99.5677
L192.972 -99.5907
L202.395 -99.4748
L211.819 -99.2531
L221.242 -99.1901
L230.665 -99.0754
L240.088 -99.0042
L249.512 -98.9366
L258.935 -99.109
L268.358 -99.2925
L277.781 -99.3467
L287.205 -99.222
L296.628 -99.0696
L306.051 -98.9279
L315.474 -98.7925
L324.898 -98.5958
L334.321 -98.3545
L343.744 -97.955
L353.167 -97.5461
L362.591 -97.1395
L372.014 -96.7408
L381.437 -96.2728
L390.86 -95.8259
L400.284 -95.4268
L409.707 -95.1195
L419.13 -94.8009
L428.554 -94.5346
L437.977 -94.2438
L447.399 -93.9609
L456.822 -93.6379
L466.246 -93.3746
L475.669 -93.1138
L485.092 -92.9144
L494.515 -92.6502
L503.939 -92.3828
L513.362 -92.0555
L522.785 -91.8033
L532.208 -91.5669
L541.632 -91.3237
L551.055 -90.9864
L560.478 -90.6565
L569.901 -90.3596
L579.325 -90.128
L588.748 -89.8618
L598.171 -89.599
L607.595 -89.3231
L617.018 -89.1078
L626.441 -88.9223
L635.865 -88.8029
L645.288 -88.662
L654.711 -88.4709
L664.134 -88.2149
L673.558 -87.9528
L682.981 -87.7824
L692.404 -87.6423
L701.827 -87.5554
L711.251 -87.4246
L720.674 -87.3319
L730.097 -87.2175
L739.521 -87.1399
L748.944 -87.0426
L758.367 -86.9449
L767.79 -86.8062
L777.213 -86.6509
L786.637 -86.5097
L796.06 -86.3829
L805.483 -86.2857
L814.906 -86.2152
L824.33 -86.1707
L833.752 -86.165
L843.175 -86.1216
L852.598 -86.0739
L862.022 -85.9713
L871.445 -85.8855
L880.868 -85.7792
L890.291 -85.6942
L899.714 -85.6324
L909.138 -85.6171
L918.561 -85.5836
L927.984 -85.5196
L937.407 -85.4465
L946.831 -85.4316
L956.254 -85.4498
L965.677 -85.4388
L975.1 -85.385
L984.524 -85.3141
L993.947 -85.2568
L1003.37 -85.1764
L1012.79 -85.108
L1022.22 -85.0528
L1031.64 -85.0672
L1041.06 -85.0778
L1050.49 -85.0718
L1059.91 -85.0341
L1069.33 -84.9833
L1078.76 -84.9561
L1088.18 -84.9062
L1097.6 -84.8606
L1107.02 -84.8128
L1116.45 -84.8019
L1125.87 -84.8309
L1135.29 -84.8294
L1144.72 -84.8327
L1154.14 -84.8187
L1163.56 -84.8504
L1172.99 -84.887
L1182.41 -84.8957
L1191.83 -84.8804
L1201.26 -84.8191
L1210.68 -84.7874
L1220.1 -84.7421
L1229.53 -84.7098
L1229.53 -86.4566
L1229.53 -86.4566
L1220.1 -86.4566
L1210.68 -86.4584
L1201.26 -86.4515
L1191.83 -86.4795
L1182.41 -86.494
L1172.99 -86.4902
L1163.56 -86.4921
L1154.14 -86.4866
L1144.72 -86.5272
L1135.29 -86.5404
L1125.87 -86.5489
L1116.45 -86.5208
L1107.02 -86.5149
L1097.6 -86.5439
L1088.18 -86.5876
L1078.76 -86.6319
L1069.33 -86.6693
L1059.91 -86.6953
L1050.49 -86.7221
L1041.06 -86.7062
L1031.64 -86.7043
L1022.22 -86.6989
L1012.79 -86.7529
L1003.37 -86.8034
L993.947 -86.852
L984.524 -86.8766
L975.1 -86.9247
L965.677 -86.985
L956.254 -87.036
L946.831 -87.0442
L937.407 -87.0517
L927.984 -87.0778
L918.561 -87.1006
L909.138 -87.1043
L899.714 -87.1039
L890.291 -87.1661
L880.868 -87.2472
L871.445 -87.3419
L862.022 -87.38
L852.598 -87.4362
L843.175 -87.4578
L833.752 -87.4988
L824.33 -87.4906
L814.906 -87.5205
L805.483 -87.5864
L796.06 -87.7001
L786.637 -87.8262
L777.213 -87.9404
L767.79 -88.0703
L758.367 -88.1771
L748.944 -88.2704
L739.521 -88.3541
L730.097 -88.4527
L720.674 -88.5763
L711.251 -88.682
L701.827 -88.7992
L692.404 -88.8859
L682.981 -89.0261
L673.558 -89.1854
L664.134 -89.4045
L654.711 -89.6049
L645.288 -89.7659
L635.865 -89.8953
L626.441 -90.0189
L617.018 -90.198
L607.595 -90.3993
L598.171 -90.6468
L588.748 -90.8626
L579.325 -91.0874
L569.901 -91.2849
L560.478 -91.5509
L551.055 -91.8335
L541.632 -92.1163
L532.208 -92.3318
L522.785 -92.532
L513.362 -92.7535
L503.939 -93.0287
L494.515 -93.2821
L485.092 -93.5462
L475.669 -93.756
L466.246 -94.016
L456.822 -94.271
L447.399 -94.5953
L437.977 -94.8853
L428.554 -95.2071
L419.13 -95.5062
L409.707 -95.8547
L400.284 -96.1699
L390.86 -96.5818
L381.437 -97.1268
L372.014 -97.7575
L362.591 -98.3409
L353.167 -98.8965
L343.744 -99.4374
L334.321 -99.9903
L324.898 -100.362
L315.474 -100.626
L306.051 -100.734
L296.628 -100.79
L287.205 -100.891
L277.781 -100.994
L268.358 -100.952
L258.935 -100.766
L249.512 -100.571
L240.088 -100.623
L230.665 -100.648
L221.242 -100.725
L211.819 -100.721
L202.395 -100.859
L192.972 -100.862
L183.549 -100.707
L174.125 -100.348
L164.702 -99.8653
L155.279 -99.4562
L145.856 -98.6901
L136.432 -97.6789
L127.009 -96.0807
L117.586 -94.522
z
" id="m3a9871e1e5" style="stroke:#f69d9c;stroke-opacity:0.5;"/>
    </defs>
    <g clip-path="url(#p39f61a35d8)">
     <use style="fill:#f69d9c;fill-opacity:0.5;stroke:#f69d9c;stroke-opacity:0.5;" x="0.0" xlink:href="#m3a9871e1e5" y="635.8375"/>
    </g>
   </g>
   <g id="PolyCollection_5">
    <defs>
     <path d="
M117.586 -95.6476
L117.586 -94.9298
L127.009 -96.7734
L136.432 -98.3738
L145.856 -99.6265
L155.279 -100.375
L164.702 -100.931
L174.125 -101.13
L183.549 -101.594
L192.972 -101.714
L202.395 -101.993
L211.819 -101.9
L221.242 -102.002
L230.665 -101.824
L240.088 -101.722
L249.512 -101.51
L258.935 -101.519
L268.358 -101.439
L277.781 -101.48
L287.205 -101.404
L296.628 -101.274
L306.051 -100.842
L315.474 -100.439
L324.898 -99.8821
L334.321 -99.1028
L343.744 -97.877
L353.167 -96.5993
L362.591 -95.5279
L372.014 -94.5377
L381.437 -93.6131
L390.86 -92.6713
L400.284 -91.883
L409.707 -91.3337
L419.13 -90.9387
L428.554 -90.6228
L437.977 -90.115
L447.399 -89.6367
L456.822 -89.2051
L466.246 -88.9858
L475.669 -88.6184
L485.092 -88.2516
L494.515 -87.7638
L503.939 -87.5292
L513.362 -87.3589
L522.785 -87.28
L532.208 -87.214
L541.632 -87.0473
L551.055 -86.9111
L560.478 -86.6631
L569.901 -86.5657
L579.325 -86.4608
L588.748 -86.3668
L598.171 -86.2206
L607.595 -85.9255
L617.018 -85.6028
L626.441 -85.282
L635.865 -85.1434
L645.288 -85.1295
L654.711 -85.1129
L664.134 -85.1397
L673.558 -85.1047
L682.981 -84.9941
L692.404 -84.7867
L701.827 -84.4751
L711.251 -84.2346
L720.674 -84.2074
L730.097 -84.2322
L739.521 -84.2211
L748.944 -83.9834
L758.367 -83.777
L767.79 -83.5514
L777.213 -83.5703
L786.637 -83.4098
L796.06 -83.2253
L805.483 -82.9122
L814.906 -82.7779
L824.33 -82.7897
L833.752 -82.7364
L843.175 -82.8042
L852.598 -82.8393
L862.022 -82.9291
L871.445 -82.9036
L880.868 -82.7609
L890.291 -82.6417
L899.714 -82.511
L909.138 -82.5055
L918.561 -82.5918
L927.984 -82.6183
L937.407 -82.7398
L946.831 -82.7487
L956.254 -82.8335
L965.677 -82.802
L975.1 -82.732
L984.524 -82.7566
L993.947 -82.6735
L1003.37 -82.7368
L1012.79 -82.6247
L1022.22 -82.6669
L1031.64 -82.5733
L1041.06 -82.6314
L1050.49 -82.6586
L1059.91 -82.7354
L1069.33 -82.7947
L1078.76 -82.8601
L1088.18 -82.9642
L1097.6 -82.9487
L1107.02 -82.8785
L1116.45 -82.8342
L1125.87 -82.9225
L1135.29 -83.0456
L1144.72 -83.1469
L1154.14 -83.1813
L1163.56 -83.3404
L1172.99 -83.4
L1182.41 -83.4553
L1191.83 -83.4031
L1201.26 -83.455
L1210.68 -83.6202
L1220.1 -83.7348
L1229.53 -83.8162
L1229.53 -92.0746
L1229.53 -92.0746
L1220.1 -91.9526
L1210.68 -91.6259
L1201.26 -91.1487
L1191.83 -90.9402
L1182.41 -91.0195
L1172.99 -90.9037
L1163.56 -90.6904
L1154.14 -90.3685
L1144.72 -90.2986
L1135.29 -90.0826
L1125.87 -89.6302
L1116.45 -89.3218
L1107.02 -89.3493
L1097.6 -89.4528
L1088.18 -89.2166
L1078.76 -88.7081
L1069.33 -88.2948
L1059.91 -88.0466
L1050.49 -87.7316
L1041.06 -87.486
L1031.64 -87.2217
L1022.22 -87.2645
L1012.79 -87.0885
L1003.37 -87.2219
L993.947 -86.9975
L984.524 -87.0061
L975.1 -86.6587
L965.677 -86.44
L956.254 -86.2299
L946.831 -85.7865
L937.407 -85.5821
L927.984 -85.0414
L918.561 -84.7406
L909.138 -84.321
L899.714 -84.1667
L890.291 -84.2443
L880.868 -84.3334
L871.445 -84.4263
L862.022 -84.3661
L852.598 -84.0268
L843.175 -83.866
L833.752 -83.6387
L824.33 -83.6499
L814.906 -83.5972
L805.483 -83.6836
L796.06 -84.0252
L786.637 -84.1929
L777.213 -84.3622
L767.79 -84.2224
L758.367 -84.4804
L748.944 -84.713
L739.521 -85.0878
L730.097 -84.9477
L720.674 -84.8089
L711.251 -84.8164
L701.827 -85.0917
L692.404 -85.4969
L682.981 -85.7285
L673.558 -85.7865
L664.134 -85.7738
L654.711 -85.741
L645.288 -85.7939
L635.865 -85.8048
L626.441 -85.9092
L617.018 -86.196
L607.595 -86.5603
L598.171 -86.9992
L588.748 -87.2002
L579.325 -87.2352
L569.901 -87.304
L560.478 -87.3653
L551.055 -87.7968
L541.632 -87.9631
L532.208 -88.1659
L522.785 -88.147
L513.362 -88.1922
L503.939 -88.4634
L494.515 -88.6875
L485.092 -89.3728
L475.669 -89.7623
L466.246 -90.2481
L456.822 -90.2693
L447.399 -90.7207
L437.977 -91.1128
L428.554 -91.6515
L419.13 -91.73
L409.707 -92.0368
L400.284 -92.5985
L390.86 -93.5958
L381.437 -94.7571
L372.014 -95.7198
L362.591 -96.8128
L353.167 -97.9312
L343.744 -99.5477
L334.321 -100.973
L324.898 -101.959
L315.474 -102.645
L306.051 -103.313
L296.628 -104.136
L287.205 -104.331
L277.781 -104.476
L268.358 -104.306
L258.935 -104.62
L249.512 -104.548
L240.088 -104.901
L230.665 -104.74
L221.242 -105.077
L211.819 -104.802
L202.395 -105.015
L192.972 -104.284
L183.549 -104.012
L174.125 -103.132
L164.702 -102.88
L155.279 -102.094
L145.856 -101.364
L136.432 -99.9213
L127.009 -98.0869
L117.586 -95.6476
z
" id="mfe6e6273ee" style="stroke:#3b9c34;stroke-opacity:0.5;"/>
    </defs>
    <g clip-path="url(#p39f61a35d8)">
     <use style="fill:#3b9c34;fill-opacity:0.5;stroke:#3b9c34;stroke-opacity:0.5;" x="0.0" xlink:href="#mfe6e6273ee" y="635.8375"/>
    </g>
   </g>
   <g id="PolyCollection_6">
    <defs>
     <path d="
M117.586 -95.0824
L117.586 -94.6742
L127.009 -96.6309
L136.432 -98.8045
L145.856 -100.43
L155.279 -101.266
L164.702 -101.483
L174.125 -101.664
L183.549 -102.342
L192.972 -102.927
L202.395 -103.472
L211.819 -103.132
L221.242 -102.638
L230.665 -101.52
L240.088 -100.733
L249.512 -99.7826
L258.935 -99.5791
L268.358 -99.5309
L277.781 -100.253
L287.205 -101.044
L296.628 -102.271
L306.051 -103.528
L315.474 -105.1
L324.898 -107.061
L334.321 -109.102
L343.744 -111.492
L353.167 -113.616
L362.591 -116.305
L372.014 -118.836
L381.437 -121.878
L390.86 -124.764
L400.284 -128.08
L409.707 -131.988
L419.13 -136.366
L428.554 -141.197
L437.977 -145.421
L447.399 -149.824
L456.822 -153.823
L466.246 -158.517
L475.669 -163.017
L485.092 -168.139
L494.515 -173.055
L503.939 -178.33
L513.362 -183.439
L522.785 -188.923
L532.208 -194.732
L541.632 -200.709
L551.055 -206.712
L560.478 -212.606
L569.901 -218.561
L579.325 -225
L588.748 -231.394
L598.171 -238.233
L607.595 -244.393
L617.018 -250.748
L626.441 -256.587
L635.865 -262.888
L645.288 -269.012
L654.711 -275.379
L664.134 -281.377
L673.558 -287.591
L682.981 -293.664
L692.404 -300.294
L701.827 -306.833
L711.251 -313.672
L720.674 -320.262
L730.097 -326.709
L739.521 -332.731
L748.944 -338.252
L758.367 -343.877
L767.79 -349.337
L777.213 -354.984
L786.637 -360.025
L796.06 -365.226
L805.483 -370.28
L814.906 -375.8
L824.33 -380.881
L833.752 -385.784
L843.175 -390.212
L852.598 -394.968
L862.022 -399.56
L871.445 -404.295
L880.868 -408.434
L890.291 -412.65
L899.714 -416.379
L909.138 -420.14
L918.561 -423.563
L927.984 -427.261
L937.407 -431.169
L946.831 -435.34
L956.254 -438.954
L965.677 -442.286
L975.1 -444.961
L984.524 -447.948
L993.947 -450.257
L1003.37 -452.929
L1012.79 -455.014
L1022.22 -457.703
L1031.64 -459.805
L1041.06 -462.163
L1050.49 -463.913
L1059.91 -465.987
L1069.33 -467.965
L1078.76 -470.373
L1088.18 -472.516
L1097.6 -474.568
L1107.02 -476.206
L1116.45 -478.064
L1125.87 -479.682
L1135.29 -481.217
L1144.72 -482.42
L1154.14 -483.589
L1163.56 -485.019
L1172.99 -486.053
L1182.41 -487.036
L1191.83 -487.545
L1201.26 -488.146
L1210.68 -488.739
L1220.1 -489.143
L1229.53 -489.562
L1229.53 -500.265
L1229.53 -500.265
L1220.1 -499.784
L1210.68 -499.351
L1201.26 -498.854
L1191.83 -498.317
L1182.41 -497.893
L1172.99 -496.976
L1163.56 -496.069
L1154.14 -494.815
L1144.72 -493.839
L1135.29 -492.837
L1125.87 -491.52
L1116.45 -490.024
L1107.02 -488.233
L1097.6 -486.63
L1088.18 -484.761
L1078.76 -482.822
L1069.33 -480.674
L1059.91 -478.806
L1050.49 -476.976
L1041.06 -475.373
L1031.64 -473.319
L1022.22 -471.353
L1012.79 -469.021
L1003.37 -467.178
L993.947 -464.947
L984.524 -462.874
L975.1 -460.31
L965.677 -457.96
L956.254 -455.103
L946.831 -451.904
L937.407 -448.29
L927.984 -444.94
L918.561 -441.894
L909.138 -438.951
L899.714 -435.765
L890.291 -432.372
L880.868 -428.622
L871.445 -424.736
L862.022 -420.483
L852.598 -416.219
L843.175 -411.918
L833.752 -407.766
L824.33 -403.289
L814.906 -398.477
L805.483 -393.371
L796.06 -388.542
L786.637 -383.764
L777.213 -378.842
L767.79 -373.392
L758.367 -367.775
L748.944 -362.176
L739.521 -356.745
L730.097 -351.007
L720.674 -344.683
L711.251 -337.762
L701.827 -330.363
L692.404 -323.009
L682.981 -315.753
L673.558 -309.061
L664.134 -302.395
L654.711 -295.811
L645.288 -288.776
L635.865 -281.858
L626.441 -274.782
L617.018 -268.224
L607.595 -261.484
L598.171 -255.08
L588.748 -247.959
L579.325 -240.696
L569.901 -232.902
L560.478 -225.349
L551.055 -217.988
L541.632 -210.799
L532.208 -203.828
L522.785 -197.17
L513.362 -190.968
L503.939 -185.212
L494.515 -179.575
L485.092 -174.251
L475.669 -168.961
L466.246 -164.071
L456.822 -159.199
L447.399 -154.802
L437.977 -150.345
L428.554 -146.11
L419.13 -141.594
L409.707 -137.344
L400.284 -133.317
L390.86 -129.636
L381.437 -126.228
L372.014 -122.884
L362.591 -119.947
L353.167 -117.076
L343.744 -114.636
L334.321 -112.181
L324.898 -110.001
L315.474 -107.914
L306.051 -106.136
L296.628 -104.639
L287.205 -103.305
L277.781 -102.31
L268.358 -101.49
L258.935 -101.295
L249.512 -101.394
L240.088 -102.162
L230.665 -102.975
L221.242 -104.003
L211.819 -104.535
L202.395 -104.807
L192.972 -104.415
L183.549 -103.906
L174.125 -103.34
L164.702 -103.079
L155.279 -102.709
L145.856 -101.652
L136.432 -99.7957
L127.009 -97.3714
L117.586 -95.0824
z
" id="m94444ab6b1" style="stroke:#2777ad;stroke-opacity:0.5;"/>
    </defs>
    <g clip-path="url(#p39f61a35d8)">
     <use style="fill:#2777ad;fill-opacity:0.5;stroke:#2777ad;stroke-opacity:0.5;" x="0.0" xlink:href="#m94444ab6b1" y="635.8375"/>
    </g>
   </g>
   <g id="PolyCollection_7">
    <defs>
     <path d="
M117.588 -94.737
L117.588 -94.488
L127.011 -95.938
L136.435 -97.2819
L145.859 -98.4245
L155.283 -99.4259
L164.706 -100.156
L174.13 -100.641
L183.554 -100.789
L192.977 -100.777
L202.401 -100.665
L211.825 -100.556
L221.248 -100.524
L230.672 -100.501
L240.096 -100.434
L249.519 -100.302
L258.943 -100.226
L268.367 -100.231
L277.791 -100.219
L287.214 -100.068
L296.638 -99.7825
L306.062 -99.5988
L315.485 -99.529
L324.909 -99.6473
L334.333 -99.7267
L343.756 -99.7224
L353.18 -99.5313
L362.604 -99.2986
L372.027 -99.1111
L381.451 -99.0479
L390.875 -98.9446
L400.298 -98.8393
L409.722 -98.676
L419.146 -98.5615
L428.569 -98.3371
L437.993 -98.0528
L447.417 -97.6926
L456.841 -97.4161
L466.264 -97.2272
L475.688 -97.0957
L485.112 -96.9238
L494.535 -96.64
L503.959 -96.365
L513.383 -96.076
L522.806 -95.8781
L532.23 -95.5962
L541.654 -95.4421
L551.077 -95.3153
L560.501 -95.3602
L569.925 -95.3169
L579.349 -95.3176
L588.772 -95.2618
L598.196 -95.3165
L607.62 -95.4065
L617.043 -95.6513
L626.467 -95.9869
L635.891 -96.3882
L645.314 -96.8752
L654.738 -97.4351
L664.162 -98.1872
L673.585 -99.1027
L683.009 -100.245
L692.433 -101.575
L701.857 -102.989
L711.28 -104.356
L720.704 -105.82
L730.128 -107.437
L739.551 -109.215
L748.975 -111.067
L758.399 -113.126
L767.822 -115.436
L777.246 -118.1
L786.67 -121.019
L796.093 -124.026
L805.517 -126.833
L814.941 -129.421
L824.364 -131.828
L833.788 -134.179
L843.212 -136.294
L852.635 -138.175
L862.059 -139.672
L871.483 -141.025
L880.906 -142.126
L890.33 -143.17
L899.754 -143.949
L909.178 -144.523
L918.601 -144.946
L928.025 -145.298
L937.449 -145.642
L946.871 -146.024
L956.295 -146.493
L965.719 -146.953
L975.142 -147.347
L984.566 -147.66
L993.99 -148.008
L1003.41 -148.354
L1012.84 -148.74
L1022.26 -149.049
L1031.69 -149.449
L1041.11 -149.874
L1041.11 -152.614
L1041.11 -152.614
L1031.69 -152.206
L1022.26 -151.832
L1012.84 -151.467
L1003.41 -151.039
L993.99 -150.605
L984.566 -150.246
L975.142 -149.936
L965.719 -149.556
L956.295 -149.042
L946.871 -148.495
L937.449 -147.942
L928.025 -147.393
L918.601 -146.664
L909.178 -145.863
L899.754 -144.896
L890.33 -143.976
L880.906 -142.939
L871.483 -141.901
L862.059 -140.774
L852.635 -139.51
L843.212 -137.89
L833.788 -135.947
L824.364 -133.851
L814.941 -131.688
L805.517 -129.355
L796.093 -126.683
L786.67 -123.771
L777.246 -120.791
L767.822 -118.003
L758.399 -115.412
L748.975 -113.099
L739.551 -110.865
L730.128 -108.721
L720.704 -106.627
L711.28 -104.781
L701.857 -103.312
L692.433 -102.243
L683.009 -101.41
L673.585 -100.727
L664.162 -100.27
L654.738 -99.9673
L645.314 -99.7534
L635.891 -99.503
L626.467 -99.1933
L617.043 -98.914
L607.62 -98.7322
L598.196 -98.6436
L588.772 -98.5528
L579.349 -98.5433
L569.925 -98.5837
L560.501 -98.7752
L551.077 -98.9325
L541.654 -99.2289
L532.23 -99.4651
L522.806 -99.7982
L513.383 -99.9475
L503.959 -100.131
L494.535 -100.263
L485.112 -100.459
L475.688 -100.604
L466.264 -100.681
L456.841 -100.816
L447.417 -100.983
L437.993 -101.158
L428.569 -101.208
L419.146 -101.245
L409.722 -101.345
L400.298 -101.618
L390.875 -101.897
L381.451 -102.16
L372.027 -102.282
L362.604 -102.462
L353.18 -102.636
L343.756 -102.878
L334.333 -102.917
L324.909 -102.943
L315.485 -102.807
L306.062 -102.816
L296.638 -102.709
L287.214 -102.629
L277.791 -102.454
L268.367 -102.39
L258.943 -102.315
L249.519 -102.262
L240.096 -102.147
L230.672 -102.089
L221.248 -102.037
L211.825 -102.005
L202.401 -101.923
L192.977 -101.774
L183.554 -101.464
L174.13 -101.054
L164.706 -100.464
L155.283 -99.8249
L145.859 -98.8885
L136.435 -97.7793
L127.011 -96.3556
L117.588 -94.737
z
" id="mc15d82463b" style="stroke:#f2800e;stroke-opacity:0.5;"/>
    </defs>
    <g clip-path="url(#p39f61a35d8)">
     <use style="fill:#f2800e;fill-opacity:0.5;stroke:#f2800e;stroke-opacity:0.5;" x="0.0" xlink:href="#mc15d82463b" y="635.8375"/>
    </g>
   </g>
   <g id="line2d_1">
    <path clip-path="url(#p39f61a35d8)" d="
M117.586 539.127
L127.009 533.916
L136.432 527.075
L145.856 516.581
L155.279 502.615
L164.702 482.749
L174.125 458.037
L183.549 429.334
L192.972 400.043
L202.395 372.647
L211.819 348.816
L221.242 328.717
L230.665 312.12
L240.088 297.868
L249.512 285.58
L258.935 273.226
L268.358 260.756
L277.781 247.61
L287.205 235.237
L296.628 223.599
L306.051 213.113
L315.474 202.897
L324.898 193.003
L334.321 182.736
L343.744 172.92
L353.167 163.444
L362.591 154.762
L372.014 146.503
L381.437 139.031
L390.86 132.4
L400.284 126.58
L409.707 121.049
L419.13 115.748
L428.554 110.616
L437.977 106.04
L447.399 101.735
L456.822 97.7088
L466.246 93.4234
L475.669 89.2892
L485.092 85.0261
L494.515 81.2503
L503.939 77.4968
L513.362 74.3237
L522.785 71.3179
L532.208 68.6073
L541.632 65.909
L551.055 63.2827
L560.478 61.052
L569.901 59.0097
L579.325 57.2762
L588.748 55.529
L598.171 53.8376
L607.595 52.1153
L617.018 50.3346
L626.441 48.6334
L635.865 46.9941
L645.288 45.5768
L654.711 44.2648
L664.134 43.0534
L673.558 41.8394
L682.981 40.7482
L692.404 39.8529
L701.827 39.0779
L711.251 38.4071
L720.674 37.6941
L730.097 37.0704
L739.521 36.407
L748.944 35.7919
L758.367 35.3257
L767.79 35.0715
L777.213 35.0777
L786.637 35.2339
L796.06 35.5104
L805.483 35.9048
L814.906 36.2396
L824.33 36.6934
L833.752 37.0828
L843.175 37.6259
L852.598 38.0673
L862.022 38.5906
L871.445 39.0296
L880.868 39.5838
L890.291 40.1307
L899.714 40.8176
L909.138 41.5567
L918.561 42.3701
L927.984 43.0707
L937.407 43.5692
L946.831 43.8656
L956.254 44.157
L965.677 44.4732
L975.1 44.9258
L984.524 45.4255
L993.947 46.1124
L1003.37 46.8502
L1012.79 47.6612
L1022.22 48.332
L1031.64 49.0413
L1041.06 49.7035
L1050.49 50.4896
L1059.91 51.1902
L1069.33 51.9318
L1078.76 52.5716
L1088.18 53.261
L1097.6 53.8153
L1107.02 54.3584
L1116.45 54.7094
L1125.87 55.1186
L1135.29 55.5166
L1144.72 56.056
L1154.14 56.6152
L1163.56 57.2997
L1172.99 57.9247
L1182.41 58.4814
L1191.83 58.8249
L1201.26 59.218" style="fill:none;stroke:#c7b1d3;stroke-linecap:square;stroke-width:2;"/>
   </g>
   <g id="line2d_2">
    <path clip-path="url(#p39f61a35d8)" d="
M117.586 541.17
L127.009 539.475
L136.432 537.794
L145.856 536.661
L155.279 536.02
L164.702 535.583
L174.125 535.29
L183.549 534.519
L192.972 534.045
L202.395 533.21
L211.819 532.939
L221.242 532.458
L230.665 532.774
L240.088 532.913
L249.512 533.447
L258.935 533.411
L268.358 533.826
L277.781 533.827
L287.205 534.144
L296.628 533.947
L306.051 534.111
L315.474 534.281
L324.898 534.329
L334.321 534.283
L343.744 533.765
L353.167 533.993
L362.591 534.205
L372.014 535.284
L381.437 535.983
L390.86 536.82
L400.284 536.986
L409.707 536.989
L419.13 537.01
L428.554 537.284
L437.977 537.941
L447.399 538.441
L456.822 539.238
L466.246 539.775
L475.669 540.684
L485.092 541.123
L494.515 541.85
L503.939 542.173
L513.362 542.632
L522.785 542.808
L532.208 542.874
L541.632 543.144
L551.055 543.424
L560.478 543.919
L569.901 544.24
L579.325 544.39
L588.748 544.688
L598.171 544.931
L607.595 545.517
L617.018 545.969
L626.441 546.35
L635.865 546.557
L645.288 546.601
L654.711 546.612
L664.134 546.578
L673.558 546.529
L682.981 546.805
L692.404 547.09
L701.827 547.624
L711.251 547.89
L720.674 547.846
L730.097 547.577
L739.521 547.307
L748.944 547.681
L758.367 547.973
L767.79 548.305
L777.213 548.164
L786.637 548.404
L796.06 548.665
L805.483 549.035
L814.906 549.151
L824.33 549.302
L833.752 549.652
L843.175 549.841
L852.598 549.824
L862.022 549.644
L871.445 549.58
L880.868 549.812
L890.291 549.968
L899.714 550.117
L909.138 550.014
L918.561 549.799
L927.984 549.897
L937.407 549.854
L946.831 549.963
L956.254 549.74
L965.677 549.674
L975.1 549.73
L984.524 549.685
L993.947 550.031
L1003.37 550.086
L1012.79 550.384
L1022.22 550.001
L1031.64 549.936
L1041.06 549.569
L1050.49 549.698
L1059.91 549.56
L1069.33 549.524
L1078.76 549.229
L1088.18 548.753
L1097.6 548.74
L1107.02 548.956
L1116.45 549.559
L1125.87 549.774
L1135.29 549.877
L1144.72 549.861
L1154.14 549.822
L1163.56 549.468
L1172.99 549.399
L1182.41 549.283
L1191.83 549.326
L1201.26 548.946" style="fill:none;stroke:#d92526;stroke-linecap:square;stroke-width:2;"/>
   </g>
   <g id="line2d_3">
    <path clip-path="url(#p39f61a35d8)" d="
M117.586 541.496
L127.009 540.157
L136.432 538.613
L145.856 537.629
L155.279 536.706
L164.702 536.304
L174.125 535.806
L183.549 535.548
L192.972 535.379
L202.395 535.431
L211.819 535.378
L221.242 535.265
L230.665 535.15
L240.088 535.239
L249.512 535.162
L258.935 534.858
L268.358 534.097
L277.781 532.992
L287.205 531.31
L296.628 528.756
L306.051 524.718
L315.474 518.743
L324.898 510.212
L334.321 498.763
L343.744 483.656
L353.167 465.417
L362.591 446.11
L372.014 428.626
L381.437 414.724
L390.86 403.754
L400.284 394.384
L409.707 385.388
L419.13 376.09
L428.554 366.618
L437.977 357.5
L447.399 349.709
L456.822 343.314
L466.246 337.646
L475.669 332.183
L485.092 326.465
L494.515 320.743
L503.939 314.846
L513.362 309.076
L522.785 303.09
L532.208 297.034
L541.632 290.936
L551.055 285.306
L560.478 280.242
L569.901 275.503
L579.325 270.757
L588.748 265.912
L598.171 260.898
L607.595 255.83
L617.018 250.596
L626.441 245.403
L635.865 240.12
L645.288 234.888
L654.711 229.745
L664.134 224.711
L673.558 219.732
L682.981 214.648
L692.404 209.606
L701.827 204.596
L711.251 199.737
L720.674 195.08
L730.097 190.653
L739.521 186.477
L748.944 182.199
L758.367 178.019
L767.79 173.753
L777.213 169.899
L786.637 166.141
L796.06 162.712
L805.483 159.372
L814.906 156.232
L824.33 153.247
L833.752 150.395
L843.175 147.703
L852.598 145.161
L862.022 142.671
L871.445 140.309
L880.868 137.99
L890.291 135.978
L899.714 133.994
L909.138 132.338
L918.561 130.849
L927.984 129.799
L937.407 128.842
L946.831 128.205
L956.254 127.944
L965.677 128.246
L975.1 128.721
L984.524 129.269
L993.947 129.886
L1003.37 130.771
L1012.79 131.753
L1022.22 132.657
L1031.64 133.432
L1041.06 134.265
L1050.49 135.139
L1059.91 136.103
L1069.33 136.983
L1078.76 137.915
L1088.18 138.757
L1097.6 139.613
L1107.02 140.285
L1116.45 140.946
L1125.87 141.594
L1135.29 142.469
L1144.72 143.372
L1154.14 144.324
L1163.56 145.129
L1172.99 145.963
L1182.41 146.69
L1191.83 147.433
L1201.26 148.11" style="fill:none;stroke:#6c4595;stroke-linecap:square;stroke-width:2;"/>
   </g>
   <g id="line2d_4">
    <path clip-path="url(#p39f61a35d8)" d="
M117.586 541.397
L127.009 539.929
L136.432 538.423
L145.856 537.477
L155.279 536.762
L164.702 536.403
L174.125 535.992
L183.549 535.7
L192.972 535.611
L202.395 535.671
L211.819 535.85
L221.242 535.88
L230.665 535.976
L240.088 536.024
L249.512 536.084
L258.935 535.9
L268.358 535.715
L277.781 535.667
L287.205 535.781
L296.628 535.907
L306.051 536.007
L315.474 536.128
L324.898 536.359
L334.321 536.665
L343.744 537.141
L353.167 537.616
L362.591 538.097
L372.014 538.588
L381.437 539.138
L390.86 539.634
L400.284 540.039
L409.707 540.35
L419.13 540.684
L428.554 540.967
L437.977 541.273
L447.399 541.559
L456.822 541.883
L466.246 542.142
L475.669 542.403
L485.092 542.607
L494.515 542.871
L503.939 543.132
L513.362 543.433
L522.785 543.67
L532.208 543.888
L541.632 544.118
L551.055 544.428
L560.478 544.734
L569.901 545.015
L579.325 545.23
L588.748 545.475
L598.171 545.715
L607.595 545.976
L617.018 546.185
L626.441 546.367
L635.865 546.488
L645.288 546.624
L654.711 546.8
L664.134 547.028
L673.558 547.268
L682.981 547.433
L692.404 547.573
L701.827 547.66
L711.251 547.784
L720.674 547.883
L730.097 548.002
L739.521 548.09
L748.944 548.181
L758.367 548.276
L767.79 548.399
L777.213 548.542
L786.637 548.67
L796.06 548.796
L805.483 548.901
L814.906 548.97
L824.33 549.007
L833.752 549.006
L843.175 549.048
L852.598 549.082
L862.022 549.162
L871.445 549.224
L880.868 549.324
L890.291 549.407
L899.714 549.469
L909.138 549.477
L918.561 549.495
L927.984 549.539
L937.407 549.588
L946.831 549.6
L956.254 549.595
L965.677 549.626
L975.1 549.683
L984.524 549.742
L993.947 549.783
L1003.37 549.848
L1012.79 549.907
L1022.22 549.962
L1031.64 549.952
L1041.06 549.946
L1050.49 549.941
L1059.91 549.973
L1069.33 550.011
L1078.76 550.043
L1088.18 550.091
L1097.6 550.135
L1107.02 550.174
L1116.45 550.176
L1125.87 550.148
L1135.29 550.153
L1144.72 550.158
L1154.14 550.185
L1163.56 550.166
L1172.99 550.149
L1182.41 550.143
L1191.83 550.158
L1201.26 550.202" style="fill:none;stroke:#f69d9c;stroke-linecap:square;stroke-width:2;"/>
   </g>
   <g id="line2d_5">
    <path clip-path="url(#p39f61a35d8)" d="
M117.586 540.549
L127.009 538.407
L136.432 536.69
L145.856 535.342
L155.279 534.603
L164.702 533.932
L174.125 533.706
L183.549 533.034
L192.972 532.838
L202.395 532.334
L211.819 532.486
L221.242 532.298
L230.665 532.556
L240.088 532.526
L249.512 532.809
L258.935 532.768
L268.358 532.965
L277.781 532.86
L287.205 532.97
L296.628 533.132
L306.051 533.76
L315.474 534.295
L324.898 534.917
L334.321 535.8
L343.744 537.125
L353.167 538.572
L362.591 539.667
L372.014 540.709
L381.437 541.652
L390.86 542.704
L400.284 543.597
L409.707 544.152
L419.13 544.503
L428.554 544.7
L437.977 545.224
L447.399 545.659
L456.822 546.1
L466.246 546.221
L475.669 546.647
L485.092 547.025
L494.515 547.612
L503.939 547.841
L513.362 548.062
L522.785 548.124
L532.208 548.148
L541.632 548.332
L551.055 548.484
L560.478 548.823
L569.901 548.903
L579.325 548.989
L588.748 549.054
L598.171 549.228
L607.595 549.595
L617.018 549.938
L626.441 550.242
L635.865 550.363
L645.288 550.376
L654.711 550.411
L664.134 550.381
L673.558 550.392
L682.981 550.476
L692.404 550.696
L701.827 551.054
L711.251 551.312
L720.674 551.329
L730.097 551.248
L739.521 551.183
L748.944 551.489
L758.367 551.709
L767.79 551.951
L777.213 551.871
L786.637 552.036
L796.06 552.212
L805.483 552.54
L814.906 552.65
L824.33 552.618
L833.752 552.65
L843.175 552.502
L852.598 552.404
L862.022 552.19
L871.445 552.173
L880.868 552.29
L890.291 552.395
L899.714 552.499
L909.138 552.424
L918.561 552.171
L927.984 552.008
L937.407 551.677
L946.831 551.57
L956.254 551.306
L965.677 551.217
L975.1 551.142
L984.524 550.956
L993.947 551.002
L1003.37 550.858
L1012.79 550.981
L1022.22 550.872
L1031.64 550.94
L1041.06 550.779
L1050.49 550.642
L1059.91 550.446
L1069.33 550.293
L1078.76 550.053
L1088.18 549.747
L1097.6 549.637
L1107.02 549.724
L1116.45 549.76
L1125.87 549.561
L1135.29 549.273
L1144.72 549.115
L1154.14 549.063
L1163.56 548.822
L1172.99 548.686
L1182.41 548.6
L1191.83 548.666
L1201.26 548.536" style="fill:none;stroke:#3b9c34;stroke-linecap:square;stroke-width:2;"/>
   </g>
   <g id="line2d_6">
    <path clip-path="url(#p39f61a35d8)" d="
M117.586 540.959
L127.009 538.836
L136.432 536.537
L145.856 534.796
L155.279 533.85
L164.702 533.556
L174.125 533.336
L183.549 532.713
L192.972 532.166
L202.395 531.698
L211.819 532.004
L221.242 532.517
L230.665 533.59
L240.088 534.39
L249.512 535.249
L258.935 535.4
L268.358 535.327
L277.781 534.556
L287.205 533.663
L296.628 532.382
L306.051 531.006
L315.474 529.331
L324.898 527.307
L334.321 525.196
L343.744 522.773
L353.167 520.492
L362.591 517.712
L372.014 514.978
L381.437 511.785
L390.86 508.637
L400.284 505.139
L409.707 501.171
L419.13 496.857
L428.554 492.184
L437.977 487.954
L447.399 483.525
L456.822 479.326
L466.246 474.544
L475.669 469.849
L485.092 464.642
L494.515 459.522
L503.939 454.066
L513.362 448.634
L522.785 442.791
L532.208 436.557
L541.632 430.083
L551.055 423.488
L560.478 416.86
L569.901 410.106
L579.325 402.989
L588.748 396.161
L598.171 389.181
L607.595 382.899
L617.018 376.352
L626.441 370.153
L635.865 363.464
L645.288 356.943
L654.711 350.242
L664.134 343.952
L673.558 337.511
L682.981 331.129
L692.404 324.186
L701.827 317.24
L711.251 310.121
L720.674 303.365
L730.097 296.979
L739.521 291.099
L748.944 285.623
L758.367 280.011
L767.79 274.473
L777.213 268.924
L786.637 263.943
L796.06 258.953
L805.483 254.012
L814.906 248.699
L824.33 243.752
L833.752 239.063
L843.175 234.772
L852.598 230.244
L862.022 225.816
L871.445 221.322
L880.868 217.309
L890.291 213.326
L899.714 209.765
L909.138 206.292
L918.561 203.109
L927.984 199.737
L937.407 196.108
L946.831 192.215
L956.254 188.809
L965.677 185.714
L975.1 183.202
L984.524 180.427
L993.947 178.236
L1003.37 175.784
L1012.79 173.82
L1022.22 171.309
L1031.64 169.275
L1041.06 167.069
L1050.49 165.393
L1059.91 163.441
L1069.33 161.518
L1078.76 159.24
L1088.18 157.199
L1097.6 155.239
L1107.02 153.618
L1116.45 151.794
L1125.87 150.236
L1135.29 148.81
L1144.72 147.708
L1154.14 146.636
L1163.56 145.294
L1172.99 144.323
L1182.41 143.373
L1191.83 142.907
L1201.26 142.338" style="fill:none;stroke:#2777ad;stroke-linecap:square;stroke-width:2;"/>
   </g>
   <g id="line2d_7">
    <path clip-path="url(#p39f61a35d8)" d="
M117.588 541.225
L127.011 539.691
L136.435 538.307
L145.859 537.181
L155.283 536.212
L164.706 535.528
L174.13 534.99
L183.554 534.711
L192.977 534.562
L202.401 534.544
L211.825 534.557
L221.248 534.557
L230.672 534.542
L240.096 534.547
L249.519 534.555
L258.943 534.567
L268.367 534.527
L277.791 534.501
L287.214 534.489
L296.638 534.592
L306.062 534.63
L315.485 534.67
L324.909 534.542
L334.333 534.516
L343.756 534.537
L353.18 534.754
L362.604 534.957
L372.027 535.141
L381.451 535.233
L390.875 535.417
L400.298 535.609
L409.722 535.827
L419.146 535.934
L428.569 536.065
L437.993 536.232
L447.417 536.5
L456.841 536.721
L466.264 536.883
L475.688 536.988
L485.112 537.146
L494.535 537.386
L503.959 537.589
L513.383 537.826
L522.806 537.999
L532.23 538.307
L541.654 538.502
L551.077 538.714
L560.501 538.77
L569.925 538.887
L579.349 538.907
L588.772 538.93
L598.196 538.857
L607.62 538.768
L617.043 538.555
L626.467 538.247
L635.891 537.892
L645.314 537.523
L654.738 537.136
L664.162 536.609
L673.585 535.923
L683.009 535.01
L692.433 533.929
L701.857 532.687
L711.28 531.269
L720.704 529.614
L730.128 527.759
L739.551 525.798
L748.975 523.754
L758.399 521.569
L767.822 519.118
L777.246 516.392
L786.67 513.442
L796.093 510.483
L805.517 507.743
L814.941 505.283
L824.364 502.998
L833.788 500.775
L843.212 498.746
L852.635 496.995
L862.059 495.615
L871.483 494.375
L880.906 493.305
L890.33 492.265
L899.754 491.415
L909.178 490.645
L918.601 490.033
L928.025 489.492
L937.449 489.046
L946.871 488.578
L956.295 488.07
L965.719 487.583
L975.142 487.196
L984.566 486.885
L993.99 486.531
L1003.41 486.141
L1012.84 485.734
L1022.26 485.397
L1031.69 485.01
L1041.11 484.593" style="fill:none;stroke:#f2800e;stroke-linecap:square;stroke-width:2;"/>
   </g>
   <g id="patch_3">
    <path d="
M79.8934 565.2
L79.8934 7.2" style="fill:none;stroke:#000000;stroke-linecap:square;stroke-linejoin:miter;stroke-width:2;"/>
   </g>
   <g id="patch_4">
    <path d="
M79.8934 565.2
L1195.89 565.2" style="fill:none;stroke:#000000;stroke-linecap:square;stroke-linejoin:miter;stroke-width:2;"/>
   </g>
   <g id="matplotlib.axis_1">
    <g id="xtick_1">
     <g id="line2d_8">
      <defs>
       <path d="
M0 0
L0 10" id="md076d4ca60" style="stroke:#000000;stroke-width:3;"/>
      </defs>
      <g>
       <use style="stroke:#000000;stroke-width:3;" x="79.8934375" xlink:href="#md076d4ca60" y="565.2"/>
      </g>
     </g>
     <g id="text_1">
      <!-- 0 -->
      <defs>
       <path d="
M27.0469 69.9219
Q40.625 69.9219 46.6875 58.7344
Q51.375 50.0938 51.375 35.0625
Q51.375 20.7969 47.125 11.4688
Q40.9688 -1.90625 27 -1.90625
Q14.4062 -1.90625 8.25 9.03125
Q3.125 18.1719 3.125 33.5469
Q3.125 45.4531 6.20312 54
Q11.9688 69.9219 27.0469 69.9219
z

M26.9531 6.10938
Q33.7969 6.10938 37.8438 12.1562
Q41.8906 18.2188 41.8906 34.7188
Q41.8906 46.625 38.9531 54.3125
Q36.0312 62.0156 27.5938 62.0156
Q19.8281 62.0156 16.2344 54.7031
Q12.6406 47.4062 12.6406 33.2031
Q12.6406 22.5156 14.9375 16.0156
Q18.4531 6.10938 26.9531 6.10938
z
" id="Helvetica-30"/>
      </defs>
      <g transform="translate(74.5859375 594.9815625)scale(0.22 -0.22)">
       <use xlink:href="#Helvetica-30"/>
      </g>
     </g>
    </g>
    <g id="xtick_2">
     <g id="line2d_9">
      <g>
       <use style="stroke:#000000;stroke-width:3;" x="265.8934375" xlink:href="#md076d4ca60" y="565.2"/>
      </g>
     </g>
     <g id="text_2">
      <!-- 5 -->
      <defs>
       <path d="
M12.3594 17.8281
Q13.2344 10.2969 19.3438 7.42188
Q22.4688 5.95312 26.5625 5.95312
Q34.375 5.95312 38.125 10.9375
Q41.8906 15.9219 41.8906 21.9688
Q41.8906 29.2969 37.4219 33.2969
Q32.9531 37.3125 26.7031 37.3125
Q22.1719 37.3125 18.9219 35.5469
Q15.6719 33.7969 13.375 30.6719
L5.76562 31.1094
L11.0781 68.75
L47.4062 68.75
L47.4062 60.25
L17.6719 60.25
L14.7031 40.8281
Q17.1406 42.6719 19.3438 43.6094
Q23.25 45.2188 28.375 45.2188
Q37.9844 45.2188 44.6719 39.0156
Q51.375 32.8125 51.375 23.2969
Q51.375 13.375 45.2344 5.79688
Q39.1094 -1.76562 25.6875 -1.76562
Q17.1406 -1.76562 10.5625 3.04688
Q4 7.85938 3.21875 17.8281
z
" id="Helvetica-35"/>
      </defs>
      <g transform="translate(260.59625 594.9815625)scale(0.22 -0.22)">
       <use xlink:href="#Helvetica-35"/>
      </g>
     </g>
    </g>
    <g id="xtick_3">
     <g id="line2d_10">
      <g>
       <use style="stroke:#000000;stroke-width:3;" x="451.8934375" xlink:href="#md076d4ca60" y="565.2"/>
      </g>
     </g>
     <g id="text_3">
      <!-- 10 -->
      <defs>
       <path d="
M9.57812 49.5156
L9.57812 56.25
Q19.0938 57.1719 22.8438 59.3438
Q26.6094 61.5312 28.4688 69.625
L35.4062 69.625
L35.4062 0
L26.0312 0
L26.0312 49.5156
z
" id="Helvetica-31"/>
      </defs>
      <g transform="translate(441.17875 594.9815625)scale(0.22 -0.22)">
       <use xlink:href="#Helvetica-31"/>
       <use x="55.615234375" xlink:href="#Helvetica-30"/>
      </g>
     </g>
    </g>
    <g id="xtick_4">
     <g id="line2d_11">
      <g>
       <use style="stroke:#000000;stroke-width:3;" x="637.8934375" xlink:href="#md076d4ca60" y="565.2"/>
      </g>
     </g>
     <g id="text_4">
      <!-- 15 -->
      <g transform="translate(627.17875 594.9815625)scale(0.22 -0.22)">
       <use xlink:href="#Helvetica-31"/>
       <use x="55.615234375" xlink:href="#Helvetica-35"/>
      </g>
     </g>
    </g>
    <g id="xtick_5">
     <g id="line2d_12">
      <g>
       <use style="stroke:#000000;stroke-width:3;" x="823.8934375" xlink:href="#md076d4ca60" y="565.2"/>
      </g>
     </g>
     <g id="text_5">
      <!-- 20 -->
      <defs>
       <path d="
M3.125 0
Q3.60938 9.03125 6.85938 15.7188
Q10.1094 22.4062 19.5312 27.875
L28.9062 33.2969
Q35.2031 36.9688 37.75 39.5469
Q41.75 43.6094 41.75 48.8281
Q41.75 54.9375 38.0781 58.5156
Q34.4219 62.1094 28.3281 62.1094
Q19.2812 62.1094 15.8281 55.2812
Q13.9688 51.6094 13.7656 45.125
L4.82812 45.125
Q4.98438 54.25 8.20312 60.0156
Q13.9219 70.1719 28.375 70.1719
Q40.375 70.1719 45.9219 63.6719
Q51.4688 57.1719 51.4688 49.2188
Q51.4688 40.8281 45.5625 34.8594
Q42.1406 31.3906 33.2969 26.4688
L26.6094 22.75
Q21.8281 20.125 19.0938 17.7188
Q14.2031 13.4844 12.9375 8.29688
L51.125 8.29688
L51.125 0
L3.125 0
z
" id="Helvetica-32"/>
      </defs>
      <g transform="translate(812.46890625 594.9815625)scale(0.22 -0.22)">
       <use xlink:href="#Helvetica-32"/>
       <use x="55.615234375" xlink:href="#Helvetica-30"/>
      </g>
     </g>
    </g>
    <g id="xtick_6">
     <g id="line2d_13">
      <g>
       <use style="stroke:#000000;stroke-width:3;" x="1009.8934375" xlink:href="#md076d4ca60" y="565.2"/>
      </g>
     </g>
     <g id="text_6">
      <!-- 25 -->
      <g transform="translate(998.46890625 594.9815625)scale(0.22 -0.22)">
       <use xlink:href="#Helvetica-32"/>
       <use x="55.615234375" xlink:href="#Helvetica-35"/>
      </g>
     </g>
    </g>
    <g id="xtick_7">
     <g id="line2d_14">
      <g>
       <use style="stroke:#000000;stroke-width:3;" x="1195.8934375" xlink:href="#md076d4ca60" y="565.2"/>
      </g>
     </g>
     <g id="text_7">
      <!-- 30 -->
      <defs>
       <path d="
M25.9844 -1.90625
Q13.5781 -1.90625 7.98438 4.90625
Q2.39062 11.7188 2.39062 21.4844
L11.5781 21.4844
Q12.1562 14.7031 14.1094 11.625
Q17.5312 6.10938 26.4688 6.10938
Q33.4062 6.10938 37.5938 9.8125
Q41.7969 13.5312 41.7969 19.3906
Q41.7969 26.6094 37.375 29.4844
Q32.9531 32.375 25.0938 32.375
Q24.2188 32.375 23.3125 32.3438
Q22.4062 32.3281 21.4844 32.2812
L21.4844 40.0469
Q22.8594 39.8906 23.7812 39.8438
Q24.7031 39.7969 25.7812 39.7969
Q30.7188 39.7969 33.8906 41.3594
Q39.4531 44.0938 39.4531 51.125
Q39.4531 56.3438 35.7344 59.1719
Q32.0312 62.0156 27.0938 62.0156
Q18.3125 62.0156 14.9375 56.1562
Q13.0938 52.9375 12.8438 46.9688
L4.15625 46.9688
Q4.15625 54.7812 7.28125 60.25
Q12.6406 70.0156 26.1719 70.0156
Q36.8594 70.0156 42.7188 65.25
Q48.5781 60.5 48.5781 51.4688
Q48.5781 45.0156 45.125 41.0156
Q42.9688 38.5312 39.5469 37.1094
Q45.0625 35.5938 48.1562 31.2656
Q51.2656 26.9531 51.2656 20.7031
Q51.2656 10.6875 44.6719 4.39062
Q38.0938 -1.90625 25.9844 -1.90625
z
" id="Helvetica-33"/>
      </defs>
      <g transform="translate(1184.388125 594.9815625)scale(0.22 -0.22)">
       <use xlink:href="#Helvetica-33"/>
       <use x="55.615234375" xlink:href="#Helvetica-30"/>
      </g>
     </g>
    </g>
    <g id="text_8">
     <!-- Hours -->
     <defs>
      <path d="
M15.2344 52.2969
L15.2344 17.5781
Q15.2344 13.5781 16.5 11.0312
Q18.8438 6.34375 25.25 6.34375
Q34.4219 6.34375 37.75 14.5469
Q39.5469 18.9531 39.5469 26.6094
L39.5469 52.2969
L48.3438 52.2969
L48.3438 0
L40.0469 0
L40.1406 7.71875
Q38.4219 4.73438 35.8906 2.6875
Q30.8594 -1.42188 23.6875 -1.42188
Q12.5 -1.42188 8.45312 6.0625
Q6.25 10.0625 6.25 16.75
L6.25 52.2969
z

M27.2969 53.5625
z
" id="Helvetica-75"/>
      <path d="
M6.6875 52.2969
L15.0469 52.2969
L15.0469 43.2656
Q16.0625 45.9062 20.0625 49.6875
Q24.0781 53.4688 29.2969 53.4688
Q29.5469 53.4688 30.125 53.4219
Q30.7188 53.375 32.125 53.2188
L32.125 43.9531
Q31.3438 44.0938 30.6875 44.1406
Q30.0312 44.1875 29.25 44.1875
Q22.6094 44.1875 19.0469 39.9062
Q15.4844 35.6406 15.4844 30.0781
L15.4844 0
L6.6875 0
z
" id="Helvetica-72"/>
      <path d="
M11.6719 16.4062
Q12.0625 12.0156 13.875 9.67188
Q17.1875 5.42188 25.3906 5.42188
Q30.2812 5.42188 33.9844 7.54688
Q37.7031 9.67188 37.7031 14.1094
Q37.7031 17.4844 34.7188 19.2344
Q32.8125 20.3125 27.2031 21.7344
L20.2188 23.4844
Q13.5312 25.1406 10.3594 27.2031
Q4.6875 30.7656 4.6875 37.0625
Q4.6875 44.4844 10.0312 49.0625
Q15.375 53.6562 24.4219 53.6562
Q36.2344 53.6562 41.4531 46.7344
Q44.7344 42.3281 44.625 37.25
L36.3281 37.25
Q36.0781 40.2344 34.2344 42.6719
Q31.2031 46.1406 23.7344 46.1406
Q18.75 46.1406 16.1875 44.2344
Q13.625 42.3281 13.625 39.2031
Q13.625 35.7969 17 33.7344
Q18.9531 32.5156 22.75 31.5938
L28.5625 30.1719
Q38.0312 27.875 41.2656 25.7344
Q46.3906 22.3594 46.3906 15.1406
Q46.3906 8.15625 41.0938 3.07812
Q35.7969 -2 24.9531 -2
Q13.2812 -2 8.42188 3.29688
Q3.5625 8.59375 3.21875 16.4062
z

M24.6562 53.5625
z
" id="Helvetica-73"/>
      <path d="
M27.2031 5.67188
Q35.9375 5.67188 39.1875 12.2812
Q42.4375 18.8906 42.4375 27
Q42.4375 34.3281 40.0938 38.9219
Q36.375 46.1406 27.2969 46.1406
Q19.2344 46.1406 15.5781 39.9844
Q11.9219 33.8438 11.9219 25.1406
Q11.9219 16.7969 15.5781 11.2344
Q19.2344 5.67188 27.2031 5.67188
z

M27.5469 53.8125
Q37.6406 53.8125 44.625 47.0625
Q51.6094 40.3281 51.6094 27.25
Q51.6094 14.5938 45.4531 6.34375
Q39.3125 -1.90625 26.375 -1.90625
Q15.5781 -1.90625 9.21875 5.39062
Q2.875 12.7031 2.875 25
Q2.875 38.1875 9.5625 46
Q16.2656 53.8125 27.5469 53.8125
z

M27.25 53.5625
z
" id="Helvetica-6f"/>
      <path d="
M7.85938 71.7344
L17.6719 71.7344
L17.6719 42.0938
L54.9844 42.0938
L54.9844 71.7344
L64.7969 71.7344
L64.7969 0
L54.9844 0
L54.9844 33.5469
L17.6719 33.5469
L17.6719 0
L7.85938 0
z
" id="Helvetica-48"/>
     </defs>
     <g transform="translate(604.70890625 623.218125)scale(0.26 -0.26)">
      <use xlink:href="#Helvetica-48"/>
      <use x="72.216796875" xlink:href="#Helvetica-6f"/>
      <use x="127.83203125" xlink:href="#Helvetica-75"/>
      <use x="183.447265625" xlink:href="#Helvetica-72"/>
      <use x="216.748046875" xlink:href="#Helvetica-73"/>
     </g>
    </g>
   </g>
   <g id="matplotlib.axis_2">
    <g id="ytick_1">
     <g id="line2d_15">
      <defs>
       <path d="
M0 0
L-10 0" id="mc86e36c9ad" style="stroke:#000000;stroke-width:3;"/>
      </defs>
      <g>
       <use style="stroke:#000000;stroke-width:3;" x="79.8934375" xlink:href="#mc86e36c9ad" y="542.88"/>
      </g>
     </g>
     <g id="text_9">
      <!-- 0.0 -->
      <defs>
       <path d="
M8.54688 10.6406
L18.75 10.6406
L18.75 0
L8.54688 0
z
" id="Helvetica-2e"/>
      </defs>
      <g transform="translate(36.9325 548.47796875)scale(0.22 -0.22)">
       <use xlink:href="#Helvetica-30"/>
       <use x="55.615234375" xlink:href="#Helvetica-2e"/>
       <use x="83.3984375" xlink:href="#Helvetica-30"/>
      </g>
     </g>
    </g>
    <g id="ytick_2">
     <g id="line2d_16">
      <g>
       <use style="stroke:#000000;stroke-width:3;" x="79.8934375" xlink:href="#mc86e36c9ad" y="319.68"/>
      </g>
     </g>
     <g id="text_10">
      <!-- 0.5 -->
      <g transform="translate(36.9325 325.27796875)scale(0.22 -0.22)">
       <use xlink:href="#Helvetica-30"/>
       <use x="55.615234375" xlink:href="#Helvetica-2e"/>
       <use x="83.3984375" xlink:href="#Helvetica-35"/>
      </g>
     </g>
    </g>
    <g id="ytick_3">
     <g id="line2d_17">
      <g>
       <use style="stroke:#000000;stroke-width:3;" x="79.8934375" xlink:href="#mc86e36c9ad" y="96.48"/>
      </g>
     </g>
     <g id="text_11">
      <!-- 1.0 -->
      <g transform="translate(38.3521875 102.07796875)scale(0.22 -0.22)">
       <use xlink:href="#Helvetica-31"/>
       <use x="55.615234375" xlink:href="#Helvetica-2e"/>
       <use x="83.3984375" xlink:href="#Helvetica-30"/>
      </g>
     </g>
    </g>
    <g id="text_12">
     <!-- Cell density (OD600) -->
     <defs>
      <path id="Helvetica-20"/>
      <path d="
M6.6875 71.7344
L15.4844 71.7344
L15.4844 0
L6.6875 0
z
" id="Helvetica-6c"/>
      <path d="
M28.2188 53.4688
Q33.7969 53.4688 39.0156 50.8594
Q44.2344 48.25 46.9688 44.0938
Q49.6094 40.1406 50.4844 34.8594
Q51.2656 31.25 51.2656 23.3438
L12.9375 23.3438
Q13.1875 15.375 16.7031 10.5625
Q20.2188 5.76562 27.5938 5.76562
Q34.4688 5.76562 38.5781 10.2969
Q40.9219 12.9375 41.8906 16.4062
L50.5312 16.4062
Q50.2031 13.5312 48.2656 9.98438
Q46.3438 6.45312 43.9531 4.20312
Q39.9375 0.296875 34.0312 -1.07812
Q30.8594 -1.85938 26.8594 -1.85938
Q17.0938 -1.85938 10.2969 5.25
Q3.51562 12.3594 3.51562 25.1406
Q3.51562 37.75 10.3438 45.6094
Q17.1875 53.4688 28.2188 53.4688
z

M42.2344 30.3281
Q41.7031 36.0312 39.75 39.4531
Q36.1406 45.7969 27.6875 45.7969
Q21.625 45.7969 17.5156 41.4219
Q13.4219 37.0625 13.1875 30.3281
z

M27.3906 53.5625
z
" id="Helvetica-65"/>
      <path d="
M6.45312 52.0469
L15.375 52.0469
L15.375 0
L6.45312 0
z

M6.45312 71.7344
L15.375 71.7344
L15.375 61.7656
L6.45312 61.7656
z
" id="Helvetica-69"/>
      <path d="
M8.20312 66.8906
L17.0938 66.8906
L17.0938 52.2969
L25.4375 52.2969
L25.4375 45.125
L17.0938 45.125
L17.0938 10.9844
Q17.0938 8.25 18.9531 7.32812
Q19.9688 6.78125 22.3594 6.78125
Q23 6.78125 23.7344 6.8125
Q24.4688 6.84375 25.4375 6.9375
L25.4375 0
Q23.9219 -0.4375 22.2812 -0.625
Q20.6562 -0.828125 18.75 -0.828125
Q12.5938 -0.828125 10.3906 2.3125
Q8.20312 5.46875 8.20312 10.5
L8.20312 45.125
L1.125 45.125
L1.125 52.2969
L8.20312 52.2969
z
" id="Helvetica-74"/>
      <path d="
M29.5938 72.9062
Q21.9219 58.0156 19.625 50.9844
Q16.1562 40.2812 16.1562 26.2656
Q16.1562 12.1094 20.125 0.390625
Q22.5625 -6.84375 29.7344 -20.4062
L23.8281 -20.4062
Q16.7031 -9.28125 14.9844 -6.20312
Q13.2812 -3.125 11.2812 2.15625
Q8.54688 9.375 7.46875 17.5781
Q6.9375 21.8281 6.9375 25.6875
Q6.9375 40.1406 11.4688 51.4219
Q14.3594 58.5938 23.4844 72.9062
z
" id="Helvetica-28"/>
      <path d="
M29.25 70.2188
Q40.9688 70.2188 45.5781 64.1406
Q50.2031 58.0625 50.2031 51.6094
L41.5 51.6094
Q40.7188 55.7656 39.0156 58.1094
Q35.8438 62.5 29.3906 62.5
Q22.0156 62.5 17.6719 55.6875
Q13.3281 48.875 12.8438 36.1875
Q15.875 40.625 20.4531 42.8281
Q24.6562 44.7812 29.8281 44.7812
Q38.625 44.7812 45.1562 39.1562
Q51.7031 33.5469 51.7031 22.4062
Q51.7031 12.8906 45.5 5.53125
Q39.3125 -1.8125 27.8281 -1.8125
Q18.0156 -1.8125 10.8906 5.64062
Q3.76562 13.0938 3.76562 30.7188
Q3.76562 43.75 6.9375 52.8281
Q13.0312 70.2188 29.25 70.2188
z

M28.6094 6
Q35.5469 6 38.9844 10.6562
Q42.4375 15.3281 42.4375 21.6875
Q42.4375 27.0469 39.3594 31.9062
Q36.2812 36.7656 28.1719 36.7656
Q22.5156 36.7656 18.2344 33
Q13.9688 29.25 13.9688 21.6875
Q13.9688 15.0469 17.8438 10.5156
Q21.7344 6 28.6094 6
z
" id="Helvetica-36"/>
      <path d="
M6.45312 52.2969
L14.7969 52.2969
L14.7969 44.875
Q18.5 49.4688 22.6562 51.4688
Q26.8125 53.4688 31.8906 53.4688
Q43.0156 53.4688 46.9219 45.7031
Q49.0781 41.4531 49.0781 33.5469
L49.0781 0
L40.1406 0
L40.1406 32.9531
Q40.1406 37.75 38.7188 40.6719
Q36.375 45.5625 30.2188 45.5625
Q27.0938 45.5625 25.0938 44.9219
Q21.4844 43.8438 18.75 40.625
Q16.5469 38.0312 15.8906 35.2656
Q15.2344 32.5156 15.2344 27.3906
L15.2344 0
L6.45312 0
z

M27.0938 53.5625
z
" id="Helvetica-6e"/>
      <path d="
M39.1094 52.2969
L48.8281 52.2969
Q46.9688 47.2656 40.5781 29.3438
Q35.7969 15.875 32.5625 7.375
Q24.9531 -12.6406 21.8281 -17.0312
Q18.7031 -21.4375 11.0781 -21.4375
Q9.23438 -21.4375 8.23438 -21.2812
Q7.23438 -21.1406 5.76562 -20.75
L5.76562 -12.75
Q8.0625 -13.375 9.07812 -13.5156
Q10.1094 -13.6719 10.8906 -13.6719
Q13.3281 -13.6719 14.4688 -12.8594
Q15.625 -12.0625 16.4062 -10.8906
Q16.6562 -10.5 18.1562 -6.875
Q19.6719 -3.26562 20.3594 -1.51562
L1.03125 52.2969
L10.9844 52.2969
L25 9.71875
z

M24.9531 53.5625
z
" id="Helvetica-79"/>
      <path d="
M12.0156 25.5312
Q12.0156 17.1406 15.5781 11.4688
Q19.1406 5.8125 27 5.8125
Q33.1094 5.8125 37.0312 11.0625
Q40.9688 16.3125 40.9688 26.125
Q40.9688 36.0312 36.9062 40.7969
Q32.8594 45.5625 26.9062 45.5625
Q20.2656 45.5625 16.1406 40.4844
Q12.0156 35.4062 12.0156 25.5312
z

M25.25 53.2188
Q31.25 53.2188 35.2969 50.6875
Q37.6406 49.2188 40.625 45.5625
L40.625 71.9688
L49.0781 71.9688
L49.0781 0
L41.1562 0
L41.1562 7.28125
Q38.0938 2.4375 33.8906 0.28125
Q29.6875 -1.85938 24.2656 -1.85938
Q15.5312 -1.85938 9.125 5.48438
Q2.73438 12.8438 2.73438 25.0469
Q2.73438 36.4688 8.5625 44.8438
Q14.4062 53.2188 25.25 53.2188
z
" id="Helvetica-64"/>
      <path d="
M37.8438 73.6875
Q51.4688 73.6875 58.9844 66.5
Q66.5 59.3281 67.3281 50.2031
L57.8594 50.2031
Q56.25 57.125 51.4375 61.1719
Q46.625 65.2344 37.9375 65.2344
Q27.3438 65.2344 20.8281 57.7812
Q14.3125 50.3438 14.3125 34.9688
Q14.3125 22.3594 20.1875 14.5156
Q26.0781 6.6875 37.75 6.6875
Q48.4844 6.6875 54.1094 14.9375
Q57.0781 19.2812 58.5469 26.375
L68.0156 26.375
Q66.75 15.0469 59.625 7.375
Q51.0781 -1.85938 36.5781 -1.85938
Q24.0781 -1.85938 15.5781 5.71875
Q4.39062 15.7188 4.39062 36.625
Q4.39062 52.4844 12.7969 62.6406
Q21.875 73.6875 37.8438 73.6875
z

M35.8906 73.6875
z
" id="Helvetica-43"/>
      <path d="
M38.5781 73.6875
Q57.5625 73.6875 66.7031 61.4688
Q73.8281 51.9531 73.8281 37.1094
Q73.8281 21.0469 65.6719 10.4062
Q56.1094 -2.09375 38.375 -2.09375
Q21.8281 -2.09375 12.3594 8.84375
Q3.90625 19.3906 3.90625 35.5
Q3.90625 50.0469 11.1406 60.4062
Q20.4062 73.6875 38.5781 73.6875
z

M39.5469 6.59375
Q52.3906 6.59375 58.125 15.7969
Q63.875 25 63.875 36.9688
Q63.875 49.6094 57.25 57.3281
Q50.6406 65.0469 39.1562 65.0469
Q28.0312 65.0469 21 57.3906
Q13.9688 49.75 13.9688 34.8594
Q13.9688 22.9531 20 14.7656
Q26.0312 6.59375 39.5469 6.59375
z

M38.875 73.6875
z
" id="Helvetica-4f"/>
      <path d="
M3.46875 -20.4062
Q11.2344 -5.28125 13.4844 1.65625
Q16.8906 12.1562 16.8906 26.2656
Q16.8906 40.375 12.9375 52.0938
Q10.5 59.3281 3.32812 72.9062
L9.23438 72.9062
Q16.75 60.8906 18.3281 58.0781
Q19.9219 55.2812 21.7812 50.3438
Q24.125 44.2344 25.125 38.2812
Q26.125 32.3281 26.125 26.8125
Q26.125 12.3594 21.5312 1.03125
Q18.6562 -6.25 9.57812 -20.4062
z
" id="Helvetica-29"/>
      <path d="
M35.1562 8.29688
Q40.0938 8.29688 43.2656 9.32812
Q48.9219 11.2344 52.5469 16.6562
Q55.4219 21 56.6875 27.7812
Q57.4219 31.8438 57.4219 35.2969
Q57.4219 48.6406 52.125 56
Q46.8281 63.375 35.0625 63.375
L17.8281 63.375
L17.8281 8.29688
z

M8.0625 71.7344
L37.1094 71.7344
Q51.9062 71.7344 60.0625 61.2344
Q67.3281 51.7656 67.3281 36.9688
Q67.3281 25.5312 63.0312 16.3125
Q55.4688 0 37.0156 0
L8.0625 0
z
" id="Helvetica-44"/>
     </defs>
     <g transform="translate(26.35875 405.9178125)rotate(-90.0)scale(0.26 -0.26)">
      <use xlink:href="#Helvetica-43"/>
      <use x="72.216796875" xlink:href="#Helvetica-65"/>
      <use x="127.83203125" xlink:href="#Helvetica-6c"/>
      <use x="150.048828125" xlink:href="#Helvetica-6c"/>
      <use x="172.265625" xlink:href="#Helvetica-20"/>
      <use x="200.048828125" xlink:href="#Helvetica-64"/>
      <use x="255.6640625" xlink:href="#Helvetica-65"/>
      <use x="311.279296875" xlink:href="#Helvetica-6e"/>
      <use x="366.89453125" xlink:href="#Helvetica-73"/>
      <use x="416.89453125" xlink:href="#Helvetica-69"/>
      <use x="439.111328125" xlink:href="#Helvetica-74"/>
      <use x="466.89453125" xlink:href="#Helvetica-79"/>
      <use x="516.89453125" xlink:href="#Helvetica-20"/>
      <use x="544.677734375" xlink:href="#Helvetica-28"/>
      <use x="577.978515625" xlink:href="#Helvetica-4f"/>
      <use x="655.76171875" xlink:href="#Helvetica-44"/>
      <use x="727.978515625" xlink:href="#Helvetica-36"/>
      <use x="783.59375" xlink:href="#Helvetica-30"/>
      <use x="839.208984375" xlink:href="#Helvetica-30"/>
      <use x="894.82421875" xlink:href="#Helvetica-29"/>
     </g>
    </g>
   </g>
   <g id="legend_1">
    <g id="patch_5">
     <path d="
M861.093 470.34
L1002.89 470.34
L1002.89 264.124
L861.093 264.124
z
" style="fill:#ffffff;stroke:#000000;stroke-linejoin:miter;"/>
    </g>
    <g id="line2d_18">
     <path d="
M875.093 279.471
L903.093 279.471" style="fill:none;stroke:#c7b1d3;stroke-linecap:square;stroke-width:2;"/>
    </g>
    <g id="line2d_19"/>
    <g id="text_13">
     <!-- WT -->
     <defs>
      <path d="
M59.8125 71.7344
L59.8125 63.1875
L35.6406 63.1875
L35.6406 0
L25.7812 0
L25.7812 63.1875
L1.60938 63.1875
L1.60938 71.7344
z
" id="Helvetica-54"/>
      <path d="
M12.3594 71.7344
L25.875 13.375
L42.0938 71.7344
L52.6406 71.7344
L68.8438 13.375
L82.375 71.7344
L93.0156 71.7344
L74.1719 0
L63.9688 0
L47.4062 59.4688
L30.7656 0
L20.5625 0
L1.8125 71.7344
z
" id="Helvetica-57"/>
     </defs>
     <g transform="translate(925.0934375 286.47125)scale(0.2 -0.2)">
      <use xlink:href="#Helvetica-57"/>
      <use x="94.384765625" xlink:href="#Helvetica-54"/>
     </g>
    </g>
    <g id="line2d_20">
     <path d="
M875.093 308.29
L903.093 308.29" style="fill:none;stroke:#d92526;stroke-linecap:square;stroke-width:2;"/>
    </g>
    <g id="line2d_21"/>
    <g id="text_14">
     <!-- GFP (-) -->
     <defs>
      <path d="
M38.625 73.5781
Q48.7344 73.5781 56.1094 69.6719
Q66.7969 64.0625 69.1875 50
L59.5781 50
Q57.8125 57.8594 52.2969 61.4531
Q46.7812 65.0469 38.375 65.0469
Q28.4219 65.0469 21.6094 57.5625
Q14.7969 50.0938 14.7969 35.2969
Q14.7969 22.5156 20.4062 14.4844
Q26.0312 6.45312 38.7188 6.45312
Q48.4375 6.45312 54.8125 12.0781
Q61.1875 17.7188 61.3281 30.3281
L38.875 30.3281
L38.875 38.375
L70.3594 38.375
L70.3594 0
L64.1094 0
L61.7656 9.23438
Q56.8438 3.8125 53.0312 1.70312
Q46.625 -1.90625 36.7656 -1.90625
Q24.0312 -1.90625 14.8438 6.34375
Q4.82812 16.7031 4.82812 34.7656
Q4.82812 52.7812 14.5938 63.4219
Q23.875 73.5781 38.625 73.5781
z

M37.0156 73.6875
z
" id="Helvetica-47"/>
      <path d="
M8.54688 71.7344
L58.2969 71.7344
L58.2969 62.9375
L18.2656 62.9375
L18.2656 41.1562
L53.4688 41.1562
L53.4688 32.625
L18.2656 32.625
L18.2656 0
L8.54688 0
z
" id="Helvetica-46"/>
      <path d="
M8.54688 71.7344
L40.8281 71.7344
Q50.3906 71.7344 56.25 66.3281
Q62.1094 60.9375 62.1094 51.1719
Q62.1094 42.7812 56.875 36.5469
Q51.6562 30.3281 40.8281 30.3281
L18.2656 30.3281
L18.2656 0
L8.54688 0
z

M52.2969 51.125
Q52.2969 59.0312 46.4375 61.8594
Q43.2188 63.375 37.5938 63.375
L18.2656 63.375
L18.2656 38.5312
L37.5938 38.5312
Q44.1406 38.5312 48.2188 41.3125
Q52.2969 44.0938 52.2969 51.125
z
" id="Helvetica-50"/>
      <path d="
M4.15625 32.375
L28.6562 32.375
L28.6562 23.3438
L4.15625 23.3438
z
" id="Helvetica-2d"/>
     </defs>
     <g transform="translate(925.0934375 315.29)scale(0.2 -0.2)">
      <use xlink:href="#Helvetica-47"/>
      <use x="77.783203125" xlink:href="#Helvetica-46"/>
      <use x="138.8671875" xlink:href="#Helvetica-50"/>
      <use x="205.56640625" xlink:href="#Helvetica-20"/>
      <use x="233.349609375" xlink:href="#Helvetica-28"/>
      <use x="266.650390625" xlink:href="#Helvetica-2d"/>
      <use x="299.951171875" xlink:href="#Helvetica-29"/>
     </g>
    </g>
    <g id="line2d_22">
     <path d="
M875.093 337.109
L903.093 337.109" style="fill:none;stroke:#6c4595;stroke-linecap:square;stroke-width:2;"/>
    </g>
    <g id="line2d_23"/>
    <g id="text_15">
     <!-- hCA (+) -->
     <defs>
      <path d="
M4.5 21.3906
L4.5 29.5938
L25.7812 29.5938
L25.7812 51.0312
L34.125 51.0312
L34.125 29.5938
L55.4219 29.5938
L55.4219 21.3906
L34.125 21.3906
L34.125 0
L25.7812 0
L25.7812 21.3906
z
" id="Helvetica-2b"/>
      <path d="
M6.45312 71.9688
L15.2344 71.9688
L15.2344 45.2188
Q18.3594 49.1719 20.8438 50.7812
Q25.0938 53.5625 31.4531 53.5625
Q42.8281 53.5625 46.875 45.6094
Q49.0781 41.2656 49.0781 33.5469
L49.0781 0
L40.0469 0
L40.0469 32.9531
Q40.0469 38.7188 38.5781 41.4062
Q36.1875 45.7031 29.5938 45.7031
Q24.125 45.7031 19.6719 41.9375
Q15.2344 38.1875 15.2344 27.7344
L15.2344 0
L6.45312 0
z
" id="Helvetica-68"/>
      <path d="
M44.4375 29.3906
L33.5469 61.0781
L21.9688 29.3906
z

M28.4688 71.7344
L39.4531 71.7344
L65.4844 0
L54.8281 0
L47.5625 21.4844
L19.1875 21.4844
L11.4219 0
L1.46875 0
z

M33.5 71.7344
z
" id="Helvetica-41"/>
     </defs>
     <g transform="translate(925.0934375 344.10875)scale(0.2 -0.2)">
      <use xlink:href="#Helvetica-68"/>
      <use x="55.615234375" xlink:href="#Helvetica-43"/>
      <use x="127.83203125" xlink:href="#Helvetica-41"/>
      <use x="194.53125" xlink:href="#Helvetica-20"/>
      <use x="222.314453125" xlink:href="#Helvetica-28"/>
      <use x="255.615234375" xlink:href="#Helvetica-2b"/>
      <use x="314.013671875" xlink:href="#Helvetica-29"/>
     </g>
    </g>
    <g id="line2d_24">
     <path d="
M875.093 365.624
L903.093 365.624" style="fill:none;stroke:#f69d9c;stroke-linecap:square;stroke-width:2;"/>
    </g>
    <g id="line2d_25"/>
    <g id="text_16">
     <!-- dabB2 -->
     <defs>
      <path d="
M34.5781 41.4062
Q40.7188 41.4062 44.1406 43.1094
Q49.5156 45.7969 49.5156 52.7812
Q49.5156 59.8125 43.7969 62.25
Q40.5781 63.625 34.2344 63.625
L16.8906 63.625
L16.8906 41.4062
z

M37.8438 8.29688
Q46.7812 8.29688 50.5938 13.4844
Q52.9844 16.75 52.9844 21.3906
Q52.9844 29.2031 46 32.0312
Q42.2812 33.5469 36.1875 33.5469
L16.8906 33.5469
L16.8906 8.29688
z

M7.375 71.7344
L38.1875 71.7344
Q50.7812 71.7344 56.1094 64.2031
Q59.2344 59.7656 59.2344 53.9531
Q59.2344 47.1719 55.375 42.8281
Q53.375 40.5312 49.6094 38.625
Q55.125 36.5312 57.8594 33.8906
Q62.7031 29.2031 62.7031 20.9531
Q62.7031 14.0156 58.3438 8.40625
Q51.8594 0 37.7031 0
L7.375 0
z
" id="Helvetica-42"/>
      <path d="
M5.76562 71.9688
L14.3125 71.9688
L14.3125 45.9531
Q17.1875 49.7031 21.1875 51.6719
Q25.2031 53.6562 29.8906 53.6562
Q39.6562 53.6562 45.7344 46.9375
Q51.8125 40.2344 51.8125 27.1562
Q51.8125 14.75 45.7969 6.54688
Q39.7969 -1.65625 29.1562 -1.65625
Q23.1875 -1.65625 19.0938 1.21875
Q16.6562 2.9375 13.875 6.6875
L13.875 0
L5.76562 0
z

M28.6094 6.10938
Q35.75 6.10938 39.2812 11.7656
Q42.8281 17.4375 42.8281 26.7031
Q42.8281 34.9688 39.2812 40.375
Q35.75 45.7969 28.8594 45.7969
Q22.8594 45.7969 18.3281 41.3594
Q13.8125 36.9219 13.8125 26.7031
Q13.8125 19.3438 15.6719 14.75
Q19.1406 6.10938 28.6094 6.10938
z
" id="Helvetica-62"/>
      <path d="
M13.1875 13.9219
Q13.1875 10.1094 15.9688 7.90625
Q18.75 5.71875 22.5625 5.71875
Q27.2031 5.71875 31.5469 7.85938
Q38.875 11.4219 38.875 19.5312
L38.875 26.6094
Q37.25 25.5938 34.7031 24.9062
Q32.1719 24.2188 29.7344 23.9219
L24.4219 23.25
Q19.625 22.6094 17.2344 21.2344
Q13.1875 18.9531 13.1875 13.9219
z

M34.4688 31.6875
Q37.5 32.0781 38.5312 34.2344
Q39.1094 35.4062 39.1094 37.5938
Q39.1094 42.0938 35.9062 44.1094
Q32.7188 46.1406 26.7656 46.1406
Q19.875 46.1406 17 42.4375
Q15.375 40.375 14.8906 36.3281
L6.6875 36.3281
Q6.9375 46 12.9688 49.7812
Q19 53.5625 26.9531 53.5625
Q36.1875 53.5625 41.9375 50.0469
Q47.6562 46.5312 47.6562 39.1094
L47.6562 8.98438
Q47.6562 7.625 48.2188 6.78125
Q48.7812 5.95312 50.5938 5.95312
Q51.1719 5.95312 51.9062 6.03125
Q52.6406 6.10938 53.4688 6.25
L53.4688 -0.25
Q51.4219 -0.828125 50.3438 -0.96875
Q49.2656 -1.125 47.4062 -1.125
Q42.875 -1.125 40.8281 2.09375
Q39.75 3.8125 39.3125 6.9375
Q36.625 3.42188 31.5938 0.828125
Q26.5625 -1.76562 20.5156 -1.76562
Q13.2344 -1.76562 8.60938 2.65625
Q4 7.07812 4 13.7188
Q4 21 8.54688 25
Q13.0938 29 20.4531 29.9375
z

M27.2031 53.5625
z
" id="Helvetica-61"/>
     </defs>
     <g transform="translate(925.0934375 372.624375)scale(0.2 -0.2)">
      <use xlink:href="#Helvetica-64"/>
      <use x="55.615234375" xlink:href="#Helvetica-61"/>
      <use x="111.23046875" xlink:href="#Helvetica-62"/>
      <use x="166.845703125" xlink:href="#Helvetica-42"/>
      <use x="233.544921875" xlink:href="#Helvetica-32"/>
     </g>
    </g>
    <g id="line2d_26">
     <path d="
M875.093 394.14
L903.093 394.14" style="fill:none;stroke:#3b9c34;stroke-linecap:square;stroke-width:2;"/>
    </g>
    <g id="line2d_27"/>
    <g id="text_17">
     <!-- dabA2 -->
     <g transform="translate(925.0934375 401.14)scale(0.2 -0.2)">
      <use xlink:href="#Helvetica-64"/>
      <use x="55.615234375" xlink:href="#Helvetica-61"/>
      <use x="111.23046875" xlink:href="#Helvetica-62"/>
      <use x="166.845703125" xlink:href="#Helvetica-41"/>
      <use x="233.544921875" xlink:href="#Helvetica-32"/>
     </g>
    </g>
    <g id="line2d_28">
     <path d="
M875.093 422.656
L903.093 422.656" style="fill:none;stroke:#2777ad;stroke-linecap:square;stroke-width:2;"/>
    </g>
    <g id="line2d_29"/>
    <g id="text_18">
     <!-- dabAB2 -->
     <g transform="translate(925.0934375 429.655625)scale(0.2 -0.2)">
      <use xlink:href="#Helvetica-64"/>
      <use x="55.615234375" xlink:href="#Helvetica-61"/>
      <use x="111.23046875" xlink:href="#Helvetica-62"/>
      <use x="166.845703125" xlink:href="#Helvetica-41"/>
      <use x="233.544921875" xlink:href="#Helvetica-42"/>
      <use x="300.244140625" xlink:href="#Helvetica-32"/>
     </g>
    </g>
    <g id="line2d_30">
     <path d="
M875.093 451.171
L903.093 451.171" style="fill:none;stroke:#f2800e;stroke-linecap:square;stroke-width:2;"/>
    </g>
    <g id="line2d_31"/>
    <g id="text_19">
     <!-- sbtA -->
     <g transform="translate(925.0934375 458.17125)scale(0.2 -0.2)">
      <use xlink:href="#Helvetica-73"/>
      <use x="50.0" xlink:href="#Helvetica-62"/>
      <use x="105.615234375" xlink:href="#Helvetica-74"/>
      <use x="133.3984375" xlink:href="#Helvetica-41"/>
     </g>
    </g>
   </g>
  </g>
 </g>
 <defs>
  <clipPath id="p39f61a35d8">
   <rect height="558.0" width="1116.0" x="79.8934375" y="7.2"/>
  </clipPath>
 </defs>
</svg>
