<?xml version="1.0" encoding="utf-8" standalone="no"?>
<!DOCTYPE svg PUBLIC "-//W3C//DTD SVG 1.1//EN"
  "http://www.w3.org/Graphics/SVG/1.1/DTD/svg11.dtd">
<!-- Created with matplotlib (http://matplotlib.org/) -->
<svg height="635pt" version="1.1" viewBox="0 0 1214 635" width="1214pt" xmlns="http://www.w3.org/2000/svg" xmlns:xlink="http://www.w3.org/1999/xlink">
 <defs>
  <style type="text/css">
*{stroke-linecap:butt;stroke-linejoin:round;}
  </style>
 </defs>
 <g id="figure_1">
  <g id="patch_1">
   <path d="
M-1.42109e-14 635.838
L1214.6 635.838
L1214.6 0
L-1.42109e-14 0
z
" style="fill:#ffffff;"/>
  </g>
  <g id="axes_1">
   <g id="patch_2">
    <path d="
M79.8934 565.2
L1195.89 565.2
L1195.89 7.2
L79.8934 7.2
z
" style="fill:#ffffff;"/>
   </g>
   <g id="PolyCollection_1">
    <defs>
     <path d="
M117.586 -96.9232
L117.586 -96.4988
L127.009 -101.401
L136.432 -107.911
L145.856 -117.833
L155.279 -131.152
L164.702 -150.189
L174.125 -174.224
L183.549 -202.508
L192.972 -231.829
L202.395 -259.486
L211.819 -283.657
L221.242 -303.98
L230.665 -320.591
L240.088 -334.612
L249.512 -346.511
L258.935 -358.355
L268.358 -370.354
L277.781 -383.091
L287.205 -395.131
L296.628 -406.377
L306.051 -416.426
L315.474 -426.159
L324.898 -435.596
L334.321 -445.351
L343.744 -454.7
L353.167 -463.639
L362.591 -471.842
L372.014 -479.604
L381.437 -486.775
L390.86 -493.217
L400.284 -499.011
L409.707 -504.542
L419.13 -509.898
L428.554 -515.082
L437.977 -519.7
L447.399 -523.994
L456.822 -527.966
L466.246 -532.204
L475.669 -536.318
L485.092 -540.624
L494.515 -544.505
L503.939 -548.437
L513.362 -551.817
L522.785 -555.054
L532.208 -557.956
L541.632 -560.838
L551.055 -563.585
L560.478 -565.968
L569.901 -568.179
L579.325 -570.168
L588.748 -572.207
L598.171 -574.216
L607.595 -576.22
L617.018 -578.227
L626.441 -580.135
L635.865 -582.008
L645.288 -583.683
L654.711 -585.278
L664.134 -586.788
L673.558 -588.348
L682.981 -589.763
L692.404 -590.966
L701.827 -591.995
L711.251 -592.934
L720.674 -593.854
L730.097 -594.669
L739.521 -595.477
L748.944 -596.234
L758.367 -596.805
L767.79 -597.128
L777.213 -597.162
L786.637 -597.019
L796.06 -596.689
L805.483 -596.205
L814.906 -595.767
L824.33 -595.261
L833.752 -594.835
L843.175 -594.241
L852.598 -593.691
L862.022 -593.032
L871.445 -592.47
L880.868 -591.841
L890.291 -591.257
L899.714 -590.553
L909.138 -589.826
L918.561 -589.021
L927.984 -588.329
L937.407 -587.782
L946.831 -587.413
L956.254 -587.027
L965.677 -586.642
L975.1 -586.119
L984.524 -585.553
L993.947 -584.782
L1003.37 -583.97
L1012.79 -583.063
L1022.22 -582.315
L1031.64 -581.532
L1041.06 -580.85
L1050.49 -580.053
L1059.91 -579.368
L1069.33 -578.649
L1078.76 -578.07
L1088.18 -577.449
L1097.6 -576.96
L1107.02 -576.443
L1116.45 -576.113
L1125.87 -575.68
L1135.29 -575.236
L1144.72 -574.599
L1154.14 -573.966
L1163.56 -573.255
L1172.99 -572.628
L1182.41 -572.05
L1191.83 -571.653
L1201.26 -571.208
L1210.68 -570.872
L1220.1 -570.58
L1229.53 -570.457
L1229.53 -581.465
L1229.53 -581.465
L1220.1 -581.558
L1210.68 -581.77
L1201.26 -582.031
L1191.83 -582.372
L1182.41 -582.662
L1172.99 -583.197
L1163.56 -583.82
L1154.14 -584.479
L1144.72 -584.964
L1135.29 -585.406
L1125.87 -585.758
L1116.45 -586.144
L1107.02 -586.516
L1097.6 -587.085
L1088.18 -587.704
L1078.76 -588.461
L1069.33 -589.162
L1059.91 -589.927
L1050.49 -590.642
L1041.06 -591.418
L1031.64 -592.06
L1022.22 -592.696
L1012.79 -593.289
L1003.37 -594.005
L993.947 -594.668
L984.524 -595.271
L975.1 -595.705
L965.677 -596.086
L956.254 -596.334
L946.831 -596.531
L937.407 -596.754
L927.984 -597.204
L918.561 -597.914
L909.138 -598.736
L899.714 -599.487
L890.291 -600.157
L880.868 -600.667
L871.445 -601.146
L862.022 -601.462
L852.598 -601.85
L843.175 -602.183
L833.752 -602.674
L824.33 -603.028
L814.906 -603.429
L805.483 -603.66
L796.06 -603.965
L786.637 -604.188
L777.213 -604.358
L767.79 -604.404
L758.367 -604.219
L748.944 -603.857
L739.521 -603.384
L730.097 -602.865
L720.674 -602.433
L711.251 -601.927
L701.827 -601.524
L692.404 -601.003
L682.981 -600.415
L673.558 -599.648
L664.134 -598.78
L654.711 -597.868
L645.288 -596.839
L635.865 -595.679
L626.441 -594.273
L617.018 -592.779
L607.595 -591.225
L598.171 -589.784
L588.748 -588.41
L579.325 -586.955
L569.901 -585.476
L560.478 -583.603
L551.055 -581.525
L541.632 -579.019
L532.208 -576.504
L522.785 -573.985
L513.362 -571.211
L503.939 -568.245
L494.515 -564.669
L485.092 -560.998
L475.669 -556.779
L466.246 -552.624
L456.822 -548.291
L447.399 -544.211
L437.977 -539.894
L428.554 -535.361
L419.13 -530.28
L409.707 -525.035
L400.284 -519.504
L390.86 -513.657
L381.437 -506.839
L372.014 -499.065
L362.591 -490.308
L353.167 -481.149
L343.744 -471.135
L334.321 -460.853
L324.898 -450.074
L315.474 -439.723
L306.051 -429.022
L296.628 -418.101
L287.205 -406.07
L277.781 -393.364
L268.358 -379.808
L258.935 -366.868
L249.512 -354.004
L240.088 -341.326
L230.665 -326.844
L221.242 -310.261
L211.819 -290.385
L202.395 -266.896
L192.972 -239.76
L183.549 -210.498
L174.125 -181.377
L164.702 -155.989
L155.279 -135.294
L145.856 -120.681
L136.432 -109.614
L127.009 -102.442
L117.586 -96.9232
z
" id="m1a1a38bee0" style="stroke:#c7b1d3;stroke-opacity:0.5;"/>
    </defs>
    <g clip-path="url(#p39f61a35d8)">
     <use style="fill:#c7b1d3;fill-opacity:0.5;stroke:#c7b1d3;stroke-opacity:0.5;" x="0.0" xlink:href="#m1a1a38bee0" y="635.8375"/>
    </g>
   </g>
   <g id="PolyCollection_2">
    <defs>
     <path d="
M117.586 -94.9273
L117.586 -94.4077
L127.009 -95.8886
L136.432 -97.4294
L145.856 -98.4862
L155.279 -99.1398
L164.702 -99.5465
L174.125 -99.7524
L183.549 -100.271
L192.972 -100.456
L202.395 -100.947
L211.819 -101.02
L221.242 -101.26
L230.665 -100.944
L240.088 -100.773
L249.512 -100.414
L258.935 -100.458
L268.358 -100.156
L277.781 -100.069
L287.205 -99.7632
L296.628 -99.8583
L306.051 -99.7057
L315.474 -99.5227
L324.898 -99.392
L334.321 -99.3218
L343.744 -99.5984
L353.167 -99.3382
L362.591 -99.1419
L372.014 -98.3093
L381.437 -97.742
L390.86 -96.9975
L400.284 -96.7168
L409.707 -96.5765
L419.13 -96.4118
L428.554 -96.1101
L437.977 -95.5296
L447.399 -95.114
L456.822 -94.51
L466.246 -94.2706
L475.669 -93.6883
L485.092 -93.4159
L494.515 -92.8555
L503.939 -92.5976
L513.362 -92.2279
L522.785 -92.0616
L532.208 -91.9526
L541.632 -91.6695
L551.055 -91.3791
L560.478 -90.9406
L569.901 -90.6272
L579.325 -90.4503
L588.748 -90.1949
L598.171 -89.9791
L607.595 -89.5302
L617.018 -89.1572
L626.441 -88.829
L635.865 -88.6293
L645.288 -88.5519
L654.711 -88.5012
L664.134 -88.4683
L673.558 -88.4223
L682.981 -88.2062
L692.404 -88.0061
L701.827 -87.6481
L711.251 -87.4464
L720.674 -87.4437
L730.097 -87.5512
L739.521 -87.6525
L748.944 -87.3833
L758.367 -87.1856
L767.79 -86.9395
L777.213 -86.9763
L786.637 -86.7495
L796.06 -86.508
L805.483 -86.2292
L814.906 -86.1302
L824.33 -86.0347
L833.752 -85.7914
L843.175 -85.6464
L852.598 -85.6481
L862.022 -85.764
L871.445 -85.8038
L880.868 -85.6403
L890.291 -85.5094
L899.714 -85.3626
L909.138 -85.3963
L918.561 -85.4949
L927.984 -85.4049
L937.407 -85.3626
L946.831 -85.2705
L956.254 -85.3636
L965.677 -85.3904
L975.1 -85.2976
L984.524 -85.2893
L993.947 -85.0507
L1003.37 -85.0306
L1012.79 -84.812
L1022.22 -84.9785
L1031.64 -84.9012
L1041.06 -85.059
L1050.49 -84.9304
L1059.91 -84.9518
L1069.33 -84.8971
L1078.76 -85.0256
L1088.18 -85.2757
L1097.6 -85.3128
L1107.02 -85.1721
L1116.45 -84.8618
L1125.87 -84.7077
L1135.29 -84.6786
L1144.72 -84.6831
L1154.14 -84.6863
L1163.56 -84.847
L1172.99 -84.8587
L1182.41 -84.8604
L1191.83 -84.7686
L1201.26 -84.8967
L1210.68 -85.1538
L1220.1 -85.1255
L1229.53 -84.9592
L1229.53 -88.4789
L1229.53 -88.4789
L1220.1 -89.1037
L1210.68 -89.3631
L1201.26 -88.8861
L1191.83 -88.2553
L1182.41 -88.2479
L1172.99 -88.019
L1163.56 -87.8918
L1154.14 -87.3457
L1144.72 -87.2695
L1135.29 -87.2417
L1125.87 -87.4185
L1116.45 -87.696
L1107.02 -88.5909
L1097.6 -88.8817
L1088.18 -88.894
L1078.76 -88.1918
L1069.33 -87.7301
L1059.91 -87.6034
L1050.49 -87.3496
L1041.06 -87.4789
L1031.64 -86.9026
L1022.22 -86.6938
L1012.79 -86.094
L1003.37 -86.4731
L993.947 -86.5622
L984.524 -87.0155
L975.1 -86.9179
L965.677 -86.9366
L956.254 -86.8321
L946.831 -86.4787
L937.407 -86.6049
L927.984 -86.4758
L918.561 -86.5817
L909.138 -86.2513
L899.714 -86.0791
L890.291 -86.2299
L880.868 -86.4115
L871.445 -86.7118
L862.022 -86.6226
L852.598 -86.3789
L843.175 -86.3458
L833.752 -86.5803
L824.33 -87.0364
L814.906 -87.2434
L805.483 -87.3751
L796.06 -87.8379
L786.637 -88.1171
L777.213 -88.3714
L767.79 -88.1255
L758.367 -88.544
L748.944 -88.9291
L739.521 -89.4089
L730.097 -88.9695
L720.674 -88.5389
L711.251 -88.4494
L701.827 -88.7785
L692.404 -89.4893
L682.981 -89.8596
L673.558 -90.194
L664.134 -90.0513
L654.711 -89.949
L645.288 -89.9206
L635.865 -89.9325
L626.441 -90.147
L617.018 -90.5801
L607.595 -91.1098
L598.171 -91.834
L588.748 -92.1043
L579.325 -92.4441
L569.901 -92.5673
L560.478 -92.8961
L551.055 -93.4471
L541.632 -93.7172
L532.208 -93.9748
L522.785 -93.9972
L513.362 -94.1831
L503.939 -94.731
L494.515 -95.1204
L485.092 -96.0132
L475.669 -96.6188
L466.246 -97.8543
L456.822 -98.6887
L447.399 -99.6794
L437.977 -100.263
L428.554 -100.997
L419.13 -101.243
L409.707 -101.121
L400.284 -100.986
L390.86 -101.037
L381.437 -101.967
L372.014 -102.798
L362.591 -104.123
L353.167 -104.351
L343.744 -104.547
L334.321 -103.787
L324.898 -103.625
L315.474 -103.591
L306.051 -103.748
L296.628 -103.923
L287.205 -103.623
L277.781 -103.952
L268.358 -103.868
L258.935 -104.394
L249.512 -104.367
L240.088 -105.076
L230.665 -105.183
L221.242 -105.499
L211.819 -104.777
L202.395 -104.307
L192.972 -103.129
L183.549 -102.366
L174.125 -101.343
L164.702 -100.963
L155.279 -100.495
L145.856 -99.866
L136.432 -98.6586
L127.009 -96.8364
L117.586 -94.9273
z
" id="mf0ec575fb7" style="stroke:#d92526;stroke-opacity:0.5;"/>
    </defs>
    <g clip-path="url(#p39f61a35d8)">
     <use style="fill:#d92526;fill-opacity:0.5;stroke:#d92526;stroke-opacity:0.5;" x="0.0" xlink:href="#mf0ec575fb7" y="635.8375"/>
    </g>
   </g>
   <g id="PolyCollection_3">
    <defs>
     <path d="
M117.586 -94.476
L117.586 -94.2067
L127.009 -95.4283
L136.432 -96.8484
L145.856 -97.7769
L155.279 -98.636
L164.702 -99.0132
L174.125 -99.4428
L183.549 -99.6471
L192.972 -99.7578
L202.395 -99.6932
L211.819 -99.694
L221.242 -99.7345
L230.665 -99.7496
L240.088 -99.64
L249.512 -99.7142
L258.935 -100.073
L268.358 -100.851
L277.781 -102.006
L287.205 -103.731
L296.628 -106.337
L306.051 -110.383
L315.474 -116.255
L324.898 -124.659
L334.321 -135.906
L343.744 -150.883
L353.167 -169.045
L362.591 -188.59
L372.014 -206.334
L381.437 -220.124
L390.86 -230.751
L400.284 -239.788
L409.707 -248.426
L419.13 -257.196
L428.554 -266.178
L437.977 -274.904
L447.399 -282.514
L456.822 -288.848
L466.246 -294.568
L475.669 -300.058
L485.092 -305.825
L494.515 -311.546
L503.939 -317.474
L513.362 -323.237
L522.785 -329.204
L532.208 -335.21
L541.632 -341.317
L551.055 -347.058
L560.478 -352.314
L569.901 -357.264
L579.325 -362.222
L588.748 -367.243
L598.171 -372.424
L607.595 -377.605
L617.018 -382.937
L626.441 -388.201
L635.865 -393.578
L645.288 -398.923
L654.711 -404.163
L664.134 -409.267
L673.558 -414.29
L682.981 -419.432
L692.404 -424.539
L701.827 -429.599
L711.251 -434.502
L720.674 -439.159
L730.097 -443.563
L739.521 -447.658
L748.944 -451.845
L758.367 -455.92
L767.79 -460.09
L777.213 -463.855
L786.637 -467.547
L796.06 -470.936
L805.483 -474.253
L814.906 -477.371
L824.33 -480.325
L833.752 -483.144
L843.175 -485.804
L852.598 -488.327
L862.022 -490.798
L871.445 -493.146
L880.868 -495.427
L890.291 -497.391
L899.714 -499.292
L909.138 -500.82
L918.561 -502.049
L927.984 -502.696
L937.407 -503.116
L946.831 -503.201
L956.254 -502.943
L965.677 -502.227
L975.1 -501.378
L984.524 -500.52
L993.947 -499.636
L1003.37 -498.588
L1012.79 -497.473
L1022.22 -496.478
L1031.64 -495.603
L1041.06 -494.723
L1050.49 -493.798
L1059.91 -492.814
L1069.33 -491.883
L1078.76 -490.939
L1088.18 -490.084
L1097.6 -489.254
L1107.02 -488.6
L1116.45 -487.991
L1125.87 -487.383
L1135.29 -486.562
L1144.72 -485.669
L1154.14 -484.748
L1163.56 -483.976
L1172.99 -483.219
L1182.41 -482.564
L1191.83 -481.9
L1201.26 -481.293
L1210.68 -480.729
L1220.1 -480.291
L1229.53 -479.955
L1229.53 -492.158
L1229.53 -492.158
L1220.1 -492.774
L1210.68 -493.415
L1201.26 -494.162
L1191.83 -494.91
L1182.41 -495.731
L1172.99 -496.529
L1163.56 -497.442
L1154.14 -498.279
L1144.72 -499.262
L1135.29 -500.175
L1125.87 -501.105
L1116.45 -501.791
L1107.02 -502.504
L1097.6 -503.194
L1088.18 -504.078
L1078.76 -504.907
L1069.33 -505.825
L1059.91 -506.656
L1050.49 -507.598
L1041.06 -508.421
L1031.64 -509.208
L1022.22 -509.883
L1012.79 -510.696
L1003.37 -511.546
L993.947 -512.268
L984.524 -512.616
L975.1 -512.855
L965.677 -512.955
L956.254 -512.844
L946.831 -512.063
L937.407 -510.876
L927.984 -509.381
L918.561 -507.928
L909.138 -506.178
L899.714 -504.396
L890.291 -502.328
L880.868 -500.268
L871.445 -497.911
L862.022 -495.534
L852.598 -493.026
L843.175 -490.464
L833.752 -487.74
L824.33 -484.856
L814.906 -481.84
L805.483 -478.679
L796.06 -475.315
L786.637 -471.846
L777.213 -468.021
L767.79 -464.079
L758.367 -459.718
L748.944 -455.432
L739.521 -451.064
L730.097 -446.806
L720.674 -442.356
L711.251 -437.699
L701.827 -432.885
L692.404 -427.923
L682.981 -422.947
L673.558 -417.92
L664.134 -412.987
L654.711 -408.022
L645.288 -402.977
L635.865 -397.857
L626.441 -392.669
L617.018 -387.546
L607.595 -382.41
L598.171 -377.455
L588.748 -372.607
L579.325 -367.939
L569.901 -363.406
L560.478 -358.877
L551.055 -354.005
L541.632 -348.487
L532.208 -342.397
L522.785 -336.291
L513.362 -330.287
L503.939 -324.508
L494.515 -318.643
L485.092 -312.919
L475.669 -307.251
L466.246 -301.814
L456.822 -296.198
L447.399 -289.743
L437.977 -281.771
L428.554 -272.262
L419.13 -262.299
L409.707 -252.474
L400.284 -243.119
L390.86 -233.415
L381.437 -222.104
L372.014 -208.088
L362.591 -190.864
L353.167 -171.796
L343.744 -153.479
L334.321 -138.243
L324.898 -126.592
L315.474 -117.933
L306.051 -111.856
L296.628 -107.826
L287.205 -105.325
L277.781 -103.684
L268.358 -102.63
L258.935 -101.885
L249.512 -101.636
L240.088 -101.557
L230.665 -101.626
L221.242 -101.41
L211.819 -101.225
L202.395 -101.119
L192.972 -101.159
L183.549 -100.932
L174.125 -100.621
L164.702 -100.053
L155.279 -99.6269
L145.856 -98.6409
L136.432 -97.6003
L127.009 -95.9328
L117.586 -94.476
z
" id="mb71f5e14f3" style="stroke:#6c4595;stroke-opacity:0.5;"/>
    </defs>
    <g clip-path="url(#p39f61a35d8)">
     <use style="fill:#6c4595;fill-opacity:0.5;stroke:#6c4595;stroke-opacity:0.5;" x="0.0" xlink:href="#mb71f5e14f3" y="635.8375"/>
    </g>
   </g>
   <g id="PolyCollection_4">
    <defs>
     <path d="
M117.586 -95.0824
L117.586 -94.6742
L127.009 -96.6309
L136.432 -98.8045
L145.856 -100.43
L155.279 -101.266
L164.702 -101.483
L174.125 -101.664
L183.549 -102.342
L192.972 -102.927
L202.395 -103.472
L211.819 -103.132
L221.242 -102.638
L230.665 -101.52
L240.088 -100.733
L249.512 -99.7826
L258.935 -99.5791
L268.358 -99.5309
L277.781 -100.253
L287.205 -101.044
L296.628 -102.271
L306.051 -103.528
L315.474 -105.1
L324.898 -107.061
L334.321 -109.102
L343.744 -111.492
L353.167 -113.616
L362.591 -116.305
L372.014 -118.836
L381.437 -121.878
L390.86 -124.764
L400.284 -128.08
L409.707 -131.988
L419.13 -136.366
L428.554 -141.197
L437.977 -145.421
L447.399 -149.824
L456.822 -153.823
L466.246 -158.517
L475.669 -163.017
L485.092 -168.139
L494.515 -173.055
L503.939 -178.33
L513.362 -183.439
L522.785 -188.923
L532.208 -194.732
L541.632 -200.709
L551.055 -206.712
L560.478 -212.606
L569.901 -218.561
L579.325 -225
L588.748 -231.394
L598.171 -238.233
L607.595 -244.393
L617.018 -250.748
L626.441 -256.587
L635.865 -262.888
L645.288 -269.012
L654.711 -275.379
L664.134 -281.377
L673.558 -287.591
L682.981 -293.664
L692.404 -300.294
L701.827 -306.833
L711.251 -313.672
L720.674 -320.262
L730.097 -326.709
L739.521 -332.731
L748.944 -338.252
L758.367 -343.877
L767.79 -349.337
L777.213 -354.984
L786.637 -360.025
L796.06 -365.226
L805.483 -370.28
L814.906 -375.8
L824.33 -380.881
L833.752 -385.784
L843.175 -390.212
L852.598 -394.968
L862.022 -399.56
L871.445 -404.295
L880.868 -408.434
L890.291 -412.65
L899.714 -416.379
L909.138 -420.14
L918.561 -423.563
L927.984 -427.261
L937.407 -431.169
L946.831 -435.34
L956.254 -438.954
L965.677 -442.286
L975.1 -444.961
L984.524 -447.948
L993.947 -450.257
L1003.37 -452.929
L1012.79 -455.014
L1022.22 -457.703
L1031.64 -459.805
L1041.06 -462.163
L1050.49 -463.913
L1059.91 -465.987
L1069.33 -467.965
L1078.76 -470.373
L1088.18 -472.516
L1097.6 -474.568
L1107.02 -476.206
L1116.45 -478.064
L1125.87 -479.682
L1135.29 -481.217
L1144.72 -482.42
L1154.14 -483.589
L1163.56 -485.019
L1172.99 -486.053
L1182.41 -487.036
L1191.83 -487.545
L1201.26 -488.146
L1210.68 -488.739
L1220.1 -489.143
L1229.53 -489.562
L1229.53 -500.265
L1229.53 -500.265
L1220.1 -499.784
L1210.68 -499.351
L1201.26 -498.854
L1191.83 -498.317
L1182.41 -497.893
L1172.99 -496.976
L1163.56 -496.069
L1154.14 -494.815
L1144.72 -493.839
L1135.29 -492.837
L1125.87 -491.52
L1116.45 -490.024
L1107.02 -488.233
L1097.6 -486.63
L1088.18 -484.761
L1078.76 -482.822
L1069.33 -480.674
L1059.91 -478.806
L1050.49 -476.976
L1041.06 -475.373
L1031.64 -473.319
L1022.22 -471.353
L1012.79 -469.021
L1003.37 -467.178
L993.947 -464.947
L984.524 -462.874
L975.1 -460.31
L965.677 -457.96
L956.254 -455.103
L946.831 -451.904
L937.407 -448.29
L927.984 -444.94
L918.561 -441.894
L909.138 -438.951
L899.714 -435.765
L890.291 -432.372
L880.868 -428.622
L871.445 -424.736
L862.022 -420.483
L852.598 -416.219
L843.175 -411.918
L833.752 -407.766
L824.33 -403.289
L814.906 -398.477
L805.483 -393.371
L796.06 -388.542
L786.637 -383.764
L777.213 -378.842
L767.79 -373.392
L758.367 -367.775
L748.944 -362.176
L739.521 -356.745
L730.097 -351.007
L720.674 -344.683
L711.251 -337.762
L701.827 -330.363
L692.404 -323.009
L682.981 -315.753
L673.558 -309.061
L664.134 -302.395
L654.711 -295.811
L645.288 -288.776
L635.865 -281.858
L626.441 -274.782
L617.018 -268.224
L607.595 -261.484
L598.171 -255.08
L588.748 -247.959
L579.325 -240.696
L569.901 -232.902
L560.478 -225.349
L551.055 -217.988
L541.632 -210.799
L532.208 -203.828
L522.785 -197.17
L513.362 -190.968
L503.939 -185.212
L494.515 -179.575
L485.092 -174.251
L475.669 -168.961
L466.246 -164.071
L456.822 -159.199
L447.399 -154.802
L437.977 -150.345
L428.554 -146.11
L419.13 -141.594
L409.707 -137.344
L400.284 -133.317
L390.86 -129.636
L381.437 -126.228
L372.014 -122.884
L362.591 -119.947
L353.167 -117.076
L343.744 -114.636
L334.321 -112.181
L324.898 -110.001
L315.474 -107.914
L306.051 -106.136
L296.628 -104.639
L287.205 -103.305
L277.781 -102.31
L268.358 -101.49
L258.935 -101.295
L249.512 -101.394
L240.088 -102.162
L230.665 -102.975
L221.242 -104.003
L211.819 -104.535
L202.395 -104.807
L192.972 -104.415
L183.549 -103.906
L174.125 -103.34
L164.702 -103.079
L155.279 -102.709
L145.856 -101.652
L136.432 -99.7957
L127.009 -97.3714
L117.586 -95.0824
z
" id="m94444ab6b1" style="stroke:#2777ad;stroke-opacity:0.5;"/>
    </defs>
    <g clip-path="url(#p39f61a35d8)">
     <use style="fill:#2777ad;fill-opacity:0.5;stroke:#2777ad;stroke-opacity:0.5;" x="0.0" xlink:href="#m94444ab6b1" y="635.8375"/>
    </g>
   </g>
   <g id="PolyCollection_5">
    <path clip-path="url(#p39f61a35d8)" d="
M127.009 540.734
L127.009 541.125
L136.432 539.744
L136.432 539.134
L136.432 539.134
L127.009 540.734
z
" style="fill:#f2800e;fill-opacity:0.5;stroke:#f2800e;stroke-opacity:0.5;"/>
    <path clip-path="url(#p39f61a35d8)" d="
M117.585 542.04
L117.585 542.195
L145.855 538.455
L155.278 537.493
L164.701 536.943
L174.124 536.635
L183.547 536.479
L192.97 536.159
L202.393 535.984
L211.816 535.724
L221.239 535.697
L230.663 535.661
L240.086 535.65
L249.509 535.515
L258.932 535.352
L268.355 535.242
L277.778 535.248
L287.201 535.307
L296.624 535.426
L306.047 535.451
L315.47 535.367
L324.893 535.15
L334.317 534.902
L343.74 534.6
L353.163 534.319
L362.586 534.047
L372.009 533.851
L381.431 533.642
L390.854 533.423
L400.277 533.151
L409.7 532.929
L419.123 532.671
L428.546 532.371
L437.969 531.925
L447.393 531.473
L456.816 531.055
L466.239 530.759
L475.662 530.46
L485.085 530.112
L494.508 529.641
L503.931 529.167
L513.354 528.763
L522.777 528.506
L532.2 528.341
L541.623 528.191
L551.046 527.973
L560.47 527.684
L569.893 527.373
L579.316 527.15
L588.739 527.003
L598.162 526.92
L607.585 526.761
L617.008 526.594
L626.431 526.418
L635.854 526.332
L645.277 526.198
L654.7 526.028
L664.123 525.801
L673.547 525.645
L682.97 525.528
L692.392 525.453
L701.815 525.39
L711.238 525.374
L720.661 525.394
L730.084 525.43
L739.507 525.411
L748.93 525.339
L758.354 525.213
L767.777 525.126
L777.2 525.152
L786.623 525.253
L796.046 525.413
L805.469 525.514
L814.892 525.619
L824.315 525.663
L833.738 525.698
L843.161 525.74
L852.585 525.888
L862.008 526.117
L871.431 526.394
L880.854 526.581
L890.277 526.71
L899.7 526.834
L909.123 527.043
L918.546 527.264
L927.97 527.434
L937.392 527.574
L946.816 527.789
L956.239 528.061
L965.662 528.28
L975.085 528.43
L984.508 528.527
L993.931 528.699
L1003.35 528.887
L1012.78 529.1
L1022.2 529.301
L1031.62 529.443
L1041.05 529.542
L1050.47 529.576
L1059.89 529.642
L1069.32 529.692
L1078.74 529.799
L1088.16 529.95
L1097.58 530.221
L1107.01 530.458
L1116.43 530.639
L1125.85 530.66
L1135.28 530.628
L1144.7 530.54
L1154.12 530.545
L1163.55 530.59
L1172.97 530.728
L1182.39 530.861
L1182.39 515.152
L1182.39 515.152
L1172.97 515.022
L1163.55 514.875
L1154.12 514.876
L1144.7 514.957
L1135.28 515.162
L1125.85 515.269
L1116.43 515.29
L1107.01 515.126
L1097.58 514.915
L1088.16 514.664
L1078.74 514.54
L1069.32 514.463
L1059.89 514.466
L1050.47 514.468
L1041.05 514.507
L1031.62 514.462
L1022.2 514.363
L1012.78 514.198
L1003.35 514.026
L993.931 513.894
L984.508 513.805
L975.085 513.823
L965.662 513.797
L956.239 513.684
L946.816 513.499
L937.392 513.367
L927.97 513.309
L918.546 513.231
L909.123 513.083
L899.7 512.966
L890.277 512.941
L880.854 512.922
L871.431 512.814
L862.008 512.57
L852.585 512.375
L843.161 512.288
L833.738 512.345
L824.315 512.4
L814.892 512.441
L805.469 512.407
L796.046 512.381
L786.623 512.276
L777.2 512.245
L767.777 512.313
L758.354 512.537
L748.93 512.822
L739.507 513.053
L730.084 513.237
L720.661 513.35
L711.238 513.459
L701.815 513.58
L692.392 513.748
L682.97 513.96
L673.547 514.245
L664.123 514.602
L654.7 515.037
L645.277 515.404
L635.854 515.706
L626.431 515.927
L617.008 516.25
L607.585 516.567
L598.162 516.906
L588.739 517.138
L579.316 517.449
L569.893 517.829
L560.47 518.334
L551.046 518.804
L541.623 519.184
L532.2 519.443
L522.777 519.679
L513.354 519.98
L503.931 520.44
L494.508 520.98
L485.085 521.533
L475.662 521.974
L466.239 522.386
L456.816 522.83
L447.393 523.425
L437.969 524.095
L428.546 524.803
L419.123 525.444
L409.7 526.094
L400.277 526.733
L390.854 527.415
L381.431 528.045
L372.009 528.651
L362.586 529.214
L353.163 529.805
L343.74 530.377
L334.317 530.936
L324.893 531.452
L315.47 531.945
L306.047 532.369
L296.624 532.691
L287.201 532.907
L277.778 533.11
L268.355 533.423
L258.932 533.849
L249.509 534.222
L240.086 534.469
L230.663 534.527
L221.239 534.608
L211.816 534.637
L202.393 534.953
L192.97 535.19
L183.547 535.681
L174.124 536.053
L164.701 536.536
L155.278 537.035
L145.855 537.831
L117.585 542.04
z
" style="fill:#f2800e;fill-opacity:0.5;stroke:#f2800e;stroke-opacity:0.5;"/>
   </g>
   <g id="PolyCollection_6">
    <path clip-path="url(#p39f61a35d8)" d="
M127.009 541.548
L127.009 541.851
L136.432 541.373
L136.432 541.056
L136.432 541.056
L127.009 541.548
z
" style="fill:#3b9c34;fill-opacity:0.5;stroke:#3b9c34;stroke-opacity:0.5;"/>
    <path clip-path="url(#p39f61a35d8)" d="
M117.585 542.147
L117.585 542.334
L145.855 540.754
L155.278 540.192
L164.701 539.51
L174.124 538.867
L183.547 538.307
L192.97 538.076
L202.393 538.008
L211.816 538.012
L221.239 537.943
L230.663 537.853
L240.086 537.718
L249.509 537.702
L258.932 537.836
L268.355 538.074
L277.778 538.314
L287.201 538.505
L296.624 538.692
L306.047 538.77
L315.47 538.936
L324.893 538.945
L334.317 539
L343.74 538.993
L353.163 539.054
L362.586 539.133
L372.009 539.105
L381.431 539.124
L390.854 539.139
L400.277 539.243
L409.7 539.316
L419.123 539.37
L428.546 539.388
L437.969 539.383
L447.393 539.362
L456.816 539.344
L466.239 539.358
L475.662 539.359
L485.085 539.336
L494.508 539.265
L503.931 539.199
L513.354 539.174
L522.777 539.187
L532.2 539.236
L541.623 539.218
L551.046 539.205
L560.47 539.123
L569.893 539.055
L579.316 538.933
L588.739 538.856
L598.162 538.834
L607.585 538.845
L617.008 538.87
L626.431 538.881
L635.854 538.937
L645.277 538.965
L654.7 538.945
L664.123 538.87
L673.547 538.829
L682.97 538.874
L692.392 539.017
L701.815 539.164
L711.238 539.251
L720.661 539.298
L730.084 539.364
L739.507 539.464
L748.93 539.574
L758.354 539.619
L767.777 539.659
L777.2 539.685
L786.623 539.803
L796.046 539.927
L805.469 540.057
L814.892 540.168
L824.315 540.289
L833.738 540.363
L843.161 540.414
L852.585 540.477
L862.008 540.65
L871.431 540.823
L880.854 540.969
L890.277 540.994
L899.7 541.011
L909.123 541.028
L918.546 541.114
L927.97 541.228
L937.392 541.36
L946.816 541.483
L956.239 541.553
L965.662 541.641
L975.085 541.739
L984.508 541.891
L993.931 542.032
L1003.35 542.13
L1012.78 542.228
L1022.2 542.296
L1031.62 542.401
L1041.05 542.494
L1050.47 542.648
L1059.89 542.8
L1069.32 542.942
L1078.74 543.041
L1088.16 543.128
L1097.58 543.24
L1107.01 543.389
L1116.43 543.581
L1125.85 543.764
L1135.28 543.85
L1144.7 543.812
L1154.12 543.716
L1163.55 543.688
L1172.97 543.733
L1182.39 543.819
L1182.39 540.837
L1182.39 540.837
L1172.97 540.681
L1163.55 540.608
L1154.12 540.703
L1144.7 540.852
L1135.28 540.896
L1125.85 540.785
L1116.43 540.577
L1107.01 540.374
L1097.58 540.216
L1088.16 540.098
L1078.74 540.003
L1069.32 539.896
L1059.89 539.704
L1050.47 539.481
L1041.05 539.211
L1031.62 539.148
L1022.2 539.064
L1012.78 539.056
L1003.35 538.935
L993.931 538.79
L984.508 538.539
L975.085 538.255
L965.662 538.085
L956.239 538.049
L946.816 538.015
L937.392 537.858
L927.97 537.511
L918.546 537.248
L909.123 537.052
L899.7 537.064
L890.277 537.006
L880.854 536.949
L871.431 536.74
L862.008 536.514
L852.585 536.278
L843.161 536.224
L833.738 536.174
L824.315 536.045
L814.892 535.774
L805.469 535.552
L796.046 535.37
L786.623 535.263
L777.2 535.133
L767.777 535.162
L758.354 535.055
L748.93 534.979
L739.507 534.797
L730.084 534.802
L720.661 534.845
L711.238 534.922
L701.815 534.915
L692.392 534.829
L682.97 534.705
L673.547 534.663
L664.123 534.768
L654.7 534.968
L645.277 535.105
L635.854 535.135
L626.431 535.138
L617.008 535.152
L607.585 535.06
L598.162 534.86
L588.739 534.759
L579.316 534.91
L569.893 535.292
L560.47 535.608
L551.046 535.881
L541.623 535.992
L532.2 536.081
L522.777 536.103
L513.354 536.232
L503.931 536.413
L494.508 536.622
L485.085 536.782
L475.662 536.868
L466.239 536.859
L456.816 536.848
L447.393 536.914
L437.969 537.139
L428.546 537.348
L419.123 537.497
L409.7 537.531
L400.277 537.515
L390.854 537.447
L381.431 537.46
L372.009 537.496
L362.586 537.615
L353.163 537.668
L343.74 537.693
L334.317 537.708
L324.893 537.627
L315.47 537.578
L306.047 537.457
L296.624 537.476
L287.201 537.452
L277.778 537.434
L268.355 537.273
L258.932 537.02
L249.509 536.794
L240.086 536.656
L230.663 536.762
L221.239 536.97
L211.816 537.18
L202.393 537.244
L192.97 537.357
L183.547 537.62
L174.124 538.208
L164.701 538.855
L155.278 539.673
L145.855 540.408
L117.585 542.147
z
" style="fill:#3b9c34;fill-opacity:0.5;stroke:#3b9c34;stroke-opacity:0.5;"/>
   </g>
   <g id="PolyCollection_7">
    <defs>
     <path d="
M117.586 -94.6794
L117.586 -94.4596
L127.009 -96.0853
L136.432 -97.7335
L145.856 -99.0749
L155.279 -100.012
L164.702 -100.664
L174.125 -101.186
L183.549 -101.656
L192.972 -101.899
L202.395 -102.004
L211.819 -101.951
L221.242 -101.904
L230.665 -101.728
L240.088 -101.533
L249.512 -101.278
L258.935 -101.107
L268.358 -100.796
L277.781 -100.369
L287.205 -99.8032
L296.628 -99.3123
L306.051 -98.891
L315.474 -98.5461
L324.898 -98.2192
L334.321 -97.9342
L343.744 -97.6509
L353.167 -97.2899
L362.591 -96.8352
L372.014 -96.3254
L381.437 -95.9176
L390.86 -95.5525
L400.284 -95.1815
L409.707 -94.7039
L419.13 -94.2565
L428.554 -93.8812
L437.977 -93.5557
L447.399 -93.224
L456.822 -92.8582
L466.246 -92.5236
L475.669 -92.1865
L485.092 -91.8806
L494.515 -91.5507
L503.939 -91.2408
L513.362 -90.936
L522.785 -90.6816
L532.208 -90.4196
L541.632 -90.148
L551.055 -89.8394
L560.478 -89.5807
L569.901 -89.3642
L579.325 -89.1957
L588.748 -88.9903
L598.171 -88.7761
L607.595 -88.5609
L617.018 -88.3782
L626.441 -88.2203
L635.865 -88.0557
L645.288 -87.8707
L654.711 -87.6659
L664.134 -87.4869
L673.558 -87.3544
L682.981 -87.2165
L692.404 -87.0613
L701.827 -86.9068
L711.251 -86.7961
L720.674 -86.7076
L730.097 -86.6057
L739.521 -86.4807
L748.944 -86.3534
L758.367 -86.2226
L767.79 -86.0789
L777.213 -85.9237
L786.637 -85.7657
L796.06 -85.6331
L805.483 -85.5329
L814.906 -85.4626
L824.33 -85.4098
L833.752 -85.3442
L843.175 -85.2535
L852.598 -85.1278
L862.022 -84.9885
L871.445 -84.8583
L880.868 -84.7409
L890.291 -84.6609
L899.714 -84.5883
L909.138 -84.5508
L918.561 -84.4822
L927.984 -84.4096
L937.407 -84.315
L946.831 -84.2694
L956.254 -84.2574
L965.677 -84.2479
L975.1 -84.2177
L984.524 -84.1612
L993.947 -84.1287
L1003.37 -84.0573
L1012.79 -83.9926
L1022.22 -83.8968
L1031.64 -83.8349
L1041.06 -83.8032
L1050.49 -83.7864
L1059.91 -83.7715
L1069.33 -83.7219
L1078.76 -83.6699
L1088.18 -83.6132
L1097.6 -83.5818
L1107.02 -83.568
L1116.45 -83.5727
L1125.87 -83.5701
L1135.29 -83.5431
L1144.72 -83.5178
L1154.14 -83.4911
L1163.56 -83.4776
L1172.99 -83.4609
L1182.41 -83.4297
L1191.83 -83.4049
L1201.26 -83.3496
L1210.68 -83.3253
L1220.1 -83.3062
L1229.53 -83.3133
L1229.53 -84.4655
L1229.53 -84.4655
L1220.1 -84.4552
L1210.68 -84.4709
L1201.26 -84.511
L1191.83 -84.5722
L1182.41 -84.6194
L1172.99 -84.6179
L1163.56 -84.6062
L1154.14 -84.5853
L1144.72 -84.6107
L1135.29 -84.6448
L1125.87 -84.6848
L1116.45 -84.7071
L1107.02 -84.7191
L1097.6 -84.7425
L1088.18 -84.7806
L1078.76 -84.8131
L1069.33 -84.8654
L1059.91 -84.8976
L1050.49 -84.9422
L1041.06 -84.9577
L1031.64 -85.0028
L1022.22 -85.0376
L1012.79 -85.1006
L1003.37 -85.1326
L993.947 -85.1728
L984.524 -85.1799
L975.1 -85.2077
L965.677 -85.2495
L956.254 -85.2847
L946.831 -85.2925
L937.407 -85.289
L927.984 -85.3358
L918.561 -85.3971
L909.138 -85.4749
L899.714 -85.5191
L890.291 -85.6028
L880.868 -85.6766
L871.445 -85.7601
L862.022 -85.801
L852.598 -85.8651
L843.175 -85.9477
L833.752 -86.0355
L824.33 -86.0766
L814.906 -86.1056
L805.483 -86.1643
L796.06 -86.2723
L786.637 -86.4002
L777.213 -86.5249
L767.79 -86.6524
L758.367 -86.7443
L748.944 -86.8467
L739.521 -86.9376
L730.097 -87.0655
L720.674 -87.1744
L711.251 -87.2769
L701.827 -87.3894
L692.404 -87.5201
L682.981 -87.6625
L673.558 -87.7776
L664.134 -87.9079
L654.711 -88.0563
L645.288 -88.2384
L635.865 -88.3957
L626.441 -88.5658
L617.018 -88.7427
L607.595 -88.9444
L598.171 -89.1384
L588.748 -89.2987
L579.325 -89.4678
L569.901 -89.6366
L560.478 -89.8715
L551.055 -90.136
L541.632 -90.435
L532.208 -90.7065
L522.785 -90.9778
L513.362 -91.2541
L503.939 -91.5842
L494.515 -91.9265
L485.092 -92.2885
L475.669 -92.6273
L466.246 -92.9847
L456.822 -93.3395
L447.399 -93.7351
L437.977 -94.0928
L428.554 -94.4121
L419.13 -94.7634
L409.707 -95.2039
L400.284 -95.6985
L390.86 -96.0739
L381.437 -96.4355
L372.014 -96.8635
L362.591 -97.4449
L353.167 -97.9623
L343.744 -98.3527
L334.321 -98.6621
L324.898 -98.9823
L315.474 -99.3548
L306.051 -99.7389
L296.628 -100.206
L287.205 -100.796
L277.781 -101.509
L268.358 -102.125
L258.935 -102.624
L249.512 -102.964
L240.088 -103.339
L230.665 -103.588
L221.242 -103.76
L211.819 -103.775
L202.395 -103.763
L192.972 -103.57
L183.549 -103.177
L174.125 -102.498
L164.702 -101.726
L155.279 -100.887
L145.856 -99.8279
L136.432 -98.3668
L127.009 -96.5257
L117.586 -94.6794
z
" id="me7a81a31e6" style="stroke:#f69d9c;stroke-opacity:0.5;"/>
    </defs>
    <g clip-path="url(#p39f61a35d8)">
     <use style="fill:#f69d9c;fill-opacity:0.5;stroke:#f69d9c;stroke-opacity:0.5;" x="0.0" xlink:href="#me7a81a31e6" y="635.8375"/>
    </g>
   </g>
   <g id="PolyCollection_8">
    <defs>
     <path d="
M117.586 -95.0192
L117.586 -94.5241
L127.009 -96.1534
L136.432 -97.6611
L145.856 -98.8508
L155.279 -99.5327
L164.702 -100.022
L174.125 -100.165
L183.549 -100.459
L192.972 -100.457
L202.395 -100.576
L211.819 -100.349
L221.242 -100.24
L230.665 -99.9985
L240.088 -100.022
L249.512 -100.028
L258.935 -100.211
L268.358 -100.029
L277.781 -99.8768
L287.205 -99.5169
L296.628 -99.4066
L306.051 -99.2517
L315.474 -99.1516
L324.898 -99.1027
L334.321 -98.9612
L343.744 -98.79
L353.167 -98.398
L362.591 -98.0496
L372.014 -97.6883
L381.437 -97.3402
L390.86 -97.0075
L400.284 -96.5389
L409.707 -96.1637
L419.13 -95.7137
L428.554 -95.4935
L437.977 -95.2786
L447.399 -95.212
L456.822 -95.1042
L466.246 -95.0835
L475.669 -94.896
L485.092 -94.7353
L494.515 -94.3968
L503.939 -94.2309
L513.362 -93.9899
L522.785 -93.9467
L532.208 -93.8872
L541.632 -93.6917
L551.055 -93.4866
L560.478 -93.1242
L569.901 -93.1589
L579.325 -93.0459
L588.748 -92.9933
L598.171 -92.7556
L607.595 -92.5635
L617.018 -92.4966
L626.441 -92.4224
L635.865 -92.3801
L645.288 -92.2797
L654.711 -92.0037
L664.134 -91.9121
L673.558 -91.7805
L682.981 -91.8043
L692.404 -91.4968
L701.827 -91.2319
L711.251 -90.95
L720.674 -90.9604
L730.097 -90.7942
L739.521 -90.6951
L748.944 -90.3731
L758.367 -90.2944
L767.79 -90.0998
L777.213 -90.0367
L786.637 -89.7499
L796.06 -89.5615
L805.483 -89.2935
L814.906 -89.1949
L824.33 -89.0623
L833.752 -88.9905
L843.175 -89.0477
L852.598 -89.0845
L862.022 -89.0154
L871.445 -88.8026
L880.868 -88.512
L890.291 -88.3859
L899.714 -88.1684
L909.138 -88.151
L918.561 -88.0604
L927.984 -88.0193
L937.407 -87.9923
L946.831 -87.9281
L956.254 -87.8948
L965.677 -87.7475
L975.1 -87.6538
L984.524 -87.7327
L993.947 -87.6774
L1003.37 -87.7077
L1012.79 -87.463
L1022.22 -87.4339
L1031.64 -87.2325
L1041.06 -87.1684
L1050.49 -87.0347
L1059.91 -86.9157
L1069.33 -86.8713
L1078.76 -86.8282
L1088.18 -86.8575
L1097.6 -86.8222
L1107.02 -86.7341
L1116.45 -86.6995
L1125.87 -86.7091
L1135.29 -86.7287
L1144.72 -86.8392
L1154.14 -86.794
L1163.56 -86.8633
L1172.99 -86.6908
L1182.41 -86.5742
L1191.83 -86.5083
L1201.26 -86.4696
L1210.68 -86.5693
L1220.1 -86.4589
L1229.53 -86.3861
L1229.53 -87.6521
L1229.53 -87.6521
L1220.1 -87.7456
L1210.68 -87.9129
L1201.26 -87.8216
L1191.83 -87.8846
L1182.41 -87.9675
L1172.99 -88.1014
L1163.56 -88.2686
L1154.14 -88.1346
L1144.72 -88.1366
L1135.29 -88.0239
L1125.87 -88.0037
L1116.45 -88.0258
L1107.02 -88.0978
L1097.6 -88.223
L1088.18 -88.262
L1078.76 -88.1921
L1069.33 -88.2234
L1059.91 -88.2733
L1050.49 -88.4196
L1041.06 -88.5761
L1031.64 -88.6435
L1022.22 -88.8859
L1012.79 -88.9387
L1003.37 -89.2917
L993.947 -89.2699
L984.524 -89.3635
L975.1 -89.2538
L965.677 -89.3635
L956.254 -89.541
L946.831 -89.5227
L937.407 -89.5998
L927.984 -89.6101
L918.561 -89.7152
L909.138 -89.823
L899.714 -89.8379
L890.291 -90.0742
L880.868 -90.1937
L871.445 -90.5007
L862.022 -90.7194
L852.598 -90.7347
L843.175 -90.6872
L833.752 -90.6228
L824.33 -90.7197
L814.906 -90.8499
L805.483 -90.9572
L796.06 -91.2447
L786.637 -91.4556
L777.213 -91.759
L767.79 -91.8298
L758.367 -92.032
L748.944 -92.1393
L739.521 -92.477
L730.097 -92.6184
L720.674 -92.8194
L711.251 -92.9041
L701.827 -93.2299
L692.404 -93.5799
L682.981 -93.9719
L673.558 -94.1444
L664.134 -94.4344
L654.711 -94.7098
L645.288 -95.0886
L635.865 -95.313
L626.441 -95.437
L617.018 -95.5264
L607.595 -95.5537
L598.171 -95.6369
L588.748 -95.7389
L579.325 -95.7384
L569.901 -95.7916
L560.478 -95.7594
L551.055 -95.9897
L541.632 -96.0971
L532.208 -96.1868
L522.785 -96.1619
L513.362 -96.1089
L503.939 -96.2671
L494.515 -96.3616
L485.092 -96.6878
L475.669 -96.8074
L466.246 -96.9819
L456.822 -96.9537
L447.399 -97.0642
L437.977 -97.1092
L428.554 -97.3035
L419.13 -97.428
L409.707 -97.789
L400.284 -98.0586
L390.86 -98.453
L381.437 -98.6659
L372.014 -98.9279
L362.591 -99.2362
L353.167 -99.6194
L343.744 -100.19
L334.321 -100.413
L324.898 -100.636
L315.474 -100.612
L306.051 -100.737
L296.628 -100.9
L287.205 -100.951
L277.781 -101.392
L268.358 -101.443
L258.935 -101.683
L249.512 -101.241
L240.088 -101.178
L230.665 -101.04
L221.242 -101.442
L211.819 -101.641
L202.395 -102.002
L192.972 -101.714
L183.549 -101.643
L174.125 -101.2
L164.702 -101.16
L155.279 -100.781
L145.856 -100.233
L136.432 -98.9378
L127.009 -97.1296
L117.586 -95.0192
z
" id="m28874ac7e3" style="stroke:#b0d98f;stroke-opacity:0.5;"/>
    </defs>
    <g clip-path="url(#p39f61a35d8)">
     <use style="fill:#b0d98f;fill-opacity:0.5;stroke:#b0d98f;stroke-opacity:0.5;" x="0.0" xlink:href="#m28874ac7e3" y="635.8375"/>
    </g>
   </g>
   <g id="line2d_1">
    <path clip-path="url(#p39f61a35d8)" d="
M117.586 539.127
L127.009 533.916
L136.432 527.075
L145.856 516.581
L155.279 502.615
L164.702 482.749
L174.125 458.037
L183.549 429.334
L192.972 400.043
L202.395 372.647
L211.819 348.816
L221.242 328.717
L230.665 312.12
L240.088 297.868
L258.935 273.226
L268.358 260.756
L277.781 247.61
L287.205 235.237
L296.628 223.599
L306.051 213.113
L315.474 202.897
L324.898 193.003
L334.321 182.736
L343.744 172.92
L353.167 163.444
L362.591 154.762
L372.014 146.503
L381.437 139.031
L390.86 132.4
L400.284 126.58
L409.707 121.049
L419.13 115.748
L428.554 110.616
L437.977 106.04
L447.399 101.735
L456.822 97.7088
L466.246 93.4234
L475.669 89.2892
L485.092 85.0261
L503.939 77.4968
L513.362 74.3237
L522.785 71.3179
L551.055 63.2827
L560.478 61.052
L569.901 59.0097
L626.441 48.6334
L635.865 46.9941
L654.711 44.2648
L673.558 41.8394
L682.981 40.7482
L692.404 39.8529
L711.251 38.4071
L730.097 37.0704
L748.944 35.7919
L758.367 35.3257
L767.79 35.0715
L777.213 35.0777
L786.637 35.2339
L796.06 35.5104
L833.752 37.0828
L852.598 38.0673
L890.291 40.1307
L909.138 41.5567
L918.561 42.3701
L927.984 43.0707
L937.407 43.5692
L965.677 44.4732
L984.524 45.4255
L1003.37 46.8502
L1012.79 47.6612
L1041.06 49.7035
L1059.91 51.1902
L1078.76 52.5716
L1088.18 53.261
L1107.02 54.3584
L1135.29 55.5166
L1154.14 56.6152
L1172.99 57.9247
L1182.41 58.4814
L1215.6 59.6482
L1215.6 59.6482" style="fill:none;stroke:#c7b1d3;stroke-linecap:square;stroke-width:2;"/>
   </g>
   <g id="line2d_2">
    <path clip-path="url(#p39f61a35d8)" d="
M117.586 541.17
L127.009 539.475
L136.432 537.794
L145.856 536.661
L155.279 536.02
L164.702 535.583
L174.125 535.29
L183.549 534.519
L192.972 534.045
L202.395 533.21
L211.819 532.939
L221.242 532.458
L230.665 532.774
L240.088 532.913
L249.512 533.447
L258.935 533.411
L268.358 533.826
L277.781 533.827
L287.205 534.144
L296.628 533.947
L324.898 534.329
L334.321 534.283
L343.744 533.765
L362.591 534.205
L372.014 535.284
L381.437 535.983
L390.86 536.82
L400.284 536.986
L419.13 537.01
L428.554 537.284
L437.977 537.941
L447.399 538.441
L456.822 539.238
L466.246 539.775
L475.669 540.684
L485.092 541.123
L494.515 541.85
L503.939 542.173
L513.362 542.632
L551.055 543.424
L560.478 543.919
L569.901 544.24
L579.325 544.39
L598.171 544.931
L607.595 545.517
L626.441 546.35
L635.865 546.557
L654.711 546.612
L673.558 546.529
L692.404 547.09
L701.827 547.624
L711.251 547.89
L720.674 547.846
L739.521 547.307
L758.367 547.973
L767.79 548.305
L777.213 548.164
L796.06 548.665
L805.483 549.035
L824.33 549.302
L833.752 549.652
L843.175 549.841
L852.598 549.824
L862.022 549.644
L871.445 549.58
L890.291 549.968
L899.714 550.117
L909.138 550.014
L918.561 549.799
L927.984 549.897
L937.407 549.854
L946.831 549.963
L956.254 549.74
L965.677 549.674
L984.524 549.685
L993.947 550.031
L1003.37 550.086
L1012.79 550.384
L1022.22 550.001
L1031.64 549.936
L1041.06 549.569
L1050.49 549.698
L1078.76 549.229
L1088.18 548.753
L1097.6 548.74
L1107.02 548.956
L1116.45 549.559
L1125.87 549.774
L1135.29 549.877
L1154.14 549.822
L1163.56 549.468
L1191.83 549.326
L1210.68 548.579
L1215.6 548.654
L1215.6 548.654" style="fill:none;stroke:#d92526;stroke-linecap:square;stroke-width:2;"/>
   </g>
   <g id="line2d_3">
    <path clip-path="url(#p39f61a35d8)" d="
M117.586 541.496
L127.009 540.157
L136.432 538.613
L155.279 536.706
L183.549 535.548
L192.972 535.379
L211.819 535.378
L230.665 535.15
L240.088 535.239
L249.512 535.162
L258.935 534.858
L268.358 534.097
L277.781 532.992
L287.205 531.31
L296.628 528.756
L306.051 524.718
L315.474 518.743
L324.898 510.212
L334.321 498.763
L343.744 483.656
L353.167 465.417
L362.591 446.11
L372.014 428.626
L381.437 414.724
L390.86 403.754
L400.284 394.384
L409.707 385.388
L419.13 376.09
L428.554 366.618
L437.977 357.5
L447.399 349.709
L456.822 343.314
L466.246 337.646
L475.669 332.183
L494.515 320.743
L532.208 297.034
L541.632 290.936
L551.055 285.306
L560.478 280.242
L588.748 265.912
L607.595 255.83
L654.711 229.745
L701.827 204.596
L711.251 199.737
L720.674 195.08
L730.097 190.653
L758.367 178.019
L767.79 173.753
L786.637 166.141
L805.483 159.372
L814.906 156.232
L824.33 153.247
L833.752 150.395
L843.175 147.703
L862.022 142.671
L880.868 137.99
L899.714 133.994
L909.138 132.338
L918.561 130.849
L937.407 128.842
L946.831 128.205
L956.254 127.944
L965.677 128.246
L984.524 129.269
L993.947 129.886
L1012.79 131.753
L1022.22 132.657
L1041.06 134.265
L1069.33 136.983
L1088.18 138.757
L1097.6 139.613
L1125.87 141.594
L1172.99 145.963
L1210.68 148.766
L1215.6 149.047
L1215.6 149.047" style="fill:none;stroke:#6c4595;stroke-linecap:square;stroke-width:2;"/>
   </g>
   <g id="line2d_4">
    <path clip-path="url(#p39f61a35d8)" d="
M117.586 540.959
L127.009 538.836
L136.432 536.537
L145.856 534.796
L155.279 533.85
L174.125 533.336
L192.972 532.166
L202.395 531.698
L211.819 532.004
L221.242 532.517
L230.665 533.59
L249.512 535.249
L258.935 535.4
L268.358 535.327
L277.781 534.556
L287.205 533.663
L306.051 531.006
L315.474 529.331
L334.321 525.196
L343.744 522.773
L353.167 520.492
L372.014 514.978
L390.86 508.637
L400.284 505.139
L409.707 501.171
L419.13 496.857
L428.554 492.184
L437.977 487.954
L447.399 483.525
L456.822 479.326
L475.669 469.849
L494.515 459.522
L513.362 448.634
L522.785 442.791
L532.208 436.557
L551.055 423.488
L569.901 410.106
L579.325 402.989
L588.748 396.161
L598.171 389.181
L607.595 382.899
L617.018 376.352
L626.441 370.153
L635.865 363.464
L645.288 356.943
L654.711 350.242
L664.134 343.952
L682.981 331.129
L701.827 317.24
L711.251 310.121
L720.674 303.365
L730.097 296.979
L739.521 291.099
L748.944 285.623
L767.79 274.473
L777.213 268.924
L805.483 254.012
L814.906 248.699
L824.33 243.752
L833.752 239.063
L843.175 234.772
L862.022 225.816
L871.445 221.322
L890.291 213.326
L909.138 206.292
L918.561 203.109
L927.984 199.737
L937.407 196.108
L946.831 192.215
L956.254 188.809
L965.677 185.714
L975.1 183.202
L984.524 180.427
L993.947 178.236
L1003.37 175.784
L1012.79 173.82
L1022.22 171.309
L1031.64 169.275
L1041.06 167.069
L1050.49 165.393
L1069.33 161.518
L1078.76 159.24
L1097.6 155.239
L1107.02 153.618
L1116.45 151.794
L1125.87 150.236
L1135.29 148.81
L1154.14 146.636
L1163.56 145.294
L1182.41 143.373
L1201.26 142.338
L1215.6 141.574
L1215.6 141.574" style="fill:none;stroke:#2777ad;stroke-linecap:square;stroke-width:2;"/>
   </g>
   <g id="line2d_5">
    <path clip-path="url(#p39f61a35d8)" d="
M127.009 540.929
L136.432 539.439
M117.585 542.117
L145.855 538.143
L155.278 537.264
L164.701 536.74
L174.124 536.344
L183.547 536.08
L192.97 535.674
L221.239 535.152
L249.509 534.868
L268.355 534.333
L287.201 534.107
L306.047 533.91
L324.893 533.301
L353.163 532.062
L428.546 528.587
L456.816 526.942
L485.085 525.823
L513.354 524.372
L532.2 523.892
L551.046 523.388
L579.316 522.3
L692.392 519.6
L711.238 519.417
L739.507 519.232
L777.2 518.699
L833.738 519.021
L843.161 519.014
L862.008 519.344
L871.431 519.604
L890.277 519.826
L909.123 520.063
L927.97 520.372
L946.816 520.644
L965.662 521.039
L1003.35 521.457
L1031.62 521.953
L1050.47 522.022
L1078.74 522.17
L1088.16 522.307
L1107.01 522.792
L1116.43 522.964
L1135.28 522.895
L1154.12 522.71
L1163.55 522.732
L1182.39 523.007
L1182.39 523.007" style="fill:none;stroke:#f2800e;stroke-linecap:square;stroke-width:2;"/>
   </g>
   <g id="line2d_6">
    <path clip-path="url(#p39f61a35d8)" d="
M127.009 541.7
L136.432 541.215
M117.585 542.24
L145.855 540.581
L155.278 539.933
L174.124 538.538
L183.547 537.963
L192.97 537.717
L249.509 537.248
L296.624 538.084
L306.047 538.113
L315.47 538.257
L362.586 538.374
L381.431 538.292
L400.277 538.379
L419.123 538.433
L560.47 537.366
L588.739 536.808
L645.277 537.035
L682.97 536.789
L711.238 537.087
L739.507 537.13
L758.354 537.337
L805.469 537.805
L833.738 538.268
L852.585 538.378
L880.854 538.959
L918.546 539.181
L946.816 539.749
L975.085 539.997
L993.931 540.411
L1022.2 540.68
L1050.47 541.065
L1078.74 541.522
L1107.01 541.882
L1135.28 542.373
L1172.97 542.207
L1182.39 542.328
L1182.39 542.328" style="fill:none;stroke:#3b9c34;stroke-linecap:square;stroke-width:2;"/>
   </g>
   <g id="line2d_7">
    <path clip-path="url(#p39f61a35d8)" d="
M117.586 541.268
L136.432 537.787
L145.856 536.386
L155.279 535.388
L174.125 533.995
L183.549 533.421
L192.972 533.103
L202.395 532.954
L221.242 533.006
L240.088 533.401
L268.358 534.377
L277.781 534.898
L296.628 536.079
L315.474 536.887
L362.591 538.697
L372.014 539.243
L428.554 541.691
L466.246 543.083
L513.362 544.742
L579.325 546.506
L673.558 548.272
L805.483 549.989
L871.445 550.528
L909.138 550.825
L946.831 551.057
L993.947 551.187
L1088.18 551.641
L1154.14 551.799
L1191.83 551.849
L1215.6 551.949
L1215.6 551.949" style="fill:none;stroke:#f69d9c;stroke-linecap:square;stroke-width:2;"/>
   </g>
   <g id="line2d_8">
    <path clip-path="url(#p39f61a35d8)" d="
M117.586 541.066
L127.009 539.196
L136.432 537.538
L145.856 536.296
L155.279 535.681
L164.702 535.247
L174.125 535.155
L183.549 534.787
L192.972 534.752
L202.395 534.548
L211.819 534.842
L221.242 534.996
L230.665 535.318
L249.512 535.203
L258.935 534.891
L306.051 535.843
L343.744 536.348
L353.167 536.829
L381.437 537.834
L390.86 538.107
L409.707 538.861
L419.13 539.267
L447.399 539.699
L456.822 539.809
L466.246 539.805
L522.785 540.783
L532.208 540.801
L551.055 541.099
L560.478 541.396
L569.901 541.362
L635.865 541.991
L645.288 542.153
L654.711 542.481
L692.404 543.299
L711.251 543.91
L720.674 543.948
L796.06 545.434
L805.483 545.712
L833.752 546.031
L852.598 545.928
L862.022 545.97
L899.714 546.834
L918.561 546.95
L946.831 547.112
L956.254 547.12
L975.1 547.384
L984.524 547.289
L1003.37 547.338
L1012.79 547.637
L1022.22 547.678
L1031.64 547.9
L1050.49 548.11
L1069.33 548.29
L1135.29 548.461
L1144.72 548.35
L1154.14 548.373
L1163.56 548.272
L1182.41 548.567
L1201.26 548.692
L1210.68 548.596
L1215.6 548.669
L1215.6 548.669" style="fill:none;stroke:#b0d98f;stroke-linecap:square;stroke-width:2;"/>
   </g>
   <g id="patch_3">
    <path d="
M79.8934 565.2
L79.8934 7.2" style="fill:none;stroke:#000000;stroke-linecap:square;stroke-linejoin:miter;stroke-width:2;"/>
   </g>
   <g id="patch_4">
    <path d="
M79.8934 565.2
L1195.89 565.2" style="fill:none;stroke:#000000;stroke-linecap:square;stroke-linejoin:miter;stroke-width:2;"/>
   </g>
   <g id="matplotlib.axis_1">
    <g id="xtick_1">
     <g id="line2d_9">
      <defs>
       <path d="
M0 0
L0 10" id="md076d4ca60" style="stroke:#000000;stroke-width:3;"/>
      </defs>
      <g>
       <use style="stroke:#000000;stroke-width:3;" x="79.8934375" xlink:href="#md076d4ca60" y="565.2"/>
      </g>
     </g>
     <g id="text_1">
      <!-- 0 -->
      <defs>
       <path d="
M27.0469 69.9219
Q40.625 69.9219 46.6875 58.7344
Q51.375 50.0938 51.375 35.0625
Q51.375 20.7969 47.125 11.4688
Q40.9688 -1.90625 27 -1.90625
Q14.4062 -1.90625 8.25 9.03125
Q3.125 18.1719 3.125 33.5469
Q3.125 45.4531 6.20312 54
Q11.9688 69.9219 27.0469 69.9219
z

M26.9531 6.10938
Q33.7969 6.10938 37.8438 12.1562
Q41.8906 18.2188 41.8906 34.7188
Q41.8906 46.625 38.9531 54.3125
Q36.0312 62.0156 27.5938 62.0156
Q19.8281 62.0156 16.2344 54.7031
Q12.6406 47.4062 12.6406 33.2031
Q12.6406 22.5156 14.9375 16.0156
Q18.4531 6.10938 26.9531 6.10938
z
" id="Helvetica-30"/>
      </defs>
      <g transform="translate(74.5859375 594.9815625)scale(0.22 -0.22)">
       <use xlink:href="#Helvetica-30"/>
      </g>
     </g>
    </g>
    <g id="xtick_2">
     <g id="line2d_10">
      <g>
       <use style="stroke:#000000;stroke-width:3;" x="265.8934375" xlink:href="#md076d4ca60" y="565.2"/>
      </g>
     </g>
     <g id="text_2">
      <!-- 5 -->
      <defs>
       <path d="
M12.3594 17.8281
Q13.2344 10.2969 19.3438 7.42188
Q22.4688 5.95312 26.5625 5.95312
Q34.375 5.95312 38.125 10.9375
Q41.8906 15.9219 41.8906 21.9688
Q41.8906 29.2969 37.4219 33.2969
Q32.9531 37.3125 26.7031 37.3125
Q22.1719 37.3125 18.9219 35.5469
Q15.6719 33.7969 13.375 30.6719
L5.76562 31.1094
L11.0781 68.75
L47.4062 68.75
L47.4062 60.25
L17.6719 60.25
L14.7031 40.8281
Q17.1406 42.6719 19.3438 43.6094
Q23.25 45.2188 28.375 45.2188
Q37.9844 45.2188 44.6719 39.0156
Q51.375 32.8125 51.375 23.2969
Q51.375 13.375 45.2344 5.79688
Q39.1094 -1.76562 25.6875 -1.76562
Q17.1406 -1.76562 10.5625 3.04688
Q4 7.85938 3.21875 17.8281
z
" id="Helvetica-35"/>
      </defs>
      <g transform="translate(260.59625 594.9815625)scale(0.22 -0.22)">
       <use xlink:href="#Helvetica-35"/>
      </g>
     </g>
    </g>
    <g id="xtick_3">
     <g id="line2d_11">
      <g>
       <use style="stroke:#000000;stroke-width:3;" x="451.8934375" xlink:href="#md076d4ca60" y="565.2"/>
      </g>
     </g>
     <g id="text_3">
      <!-- 10 -->
      <defs>
       <path d="
M9.57812 49.5156
L9.57812 56.25
Q19.0938 57.1719 22.8438 59.3438
Q26.6094 61.5312 28.4688 69.625
L35.4062 69.625
L35.4062 0
L26.0312 0
L26.0312 49.5156
z
" id="Helvetica-31"/>
      </defs>
      <g transform="translate(441.17875 594.9815625)scale(0.22 -0.22)">
       <use xlink:href="#Helvetica-31"/>
       <use x="55.615234375" xlink:href="#Helvetica-30"/>
      </g>
     </g>
    </g>
    <g id="xtick_4">
     <g id="line2d_12">
      <g>
       <use style="stroke:#000000;stroke-width:3;" x="637.8934375" xlink:href="#md076d4ca60" y="565.2"/>
      </g>
     </g>
     <g id="text_4">
      <!-- 15 -->
      <g transform="translate(627.17875 594.9815625)scale(0.22 -0.22)">
       <use xlink:href="#Helvetica-31"/>
       <use x="55.615234375" xlink:href="#Helvetica-35"/>
      </g>
     </g>
    </g>
    <g id="xtick_5">
     <g id="line2d_13">
      <g>
       <use style="stroke:#000000;stroke-width:3;" x="823.8934375" xlink:href="#md076d4ca60" y="565.2"/>
      </g>
     </g>
     <g id="text_5">
      <!-- 20 -->
      <defs>
       <path d="
M3.125 0
Q3.60938 9.03125 6.85938 15.7188
Q10.1094 22.4062 19.5312 27.875
L28.9062 33.2969
Q35.2031 36.9688 37.75 39.5469
Q41.75 43.6094 41.75 48.8281
Q41.75 54.9375 38.0781 58.5156
Q34.4219 62.1094 28.3281 62.1094
Q19.2812 62.1094 15.8281 55.2812
Q13.9688 51.6094 13.7656 45.125
L4.82812 45.125
Q4.98438 54.25 8.20312 60.0156
Q13.9219 70.1719 28.375 70.1719
Q40.375 70.1719 45.9219 63.6719
Q51.4688 57.1719 51.4688 49.2188
Q51.4688 40.8281 45.5625 34.8594
Q42.1406 31.3906 33.2969 26.4688
L26.6094 22.75
Q21.8281 20.125 19.0938 17.7188
Q14.2031 13.4844 12.9375 8.29688
L51.125 8.29688
L51.125 0
L3.125 0
z
" id="Helvetica-32"/>
      </defs>
      <g transform="translate(812.46890625 594.9815625)scale(0.22 -0.22)">
       <use xlink:href="#Helvetica-32"/>
       <use x="55.615234375" xlink:href="#Helvetica-30"/>
      </g>
     </g>
    </g>
    <g id="xtick_6">
     <g id="line2d_14">
      <g>
       <use style="stroke:#000000;stroke-width:3;" x="1009.8934375" xlink:href="#md076d4ca60" y="565.2"/>
      </g>
     </g>
     <g id="text_6">
      <!-- 25 -->
      <g transform="translate(998.46890625 594.9815625)scale(0.22 -0.22)">
       <use xlink:href="#Helvetica-32"/>
       <use x="55.615234375" xlink:href="#Helvetica-35"/>
      </g>
     </g>
    </g>
    <g id="xtick_7">
     <g id="line2d_15">
      <g>
       <use style="stroke:#000000;stroke-width:3;" x="1195.8934375" xlink:href="#md076d4ca60" y="565.2"/>
      </g>
     </g>
     <g id="text_7">
      <!-- 30 -->
      <defs>
       <path d="
M25.9844 -1.90625
Q13.5781 -1.90625 7.98438 4.90625
Q2.39062 11.7188 2.39062 21.4844
L11.5781 21.4844
Q12.1562 14.7031 14.1094 11.625
Q17.5312 6.10938 26.4688 6.10938
Q33.4062 6.10938 37.5938 9.8125
Q41.7969 13.5312 41.7969 19.3906
Q41.7969 26.6094 37.375 29.4844
Q32.9531 32.375 25.0938 32.375
Q24.2188 32.375 23.3125 32.3438
Q22.4062 32.3281 21.4844 32.2812
L21.4844 40.0469
Q22.8594 39.8906 23.7812 39.8438
Q24.7031 39.7969 25.7812 39.7969
Q30.7188 39.7969 33.8906 41.3594
Q39.4531 44.0938 39.4531 51.125
Q39.4531 56.3438 35.7344 59.1719
Q32.0312 62.0156 27.0938 62.0156
Q18.3125 62.0156 14.9375 56.1562
Q13.0938 52.9375 12.8438 46.9688
L4.15625 46.9688
Q4.15625 54.7812 7.28125 60.25
Q12.6406 70.0156 26.1719 70.0156
Q36.8594 70.0156 42.7188 65.25
Q48.5781 60.5 48.5781 51.4688
Q48.5781 45.0156 45.125 41.0156
Q42.9688 38.5312 39.5469 37.1094
Q45.0625 35.5938 48.1562 31.2656
Q51.2656 26.9531 51.2656 20.7031
Q51.2656 10.6875 44.6719 4.39062
Q38.0938 -1.90625 25.9844 -1.90625
z
" id="Helvetica-33"/>
      </defs>
      <g transform="translate(1184.388125 594.9815625)scale(0.22 -0.22)">
       <use xlink:href="#Helvetica-33"/>
       <use x="55.615234375" xlink:href="#Helvetica-30"/>
      </g>
     </g>
    </g>
    <g id="text_8">
     <!-- Hours -->
     <defs>
      <path d="
M6.6875 52.2969
L15.0469 52.2969
L15.0469 43.2656
Q16.0625 45.9062 20.0625 49.6875
Q24.0781 53.4688 29.2969 53.4688
Q29.5469 53.4688 30.125 53.4219
Q30.7188 53.375 32.125 53.2188
L32.125 43.9531
Q31.3438 44.0938 30.6875 44.1406
Q30.0312 44.1875 29.25 44.1875
Q22.6094 44.1875 19.0469 39.9062
Q15.4844 35.6406 15.4844 30.0781
L15.4844 0
L6.6875 0
z
" id="Helvetica-72"/>
      <path d="
M11.6719 16.4062
Q12.0625 12.0156 13.875 9.67188
Q17.1875 5.42188 25.3906 5.42188
Q30.2812 5.42188 33.9844 7.54688
Q37.7031 9.67188 37.7031 14.1094
Q37.7031 17.4844 34.7188 19.2344
Q32.8125 20.3125 27.2031 21.7344
L20.2188 23.4844
Q13.5312 25.1406 10.3594 27.2031
Q4.6875 30.7656 4.6875 37.0625
Q4.6875 44.4844 10.0312 49.0625
Q15.375 53.6562 24.4219 53.6562
Q36.2344 53.6562 41.4531 46.7344
Q44.7344 42.3281 44.625 37.25
L36.3281 37.25
Q36.0781 40.2344 34.2344 42.6719
Q31.2031 46.1406 23.7344 46.1406
Q18.75 46.1406 16.1875 44.2344
Q13.625 42.3281 13.625 39.2031
Q13.625 35.7969 17 33.7344
Q18.9531 32.5156 22.75 31.5938
L28.5625 30.1719
Q38.0312 27.875 41.2656 25.7344
Q46.3906 22.3594 46.3906 15.1406
Q46.3906 8.15625 41.0938 3.07812
Q35.7969 -2 24.9531 -2
Q13.2812 -2 8.42188 3.29688
Q3.5625 8.59375 3.21875 16.4062
z

M24.6562 53.5625
z
" id="Helvetica-73"/>
      <path d="
M27.2031 5.67188
Q35.9375 5.67188 39.1875 12.2812
Q42.4375 18.8906 42.4375 27
Q42.4375 34.3281 40.0938 38.9219
Q36.375 46.1406 27.2969 46.1406
Q19.2344 46.1406 15.5781 39.9844
Q11.9219 33.8438 11.9219 25.1406
Q11.9219 16.7969 15.5781 11.2344
Q19.2344 5.67188 27.2031 5.67188
z

M27.5469 53.8125
Q37.6406 53.8125 44.625 47.0625
Q51.6094 40.3281 51.6094 27.25
Q51.6094 14.5938 45.4531 6.34375
Q39.3125 -1.90625 26.375 -1.90625
Q15.5781 -1.90625 9.21875 5.39062
Q2.875 12.7031 2.875 25
Q2.875 38.1875 9.5625 46
Q16.2656 53.8125 27.5469 53.8125
z

M27.25 53.5625
z
" id="Helvetica-6f"/>
      <path d="
M15.2344 52.2969
L15.2344 17.5781
Q15.2344 13.5781 16.5 11.0312
Q18.8438 6.34375 25.25 6.34375
Q34.4219 6.34375 37.75 14.5469
Q39.5469 18.9531 39.5469 26.6094
L39.5469 52.2969
L48.3438 52.2969
L48.3438 0
L40.0469 0
L40.1406 7.71875
Q38.4219 4.73438 35.8906 2.6875
Q30.8594 -1.42188 23.6875 -1.42188
Q12.5 -1.42188 8.45312 6.0625
Q6.25 10.0625 6.25 16.75
L6.25 52.2969
z

M27.2969 53.5625
z
" id="Helvetica-75"/>
      <path d="
M7.85938 71.7344
L17.6719 71.7344
L17.6719 42.0938
L54.9844 42.0938
L54.9844 71.7344
L64.7969 71.7344
L64.7969 0
L54.9844 0
L54.9844 33.5469
L17.6719 33.5469
L17.6719 0
L7.85938 0
z
" id="Helvetica-48"/>
     </defs>
     <g transform="translate(604.70890625 623.218125)scale(0.26 -0.26)">
      <use xlink:href="#Helvetica-48"/>
      <use x="72.216796875" xlink:href="#Helvetica-6f"/>
      <use x="127.83203125" xlink:href="#Helvetica-75"/>
      <use x="183.447265625" xlink:href="#Helvetica-72"/>
      <use x="216.748046875" xlink:href="#Helvetica-73"/>
     </g>
    </g>
   </g>
   <g id="matplotlib.axis_2">
    <g id="ytick_1">
     <g id="line2d_16">
      <defs>
       <path d="
M0 0
L-10 0" id="mc86e36c9ad" style="stroke:#000000;stroke-width:3;"/>
      </defs>
      <g>
       <use style="stroke:#000000;stroke-width:3;" x="79.8934375" xlink:href="#mc86e36c9ad" y="542.88"/>
      </g>
     </g>
     <g id="text_9">
      <!-- 0.0 -->
      <defs>
       <path d="
M8.54688 10.6406
L18.75 10.6406
L18.75 0
L8.54688 0
z
" id="Helvetica-2e"/>
      </defs>
      <g transform="translate(36.9325 548.47796875)scale(0.22 -0.22)">
       <use xlink:href="#Helvetica-30"/>
       <use x="55.615234375" xlink:href="#Helvetica-2e"/>
       <use x="83.3984375" xlink:href="#Helvetica-30"/>
      </g>
     </g>
    </g>
    <g id="ytick_2">
     <g id="line2d_17">
      <g>
       <use style="stroke:#000000;stroke-width:3;" x="79.8934375" xlink:href="#mc86e36c9ad" y="319.68"/>
      </g>
     </g>
     <g id="text_10">
      <!-- 0.5 -->
      <g transform="translate(36.9325 325.27796875)scale(0.22 -0.22)">
       <use xlink:href="#Helvetica-30"/>
       <use x="55.615234375" xlink:href="#Helvetica-2e"/>
       <use x="83.3984375" xlink:href="#Helvetica-35"/>
      </g>
     </g>
    </g>
    <g id="ytick_3">
     <g id="line2d_18">
      <g>
       <use style="stroke:#000000;stroke-width:3;" x="79.8934375" xlink:href="#mc86e36c9ad" y="96.48"/>
      </g>
     </g>
     <g id="text_11">
      <!-- 1.0 -->
      <g transform="translate(38.3521875 102.07796875)scale(0.22 -0.22)">
       <use xlink:href="#Helvetica-31"/>
       <use x="55.615234375" xlink:href="#Helvetica-2e"/>
       <use x="83.3984375" xlink:href="#Helvetica-30"/>
      </g>
     </g>
    </g>
    <g id="text_12">
     <!-- Cell density (OD600) -->
     <defs>
      <path d="
M37.8438 73.6875
Q51.4688 73.6875 58.9844 66.5
Q66.5 59.3281 67.3281 50.2031
L57.8594 50.2031
Q56.25 57.125 51.4375 61.1719
Q46.625 65.2344 37.9375 65.2344
Q27.3438 65.2344 20.8281 57.7812
Q14.3125 50.3438 14.3125 34.9688
Q14.3125 22.3594 20.1875 14.5156
Q26.0781 6.6875 37.75 6.6875
Q48.4844 6.6875 54.1094 14.9375
Q57.0781 19.2812 58.5469 26.375
L68.0156 26.375
Q66.75 15.0469 59.625 7.375
Q51.0781 -1.85938 36.5781 -1.85938
Q24.0781 -1.85938 15.5781 5.71875
Q4.39062 15.7188 4.39062 36.625
Q4.39062 52.4844 12.7969 62.6406
Q21.875 73.6875 37.8438 73.6875
z

M35.8906 73.6875
z
" id="Helvetica-43"/>
      <path d="
M35.1562 8.29688
Q40.0938 8.29688 43.2656 9.32812
Q48.9219 11.2344 52.5469 16.6562
Q55.4219 21 56.6875 27.7812
Q57.4219 31.8438 57.4219 35.2969
Q57.4219 48.6406 52.125 56
Q46.8281 63.375 35.0625 63.375
L17.8281 63.375
L17.8281 8.29688
z

M8.0625 71.7344
L37.1094 71.7344
Q51.9062 71.7344 60.0625 61.2344
Q67.3281 51.7656 67.3281 36.9688
Q67.3281 25.5312 63.0312 16.3125
Q55.4688 0 37.0156 0
L8.0625 0
z
" id="Helvetica-44"/>
      <path d="
M38.5781 73.6875
Q57.5625 73.6875 66.7031 61.4688
Q73.8281 51.9531 73.8281 37.1094
Q73.8281 21.0469 65.6719 10.4062
Q56.1094 -2.09375 38.375 -2.09375
Q21.8281 -2.09375 12.3594 8.84375
Q3.90625 19.3906 3.90625 35.5
Q3.90625 50.0469 11.1406 60.4062
Q20.4062 73.6875 38.5781 73.6875
z

M39.5469 6.59375
Q52.3906 6.59375 58.125 15.7969
Q63.875 25 63.875 36.9688
Q63.875 49.6094 57.25 57.3281
Q50.6406 65.0469 39.1562 65.0469
Q28.0312 65.0469 21 57.3906
Q13.9688 49.75 13.9688 34.8594
Q13.9688 22.9531 20 14.7656
Q26.0312 6.59375 39.5469 6.59375
z

M38.875 73.6875
z
" id="Helvetica-4f"/>
      <path d="
M12.0156 25.5312
Q12.0156 17.1406 15.5781 11.4688
Q19.1406 5.8125 27 5.8125
Q33.1094 5.8125 37.0312 11.0625
Q40.9688 16.3125 40.9688 26.125
Q40.9688 36.0312 36.9062 40.7969
Q32.8594 45.5625 26.9062 45.5625
Q20.2656 45.5625 16.1406 40.4844
Q12.0156 35.4062 12.0156 25.5312
z

M25.25 53.2188
Q31.25 53.2188 35.2969 50.6875
Q37.6406 49.2188 40.625 45.5625
L40.625 71.9688
L49.0781 71.9688
L49.0781 0
L41.1562 0
L41.1562 7.28125
Q38.0938 2.4375 33.8906 0.28125
Q29.6875 -1.85938 24.2656 -1.85938
Q15.5312 -1.85938 9.125 5.48438
Q2.73438 12.8438 2.73438 25.0469
Q2.73438 36.4688 8.5625 44.8438
Q14.4062 53.2188 25.25 53.2188
z
" id="Helvetica-64"/>
      <path d="
M3.46875 -20.4062
Q11.2344 -5.28125 13.4844 1.65625
Q16.8906 12.1562 16.8906 26.2656
Q16.8906 40.375 12.9375 52.0938
Q10.5 59.3281 3.32812 72.9062
L9.23438 72.9062
Q16.75 60.8906 18.3281 58.0781
Q19.9219 55.2812 21.7812 50.3438
Q24.125 44.2344 25.125 38.2812
Q26.125 32.3281 26.125 26.8125
Q26.125 12.3594 21.5312 1.03125
Q18.6562 -6.25 9.57812 -20.4062
z
" id="Helvetica-29"/>
      <path d="
M29.5938 72.9062
Q21.9219 58.0156 19.625 50.9844
Q16.1562 40.2812 16.1562 26.2656
Q16.1562 12.1094 20.125 0.390625
Q22.5625 -6.84375 29.7344 -20.4062
L23.8281 -20.4062
Q16.7031 -9.28125 14.9844 -6.20312
Q13.2812 -3.125 11.2812 2.15625
Q8.54688 9.375 7.46875 17.5781
Q6.9375 21.8281 6.9375 25.6875
Q6.9375 40.1406 11.4688 51.4219
Q14.3594 58.5938 23.4844 72.9062
z
" id="Helvetica-28"/>
      <path id="Helvetica-20"/>
      <path d="
M39.1094 52.2969
L48.8281 52.2969
Q46.9688 47.2656 40.5781 29.3438
Q35.7969 15.875 32.5625 7.375
Q24.9531 -12.6406 21.8281 -17.0312
Q18.7031 -21.4375 11.0781 -21.4375
Q9.23438 -21.4375 8.23438 -21.2812
Q7.23438 -21.1406 5.76562 -20.75
L5.76562 -12.75
Q8.0625 -13.375 9.07812 -13.5156
Q10.1094 -13.6719 10.8906 -13.6719
Q13.3281 -13.6719 14.4688 -12.8594
Q15.625 -12.0625 16.4062 -10.8906
Q16.6562 -10.5 18.1562 -6.875
Q19.6719 -3.26562 20.3594 -1.51562
L1.03125 52.2969
L10.9844 52.2969
L25 9.71875
z

M24.9531 53.5625
z
" id="Helvetica-79"/>
      <path d="
M6.6875 71.7344
L15.4844 71.7344
L15.4844 0
L6.6875 0
z
" id="Helvetica-6c"/>
      <path d="
M8.20312 66.8906
L17.0938 66.8906
L17.0938 52.2969
L25.4375 52.2969
L25.4375 45.125
L17.0938 45.125
L17.0938 10.9844
Q17.0938 8.25 18.9531 7.32812
Q19.9688 6.78125 22.3594 6.78125
Q23 6.78125 23.7344 6.8125
Q24.4688 6.84375 25.4375 6.9375
L25.4375 0
Q23.9219 -0.4375 22.2812 -0.625
Q20.6562 -0.828125 18.75 -0.828125
Q12.5938 -0.828125 10.3906 2.3125
Q8.20312 5.46875 8.20312 10.5
L8.20312 45.125
L1.125 45.125
L1.125 52.2969
L8.20312 52.2969
z
" id="Helvetica-74"/>
      <path d="
M6.45312 52.2969
L14.7969 52.2969
L14.7969 44.875
Q18.5 49.4688 22.6562 51.4688
Q26.8125 53.4688 31.8906 53.4688
Q43.0156 53.4688 46.9219 45.7031
Q49.0781 41.4531 49.0781 33.5469
L49.0781 0
L40.1406 0
L40.1406 32.9531
Q40.1406 37.75 38.7188 40.6719
Q36.375 45.5625 30.2188 45.5625
Q27.0938 45.5625 25.0938 44.9219
Q21.4844 43.8438 18.75 40.625
Q16.5469 38.0312 15.8906 35.2656
Q15.2344 32.5156 15.2344 27.3906
L15.2344 0
L6.45312 0
z

M27.0938 53.5625
z
" id="Helvetica-6e"/>
      <path d="
M28.2188 53.4688
Q33.7969 53.4688 39.0156 50.8594
Q44.2344 48.25 46.9688 44.0938
Q49.6094 40.1406 50.4844 34.8594
Q51.2656 31.25 51.2656 23.3438
L12.9375 23.3438
Q13.1875 15.375 16.7031 10.5625
Q20.2188 5.76562 27.5938 5.76562
Q34.4688 5.76562 38.5781 10.2969
Q40.9219 12.9375 41.8906 16.4062
L50.5312 16.4062
Q50.2031 13.5312 48.2656 9.98438
Q46.3438 6.45312 43.9531 4.20312
Q39.9375 0.296875 34.0312 -1.07812
Q30.8594 -1.85938 26.8594 -1.85938
Q17.0938 -1.85938 10.2969 5.25
Q3.51562 12.3594 3.51562 25.1406
Q3.51562 37.75 10.3438 45.6094
Q17.1875 53.4688 28.2188 53.4688
z

M42.2344 30.3281
Q41.7031 36.0312 39.75 39.4531
Q36.1406 45.7969 27.6875 45.7969
Q21.625 45.7969 17.5156 41.4219
Q13.4219 37.0625 13.1875 30.3281
z

M27.3906 53.5625
z
" id="Helvetica-65"/>
      <path d="
M6.45312 52.0469
L15.375 52.0469
L15.375 0
L6.45312 0
z

M6.45312 71.7344
L15.375 71.7344
L15.375 61.7656
L6.45312 61.7656
z
" id="Helvetica-69"/>
      <path d="
M29.25 70.2188
Q40.9688 70.2188 45.5781 64.1406
Q50.2031 58.0625 50.2031 51.6094
L41.5 51.6094
Q40.7188 55.7656 39.0156 58.1094
Q35.8438 62.5 29.3906 62.5
Q22.0156 62.5 17.6719 55.6875
Q13.3281 48.875 12.8438 36.1875
Q15.875 40.625 20.4531 42.8281
Q24.6562 44.7812 29.8281 44.7812
Q38.625 44.7812 45.1562 39.1562
Q51.7031 33.5469 51.7031 22.4062
Q51.7031 12.8906 45.5 5.53125
Q39.3125 -1.8125 27.8281 -1.8125
Q18.0156 -1.8125 10.8906 5.64062
Q3.76562 13.0938 3.76562 30.7188
Q3.76562 43.75 6.9375 52.8281
Q13.0312 70.2188 29.25 70.2188
z

M28.6094 6
Q35.5469 6 38.9844 10.6562
Q42.4375 15.3281 42.4375 21.6875
Q42.4375 27.0469 39.3594 31.9062
Q36.2812 36.7656 28.1719 36.7656
Q22.5156 36.7656 18.2344 33
Q13.9688 29.25 13.9688 21.6875
Q13.9688 15.0469 17.8438 10.5156
Q21.7344 6 28.6094 6
z
" id="Helvetica-36"/>
     </defs>
     <g transform="translate(26.35875 405.9178125)rotate(-90.0)scale(0.26 -0.26)">
      <use xlink:href="#Helvetica-43"/>
      <use x="72.216796875" xlink:href="#Helvetica-65"/>
      <use x="127.83203125" xlink:href="#Helvetica-6c"/>
      <use x="150.048828125" xlink:href="#Helvetica-6c"/>
      <use x="172.265625" xlink:href="#Helvetica-20"/>
      <use x="200.048828125" xlink:href="#Helvetica-64"/>
      <use x="255.6640625" xlink:href="#Helvetica-65"/>
      <use x="311.279296875" xlink:href="#Helvetica-6e"/>
      <use x="366.89453125" xlink:href="#Helvetica-73"/>
      <use x="416.89453125" xlink:href="#Helvetica-69"/>
      <use x="439.111328125" xlink:href="#Helvetica-74"/>
      <use x="466.89453125" xlink:href="#Helvetica-79"/>
      <use x="516.89453125" xlink:href="#Helvetica-20"/>
      <use x="544.677734375" xlink:href="#Helvetica-28"/>
      <use x="577.978515625" xlink:href="#Helvetica-4f"/>
      <use x="655.76171875" xlink:href="#Helvetica-44"/>
      <use x="727.978515625" xlink:href="#Helvetica-36"/>
      <use x="783.59375" xlink:href="#Helvetica-30"/>
      <use x="839.208984375" xlink:href="#Helvetica-30"/>
      <use x="894.82421875" xlink:href="#Helvetica-29"/>
     </g>
    </g>
   </g>
   <g id="legend_1">
    <g id="patch_5">
     <path d="
M861.093 495.45
L1070.72 495.45
L1070.72 260.719
L861.093 260.719
z
" style="fill:#ffffff;stroke:#000000;stroke-linejoin:miter;"/>
    </g>
    <g id="line2d_19">
     <path d="
M875.093 276.066
L903.093 276.066" style="fill:none;stroke:#c7b1d3;stroke-linecap:square;stroke-width:2;"/>
    </g>
    <g id="line2d_20"/>
    <g id="text_13">
     <!-- WT -->
     <defs>
      <path d="
M59.8125 71.7344
L59.8125 63.1875
L35.6406 63.1875
L35.6406 0
L25.7812 0
L25.7812 63.1875
L1.60938 63.1875
L1.60938 71.7344
z
" id="Helvetica-54"/>
      <path d="
M12.3594 71.7344
L25.875 13.375
L42.0938 71.7344
L52.6406 71.7344
L68.8438 13.375
L82.375 71.7344
L93.0156 71.7344
L74.1719 0
L63.9688 0
L47.4062 59.4688
L30.7656 0
L20.5625 0
L1.8125 71.7344
z
" id="Helvetica-57"/>
     </defs>
     <g transform="translate(925.0934375 283.065625)scale(0.2 -0.2)">
      <use xlink:href="#Helvetica-57"/>
      <use x="94.384765625" xlink:href="#Helvetica-54"/>
     </g>
    </g>
    <g id="line2d_21">
     <path d="
M875.093 304.884
L903.093 304.884" style="fill:none;stroke:#d92526;stroke-linecap:square;stroke-width:2;"/>
    </g>
    <g id="line2d_22"/>
    <g id="text_14">
     <!-- GFP (-) -->
     <defs>
      <path d="
M4.15625 32.375
L28.6562 32.375
L28.6562 23.3438
L4.15625 23.3438
z
" id="Helvetica-2d"/>
      <path d="
M8.54688 71.7344
L58.2969 71.7344
L58.2969 62.9375
L18.2656 62.9375
L18.2656 41.1562
L53.4688 41.1562
L53.4688 32.625
L18.2656 32.625
L18.2656 0
L8.54688 0
z
" id="Helvetica-46"/>
      <path d="
M38.625 73.5781
Q48.7344 73.5781 56.1094 69.6719
Q66.7969 64.0625 69.1875 50
L59.5781 50
Q57.8125 57.8594 52.2969 61.4531
Q46.7812 65.0469 38.375 65.0469
Q28.4219 65.0469 21.6094 57.5625
Q14.7969 50.0938 14.7969 35.2969
Q14.7969 22.5156 20.4062 14.4844
Q26.0312 6.45312 38.7188 6.45312
Q48.4375 6.45312 54.8125 12.0781
Q61.1875 17.7188 61.3281 30.3281
L38.875 30.3281
L38.875 38.375
L70.3594 38.375
L70.3594 0
L64.1094 0
L61.7656 9.23438
Q56.8438 3.8125 53.0312 1.70312
Q46.625 -1.90625 36.7656 -1.90625
Q24.0312 -1.90625 14.8438 6.34375
Q4.82812 16.7031 4.82812 34.7656
Q4.82812 52.7812 14.5938 63.4219
Q23.875 73.5781 38.625 73.5781
z

M37.0156 73.6875
z
" id="Helvetica-47"/>
      <path d="
M8.54688 71.7344
L40.8281 71.7344
Q50.3906 71.7344 56.25 66.3281
Q62.1094 60.9375 62.1094 51.1719
Q62.1094 42.7812 56.875 36.5469
Q51.6562 30.3281 40.8281 30.3281
L18.2656 30.3281
L18.2656 0
L8.54688 0
z

M52.2969 51.125
Q52.2969 59.0312 46.4375 61.8594
Q43.2188 63.375 37.5938 63.375
L18.2656 63.375
L18.2656 38.5312
L37.5938 38.5312
Q44.1406 38.5312 48.2188 41.3125
Q52.2969 44.0938 52.2969 51.125
z
" id="Helvetica-50"/>
     </defs>
     <g transform="translate(925.0934375 311.884375)scale(0.2 -0.2)">
      <use xlink:href="#Helvetica-47"/>
      <use x="77.783203125" xlink:href="#Helvetica-46"/>
      <use x="138.8671875" xlink:href="#Helvetica-50"/>
      <use x="205.56640625" xlink:href="#Helvetica-20"/>
      <use x="233.349609375" xlink:href="#Helvetica-28"/>
      <use x="266.650390625" xlink:href="#Helvetica-2d"/>
      <use x="299.951171875" xlink:href="#Helvetica-29"/>
     </g>
    </g>
    <g id="line2d_23">
     <path d="
M875.093 333.703
L903.093 333.703" style="fill:none;stroke:#6c4595;stroke-linecap:square;stroke-width:2;"/>
    </g>
    <g id="line2d_24"/>
    <g id="text_15">
     <!-- hCA (+) -->
     <defs>
      <path d="
M6.45312 71.9688
L15.2344 71.9688
L15.2344 45.2188
Q18.3594 49.1719 20.8438 50.7812
Q25.0938 53.5625 31.4531 53.5625
Q42.8281 53.5625 46.875 45.6094
Q49.0781 41.2656 49.0781 33.5469
L49.0781 0
L40.0469 0
L40.0469 32.9531
Q40.0469 38.7188 38.5781 41.4062
Q36.1875 45.7031 29.5938 45.7031
Q24.125 45.7031 19.6719 41.9375
Q15.2344 38.1875 15.2344 27.7344
L15.2344 0
L6.45312 0
z
" id="Helvetica-68"/>
      <path d="
M44.4375 29.3906
L33.5469 61.0781
L21.9688 29.3906
z

M28.4688 71.7344
L39.4531 71.7344
L65.4844 0
L54.8281 0
L47.5625 21.4844
L19.1875 21.4844
L11.4219 0
L1.46875 0
z

M33.5 71.7344
z
" id="Helvetica-41"/>
      <path d="
M4.5 21.3906
L4.5 29.5938
L25.7812 29.5938
L25.7812 51.0312
L34.125 51.0312
L34.125 29.5938
L55.4219 29.5938
L55.4219 21.3906
L34.125 21.3906
L34.125 0
L25.7812 0
L25.7812 21.3906
z
" id="Helvetica-2b"/>
     </defs>
     <g transform="translate(925.0934375 340.703125)scale(0.2 -0.2)">
      <use xlink:href="#Helvetica-68"/>
      <use x="55.615234375" xlink:href="#Helvetica-43"/>
      <use x="127.83203125" xlink:href="#Helvetica-41"/>
      <use x="194.53125" xlink:href="#Helvetica-20"/>
      <use x="222.314453125" xlink:href="#Helvetica-28"/>
      <use x="255.615234375" xlink:href="#Helvetica-2b"/>
      <use x="314.013671875" xlink:href="#Helvetica-29"/>
     </g>
    </g>
    <g id="line2d_25">
     <path d="
M875.093 362.219
L903.093 362.219" style="fill:none;stroke:#2777ad;stroke-linecap:square;stroke-width:2;"/>
    </g>
    <g id="line2d_26"/>
    <g id="text_16">
     <!-- dabAB2 -->
     <defs>
      <path d="
M5.76562 71.9688
L14.3125 71.9688
L14.3125 45.9531
Q17.1875 49.7031 21.1875 51.6719
Q25.2031 53.6562 29.8906 53.6562
Q39.6562 53.6562 45.7344 46.9375
Q51.8125 40.2344 51.8125 27.1562
Q51.8125 14.75 45.7969 6.54688
Q39.7969 -1.65625 29.1562 -1.65625
Q23.1875 -1.65625 19.0938 1.21875
Q16.6562 2.9375 13.875 6.6875
L13.875 0
L5.76562 0
z

M28.6094 6.10938
Q35.75 6.10938 39.2812 11.7656
Q42.8281 17.4375 42.8281 26.7031
Q42.8281 34.9688 39.2812 40.375
Q35.75 45.7969 28.8594 45.7969
Q22.8594 45.7969 18.3281 41.3594
Q13.8125 36.9219 13.8125 26.7031
Q13.8125 19.3438 15.6719 14.75
Q19.1406 6.10938 28.6094 6.10938
z
" id="Helvetica-62"/>
      <path d="
M34.5781 41.4062
Q40.7188 41.4062 44.1406 43.1094
Q49.5156 45.7969 49.5156 52.7812
Q49.5156 59.8125 43.7969 62.25
Q40.5781 63.625 34.2344 63.625
L16.8906 63.625
L16.8906 41.4062
z

M37.8438 8.29688
Q46.7812 8.29688 50.5938 13.4844
Q52.9844 16.75 52.9844 21.3906
Q52.9844 29.2031 46 32.0312
Q42.2812 33.5469 36.1875 33.5469
L16.8906 33.5469
L16.8906 8.29688
z

M7.375 71.7344
L38.1875 71.7344
Q50.7812 71.7344 56.1094 64.2031
Q59.2344 59.7656 59.2344 53.9531
Q59.2344 47.1719 55.375 42.8281
Q53.375 40.5312 49.6094 38.625
Q55.125 36.5312 57.8594 33.8906
Q62.7031 29.2031 62.7031 20.9531
Q62.7031 14.0156 58.3438 8.40625
Q51.8594 0 37.7031 0
L7.375 0
z
" id="Helvetica-42"/>
      <path d="
M13.1875 13.9219
Q13.1875 10.1094 15.9688 7.90625
Q18.75 5.71875 22.5625 5.71875
Q27.2031 5.71875 31.5469 7.85938
Q38.875 11.4219 38.875 19.5312
L38.875 26.6094
Q37.25 25.5938 34.7031 24.9062
Q32.1719 24.2188 29.7344 23.9219
L24.4219 23.25
Q19.625 22.6094 17.2344 21.2344
Q13.1875 18.9531 13.1875 13.9219
z

M34.4688 31.6875
Q37.5 32.0781 38.5312 34.2344
Q39.1094 35.4062 39.1094 37.5938
Q39.1094 42.0938 35.9062 44.1094
Q32.7188 46.1406 26.7656 46.1406
Q19.875 46.1406 17 42.4375
Q15.375 40.375 14.8906 36.3281
L6.6875 36.3281
Q6.9375 46 12.9688 49.7812
Q19 53.5625 26.9531 53.5625
Q36.1875 53.5625 41.9375 50.0469
Q47.6562 46.5312 47.6562 39.1094
L47.6562 8.98438
Q47.6562 7.625 48.2188 6.78125
Q48.7812 5.95312 50.5938 5.95312
Q51.1719 5.95312 51.9062 6.03125
Q52.6406 6.10938 53.4688 6.25
L53.4688 -0.25
Q51.4219 -0.828125 50.3438 -0.96875
Q49.2656 -1.125 47.4062 -1.125
Q42.875 -1.125 40.8281 2.09375
Q39.75 3.8125 39.3125 6.9375
Q36.625 3.42188 31.5938 0.828125
Q26.5625 -1.76562 20.5156 -1.76562
Q13.2344 -1.76562 8.60938 2.65625
Q4 7.07812 4 13.7188
Q4 21 8.54688 25
Q13.0938 29 20.4531 29.9375
z

M27.2031 53.5625
z
" id="Helvetica-61"/>
     </defs>
     <g transform="translate(925.0934375 369.21875)scale(0.2 -0.2)">
      <use xlink:href="#Helvetica-64"/>
      <use x="55.615234375" xlink:href="#Helvetica-61"/>
      <use x="111.23046875" xlink:href="#Helvetica-62"/>
      <use x="166.845703125" xlink:href="#Helvetica-41"/>
      <use x="233.544921875" xlink:href="#Helvetica-42"/>
      <use x="300.244140625" xlink:href="#Helvetica-32"/>
     </g>
    </g>
    <g id="line2d_27">
     <path d="
M875.093 390.734
L903.093 390.734" style="fill:none;stroke:#f2800e;stroke-linecap:square;stroke-width:2;"/>
    </g>
    <g id="line2d_28"/>
    <g id="text_17">
     <!-- dabAB2 C351A -->
     <g transform="translate(925.0934375 397.734375)scale(0.2 -0.2)">
      <use xlink:href="#Helvetica-64"/>
      <use x="55.615234375" xlink:href="#Helvetica-61"/>
      <use x="111.23046875" xlink:href="#Helvetica-62"/>
      <use x="166.845703125" xlink:href="#Helvetica-41"/>
      <use x="233.544921875" xlink:href="#Helvetica-42"/>
      <use x="300.244140625" xlink:href="#Helvetica-32"/>
      <use x="355.859375" xlink:href="#Helvetica-20"/>
      <use x="383.642578125" xlink:href="#Helvetica-43"/>
      <use x="455.859375" xlink:href="#Helvetica-33"/>
      <use x="511.474609375" xlink:href="#Helvetica-35"/>
      <use x="567.08984375" xlink:href="#Helvetica-31"/>
      <use x="622.705078125" xlink:href="#Helvetica-41"/>
     </g>
    </g>
    <g id="line2d_29">
     <path d="
M875.093 419.25
L903.093 419.25" style="fill:none;stroke:#3b9c34;stroke-linecap:square;stroke-width:2;"/>
    </g>
    <g id="line2d_30"/>
    <g id="text_18">
     <!-- dabAB2 D353A -->
     <g transform="translate(925.0934375 426.25)scale(0.2 -0.2)">
      <use xlink:href="#Helvetica-64"/>
      <use x="55.615234375" xlink:href="#Helvetica-61"/>
      <use x="111.23046875" xlink:href="#Helvetica-62"/>
      <use x="166.845703125" xlink:href="#Helvetica-41"/>
      <use x="233.544921875" xlink:href="#Helvetica-42"/>
      <use x="300.244140625" xlink:href="#Helvetica-32"/>
      <use x="355.859375" xlink:href="#Helvetica-20"/>
      <use x="383.642578125" xlink:href="#Helvetica-44"/>
      <use x="455.859375" xlink:href="#Helvetica-33"/>
      <use x="511.474609375" xlink:href="#Helvetica-35"/>
      <use x="567.08984375" xlink:href="#Helvetica-33"/>
      <use x="622.705078125" xlink:href="#Helvetica-41"/>
     </g>
    </g>
    <g id="line2d_31">
     <path d="
M875.093 447.766
L903.093 447.766" style="fill:none;stroke:#f69d9c;stroke-linecap:square;stroke-width:2;"/>
    </g>
    <g id="line2d_32"/>
    <g id="text_19">
     <!-- dabAB2 H524A -->
     <defs>
      <path d="
M33.0625 24.75
L33.0625 56.4531
L10.6406 24.75
z

M33.2031 0
L33.2031 17.0938
L2.54688 17.0938
L2.54688 25.6875
L34.5781 70.125
L42 70.125
L42 24.75
L52.2969 24.75
L52.2969 17.0938
L42 17.0938
L42 0
z
" id="Helvetica-34"/>
     </defs>
     <g transform="translate(925.0934375 454.765625)scale(0.2 -0.2)">
      <use xlink:href="#Helvetica-64"/>
      <use x="55.615234375" xlink:href="#Helvetica-61"/>
      <use x="111.23046875" xlink:href="#Helvetica-62"/>
      <use x="166.845703125" xlink:href="#Helvetica-41"/>
      <use x="233.544921875" xlink:href="#Helvetica-42"/>
      <use x="300.244140625" xlink:href="#Helvetica-32"/>
      <use x="355.859375" xlink:href="#Helvetica-20"/>
      <use x="383.642578125" xlink:href="#Helvetica-48"/>
      <use x="455.859375" xlink:href="#Helvetica-35"/>
      <use x="511.474609375" xlink:href="#Helvetica-32"/>
      <use x="567.08984375" xlink:href="#Helvetica-34"/>
      <use x="622.705078125" xlink:href="#Helvetica-41"/>
     </g>
    </g>
    <g id="line2d_33">
     <path d="
M875.093 476.281
L903.093 476.281" style="fill:none;stroke:#b0d98f;stroke-linecap:square;stroke-width:2;"/>
    </g>
    <g id="line2d_34"/>
    <g id="text_20">
     <!-- dabAB2 C539A -->
     <defs>
      <path d="
M13.2812 16.8906
Q13.6719 9.625 18.8906 6.84375
Q21.5781 5.375 24.9531 5.375
Q31.25 5.375 35.6875 10.625
Q40.1406 15.875 42 31.9375
Q39.0625 27.2969 34.7344 25.4062
Q30.4219 23.5312 25.4375 23.5312
Q15.3281 23.5312 9.4375 29.8281
Q3.5625 36.1406 3.5625 46.0469
Q3.5625 55.5625 9.375 62.7812
Q15.1875 70.0156 26.5156 70.0156
Q41.7969 70.0156 47.6094 56.25
Q50.8281 48.6875 50.8281 37.3125
Q50.8281 24.4688 46.9688 14.5469
Q40.5781 -1.95312 25.2969 -1.95312
Q15.0469 -1.95312 9.71875 3.42188
Q4.39062 8.79688 4.39062 16.8906
z

M26.6094 31.25
Q31.8438 31.25 36.1562 34.6875
Q40.4844 38.1406 40.4844 46.7344
Q40.4844 54.4375 36.5938 58.2188
Q32.7188 62.0156 26.7031 62.0156
Q20.2656 62.0156 16.4844 57.6875
Q12.7031 53.375 12.7031 46.1406
Q12.7031 39.3125 16.0156 35.2812
Q19.3438 31.25 26.6094 31.25
z
" id="Helvetica-39"/>
     </defs>
     <g transform="translate(925.0934375 483.28125)scale(0.2 -0.2)">
      <use xlink:href="#Helvetica-64"/>
      <use x="55.615234375" xlink:href="#Helvetica-61"/>
      <use x="111.23046875" xlink:href="#Helvetica-62"/>
      <use x="166.845703125" xlink:href="#Helvetica-41"/>
      <use x="233.544921875" xlink:href="#Helvetica-42"/>
      <use x="300.244140625" xlink:href="#Helvetica-32"/>
      <use x="355.859375" xlink:href="#Helvetica-20"/>
      <use x="383.642578125" xlink:href="#Helvetica-43"/>
      <use x="455.859375" xlink:href="#Helvetica-35"/>
      <use x="511.474609375" xlink:href="#Helvetica-33"/>
      <use x="567.08984375" xlink:href="#Helvetica-39"/>
      <use x="622.705078125" xlink:href="#Helvetica-41"/>
     </g>
    </g>
   </g>
  </g>
 </g>
 <defs>
  <clipPath id="p39f61a35d8">
   <rect height="558.0" width="1116.0" x="79.8934375" y="7.2"/>
  </clipPath>
 </defs>
</svg>
